%TF.GenerationSoftware,KiCad,Pcbnew,7.0.1*%
%TF.CreationDate,2023-12-09T17:11:34+05:30*%
%TF.ProjectId,hologlyph bot circuit,686f6c6f-676c-4797-9068-20626f742063,rev?*%
%TF.SameCoordinates,Original*%
%TF.FileFunction,Copper,L2,Bot*%
%TF.FilePolarity,Positive*%
%FSLAX46Y46*%
G04 Gerber Fmt 4.6, Leading zero omitted, Abs format (unit mm)*
G04 Created by KiCad (PCBNEW 7.0.1) date 2023-12-09 17:11:34*
%MOMM*%
%LPD*%
G01*
G04 APERTURE LIST*
%ADD10C,0.150000*%
%TA.AperFunction,ComponentPad*%
%ADD11R,1.700000X1.700000*%
%TD*%
%TA.AperFunction,ComponentPad*%
%ADD12O,1.700000X1.700000*%
%TD*%
%TA.AperFunction,ComponentPad*%
%ADD13C,1.600000*%
%TD*%
%TA.AperFunction,ComponentPad*%
%ADD14O,1.600000X1.600000*%
%TD*%
%TA.AperFunction,ComponentPad*%
%ADD15R,2.000000X2.000000*%
%TD*%
%TA.AperFunction,ComponentPad*%
%ADD16C,2.000000*%
%TD*%
%TA.AperFunction,ComponentPad*%
%ADD17R,1.980000X3.960000*%
%TD*%
%TA.AperFunction,ComponentPad*%
%ADD18O,1.980000X3.960000*%
%TD*%
%TA.AperFunction,Conductor*%
%ADD19C,0.250000*%
%TD*%
G04 APERTURE END LIST*
D10*
G36*
X98550635Y-121378670D02*
G01*
X98581040Y-121409075D01*
X98615299Y-121477591D01*
X98615299Y-121727895D01*
X98581040Y-121796412D01*
X98550632Y-121826820D01*
X98482118Y-121861078D01*
X98327053Y-121861078D01*
X98289109Y-121842106D01*
X98289109Y-121363383D01*
X98327051Y-121344411D01*
X98482117Y-121344411D01*
X98550635Y-121378670D01*
G37*
G36*
X96377203Y-121363383D02*
G01*
X96377203Y-121842107D01*
X96339260Y-121861078D01*
X96184195Y-121861078D01*
X96115677Y-121826819D01*
X96085269Y-121796410D01*
X96051013Y-121727896D01*
X96051013Y-121477593D01*
X96085272Y-121409075D01*
X96115677Y-121378669D01*
X96184193Y-121344411D01*
X96339259Y-121344411D01*
X96377203Y-121363383D01*
G37*
G36*
X100883969Y-121378670D02*
G01*
X100914374Y-121409075D01*
X100948633Y-121477591D01*
X100948633Y-121727895D01*
X100914374Y-121796412D01*
X100883966Y-121826820D01*
X100815452Y-121861078D01*
X100708006Y-121861078D01*
X100639488Y-121826819D01*
X100609080Y-121796410D01*
X100574824Y-121727896D01*
X100574824Y-121477593D01*
X100609083Y-121409075D01*
X100639488Y-121378669D01*
X100708004Y-121344411D01*
X100815451Y-121344411D01*
X100883969Y-121378670D01*
G37*
G36*
X99455397Y-121378670D02*
G01*
X99485802Y-121409075D01*
X99520061Y-121477591D01*
X99520061Y-121727895D01*
X99485802Y-121796412D01*
X99455394Y-121826820D01*
X99386880Y-121861078D01*
X99279434Y-121861078D01*
X99210916Y-121826819D01*
X99180508Y-121796410D01*
X99146252Y-121727896D01*
X99146252Y-121477593D01*
X99180511Y-121409075D01*
X99210916Y-121378669D01*
X99279432Y-121344411D01*
X99386879Y-121344411D01*
X99455397Y-121378670D01*
G37*
G36*
X93805774Y-121861078D02*
G01*
X93517528Y-121861078D01*
X93449010Y-121826819D01*
X93418602Y-121796410D01*
X93384346Y-121727896D01*
X93384346Y-121620450D01*
X93418605Y-121551932D01*
X93445097Y-121525439D01*
X93552999Y-121489472D01*
X93555832Y-121489982D01*
X93562376Y-121487268D01*
X93805774Y-121487268D01*
X93805774Y-121861078D01*
G37*
G36*
X93805774Y-121337268D02*
G01*
X93565147Y-121337268D01*
X93496629Y-121303009D01*
X93466222Y-121272602D01*
X93431965Y-121204087D01*
X93431965Y-121144260D01*
X93466224Y-121075742D01*
X93496629Y-121045336D01*
X93565145Y-121011078D01*
X93805774Y-121011078D01*
X93805774Y-121337268D01*
G37*
G36*
X92788729Y-121378670D02*
G01*
X92819134Y-121409075D01*
X92853393Y-121477591D01*
X92853393Y-121727895D01*
X92819134Y-121796412D01*
X92788726Y-121826820D01*
X92720212Y-121861078D01*
X92612766Y-121861078D01*
X92544248Y-121826819D01*
X92513840Y-121796410D01*
X92479584Y-121727896D01*
X92479584Y-121477593D01*
X92513843Y-121409075D01*
X92544248Y-121378669D01*
X92612764Y-121344411D01*
X92720211Y-121344411D01*
X92788729Y-121378670D01*
G37*
G36*
X88567678Y-121861078D02*
G01*
X88279432Y-121861078D01*
X88210914Y-121826819D01*
X88180506Y-121796410D01*
X88146250Y-121727896D01*
X88146250Y-121620450D01*
X88180509Y-121551932D01*
X88207001Y-121525439D01*
X88314903Y-121489472D01*
X88317736Y-121489982D01*
X88324280Y-121487268D01*
X88567678Y-121487268D01*
X88567678Y-121861078D01*
G37*
G36*
X88567678Y-121337268D02*
G01*
X88327051Y-121337268D01*
X88258533Y-121303009D01*
X88228126Y-121272602D01*
X88193869Y-121204087D01*
X88193869Y-121144260D01*
X88228128Y-121075742D01*
X88258533Y-121045336D01*
X88327049Y-121011078D01*
X88567678Y-121011078D01*
X88567678Y-121337268D01*
G37*
G36*
X90567678Y-121384887D02*
G01*
X90279432Y-121384887D01*
X90210914Y-121350628D01*
X90180507Y-121320221D01*
X90146250Y-121251706D01*
X90146250Y-121144260D01*
X90180509Y-121075742D01*
X90210914Y-121045336D01*
X90279430Y-121011078D01*
X90567678Y-121011078D01*
X90567678Y-121384887D01*
G37*
G36*
X102629586Y-124046316D02*
G01*
X87337917Y-124046316D01*
X87337917Y-123567202D01*
X100565311Y-123567202D01*
X100583607Y-123607266D01*
X100620659Y-123631078D01*
X100923035Y-123631078D01*
X100939519Y-123633448D01*
X100944709Y-123631078D01*
X101224891Y-123631078D01*
X101256369Y-123621835D01*
X101285211Y-123588549D01*
X101291479Y-123544954D01*
X101273183Y-123504890D01*
X101236131Y-123481078D01*
X101003395Y-123481078D01*
X101003395Y-122784763D01*
X101059189Y-122840557D01*
X101065633Y-122851407D01*
X101084134Y-122860657D01*
X101102256Y-122870553D01*
X101103716Y-122870448D01*
X101190211Y-122913696D01*
X101222500Y-122919506D01*
X101263183Y-122902633D01*
X101288285Y-122866443D01*
X101289838Y-122822427D01*
X101267347Y-122784558D01*
X101163297Y-122732533D01*
X101081918Y-122651154D01*
X101020417Y-122558903D01*
X101421709Y-122558903D01*
X101757716Y-123566927D01*
X101757411Y-123575375D01*
X101764543Y-123587408D01*
X101765415Y-123590023D01*
X101770023Y-123596654D01*
X101779868Y-123613263D01*
X101782474Y-123614569D01*
X101784138Y-123616963D01*
X101801980Y-123624343D01*
X101819244Y-123632995D01*
X101822143Y-123632684D01*
X101824837Y-123633799D01*
X101843824Y-123630364D01*
X101863037Y-123628308D01*
X101865310Y-123626477D01*
X101868177Y-123625959D01*
X101882295Y-123612802D01*
X101897344Y-123600687D01*
X101898266Y-123597920D01*
X101900399Y-123595933D01*
X101905165Y-123577222D01*
X102241051Y-122569567D01*
X102242236Y-122536781D01*
X102219779Y-122498893D01*
X102180403Y-122479161D01*
X102136609Y-122483849D01*
X102102303Y-122511469D01*
X101833157Y-123318906D01*
X101567566Y-122522132D01*
X101548843Y-122495192D01*
X101508144Y-122478356D01*
X101464804Y-122486196D01*
X101432582Y-122516223D01*
X101421709Y-122558903D01*
X101020417Y-122558903D01*
X100997136Y-122523981D01*
X100994152Y-122513818D01*
X100985175Y-122506039D01*
X100984818Y-122505504D01*
X100977015Y-122498969D01*
X100960866Y-122484976D01*
X100960191Y-122484878D01*
X100959667Y-122484440D01*
X100938437Y-122481751D01*
X100917271Y-122478708D01*
X100916649Y-122478991D01*
X100915972Y-122478906D01*
X100896681Y-122488110D01*
X100877207Y-122497004D01*
X100876837Y-122497579D01*
X100876222Y-122497873D01*
X100864973Y-122516038D01*
X100853395Y-122534056D01*
X100853395Y-122534739D01*
X100853036Y-122535319D01*
X100853395Y-122556683D01*
X100853395Y-123481078D01*
X100631899Y-123481078D01*
X100600421Y-123490321D01*
X100571579Y-123523607D01*
X100565311Y-123567202D01*
X87337917Y-123567202D01*
X87337917Y-121611135D01*
X87993536Y-121611135D01*
X87996250Y-121617679D01*
X87996250Y-121741561D01*
X87994319Y-121759445D01*
X88001175Y-121773158D01*
X88005493Y-121787861D01*
X88010846Y-121792499D01*
X88047581Y-121865968D01*
X88050264Y-121878299D01*
X88064883Y-121892919D01*
X88078953Y-121908045D01*
X88080371Y-121908407D01*
X88106805Y-121934842D01*
X88113250Y-121945693D01*
X88131761Y-121954948D01*
X88149872Y-121964838D01*
X88151331Y-121964733D01*
X88224577Y-122001356D01*
X88239704Y-122011078D01*
X88255034Y-122011078D01*
X88270117Y-122013792D01*
X88276661Y-122011078D01*
X88637318Y-122011078D01*
X88653802Y-122013448D01*
X88668954Y-122006528D01*
X88684938Y-122001835D01*
X88688674Y-121997522D01*
X88693866Y-121995152D01*
X88702873Y-121981135D01*
X88713780Y-121968549D01*
X88714591Y-121962902D01*
X88717678Y-121958100D01*
X88717678Y-121941438D01*
X88720048Y-121924954D01*
X88717678Y-121919764D01*
X88717678Y-121835262D01*
X88993283Y-121835262D01*
X89002645Y-121878299D01*
X89062980Y-121938636D01*
X89074260Y-121952646D01*
X89088803Y-121957493D01*
X89102253Y-121964838D01*
X89109319Y-121964332D01*
X89229089Y-122004256D01*
X89239704Y-122011078D01*
X89260383Y-122011078D01*
X89281023Y-122011824D01*
X89282282Y-122011078D01*
X89347562Y-122011078D01*
X89359789Y-122014193D01*
X89379401Y-122007655D01*
X89399224Y-122001835D01*
X89400182Y-122000728D01*
X89519708Y-121960886D01*
X89537282Y-121957064D01*
X89548122Y-121946223D01*
X89560706Y-121937478D01*
X89563413Y-121930931D01*
X89641443Y-121852901D01*
X89652293Y-121846458D01*
X89661543Y-121827957D01*
X89671439Y-121809834D01*
X89671334Y-121808374D01*
X89703786Y-121743471D01*
X89710098Y-121737537D01*
X89713442Y-121724159D01*
X89714582Y-121721880D01*
X89716045Y-121713747D01*
X89760064Y-121537669D01*
X89765297Y-121529528D01*
X89765297Y-121516740D01*
X89765673Y-121515236D01*
X89765297Y-121505990D01*
X89765297Y-121376992D01*
X89768399Y-121367823D01*
X89765297Y-121355415D01*
X89765297Y-121353867D01*
X89762692Y-121344997D01*
X89718678Y-121168940D01*
X89719608Y-121160329D01*
X89713442Y-121147998D01*
X89712824Y-121145523D01*
X89708636Y-121138384D01*
X89706916Y-121134945D01*
X89993536Y-121134945D01*
X89996250Y-121141489D01*
X89996250Y-121265371D01*
X89994319Y-121283255D01*
X90001175Y-121296968D01*
X90005493Y-121311671D01*
X90010846Y-121316309D01*
X90047581Y-121389778D01*
X90050264Y-121402110D01*
X90064891Y-121416737D01*
X90078953Y-121431855D01*
X90080371Y-121432217D01*
X90106806Y-121458652D01*
X90113250Y-121469502D01*
X90131759Y-121478756D01*
X90149873Y-121488647D01*
X90151331Y-121488542D01*
X90224577Y-121525165D01*
X90239704Y-121534887D01*
X90255034Y-121534887D01*
X90270117Y-121537601D01*
X90276661Y-121534887D01*
X90567678Y-121534887D01*
X90567678Y-121946860D01*
X90576921Y-121978338D01*
X90610207Y-122007180D01*
X90653802Y-122013448D01*
X90693866Y-121995152D01*
X90717678Y-121958100D01*
X90717678Y-121947202D01*
X91660547Y-121947202D01*
X91678843Y-121987266D01*
X91715895Y-122011078D01*
X91829115Y-122011078D01*
X91846999Y-122013009D01*
X91860712Y-122006152D01*
X91875415Y-122001835D01*
X91880053Y-121996481D01*
X91944844Y-121964085D01*
X91947759Y-121964188D01*
X91964366Y-121954324D01*
X91971577Y-121950719D01*
X91973591Y-121948845D01*
X91985627Y-121941697D01*
X91989409Y-121934132D01*
X91995599Y-121928375D01*
X91999064Y-121914821D01*
X92041289Y-121830371D01*
X92051012Y-121815242D01*
X92051012Y-121799912D01*
X92053726Y-121784829D01*
X92051012Y-121778286D01*
X92051012Y-121468278D01*
X92326870Y-121468278D01*
X92329584Y-121474822D01*
X92329584Y-121741561D01*
X92327653Y-121759445D01*
X92334509Y-121773158D01*
X92338827Y-121787861D01*
X92344180Y-121792499D01*
X92380915Y-121865968D01*
X92383598Y-121878299D01*
X92398217Y-121892919D01*
X92412287Y-121908045D01*
X92413705Y-121908407D01*
X92440139Y-121934842D01*
X92446584Y-121945693D01*
X92465095Y-121954948D01*
X92483206Y-121964838D01*
X92484665Y-121964733D01*
X92557911Y-122001356D01*
X92573038Y-122011078D01*
X92588368Y-122011078D01*
X92603451Y-122013792D01*
X92609995Y-122011078D01*
X92733877Y-122011078D01*
X92751761Y-122013009D01*
X92765474Y-122006152D01*
X92780177Y-122001835D01*
X92784815Y-121996481D01*
X92858283Y-121959746D01*
X92870617Y-121957064D01*
X92885248Y-121942431D01*
X92900361Y-121928375D01*
X92900723Y-121926955D01*
X92927157Y-121900521D01*
X92938008Y-121894077D01*
X92947264Y-121875563D01*
X92957154Y-121857453D01*
X92957049Y-121855993D01*
X92993671Y-121782749D01*
X93003393Y-121767623D01*
X93003393Y-121752293D01*
X93006107Y-121737210D01*
X93003393Y-121730666D01*
X93003393Y-121611135D01*
X93231632Y-121611135D01*
X93234346Y-121617679D01*
X93234346Y-121741561D01*
X93232415Y-121759445D01*
X93239271Y-121773158D01*
X93243589Y-121787861D01*
X93248942Y-121792499D01*
X93285677Y-121865968D01*
X93288360Y-121878299D01*
X93302979Y-121892919D01*
X93317049Y-121908045D01*
X93318467Y-121908407D01*
X93344901Y-121934842D01*
X93351346Y-121945693D01*
X93369857Y-121954948D01*
X93387968Y-121964838D01*
X93389427Y-121964733D01*
X93462673Y-122001356D01*
X93477800Y-122011078D01*
X93493130Y-122011078D01*
X93508213Y-122013792D01*
X93514757Y-122011078D01*
X93875414Y-122011078D01*
X93891898Y-122013448D01*
X93907050Y-122006528D01*
X93923034Y-122001835D01*
X93926770Y-121997522D01*
X93931962Y-121995152D01*
X93940969Y-121981135D01*
X93951876Y-121968549D01*
X93952687Y-121962902D01*
X93955774Y-121958100D01*
X93955774Y-121941438D01*
X93958144Y-121924954D01*
X93955774Y-121919764D01*
X93955774Y-121420659D01*
X95041156Y-121420659D01*
X95043870Y-121427203D01*
X95043870Y-121946860D01*
X95053113Y-121978338D01*
X95086399Y-122007180D01*
X95129994Y-122013448D01*
X95170058Y-121995152D01*
X95193870Y-121958100D01*
X95193870Y-121429974D01*
X95222391Y-121372931D01*
X95279431Y-121344411D01*
X95386878Y-121344411D01*
X95455396Y-121378670D01*
X95472441Y-121395715D01*
X95472441Y-121946860D01*
X95481684Y-121978338D01*
X95514970Y-122007180D01*
X95558565Y-122013448D01*
X95598629Y-121995152D01*
X95622441Y-121958100D01*
X95622441Y-121468278D01*
X95898299Y-121468278D01*
X95901013Y-121474822D01*
X95901013Y-121741561D01*
X95899082Y-121759445D01*
X95905938Y-121773158D01*
X95910256Y-121787861D01*
X95915609Y-121792499D01*
X95952344Y-121865968D01*
X95955027Y-121878299D01*
X95969646Y-121892919D01*
X95983716Y-121908045D01*
X95985134Y-121908407D01*
X96011568Y-121934842D01*
X96018013Y-121945693D01*
X96036524Y-121954948D01*
X96054635Y-121964838D01*
X96056094Y-121964733D01*
X96129340Y-122001356D01*
X96144467Y-122011078D01*
X96159797Y-122011078D01*
X96174880Y-122013792D01*
X96181424Y-122011078D01*
X96352925Y-122011078D01*
X96370809Y-122013009D01*
X96377203Y-122009812D01*
X96377203Y-122280193D01*
X96386446Y-122311671D01*
X96419732Y-122340513D01*
X96463327Y-122346781D01*
X96503391Y-122328485D01*
X96527203Y-122291433D01*
X96527203Y-121897894D01*
X96530320Y-121885704D01*
X96527203Y-121876325D01*
X96527203Y-121318327D01*
X96527932Y-121297665D01*
X96527203Y-121296438D01*
X96527203Y-121273897D01*
X96755119Y-121273897D01*
X96993724Y-121941992D01*
X96993436Y-121943485D01*
X96995416Y-121948437D01*
X96995111Y-121953760D01*
X97002779Y-121967348D01*
X97004247Y-121971457D01*
X97005087Y-121972612D01*
X97094531Y-122196220D01*
X97097884Y-122211634D01*
X97110292Y-122224042D01*
X97121130Y-122237832D01*
X97125646Y-122239396D01*
X97154426Y-122268176D01*
X97160870Y-122279026D01*
X97179379Y-122288280D01*
X97197493Y-122298171D01*
X97198951Y-122298066D01*
X97285448Y-122341315D01*
X97317737Y-122347125D01*
X97358420Y-122330252D01*
X97383522Y-122294062D01*
X97385075Y-122250046D01*
X97362584Y-122212177D01*
X97258534Y-122160152D01*
X97230406Y-122132024D01*
X97153130Y-121938833D01*
X97516944Y-121938833D01*
X97530834Y-121980629D01*
X97565116Y-122008281D01*
X97608905Y-122013009D01*
X97706750Y-121964085D01*
X97709665Y-121964188D01*
X97726272Y-121954324D01*
X97733483Y-121950719D01*
X97735497Y-121948845D01*
X97747533Y-121941697D01*
X97751315Y-121934132D01*
X97757505Y-121928375D01*
X97760970Y-121914821D01*
X97803195Y-121830371D01*
X97812918Y-121815242D01*
X97812918Y-121799912D01*
X97815632Y-121784829D01*
X97812918Y-121778286D01*
X97812918Y-121319785D01*
X98135992Y-121319785D01*
X98139109Y-121329164D01*
X98139109Y-121887149D01*
X98138380Y-121907824D01*
X98139109Y-121909051D01*
X98139109Y-122074895D01*
X98137178Y-122092779D01*
X98144034Y-122106492D01*
X98148352Y-122121195D01*
X98153705Y-122125833D01*
X98190440Y-122199302D01*
X98193123Y-122211634D01*
X98207750Y-122226261D01*
X98221812Y-122241379D01*
X98223230Y-122241741D01*
X98249665Y-122268176D01*
X98256109Y-122279026D01*
X98274618Y-122288280D01*
X98292732Y-122298171D01*
X98294190Y-122298066D01*
X98367436Y-122334689D01*
X98382563Y-122344411D01*
X98397893Y-122344411D01*
X98412976Y-122347125D01*
X98419520Y-122344411D01*
X98543402Y-122344411D01*
X98561286Y-122346342D01*
X98574999Y-122339485D01*
X98589702Y-122335168D01*
X98594340Y-122329814D01*
X98685864Y-122284052D01*
X98709886Y-122261708D01*
X98720797Y-122219037D01*
X98706907Y-122177242D01*
X98672625Y-122149590D01*
X98628836Y-122144862D01*
X98529737Y-122194411D01*
X98422291Y-122194411D01*
X98353773Y-122160152D01*
X98323366Y-122129745D01*
X98289109Y-122061230D01*
X98289109Y-122011078D01*
X98302655Y-122011078D01*
X98317738Y-122013792D01*
X98324282Y-122011078D01*
X98495783Y-122011078D01*
X98513667Y-122013009D01*
X98527380Y-122006152D01*
X98542083Y-122001835D01*
X98546721Y-121996481D01*
X98620189Y-121959746D01*
X98632523Y-121957064D01*
X98647154Y-121942431D01*
X98662267Y-121928375D01*
X98662629Y-121926955D01*
X98689063Y-121900521D01*
X98699914Y-121894077D01*
X98709170Y-121875563D01*
X98719060Y-121857453D01*
X98718955Y-121855993D01*
X98755577Y-121782749D01*
X98765299Y-121767623D01*
X98765299Y-121752293D01*
X98768013Y-121737210D01*
X98765299Y-121730666D01*
X98765299Y-121468278D01*
X98993538Y-121468278D01*
X98996252Y-121474822D01*
X98996252Y-121741561D01*
X98994321Y-121759445D01*
X99001177Y-121773158D01*
X99005495Y-121787861D01*
X99010848Y-121792499D01*
X99047583Y-121865968D01*
X99050266Y-121878299D01*
X99064885Y-121892919D01*
X99078955Y-121908045D01*
X99080373Y-121908407D01*
X99106807Y-121934842D01*
X99113252Y-121945693D01*
X99131763Y-121954948D01*
X99149874Y-121964838D01*
X99151333Y-121964733D01*
X99224579Y-122001356D01*
X99239706Y-122011078D01*
X99255036Y-122011078D01*
X99270119Y-122013792D01*
X99276663Y-122011078D01*
X99400545Y-122011078D01*
X99418429Y-122013009D01*
X99432142Y-122006152D01*
X99446845Y-122001835D01*
X99451483Y-121996481D01*
X99524951Y-121959746D01*
X99537285Y-121957064D01*
X99551916Y-121942431D01*
X99555785Y-121938833D01*
X99850278Y-121938833D01*
X99864168Y-121980629D01*
X99898450Y-122008281D01*
X99942239Y-122013009D01*
X100040084Y-121964085D01*
X100042999Y-121964188D01*
X100059606Y-121954324D01*
X100066817Y-121950719D01*
X100068831Y-121948845D01*
X100080867Y-121941697D01*
X100084649Y-121934132D01*
X100090839Y-121928375D01*
X100094304Y-121914821D01*
X100136529Y-121830371D01*
X100146252Y-121815242D01*
X100146252Y-121799912D01*
X100148966Y-121784829D01*
X100146252Y-121778286D01*
X100146252Y-121468278D01*
X100422110Y-121468278D01*
X100424824Y-121474822D01*
X100424824Y-121741561D01*
X100422893Y-121759445D01*
X100429749Y-121773158D01*
X100434067Y-121787861D01*
X100439420Y-121792499D01*
X100476155Y-121865968D01*
X100478838Y-121878299D01*
X100493457Y-121892919D01*
X100507527Y-121908045D01*
X100508945Y-121908407D01*
X100535379Y-121934842D01*
X100541824Y-121945693D01*
X100560335Y-121954948D01*
X100578446Y-121964838D01*
X100579905Y-121964733D01*
X100653151Y-122001356D01*
X100668278Y-122011078D01*
X100683608Y-122011078D01*
X100698691Y-122013792D01*
X100705235Y-122011078D01*
X100829117Y-122011078D01*
X100847001Y-122013009D01*
X100860714Y-122006152D01*
X100875417Y-122001835D01*
X100880055Y-121996481D01*
X100953523Y-121959746D01*
X100965857Y-121957064D01*
X100980488Y-121942431D01*
X100995601Y-121928375D01*
X100995963Y-121926955D01*
X101022397Y-121900521D01*
X101033248Y-121894077D01*
X101042504Y-121875563D01*
X101052394Y-121857453D01*
X101052289Y-121855993D01*
X101088911Y-121782749D01*
X101098633Y-121767623D01*
X101098633Y-121752293D01*
X101101347Y-121737210D01*
X101098633Y-121730666D01*
X101098633Y-121463918D01*
X101100563Y-121446043D01*
X101093708Y-121432333D01*
X101091083Y-121423392D01*
X101374835Y-121423392D01*
X101377205Y-121428582D01*
X101377205Y-121946860D01*
X101386448Y-121978338D01*
X101419734Y-122007180D01*
X101463329Y-122013448D01*
X101503393Y-121995152D01*
X101527205Y-121958100D01*
X101527205Y-121487268D01*
X101948633Y-121487268D01*
X101948633Y-121946860D01*
X101957876Y-121978338D01*
X101991162Y-122007180D01*
X102034757Y-122013448D01*
X102074821Y-121995152D01*
X102098633Y-121958100D01*
X102098633Y-121417627D01*
X102101003Y-121401144D01*
X102098633Y-121395954D01*
X102098633Y-120925296D01*
X102089390Y-120893818D01*
X102056104Y-120864976D01*
X102012509Y-120858708D01*
X101972445Y-120877004D01*
X101948633Y-120914056D01*
X101948633Y-121337268D01*
X101527205Y-121337268D01*
X101527205Y-120925296D01*
X101517962Y-120893818D01*
X101484676Y-120864976D01*
X101441081Y-120858708D01*
X101401017Y-120877004D01*
X101377205Y-120914056D01*
X101377205Y-121406908D01*
X101374835Y-121423392D01*
X101091083Y-121423392D01*
X101089390Y-121417627D01*
X101084035Y-121412987D01*
X101047301Y-121339518D01*
X101044619Y-121327188D01*
X101029999Y-121312568D01*
X101015930Y-121297443D01*
X101014511Y-121297080D01*
X100988076Y-121270645D01*
X100981633Y-121259796D01*
X100963132Y-121250545D01*
X100945010Y-121240650D01*
X100943549Y-121240754D01*
X100870308Y-121204134D01*
X100855179Y-121194411D01*
X100839849Y-121194411D01*
X100824766Y-121191697D01*
X100818222Y-121194411D01*
X100694331Y-121194411D01*
X100676456Y-121192481D01*
X100662746Y-121199335D01*
X100648040Y-121203654D01*
X100643400Y-121209008D01*
X100569931Y-121245742D01*
X100557601Y-121248425D01*
X100542981Y-121263044D01*
X100527856Y-121277114D01*
X100527493Y-121278532D01*
X100501058Y-121304967D01*
X100490209Y-121311411D01*
X100480958Y-121329911D01*
X100471063Y-121348034D01*
X100471167Y-121349494D01*
X100434547Y-121422735D01*
X100424824Y-121437865D01*
X100424824Y-121453195D01*
X100422110Y-121468278D01*
X100146252Y-121468278D01*
X100146252Y-120925296D01*
X100137009Y-120893818D01*
X100103723Y-120864976D01*
X100060128Y-120858708D01*
X100020064Y-120877004D01*
X99996252Y-120914056D01*
X99996252Y-121775515D01*
X99967730Y-121832557D01*
X99885210Y-121873818D01*
X99861189Y-121896162D01*
X99850278Y-121938833D01*
X99555785Y-121938833D01*
X99567029Y-121928375D01*
X99567391Y-121926955D01*
X99593825Y-121900521D01*
X99604676Y-121894077D01*
X99613932Y-121875563D01*
X99623822Y-121857453D01*
X99623717Y-121855993D01*
X99660339Y-121782749D01*
X99670061Y-121767623D01*
X99670061Y-121752293D01*
X99672775Y-121737210D01*
X99670061Y-121730666D01*
X99670061Y-121463918D01*
X99671991Y-121446043D01*
X99665136Y-121432333D01*
X99660818Y-121417627D01*
X99655463Y-121412987D01*
X99618729Y-121339518D01*
X99616047Y-121327188D01*
X99601427Y-121312568D01*
X99587358Y-121297443D01*
X99585939Y-121297080D01*
X99559504Y-121270645D01*
X99553061Y-121259796D01*
X99534560Y-121250545D01*
X99516438Y-121240650D01*
X99514977Y-121240754D01*
X99441736Y-121204134D01*
X99426607Y-121194411D01*
X99411277Y-121194411D01*
X99396194Y-121191697D01*
X99389650Y-121194411D01*
X99265759Y-121194411D01*
X99247884Y-121192481D01*
X99234174Y-121199335D01*
X99219468Y-121203654D01*
X99214828Y-121209008D01*
X99141359Y-121245742D01*
X99129029Y-121248425D01*
X99114409Y-121263044D01*
X99099284Y-121277114D01*
X99098921Y-121278532D01*
X99072486Y-121304967D01*
X99061637Y-121311411D01*
X99052386Y-121329911D01*
X99042491Y-121348034D01*
X99042595Y-121349494D01*
X99005975Y-121422735D01*
X98996252Y-121437865D01*
X98996252Y-121453195D01*
X98993538Y-121468278D01*
X98765299Y-121468278D01*
X98765299Y-121463918D01*
X98767229Y-121446043D01*
X98760374Y-121432333D01*
X98756056Y-121417627D01*
X98750701Y-121412987D01*
X98713967Y-121339518D01*
X98711285Y-121327188D01*
X98696665Y-121312568D01*
X98682596Y-121297443D01*
X98681177Y-121297080D01*
X98654742Y-121270645D01*
X98648299Y-121259796D01*
X98629798Y-121250545D01*
X98611676Y-121240650D01*
X98610215Y-121240754D01*
X98536974Y-121204134D01*
X98521845Y-121194411D01*
X98506515Y-121194411D01*
X98491432Y-121191697D01*
X98484888Y-121194411D01*
X98313378Y-121194411D01*
X98295503Y-121192481D01*
X98281793Y-121199335D01*
X98267087Y-121203654D01*
X98262447Y-121209008D01*
X98260215Y-121210124D01*
X98246580Y-121198309D01*
X98202985Y-121192041D01*
X98162921Y-121210337D01*
X98139109Y-121247389D01*
X98139109Y-121307595D01*
X98135992Y-121319785D01*
X97812918Y-121319785D01*
X97812918Y-120925296D01*
X97803675Y-120893818D01*
X97770389Y-120864976D01*
X97726794Y-120858708D01*
X97686730Y-120877004D01*
X97662918Y-120914056D01*
X97662918Y-121775515D01*
X97634396Y-121832557D01*
X97551876Y-121873818D01*
X97527855Y-121896162D01*
X97516944Y-121938833D01*
X97153130Y-121938833D01*
X97151427Y-121934575D01*
X97383603Y-121284483D01*
X97385486Y-121251730D01*
X97363839Y-121213373D01*
X97324892Y-121192807D01*
X97281009Y-121196562D01*
X97246122Y-121223447D01*
X97071250Y-121713087D01*
X96900160Y-121234032D01*
X96880869Y-121207497D01*
X96839821Y-121191530D01*
X96796658Y-121200290D01*
X96765081Y-121230995D01*
X96755119Y-121273897D01*
X96527203Y-121273897D01*
X96527203Y-121258629D01*
X96517960Y-121227151D01*
X96484674Y-121198309D01*
X96441079Y-121192041D01*
X96403893Y-121209022D01*
X96394116Y-121204134D01*
X96378987Y-121194411D01*
X96363657Y-121194411D01*
X96348574Y-121191697D01*
X96342030Y-121194411D01*
X96170520Y-121194411D01*
X96152645Y-121192481D01*
X96138935Y-121199335D01*
X96124229Y-121203654D01*
X96119589Y-121209008D01*
X96046120Y-121245742D01*
X96033790Y-121248425D01*
X96019170Y-121263044D01*
X96004045Y-121277114D01*
X96003682Y-121278532D01*
X95977247Y-121304967D01*
X95966398Y-121311411D01*
X95957147Y-121329911D01*
X95947252Y-121348034D01*
X95947356Y-121349494D01*
X95910736Y-121422735D01*
X95901013Y-121437865D01*
X95901013Y-121453195D01*
X95898299Y-121468278D01*
X95622441Y-121468278D01*
X95622441Y-121378179D01*
X95625408Y-121370225D01*
X95622441Y-121356586D01*
X95622441Y-120925296D01*
X95613198Y-120893818D01*
X95579912Y-120864976D01*
X95536317Y-120858708D01*
X95496253Y-120877004D01*
X95472441Y-120914056D01*
X95472441Y-121219487D01*
X95441735Y-121204134D01*
X95426606Y-121194411D01*
X95411276Y-121194411D01*
X95396193Y-121191697D01*
X95389649Y-121194411D01*
X95265758Y-121194411D01*
X95247883Y-121192481D01*
X95234173Y-121199335D01*
X95219467Y-121203654D01*
X95214827Y-121209008D01*
X95150036Y-121241403D01*
X95147124Y-121241301D01*
X95130523Y-121251160D01*
X95123304Y-121254770D01*
X95121287Y-121256645D01*
X95109255Y-121263792D01*
X95105472Y-121271356D01*
X95099283Y-121277114D01*
X95095817Y-121290667D01*
X95053593Y-121375116D01*
X95043870Y-121390246D01*
X95043870Y-121405576D01*
X95041156Y-121420659D01*
X93955774Y-121420659D01*
X93955774Y-121417627D01*
X93958144Y-121401144D01*
X93955774Y-121395954D01*
X93955774Y-120941438D01*
X93958144Y-120924954D01*
X93951224Y-120909801D01*
X93946531Y-120893818D01*
X93942218Y-120890081D01*
X93939848Y-120884890D01*
X93925831Y-120875882D01*
X93913245Y-120864976D01*
X93907598Y-120864164D01*
X93902796Y-120861078D01*
X93886134Y-120861078D01*
X93869650Y-120858708D01*
X93864460Y-120861078D01*
X93551472Y-120861078D01*
X93533597Y-120859148D01*
X93519887Y-120866002D01*
X93505181Y-120870321D01*
X93500541Y-120875675D01*
X93427072Y-120912409D01*
X93414742Y-120915092D01*
X93400122Y-120929711D01*
X93384997Y-120943781D01*
X93384634Y-120945199D01*
X93358199Y-120971634D01*
X93347350Y-120978078D01*
X93338099Y-120996578D01*
X93328204Y-121014701D01*
X93328308Y-121016161D01*
X93291688Y-121089402D01*
X93281965Y-121104532D01*
X93281965Y-121119862D01*
X93279251Y-121134945D01*
X93281965Y-121141489D01*
X93281965Y-121217752D01*
X93280034Y-121235636D01*
X93286890Y-121249349D01*
X93291208Y-121264052D01*
X93296561Y-121268690D01*
X93333296Y-121342159D01*
X93335979Y-121354491D01*
X93350606Y-121369118D01*
X93364668Y-121384236D01*
X93366086Y-121384598D01*
X93371761Y-121390273D01*
X93367123Y-121391282D01*
X93356284Y-121402120D01*
X93343698Y-121410868D01*
X93340989Y-121417415D01*
X93310580Y-121447824D01*
X93299731Y-121454268D01*
X93290480Y-121472768D01*
X93280585Y-121490891D01*
X93280689Y-121492351D01*
X93244069Y-121565592D01*
X93234346Y-121580722D01*
X93234346Y-121596052D01*
X93231632Y-121611135D01*
X93003393Y-121611135D01*
X93003393Y-121463918D01*
X93005323Y-121446043D01*
X92998468Y-121432333D01*
X92994150Y-121417627D01*
X92988795Y-121412987D01*
X92952061Y-121339518D01*
X92949379Y-121327188D01*
X92934759Y-121312568D01*
X92920690Y-121297443D01*
X92919271Y-121297080D01*
X92892836Y-121270645D01*
X92886393Y-121259796D01*
X92867892Y-121250545D01*
X92849770Y-121240650D01*
X92848309Y-121240754D01*
X92775068Y-121204134D01*
X92759939Y-121194411D01*
X92744609Y-121194411D01*
X92729526Y-121191697D01*
X92722982Y-121194411D01*
X92599091Y-121194411D01*
X92581216Y-121192481D01*
X92567506Y-121199335D01*
X92552800Y-121203654D01*
X92548160Y-121209008D01*
X92474691Y-121245742D01*
X92462361Y-121248425D01*
X92447741Y-121263044D01*
X92432616Y-121277114D01*
X92432253Y-121278532D01*
X92405818Y-121304967D01*
X92394969Y-121311411D01*
X92385718Y-121329911D01*
X92375823Y-121348034D01*
X92375927Y-121349494D01*
X92339307Y-121422735D01*
X92329584Y-121437865D01*
X92329584Y-121453195D01*
X92326870Y-121468278D01*
X92051012Y-121468278D01*
X92051012Y-121344411D01*
X92129651Y-121344411D01*
X92161129Y-121335168D01*
X92189971Y-121301882D01*
X92196239Y-121258287D01*
X92177943Y-121218223D01*
X92140891Y-121194411D01*
X92051012Y-121194411D01*
X92051012Y-120925296D01*
X92041769Y-120893818D01*
X92008483Y-120864976D01*
X91964888Y-120858708D01*
X91924824Y-120877004D01*
X91901012Y-120914056D01*
X91901012Y-121194411D01*
X91727135Y-121194411D01*
X91695657Y-121203654D01*
X91666815Y-121236940D01*
X91660547Y-121280535D01*
X91678843Y-121320599D01*
X91715895Y-121344411D01*
X91901012Y-121344411D01*
X91901012Y-121775515D01*
X91872490Y-121832557D01*
X91815450Y-121861078D01*
X91727135Y-121861078D01*
X91695657Y-121870321D01*
X91666815Y-121903607D01*
X91660547Y-121947202D01*
X90717678Y-121947202D01*
X90717678Y-121465247D01*
X90720048Y-121448763D01*
X90717678Y-121443573D01*
X90717678Y-120941438D01*
X90720048Y-120924954D01*
X90713128Y-120909801D01*
X90708435Y-120893818D01*
X90704122Y-120890081D01*
X90701752Y-120884890D01*
X90687735Y-120875882D01*
X90675149Y-120864976D01*
X90669502Y-120864164D01*
X90664700Y-120861078D01*
X90648038Y-120861078D01*
X90631554Y-120858708D01*
X90626364Y-120861078D01*
X90265757Y-120861078D01*
X90247882Y-120859148D01*
X90234172Y-120866002D01*
X90219466Y-120870321D01*
X90214826Y-120875675D01*
X90141357Y-120912409D01*
X90129027Y-120915092D01*
X90114407Y-120929711D01*
X90099282Y-120943781D01*
X90098919Y-120945199D01*
X90072484Y-120971634D01*
X90061635Y-120978078D01*
X90052384Y-120996578D01*
X90042489Y-121014701D01*
X90042593Y-121016161D01*
X90005973Y-121089402D01*
X89996250Y-121104532D01*
X89996250Y-121119862D01*
X89993536Y-121134945D01*
X89706916Y-121134945D01*
X89666346Y-121053804D01*
X89663664Y-121041474D01*
X89649044Y-121026854D01*
X89634975Y-121011729D01*
X89633556Y-121011366D01*
X89555707Y-120933517D01*
X89544430Y-120919510D01*
X89529888Y-120914662D01*
X89516436Y-120907317D01*
X89509368Y-120907822D01*
X89389601Y-120867900D01*
X89378986Y-120861078D01*
X89358306Y-120861078D01*
X89337667Y-120860332D01*
X89336408Y-120861078D01*
X89271128Y-120861078D01*
X89258900Y-120857963D01*
X89239280Y-120864502D01*
X89219466Y-120870321D01*
X89218507Y-120871427D01*
X89098978Y-120911269D01*
X89081408Y-120915092D01*
X89070569Y-120925930D01*
X89057983Y-120934678D01*
X89055274Y-120941225D01*
X89010593Y-120985907D01*
X88994870Y-121014701D01*
X88998013Y-121058632D01*
X89024407Y-121093891D01*
X89065674Y-121109283D01*
X89108711Y-121099921D01*
X89159382Y-121049249D01*
X89273897Y-121011078D01*
X89344794Y-121011078D01*
X89459307Y-121049249D01*
X89533419Y-121123361D01*
X89571913Y-121200347D01*
X89615297Y-121373883D01*
X89615297Y-121498272D01*
X89571913Y-121671804D01*
X89533419Y-121748793D01*
X89459307Y-121822906D01*
X89344792Y-121861078D01*
X89273896Y-121861078D01*
X89159382Y-121822906D01*
X89116660Y-121780182D01*
X89087866Y-121764460D01*
X89043935Y-121767602D01*
X89008676Y-121793995D01*
X88993283Y-121835262D01*
X88717678Y-121835262D01*
X88717678Y-121417627D01*
X88720048Y-121401144D01*
X88717678Y-121395954D01*
X88717678Y-120941438D01*
X88720048Y-120924954D01*
X88713128Y-120909801D01*
X88708435Y-120893818D01*
X88704122Y-120890081D01*
X88701752Y-120884890D01*
X88687735Y-120875882D01*
X88675149Y-120864976D01*
X88669502Y-120864164D01*
X88664700Y-120861078D01*
X88648038Y-120861078D01*
X88631554Y-120858708D01*
X88626364Y-120861078D01*
X88313376Y-120861078D01*
X88295501Y-120859148D01*
X88281791Y-120866002D01*
X88267085Y-120870321D01*
X88262445Y-120875675D01*
X88188976Y-120912409D01*
X88176646Y-120915092D01*
X88162026Y-120929711D01*
X88146901Y-120943781D01*
X88146538Y-120945199D01*
X88120103Y-120971634D01*
X88109254Y-120978078D01*
X88100003Y-120996578D01*
X88090108Y-121014701D01*
X88090212Y-121016161D01*
X88053592Y-121089402D01*
X88043869Y-121104532D01*
X88043869Y-121119862D01*
X88041155Y-121134945D01*
X88043869Y-121141489D01*
X88043869Y-121217752D01*
X88041938Y-121235636D01*
X88048794Y-121249349D01*
X88053112Y-121264052D01*
X88058465Y-121268690D01*
X88095200Y-121342159D01*
X88097883Y-121354491D01*
X88112510Y-121369118D01*
X88126572Y-121384236D01*
X88127990Y-121384598D01*
X88133665Y-121390273D01*
X88129027Y-121391282D01*
X88118188Y-121402120D01*
X88105602Y-121410868D01*
X88102893Y-121417415D01*
X88072484Y-121447824D01*
X88061635Y-121454268D01*
X88052384Y-121472768D01*
X88042489Y-121490891D01*
X88042593Y-121492351D01*
X88005973Y-121565592D01*
X87996250Y-121580722D01*
X87996250Y-121596052D01*
X87993536Y-121611135D01*
X87337917Y-121611135D01*
X87337917Y-120315602D01*
X102629586Y-120315602D01*
X102629586Y-124046316D01*
G37*
D11*
%TO.P,J5,1,Pin_1*%
%TO.N,+12V*%
X157680000Y-121830000D03*
%TD*%
%TO.P,J4,1,Pin_1*%
%TO.N,/PWM Pen*%
X144780000Y-81280000D03*
D12*
%TO.P,J4,2,Pin_2*%
%TO.N,+5V*%
X144780000Y-83820000D03*
%TO.P,J4,3,Pin_3*%
%TO.N,GND*%
X144780000Y-86360000D03*
%TD*%
D11*
%TO.P,D1,1,BK*%
%TO.N,Net-(D1-BK)*%
X89535000Y-60960000D03*
D12*
%TO.P,D1,2,A*%
%TO.N,GND*%
X89535000Y-58420000D03*
%TO.P,D1,3,GK*%
%TO.N,Net-(D1-GK)*%
X89535000Y-55880000D03*
%TO.P,D1,4,RK*%
%TO.N,Net-(D1-RK)*%
X89535000Y-53340000D03*
%TD*%
D11*
%TO.P,J7,1,Pin_1*%
%TO.N,+5V*%
X106680000Y-121830000D03*
%TD*%
D13*
%TO.P,R1,1*%
%TO.N,/D1 Red*%
X102235000Y-50800000D03*
D14*
%TO.P,R1,2*%
%TO.N,Net-(D1-RK)*%
X94615000Y-50800000D03*
%TD*%
D11*
%TO.P,J10,1,Pin_1*%
%TO.N,+5V*%
X147320000Y-60325000D03*
D12*
%TO.P,J10,2,Pin_2*%
%TO.N,GND*%
X147320000Y-57785000D03*
%TD*%
D11*
%TO.P,J2,1,Pin_1*%
%TO.N,/PWM Wheel Right*%
X149860000Y-81280000D03*
D12*
%TO.P,J2,2,Pin_2*%
%TO.N,+5V*%
X149860000Y-83820000D03*
%TO.P,J2,3,Pin_3*%
%TO.N,GND*%
X149860000Y-86360000D03*
%TD*%
D13*
%TO.P,R2,1*%
%TO.N,/D1 Green*%
X102235000Y-55880000D03*
D14*
%TO.P,R2,2*%
%TO.N,Net-(D1-GK)*%
X94615000Y-55880000D03*
%TD*%
D13*
%TO.P,R6,1*%
%TO.N,/D2 Blue*%
X100330000Y-102870000D03*
D14*
%TO.P,R6,2*%
%TO.N,Net-(D2-BK)*%
X100330000Y-110490000D03*
%TD*%
D15*
%TO.P,BZ1,1,-*%
%TO.N,Net-(BZ1--)*%
X97145000Y-80645000D03*
D16*
%TO.P,BZ1,2,+*%
%TO.N,GND*%
X89545000Y-80645000D03*
%TD*%
D15*
%TO.P,U1,1,3V3*%
%TO.N,unconnected-(U1-3V3-Pad1)*%
X107315000Y-53700000D03*
D16*
%TO.P,U1,2,GND*%
%TO.N,GND*%
X107315000Y-56240000D03*
%TO.P,U1,3,D15*%
%TO.N,unconnected-(U1-D15-Pad3)*%
X107315000Y-58780000D03*
%TO.P,U1,4,D2*%
%TO.N,unconnected-(U1-D2-Pad4)*%
X107315000Y-61320000D03*
%TO.P,U1,5,D4*%
%TO.N,/D2 Green*%
X107315000Y-63860000D03*
%TO.P,U1,6,RX2*%
%TO.N,unconnected-(U1-RX2-Pad6)*%
X107315000Y-66400000D03*
%TO.P,U1,7,TX2*%
%TO.N,unconnected-(U1-TX2-Pad7)*%
X107315000Y-68940000D03*
%TO.P,U1,8,D5*%
%TO.N,unconnected-(U1-D5-Pad8)*%
X107315000Y-71480000D03*
%TO.P,U1,9,D18*%
%TO.N,/D1 Red*%
X107315000Y-74020000D03*
%TO.P,U1,10,D19*%
%TO.N,/D1 Blue*%
X107315000Y-76560000D03*
%TO.P,U1,11,D21*%
%TO.N,/D1 Green*%
X107315000Y-79100000D03*
%TO.P,U1,12,RX0*%
%TO.N,unconnected-(U1-RX0-Pad12)*%
X107315000Y-81640000D03*
%TO.P,U1,13,TX0*%
%TO.N,unconnected-(U1-TX0-Pad13)*%
X107315000Y-84180000D03*
%TO.P,U1,14,D22*%
%TO.N,/D2 Red*%
X107315000Y-86720000D03*
%TO.P,U1,15,D23*%
%TO.N,/Buzz+*%
X107315000Y-89260000D03*
%TO.P,U1,16,EN*%
%TO.N,unconnected-(U1-EN-Pad16)*%
X132715000Y-89260000D03*
%TO.P,U1,17,VP*%
%TO.N,unconnected-(U1-VP-Pad17)*%
X132715000Y-86720000D03*
%TO.P,U1,18,VN*%
%TO.N,unconnected-(U1-VN-Pad18)*%
X132715000Y-84180000D03*
%TO.P,U1,19,D34*%
%TO.N,unconnected-(U1-D34-Pad19)*%
X132715000Y-81640000D03*
%TO.P,U1,20,D35*%
%TO.N,unconnected-(U1-D35-Pad20)*%
X132715000Y-79100000D03*
%TO.P,U1,21,D32*%
%TO.N,/D2 Blue*%
X132715000Y-76560000D03*
%TO.P,U1,22,D33*%
%TO.N,/PWM Pen*%
X132715000Y-74020000D03*
%TO.P,U1,23,D25*%
%TO.N,/PWM Wheel Left*%
X132715000Y-71480000D03*
%TO.P,U1,24,D26*%
%TO.N,/PWM Wheel Right*%
X132715000Y-68940000D03*
%TO.P,U1,25,D27*%
%TO.N,/PWM Wheel Rear*%
X132715000Y-66400000D03*
%TO.P,U1,26,D14*%
%TO.N,unconnected-(U1-D14-Pad26)*%
X132715000Y-63860000D03*
%TO.P,U1,27,D12*%
%TO.N,unconnected-(U1-D12-Pad27)*%
X132715000Y-61320000D03*
%TO.P,U1,28,D13*%
%TO.N,unconnected-(U1-D13-Pad28)*%
X132715000Y-58780000D03*
%TO.P,U1,29,GND*%
%TO.N,GND*%
X132715000Y-56240000D03*
%TO.P,U1,30,VIN*%
%TO.N,+5V*%
X132715000Y-53700000D03*
%TD*%
D17*
%TO.P,J9,1,Pin_1*%
%TO.N,GNDPWR*%
X156765000Y-46355000D03*
D18*
%TO.P,J9,2,Pin_2*%
%TO.N,Net-(J9-Pin_2)*%
X151765000Y-46355000D03*
%TD*%
D13*
%TO.P,R5,1*%
%TO.N,/D2 Green*%
X95250000Y-102870000D03*
D14*
%TO.P,R5,2*%
%TO.N,Net-(D2-GK)*%
X95250000Y-110490000D03*
%TD*%
D13*
%TO.P,R4,1*%
%TO.N,/D2 Red*%
X90830000Y-102870000D03*
D14*
%TO.P,R4,2*%
%TO.N,Net-(D2-RK)*%
X90830000Y-110490000D03*
%TD*%
D11*
%TO.P,J8,1,Pin_1*%
%TO.N,GND*%
X106680000Y-100330000D03*
%TD*%
%TO.P,J6,1,Pin_1*%
%TO.N,GNDPWR*%
X157680000Y-100330000D03*
%TD*%
%TO.P,J1,1,Pin_1*%
%TO.N,/PWM Wheel Left*%
X147320000Y-81280000D03*
D12*
%TO.P,J1,2,Pin_2*%
%TO.N,+5V*%
X147320000Y-83820000D03*
%TO.P,J1,3,Pin_3*%
%TO.N,GND*%
X147320000Y-86360000D03*
%TD*%
D11*
%TO.P,J3,1,Pin_1*%
%TO.N,/PWM Wheel Rear*%
X152400000Y-81280000D03*
D12*
%TO.P,J3,2,Pin_2*%
%TO.N,+5V*%
X152400000Y-83820000D03*
%TO.P,J3,3,Pin_3*%
%TO.N,GND*%
X152400000Y-86360000D03*
%TD*%
D13*
%TO.P,R3,1*%
%TO.N,/D1 Blue*%
X102235000Y-60960000D03*
D14*
%TO.P,R3,2*%
%TO.N,Net-(D1-BK)*%
X94615000Y-60960000D03*
%TD*%
D13*
%TO.P,R7,1*%
%TO.N,/Buzz+*%
X102235000Y-89535000D03*
D14*
%TO.P,R7,2*%
%TO.N,Net-(BZ1--)*%
X102235000Y-81915000D03*
%TD*%
D11*
%TO.P,SW1,1,A*%
%TO.N,+12V*%
X150495000Y-60325000D03*
D12*
%TO.P,SW1,2,B*%
%TO.N,Net-(J9-Pin_2)*%
X150495000Y-57785000D03*
%TD*%
D11*
%TO.P,D2,1,BK*%
%TO.N,Net-(D2-BK)*%
X100330000Y-115595000D03*
D12*
%TO.P,D2,2,A*%
%TO.N,GND*%
X97790000Y-115595000D03*
%TO.P,D2,3,GK*%
%TO.N,Net-(D2-GK)*%
X95250000Y-115595000D03*
%TO.P,D2,4,RK*%
%TO.N,Net-(D2-RK)*%
X92710000Y-115595000D03*
%TD*%
D19*
%TO.N,/D2 Green*%
X99970000Y-63860000D02*
X95250000Y-68580000D01*
X95250000Y-68580000D02*
X95250000Y-102870000D01*
X107315000Y-63860000D02*
X99970000Y-63860000D01*
%TD*%
%TA.AperFunction,Conductor*%
%TO.N,+5V*%
G36*
X161834042Y-39370764D02*
G01*
X161913586Y-39375978D01*
X161913767Y-39375991D01*
X162091587Y-39388709D01*
X162106904Y-39390772D01*
X162218378Y-39412945D01*
X162220437Y-39413374D01*
X162360240Y-39443786D01*
X162373703Y-39447522D01*
X162487725Y-39486228D01*
X162491074Y-39487420D01*
X162618808Y-39535062D01*
X162630300Y-39540024D01*
X162740687Y-39594461D01*
X162745187Y-39596798D01*
X162862478Y-39660844D01*
X162871942Y-39666574D01*
X162975269Y-39735615D01*
X162980688Y-39739450D01*
X163086727Y-39818830D01*
X163094145Y-39824844D01*
X163187976Y-39907131D01*
X163193898Y-39912678D01*
X163287320Y-40006100D01*
X163292867Y-40012022D01*
X163375150Y-40105848D01*
X163381173Y-40113278D01*
X163418691Y-40163396D01*
X163460548Y-40219310D01*
X163464383Y-40224729D01*
X163533424Y-40328056D01*
X163539154Y-40337520D01*
X163603183Y-40454779D01*
X163605564Y-40459363D01*
X163659969Y-40569687D01*
X163664938Y-40581196D01*
X163712556Y-40708863D01*
X163713793Y-40712338D01*
X163752470Y-40826276D01*
X163756217Y-40839777D01*
X163786613Y-40979508D01*
X163787064Y-40981675D01*
X163809224Y-41093080D01*
X163811291Y-41108425D01*
X163823995Y-41286046D01*
X163824045Y-41286781D01*
X163829234Y-41365942D01*
X163829500Y-41374053D01*
X163829500Y-123725947D01*
X163829234Y-123734058D01*
X163824045Y-123813217D01*
X163823995Y-123813952D01*
X163811291Y-123991573D01*
X163809224Y-124006918D01*
X163787064Y-124118323D01*
X163786613Y-124120490D01*
X163756217Y-124260221D01*
X163752470Y-124273722D01*
X163713793Y-124387660D01*
X163712556Y-124391135D01*
X163664938Y-124518802D01*
X163659969Y-124530311D01*
X163605564Y-124640635D01*
X163603183Y-124645219D01*
X163539154Y-124762478D01*
X163533424Y-124771942D01*
X163464383Y-124875269D01*
X163460548Y-124880688D01*
X163381181Y-124986711D01*
X163375142Y-124994160D01*
X163292867Y-125087976D01*
X163287320Y-125093898D01*
X163193898Y-125187320D01*
X163187976Y-125192867D01*
X163094160Y-125275142D01*
X163086711Y-125281181D01*
X162980688Y-125360548D01*
X162975269Y-125364383D01*
X162871942Y-125433424D01*
X162862478Y-125439154D01*
X162745219Y-125503183D01*
X162740635Y-125505564D01*
X162630311Y-125559969D01*
X162618802Y-125564938D01*
X162491135Y-125612556D01*
X162487660Y-125613793D01*
X162373722Y-125652470D01*
X162360221Y-125656217D01*
X162220490Y-125686613D01*
X162218323Y-125687064D01*
X162106918Y-125709224D01*
X162091573Y-125711291D01*
X161913952Y-125723995D01*
X161913217Y-125724045D01*
X161834058Y-125729234D01*
X161825947Y-125729500D01*
X88364053Y-125729500D01*
X88355942Y-125729234D01*
X88276781Y-125724045D01*
X88276046Y-125723995D01*
X88098425Y-125711291D01*
X88083080Y-125709224D01*
X87971675Y-125687064D01*
X87969508Y-125686613D01*
X87829777Y-125656217D01*
X87816276Y-125652470D01*
X87702338Y-125613793D01*
X87698863Y-125612556D01*
X87571196Y-125564938D01*
X87559687Y-125559969D01*
X87494947Y-125528043D01*
X87449348Y-125505556D01*
X87444779Y-125503183D01*
X87327520Y-125439154D01*
X87318056Y-125433424D01*
X87214729Y-125364383D01*
X87209310Y-125360548D01*
X87153396Y-125318691D01*
X87103278Y-125281173D01*
X87095848Y-125275150D01*
X87002022Y-125192867D01*
X86996100Y-125187320D01*
X86902678Y-125093898D01*
X86897131Y-125087976D01*
X86865450Y-125051851D01*
X86814844Y-124994145D01*
X86808830Y-124986727D01*
X86729450Y-124880688D01*
X86725615Y-124875269D01*
X86656574Y-124771942D01*
X86650844Y-124762478D01*
X86586798Y-124645187D01*
X86584461Y-124640687D01*
X86530024Y-124530300D01*
X86525060Y-124518802D01*
X86477420Y-124391074D01*
X86476228Y-124387725D01*
X86437522Y-124273703D01*
X86433786Y-124260240D01*
X86403374Y-124120437D01*
X86402945Y-124118378D01*
X86380772Y-124006904D01*
X86378709Y-123991587D01*
X86365991Y-123813767D01*
X86365978Y-123813586D01*
X86360764Y-123734042D01*
X86360500Y-123725935D01*
X86360500Y-120040102D01*
X87062417Y-120040102D01*
X87062417Y-124321816D01*
X102905086Y-124321816D01*
X102905086Y-122080000D01*
X105330000Y-122080000D01*
X105330000Y-122727824D01*
X105336402Y-122787375D01*
X105386647Y-122922089D01*
X105472811Y-123037188D01*
X105587910Y-123123352D01*
X105722624Y-123173597D01*
X105782176Y-123180000D01*
X106430000Y-123180000D01*
X106430000Y-122080000D01*
X106930000Y-122080000D01*
X106930000Y-123180000D01*
X107577824Y-123180000D01*
X107637375Y-123173597D01*
X107772089Y-123123352D01*
X107887188Y-123037188D01*
X107973352Y-122922089D01*
X108023597Y-122787375D01*
X108029995Y-122727869D01*
X156329500Y-122727869D01*
X156335897Y-122787375D01*
X156335909Y-122787483D01*
X156386204Y-122922331D01*
X156472454Y-123037546D01*
X156587669Y-123123796D01*
X156722517Y-123174091D01*
X156782127Y-123180500D01*
X158577872Y-123180499D01*
X158637483Y-123174091D01*
X158772331Y-123123796D01*
X158887546Y-123037546D01*
X158973796Y-122922331D01*
X159024091Y-122787483D01*
X159030500Y-122727873D01*
X159030499Y-120932128D01*
X159024091Y-120872517D01*
X158973796Y-120737669D01*
X158887546Y-120622454D01*
X158772331Y-120536204D01*
X158637483Y-120485909D01*
X158577873Y-120479500D01*
X158577869Y-120479500D01*
X156782130Y-120479500D01*
X156722515Y-120485909D01*
X156587669Y-120536204D01*
X156472454Y-120622454D01*
X156386204Y-120737668D01*
X156335909Y-120872516D01*
X156329500Y-120932130D01*
X156329500Y-122727869D01*
X108029995Y-122727869D01*
X108030000Y-122727824D01*
X108030000Y-122080000D01*
X106930000Y-122080000D01*
X106430000Y-122080000D01*
X105330000Y-122080000D01*
X102905086Y-122080000D01*
X102905086Y-121580000D01*
X105330000Y-121580000D01*
X106430000Y-121580000D01*
X106430000Y-120480000D01*
X106930000Y-120480000D01*
X106930000Y-121580000D01*
X108030000Y-121580000D01*
X108030000Y-120932176D01*
X108023597Y-120872624D01*
X107973352Y-120737910D01*
X107887188Y-120622811D01*
X107772089Y-120536647D01*
X107637375Y-120486402D01*
X107577824Y-120480000D01*
X106930000Y-120480000D01*
X106430000Y-120480000D01*
X105782176Y-120480000D01*
X105722624Y-120486402D01*
X105587910Y-120536647D01*
X105472811Y-120622811D01*
X105386647Y-120737910D01*
X105336402Y-120872624D01*
X105330000Y-120932176D01*
X105330000Y-121580000D01*
X102905086Y-121580000D01*
X102905086Y-120040102D01*
X87062417Y-120040102D01*
X86360500Y-120040102D01*
X86360500Y-115594999D01*
X91354340Y-115594999D01*
X91374936Y-115830407D01*
X91419709Y-115997501D01*
X91436097Y-116058663D01*
X91535965Y-116272830D01*
X91671505Y-116466401D01*
X91838599Y-116633495D01*
X92032170Y-116769035D01*
X92246337Y-116868903D01*
X92474592Y-116930063D01*
X92710000Y-116950659D01*
X92945408Y-116930063D01*
X93173663Y-116868903D01*
X93387830Y-116769035D01*
X93581401Y-116633495D01*
X93748495Y-116466401D01*
X93878426Y-116280839D01*
X93922743Y-116241975D01*
X93980000Y-116227964D01*
X94037257Y-116241975D01*
X94081573Y-116280839D01*
X94211505Y-116466401D01*
X94378599Y-116633495D01*
X94572170Y-116769035D01*
X94786337Y-116868903D01*
X95014592Y-116930063D01*
X95250000Y-116950659D01*
X95485408Y-116930063D01*
X95713663Y-116868903D01*
X95927830Y-116769035D01*
X96121401Y-116633495D01*
X96288495Y-116466401D01*
X96418426Y-116280839D01*
X96462743Y-116241975D01*
X96520000Y-116227964D01*
X96577257Y-116241975D01*
X96621573Y-116280839D01*
X96751505Y-116466401D01*
X96918599Y-116633495D01*
X97112170Y-116769035D01*
X97326337Y-116868903D01*
X97554592Y-116930063D01*
X97790000Y-116950659D01*
X98025408Y-116930063D01*
X98253663Y-116868903D01*
X98467830Y-116769035D01*
X98661401Y-116633495D01*
X98783329Y-116511566D01*
X98836072Y-116480273D01*
X98897365Y-116478084D01*
X98952209Y-116505537D01*
X98987189Y-116555916D01*
X99036204Y-116687331D01*
X99122454Y-116802546D01*
X99237669Y-116888796D01*
X99372517Y-116939091D01*
X99432127Y-116945500D01*
X101227872Y-116945499D01*
X101287483Y-116939091D01*
X101422331Y-116888796D01*
X101537546Y-116802546D01*
X101623796Y-116687331D01*
X101674091Y-116552483D01*
X101680500Y-116492873D01*
X101680499Y-114697128D01*
X101674091Y-114637517D01*
X101623796Y-114502669D01*
X101537546Y-114387454D01*
X101422331Y-114301204D01*
X101287483Y-114250909D01*
X101227873Y-114244500D01*
X101227869Y-114244500D01*
X99432130Y-114244500D01*
X99372515Y-114250909D01*
X99237669Y-114301204D01*
X99122454Y-114387454D01*
X99036204Y-114502669D01*
X98987189Y-114634083D01*
X98952209Y-114684462D01*
X98897365Y-114711915D01*
X98836072Y-114709726D01*
X98783326Y-114678430D01*
X98661404Y-114556508D01*
X98661403Y-114556507D01*
X98661401Y-114556505D01*
X98467830Y-114420965D01*
X98253663Y-114321097D01*
X98192501Y-114304709D01*
X98025407Y-114259936D01*
X97790000Y-114239340D01*
X97554592Y-114259936D01*
X97326336Y-114321097D01*
X97112170Y-114420965D01*
X96918598Y-114556505D01*
X96751505Y-114723598D01*
X96621575Y-114909159D01*
X96577257Y-114948025D01*
X96520000Y-114962036D01*
X96462743Y-114948025D01*
X96418425Y-114909159D01*
X96288494Y-114723598D01*
X96121404Y-114556508D01*
X96121403Y-114556507D01*
X96121401Y-114556505D01*
X95927830Y-114420965D01*
X95713663Y-114321097D01*
X95652501Y-114304709D01*
X95485407Y-114259936D01*
X95250000Y-114239340D01*
X95014592Y-114259936D01*
X94786336Y-114321097D01*
X94572170Y-114420965D01*
X94378598Y-114556505D01*
X94211505Y-114723598D01*
X94081575Y-114909159D01*
X94037257Y-114948025D01*
X93980000Y-114962036D01*
X93922743Y-114948025D01*
X93878425Y-114909159D01*
X93748494Y-114723598D01*
X93581404Y-114556508D01*
X93581403Y-114556507D01*
X93581401Y-114556505D01*
X93387830Y-114420965D01*
X93173663Y-114321097D01*
X93112501Y-114304709D01*
X92945407Y-114259936D01*
X92710000Y-114239340D01*
X92474592Y-114259936D01*
X92246336Y-114321097D01*
X92032170Y-114420965D01*
X91838598Y-114556505D01*
X91671505Y-114723598D01*
X91535965Y-114917170D01*
X91436097Y-115131336D01*
X91374936Y-115359592D01*
X91354340Y-115594999D01*
X86360500Y-115594999D01*
X86360500Y-110489999D01*
X89524531Y-110489999D01*
X89544364Y-110716689D01*
X89603261Y-110936497D01*
X89699432Y-111142735D01*
X89829953Y-111329140D01*
X89990859Y-111490046D01*
X90177264Y-111620567D01*
X90177265Y-111620567D01*
X90177266Y-111620568D01*
X90383504Y-111716739D01*
X90603308Y-111775635D01*
X90830000Y-111795468D01*
X91056692Y-111775635D01*
X91276496Y-111716739D01*
X91482734Y-111620568D01*
X91669139Y-111490047D01*
X91830047Y-111329139D01*
X91960568Y-111142734D01*
X92056739Y-110936496D01*
X92115635Y-110716692D01*
X92135468Y-110490000D01*
X92135468Y-110489999D01*
X93944531Y-110489999D01*
X93964364Y-110716689D01*
X94023261Y-110936497D01*
X94119432Y-111142735D01*
X94249953Y-111329140D01*
X94410859Y-111490046D01*
X94597264Y-111620567D01*
X94597265Y-111620567D01*
X94597266Y-111620568D01*
X94803504Y-111716739D01*
X95023308Y-111775635D01*
X95250000Y-111795468D01*
X95476692Y-111775635D01*
X95696496Y-111716739D01*
X95902734Y-111620568D01*
X96089139Y-111490047D01*
X96250047Y-111329139D01*
X96380568Y-111142734D01*
X96476739Y-110936496D01*
X96535635Y-110716692D01*
X96555468Y-110490000D01*
X96555468Y-110489999D01*
X99024531Y-110489999D01*
X99044364Y-110716689D01*
X99103261Y-110936497D01*
X99199432Y-111142735D01*
X99329953Y-111329140D01*
X99490859Y-111490046D01*
X99677264Y-111620567D01*
X99677265Y-111620567D01*
X99677266Y-111620568D01*
X99883504Y-111716739D01*
X100103308Y-111775635D01*
X100330000Y-111795468D01*
X100556692Y-111775635D01*
X100776496Y-111716739D01*
X100982734Y-111620568D01*
X101169139Y-111490047D01*
X101330047Y-111329139D01*
X101460568Y-111142734D01*
X101556739Y-110936496D01*
X101615635Y-110716692D01*
X101635468Y-110490000D01*
X101615635Y-110263308D01*
X101556739Y-110043504D01*
X101460568Y-109837266D01*
X101330047Y-109650861D01*
X101330046Y-109650859D01*
X101169140Y-109489953D01*
X100982735Y-109359432D01*
X100776497Y-109263261D01*
X100556689Y-109204364D01*
X100330000Y-109184531D01*
X100103310Y-109204364D01*
X99883502Y-109263261D01*
X99677264Y-109359432D01*
X99490859Y-109489953D01*
X99329953Y-109650859D01*
X99199432Y-109837264D01*
X99103261Y-110043502D01*
X99044364Y-110263310D01*
X99024531Y-110489999D01*
X96555468Y-110489999D01*
X96535635Y-110263308D01*
X96476739Y-110043504D01*
X96380568Y-109837266D01*
X96250047Y-109650861D01*
X96250046Y-109650859D01*
X96089140Y-109489953D01*
X95902735Y-109359432D01*
X95696497Y-109263261D01*
X95476689Y-109204364D01*
X95250000Y-109184531D01*
X95023310Y-109204364D01*
X94803502Y-109263261D01*
X94597264Y-109359432D01*
X94410859Y-109489953D01*
X94249953Y-109650859D01*
X94119432Y-109837264D01*
X94023261Y-110043502D01*
X93964364Y-110263310D01*
X93944531Y-110489999D01*
X92135468Y-110489999D01*
X92115635Y-110263308D01*
X92056739Y-110043504D01*
X91960568Y-109837266D01*
X91830047Y-109650861D01*
X91830046Y-109650859D01*
X91669140Y-109489953D01*
X91482735Y-109359432D01*
X91276497Y-109263261D01*
X91056689Y-109204364D01*
X90830000Y-109184531D01*
X90603310Y-109204364D01*
X90383502Y-109263261D01*
X90177264Y-109359432D01*
X89990859Y-109489953D01*
X89829953Y-109650859D01*
X89699432Y-109837264D01*
X89603261Y-110043502D01*
X89544364Y-110263310D01*
X89524531Y-110489999D01*
X86360500Y-110489999D01*
X86360500Y-102870000D01*
X89524531Y-102870000D01*
X89544364Y-103096689D01*
X89603261Y-103316497D01*
X89699432Y-103522735D01*
X89829953Y-103709140D01*
X89990859Y-103870046D01*
X90177264Y-104000567D01*
X90177265Y-104000567D01*
X90177266Y-104000568D01*
X90383504Y-104096739D01*
X90603308Y-104155635D01*
X90830000Y-104175468D01*
X91056692Y-104155635D01*
X91276496Y-104096739D01*
X91482734Y-104000568D01*
X91669139Y-103870047D01*
X91830047Y-103709139D01*
X91960568Y-103522734D01*
X92056739Y-103316496D01*
X92115635Y-103096692D01*
X92135468Y-102870000D01*
X93944531Y-102870000D01*
X93964364Y-103096689D01*
X94023261Y-103316497D01*
X94119432Y-103522735D01*
X94249953Y-103709140D01*
X94410859Y-103870046D01*
X94597264Y-104000567D01*
X94597265Y-104000567D01*
X94597266Y-104000568D01*
X94803504Y-104096739D01*
X95023308Y-104155635D01*
X95250000Y-104175468D01*
X95476692Y-104155635D01*
X95696496Y-104096739D01*
X95902734Y-104000568D01*
X96089139Y-103870047D01*
X96250047Y-103709139D01*
X96380568Y-103522734D01*
X96476739Y-103316496D01*
X96535635Y-103096692D01*
X96555468Y-102870000D01*
X99024531Y-102870000D01*
X99044364Y-103096689D01*
X99103261Y-103316497D01*
X99199432Y-103522735D01*
X99329953Y-103709140D01*
X99490859Y-103870046D01*
X99677264Y-104000567D01*
X99677265Y-104000567D01*
X99677266Y-104000568D01*
X99883504Y-104096739D01*
X100103308Y-104155635D01*
X100330000Y-104175468D01*
X100556692Y-104155635D01*
X100776496Y-104096739D01*
X100982734Y-104000568D01*
X101169139Y-103870047D01*
X101330047Y-103709139D01*
X101460568Y-103522734D01*
X101556739Y-103316496D01*
X101615635Y-103096692D01*
X101635468Y-102870000D01*
X101615635Y-102643308D01*
X101556739Y-102423504D01*
X101460568Y-102217266D01*
X101330047Y-102030861D01*
X101330046Y-102030859D01*
X101169140Y-101869953D01*
X100982735Y-101739432D01*
X100776497Y-101643261D01*
X100556689Y-101584364D01*
X100330000Y-101564531D01*
X100103310Y-101584364D01*
X99883502Y-101643261D01*
X99677264Y-101739432D01*
X99490859Y-101869953D01*
X99329953Y-102030859D01*
X99199432Y-102217264D01*
X99103261Y-102423502D01*
X99044364Y-102643310D01*
X99024531Y-102870000D01*
X96555468Y-102870000D01*
X96535635Y-102643308D01*
X96476739Y-102423504D01*
X96380568Y-102217266D01*
X96250047Y-102030861D01*
X96250046Y-102030859D01*
X96089140Y-101869953D01*
X95928377Y-101757387D01*
X95889511Y-101713069D01*
X95875500Y-101655812D01*
X95875500Y-101227869D01*
X105329500Y-101227869D01*
X105335909Y-101287483D01*
X105386204Y-101422331D01*
X105472454Y-101537546D01*
X105587669Y-101623796D01*
X105722517Y-101674091D01*
X105782127Y-101680500D01*
X107577872Y-101680499D01*
X107637483Y-101674091D01*
X107772331Y-101623796D01*
X107887546Y-101537546D01*
X107973796Y-101422331D01*
X108024091Y-101287483D01*
X108030500Y-101227873D01*
X108030500Y-101227869D01*
X156329500Y-101227869D01*
X156335909Y-101287483D01*
X156386204Y-101422331D01*
X156472454Y-101537546D01*
X156587669Y-101623796D01*
X156722517Y-101674091D01*
X156782127Y-101680500D01*
X158577872Y-101680499D01*
X158637483Y-101674091D01*
X158772331Y-101623796D01*
X158887546Y-101537546D01*
X158973796Y-101422331D01*
X159024091Y-101287483D01*
X159030500Y-101227873D01*
X159030499Y-99432128D01*
X159024091Y-99372517D01*
X158973796Y-99237669D01*
X158887546Y-99122454D01*
X158772331Y-99036204D01*
X158637483Y-98985909D01*
X158577873Y-98979500D01*
X158577869Y-98979500D01*
X156782130Y-98979500D01*
X156722515Y-98985909D01*
X156587669Y-99036204D01*
X156472454Y-99122454D01*
X156386204Y-99237668D01*
X156335909Y-99372516D01*
X156329500Y-99432130D01*
X156329500Y-101227869D01*
X108030500Y-101227869D01*
X108030499Y-99432128D01*
X108024091Y-99372517D01*
X107973796Y-99237669D01*
X107887546Y-99122454D01*
X107772331Y-99036204D01*
X107637483Y-98985909D01*
X107577873Y-98979500D01*
X107577869Y-98979500D01*
X105782130Y-98979500D01*
X105722515Y-98985909D01*
X105587669Y-99036204D01*
X105472454Y-99122454D01*
X105386204Y-99237668D01*
X105335909Y-99372516D01*
X105329500Y-99432130D01*
X105329500Y-101227869D01*
X95875500Y-101227869D01*
X95875500Y-89535000D01*
X100929531Y-89535000D01*
X100949364Y-89761689D01*
X101008261Y-89981497D01*
X101104432Y-90187735D01*
X101234953Y-90374140D01*
X101395859Y-90535046D01*
X101582264Y-90665567D01*
X101582265Y-90665567D01*
X101582266Y-90665568D01*
X101788504Y-90761739D01*
X102008308Y-90820635D01*
X102235000Y-90840468D01*
X102461692Y-90820635D01*
X102681496Y-90761739D01*
X102887734Y-90665568D01*
X103074139Y-90535047D01*
X103235047Y-90374139D01*
X103365568Y-90187734D01*
X103461739Y-89981496D01*
X103520635Y-89761692D01*
X103540468Y-89535000D01*
X103520635Y-89308308D01*
X103461739Y-89088504D01*
X103365568Y-88882266D01*
X103287741Y-88771117D01*
X103235046Y-88695859D01*
X103074140Y-88534953D01*
X102887735Y-88404432D01*
X102681497Y-88308261D01*
X102461689Y-88249364D01*
X102234999Y-88229531D01*
X102008310Y-88249364D01*
X101788502Y-88308261D01*
X101582264Y-88404432D01*
X101395859Y-88534953D01*
X101234953Y-88695859D01*
X101104432Y-88882264D01*
X101008261Y-89088502D01*
X100949364Y-89308310D01*
X100929531Y-89535000D01*
X95875500Y-89535000D01*
X95875500Y-82257256D01*
X95889625Y-82199781D01*
X95928781Y-82155399D01*
X95984049Y-82134222D01*
X96021901Y-82138634D01*
X96022031Y-82137426D01*
X96037515Y-82139090D01*
X96037517Y-82139091D01*
X96097127Y-82145500D01*
X98192872Y-82145499D01*
X98252483Y-82139091D01*
X98387331Y-82088796D01*
X98502546Y-82002546D01*
X98568083Y-81915000D01*
X100929531Y-81915000D01*
X100949364Y-82141689D01*
X101008261Y-82361497D01*
X101104432Y-82567735D01*
X101234953Y-82754140D01*
X101395859Y-82915046D01*
X101582264Y-83045567D01*
X101582265Y-83045567D01*
X101582266Y-83045568D01*
X101788504Y-83141739D01*
X102008308Y-83200635D01*
X102159436Y-83213857D01*
X102234999Y-83220468D01*
X102234999Y-83220467D01*
X102235000Y-83220468D01*
X102461692Y-83200635D01*
X102681496Y-83141739D01*
X102887734Y-83045568D01*
X103074139Y-82915047D01*
X103235047Y-82754139D01*
X103365568Y-82567734D01*
X103461739Y-82361496D01*
X103520635Y-82141692D01*
X103540468Y-81915000D01*
X103520635Y-81688308D01*
X103461739Y-81468504D01*
X103365568Y-81262266D01*
X103287741Y-81151117D01*
X103235046Y-81075859D01*
X103074140Y-80914953D01*
X102887735Y-80784432D01*
X102681497Y-80688261D01*
X102461689Y-80629364D01*
X102234999Y-80609531D01*
X102008310Y-80629364D01*
X101788502Y-80688261D01*
X101582264Y-80784432D01*
X101395859Y-80914953D01*
X101234953Y-81075859D01*
X101104432Y-81262264D01*
X101008261Y-81468502D01*
X100949364Y-81688310D01*
X100929531Y-81915000D01*
X98568083Y-81915000D01*
X98588796Y-81887331D01*
X98639091Y-81752483D01*
X98645500Y-81692873D01*
X98645499Y-79597128D01*
X98639091Y-79537517D01*
X98588796Y-79402669D01*
X98502546Y-79287454D01*
X98387331Y-79201204D01*
X98252483Y-79150909D01*
X98192873Y-79144500D01*
X98192869Y-79144500D01*
X96097130Y-79144500D01*
X96022030Y-79152574D01*
X96021900Y-79151365D01*
X95984045Y-79155777D01*
X95928779Y-79134600D01*
X95889624Y-79090218D01*
X95875500Y-79032744D01*
X95875500Y-68890452D01*
X95884939Y-68842999D01*
X95911819Y-68802771D01*
X100192772Y-64521819D01*
X100233000Y-64494939D01*
X100280453Y-64485500D01*
X105869850Y-64485500D01*
X105916512Y-64494615D01*
X105956315Y-64520619D01*
X105983406Y-64559690D01*
X105990825Y-64576604D01*
X105990827Y-64576607D01*
X106126836Y-64784785D01*
X106295256Y-64967738D01*
X106378008Y-65032147D01*
X106413245Y-65075538D01*
X106425845Y-65129998D01*
X106413246Y-65184458D01*
X106378009Y-65227851D01*
X106295257Y-65292260D01*
X106126837Y-65475214D01*
X105990825Y-65683395D01*
X105890938Y-65911117D01*
X105829891Y-66152183D01*
X105809356Y-66400000D01*
X105829891Y-66647816D01*
X105829891Y-66647819D01*
X105829892Y-66647821D01*
X105890937Y-66888881D01*
X105935960Y-66991523D01*
X105990825Y-67116604D01*
X105990827Y-67116607D01*
X106126836Y-67324785D01*
X106295256Y-67507738D01*
X106378008Y-67572147D01*
X106413246Y-67615540D01*
X106425845Y-67670000D01*
X106413246Y-67724460D01*
X106378008Y-67767853D01*
X106295256Y-67832261D01*
X106126837Y-68015214D01*
X105990825Y-68223395D01*
X105911560Y-68404104D01*
X105890937Y-68451119D01*
X105829892Y-68692179D01*
X105829891Y-68692183D01*
X105809356Y-68940000D01*
X105829891Y-69187816D01*
X105829891Y-69187819D01*
X105829892Y-69187821D01*
X105890937Y-69428881D01*
X105935960Y-69531523D01*
X105990825Y-69656604D01*
X105990827Y-69656607D01*
X106126836Y-69864785D01*
X106295255Y-70047737D01*
X106295256Y-70047738D01*
X106378008Y-70112147D01*
X106413246Y-70155540D01*
X106425845Y-70210000D01*
X106413246Y-70264460D01*
X106378008Y-70307853D01*
X106295256Y-70372261D01*
X106126837Y-70555214D01*
X105990825Y-70763395D01*
X105890938Y-70991117D01*
X105829891Y-71232183D01*
X105809356Y-71479999D01*
X105829891Y-71727816D01*
X105829891Y-71727819D01*
X105829892Y-71727821D01*
X105890937Y-71968881D01*
X105935960Y-72071523D01*
X105990825Y-72196604D01*
X105990827Y-72196607D01*
X106126836Y-72404785D01*
X106295255Y-72587737D01*
X106295256Y-72587738D01*
X106378008Y-72652147D01*
X106413246Y-72695540D01*
X106425845Y-72750000D01*
X106413246Y-72804460D01*
X106378008Y-72847853D01*
X106295256Y-72912261D01*
X106126837Y-73095214D01*
X105990825Y-73303395D01*
X105890938Y-73531117D01*
X105829891Y-73772183D01*
X105809356Y-74020000D01*
X105829891Y-74267816D01*
X105829891Y-74267819D01*
X105829892Y-74267821D01*
X105890937Y-74508881D01*
X105935960Y-74611523D01*
X105990825Y-74736604D01*
X105990827Y-74736607D01*
X106126836Y-74944785D01*
X106295256Y-75127738D01*
X106378008Y-75192147D01*
X106413246Y-75235540D01*
X106425845Y-75290000D01*
X106413246Y-75344460D01*
X106378008Y-75387853D01*
X106295256Y-75452261D01*
X106126837Y-75635214D01*
X105990825Y-75843395D01*
X105890938Y-76071117D01*
X105829891Y-76312183D01*
X105809356Y-76560000D01*
X105829891Y-76807816D01*
X105829891Y-76807819D01*
X105829892Y-76807821D01*
X105890937Y-77048881D01*
X105935960Y-77151523D01*
X105990825Y-77276604D01*
X105990827Y-77276607D01*
X106126836Y-77484785D01*
X106295255Y-77667737D01*
X106295256Y-77667738D01*
X106378008Y-77732147D01*
X106413246Y-77775540D01*
X106425845Y-77830000D01*
X106413246Y-77884460D01*
X106378008Y-77927853D01*
X106295256Y-77992261D01*
X106126837Y-78175214D01*
X105990825Y-78383395D01*
X105890938Y-78611117D01*
X105829891Y-78852183D01*
X105809356Y-79099999D01*
X105829891Y-79347816D01*
X105829891Y-79347819D01*
X105829892Y-79347821D01*
X105890937Y-79588881D01*
X105935960Y-79691523D01*
X105990825Y-79816604D01*
X105990827Y-79816607D01*
X106126836Y-80024785D01*
X106276780Y-80187668D01*
X106295256Y-80207738D01*
X106378008Y-80272147D01*
X106413246Y-80315540D01*
X106425845Y-80370000D01*
X106413246Y-80424460D01*
X106378008Y-80467853D01*
X106295256Y-80532261D01*
X106126837Y-80715214D01*
X105990825Y-80923395D01*
X105890938Y-81151117D01*
X105829891Y-81392183D01*
X105809356Y-81640000D01*
X105829891Y-81887816D01*
X105829891Y-81887819D01*
X105829892Y-81887821D01*
X105890937Y-82128881D01*
X105912427Y-82177873D01*
X105990825Y-82356604D01*
X105990827Y-82356607D01*
X106126836Y-82564785D01*
X106263117Y-82712826D01*
X106295256Y-82747738D01*
X106378008Y-82812147D01*
X106413246Y-82855540D01*
X106425845Y-82910000D01*
X106413246Y-82964460D01*
X106378008Y-83007853D01*
X106295256Y-83072261D01*
X106126837Y-83255214D01*
X105990825Y-83463395D01*
X105890938Y-83691117D01*
X105829891Y-83932183D01*
X105809356Y-84180000D01*
X105829891Y-84427816D01*
X105829891Y-84427819D01*
X105829892Y-84427821D01*
X105890937Y-84668881D01*
X105900675Y-84691081D01*
X105990825Y-84896604D01*
X105990827Y-84896607D01*
X106126836Y-85104785D01*
X106295255Y-85287737D01*
X106295256Y-85287738D01*
X106378008Y-85352147D01*
X106413246Y-85395540D01*
X106425845Y-85450000D01*
X106413246Y-85504460D01*
X106378008Y-85547853D01*
X106295256Y-85612261D01*
X106126837Y-85795214D01*
X105990825Y-86003395D01*
X105890938Y-86231117D01*
X105829891Y-86472183D01*
X105809356Y-86720000D01*
X105829891Y-86967816D01*
X105829891Y-86967819D01*
X105829892Y-86967821D01*
X105890937Y-87208881D01*
X105900817Y-87231404D01*
X105990825Y-87436604D01*
X105990827Y-87436607D01*
X106126836Y-87644785D01*
X106295256Y-87827738D01*
X106378008Y-87892147D01*
X106413245Y-87935538D01*
X106425845Y-87989998D01*
X106413246Y-88044458D01*
X106378009Y-88087851D01*
X106295257Y-88152260D01*
X106126837Y-88335214D01*
X105990825Y-88543395D01*
X105890938Y-88771117D01*
X105829891Y-89012183D01*
X105809356Y-89259999D01*
X105829891Y-89507816D01*
X105829891Y-89507819D01*
X105829892Y-89507821D01*
X105890937Y-89748881D01*
X105935960Y-89851523D01*
X105990825Y-89976604D01*
X105990827Y-89976607D01*
X106126836Y-90184785D01*
X106295256Y-90367738D01*
X106360667Y-90418649D01*
X106491485Y-90520470D01*
X106491487Y-90520471D01*
X106491491Y-90520474D01*
X106710190Y-90638828D01*
X106945386Y-90719571D01*
X107190665Y-90760500D01*
X107221489Y-90760500D01*
X107279430Y-90774870D01*
X107323943Y-90814648D01*
X107344709Y-90870616D01*
X107336917Y-90929802D01*
X107302373Y-90978488D01*
X107249082Y-91005390D01*
X107240024Y-91007458D01*
X107217581Y-91012580D01*
X106973358Y-91108431D01*
X106746143Y-91239613D01*
X106541015Y-91403198D01*
X106362571Y-91595514D01*
X106262070Y-91742922D01*
X106214772Y-91812296D01*
X106100937Y-92048677D01*
X106023604Y-92299385D01*
X105984500Y-92558818D01*
X105984500Y-92821182D01*
X106023604Y-93080615D01*
X106100937Y-93331323D01*
X106214772Y-93567704D01*
X106350766Y-93767170D01*
X106362571Y-93784485D01*
X106541015Y-93976801D01*
X106541019Y-93976805D01*
X106746143Y-94140386D01*
X106973357Y-94271568D01*
X107217584Y-94367420D01*
X107473370Y-94425802D01*
X107529408Y-94430001D01*
X107669501Y-94440500D01*
X107669506Y-94440500D01*
X107800494Y-94440500D01*
X107800499Y-94440500D01*
X107923078Y-94431313D01*
X107996630Y-94425802D01*
X108252416Y-94367420D01*
X108496643Y-94271568D01*
X108723857Y-94140386D01*
X108928981Y-93976805D01*
X109028273Y-93869792D01*
X109107428Y-93784485D01*
X109107429Y-93784482D01*
X109107433Y-93784479D01*
X109255228Y-93567704D01*
X109369063Y-93331323D01*
X109446396Y-93080615D01*
X109485500Y-92821182D01*
X109485500Y-92558818D01*
X109446396Y-92299385D01*
X109369063Y-92048677D01*
X109255228Y-91812296D01*
X109107433Y-91595521D01*
X109107432Y-91595520D01*
X109107428Y-91595514D01*
X108928984Y-91403198D01*
X108928983Y-91403197D01*
X108928981Y-91403195D01*
X108723857Y-91239614D01*
X108723856Y-91239613D01*
X108496641Y-91108431D01*
X108252418Y-91012580D01*
X107996627Y-90954197D01*
X107800499Y-90939500D01*
X107800494Y-90939500D01*
X107787074Y-90939500D01*
X107720978Y-90920416D01*
X107675227Y-90869038D01*
X107663904Y-90801180D01*
X107690493Y-90737730D01*
X107746811Y-90698219D01*
X107796222Y-90681255D01*
X107919810Y-90638828D01*
X108138509Y-90520474D01*
X108334744Y-90367738D01*
X108503164Y-90184785D01*
X108639173Y-89976607D01*
X108739063Y-89748881D01*
X108800108Y-89507821D01*
X108820643Y-89260000D01*
X108800108Y-89012179D01*
X108739063Y-88771119D01*
X108639173Y-88543393D01*
X108503164Y-88335215D01*
X108378690Y-88200000D01*
X111105000Y-88200000D01*
X111105000Y-94690000D01*
X128795000Y-94690000D01*
X128795000Y-92821182D01*
X130494500Y-92821182D01*
X130533604Y-93080615D01*
X130610937Y-93331323D01*
X130724772Y-93567704D01*
X130860766Y-93767170D01*
X130872571Y-93784485D01*
X131051015Y-93976801D01*
X131051019Y-93976805D01*
X131256143Y-94140386D01*
X131483357Y-94271568D01*
X131727584Y-94367420D01*
X131983370Y-94425802D01*
X132039408Y-94430001D01*
X132179501Y-94440500D01*
X132179506Y-94440500D01*
X132310494Y-94440500D01*
X132310499Y-94440500D01*
X132433078Y-94431313D01*
X132506630Y-94425802D01*
X132762416Y-94367420D01*
X133006643Y-94271568D01*
X133233857Y-94140386D01*
X133438981Y-93976805D01*
X133538273Y-93869792D01*
X133617428Y-93784485D01*
X133617429Y-93784482D01*
X133617433Y-93784479D01*
X133765228Y-93567704D01*
X133879063Y-93331323D01*
X133956396Y-93080615D01*
X133995500Y-92821182D01*
X133995500Y-92558818D01*
X133956396Y-92299385D01*
X133879063Y-92048677D01*
X133765228Y-91812296D01*
X133617433Y-91595521D01*
X133617432Y-91595520D01*
X133617428Y-91595514D01*
X133438984Y-91403198D01*
X133438983Y-91403197D01*
X133438981Y-91403195D01*
X133233857Y-91239614D01*
X133233856Y-91239613D01*
X133006641Y-91108431D01*
X132762418Y-91012580D01*
X132742795Y-91008101D01*
X132730917Y-91005390D01*
X132677627Y-90978488D01*
X132643083Y-90929802D01*
X132635291Y-90870616D01*
X132656057Y-90814648D01*
X132700570Y-90774870D01*
X132758511Y-90760500D01*
X132839335Y-90760500D01*
X133084614Y-90719571D01*
X133319810Y-90638828D01*
X133538509Y-90520474D01*
X133734744Y-90367738D01*
X133903164Y-90184785D01*
X134039173Y-89976607D01*
X134139063Y-89748881D01*
X134200108Y-89507821D01*
X134220643Y-89260000D01*
X134200108Y-89012179D01*
X134139063Y-88771119D01*
X134039173Y-88543393D01*
X133903164Y-88335215D01*
X133734744Y-88152262D01*
X133718437Y-88139570D01*
X133651992Y-88087853D01*
X133616754Y-88044460D01*
X133604154Y-87990000D01*
X133616754Y-87935540D01*
X133651992Y-87892147D01*
X133676256Y-87873260D01*
X133734744Y-87827738D01*
X133903164Y-87644785D01*
X134039173Y-87436607D01*
X134139063Y-87208881D01*
X134200108Y-86967821D01*
X134220643Y-86720000D01*
X134200108Y-86472179D01*
X134171700Y-86360000D01*
X143424340Y-86360000D01*
X143444936Y-86595407D01*
X143478321Y-86720000D01*
X143506097Y-86823663D01*
X143605965Y-87037830D01*
X143741505Y-87231401D01*
X143908599Y-87398495D01*
X144102170Y-87534035D01*
X144316337Y-87633903D01*
X144544592Y-87695063D01*
X144780000Y-87715659D01*
X145015408Y-87695063D01*
X145243663Y-87633903D01*
X145457830Y-87534035D01*
X145651401Y-87398495D01*
X145818495Y-87231401D01*
X145948426Y-87045839D01*
X145992743Y-87006975D01*
X146050000Y-86992964D01*
X146107257Y-87006975D01*
X146151573Y-87045839D01*
X146281505Y-87231401D01*
X146448599Y-87398495D01*
X146642170Y-87534035D01*
X146856337Y-87633903D01*
X147084592Y-87695063D01*
X147320000Y-87715659D01*
X147555408Y-87695063D01*
X147783663Y-87633903D01*
X147997830Y-87534035D01*
X148191401Y-87398495D01*
X148358495Y-87231401D01*
X148488426Y-87045839D01*
X148532743Y-87006975D01*
X148590000Y-86992964D01*
X148647257Y-87006975D01*
X148691573Y-87045839D01*
X148821505Y-87231401D01*
X148988599Y-87398495D01*
X149182170Y-87534035D01*
X149396337Y-87633903D01*
X149624592Y-87695063D01*
X149860000Y-87715659D01*
X150095408Y-87695063D01*
X150323663Y-87633903D01*
X150537830Y-87534035D01*
X150731401Y-87398495D01*
X150898495Y-87231401D01*
X151028426Y-87045839D01*
X151072743Y-87006975D01*
X151130000Y-86992964D01*
X151187257Y-87006975D01*
X151231573Y-87045839D01*
X151361505Y-87231401D01*
X151528599Y-87398495D01*
X151722170Y-87534035D01*
X151936337Y-87633903D01*
X152164592Y-87695063D01*
X152400000Y-87715659D01*
X152635408Y-87695063D01*
X152863663Y-87633903D01*
X153077830Y-87534035D01*
X153271401Y-87398495D01*
X153438495Y-87231401D01*
X153574035Y-87037830D01*
X153673903Y-86823663D01*
X153735063Y-86595408D01*
X153755659Y-86360000D01*
X153735063Y-86124592D01*
X153673903Y-85896337D01*
X153574035Y-85682171D01*
X153438495Y-85488599D01*
X153271401Y-85321505D01*
X153085402Y-85191267D01*
X153046539Y-85146951D01*
X153032528Y-85089694D01*
X153046539Y-85032437D01*
X153085405Y-84988119D01*
X153271078Y-84858109D01*
X153438106Y-84691081D01*
X153573600Y-84497576D01*
X153673430Y-84283492D01*
X153730636Y-84070000D01*
X143449364Y-84070000D01*
X143506569Y-84283492D01*
X143606399Y-84497576D01*
X143741893Y-84691081D01*
X143908918Y-84858106D01*
X144094595Y-84988119D01*
X144133460Y-85032437D01*
X144147471Y-85089694D01*
X144133460Y-85146951D01*
X144094595Y-85191269D01*
X143908595Y-85321508D01*
X143741505Y-85488598D01*
X143605965Y-85682170D01*
X143506097Y-85896336D01*
X143444936Y-86124592D01*
X143424340Y-86360000D01*
X134171700Y-86360000D01*
X134139063Y-86231119D01*
X134039173Y-86003393D01*
X133903164Y-85795215D01*
X133734744Y-85612262D01*
X133718437Y-85599570D01*
X133651992Y-85547853D01*
X133616754Y-85504460D01*
X133604154Y-85450000D01*
X133616754Y-85395540D01*
X133651992Y-85352147D01*
X133691360Y-85321505D01*
X133734744Y-85287738D01*
X133903164Y-85104785D01*
X134039173Y-84896607D01*
X134139063Y-84668881D01*
X134200108Y-84427821D01*
X134220643Y-84180000D01*
X134200108Y-83932179D01*
X134139063Y-83691119D01*
X134039173Y-83463393D01*
X133903164Y-83255215D01*
X133734744Y-83072262D01*
X133700446Y-83045567D01*
X133651992Y-83007853D01*
X133616754Y-82964460D01*
X133604154Y-82910000D01*
X133616754Y-82855540D01*
X133651992Y-82812147D01*
X133676256Y-82793260D01*
X133734744Y-82747738D01*
X133903164Y-82564785D01*
X134039173Y-82356607D01*
X134117575Y-82177869D01*
X143429500Y-82177869D01*
X143431856Y-82199781D01*
X143435909Y-82237483D01*
X143486204Y-82372331D01*
X143572454Y-82487546D01*
X143687669Y-82573796D01*
X143819598Y-82623002D01*
X143869978Y-82657981D01*
X143897431Y-82712825D01*
X143895242Y-82774118D01*
X143863947Y-82826865D01*
X143741888Y-82948924D01*
X143606400Y-83142421D01*
X143506569Y-83356507D01*
X143449364Y-83569999D01*
X143449364Y-83570000D01*
X153730636Y-83570000D01*
X153730635Y-83569999D01*
X153673430Y-83356507D01*
X153573599Y-83142421D01*
X153438109Y-82948921D01*
X153316053Y-82826865D01*
X153284757Y-82774119D01*
X153282568Y-82712826D01*
X153310021Y-82657981D01*
X153360398Y-82623003D01*
X153492331Y-82573796D01*
X153607546Y-82487546D01*
X153693796Y-82372331D01*
X153744091Y-82237483D01*
X153750500Y-82177873D01*
X153750499Y-80382128D01*
X153744091Y-80322517D01*
X153693796Y-80187669D01*
X153607546Y-80072454D01*
X153492331Y-79986204D01*
X153357483Y-79935909D01*
X153297873Y-79929500D01*
X153297869Y-79929500D01*
X151502130Y-79929500D01*
X151442515Y-79935909D01*
X151307667Y-79986204D01*
X151204310Y-80063577D01*
X151156358Y-80085476D01*
X151103642Y-80085476D01*
X151055690Y-80063577D01*
X150952333Y-79986205D01*
X150952331Y-79986204D01*
X150817483Y-79935909D01*
X150757873Y-79929500D01*
X150757869Y-79929500D01*
X148962130Y-79929500D01*
X148902515Y-79935909D01*
X148767667Y-79986204D01*
X148664310Y-80063577D01*
X148616358Y-80085476D01*
X148563642Y-80085476D01*
X148515690Y-80063577D01*
X148412333Y-79986205D01*
X148412331Y-79986204D01*
X148277483Y-79935909D01*
X148217873Y-79929500D01*
X148217869Y-79929500D01*
X146422130Y-79929500D01*
X146362515Y-79935909D01*
X146227667Y-79986204D01*
X146124310Y-80063577D01*
X146076358Y-80085476D01*
X146023642Y-80085476D01*
X145975690Y-80063577D01*
X145872333Y-79986205D01*
X145872331Y-79986204D01*
X145737483Y-79935909D01*
X145677873Y-79929500D01*
X145677869Y-79929500D01*
X143882130Y-79929500D01*
X143822515Y-79935909D01*
X143687669Y-79986204D01*
X143572454Y-80072454D01*
X143486204Y-80187668D01*
X143435909Y-80322516D01*
X143429500Y-80382130D01*
X143429500Y-82177869D01*
X134117575Y-82177869D01*
X134139063Y-82128881D01*
X134200108Y-81887821D01*
X134220643Y-81640000D01*
X134200108Y-81392179D01*
X134139063Y-81151119D01*
X134039173Y-80923393D01*
X133903164Y-80715215D01*
X133734744Y-80532262D01*
X133718437Y-80519570D01*
X133651992Y-80467853D01*
X133616754Y-80424460D01*
X133604154Y-80370000D01*
X133616754Y-80315540D01*
X133651992Y-80272147D01*
X133676256Y-80253260D01*
X133734744Y-80207738D01*
X133903164Y-80024785D01*
X134039173Y-79816607D01*
X134139063Y-79588881D01*
X134200108Y-79347821D01*
X134220643Y-79100000D01*
X134219832Y-79090218D01*
X134200108Y-78852183D01*
X134200108Y-78852179D01*
X134139063Y-78611119D01*
X134039173Y-78383393D01*
X133903164Y-78175215D01*
X133734744Y-77992262D01*
X133718437Y-77979570D01*
X133651992Y-77927853D01*
X133616754Y-77884460D01*
X133604154Y-77830000D01*
X133616754Y-77775540D01*
X133651992Y-77732147D01*
X133676256Y-77713260D01*
X133734744Y-77667738D01*
X133903164Y-77484785D01*
X134039173Y-77276607D01*
X134139063Y-77048881D01*
X134200108Y-76807821D01*
X134220643Y-76560000D01*
X134200108Y-76312179D01*
X134139063Y-76071119D01*
X134039173Y-75843393D01*
X133903164Y-75635215D01*
X133734744Y-75452262D01*
X133718437Y-75439570D01*
X133651992Y-75387853D01*
X133616754Y-75344460D01*
X133604154Y-75290000D01*
X133616754Y-75235540D01*
X133651992Y-75192147D01*
X133676256Y-75173260D01*
X133734744Y-75127738D01*
X133903164Y-74944785D01*
X134039173Y-74736607D01*
X134139063Y-74508881D01*
X134200108Y-74267821D01*
X134220643Y-74020000D01*
X134200108Y-73772179D01*
X134139063Y-73531119D01*
X134039173Y-73303393D01*
X133903164Y-73095215D01*
X133734744Y-72912262D01*
X133718437Y-72899570D01*
X133651992Y-72847853D01*
X133616754Y-72804460D01*
X133604154Y-72750000D01*
X133616754Y-72695540D01*
X133651992Y-72652147D01*
X133676256Y-72633260D01*
X133734744Y-72587738D01*
X133903164Y-72404785D01*
X134039173Y-72196607D01*
X134139063Y-71968881D01*
X134200108Y-71727821D01*
X134220643Y-71480000D01*
X134200108Y-71232179D01*
X134139063Y-70991119D01*
X134039173Y-70763393D01*
X133903164Y-70555215D01*
X133734744Y-70372262D01*
X133718437Y-70359570D01*
X133651992Y-70307853D01*
X133616754Y-70264460D01*
X133604154Y-70210000D01*
X133616754Y-70155540D01*
X133651992Y-70112147D01*
X133676256Y-70093260D01*
X133734744Y-70047738D01*
X133903164Y-69864785D01*
X134039173Y-69656607D01*
X134139063Y-69428881D01*
X134200108Y-69187821D01*
X134220643Y-68940000D01*
X134200108Y-68692179D01*
X134139063Y-68451119D01*
X134039173Y-68223393D01*
X133903164Y-68015215D01*
X133734744Y-67832262D01*
X133718437Y-67819570D01*
X133651992Y-67767853D01*
X133616754Y-67724460D01*
X133604154Y-67670000D01*
X133616754Y-67615540D01*
X133651992Y-67572147D01*
X133676256Y-67553260D01*
X133734744Y-67507738D01*
X133903164Y-67324785D01*
X134039173Y-67116607D01*
X134139063Y-66888881D01*
X134200108Y-66647821D01*
X134220643Y-66400000D01*
X134200108Y-66152179D01*
X134139063Y-65911119D01*
X134039173Y-65683393D01*
X133903164Y-65475215D01*
X133734744Y-65292262D01*
X133718437Y-65279570D01*
X133651992Y-65227853D01*
X133616754Y-65184460D01*
X133604154Y-65130000D01*
X133616754Y-65075540D01*
X133651992Y-65032147D01*
X133676256Y-65013260D01*
X133734744Y-64967738D01*
X133903164Y-64784785D01*
X134039173Y-64576607D01*
X134139063Y-64348881D01*
X134200108Y-64107821D01*
X134220643Y-63860000D01*
X134200108Y-63612179D01*
X134139063Y-63371119D01*
X134049016Y-63165833D01*
X134039174Y-63143395D01*
X134039173Y-63143393D01*
X133903164Y-62935215D01*
X133734744Y-62752262D01*
X133718437Y-62739570D01*
X133651992Y-62687853D01*
X133616754Y-62644460D01*
X133604154Y-62590000D01*
X133616754Y-62535540D01*
X133651992Y-62492147D01*
X133676256Y-62473260D01*
X133734744Y-62427738D01*
X133903164Y-62244785D01*
X134039173Y-62036607D01*
X134139063Y-61808881D01*
X134200108Y-61567821D01*
X134220643Y-61320000D01*
X134200108Y-61072179D01*
X134139063Y-60831119D01*
X134039173Y-60603393D01*
X134020623Y-60575000D01*
X145970000Y-60575000D01*
X145970000Y-61222824D01*
X145976402Y-61282375D01*
X146026647Y-61417089D01*
X146112811Y-61532188D01*
X146227910Y-61618352D01*
X146362624Y-61668597D01*
X146422176Y-61675000D01*
X147070000Y-61675000D01*
X147070000Y-60575000D01*
X147570000Y-60575000D01*
X147570000Y-61675000D01*
X148217824Y-61675000D01*
X148277375Y-61668597D01*
X148412089Y-61618352D01*
X148527188Y-61532188D01*
X148613352Y-61417089D01*
X148663597Y-61282375D01*
X148670000Y-61222824D01*
X148670000Y-60575000D01*
X147570000Y-60575000D01*
X147070000Y-60575000D01*
X145970000Y-60575000D01*
X134020623Y-60575000D01*
X133903164Y-60395215D01*
X133734744Y-60212262D01*
X133718437Y-60199570D01*
X133651992Y-60147853D01*
X133616754Y-60104460D01*
X133604154Y-60050000D01*
X133616754Y-59995540D01*
X133651992Y-59952147D01*
X133676256Y-59933260D01*
X133734744Y-59887738D01*
X133903164Y-59704785D01*
X134039173Y-59496607D01*
X134139063Y-59268881D01*
X134200108Y-59027821D01*
X134220643Y-58780000D01*
X134200108Y-58532179D01*
X134139063Y-58291119D01*
X134039173Y-58063393D01*
X133903164Y-57855215D01*
X133838526Y-57784999D01*
X145964340Y-57784999D01*
X145984936Y-58020407D01*
X145996455Y-58063395D01*
X146046097Y-58248663D01*
X146145965Y-58462830D01*
X146281505Y-58656401D01*
X146281508Y-58656404D01*
X146403818Y-58778714D01*
X146435114Y-58831460D01*
X146437303Y-58892753D01*
X146409850Y-58947597D01*
X146359472Y-58982576D01*
X146227913Y-59031646D01*
X146112811Y-59117811D01*
X146026647Y-59232910D01*
X145976402Y-59367624D01*
X145970000Y-59427176D01*
X145970000Y-60075000D01*
X148670000Y-60075000D01*
X148670000Y-59427176D01*
X148663597Y-59367624D01*
X148613352Y-59232910D01*
X148527188Y-59117811D01*
X148412088Y-59031647D01*
X148280528Y-58982577D01*
X148230149Y-58947597D01*
X148202696Y-58892752D01*
X148204885Y-58831460D01*
X148236178Y-58778717D01*
X148358495Y-58656401D01*
X148494035Y-58462830D01*
X148593903Y-58248663D01*
X148655063Y-58020408D01*
X148675659Y-57785000D01*
X148675659Y-57784999D01*
X149139340Y-57784999D01*
X149159936Y-58020407D01*
X149171455Y-58063395D01*
X149221097Y-58248663D01*
X149320965Y-58462830D01*
X149456505Y-58656401D01*
X149456508Y-58656404D01*
X149578430Y-58778326D01*
X149609726Y-58831072D01*
X149611915Y-58892365D01*
X149584462Y-58947209D01*
X149534083Y-58982189D01*
X149402669Y-59031204D01*
X149287454Y-59117454D01*
X149201204Y-59232668D01*
X149150909Y-59367516D01*
X149144500Y-59427130D01*
X149144500Y-61222869D01*
X149150909Y-61282484D01*
X149164902Y-61320000D01*
X149201204Y-61417331D01*
X149287454Y-61532546D01*
X149402669Y-61618796D01*
X149537517Y-61669091D01*
X149597127Y-61675500D01*
X151392872Y-61675499D01*
X151452483Y-61669091D01*
X151587331Y-61618796D01*
X151702546Y-61532546D01*
X151788796Y-61417331D01*
X151839091Y-61282483D01*
X151845500Y-61222873D01*
X151845499Y-59427128D01*
X151839091Y-59367517D01*
X151788796Y-59232669D01*
X151702546Y-59117454D01*
X151587331Y-59031204D01*
X151525898Y-59008291D01*
X151455916Y-58982189D01*
X151405537Y-58947209D01*
X151378084Y-58892365D01*
X151380273Y-58831072D01*
X151411566Y-58778329D01*
X151533495Y-58656401D01*
X151669035Y-58462830D01*
X151768903Y-58248663D01*
X151830063Y-58020408D01*
X151850659Y-57785000D01*
X151840795Y-57672262D01*
X151830063Y-57549592D01*
X151793235Y-57412147D01*
X151768903Y-57321337D01*
X151669035Y-57107171D01*
X151533495Y-56913599D01*
X151366401Y-56746505D01*
X151172830Y-56610965D01*
X150958663Y-56511097D01*
X150871776Y-56487816D01*
X150730407Y-56449936D01*
X150495000Y-56429340D01*
X150259592Y-56449936D01*
X150031336Y-56511097D01*
X149817170Y-56610965D01*
X149623598Y-56746505D01*
X149456505Y-56913598D01*
X149320965Y-57107170D01*
X149221097Y-57321336D01*
X149159936Y-57549592D01*
X149139340Y-57784999D01*
X148675659Y-57784999D01*
X148665795Y-57672262D01*
X148655063Y-57549592D01*
X148618235Y-57412147D01*
X148593903Y-57321337D01*
X148494035Y-57107171D01*
X148358495Y-56913599D01*
X148191401Y-56746505D01*
X147997830Y-56610965D01*
X147783663Y-56511097D01*
X147696776Y-56487816D01*
X147555407Y-56449936D01*
X147320000Y-56429340D01*
X147084592Y-56449936D01*
X146856336Y-56511097D01*
X146642170Y-56610965D01*
X146448598Y-56746505D01*
X146281505Y-56913598D01*
X146145965Y-57107170D01*
X146046097Y-57321336D01*
X145984936Y-57549592D01*
X145964340Y-57784999D01*
X133838526Y-57784999D01*
X133734744Y-57672262D01*
X133718437Y-57659570D01*
X133651992Y-57607853D01*
X133616754Y-57564460D01*
X133604154Y-57510000D01*
X133616754Y-57455540D01*
X133651992Y-57412147D01*
X133691360Y-57381505D01*
X133734744Y-57347738D01*
X133903164Y-57164785D01*
X134039173Y-56956607D01*
X134139063Y-56728881D01*
X134200108Y-56487821D01*
X134220643Y-56240000D01*
X134200108Y-55992179D01*
X134139063Y-55751119D01*
X134039173Y-55523393D01*
X133903164Y-55315215D01*
X133734744Y-55132262D01*
X133631253Y-55051711D01*
X133594382Y-55004841D01*
X133583655Y-54946176D01*
X133585056Y-54923609D01*
X132715000Y-54053553D01*
X131844942Y-54923610D01*
X131846343Y-54946178D01*
X131835616Y-55004842D01*
X131798744Y-55051714D01*
X131695256Y-55132261D01*
X131566839Y-55271760D01*
X131526836Y-55315215D01*
X131521462Y-55323441D01*
X131390825Y-55523395D01*
X131290938Y-55751117D01*
X131229891Y-55992183D01*
X131209356Y-56240000D01*
X131229891Y-56487816D01*
X131229891Y-56487819D01*
X131229892Y-56487821D01*
X131290937Y-56728881D01*
X131300817Y-56751404D01*
X131390825Y-56956604D01*
X131390827Y-56956607D01*
X131526836Y-57164785D01*
X131606732Y-57251575D01*
X131695256Y-57347738D01*
X131778008Y-57412147D01*
X131813246Y-57455540D01*
X131825845Y-57510000D01*
X131813246Y-57564460D01*
X131778008Y-57607853D01*
X131695256Y-57672261D01*
X131526837Y-57855214D01*
X131390825Y-58063395D01*
X131337664Y-58184592D01*
X131290937Y-58291119D01*
X131247454Y-58462830D01*
X131229891Y-58532183D01*
X131209356Y-58780000D01*
X131229891Y-59027816D01*
X131229891Y-59027819D01*
X131229892Y-59027821D01*
X131290937Y-59268881D01*
X131300817Y-59291404D01*
X131390825Y-59496604D01*
X131390827Y-59496607D01*
X131526836Y-59704785D01*
X131641582Y-59829432D01*
X131695256Y-59887738D01*
X131778008Y-59952147D01*
X131813246Y-59995540D01*
X131825845Y-60050000D01*
X131813246Y-60104460D01*
X131778008Y-60147853D01*
X131695256Y-60212261D01*
X131526837Y-60395214D01*
X131390825Y-60603395D01*
X131290938Y-60831117D01*
X131229891Y-61072183D01*
X131209356Y-61319999D01*
X131229891Y-61567816D01*
X131229891Y-61567819D01*
X131229892Y-61567821D01*
X131290937Y-61808881D01*
X131312427Y-61857873D01*
X131390825Y-62036604D01*
X131390827Y-62036607D01*
X131526836Y-62244785D01*
X131695255Y-62427737D01*
X131695256Y-62427738D01*
X131778008Y-62492147D01*
X131813246Y-62535540D01*
X131825845Y-62590000D01*
X131813246Y-62644460D01*
X131778008Y-62687853D01*
X131695256Y-62752261D01*
X131526837Y-62935214D01*
X131390825Y-63143395D01*
X131318837Y-63307514D01*
X131290937Y-63371119D01*
X131274999Y-63434058D01*
X131229891Y-63612183D01*
X131209356Y-63860000D01*
X131229891Y-64107816D01*
X131229891Y-64107819D01*
X131229892Y-64107821D01*
X131290937Y-64348881D01*
X131335960Y-64451523D01*
X131390825Y-64576604D01*
X131390827Y-64576607D01*
X131526836Y-64784785D01*
X131695256Y-64967738D01*
X131778008Y-65032147D01*
X131813245Y-65075538D01*
X131825845Y-65129998D01*
X131813246Y-65184458D01*
X131778009Y-65227851D01*
X131695257Y-65292260D01*
X131526837Y-65475214D01*
X131390825Y-65683395D01*
X131290938Y-65911117D01*
X131229891Y-66152183D01*
X131209356Y-66400000D01*
X131229891Y-66647816D01*
X131229891Y-66647819D01*
X131229892Y-66647821D01*
X131290937Y-66888881D01*
X131335960Y-66991523D01*
X131390825Y-67116604D01*
X131390827Y-67116607D01*
X131526836Y-67324785D01*
X131695256Y-67507738D01*
X131778008Y-67572147D01*
X131813246Y-67615540D01*
X131825845Y-67670000D01*
X131813246Y-67724460D01*
X131778008Y-67767853D01*
X131695256Y-67832261D01*
X131526837Y-68015214D01*
X131390825Y-68223395D01*
X131311560Y-68404104D01*
X131290937Y-68451119D01*
X131229892Y-68692179D01*
X131229891Y-68692183D01*
X131209356Y-68939999D01*
X131229891Y-69187816D01*
X131229891Y-69187819D01*
X131229892Y-69187821D01*
X131290937Y-69428881D01*
X131335960Y-69531523D01*
X131390825Y-69656604D01*
X131390827Y-69656607D01*
X131526836Y-69864785D01*
X131695255Y-70047737D01*
X131695256Y-70047738D01*
X131778008Y-70112147D01*
X131813246Y-70155540D01*
X131825845Y-70210000D01*
X131813246Y-70264460D01*
X131778008Y-70307853D01*
X131695256Y-70372261D01*
X131526837Y-70555214D01*
X131390825Y-70763395D01*
X131290938Y-70991117D01*
X131229891Y-71232183D01*
X131209356Y-71479999D01*
X131229891Y-71727816D01*
X131229891Y-71727819D01*
X131229892Y-71727821D01*
X131290937Y-71968881D01*
X131335960Y-72071523D01*
X131390825Y-72196604D01*
X131390827Y-72196607D01*
X131526836Y-72404785D01*
X131695255Y-72587737D01*
X131695256Y-72587738D01*
X131778008Y-72652147D01*
X131813246Y-72695540D01*
X131825845Y-72750000D01*
X131813246Y-72804460D01*
X131778008Y-72847853D01*
X131695256Y-72912261D01*
X131526837Y-73095214D01*
X131390825Y-73303395D01*
X131290938Y-73531117D01*
X131229891Y-73772183D01*
X131209356Y-74020000D01*
X131229891Y-74267816D01*
X131229891Y-74267819D01*
X131229892Y-74267821D01*
X131290937Y-74508881D01*
X131335960Y-74611523D01*
X131390825Y-74736604D01*
X131390827Y-74736607D01*
X131526836Y-74944785D01*
X131695256Y-75127738D01*
X131778008Y-75192147D01*
X131813246Y-75235540D01*
X131825845Y-75290000D01*
X131813246Y-75344460D01*
X131778008Y-75387853D01*
X131695256Y-75452261D01*
X131526837Y-75635214D01*
X131390825Y-75843395D01*
X131290938Y-76071117D01*
X131229891Y-76312183D01*
X131209356Y-76559999D01*
X131229891Y-76807816D01*
X131229891Y-76807819D01*
X131229892Y-76807821D01*
X131290937Y-77048881D01*
X131335960Y-77151523D01*
X131390825Y-77276604D01*
X131390827Y-77276607D01*
X131526836Y-77484785D01*
X131695255Y-77667737D01*
X131695256Y-77667738D01*
X131778008Y-77732147D01*
X131813246Y-77775540D01*
X131825845Y-77830000D01*
X131813246Y-77884460D01*
X131778008Y-77927853D01*
X131695256Y-77992261D01*
X131526837Y-78175214D01*
X131390825Y-78383395D01*
X131290938Y-78611117D01*
X131229891Y-78852183D01*
X131209356Y-79099999D01*
X131229891Y-79347816D01*
X131229891Y-79347819D01*
X131229892Y-79347821D01*
X131290937Y-79588881D01*
X131335960Y-79691523D01*
X131390825Y-79816604D01*
X131390827Y-79816607D01*
X131526836Y-80024785D01*
X131676780Y-80187668D01*
X131695256Y-80207738D01*
X131778008Y-80272147D01*
X131813246Y-80315540D01*
X131825845Y-80370000D01*
X131813246Y-80424460D01*
X131778008Y-80467853D01*
X131695256Y-80532261D01*
X131526837Y-80715214D01*
X131390825Y-80923395D01*
X131290938Y-81151117D01*
X131229891Y-81392183D01*
X131209356Y-81640000D01*
X131229891Y-81887816D01*
X131229891Y-81887819D01*
X131229892Y-81887821D01*
X131290937Y-82128881D01*
X131312427Y-82177873D01*
X131390825Y-82356604D01*
X131390827Y-82356607D01*
X131526836Y-82564785D01*
X131663117Y-82712826D01*
X131695256Y-82747738D01*
X131778008Y-82812147D01*
X131813246Y-82855540D01*
X131825845Y-82910000D01*
X131813246Y-82964460D01*
X131778008Y-83007853D01*
X131695256Y-83072261D01*
X131526837Y-83255214D01*
X131390825Y-83463395D01*
X131290938Y-83691117D01*
X131229891Y-83932183D01*
X131209356Y-84179999D01*
X131229891Y-84427816D01*
X131229891Y-84427819D01*
X131229892Y-84427821D01*
X131290937Y-84668881D01*
X131300675Y-84691081D01*
X131390825Y-84896604D01*
X131390827Y-84896607D01*
X131526836Y-85104785D01*
X131695255Y-85287737D01*
X131695256Y-85287738D01*
X131778008Y-85352147D01*
X131813246Y-85395540D01*
X131825845Y-85450000D01*
X131813246Y-85504460D01*
X131778008Y-85547853D01*
X131695256Y-85612261D01*
X131526837Y-85795214D01*
X131390825Y-86003395D01*
X131290938Y-86231117D01*
X131229891Y-86472183D01*
X131209356Y-86720000D01*
X131229891Y-86967816D01*
X131229891Y-86967819D01*
X131229892Y-86967821D01*
X131290937Y-87208881D01*
X131300817Y-87231404D01*
X131390825Y-87436604D01*
X131390827Y-87436607D01*
X131526836Y-87644785D01*
X131695256Y-87827738D01*
X131778008Y-87892147D01*
X131813245Y-87935538D01*
X131825845Y-87989998D01*
X131813246Y-88044458D01*
X131778009Y-88087851D01*
X131695257Y-88152260D01*
X131526837Y-88335214D01*
X131390825Y-88543395D01*
X131290938Y-88771117D01*
X131229891Y-89012183D01*
X131209356Y-89260000D01*
X131229891Y-89507816D01*
X131229891Y-89507819D01*
X131229892Y-89507821D01*
X131290937Y-89748881D01*
X131335960Y-89851523D01*
X131390825Y-89976604D01*
X131390827Y-89976607D01*
X131526836Y-90184785D01*
X131695256Y-90367738D01*
X131760667Y-90418649D01*
X131891485Y-90520470D01*
X131891487Y-90520471D01*
X131891491Y-90520474D01*
X132110190Y-90638828D01*
X132188078Y-90665567D01*
X132283189Y-90698219D01*
X132339507Y-90737730D01*
X132366096Y-90801180D01*
X132354773Y-90869038D01*
X132309022Y-90920416D01*
X132242926Y-90939500D01*
X132179501Y-90939500D01*
X131983372Y-90954197D01*
X131727581Y-91012580D01*
X131483358Y-91108431D01*
X131256143Y-91239613D01*
X131051015Y-91403198D01*
X130872571Y-91595514D01*
X130772070Y-91742922D01*
X130724772Y-91812296D01*
X130610937Y-92048677D01*
X130533604Y-92299385D01*
X130494500Y-92558818D01*
X130494500Y-92821182D01*
X128795000Y-92821182D01*
X128795000Y-88200000D01*
X111105000Y-88200000D01*
X108378690Y-88200000D01*
X108334744Y-88152262D01*
X108318437Y-88139570D01*
X108251992Y-88087853D01*
X108216754Y-88044460D01*
X108204154Y-87990000D01*
X108216754Y-87935540D01*
X108251992Y-87892147D01*
X108276256Y-87873260D01*
X108334744Y-87827738D01*
X108503164Y-87644785D01*
X108639173Y-87436607D01*
X108739063Y-87208881D01*
X108800108Y-86967821D01*
X108820643Y-86720000D01*
X108800108Y-86472179D01*
X108739063Y-86231119D01*
X108639173Y-86003393D01*
X108503164Y-85795215D01*
X108334744Y-85612262D01*
X108318437Y-85599570D01*
X108251992Y-85547853D01*
X108216754Y-85504460D01*
X108204154Y-85450000D01*
X108216754Y-85395540D01*
X108251992Y-85352147D01*
X108291360Y-85321505D01*
X108334744Y-85287738D01*
X108503164Y-85104785D01*
X108639173Y-84896607D01*
X108739063Y-84668881D01*
X108800108Y-84427821D01*
X108820643Y-84180000D01*
X108800108Y-83932179D01*
X108739063Y-83691119D01*
X108639173Y-83463393D01*
X108503164Y-83255215D01*
X108334744Y-83072262D01*
X108300446Y-83045567D01*
X108251992Y-83007853D01*
X108216754Y-82964460D01*
X108204154Y-82910000D01*
X108216754Y-82855540D01*
X108251992Y-82812147D01*
X108276256Y-82793260D01*
X108334744Y-82747738D01*
X108503164Y-82564785D01*
X108639173Y-82356607D01*
X108739063Y-82128881D01*
X108800108Y-81887821D01*
X108820643Y-81640000D01*
X108800108Y-81392179D01*
X108739063Y-81151119D01*
X108639173Y-80923393D01*
X108503164Y-80715215D01*
X108334744Y-80532262D01*
X108318437Y-80519570D01*
X108251992Y-80467853D01*
X108216754Y-80424460D01*
X108204154Y-80370000D01*
X108216754Y-80315540D01*
X108251992Y-80272147D01*
X108276256Y-80253260D01*
X108334744Y-80207738D01*
X108503164Y-80024785D01*
X108639173Y-79816607D01*
X108739063Y-79588881D01*
X108800108Y-79347821D01*
X108820643Y-79100000D01*
X108819832Y-79090218D01*
X108800108Y-78852183D01*
X108800108Y-78852179D01*
X108739063Y-78611119D01*
X108639173Y-78383393D01*
X108503164Y-78175215D01*
X108334744Y-77992262D01*
X108318437Y-77979570D01*
X108251992Y-77927853D01*
X108216754Y-77884460D01*
X108204154Y-77830000D01*
X108216754Y-77775540D01*
X108251992Y-77732147D01*
X108276256Y-77713260D01*
X108334744Y-77667738D01*
X108503164Y-77484785D01*
X108639173Y-77276607D01*
X108739063Y-77048881D01*
X108800108Y-76807821D01*
X108820643Y-76560000D01*
X108800108Y-76312179D01*
X108739063Y-76071119D01*
X108639173Y-75843393D01*
X108503164Y-75635215D01*
X108334744Y-75452262D01*
X108318437Y-75439570D01*
X108251992Y-75387853D01*
X108216754Y-75344460D01*
X108204154Y-75290000D01*
X108216754Y-75235540D01*
X108251992Y-75192147D01*
X108276256Y-75173260D01*
X108334744Y-75127738D01*
X108503164Y-74944785D01*
X108639173Y-74736607D01*
X108739063Y-74508881D01*
X108800108Y-74267821D01*
X108820643Y-74020000D01*
X108800108Y-73772179D01*
X108739063Y-73531119D01*
X108639173Y-73303393D01*
X108503164Y-73095215D01*
X108334744Y-72912262D01*
X108318437Y-72899570D01*
X108251992Y-72847853D01*
X108216754Y-72804460D01*
X108204154Y-72750000D01*
X108216754Y-72695540D01*
X108251992Y-72652147D01*
X108276256Y-72633260D01*
X108334744Y-72587738D01*
X108503164Y-72404785D01*
X108639173Y-72196607D01*
X108739063Y-71968881D01*
X108800108Y-71727821D01*
X108820643Y-71480000D01*
X108800108Y-71232179D01*
X108739063Y-70991119D01*
X108639173Y-70763393D01*
X108503164Y-70555215D01*
X108334744Y-70372262D01*
X108318437Y-70359570D01*
X108251992Y-70307853D01*
X108216754Y-70264460D01*
X108204154Y-70210000D01*
X108216754Y-70155540D01*
X108251992Y-70112147D01*
X108276256Y-70093260D01*
X108334744Y-70047738D01*
X108503164Y-69864785D01*
X108639173Y-69656607D01*
X108739063Y-69428881D01*
X108800108Y-69187821D01*
X108820643Y-68940000D01*
X108800108Y-68692179D01*
X108739063Y-68451119D01*
X108639173Y-68223393D01*
X108503164Y-68015215D01*
X108334744Y-67832262D01*
X108318437Y-67819570D01*
X108251992Y-67767853D01*
X108216754Y-67724460D01*
X108204154Y-67670000D01*
X108216754Y-67615540D01*
X108251992Y-67572147D01*
X108276256Y-67553260D01*
X108334744Y-67507738D01*
X108503164Y-67324785D01*
X108639173Y-67116607D01*
X108739063Y-66888881D01*
X108800108Y-66647821D01*
X108820643Y-66400000D01*
X108800108Y-66152179D01*
X108739063Y-65911119D01*
X108639173Y-65683393D01*
X108503164Y-65475215D01*
X108334744Y-65292262D01*
X108318437Y-65279570D01*
X108251992Y-65227853D01*
X108216754Y-65184460D01*
X108204154Y-65130000D01*
X108216754Y-65075540D01*
X108251992Y-65032147D01*
X108276256Y-65013260D01*
X108334744Y-64967738D01*
X108503164Y-64784785D01*
X108639173Y-64576607D01*
X108739063Y-64348881D01*
X108800108Y-64107821D01*
X108820643Y-63860000D01*
X108800108Y-63612179D01*
X108739063Y-63371119D01*
X108649016Y-63165833D01*
X108639174Y-63143395D01*
X108639173Y-63143393D01*
X108503164Y-62935215D01*
X108334744Y-62752262D01*
X108318437Y-62739570D01*
X108251992Y-62687853D01*
X108216754Y-62644460D01*
X108204154Y-62590000D01*
X108216754Y-62535540D01*
X108251992Y-62492147D01*
X108276256Y-62473260D01*
X108334744Y-62427738D01*
X108503164Y-62244785D01*
X108639173Y-62036607D01*
X108739063Y-61808881D01*
X108800108Y-61567821D01*
X108820643Y-61320000D01*
X108800108Y-61072179D01*
X108739063Y-60831119D01*
X108639173Y-60603393D01*
X108503164Y-60395215D01*
X108334744Y-60212262D01*
X108318437Y-60199570D01*
X108251992Y-60147853D01*
X108216754Y-60104460D01*
X108204154Y-60050000D01*
X108216754Y-59995540D01*
X108251992Y-59952147D01*
X108276256Y-59933260D01*
X108334744Y-59887738D01*
X108503164Y-59704785D01*
X108639173Y-59496607D01*
X108739063Y-59268881D01*
X108800108Y-59027821D01*
X108820643Y-58780000D01*
X108800108Y-58532179D01*
X108739063Y-58291119D01*
X108639173Y-58063393D01*
X108503164Y-57855215D01*
X108334744Y-57672262D01*
X108318437Y-57659570D01*
X108251992Y-57607853D01*
X108216754Y-57564460D01*
X108204154Y-57510000D01*
X108216754Y-57455540D01*
X108251992Y-57412147D01*
X108291360Y-57381505D01*
X108334744Y-57347738D01*
X108503164Y-57164785D01*
X108639173Y-56956607D01*
X108739063Y-56728881D01*
X108800108Y-56487821D01*
X108820643Y-56240000D01*
X108800108Y-55992179D01*
X108739063Y-55751119D01*
X108639173Y-55523393D01*
X108508537Y-55323439D01*
X108489402Y-55271760D01*
X108494550Y-55216891D01*
X108522966Y-55169672D01*
X108544063Y-55155822D01*
X108543058Y-55154480D01*
X108557328Y-55143796D01*
X108557331Y-55143796D01*
X108672546Y-55057546D01*
X108758796Y-54942331D01*
X108809091Y-54807483D01*
X108815500Y-54747873D01*
X108815499Y-53700000D01*
X131209858Y-53700000D01*
X131230386Y-53947732D01*
X131291413Y-54188721D01*
X131391268Y-54416370D01*
X131491563Y-54569882D01*
X131491564Y-54569882D01*
X132361447Y-53700001D01*
X133068553Y-53700001D01*
X133938434Y-54569882D01*
X134038730Y-54416369D01*
X134138586Y-54188721D01*
X134199613Y-53947732D01*
X134220141Y-53700000D01*
X134199613Y-53452267D01*
X134138586Y-53211278D01*
X134038730Y-52983630D01*
X133938434Y-52830116D01*
X133068553Y-53700000D01*
X133068553Y-53700001D01*
X132361447Y-53700001D01*
X132361447Y-53699999D01*
X131491564Y-52830116D01*
X131391266Y-52983634D01*
X131291413Y-53211278D01*
X131230386Y-53452267D01*
X131209858Y-53700000D01*
X108815499Y-53700000D01*
X108815499Y-52652128D01*
X108809091Y-52592517D01*
X108765778Y-52476390D01*
X131844942Y-52476390D01*
X132715000Y-53346447D01*
X132715001Y-53346447D01*
X133585057Y-52476390D01*
X133585056Y-52476388D01*
X133538235Y-52439947D01*
X133319606Y-52321631D01*
X133084493Y-52240916D01*
X132839293Y-52200000D01*
X132590707Y-52200000D01*
X132345506Y-52240916D01*
X132110393Y-52321631D01*
X131891764Y-52439946D01*
X131844942Y-52476388D01*
X131844942Y-52476390D01*
X108765778Y-52476390D01*
X108758796Y-52457669D01*
X108672546Y-52342454D01*
X108557331Y-52256204D01*
X108422483Y-52205909D01*
X108362873Y-52199500D01*
X108362869Y-52199500D01*
X106267130Y-52199500D01*
X106207515Y-52205909D01*
X106072669Y-52256204D01*
X105957454Y-52342454D01*
X105871204Y-52457668D01*
X105820909Y-52592516D01*
X105814500Y-52652130D01*
X105814500Y-54747869D01*
X105820909Y-54807483D01*
X105871204Y-54942331D01*
X105957454Y-55057546D01*
X106072669Y-55143796D01*
X106072671Y-55143796D01*
X106086942Y-55154480D01*
X106085936Y-55155822D01*
X106107038Y-55169676D01*
X106135450Y-55216894D01*
X106140597Y-55271761D01*
X106121461Y-55323440D01*
X105990826Y-55523392D01*
X105890938Y-55751117D01*
X105829891Y-55992183D01*
X105809356Y-56240000D01*
X105829891Y-56487816D01*
X105829891Y-56487819D01*
X105829892Y-56487821D01*
X105890937Y-56728881D01*
X105900817Y-56751404D01*
X105990825Y-56956604D01*
X105990827Y-56956607D01*
X106126836Y-57164785D01*
X106206732Y-57251575D01*
X106295256Y-57347738D01*
X106378008Y-57412147D01*
X106413246Y-57455540D01*
X106425845Y-57510000D01*
X106413246Y-57564460D01*
X106378008Y-57607853D01*
X106295256Y-57672261D01*
X106126837Y-57855214D01*
X105990825Y-58063395D01*
X105937664Y-58184592D01*
X105890937Y-58291119D01*
X105847454Y-58462830D01*
X105829891Y-58532183D01*
X105809356Y-58780000D01*
X105829891Y-59027816D01*
X105829891Y-59027819D01*
X105829892Y-59027821D01*
X105890937Y-59268881D01*
X105900817Y-59291404D01*
X105990825Y-59496604D01*
X105990827Y-59496607D01*
X106126836Y-59704785D01*
X106241582Y-59829432D01*
X106295256Y-59887738D01*
X106378008Y-59952147D01*
X106413246Y-59995540D01*
X106425845Y-60050000D01*
X106413246Y-60104460D01*
X106378008Y-60147853D01*
X106295256Y-60212261D01*
X106126837Y-60395214D01*
X105990825Y-60603395D01*
X105890938Y-60831117D01*
X105829891Y-61072183D01*
X105809356Y-61319999D01*
X105829891Y-61567816D01*
X105829891Y-61567819D01*
X105829892Y-61567821D01*
X105890937Y-61808881D01*
X105912427Y-61857873D01*
X105990825Y-62036604D01*
X105990827Y-62036607D01*
X106126836Y-62244785D01*
X106295255Y-62427737D01*
X106295256Y-62427738D01*
X106378008Y-62492147D01*
X106413246Y-62535540D01*
X106425845Y-62590000D01*
X106413246Y-62644460D01*
X106378008Y-62687853D01*
X106295256Y-62752261D01*
X106126837Y-62935214D01*
X105990825Y-63143395D01*
X105983406Y-63160310D01*
X105956315Y-63199381D01*
X105916512Y-63225385D01*
X105869850Y-63234500D01*
X100052744Y-63234500D01*
X100032237Y-63232235D01*
X99962127Y-63234439D01*
X99958232Y-63234500D01*
X99930650Y-63234500D01*
X99926665Y-63235003D01*
X99915033Y-63235918D01*
X99871369Y-63237290D01*
X99852129Y-63242880D01*
X99833081Y-63246825D01*
X99813209Y-63249335D01*
X99772599Y-63265413D01*
X99761554Y-63269194D01*
X99719610Y-63281381D01*
X99702365Y-63291579D01*
X99684904Y-63300133D01*
X99666267Y-63307512D01*
X99630931Y-63333185D01*
X99621174Y-63339595D01*
X99583580Y-63361829D01*
X99569413Y-63375996D01*
X99554624Y-63388626D01*
X99538413Y-63400404D01*
X99510572Y-63434058D01*
X99502711Y-63442697D01*
X94866208Y-68079199D01*
X94850110Y-68092096D01*
X94802096Y-68143225D01*
X94799391Y-68146017D01*
X94779874Y-68165534D01*
X94777415Y-68168705D01*
X94769842Y-68177572D01*
X94739935Y-68209420D01*
X94730285Y-68226974D01*
X94719609Y-68243228D01*
X94707326Y-68259063D01*
X94689975Y-68299158D01*
X94684838Y-68309644D01*
X94663802Y-68347907D01*
X94658821Y-68367309D01*
X94652520Y-68385711D01*
X94644561Y-68404102D01*
X94637728Y-68447242D01*
X94635360Y-68458674D01*
X94624500Y-68500978D01*
X94624500Y-68521016D01*
X94622973Y-68540415D01*
X94619840Y-68560194D01*
X94623950Y-68603675D01*
X94624500Y-68615344D01*
X94624500Y-101655812D01*
X94610489Y-101713069D01*
X94571623Y-101757387D01*
X94410859Y-101869953D01*
X94249953Y-102030859D01*
X94119432Y-102217264D01*
X94023261Y-102423502D01*
X93964364Y-102643310D01*
X93944531Y-102870000D01*
X92135468Y-102870000D01*
X92115635Y-102643308D01*
X92056739Y-102423504D01*
X91960568Y-102217266D01*
X91830047Y-102030861D01*
X91830046Y-102030859D01*
X91669140Y-101869953D01*
X91482735Y-101739432D01*
X91276497Y-101643261D01*
X91056689Y-101584364D01*
X90830000Y-101564531D01*
X90603310Y-101584364D01*
X90383502Y-101643261D01*
X90177264Y-101739432D01*
X89990859Y-101869953D01*
X89829953Y-102030859D01*
X89699432Y-102217264D01*
X89603261Y-102423502D01*
X89544364Y-102643310D01*
X89524531Y-102870000D01*
X86360500Y-102870000D01*
X86360500Y-80644999D01*
X88039356Y-80644999D01*
X88059891Y-80892816D01*
X88059891Y-80892819D01*
X88059892Y-80892821D01*
X88120937Y-81133881D01*
X88165960Y-81236523D01*
X88220825Y-81361604D01*
X88220827Y-81361607D01*
X88356836Y-81569785D01*
X88525256Y-81752738D01*
X88525259Y-81752740D01*
X88721485Y-81905470D01*
X88721487Y-81905471D01*
X88721491Y-81905474D01*
X88940190Y-82023828D01*
X89175386Y-82104571D01*
X89420665Y-82145500D01*
X89669335Y-82145500D01*
X89914614Y-82104571D01*
X90149810Y-82023828D01*
X90368509Y-81905474D01*
X90564744Y-81752738D01*
X90733164Y-81569785D01*
X90869173Y-81361607D01*
X90969063Y-81133881D01*
X91030108Y-80892821D01*
X91050643Y-80645000D01*
X91049347Y-80629365D01*
X91035964Y-80467853D01*
X91030108Y-80397179D01*
X90969063Y-80156119D01*
X90869173Y-79928393D01*
X90733164Y-79720215D01*
X90564744Y-79537262D01*
X90542612Y-79520036D01*
X90368514Y-79384529D01*
X90368510Y-79384526D01*
X90368509Y-79384526D01*
X90149810Y-79266172D01*
X90149806Y-79266170D01*
X90149805Y-79266170D01*
X89914615Y-79185429D01*
X89669335Y-79144500D01*
X89420665Y-79144500D01*
X89175384Y-79185429D01*
X88940194Y-79266170D01*
X88721485Y-79384529D01*
X88525259Y-79537259D01*
X88525256Y-79537261D01*
X88525256Y-79537262D01*
X88470144Y-79597130D01*
X88356837Y-79720214D01*
X88220825Y-79928395D01*
X88157636Y-80072454D01*
X88120937Y-80156119D01*
X88107865Y-80207740D01*
X88059891Y-80397183D01*
X88039356Y-80644999D01*
X86360500Y-80644999D01*
X86360500Y-58419999D01*
X88179340Y-58419999D01*
X88199936Y-58655407D01*
X88232872Y-58778325D01*
X88261097Y-58883663D01*
X88360965Y-59097830D01*
X88496505Y-59291401D01*
X88496508Y-59291404D01*
X88618430Y-59413326D01*
X88649726Y-59466072D01*
X88651915Y-59527365D01*
X88624462Y-59582209D01*
X88574083Y-59617189D01*
X88442669Y-59666204D01*
X88327454Y-59752454D01*
X88241204Y-59867668D01*
X88190909Y-60002516D01*
X88184500Y-60062130D01*
X88184500Y-61857869D01*
X88190909Y-61917483D01*
X88241204Y-62052331D01*
X88327454Y-62167546D01*
X88442669Y-62253796D01*
X88577517Y-62304091D01*
X88637127Y-62310500D01*
X90432872Y-62310499D01*
X90492483Y-62304091D01*
X90627331Y-62253796D01*
X90742546Y-62167546D01*
X90828796Y-62052331D01*
X90879091Y-61917483D01*
X90885500Y-61857873D01*
X90885499Y-60959999D01*
X93309531Y-60959999D01*
X93329364Y-61186689D01*
X93388261Y-61406497D01*
X93484432Y-61612735D01*
X93614953Y-61799140D01*
X93775859Y-61960046D01*
X93962264Y-62090567D01*
X93962265Y-62090567D01*
X93962266Y-62090568D01*
X94168504Y-62186739D01*
X94388308Y-62245635D01*
X94615000Y-62265468D01*
X94841692Y-62245635D01*
X95061496Y-62186739D01*
X95267734Y-62090568D01*
X95454139Y-61960047D01*
X95615047Y-61799139D01*
X95745568Y-61612734D01*
X95841739Y-61406496D01*
X95900635Y-61186692D01*
X95920468Y-60960000D01*
X95920468Y-60959999D01*
X100929531Y-60959999D01*
X100949364Y-61186689D01*
X101008261Y-61406497D01*
X101104432Y-61612735D01*
X101234953Y-61799140D01*
X101395859Y-61960046D01*
X101582264Y-62090567D01*
X101582265Y-62090567D01*
X101582266Y-62090568D01*
X101788504Y-62186739D01*
X102008308Y-62245635D01*
X102235000Y-62265468D01*
X102461692Y-62245635D01*
X102681496Y-62186739D01*
X102887734Y-62090568D01*
X103074139Y-61960047D01*
X103235047Y-61799139D01*
X103365568Y-61612734D01*
X103461739Y-61406496D01*
X103520635Y-61186692D01*
X103540468Y-60960000D01*
X103520635Y-60733308D01*
X103461739Y-60513504D01*
X103365568Y-60307266D01*
X103299045Y-60212261D01*
X103235046Y-60120859D01*
X103074140Y-59959953D01*
X102887735Y-59829432D01*
X102681497Y-59733261D01*
X102461689Y-59674364D01*
X102235000Y-59654531D01*
X102008310Y-59674364D01*
X101788502Y-59733261D01*
X101582264Y-59829432D01*
X101395859Y-59959953D01*
X101234953Y-60120859D01*
X101104432Y-60307264D01*
X101008261Y-60513502D01*
X100949364Y-60733310D01*
X100929531Y-60959999D01*
X95920468Y-60959999D01*
X95900635Y-60733308D01*
X95841739Y-60513504D01*
X95745568Y-60307266D01*
X95679045Y-60212261D01*
X95615046Y-60120859D01*
X95454140Y-59959953D01*
X95267735Y-59829432D01*
X95061497Y-59733261D01*
X94841689Y-59674364D01*
X94615000Y-59654531D01*
X94388310Y-59674364D01*
X94168502Y-59733261D01*
X93962264Y-59829432D01*
X93775859Y-59959953D01*
X93614953Y-60120859D01*
X93484432Y-60307264D01*
X93388261Y-60513502D01*
X93329364Y-60733310D01*
X93309531Y-60959999D01*
X90885499Y-60959999D01*
X90885499Y-60062128D01*
X90879091Y-60002517D01*
X90828796Y-59867669D01*
X90742546Y-59752454D01*
X90627331Y-59666204D01*
X90565898Y-59643291D01*
X90495916Y-59617189D01*
X90445537Y-59582209D01*
X90418084Y-59527365D01*
X90420273Y-59466072D01*
X90451566Y-59413329D01*
X90573495Y-59291401D01*
X90709035Y-59097830D01*
X90808903Y-58883663D01*
X90870063Y-58655408D01*
X90890659Y-58420000D01*
X90870063Y-58184592D01*
X90808903Y-57956337D01*
X90709035Y-57742171D01*
X90573495Y-57548599D01*
X90406401Y-57381505D01*
X90220839Y-57251573D01*
X90181975Y-57207257D01*
X90167964Y-57150000D01*
X90181975Y-57092743D01*
X90220839Y-57048426D01*
X90406401Y-56918495D01*
X90573495Y-56751401D01*
X90709035Y-56557830D01*
X90808903Y-56343663D01*
X90870063Y-56115408D01*
X90890659Y-55880000D01*
X90890659Y-55879999D01*
X93309531Y-55879999D01*
X93329364Y-56106689D01*
X93388261Y-56326497D01*
X93484432Y-56532735D01*
X93614953Y-56719140D01*
X93775859Y-56880046D01*
X93962264Y-57010567D01*
X93962265Y-57010567D01*
X93962266Y-57010568D01*
X94168504Y-57106739D01*
X94388308Y-57165635D01*
X94615000Y-57185468D01*
X94841692Y-57165635D01*
X95061496Y-57106739D01*
X95267734Y-57010568D01*
X95454139Y-56880047D01*
X95615047Y-56719139D01*
X95745568Y-56532734D01*
X95841739Y-56326496D01*
X95900635Y-56106692D01*
X95920468Y-55880000D01*
X95920468Y-55879999D01*
X100929531Y-55879999D01*
X100949364Y-56106689D01*
X101008261Y-56326497D01*
X101104432Y-56532735D01*
X101234953Y-56719140D01*
X101395859Y-56880046D01*
X101582264Y-57010567D01*
X101582265Y-57010567D01*
X101582266Y-57010568D01*
X101788504Y-57106739D01*
X102008308Y-57165635D01*
X102235000Y-57185468D01*
X102461692Y-57165635D01*
X102681496Y-57106739D01*
X102887734Y-57010568D01*
X103074139Y-56880047D01*
X103235047Y-56719139D01*
X103365568Y-56532734D01*
X103461739Y-56326496D01*
X103520635Y-56106692D01*
X103540468Y-55880000D01*
X103520635Y-55653308D01*
X103461739Y-55433504D01*
X103365568Y-55227266D01*
X103358303Y-55216891D01*
X103235046Y-55040859D01*
X103074140Y-54879953D01*
X102887735Y-54749432D01*
X102681497Y-54653261D01*
X102461689Y-54594364D01*
X102235000Y-54574531D01*
X102008310Y-54594364D01*
X101788502Y-54653261D01*
X101582264Y-54749432D01*
X101395859Y-54879953D01*
X101234953Y-55040859D01*
X101104432Y-55227264D01*
X101008261Y-55433502D01*
X100949364Y-55653310D01*
X100929531Y-55879999D01*
X95920468Y-55879999D01*
X95900635Y-55653308D01*
X95841739Y-55433504D01*
X95745568Y-55227266D01*
X95738303Y-55216891D01*
X95615046Y-55040859D01*
X95454140Y-54879953D01*
X95267735Y-54749432D01*
X95061497Y-54653261D01*
X94841689Y-54594364D01*
X94615000Y-54574531D01*
X94388310Y-54594364D01*
X94168502Y-54653261D01*
X93962264Y-54749432D01*
X93775859Y-54879953D01*
X93614953Y-55040859D01*
X93484432Y-55227264D01*
X93388261Y-55433502D01*
X93329364Y-55653310D01*
X93309531Y-55879999D01*
X90890659Y-55879999D01*
X90870063Y-55644592D01*
X90808903Y-55416337D01*
X90709035Y-55202171D01*
X90573495Y-55008599D01*
X90406401Y-54841505D01*
X90220839Y-54711573D01*
X90181974Y-54667255D01*
X90167964Y-54609999D01*
X90181975Y-54552742D01*
X90220837Y-54508428D01*
X90406401Y-54378495D01*
X90573495Y-54211401D01*
X90709035Y-54017830D01*
X90808903Y-53803663D01*
X90870063Y-53575408D01*
X90890659Y-53340000D01*
X90870063Y-53104592D01*
X90808903Y-52876337D01*
X90709035Y-52662171D01*
X90573495Y-52468599D01*
X90406401Y-52301505D01*
X90212830Y-52165965D01*
X89998663Y-52066097D01*
X89937502Y-52049709D01*
X89770407Y-52004936D01*
X89535000Y-51984340D01*
X89299592Y-52004936D01*
X89071336Y-52066097D01*
X88857170Y-52165965D01*
X88663598Y-52301505D01*
X88496505Y-52468598D01*
X88360965Y-52662170D01*
X88261097Y-52876336D01*
X88199936Y-53104592D01*
X88179340Y-53339999D01*
X88199936Y-53575407D01*
X88233321Y-53700000D01*
X88261097Y-53803663D01*
X88360965Y-54017830D01*
X88496505Y-54211401D01*
X88663599Y-54378495D01*
X88849160Y-54508426D01*
X88888024Y-54552743D01*
X88902035Y-54610000D01*
X88888024Y-54667257D01*
X88849159Y-54711575D01*
X88663595Y-54841508D01*
X88496505Y-55008598D01*
X88360965Y-55202170D01*
X88261097Y-55416336D01*
X88199936Y-55644592D01*
X88179340Y-55880000D01*
X88199936Y-56115407D01*
X88233321Y-56240000D01*
X88261097Y-56343663D01*
X88360965Y-56557830D01*
X88496505Y-56751401D01*
X88663599Y-56918495D01*
X88849160Y-57048426D01*
X88888024Y-57092743D01*
X88902035Y-57150000D01*
X88888024Y-57207257D01*
X88849158Y-57251575D01*
X88711824Y-57347738D01*
X88663595Y-57381508D01*
X88496505Y-57548598D01*
X88360965Y-57742170D01*
X88261097Y-57956336D01*
X88199936Y-58184592D01*
X88179340Y-58419999D01*
X86360500Y-58419999D01*
X86360500Y-50799999D01*
X93309531Y-50799999D01*
X93329364Y-51026689D01*
X93388261Y-51246497D01*
X93484432Y-51452735D01*
X93614953Y-51639140D01*
X93775859Y-51800046D01*
X93962264Y-51930567D01*
X93962265Y-51930567D01*
X93962266Y-51930568D01*
X94168504Y-52026739D01*
X94388308Y-52085635D01*
X94615000Y-52105468D01*
X94841692Y-52085635D01*
X95061496Y-52026739D01*
X95267734Y-51930568D01*
X95454139Y-51800047D01*
X95615047Y-51639139D01*
X95745568Y-51452734D01*
X95841739Y-51246496D01*
X95900635Y-51026692D01*
X95920468Y-50800000D01*
X95920468Y-50799999D01*
X100929531Y-50799999D01*
X100949364Y-51026689D01*
X101008261Y-51246497D01*
X101104432Y-51452735D01*
X101234953Y-51639140D01*
X101395859Y-51800046D01*
X101582264Y-51930567D01*
X101582265Y-51930567D01*
X101582266Y-51930568D01*
X101788504Y-52026739D01*
X102008308Y-52085635D01*
X102235000Y-52105468D01*
X102461692Y-52085635D01*
X102681496Y-52026739D01*
X102887734Y-51930568D01*
X103074139Y-51800047D01*
X103235047Y-51639139D01*
X103365568Y-51452734D01*
X103461739Y-51246496D01*
X103520635Y-51026692D01*
X103540468Y-50800000D01*
X103520635Y-50573308D01*
X103461739Y-50353504D01*
X103365568Y-50147266D01*
X103235047Y-49960861D01*
X103235046Y-49960859D01*
X103074140Y-49799953D01*
X102887735Y-49669432D01*
X102681497Y-49573261D01*
X102461689Y-49514364D01*
X102235000Y-49494531D01*
X102008310Y-49514364D01*
X101788502Y-49573261D01*
X101582264Y-49669432D01*
X101395859Y-49799953D01*
X101234953Y-49960859D01*
X101104432Y-50147264D01*
X101008261Y-50353502D01*
X100949364Y-50573310D01*
X100929531Y-50799999D01*
X95920468Y-50799999D01*
X95900635Y-50573308D01*
X95841739Y-50353504D01*
X95745568Y-50147266D01*
X95615047Y-49960861D01*
X95615046Y-49960859D01*
X95454140Y-49799953D01*
X95267735Y-49669432D01*
X95061497Y-49573261D01*
X94841689Y-49514364D01*
X94615000Y-49494531D01*
X94388310Y-49514364D01*
X94168502Y-49573261D01*
X93962264Y-49669432D01*
X93775859Y-49799953D01*
X93614953Y-49960859D01*
X93484432Y-50147264D01*
X93388261Y-50353502D01*
X93329364Y-50573310D01*
X93309531Y-50799999D01*
X86360500Y-50799999D01*
X86360500Y-45871182D01*
X105984500Y-45871182D01*
X106023604Y-46130615D01*
X106100937Y-46381323D01*
X106214772Y-46617704D01*
X106350766Y-46817170D01*
X106362571Y-46834485D01*
X106541015Y-47026801D01*
X106541019Y-47026805D01*
X106746143Y-47190386D01*
X106973357Y-47321568D01*
X107141550Y-47387579D01*
X107190129Y-47406645D01*
X107217584Y-47417420D01*
X107473370Y-47475802D01*
X107529408Y-47480001D01*
X107669501Y-47490500D01*
X107669506Y-47490500D01*
X107800494Y-47490500D01*
X107800499Y-47490500D01*
X107923079Y-47481313D01*
X107996630Y-47475802D01*
X108252416Y-47417420D01*
X108496643Y-47321568D01*
X108723857Y-47190386D01*
X108928981Y-47026805D01*
X109028273Y-46919792D01*
X109107428Y-46834485D01*
X109107429Y-46834482D01*
X109107433Y-46834479D01*
X109255228Y-46617704D01*
X109369063Y-46381323D01*
X109446396Y-46130615D01*
X109485500Y-45871182D01*
X130494500Y-45871182D01*
X130533604Y-46130615D01*
X130610937Y-46381323D01*
X130724772Y-46617704D01*
X130860766Y-46817170D01*
X130872571Y-46834485D01*
X131051015Y-47026801D01*
X131051019Y-47026805D01*
X131256143Y-47190386D01*
X131483357Y-47321568D01*
X131651550Y-47387579D01*
X131700129Y-47406645D01*
X131727584Y-47417420D01*
X131983370Y-47475802D01*
X132039408Y-47480001D01*
X132179501Y-47490500D01*
X132179506Y-47490500D01*
X132310494Y-47490500D01*
X132310499Y-47490500D01*
X132433079Y-47481313D01*
X132506630Y-47475802D01*
X132762416Y-47417420D01*
X132789855Y-47406651D01*
X150274500Y-47406651D01*
X150289789Y-47591164D01*
X150289789Y-47591167D01*
X150289790Y-47591169D01*
X150350428Y-47830623D01*
X150449652Y-48056831D01*
X150584755Y-48263621D01*
X150752052Y-48445355D01*
X150946980Y-48597073D01*
X151164221Y-48714638D01*
X151281035Y-48754740D01*
X151397846Y-48794842D01*
X151397848Y-48794842D01*
X151397850Y-48794843D01*
X151641494Y-48835500D01*
X151888505Y-48835500D01*
X151888506Y-48835500D01*
X152132150Y-48794843D01*
X152365779Y-48714638D01*
X152583020Y-48597073D01*
X152777948Y-48445355D01*
X152835470Y-48382869D01*
X155274500Y-48382869D01*
X155280909Y-48442484D01*
X155281980Y-48445355D01*
X155331204Y-48577331D01*
X155417454Y-48692546D01*
X155532669Y-48778796D01*
X155667517Y-48829091D01*
X155727127Y-48835500D01*
X157802872Y-48835499D01*
X157862483Y-48829091D01*
X157997331Y-48778796D01*
X158112546Y-48692546D01*
X158198796Y-48577331D01*
X158249091Y-48442483D01*
X158255500Y-48382873D01*
X158255499Y-44327128D01*
X158249091Y-44267517D01*
X158198796Y-44132669D01*
X158112546Y-44017454D01*
X157997331Y-43931204D01*
X157862483Y-43880909D01*
X157802873Y-43874500D01*
X157802869Y-43874500D01*
X155727130Y-43874500D01*
X155667515Y-43880909D01*
X155532669Y-43931204D01*
X155417454Y-44017454D01*
X155331204Y-44132668D01*
X155280909Y-44267516D01*
X155274500Y-44327130D01*
X155274500Y-48382869D01*
X152835470Y-48382869D01*
X152945245Y-48263621D01*
X153080348Y-48056831D01*
X153179572Y-47830623D01*
X153240210Y-47591169D01*
X153249770Y-47475802D01*
X153255500Y-47406651D01*
X153255500Y-45303349D01*
X153240210Y-45118835D01*
X153240210Y-45118831D01*
X153179572Y-44879377D01*
X153080348Y-44653169D01*
X152945245Y-44446379D01*
X152777948Y-44264645D01*
X152583020Y-44112927D01*
X152365779Y-43995362D01*
X152365775Y-43995360D01*
X152365774Y-43995360D01*
X152132153Y-43915157D01*
X151926913Y-43880909D01*
X151888506Y-43874500D01*
X151641494Y-43874500D01*
X151603087Y-43880909D01*
X151397846Y-43915157D01*
X151164225Y-43995360D01*
X151164221Y-43995361D01*
X151164221Y-43995362D01*
X151147894Y-44004198D01*
X150946978Y-44112928D01*
X150752051Y-44264645D01*
X150597067Y-44433003D01*
X150584755Y-44446379D01*
X150454649Y-44645521D01*
X150449651Y-44653171D01*
X150350428Y-44879375D01*
X150289789Y-45118835D01*
X150274500Y-45303349D01*
X150274500Y-47406651D01*
X132789855Y-47406651D01*
X133006643Y-47321568D01*
X133233857Y-47190386D01*
X133438981Y-47026805D01*
X133538273Y-46919792D01*
X133617428Y-46834485D01*
X133617429Y-46834482D01*
X133617433Y-46834479D01*
X133765228Y-46617704D01*
X133879063Y-46381323D01*
X133956396Y-46130615D01*
X133995500Y-45871182D01*
X133995500Y-45608818D01*
X133956396Y-45349385D01*
X133879063Y-45098677D01*
X133765228Y-44862296D01*
X133617433Y-44645521D01*
X133617432Y-44645520D01*
X133617428Y-44645514D01*
X133438984Y-44453198D01*
X133438983Y-44453197D01*
X133438981Y-44453195D01*
X133233857Y-44289614D01*
X133233856Y-44289613D01*
X133006641Y-44158431D01*
X132762418Y-44062580D01*
X132506627Y-44004197D01*
X132310499Y-43989500D01*
X132310494Y-43989500D01*
X132179506Y-43989500D01*
X132179501Y-43989500D01*
X131983372Y-44004197D01*
X131727581Y-44062580D01*
X131483358Y-44158431D01*
X131256143Y-44289613D01*
X131051015Y-44453198D01*
X130872571Y-44645514D01*
X130867351Y-44653171D01*
X130724772Y-44862296D01*
X130610937Y-45098677D01*
X130533604Y-45349385D01*
X130494500Y-45608818D01*
X130494500Y-45871182D01*
X109485500Y-45871182D01*
X109485500Y-45608818D01*
X109446396Y-45349385D01*
X109369063Y-45098677D01*
X109255228Y-44862296D01*
X109107433Y-44645521D01*
X109107432Y-44645520D01*
X109107428Y-44645514D01*
X108928984Y-44453198D01*
X108928983Y-44453197D01*
X108928981Y-44453195D01*
X108723857Y-44289614D01*
X108723856Y-44289613D01*
X108496641Y-44158431D01*
X108252418Y-44062580D01*
X107996627Y-44004197D01*
X107800499Y-43989500D01*
X107800494Y-43989500D01*
X107669506Y-43989500D01*
X107669501Y-43989500D01*
X107473372Y-44004197D01*
X107217581Y-44062580D01*
X106973358Y-44158431D01*
X106746143Y-44289613D01*
X106541015Y-44453198D01*
X106362571Y-44645514D01*
X106357351Y-44653171D01*
X106214772Y-44862296D01*
X106100937Y-45098677D01*
X106023604Y-45349385D01*
X105984500Y-45608818D01*
X105984500Y-45871182D01*
X86360500Y-45871182D01*
X86360500Y-41374065D01*
X86360765Y-41365956D01*
X86365954Y-41286781D01*
X86365979Y-41286401D01*
X86366004Y-41286046D01*
X86378709Y-41108407D01*
X86380771Y-41093099D01*
X86402955Y-40981573D01*
X86403364Y-40979606D01*
X86433788Y-40839749D01*
X86437519Y-40826305D01*
X86476243Y-40712230D01*
X86477404Y-40708967D01*
X86525068Y-40581177D01*
X86530017Y-40569713D01*
X86584481Y-40459272D01*
X86586777Y-40454851D01*
X86650855Y-40337501D01*
X86656562Y-40328075D01*
X86725639Y-40224694D01*
X86729425Y-40219344D01*
X86808850Y-40113246D01*
X86814823Y-40105878D01*
X86897161Y-40011989D01*
X86902648Y-40006131D01*
X86996131Y-39912648D01*
X87001989Y-39907161D01*
X87095878Y-39824823D01*
X87103246Y-39818850D01*
X87209344Y-39739425D01*
X87214694Y-39735639D01*
X87318075Y-39666562D01*
X87327501Y-39660855D01*
X87444851Y-39596777D01*
X87449272Y-39594481D01*
X87559713Y-39540017D01*
X87571177Y-39535068D01*
X87698967Y-39487404D01*
X87702230Y-39486243D01*
X87816305Y-39447519D01*
X87829749Y-39443788D01*
X87969606Y-39413364D01*
X87971573Y-39412955D01*
X88083099Y-39390771D01*
X88098407Y-39388709D01*
X88276193Y-39375992D01*
X88355957Y-39370764D01*
X88364065Y-39370500D01*
X161825935Y-39370500D01*
X161834042Y-39370764D01*
G37*
%TD.AperFunction*%
%TD*%
M02*
