%TF.GenerationSoftware,KiCad,Pcbnew,7.0.1*%
%TF.CreationDate,2024-01-15T22:41:26+05:30*%
%TF.ProjectId,hologlyph bot circuit,686f6c6f-676c-4797-9068-20626f742063,rev?*%
%TF.SameCoordinates,Original*%
%TF.FileFunction,Soldermask,Top*%
%TF.FilePolarity,Negative*%
%FSLAX46Y46*%
G04 Gerber Fmt 4.6, Leading zero omitted, Abs format (unit mm)*
G04 Created by KiCad (PCBNEW 7.0.1) date 2024-01-15 22:41:26*
%MOMM*%
%LPD*%
G01*
G04 APERTURE LIST*
G04 Aperture macros list*
%AMRoundRect*
0 Rectangle with rounded corners*
0 $1 Rounding radius*
0 $2 $3 $4 $5 $6 $7 $8 $9 X,Y pos of 4 corners*
0 Add a 4 corners polygon primitive as box body*
4,1,4,$2,$3,$4,$5,$6,$7,$8,$9,$2,$3,0*
0 Add four circle primitives for the rounded corners*
1,1,$1+$1,$2,$3*
1,1,$1+$1,$4,$5*
1,1,$1+$1,$6,$7*
1,1,$1+$1,$8,$9*
0 Add four rect primitives between the rounded corners*
20,1,$1+$1,$2,$3,$4,$5,0*
20,1,$1+$1,$4,$5,$6,$7,0*
20,1,$1+$1,$6,$7,$8,$9,0*
20,1,$1+$1,$8,$9,$2,$3,0*%
G04 Aperture macros list end*
%ADD10R,1.700000X1.700000*%
%ADD11O,1.700000X1.700000*%
%ADD12C,1.600000*%
%ADD13O,1.600000X1.600000*%
%ADD14R,2.000000X2.000000*%
%ADD15C,2.000000*%
%ADD16C,3.000000*%
%ADD17RoundRect,0.102000X-1.000000X-1.000000X1.000000X-1.000000X1.000000X1.000000X-1.000000X1.000000X0*%
%ADD18C,2.204000*%
%ADD19R,1.980000X3.960000*%
%ADD20O,1.980000X3.960000*%
G04 APERTURE END LIST*
D10*
%TO.C,J5*%
X157680000Y-121830000D03*
%TD*%
%TO.C,J4*%
X144780000Y-81280000D03*
D11*
X144780000Y-83820000D03*
X144780000Y-86360000D03*
%TD*%
D10*
%TO.C,D1*%
X89535000Y-60960000D03*
D11*
X89535000Y-58420000D03*
X89535000Y-55880000D03*
X89535000Y-53340000D03*
%TD*%
D10*
%TO.C,J7*%
X106680000Y-121830000D03*
%TD*%
%TO.C,3V3 GND 5V*%
X137160000Y-55880000D03*
D11*
X139700000Y-55880000D03*
X142240000Y-55880000D03*
X144780000Y-55880000D03*
X147320000Y-55880000D03*
%TD*%
D10*
%TO.C,J11*%
X137160000Y-63500000D03*
D11*
X139700000Y-63500000D03*
X142240000Y-63500000D03*
X144780000Y-63500000D03*
X147320000Y-63500000D03*
%TD*%
D12*
%TO.C,R1*%
X102235000Y-50800000D03*
D13*
X94615000Y-50800000D03*
%TD*%
D10*
%TO.C,J10*%
X151765000Y-60325000D03*
D11*
X151765000Y-57785000D03*
%TD*%
D10*
%TO.C,J2*%
X149860000Y-81280000D03*
D11*
X149860000Y-83820000D03*
X149860000Y-86360000D03*
%TD*%
D12*
%TO.C,R2*%
X102235000Y-55880000D03*
D13*
X94615000Y-55880000D03*
%TD*%
D12*
%TO.C,R6*%
X100330000Y-102870000D03*
D13*
X100330000Y-110490000D03*
%TD*%
D14*
%TO.C,BZ1*%
X97145000Y-80645000D03*
D15*
X89545000Y-80645000D03*
%TD*%
D16*
%TO.C,U1*%
X107735000Y-45740000D03*
X107735000Y-92690000D03*
X132245000Y-45740000D03*
X132245000Y-92690000D03*
D17*
X107315000Y-53700000D03*
D18*
X107315000Y-56240000D03*
X107315000Y-58780000D03*
X107315000Y-61320000D03*
X107315000Y-63860000D03*
X107315000Y-66400000D03*
X107315000Y-68940000D03*
X107315000Y-71480000D03*
X107315000Y-74020000D03*
X107315000Y-76560000D03*
X107315000Y-79100000D03*
X107315000Y-81640000D03*
X107315000Y-84180000D03*
X107315000Y-86720000D03*
X107315000Y-89260000D03*
X132715000Y-89260000D03*
X132715000Y-86720000D03*
X132715000Y-84180000D03*
X132715000Y-81640000D03*
X132715000Y-79100000D03*
X132715000Y-76560000D03*
X132715000Y-74020000D03*
X132715000Y-71480000D03*
X132715000Y-68940000D03*
X132715000Y-66400000D03*
X132715000Y-63860000D03*
X132715000Y-61320000D03*
X132715000Y-58780000D03*
X132715000Y-56240000D03*
X132715000Y-53700000D03*
%TD*%
D19*
%TO.C,J9*%
X156765000Y-46355000D03*
D20*
X151765000Y-46355000D03*
%TD*%
D12*
%TO.C,R5*%
X95250000Y-102870000D03*
D13*
X95250000Y-110490000D03*
%TD*%
D12*
%TO.C,R4*%
X90830000Y-102870000D03*
D13*
X90830000Y-110490000D03*
%TD*%
D10*
%TO.C,J8*%
X106680000Y-100330000D03*
%TD*%
%TO.C,J6*%
X157680000Y-100330000D03*
%TD*%
%TO.C,J1*%
X147320000Y-81280000D03*
D11*
X147320000Y-83820000D03*
X147320000Y-86360000D03*
%TD*%
D10*
%TO.C,J3*%
X152400000Y-81280000D03*
D11*
X152400000Y-83820000D03*
X152400000Y-86360000D03*
%TD*%
D12*
%TO.C,R3*%
X102235000Y-60960000D03*
D13*
X94615000Y-60960000D03*
%TD*%
D12*
%TO.C,R7*%
X102235000Y-89535000D03*
D13*
X102235000Y-81915000D03*
%TD*%
D10*
%TO.C,SW1*%
X154940000Y-60325000D03*
D11*
X154940000Y-57785000D03*
%TD*%
D10*
%TO.C,D2*%
X100330000Y-115595000D03*
D11*
X97790000Y-115595000D03*
X95250000Y-115595000D03*
X92710000Y-115595000D03*
%TD*%
D10*
%TO.C,J12*%
X137160000Y-59690000D03*
D11*
X139700000Y-59690000D03*
X142240000Y-59690000D03*
X144780000Y-59690000D03*
X147320000Y-59690000D03*
%TD*%
M02*
