%TF.GenerationSoftware,KiCad,Pcbnew,7.0.1*%
%TF.CreationDate,2024-01-15T22:41:26+05:30*%
%TF.ProjectId,hologlyph bot circuit,686f6c6f-676c-4797-9068-20626f742063,rev?*%
%TF.SameCoordinates,Original*%
%TF.FileFunction,Copper,L1,Top*%
%TF.FilePolarity,Positive*%
%FSLAX46Y46*%
G04 Gerber Fmt 4.6, Leading zero omitted, Abs format (unit mm)*
G04 Created by KiCad (PCBNEW 7.0.1) date 2024-01-15 22:41:26*
%MOMM*%
%LPD*%
G01*
G04 APERTURE LIST*
%TA.AperFunction,ComponentPad*%
%ADD10R,1.700000X1.700000*%
%TD*%
%TA.AperFunction,ComponentPad*%
%ADD11O,1.700000X1.700000*%
%TD*%
%TA.AperFunction,ComponentPad*%
%ADD12C,1.600000*%
%TD*%
%TA.AperFunction,ComponentPad*%
%ADD13O,1.600000X1.600000*%
%TD*%
%TA.AperFunction,ComponentPad*%
%ADD14R,2.000000X2.000000*%
%TD*%
%TA.AperFunction,ComponentPad*%
%ADD15C,2.000000*%
%TD*%
%TA.AperFunction,ComponentPad*%
%ADD16R,1.980000X3.960000*%
%TD*%
%TA.AperFunction,ComponentPad*%
%ADD17O,1.980000X3.960000*%
%TD*%
%TA.AperFunction,Conductor*%
%ADD18C,0.250000*%
%TD*%
%TA.AperFunction,Conductor*%
%ADD19C,0.500000*%
%TD*%
G04 APERTURE END LIST*
D10*
%TO.P,J5,1,Pin_1*%
%TO.N,+12V*%
X157680000Y-121830000D03*
%TD*%
%TO.P,J4,1,Pin_1*%
%TO.N,/PWM Pen*%
X144780000Y-81280000D03*
D11*
%TO.P,J4,2,Pin_2*%
%TO.N,+5V*%
X144780000Y-83820000D03*
%TO.P,J4,3,Pin_3*%
%TO.N,GND*%
X144780000Y-86360000D03*
%TD*%
D10*
%TO.P,D1,1,BK*%
%TO.N,Net-(D1-BK)*%
X89535000Y-60960000D03*
D11*
%TO.P,D1,2,A*%
%TO.N,GND*%
X89535000Y-58420000D03*
%TO.P,D1,3,GK*%
%TO.N,Net-(D1-GK)*%
X89535000Y-55880000D03*
%TO.P,D1,4,RK*%
%TO.N,Net-(D1-RK)*%
X89535000Y-53340000D03*
%TD*%
D10*
%TO.P,J7,1,Pin_1*%
%TO.N,+5V*%
X106680000Y-121830000D03*
%TD*%
%TO.P,3V3 GND 5V,1,Pin_1*%
%TO.N,+3V3*%
X137160000Y-55880000D03*
D11*
%TO.P,3V3 GND 5V,2,Pin_2*%
X139700000Y-55880000D03*
%TO.P,3V3 GND 5V,3,Pin_3*%
X142240000Y-55880000D03*
%TO.P,3V3 GND 5V,4,Pin_4*%
X144780000Y-55880000D03*
%TO.P,3V3 GND 5V,5,Pin_5*%
X147320000Y-55880000D03*
%TD*%
D10*
%TO.P,J11,1,Pin_1*%
%TO.N,+5V*%
X137160000Y-63500000D03*
D11*
%TO.P,J11,2,Pin_2*%
X139700000Y-63500000D03*
%TO.P,J11,3,Pin_3*%
X142240000Y-63500000D03*
%TO.P,J11,4,Pin_4*%
X144780000Y-63500000D03*
%TO.P,J11,5,Pin_5*%
X147320000Y-63500000D03*
%TD*%
D12*
%TO.P,R1,1*%
%TO.N,/D1 Red*%
X102235000Y-50800000D03*
D13*
%TO.P,R1,2*%
%TO.N,Net-(D1-RK)*%
X94615000Y-50800000D03*
%TD*%
D10*
%TO.P,J10,1,Pin_1*%
%TO.N,+5V*%
X151765000Y-60325000D03*
D11*
%TO.P,J10,2,Pin_2*%
%TO.N,GND*%
X151765000Y-57785000D03*
%TD*%
D10*
%TO.P,J2,1,Pin_1*%
%TO.N,/PWM Wheel Right*%
X149860000Y-81280000D03*
D11*
%TO.P,J2,2,Pin_2*%
%TO.N,+5V*%
X149860000Y-83820000D03*
%TO.P,J2,3,Pin_3*%
%TO.N,GND*%
X149860000Y-86360000D03*
%TD*%
D12*
%TO.P,R2,1*%
%TO.N,/D1 Green*%
X102235000Y-55880000D03*
D13*
%TO.P,R2,2*%
%TO.N,Net-(D1-GK)*%
X94615000Y-55880000D03*
%TD*%
D12*
%TO.P,R6,1*%
%TO.N,/D2 Blue*%
X100330000Y-102870000D03*
D13*
%TO.P,R6,2*%
%TO.N,Net-(D2-BK)*%
X100330000Y-110490000D03*
%TD*%
D14*
%TO.P,BZ1,1,-*%
%TO.N,Net-(BZ1--)*%
X97145000Y-80645000D03*
D15*
%TO.P,BZ1,2,+*%
%TO.N,GND*%
X89545000Y-80645000D03*
%TD*%
D14*
%TO.P,U1,1,3V3*%
%TO.N,+3V3*%
X107315000Y-53700000D03*
D15*
%TO.P,U1,2,GND*%
%TO.N,GND*%
X107315000Y-56240000D03*
%TO.P,U1,3,D15*%
%TO.N,unconnected-(U1-D15-Pad3)*%
X107315000Y-58780000D03*
%TO.P,U1,4,D2*%
%TO.N,unconnected-(U1-D2-Pad4)*%
X107315000Y-61320000D03*
%TO.P,U1,5,D4*%
%TO.N,/D2 Green*%
X107315000Y-63860000D03*
%TO.P,U1,6,RX2*%
%TO.N,unconnected-(U1-RX2-Pad6)*%
X107315000Y-66400000D03*
%TO.P,U1,7,TX2*%
%TO.N,unconnected-(U1-TX2-Pad7)*%
X107315000Y-68940000D03*
%TO.P,U1,8,D5*%
%TO.N,unconnected-(U1-D5-Pad8)*%
X107315000Y-71480000D03*
%TO.P,U1,9,D18*%
%TO.N,/D1 Red*%
X107315000Y-74020000D03*
%TO.P,U1,10,D19*%
%TO.N,/D1 Blue*%
X107315000Y-76560000D03*
%TO.P,U1,11,D21*%
%TO.N,/D1 Green*%
X107315000Y-79100000D03*
%TO.P,U1,12,RX0*%
%TO.N,unconnected-(U1-RX0-Pad12)*%
X107315000Y-81640000D03*
%TO.P,U1,13,TX0*%
%TO.N,unconnected-(U1-TX0-Pad13)*%
X107315000Y-84180000D03*
%TO.P,U1,14,D22*%
%TO.N,/D2 Red*%
X107315000Y-86720000D03*
%TO.P,U1,15,D23*%
%TO.N,/Buzz+*%
X107315000Y-89260000D03*
%TO.P,U1,16,EN*%
%TO.N,unconnected-(U1-EN-Pad16)*%
X132715000Y-89260000D03*
%TO.P,U1,17,VP*%
%TO.N,unconnected-(U1-VP-Pad17)*%
X132715000Y-86720000D03*
%TO.P,U1,18,VN*%
%TO.N,unconnected-(U1-VN-Pad18)*%
X132715000Y-84180000D03*
%TO.P,U1,19,D34*%
%TO.N,unconnected-(U1-D34-Pad19)*%
X132715000Y-81640000D03*
%TO.P,U1,20,D35*%
%TO.N,unconnected-(U1-D35-Pad20)*%
X132715000Y-79100000D03*
%TO.P,U1,21,D32*%
%TO.N,/D2 Blue*%
X132715000Y-76560000D03*
%TO.P,U1,22,D33*%
%TO.N,/PWM Pen*%
X132715000Y-74020000D03*
%TO.P,U1,23,D25*%
%TO.N,/PWM Wheel Left*%
X132715000Y-71480000D03*
%TO.P,U1,24,D26*%
%TO.N,/PWM Wheel Right*%
X132715000Y-68940000D03*
%TO.P,U1,25,D27*%
%TO.N,/PWM Wheel Rear*%
X132715000Y-66400000D03*
%TO.P,U1,26,D14*%
%TO.N,unconnected-(U1-D14-Pad26)*%
X132715000Y-63860000D03*
%TO.P,U1,27,D12*%
%TO.N,unconnected-(U1-D12-Pad27)*%
X132715000Y-61320000D03*
%TO.P,U1,28,D13*%
%TO.N,unconnected-(U1-D13-Pad28)*%
X132715000Y-58780000D03*
%TO.P,U1,29,GND*%
%TO.N,GND*%
X132715000Y-56240000D03*
%TO.P,U1,30,VIN*%
%TO.N,+5V*%
X132715000Y-53700000D03*
%TD*%
D16*
%TO.P,J9,1,Pin_1*%
%TO.N,GNDPWR*%
X156765000Y-46355000D03*
D17*
%TO.P,J9,2,Pin_2*%
%TO.N,Net-(J9-Pin_2)*%
X151765000Y-46355000D03*
%TD*%
D12*
%TO.P,R5,1*%
%TO.N,/D2 Green*%
X95250000Y-102870000D03*
D13*
%TO.P,R5,2*%
%TO.N,Net-(D2-GK)*%
X95250000Y-110490000D03*
%TD*%
D12*
%TO.P,R4,1*%
%TO.N,/D2 Red*%
X90830000Y-102870000D03*
D13*
%TO.P,R4,2*%
%TO.N,Net-(D2-RK)*%
X90830000Y-110490000D03*
%TD*%
D10*
%TO.P,J8,1,Pin_1*%
%TO.N,GND*%
X106680000Y-100330000D03*
%TD*%
%TO.P,J6,1,Pin_1*%
%TO.N,GNDPWR*%
X157680000Y-100330000D03*
%TD*%
%TO.P,J1,1,Pin_1*%
%TO.N,/PWM Wheel Left*%
X147320000Y-81280000D03*
D11*
%TO.P,J1,2,Pin_2*%
%TO.N,+5V*%
X147320000Y-83820000D03*
%TO.P,J1,3,Pin_3*%
%TO.N,GND*%
X147320000Y-86360000D03*
%TD*%
D10*
%TO.P,J3,1,Pin_1*%
%TO.N,/PWM Wheel Rear*%
X152400000Y-81280000D03*
D11*
%TO.P,J3,2,Pin_2*%
%TO.N,+5V*%
X152400000Y-83820000D03*
%TO.P,J3,3,Pin_3*%
%TO.N,GND*%
X152400000Y-86360000D03*
%TD*%
D12*
%TO.P,R3,1*%
%TO.N,/D1 Blue*%
X102235000Y-60960000D03*
D13*
%TO.P,R3,2*%
%TO.N,Net-(D1-BK)*%
X94615000Y-60960000D03*
%TD*%
D12*
%TO.P,R7,1*%
%TO.N,/Buzz+*%
X102235000Y-89535000D03*
D13*
%TO.P,R7,2*%
%TO.N,Net-(BZ1--)*%
X102235000Y-81915000D03*
%TD*%
D10*
%TO.P,SW1,1,A*%
%TO.N,+12V*%
X154940000Y-60325000D03*
D11*
%TO.P,SW1,2,B*%
%TO.N,Net-(J9-Pin_2)*%
X154940000Y-57785000D03*
%TD*%
D10*
%TO.P,D2,1,BK*%
%TO.N,Net-(D2-BK)*%
X100330000Y-115595000D03*
D11*
%TO.P,D2,2,A*%
%TO.N,GND*%
X97790000Y-115595000D03*
%TO.P,D2,3,GK*%
%TO.N,Net-(D2-GK)*%
X95250000Y-115595000D03*
%TO.P,D2,4,RK*%
%TO.N,Net-(D2-RK)*%
X92710000Y-115595000D03*
%TD*%
D10*
%TO.P,J12,1,Pin_1*%
%TO.N,GND*%
X137160000Y-59690000D03*
D11*
%TO.P,J12,2,Pin_2*%
X139700000Y-59690000D03*
%TO.P,J12,3,Pin_3*%
X142240000Y-59690000D03*
%TO.P,J12,4,Pin_4*%
X144780000Y-59690000D03*
%TO.P,J12,5,Pin_5*%
X147320000Y-59690000D03*
%TD*%
D18*
%TO.N,Net-(BZ1--)*%
X97145000Y-80645000D02*
X100965000Y-80645000D01*
X100965000Y-80645000D02*
X102235000Y-81915000D01*
%TO.N,Net-(D1-BK)*%
X94615000Y-60960000D02*
X89535000Y-60960000D01*
%TO.N,Net-(D1-GK)*%
X94615000Y-55880000D02*
X89535000Y-55880000D01*
%TO.N,Net-(D1-RK)*%
X92075000Y-50800000D02*
X89535000Y-53340000D01*
X94615000Y-50800000D02*
X92075000Y-50800000D01*
%TO.N,Net-(D2-BK)*%
X100330000Y-110490000D02*
X100330000Y-115595000D01*
%TO.N,Net-(D2-GK)*%
X95250000Y-110490000D02*
X95250000Y-115595000D01*
%TO.N,Net-(D2-RK)*%
X90830000Y-113715000D02*
X92710000Y-115595000D01*
X90830000Y-110490000D02*
X90830000Y-113715000D01*
%TO.N,/PWM Wheel Left*%
X147320000Y-76200000D02*
X147320000Y-81280000D01*
X132715000Y-71480000D02*
X142600000Y-71480000D01*
X142600000Y-71480000D02*
X147320000Y-76200000D01*
%TO.N,/PWM Wheel Right*%
X149860000Y-73660000D02*
X149860000Y-81280000D01*
X145140000Y-68940000D02*
X149860000Y-73660000D01*
X132715000Y-68940000D02*
X145140000Y-68940000D01*
%TO.N,/PWM Wheel Rear*%
X132715000Y-66400000D02*
X147680000Y-66400000D01*
X152400000Y-71120000D02*
X152400000Y-81280000D01*
X147680000Y-66400000D02*
X152400000Y-71120000D01*
%TO.N,/PWM Pen*%
X132715000Y-74020000D02*
X140060000Y-74020000D01*
X144780000Y-78740000D02*
X144780000Y-81280000D01*
X140060000Y-74020000D02*
X144780000Y-78740000D01*
D19*
%TO.N,+12V*%
X153580000Y-121830000D02*
X149860000Y-118110000D01*
X157680000Y-121830000D02*
X153580000Y-121830000D01*
X154940000Y-62230000D02*
X154940000Y-60325000D01*
X149860000Y-118110000D02*
X149860000Y-97790000D01*
X149860000Y-97790000D02*
X158750000Y-88900000D01*
X158750000Y-88900000D02*
X158750000Y-66040000D01*
X158750000Y-66040000D02*
X154940000Y-62230000D01*
%TO.N,Net-(J9-Pin_2)*%
X151765000Y-46355000D02*
X151765000Y-51435000D01*
X151765000Y-51435000D02*
X154940000Y-54610000D01*
X154940000Y-54610000D02*
X154940000Y-57785000D01*
D18*
%TO.N,/D1 Red*%
X104775000Y-53975000D02*
X104775000Y-73025000D01*
X105770000Y-74020000D02*
X107315000Y-74020000D01*
X104140000Y-50800000D02*
X102235000Y-50800000D01*
X104775000Y-53975000D02*
X104775000Y-51435000D01*
X104775000Y-51435000D02*
X104140000Y-50800000D01*
X104775000Y-73025000D02*
X105770000Y-74020000D01*
%TO.N,/D1 Green*%
X98425000Y-74295000D02*
X98425000Y-57785000D01*
X107315000Y-79100000D02*
X103230000Y-79100000D01*
X100330000Y-55880000D02*
X102235000Y-55880000D01*
X98425000Y-57785000D02*
X100330000Y-55880000D01*
X103230000Y-79100000D02*
X98425000Y-74295000D01*
%TO.N,/D1 Blue*%
X107315000Y-76560000D02*
X104500000Y-76560000D01*
X104500000Y-76560000D02*
X102235000Y-74295000D01*
X102235000Y-74295000D02*
X102235000Y-60960000D01*
%TO.N,/D2 Red*%
X99970000Y-86720000D02*
X107315000Y-86720000D01*
X90830000Y-102870000D02*
X90830000Y-95860000D01*
X90830000Y-95860000D02*
X99970000Y-86720000D01*
%TO.N,/D2 Blue*%
X100330000Y-102870000D02*
X100330000Y-104140000D01*
X100330000Y-104140000D02*
X102870000Y-106680000D01*
X132715000Y-76560000D02*
X134980000Y-76560000D01*
X137160000Y-78740000D02*
X137160000Y-96520000D01*
X129540000Y-104140000D02*
X137160000Y-96520000D01*
X134980000Y-76560000D02*
X137160000Y-78740000D01*
X127000000Y-106680000D02*
X129540000Y-104140000D01*
X102870000Y-106680000D02*
X127000000Y-106680000D01*
%TO.N,/Buzz+*%
X107315000Y-89260000D02*
X102510000Y-89260000D01*
X102510000Y-89260000D02*
X102235000Y-89535000D01*
D19*
%TO.N,+3V3*%
X107315000Y-53700000D02*
X124100000Y-53700000D01*
X128270000Y-49530000D02*
X134620000Y-49530000D01*
X137160000Y-52070000D02*
X137160000Y-55880000D01*
X124100000Y-53700000D02*
X128270000Y-49530000D01*
X134620000Y-49530000D02*
X137160000Y-52070000D01*
%TO.N,GNDPWR*%
X157680000Y-95050000D02*
X161290000Y-91440000D01*
X156765000Y-46355000D02*
X156765000Y-52625000D01*
X157680000Y-100330000D02*
X157680000Y-95050000D01*
X161290000Y-57150000D02*
X161290000Y-91440000D01*
X156765000Y-52625000D02*
X161290000Y-57150000D01*
%TD*%
%TA.AperFunction,Conductor*%
%TO.N,GND*%
G36*
X147417001Y-67034939D02*
G01*
X147457229Y-67061819D01*
X151738181Y-71342772D01*
X151765061Y-71383000D01*
X151774500Y-71430453D01*
X151774500Y-79805501D01*
X151757887Y-79867501D01*
X151712500Y-79912888D01*
X151650500Y-79929501D01*
X151502128Y-79929501D01*
X151472322Y-79932705D01*
X151442515Y-79935909D01*
X151307667Y-79986204D01*
X151204310Y-80063577D01*
X151156358Y-80085476D01*
X151103642Y-80085476D01*
X151055690Y-80063577D01*
X150952333Y-79986205D01*
X150952331Y-79986204D01*
X150817483Y-79935909D01*
X150757873Y-79929500D01*
X150757869Y-79929500D01*
X150609500Y-79929500D01*
X150547500Y-79912887D01*
X150502113Y-79867500D01*
X150485500Y-79805500D01*
X150485500Y-73742744D01*
X150487764Y-73722237D01*
X150485561Y-73652127D01*
X150485500Y-73648232D01*
X150485500Y-73620653D01*
X150485180Y-73618123D01*
X150484996Y-73616665D01*
X150484080Y-73605019D01*
X150482709Y-73561373D01*
X150477120Y-73542140D01*
X150473174Y-73523082D01*
X150470664Y-73503206D01*
X150454588Y-73462604D01*
X150450804Y-73451553D01*
X150442368Y-73422519D01*
X150438618Y-73409610D01*
X150428414Y-73392355D01*
X150419861Y-73374895D01*
X150417446Y-73368796D01*
X150412486Y-73356268D01*
X150386808Y-73320925D01*
X150380401Y-73311171D01*
X150358169Y-73273579D01*
X150344006Y-73259416D01*
X150331367Y-73244617D01*
X150319595Y-73228413D01*
X150285941Y-73200573D01*
X150277299Y-73192709D01*
X145640802Y-68556211D01*
X145627906Y-68540113D01*
X145576775Y-68492098D01*
X145573978Y-68489387D01*
X145554470Y-68469879D01*
X145551290Y-68467412D01*
X145542424Y-68459839D01*
X145510582Y-68429938D01*
X145493024Y-68420285D01*
X145476764Y-68409604D01*
X145460936Y-68397327D01*
X145420851Y-68379980D01*
X145410361Y-68374841D01*
X145372091Y-68353802D01*
X145352691Y-68348821D01*
X145334284Y-68342519D01*
X145315897Y-68334562D01*
X145272758Y-68327729D01*
X145261324Y-68325361D01*
X145219019Y-68314500D01*
X145198984Y-68314500D01*
X145179586Y-68312973D01*
X145172162Y-68311797D01*
X145159805Y-68309840D01*
X145159804Y-68309840D01*
X145126751Y-68312964D01*
X145116325Y-68313950D01*
X145104656Y-68314500D01*
X134160150Y-68314500D01*
X134113488Y-68305385D01*
X134073685Y-68279381D01*
X134046594Y-68240310D01*
X134039174Y-68223395D01*
X134039173Y-68223393D01*
X133903164Y-68015215D01*
X133734744Y-67832262D01*
X133718437Y-67819570D01*
X133651992Y-67767853D01*
X133616754Y-67724460D01*
X133604154Y-67670000D01*
X133616754Y-67615540D01*
X133651992Y-67572147D01*
X133676256Y-67553260D01*
X133734744Y-67507738D01*
X133903164Y-67324785D01*
X134039173Y-67116607D01*
X134041851Y-67110500D01*
X134046594Y-67099690D01*
X134073685Y-67060619D01*
X134113488Y-67034615D01*
X134160150Y-67025500D01*
X147369548Y-67025500D01*
X147417001Y-67034939D01*
G37*
%TD.AperFunction*%
%TA.AperFunction,Conductor*%
G36*
X144877001Y-69574939D02*
G01*
X144917229Y-69601819D01*
X149198181Y-73882772D01*
X149225061Y-73923000D01*
X149234500Y-73970453D01*
X149234500Y-79805501D01*
X149217887Y-79867501D01*
X149172500Y-79912888D01*
X149110500Y-79929501D01*
X148962128Y-79929501D01*
X148932322Y-79932705D01*
X148902515Y-79935909D01*
X148767667Y-79986204D01*
X148664310Y-80063577D01*
X148616358Y-80085476D01*
X148563642Y-80085476D01*
X148515690Y-80063577D01*
X148412333Y-79986205D01*
X148412331Y-79986204D01*
X148277483Y-79935909D01*
X148217873Y-79929500D01*
X148217869Y-79929500D01*
X148069500Y-79929500D01*
X148007500Y-79912887D01*
X147962113Y-79867500D01*
X147945500Y-79805500D01*
X147945500Y-76282744D01*
X147947764Y-76262237D01*
X147945561Y-76192127D01*
X147945500Y-76188232D01*
X147945500Y-76160653D01*
X147945180Y-76158123D01*
X147944996Y-76156665D01*
X147944080Y-76145019D01*
X147942709Y-76101373D01*
X147937120Y-76082140D01*
X147933174Y-76063082D01*
X147930664Y-76043206D01*
X147914588Y-76002604D01*
X147910804Y-75991553D01*
X147902368Y-75962519D01*
X147898618Y-75949610D01*
X147888414Y-75932355D01*
X147879861Y-75914895D01*
X147872486Y-75896268D01*
X147846808Y-75860925D01*
X147840401Y-75851171D01*
X147818169Y-75813579D01*
X147804006Y-75799416D01*
X147791367Y-75784617D01*
X147779595Y-75768413D01*
X147745941Y-75740573D01*
X147737299Y-75732709D01*
X143100802Y-71096211D01*
X143087906Y-71080113D01*
X143036775Y-71032098D01*
X143033978Y-71029387D01*
X143014470Y-71009879D01*
X143011290Y-71007412D01*
X143002424Y-70999839D01*
X142970582Y-70969938D01*
X142953024Y-70960285D01*
X142936764Y-70949604D01*
X142920936Y-70937327D01*
X142880851Y-70919980D01*
X142870361Y-70914841D01*
X142832091Y-70893802D01*
X142812691Y-70888821D01*
X142794284Y-70882519D01*
X142775897Y-70874562D01*
X142732758Y-70867729D01*
X142721324Y-70865361D01*
X142679019Y-70854500D01*
X142658984Y-70854500D01*
X142639586Y-70852973D01*
X142632162Y-70851797D01*
X142619805Y-70849840D01*
X142619804Y-70849840D01*
X142593040Y-70852370D01*
X142576325Y-70853950D01*
X142564656Y-70854500D01*
X134160150Y-70854500D01*
X134113488Y-70845385D01*
X134073685Y-70819381D01*
X134046594Y-70780310D01*
X134039174Y-70763395D01*
X134019695Y-70733580D01*
X133903164Y-70555215D01*
X133734744Y-70372262D01*
X133718437Y-70359570D01*
X133651992Y-70307853D01*
X133616754Y-70264460D01*
X133604154Y-70210000D01*
X133616754Y-70155540D01*
X133651992Y-70112147D01*
X133676256Y-70093260D01*
X133734744Y-70047738D01*
X133903164Y-69864785D01*
X134039173Y-69656607D01*
X134041851Y-69650500D01*
X134046594Y-69639690D01*
X134073685Y-69600619D01*
X134113488Y-69574615D01*
X134160150Y-69565500D01*
X144829548Y-69565500D01*
X144877001Y-69574939D01*
G37*
%TD.AperFunction*%
%TA.AperFunction,Conductor*%
G36*
X142337001Y-72114939D02*
G01*
X142377229Y-72141819D01*
X146658181Y-76422772D01*
X146685061Y-76463000D01*
X146694500Y-76510453D01*
X146694500Y-79805501D01*
X146677887Y-79867501D01*
X146632500Y-79912888D01*
X146570500Y-79929501D01*
X146422128Y-79929501D01*
X146392322Y-79932705D01*
X146362515Y-79935909D01*
X146227667Y-79986204D01*
X146124310Y-80063577D01*
X146076358Y-80085476D01*
X146023642Y-80085476D01*
X145975690Y-80063577D01*
X145872333Y-79986205D01*
X145872331Y-79986204D01*
X145737483Y-79935909D01*
X145677873Y-79929500D01*
X145677869Y-79929500D01*
X145529500Y-79929500D01*
X145467500Y-79912887D01*
X145422113Y-79867500D01*
X145405500Y-79805500D01*
X145405500Y-78822744D01*
X145407764Y-78802237D01*
X145405561Y-78732127D01*
X145405500Y-78728232D01*
X145405500Y-78700653D01*
X145404997Y-78696672D01*
X145404080Y-78685019D01*
X145402709Y-78641373D01*
X145397120Y-78622140D01*
X145393174Y-78603082D01*
X145390664Y-78583206D01*
X145374588Y-78542604D01*
X145370804Y-78531553D01*
X145364881Y-78511168D01*
X145358618Y-78489610D01*
X145348414Y-78472355D01*
X145339861Y-78454895D01*
X145332486Y-78436268D01*
X145306808Y-78400925D01*
X145300401Y-78391171D01*
X145278169Y-78353579D01*
X145264006Y-78339416D01*
X145251367Y-78324617D01*
X145239595Y-78308413D01*
X145205941Y-78280573D01*
X145197299Y-78272709D01*
X140560802Y-73636211D01*
X140547906Y-73620113D01*
X140496775Y-73572098D01*
X140493978Y-73569387D01*
X140474470Y-73549879D01*
X140471290Y-73547412D01*
X140462424Y-73539839D01*
X140430582Y-73509938D01*
X140413024Y-73500285D01*
X140396764Y-73489604D01*
X140380936Y-73477327D01*
X140340851Y-73459980D01*
X140330361Y-73454841D01*
X140292091Y-73433802D01*
X140272691Y-73428821D01*
X140254284Y-73422519D01*
X140235897Y-73414562D01*
X140192758Y-73407729D01*
X140181324Y-73405361D01*
X140139019Y-73394500D01*
X140118984Y-73394500D01*
X140099586Y-73392973D01*
X140092162Y-73391797D01*
X140079805Y-73389840D01*
X140079804Y-73389840D01*
X140053040Y-73392370D01*
X140036325Y-73393950D01*
X140024656Y-73394500D01*
X134160150Y-73394500D01*
X134113488Y-73385385D01*
X134073685Y-73359381D01*
X134046594Y-73320310D01*
X134039174Y-73303395D01*
X134020878Y-73275391D01*
X133903164Y-73095215D01*
X133734744Y-72912262D01*
X133718437Y-72899570D01*
X133651992Y-72847853D01*
X133616754Y-72804460D01*
X133604154Y-72750000D01*
X133616754Y-72695540D01*
X133651992Y-72652147D01*
X133676256Y-72633260D01*
X133734744Y-72587738D01*
X133903164Y-72404785D01*
X134039173Y-72196607D01*
X134041851Y-72190500D01*
X134046594Y-72179690D01*
X134073685Y-72140619D01*
X134113488Y-72114615D01*
X134160150Y-72105500D01*
X142289548Y-72105500D01*
X142337001Y-72114939D01*
G37*
%TD.AperFunction*%
%TA.AperFunction,Conductor*%
G36*
X168847500Y-40147113D02*
G01*
X168892887Y-40192500D01*
X168909500Y-40254500D01*
X168909500Y-130005500D01*
X168892887Y-130067500D01*
X168847500Y-130112887D01*
X168785500Y-130129500D01*
X83034500Y-130129500D01*
X82972500Y-130112887D01*
X82927113Y-130067500D01*
X82910500Y-130005500D01*
X82910500Y-122727869D01*
X105329500Y-122727869D01*
X105335909Y-122787483D01*
X105386204Y-122922331D01*
X105472454Y-123037546D01*
X105587669Y-123123796D01*
X105722517Y-123174091D01*
X105782127Y-123180500D01*
X107577872Y-123180499D01*
X107637483Y-123174091D01*
X107772331Y-123123796D01*
X107887546Y-123037546D01*
X107973796Y-122922331D01*
X108024091Y-122787483D01*
X108030500Y-122727873D01*
X108030499Y-120932128D01*
X108024091Y-120872517D01*
X107973796Y-120737669D01*
X107887546Y-120622454D01*
X107772331Y-120536204D01*
X107637483Y-120485909D01*
X107577873Y-120479500D01*
X107577869Y-120479500D01*
X105782130Y-120479500D01*
X105722515Y-120485909D01*
X105587669Y-120536204D01*
X105472454Y-120622454D01*
X105386204Y-120737668D01*
X105335909Y-120872516D01*
X105329500Y-120932130D01*
X105329500Y-122727869D01*
X82910500Y-122727869D01*
X82910500Y-118088023D01*
X149104711Y-118088023D01*
X149109028Y-118137369D01*
X149109500Y-118148176D01*
X149109500Y-118153708D01*
X149113098Y-118184496D01*
X149113464Y-118188081D01*
X149120110Y-118264041D01*
X149124329Y-118283071D01*
X149124758Y-118284251D01*
X149124759Y-118284255D01*
X149150413Y-118354742D01*
X149151582Y-118358107D01*
X149175580Y-118430524D01*
X149184075Y-118448072D01*
X149225979Y-118511784D01*
X149227889Y-118514782D01*
X149267288Y-118578656D01*
X149267952Y-118579732D01*
X149280253Y-118594830D01*
X149281168Y-118595693D01*
X149281170Y-118595696D01*
X149335709Y-118647151D01*
X149338296Y-118649664D01*
X153004267Y-122315634D01*
X153016048Y-122329266D01*
X153030390Y-122348530D01*
X153068355Y-122380386D01*
X153076317Y-122387684D01*
X153080224Y-122391591D01*
X153104537Y-122410815D01*
X153107337Y-122413096D01*
X153165754Y-122462115D01*
X153182165Y-122472569D01*
X153183319Y-122473107D01*
X153183323Y-122473110D01*
X153251328Y-122504821D01*
X153254451Y-122506333D01*
X153321567Y-122540040D01*
X153322704Y-122540611D01*
X153341084Y-122546998D01*
X153342321Y-122547253D01*
X153342327Y-122547256D01*
X153415862Y-122562439D01*
X153419209Y-122563181D01*
X153492279Y-122580500D01*
X153492281Y-122580500D01*
X153493505Y-122580790D01*
X153512876Y-122582769D01*
X153514140Y-122582732D01*
X153514144Y-122582733D01*
X153589110Y-122580552D01*
X153592716Y-122580500D01*
X156205501Y-122580500D01*
X156267501Y-122597113D01*
X156312888Y-122642500D01*
X156329501Y-122704500D01*
X156329501Y-122727872D01*
X156335909Y-122787483D01*
X156386204Y-122922331D01*
X156472454Y-123037546D01*
X156587669Y-123123796D01*
X156722517Y-123174091D01*
X156782127Y-123180500D01*
X158577872Y-123180499D01*
X158637483Y-123174091D01*
X158772331Y-123123796D01*
X158887546Y-123037546D01*
X158973796Y-122922331D01*
X159024091Y-122787483D01*
X159030500Y-122727873D01*
X159030499Y-120932128D01*
X159024091Y-120872517D01*
X158973796Y-120737669D01*
X158887546Y-120622454D01*
X158772331Y-120536204D01*
X158637483Y-120485909D01*
X158577873Y-120479500D01*
X158577869Y-120479500D01*
X156782130Y-120479500D01*
X156722515Y-120485909D01*
X156587669Y-120536204D01*
X156472454Y-120622454D01*
X156386204Y-120737668D01*
X156335909Y-120872516D01*
X156329500Y-120932131D01*
X156329500Y-120955500D01*
X156312887Y-121017500D01*
X156267500Y-121062887D01*
X156205500Y-121079500D01*
X153942229Y-121079500D01*
X153894776Y-121070061D01*
X153854548Y-121043181D01*
X150646819Y-117835451D01*
X150619939Y-117795223D01*
X150610500Y-117747770D01*
X150610500Y-98152230D01*
X150619939Y-98104777D01*
X150646819Y-98064549D01*
X152070041Y-96641327D01*
X159235638Y-89475727D01*
X159249256Y-89463957D01*
X159268530Y-89449610D01*
X159300384Y-89411647D01*
X159307671Y-89403694D01*
X159311591Y-89399776D01*
X159330820Y-89375454D01*
X159333077Y-89372685D01*
X159381302Y-89315214D01*
X159381303Y-89315211D01*
X159382115Y-89314244D01*
X159392573Y-89297828D01*
X159393107Y-89296680D01*
X159393111Y-89296677D01*
X159424845Y-89228621D01*
X159426371Y-89225470D01*
X159460040Y-89158433D01*
X159460040Y-89158431D01*
X159460609Y-89157299D01*
X159467002Y-89138906D01*
X159482431Y-89064184D01*
X159483212Y-89060660D01*
X159500791Y-88986493D01*
X159502770Y-88967120D01*
X159502733Y-88965858D01*
X159502734Y-88965855D01*
X159500552Y-88890868D01*
X159500500Y-88887262D01*
X159500500Y-66103706D01*
X159501809Y-66085736D01*
X159502338Y-66082118D01*
X159505289Y-66061977D01*
X159500972Y-66012631D01*
X159500500Y-66001824D01*
X159500500Y-65996289D01*
X159496903Y-65965521D01*
X159496536Y-65961929D01*
X159493516Y-65927412D01*
X159489999Y-65887203D01*
X159489998Y-65887201D01*
X159489889Y-65885949D01*
X159485672Y-65866930D01*
X159466335Y-65813802D01*
X159459591Y-65795273D01*
X159458408Y-65791868D01*
X159452653Y-65774500D01*
X159434814Y-65720666D01*
X159434812Y-65720663D01*
X159434415Y-65719464D01*
X159425929Y-65701936D01*
X159425237Y-65700884D01*
X159425237Y-65700883D01*
X159384001Y-65638188D01*
X159382086Y-65635181D01*
X159342048Y-65570269D01*
X159329748Y-65555170D01*
X159274272Y-65502831D01*
X159271685Y-65500318D01*
X155726819Y-61955451D01*
X155699939Y-61915223D01*
X155690500Y-61867770D01*
X155690500Y-61799499D01*
X155707113Y-61737499D01*
X155752500Y-61692112D01*
X155814500Y-61675499D01*
X155837870Y-61675499D01*
X155837872Y-61675499D01*
X155897483Y-61669091D01*
X156032331Y-61618796D01*
X156147546Y-61532546D01*
X156233796Y-61417331D01*
X156284091Y-61282483D01*
X156290500Y-61222873D01*
X156290499Y-59427128D01*
X156284091Y-59367517D01*
X156233796Y-59232669D01*
X156147546Y-59117454D01*
X156032331Y-59031204D01*
X155962160Y-59005032D01*
X155900916Y-58982189D01*
X155850537Y-58947209D01*
X155823084Y-58892365D01*
X155825273Y-58831072D01*
X155856566Y-58778329D01*
X155978495Y-58656401D01*
X156114035Y-58462830D01*
X156213903Y-58248663D01*
X156275063Y-58020408D01*
X156295659Y-57785000D01*
X156290498Y-57726016D01*
X156275063Y-57549592D01*
X156245839Y-57440525D01*
X156213903Y-57321337D01*
X156114035Y-57107171D01*
X155978495Y-56913599D01*
X155811401Y-56746505D01*
X155743374Y-56698872D01*
X155704511Y-56654556D01*
X155690500Y-56597299D01*
X155690500Y-54673706D01*
X155691809Y-54655736D01*
X155692338Y-54652118D01*
X155695289Y-54631977D01*
X155690972Y-54582631D01*
X155690500Y-54571824D01*
X155690500Y-54566289D01*
X155686903Y-54535521D01*
X155686536Y-54531929D01*
X155679889Y-54455949D01*
X155675672Y-54436930D01*
X155675057Y-54435241D01*
X155649591Y-54365273D01*
X155648408Y-54361868D01*
X155624417Y-54289468D01*
X155615929Y-54271936D01*
X155615237Y-54270884D01*
X155615237Y-54270883D01*
X155573999Y-54208184D01*
X155572087Y-54205181D01*
X155532050Y-54140270D01*
X155519750Y-54125172D01*
X155464290Y-54072848D01*
X155461703Y-54070335D01*
X152551819Y-51160451D01*
X152524939Y-51120223D01*
X152515500Y-51072770D01*
X152515500Y-48707501D01*
X152532976Y-48644029D01*
X152575093Y-48603615D01*
X152574912Y-48603383D01*
X152577156Y-48601635D01*
X152580479Y-48598448D01*
X152583020Y-48597073D01*
X152777948Y-48445355D01*
X152835470Y-48382869D01*
X155274500Y-48382869D01*
X155280909Y-48442484D01*
X155281980Y-48445355D01*
X155331204Y-48577331D01*
X155417454Y-48692546D01*
X155532669Y-48778796D01*
X155667517Y-48829091D01*
X155727127Y-48835500D01*
X155890500Y-48835500D01*
X155952500Y-48852113D01*
X155997887Y-48897500D01*
X156014500Y-48959500D01*
X156014500Y-52561294D01*
X156013191Y-52579264D01*
X156009711Y-52603023D01*
X156014028Y-52652369D01*
X156014500Y-52663176D01*
X156014500Y-52668708D01*
X156018098Y-52699496D01*
X156018464Y-52703081D01*
X156025110Y-52779041D01*
X156029329Y-52798071D01*
X156029758Y-52799251D01*
X156029759Y-52799255D01*
X156055413Y-52869742D01*
X156056582Y-52873107D01*
X156080580Y-52945524D01*
X156089075Y-52963072D01*
X156130979Y-53026784D01*
X156132889Y-53029782D01*
X156172288Y-53093656D01*
X156172952Y-53094732D01*
X156185253Y-53109830D01*
X156186168Y-53110693D01*
X156186170Y-53110696D01*
X156240709Y-53162151D01*
X156243296Y-53164664D01*
X158390211Y-55311579D01*
X160503181Y-57424548D01*
X160530061Y-57464776D01*
X160539500Y-57512229D01*
X160539500Y-91077771D01*
X160530061Y-91125224D01*
X160503181Y-91165452D01*
X157194358Y-94474272D01*
X157180727Y-94486053D01*
X157161467Y-94500392D01*
X157129633Y-94538329D01*
X157122341Y-94546289D01*
X157118408Y-94550222D01*
X157099176Y-94574545D01*
X157096902Y-94577337D01*
X157047894Y-94635744D01*
X157037418Y-94652187D01*
X157005192Y-94721294D01*
X157003622Y-94724536D01*
X156969393Y-94792692D01*
X156962996Y-94811098D01*
X156947573Y-94885788D01*
X156946793Y-94889305D01*
X156929208Y-94963505D01*
X156927229Y-94982878D01*
X156929448Y-95059131D01*
X156929500Y-95062737D01*
X156929500Y-98855501D01*
X156912887Y-98917501D01*
X156867500Y-98962888D01*
X156805500Y-98979501D01*
X156782128Y-98979501D01*
X156752322Y-98982705D01*
X156722515Y-98985909D01*
X156587669Y-99036204D01*
X156472454Y-99122454D01*
X156386204Y-99237668D01*
X156335909Y-99372516D01*
X156329500Y-99432130D01*
X156329500Y-101227869D01*
X156335897Y-101287375D01*
X156335909Y-101287483D01*
X156386204Y-101422331D01*
X156472454Y-101537546D01*
X156587669Y-101623796D01*
X156722517Y-101674091D01*
X156782127Y-101680500D01*
X158577872Y-101680499D01*
X158637483Y-101674091D01*
X158772331Y-101623796D01*
X158887546Y-101537546D01*
X158973796Y-101422331D01*
X159024091Y-101287483D01*
X159030500Y-101227873D01*
X159030499Y-99432128D01*
X159024091Y-99372517D01*
X158973796Y-99237669D01*
X158887546Y-99122454D01*
X158772331Y-99036204D01*
X158637483Y-98985909D01*
X158577873Y-98979500D01*
X158577869Y-98979500D01*
X158554500Y-98979500D01*
X158492500Y-98962887D01*
X158447113Y-98917500D01*
X158430500Y-98855500D01*
X158430500Y-95412230D01*
X158439939Y-95364777D01*
X158466819Y-95324549D01*
X159290978Y-94500390D01*
X161775642Y-92015724D01*
X161789260Y-92003954D01*
X161808530Y-91989610D01*
X161840376Y-91951656D01*
X161847662Y-91943704D01*
X161851591Y-91939777D01*
X161870833Y-91915439D01*
X161873090Y-91912670D01*
X161887853Y-91895075D01*
X161921302Y-91855214D01*
X161921303Y-91855211D01*
X161922115Y-91854244D01*
X161932573Y-91837827D01*
X161933106Y-91836682D01*
X161933111Y-91836677D01*
X161964833Y-91768646D01*
X161966362Y-91765488D01*
X162000040Y-91698433D01*
X162000040Y-91698432D01*
X162000612Y-91697294D01*
X162007000Y-91678914D01*
X162007255Y-91677675D01*
X162007257Y-91677673D01*
X162022447Y-91604103D01*
X162023186Y-91600770D01*
X162040500Y-91527721D01*
X162040500Y-91527717D01*
X162040791Y-91526489D01*
X162042770Y-91507121D01*
X162042733Y-91505859D01*
X162042734Y-91505856D01*
X162040552Y-91430869D01*
X162040500Y-91427263D01*
X162040500Y-57213706D01*
X162041809Y-57195736D01*
X162042338Y-57192118D01*
X162045289Y-57171977D01*
X162040971Y-57122633D01*
X162040500Y-57111827D01*
X162040500Y-57106291D01*
X162038952Y-57093048D01*
X162036897Y-57075471D01*
X162036534Y-57071915D01*
X162029888Y-56995942D01*
X162025674Y-56976935D01*
X162018189Y-56956369D01*
X161999571Y-56905217D01*
X161998424Y-56901917D01*
X161974814Y-56830665D01*
X161974812Y-56830662D01*
X161974415Y-56829463D01*
X161965929Y-56811936D01*
X161965237Y-56810884D01*
X161965237Y-56810883D01*
X161923994Y-56748176D01*
X161922099Y-56745201D01*
X161882711Y-56681344D01*
X161882047Y-56680267D01*
X161869748Y-56665170D01*
X161814272Y-56612831D01*
X161811685Y-56610318D01*
X157551819Y-52350451D01*
X157524939Y-52310223D01*
X157515500Y-52262770D01*
X157515500Y-48959499D01*
X157532113Y-48897499D01*
X157577500Y-48852112D01*
X157639500Y-48835499D01*
X157802870Y-48835499D01*
X157802872Y-48835499D01*
X157862483Y-48829091D01*
X157997331Y-48778796D01*
X158112546Y-48692546D01*
X158198796Y-48577331D01*
X158249091Y-48442483D01*
X158255500Y-48382873D01*
X158255499Y-44327128D01*
X158249091Y-44267517D01*
X158198796Y-44132669D01*
X158112546Y-44017454D01*
X157997331Y-43931204D01*
X157862483Y-43880909D01*
X157802873Y-43874500D01*
X157802869Y-43874500D01*
X155727130Y-43874500D01*
X155667515Y-43880909D01*
X155532669Y-43931204D01*
X155417454Y-44017454D01*
X155331204Y-44132668D01*
X155280909Y-44267516D01*
X155274500Y-44327130D01*
X155274500Y-48382869D01*
X152835470Y-48382869D01*
X152945245Y-48263621D01*
X153080348Y-48056831D01*
X153179572Y-47830623D01*
X153240210Y-47591169D01*
X153249770Y-47475802D01*
X153255500Y-47406651D01*
X153255500Y-45303349D01*
X153240210Y-45118835D01*
X153240210Y-45118831D01*
X153179572Y-44879377D01*
X153080348Y-44653169D01*
X152945245Y-44446379D01*
X152777948Y-44264645D01*
X152583020Y-44112927D01*
X152365779Y-43995362D01*
X152365775Y-43995360D01*
X152365774Y-43995360D01*
X152132153Y-43915157D01*
X151926913Y-43880909D01*
X151888506Y-43874500D01*
X151641494Y-43874500D01*
X151603087Y-43880909D01*
X151397846Y-43915157D01*
X151164225Y-43995360D01*
X151164221Y-43995361D01*
X151164221Y-43995362D01*
X151147894Y-44004198D01*
X150946978Y-44112928D01*
X150752051Y-44264645D01*
X150597067Y-44433003D01*
X150584755Y-44446379D01*
X150454649Y-44645521D01*
X150449651Y-44653171D01*
X150350428Y-44879375D01*
X150289789Y-45118835D01*
X150274500Y-45303349D01*
X150274500Y-47406651D01*
X150289789Y-47591164D01*
X150289789Y-47591167D01*
X150289790Y-47591169D01*
X150350428Y-47830623D01*
X150449652Y-48056831D01*
X150584755Y-48263621D01*
X150752052Y-48445355D01*
X150946980Y-48597073D01*
X150949521Y-48598448D01*
X150952843Y-48601635D01*
X150955088Y-48603383D01*
X150954906Y-48603615D01*
X150997024Y-48644029D01*
X151014500Y-48707501D01*
X151014500Y-51371294D01*
X151013191Y-51389264D01*
X151009711Y-51413023D01*
X151014028Y-51462369D01*
X151014500Y-51473176D01*
X151014500Y-51478708D01*
X151018098Y-51509496D01*
X151018464Y-51513081D01*
X151024695Y-51584304D01*
X151025110Y-51589041D01*
X151029329Y-51608071D01*
X151029758Y-51609251D01*
X151029759Y-51609255D01*
X151055413Y-51679742D01*
X151056582Y-51683107D01*
X151080580Y-51755524D01*
X151089075Y-51773072D01*
X151130979Y-51836784D01*
X151132889Y-51839782D01*
X151172288Y-51903656D01*
X151172952Y-51904732D01*
X151185253Y-51919830D01*
X151186168Y-51920693D01*
X151186170Y-51920696D01*
X151196633Y-51930567D01*
X151240708Y-51972150D01*
X151243295Y-51974663D01*
X154153181Y-54884549D01*
X154180061Y-54924777D01*
X154189500Y-54972230D01*
X154189500Y-56597299D01*
X154175489Y-56654556D01*
X154136623Y-56698874D01*
X154068598Y-56746505D01*
X153901506Y-56913597D01*
X153765965Y-57107170D01*
X153666097Y-57321336D01*
X153604936Y-57549592D01*
X153584340Y-57784999D01*
X153604936Y-58020407D01*
X153649709Y-58187501D01*
X153666097Y-58248663D01*
X153765965Y-58462830D01*
X153901505Y-58656401D01*
X153901508Y-58656404D01*
X154023430Y-58778326D01*
X154054726Y-58831072D01*
X154056915Y-58892365D01*
X154029462Y-58947209D01*
X153979083Y-58982189D01*
X153847669Y-59031204D01*
X153732454Y-59117454D01*
X153646204Y-59232668D01*
X153595909Y-59367515D01*
X153595909Y-59367517D01*
X153591005Y-59413134D01*
X153589500Y-59427130D01*
X153589500Y-61222869D01*
X153595909Y-61282484D01*
X153609902Y-61320000D01*
X153646204Y-61417331D01*
X153732454Y-61532546D01*
X153847669Y-61618796D01*
X153982517Y-61669091D01*
X154042127Y-61675500D01*
X154065500Y-61675500D01*
X154127500Y-61692113D01*
X154172887Y-61737500D01*
X154189500Y-61799500D01*
X154189500Y-62166294D01*
X154188191Y-62184264D01*
X154184711Y-62208023D01*
X154189028Y-62257369D01*
X154189500Y-62268176D01*
X154189500Y-62273708D01*
X154193098Y-62304496D01*
X154193464Y-62308081D01*
X154200110Y-62384041D01*
X154204329Y-62403071D01*
X154204758Y-62404251D01*
X154204759Y-62404255D01*
X154230413Y-62474742D01*
X154231582Y-62478107D01*
X154255580Y-62550524D01*
X154264075Y-62568072D01*
X154305979Y-62631784D01*
X154307889Y-62634782D01*
X154340625Y-62687853D01*
X154347952Y-62699732D01*
X154360253Y-62714830D01*
X154361168Y-62715693D01*
X154361170Y-62715696D01*
X154399927Y-62752261D01*
X154415709Y-62767151D01*
X154418296Y-62769664D01*
X157963181Y-66314548D01*
X157990061Y-66354776D01*
X157999500Y-66402229D01*
X157999500Y-88537771D01*
X157990061Y-88585224D01*
X157963181Y-88625452D01*
X149374358Y-97214272D01*
X149360727Y-97226053D01*
X149341467Y-97240392D01*
X149309633Y-97278329D01*
X149302341Y-97286289D01*
X149298408Y-97290222D01*
X149279176Y-97314545D01*
X149276902Y-97317337D01*
X149227894Y-97375744D01*
X149217418Y-97392187D01*
X149185192Y-97461294D01*
X149183622Y-97464536D01*
X149149393Y-97532692D01*
X149142996Y-97551098D01*
X149127573Y-97625788D01*
X149126793Y-97629305D01*
X149109208Y-97703505D01*
X149107229Y-97722878D01*
X149109448Y-97799131D01*
X149109500Y-97802737D01*
X149109500Y-118046294D01*
X149108191Y-118064264D01*
X149104711Y-118088023D01*
X82910500Y-118088023D01*
X82910500Y-110489999D01*
X89524531Y-110489999D01*
X89544364Y-110716689D01*
X89603261Y-110936497D01*
X89699432Y-111142735D01*
X89829953Y-111329140D01*
X89990859Y-111490046D01*
X90151623Y-111602613D01*
X90190489Y-111646931D01*
X90204500Y-111704188D01*
X90204500Y-113632256D01*
X90202235Y-113652762D01*
X90204439Y-113722873D01*
X90204500Y-113726768D01*
X90204500Y-113754349D01*
X90205003Y-113758334D01*
X90205918Y-113769967D01*
X90207290Y-113813626D01*
X90212879Y-113832860D01*
X90216825Y-113851916D01*
X90219335Y-113871792D01*
X90235414Y-113912404D01*
X90239197Y-113923451D01*
X90251382Y-113965391D01*
X90261580Y-113982635D01*
X90270136Y-114000100D01*
X90277514Y-114018732D01*
X90277515Y-114018733D01*
X90303180Y-114054059D01*
X90309593Y-114063822D01*
X90331826Y-114101416D01*
X90331829Y-114101419D01*
X90331830Y-114101420D01*
X90345995Y-114115585D01*
X90358627Y-114130375D01*
X90370406Y-114146587D01*
X90404058Y-114174426D01*
X90412699Y-114182289D01*
X91369762Y-115139352D01*
X91401856Y-115194939D01*
X91401856Y-115259126D01*
X91374936Y-115359593D01*
X91354340Y-115595000D01*
X91374936Y-115830407D01*
X91419709Y-115997501D01*
X91436097Y-116058663D01*
X91535965Y-116272830D01*
X91671505Y-116466401D01*
X91838599Y-116633495D01*
X92032170Y-116769035D01*
X92246337Y-116868903D01*
X92474592Y-116930063D01*
X92710000Y-116950659D01*
X92945408Y-116930063D01*
X93173663Y-116868903D01*
X93387830Y-116769035D01*
X93581401Y-116633495D01*
X93748495Y-116466401D01*
X93878426Y-116280839D01*
X93922743Y-116241975D01*
X93980000Y-116227964D01*
X94037257Y-116241975D01*
X94081573Y-116280839D01*
X94211505Y-116466401D01*
X94378599Y-116633495D01*
X94572170Y-116769035D01*
X94786337Y-116868903D01*
X95014592Y-116930063D01*
X95250000Y-116950659D01*
X95485408Y-116930063D01*
X95713663Y-116868903D01*
X95927830Y-116769035D01*
X96121401Y-116633495D01*
X96288495Y-116466401D01*
X96418732Y-116280402D01*
X96463048Y-116241539D01*
X96520305Y-116227528D01*
X96577562Y-116241539D01*
X96621880Y-116280404D01*
X96751893Y-116466081D01*
X96918918Y-116633106D01*
X97112423Y-116768600D01*
X97326507Y-116868430D01*
X97539999Y-116925635D01*
X97540000Y-116925636D01*
X97540000Y-116925635D01*
X98040000Y-116925635D01*
X98253492Y-116868430D01*
X98467576Y-116768600D01*
X98661077Y-116633109D01*
X98783133Y-116511053D01*
X98835880Y-116479757D01*
X98897173Y-116477568D01*
X98952018Y-116505021D01*
X98986996Y-116555399D01*
X99036204Y-116687331D01*
X99122454Y-116802546D01*
X99237669Y-116888796D01*
X99372517Y-116939091D01*
X99432127Y-116945500D01*
X101227872Y-116945499D01*
X101287483Y-116939091D01*
X101422331Y-116888796D01*
X101537546Y-116802546D01*
X101623796Y-116687331D01*
X101674091Y-116552483D01*
X101680500Y-116492873D01*
X101680499Y-114697128D01*
X101674091Y-114637517D01*
X101623796Y-114502669D01*
X101537546Y-114387454D01*
X101422331Y-114301204D01*
X101287483Y-114250909D01*
X101227873Y-114244500D01*
X101227869Y-114244500D01*
X101079500Y-114244500D01*
X101017500Y-114227887D01*
X100972113Y-114182500D01*
X100955500Y-114120500D01*
X100955500Y-111704188D01*
X100969511Y-111646931D01*
X101008377Y-111602613D01*
X101169140Y-111490046D01*
X101330046Y-111329140D01*
X101460567Y-111142735D01*
X101460568Y-111142734D01*
X101556739Y-110936496D01*
X101615635Y-110716692D01*
X101635468Y-110490000D01*
X101615635Y-110263308D01*
X101556739Y-110043504D01*
X101460568Y-109837266D01*
X101330047Y-109650861D01*
X101330046Y-109650859D01*
X101169140Y-109489953D01*
X100982735Y-109359432D01*
X100776497Y-109263261D01*
X100556689Y-109204364D01*
X100330000Y-109184531D01*
X100103310Y-109204364D01*
X99883502Y-109263261D01*
X99677264Y-109359432D01*
X99490859Y-109489953D01*
X99329953Y-109650859D01*
X99199432Y-109837264D01*
X99103261Y-110043502D01*
X99044364Y-110263310D01*
X99024531Y-110489999D01*
X99044364Y-110716689D01*
X99103261Y-110936497D01*
X99199432Y-111142735D01*
X99329953Y-111329140D01*
X99490859Y-111490046D01*
X99651623Y-111602613D01*
X99690489Y-111646931D01*
X99704500Y-111704188D01*
X99704500Y-114120501D01*
X99687887Y-114182501D01*
X99642500Y-114227888D01*
X99580500Y-114244501D01*
X99432128Y-114244501D01*
X99402322Y-114247704D01*
X99372515Y-114250909D01*
X99237669Y-114301204D01*
X99122454Y-114387454D01*
X99036204Y-114502669D01*
X98986997Y-114634599D01*
X98952018Y-114684978D01*
X98897173Y-114712431D01*
X98835880Y-114710242D01*
X98783134Y-114678946D01*
X98661081Y-114556893D01*
X98467576Y-114421399D01*
X98253492Y-114321569D01*
X98040000Y-114264364D01*
X98040000Y-116925635D01*
X97540000Y-116925635D01*
X97540000Y-114264364D01*
X97539999Y-114264364D01*
X97326507Y-114321569D01*
X97112421Y-114421400D01*
X96918921Y-114556890D01*
X96751893Y-114723918D01*
X96621880Y-114909596D01*
X96577562Y-114948461D01*
X96520305Y-114962472D01*
X96463048Y-114948461D01*
X96418730Y-114909595D01*
X96288494Y-114723598D01*
X96121404Y-114556508D01*
X96121401Y-114556505D01*
X95928374Y-114421346D01*
X95889511Y-114377030D01*
X95875500Y-114319773D01*
X95875500Y-111704188D01*
X95889511Y-111646931D01*
X95928377Y-111602613D01*
X96089140Y-111490046D01*
X96250046Y-111329140D01*
X96380567Y-111142735D01*
X96380568Y-111142734D01*
X96476739Y-110936496D01*
X96535635Y-110716692D01*
X96555468Y-110490000D01*
X96535635Y-110263308D01*
X96476739Y-110043504D01*
X96380568Y-109837266D01*
X96250047Y-109650861D01*
X96250046Y-109650859D01*
X96089140Y-109489953D01*
X95902735Y-109359432D01*
X95696497Y-109263261D01*
X95476689Y-109204364D01*
X95250000Y-109184531D01*
X95023310Y-109204364D01*
X94803502Y-109263261D01*
X94597264Y-109359432D01*
X94410859Y-109489953D01*
X94249953Y-109650859D01*
X94119432Y-109837264D01*
X94023261Y-110043502D01*
X93964364Y-110263310D01*
X93944531Y-110489999D01*
X93964364Y-110716689D01*
X94023261Y-110936497D01*
X94119432Y-111142735D01*
X94249953Y-111329140D01*
X94410859Y-111490046D01*
X94571623Y-111602613D01*
X94610489Y-111646931D01*
X94624500Y-111704188D01*
X94624500Y-114319774D01*
X94610489Y-114377031D01*
X94571623Y-114421348D01*
X94571550Y-114421400D01*
X94378598Y-114556505D01*
X94211505Y-114723598D01*
X94081575Y-114909159D01*
X94037257Y-114948025D01*
X93980000Y-114962036D01*
X93922743Y-114948025D01*
X93878425Y-114909159D01*
X93748494Y-114723598D01*
X93581404Y-114556508D01*
X93581403Y-114556507D01*
X93581401Y-114556505D01*
X93387830Y-114420965D01*
X93173663Y-114321097D01*
X93112501Y-114304709D01*
X92945407Y-114259936D01*
X92710000Y-114239340D01*
X92474591Y-114259936D01*
X92374125Y-114286855D01*
X92309939Y-114286855D01*
X92254352Y-114254761D01*
X91491819Y-113492228D01*
X91464939Y-113452000D01*
X91455500Y-113404547D01*
X91455500Y-111704188D01*
X91469511Y-111646931D01*
X91508377Y-111602613D01*
X91669140Y-111490046D01*
X91830046Y-111329140D01*
X91960567Y-111142735D01*
X91960568Y-111142734D01*
X92056739Y-110936496D01*
X92115635Y-110716692D01*
X92135468Y-110490000D01*
X92115635Y-110263308D01*
X92056739Y-110043504D01*
X91960568Y-109837266D01*
X91830047Y-109650861D01*
X91830046Y-109650859D01*
X91669140Y-109489953D01*
X91482735Y-109359432D01*
X91276497Y-109263261D01*
X91056689Y-109204364D01*
X90830000Y-109184531D01*
X90603310Y-109204364D01*
X90383502Y-109263261D01*
X90177264Y-109359432D01*
X89990859Y-109489953D01*
X89829953Y-109650859D01*
X89699432Y-109837264D01*
X89603261Y-110043502D01*
X89544364Y-110263310D01*
X89524531Y-110489999D01*
X82910500Y-110489999D01*
X82910500Y-102870000D01*
X89524531Y-102870000D01*
X89544364Y-103096689D01*
X89603261Y-103316497D01*
X89699432Y-103522735D01*
X89829953Y-103709140D01*
X89990859Y-103870046D01*
X90177264Y-104000567D01*
X90177265Y-104000567D01*
X90177266Y-104000568D01*
X90383504Y-104096739D01*
X90603308Y-104155635D01*
X90830000Y-104175468D01*
X91056692Y-104155635D01*
X91276496Y-104096739D01*
X91482734Y-104000568D01*
X91669139Y-103870047D01*
X91830047Y-103709139D01*
X91960568Y-103522734D01*
X92056739Y-103316496D01*
X92115635Y-103096692D01*
X92135468Y-102870000D01*
X93944531Y-102870000D01*
X93964364Y-103096689D01*
X94023261Y-103316497D01*
X94119432Y-103522735D01*
X94249953Y-103709140D01*
X94410859Y-103870046D01*
X94597264Y-104000567D01*
X94597265Y-104000567D01*
X94597266Y-104000568D01*
X94803504Y-104096739D01*
X95023308Y-104155635D01*
X95250000Y-104175468D01*
X95476692Y-104155635D01*
X95696496Y-104096739D01*
X95902734Y-104000568D01*
X96089139Y-103870047D01*
X96250047Y-103709139D01*
X96380568Y-103522734D01*
X96476739Y-103316496D01*
X96535635Y-103096692D01*
X96555468Y-102870000D01*
X99024531Y-102870000D01*
X99044364Y-103096689D01*
X99103261Y-103316497D01*
X99199432Y-103522735D01*
X99329953Y-103709140D01*
X99490859Y-103870046D01*
X99649451Y-103981092D01*
X99687404Y-104023689D01*
X99702267Y-104078771D01*
X99704439Y-104147872D01*
X99704500Y-104151768D01*
X99704500Y-104179349D01*
X99705003Y-104183334D01*
X99705918Y-104194967D01*
X99707290Y-104238626D01*
X99712879Y-104257860D01*
X99716825Y-104276916D01*
X99719335Y-104296792D01*
X99735414Y-104337404D01*
X99739197Y-104348451D01*
X99751382Y-104390391D01*
X99761580Y-104407635D01*
X99770136Y-104425100D01*
X99777514Y-104443732D01*
X99777515Y-104443733D01*
X99803180Y-104479059D01*
X99809593Y-104488822D01*
X99831826Y-104526416D01*
X99831829Y-104526419D01*
X99831830Y-104526420D01*
X99845995Y-104540585D01*
X99858627Y-104555375D01*
X99870406Y-104571587D01*
X99904058Y-104599426D01*
X99912699Y-104607289D01*
X102369196Y-107063787D01*
X102382096Y-107079888D01*
X102433223Y-107127900D01*
X102436020Y-107130611D01*
X102455529Y-107150120D01*
X102458711Y-107152588D01*
X102467571Y-107160155D01*
X102499417Y-107190061D01*
X102499418Y-107190062D01*
X102516970Y-107199711D01*
X102533238Y-107210397D01*
X102549064Y-107222673D01*
X102589146Y-107240017D01*
X102599633Y-107245155D01*
X102637907Y-107266197D01*
X102646410Y-107268379D01*
X102657308Y-107271178D01*
X102675713Y-107277478D01*
X102694104Y-107285437D01*
X102737250Y-107292270D01*
X102748668Y-107294635D01*
X102790981Y-107305500D01*
X102811016Y-107305500D01*
X102830415Y-107307027D01*
X102850196Y-107310160D01*
X102893674Y-107306050D01*
X102905344Y-107305500D01*
X126917256Y-107305500D01*
X126937762Y-107307764D01*
X126940665Y-107307672D01*
X126940667Y-107307673D01*
X127007872Y-107305561D01*
X127011768Y-107305500D01*
X127039349Y-107305500D01*
X127039350Y-107305500D01*
X127043319Y-107304998D01*
X127054965Y-107304080D01*
X127098627Y-107302709D01*
X127117859Y-107297120D01*
X127136918Y-107293174D01*
X127144099Y-107292267D01*
X127156792Y-107290664D01*
X127197407Y-107274582D01*
X127208444Y-107270803D01*
X127250390Y-107258618D01*
X127267629Y-107248422D01*
X127285102Y-107239862D01*
X127303732Y-107232486D01*
X127339064Y-107206814D01*
X127348830Y-107200400D01*
X127386418Y-107178171D01*
X127386417Y-107178171D01*
X127386420Y-107178170D01*
X127400585Y-107164004D01*
X127415373Y-107151373D01*
X127431587Y-107139594D01*
X127459438Y-107105926D01*
X127467279Y-107097309D01*
X130010120Y-104554471D01*
X130010121Y-104554468D01*
X130020910Y-104543680D01*
X130020912Y-104543676D01*
X137543789Y-97020800D01*
X137559885Y-97007906D01*
X137561873Y-97005787D01*
X137561877Y-97005786D01*
X137607948Y-96956723D01*
X137610566Y-96954023D01*
X137630120Y-96934471D01*
X137632581Y-96931298D01*
X137640156Y-96922427D01*
X137670062Y-96890582D01*
X137679717Y-96873018D01*
X137690394Y-96856764D01*
X137702673Y-96840936D01*
X137720018Y-96800852D01*
X137725160Y-96790356D01*
X137746197Y-96752092D01*
X137751179Y-96732684D01*
X137757481Y-96714280D01*
X137765437Y-96695896D01*
X137772269Y-96652752D01*
X137774633Y-96641338D01*
X137785500Y-96599019D01*
X137785500Y-96578984D01*
X137787027Y-96559585D01*
X137787068Y-96559321D01*
X137790160Y-96539804D01*
X137786050Y-96496325D01*
X137785500Y-96484656D01*
X137785500Y-86610000D01*
X143449364Y-86610000D01*
X143506569Y-86823492D01*
X143606399Y-87037576D01*
X143741893Y-87231081D01*
X143908918Y-87398106D01*
X144102423Y-87533600D01*
X144316507Y-87633430D01*
X144529999Y-87690635D01*
X144530000Y-87690636D01*
X144530000Y-86610000D01*
X145030000Y-86610000D01*
X145030000Y-87690635D01*
X145243492Y-87633430D01*
X145457576Y-87533600D01*
X145651081Y-87398106D01*
X145818106Y-87231081D01*
X145948425Y-87044968D01*
X145992743Y-87006103D01*
X146050000Y-86992092D01*
X146107257Y-87006103D01*
X146151575Y-87044968D01*
X146281893Y-87231081D01*
X146448918Y-87398106D01*
X146642423Y-87533600D01*
X146856507Y-87633430D01*
X147069999Y-87690635D01*
X147070000Y-87690636D01*
X147070000Y-86610000D01*
X147570000Y-86610000D01*
X147570000Y-87690635D01*
X147783492Y-87633430D01*
X147997576Y-87533600D01*
X148191081Y-87398106D01*
X148358106Y-87231081D01*
X148488425Y-87044968D01*
X148532743Y-87006103D01*
X148590000Y-86992092D01*
X148647257Y-87006103D01*
X148691575Y-87044968D01*
X148821893Y-87231081D01*
X148988918Y-87398106D01*
X149182423Y-87533600D01*
X149396507Y-87633430D01*
X149609999Y-87690635D01*
X149610000Y-87690636D01*
X149610000Y-86610000D01*
X150110000Y-86610000D01*
X150110000Y-87690635D01*
X150323492Y-87633430D01*
X150537576Y-87533600D01*
X150731081Y-87398106D01*
X150898106Y-87231081D01*
X151028425Y-87044968D01*
X151072743Y-87006103D01*
X151130000Y-86992092D01*
X151187257Y-87006103D01*
X151231575Y-87044968D01*
X151361893Y-87231081D01*
X151528918Y-87398106D01*
X151722423Y-87533600D01*
X151936507Y-87633430D01*
X152149999Y-87690635D01*
X152150000Y-87690636D01*
X152150000Y-86610000D01*
X152650000Y-86610000D01*
X152650000Y-87690635D01*
X152863492Y-87633430D01*
X153077576Y-87533600D01*
X153271081Y-87398106D01*
X153438106Y-87231081D01*
X153573600Y-87037576D01*
X153673430Y-86823492D01*
X153730636Y-86610000D01*
X152650000Y-86610000D01*
X152150000Y-86610000D01*
X150110000Y-86610000D01*
X149610000Y-86610000D01*
X147570000Y-86610000D01*
X147070000Y-86610000D01*
X145030000Y-86610000D01*
X144530000Y-86610000D01*
X143449364Y-86610000D01*
X137785500Y-86610000D01*
X137785500Y-78822744D01*
X137787764Y-78802236D01*
X137785561Y-78732113D01*
X137785500Y-78728219D01*
X137785500Y-78700654D01*
X137785500Y-78700653D01*
X137785500Y-78700650D01*
X137784997Y-78696670D01*
X137784081Y-78685028D01*
X137784081Y-78685019D01*
X137782710Y-78641373D01*
X137777118Y-78622126D01*
X137773174Y-78603082D01*
X137770664Y-78583208D01*
X137754579Y-78542583D01*
X137750808Y-78531568D01*
X137738618Y-78489610D01*
X137728414Y-78472355D01*
X137719861Y-78454895D01*
X137712486Y-78436268D01*
X137686808Y-78400925D01*
X137680401Y-78391171D01*
X137658169Y-78353579D01*
X137644006Y-78339416D01*
X137631367Y-78324617D01*
X137619595Y-78308413D01*
X137585941Y-78280573D01*
X137577299Y-78272709D01*
X135480802Y-76176211D01*
X135467906Y-76160113D01*
X135416775Y-76112098D01*
X135413978Y-76109387D01*
X135394470Y-76089879D01*
X135391290Y-76087412D01*
X135382424Y-76079839D01*
X135350582Y-76049938D01*
X135333024Y-76040285D01*
X135316764Y-76029604D01*
X135300936Y-76017327D01*
X135260851Y-75999980D01*
X135250361Y-75994841D01*
X135212091Y-75973802D01*
X135192691Y-75968821D01*
X135174284Y-75962519D01*
X135155897Y-75954562D01*
X135112758Y-75947729D01*
X135101324Y-75945361D01*
X135059019Y-75934500D01*
X135038984Y-75934500D01*
X135019586Y-75932973D01*
X135012162Y-75931797D01*
X134999805Y-75929840D01*
X134999804Y-75929840D01*
X134973040Y-75932370D01*
X134956325Y-75933950D01*
X134944656Y-75934500D01*
X134160150Y-75934500D01*
X134113488Y-75925385D01*
X134073685Y-75899381D01*
X134046594Y-75860310D01*
X134039174Y-75843395D01*
X134019695Y-75813580D01*
X133903164Y-75635215D01*
X133734744Y-75452262D01*
X133718437Y-75439570D01*
X133651992Y-75387853D01*
X133616754Y-75344460D01*
X133604154Y-75290000D01*
X133616754Y-75235540D01*
X133651992Y-75192147D01*
X133676256Y-75173260D01*
X133734744Y-75127738D01*
X133903164Y-74944785D01*
X134039173Y-74736607D01*
X134043568Y-74726587D01*
X134046594Y-74719690D01*
X134073685Y-74680619D01*
X134113488Y-74654615D01*
X134160150Y-74645500D01*
X139749548Y-74645500D01*
X139797001Y-74654939D01*
X139837229Y-74681819D01*
X144118181Y-78962772D01*
X144145061Y-79003000D01*
X144154500Y-79050453D01*
X144154500Y-79805501D01*
X144137887Y-79867501D01*
X144092500Y-79912888D01*
X144030500Y-79929501D01*
X143882128Y-79929501D01*
X143852322Y-79932705D01*
X143822515Y-79935909D01*
X143687669Y-79986204D01*
X143572454Y-80072454D01*
X143486204Y-80187668D01*
X143435909Y-80322516D01*
X143429500Y-80382130D01*
X143429500Y-82177869D01*
X143435909Y-82237483D01*
X143486204Y-82372331D01*
X143572454Y-82487546D01*
X143687669Y-82573796D01*
X143799907Y-82615658D01*
X143819082Y-82622810D01*
X143869462Y-82657789D01*
X143896915Y-82712634D01*
X143894726Y-82773926D01*
X143863431Y-82826673D01*
X143741503Y-82948601D01*
X143605965Y-83142170D01*
X143506097Y-83356336D01*
X143444936Y-83584592D01*
X143424340Y-83820000D01*
X143444936Y-84055407D01*
X143478321Y-84180000D01*
X143506097Y-84283663D01*
X143605965Y-84497830D01*
X143741505Y-84691401D01*
X143908599Y-84858495D01*
X144094597Y-84988732D01*
X144133460Y-85033048D01*
X144147471Y-85090305D01*
X144133461Y-85147561D01*
X144094595Y-85191880D01*
X143908919Y-85321892D01*
X143741890Y-85488921D01*
X143606400Y-85682421D01*
X143506569Y-85896507D01*
X143449364Y-86109999D01*
X143449364Y-86110000D01*
X153730636Y-86110000D01*
X153730635Y-86109999D01*
X153673430Y-85896507D01*
X153573599Y-85682421D01*
X153438109Y-85488921D01*
X153271081Y-85321893D01*
X153085404Y-85191880D01*
X153046539Y-85147562D01*
X153032528Y-85090305D01*
X153046539Y-85033048D01*
X153085402Y-84988732D01*
X153271401Y-84858495D01*
X153438495Y-84691401D01*
X153574035Y-84497830D01*
X153673903Y-84283663D01*
X153735063Y-84055408D01*
X153755659Y-83820000D01*
X153735063Y-83584592D01*
X153673903Y-83356337D01*
X153574035Y-83142171D01*
X153438495Y-82948599D01*
X153316569Y-82826672D01*
X153285273Y-82773927D01*
X153283084Y-82712634D01*
X153310537Y-82657789D01*
X153360916Y-82622810D01*
X153492331Y-82573796D01*
X153607546Y-82487546D01*
X153693796Y-82372331D01*
X153744091Y-82237483D01*
X153750500Y-82177873D01*
X153750499Y-80382128D01*
X153744091Y-80322517D01*
X153693796Y-80187669D01*
X153607546Y-80072454D01*
X153492331Y-79986204D01*
X153357483Y-79935909D01*
X153297873Y-79929500D01*
X153297869Y-79929500D01*
X153149500Y-79929500D01*
X153087500Y-79912887D01*
X153042113Y-79867500D01*
X153025500Y-79805500D01*
X153025500Y-71202744D01*
X153027764Y-71182237D01*
X153025561Y-71112127D01*
X153025500Y-71108232D01*
X153025500Y-71080653D01*
X153025180Y-71078123D01*
X153024996Y-71076665D01*
X153024080Y-71065019D01*
X153022709Y-71021373D01*
X153017120Y-71002140D01*
X153013174Y-70983082D01*
X153010664Y-70963206D01*
X152994588Y-70922604D01*
X152990804Y-70911553D01*
X152982368Y-70882519D01*
X152978618Y-70869610D01*
X152968414Y-70852355D01*
X152959861Y-70834895D01*
X152952486Y-70816268D01*
X152926808Y-70780925D01*
X152920401Y-70771171D01*
X152898169Y-70733579D01*
X152884006Y-70719416D01*
X152871367Y-70704617D01*
X152859595Y-70688413D01*
X152825941Y-70660573D01*
X152817299Y-70652709D01*
X148180802Y-66016211D01*
X148167906Y-66000113D01*
X148116775Y-65952098D01*
X148113978Y-65949387D01*
X148094470Y-65929879D01*
X148091290Y-65927412D01*
X148082424Y-65919839D01*
X148050582Y-65889938D01*
X148033024Y-65880285D01*
X148016764Y-65869604D01*
X148000936Y-65857327D01*
X147960851Y-65839980D01*
X147950361Y-65834841D01*
X147912091Y-65813802D01*
X147892691Y-65808821D01*
X147874284Y-65802519D01*
X147855897Y-65794562D01*
X147812758Y-65787729D01*
X147801324Y-65785361D01*
X147759019Y-65774500D01*
X147738984Y-65774500D01*
X147719586Y-65772973D01*
X147712162Y-65771797D01*
X147699805Y-65769840D01*
X147699804Y-65769840D01*
X147666751Y-65772964D01*
X147656325Y-65773950D01*
X147644656Y-65774500D01*
X134160150Y-65774500D01*
X134113488Y-65765385D01*
X134073685Y-65739381D01*
X134046594Y-65700310D01*
X134039174Y-65683395D01*
X134008672Y-65636708D01*
X133903164Y-65475215D01*
X133734744Y-65292262D01*
X133718437Y-65279570D01*
X133651992Y-65227853D01*
X133616754Y-65184460D01*
X133604154Y-65130000D01*
X133616754Y-65075540D01*
X133651992Y-65032147D01*
X133676256Y-65013260D01*
X133734744Y-64967738D01*
X133903164Y-64784785D01*
X134039173Y-64576607D01*
X134117575Y-64397869D01*
X135809500Y-64397869D01*
X135815909Y-64457484D01*
X135841056Y-64524906D01*
X135866204Y-64592331D01*
X135952454Y-64707546D01*
X136067669Y-64793796D01*
X136202517Y-64844091D01*
X136262127Y-64850500D01*
X138057872Y-64850499D01*
X138117483Y-64844091D01*
X138252331Y-64793796D01*
X138367546Y-64707546D01*
X138453796Y-64592331D01*
X138502810Y-64460916D01*
X138537789Y-64410537D01*
X138592634Y-64383084D01*
X138653927Y-64385273D01*
X138706673Y-64416568D01*
X138828599Y-64538495D01*
X139022170Y-64674035D01*
X139236337Y-64773903D01*
X139464592Y-64835063D01*
X139700000Y-64855659D01*
X139935408Y-64835063D01*
X140163663Y-64773903D01*
X140377830Y-64674035D01*
X140571401Y-64538495D01*
X140738495Y-64371401D01*
X140868426Y-64185839D01*
X140912743Y-64146975D01*
X140970000Y-64132964D01*
X141027257Y-64146975D01*
X141071573Y-64185839D01*
X141201505Y-64371401D01*
X141368599Y-64538495D01*
X141562170Y-64674035D01*
X141776337Y-64773903D01*
X142004592Y-64835063D01*
X142240000Y-64855659D01*
X142475408Y-64835063D01*
X142703663Y-64773903D01*
X142917830Y-64674035D01*
X143111401Y-64538495D01*
X143278495Y-64371401D01*
X143408426Y-64185839D01*
X143452743Y-64146975D01*
X143510000Y-64132964D01*
X143567257Y-64146975D01*
X143611573Y-64185839D01*
X143741505Y-64371401D01*
X143908599Y-64538495D01*
X144102170Y-64674035D01*
X144316337Y-64773903D01*
X144544592Y-64835063D01*
X144780000Y-64855659D01*
X145015408Y-64835063D01*
X145243663Y-64773903D01*
X145457830Y-64674035D01*
X145651401Y-64538495D01*
X145818495Y-64371401D01*
X145948426Y-64185839D01*
X145992743Y-64146975D01*
X146050000Y-64132964D01*
X146107257Y-64146975D01*
X146151573Y-64185839D01*
X146281505Y-64371401D01*
X146448599Y-64538495D01*
X146642170Y-64674035D01*
X146856337Y-64773903D01*
X147084592Y-64835063D01*
X147320000Y-64855659D01*
X147555408Y-64835063D01*
X147783663Y-64773903D01*
X147997830Y-64674035D01*
X148191401Y-64538495D01*
X148358495Y-64371401D01*
X148494035Y-64177830D01*
X148593903Y-63963663D01*
X148655063Y-63735408D01*
X148675659Y-63500000D01*
X148655063Y-63264592D01*
X148593903Y-63036337D01*
X148494035Y-62822171D01*
X148358495Y-62628599D01*
X148191401Y-62461505D01*
X147997830Y-62325965D01*
X147783663Y-62226097D01*
X147716209Y-62208023D01*
X147555407Y-62164936D01*
X147320000Y-62144340D01*
X147084592Y-62164936D01*
X146856336Y-62226097D01*
X146642170Y-62325965D01*
X146448598Y-62461505D01*
X146281505Y-62628598D01*
X146151575Y-62814159D01*
X146107257Y-62853025D01*
X146050000Y-62867036D01*
X145992743Y-62853025D01*
X145948425Y-62814159D01*
X145873020Y-62706469D01*
X145818495Y-62628599D01*
X145651401Y-62461505D01*
X145457830Y-62325965D01*
X145243663Y-62226097D01*
X145176209Y-62208023D01*
X145015407Y-62164936D01*
X144780000Y-62144340D01*
X144544592Y-62164936D01*
X144316336Y-62226097D01*
X144102170Y-62325965D01*
X143908598Y-62461505D01*
X143741505Y-62628598D01*
X143611575Y-62814159D01*
X143567257Y-62853025D01*
X143510000Y-62867036D01*
X143452743Y-62853025D01*
X143408425Y-62814159D01*
X143333020Y-62706469D01*
X143278495Y-62628599D01*
X143111401Y-62461505D01*
X142917830Y-62325965D01*
X142703663Y-62226097D01*
X142636209Y-62208023D01*
X142475407Y-62164936D01*
X142240000Y-62144340D01*
X142004592Y-62164936D01*
X141776336Y-62226097D01*
X141562170Y-62325965D01*
X141368598Y-62461505D01*
X141201505Y-62628598D01*
X141071575Y-62814159D01*
X141027257Y-62853025D01*
X140970000Y-62867036D01*
X140912743Y-62853025D01*
X140868425Y-62814159D01*
X140793020Y-62706469D01*
X140738495Y-62628599D01*
X140571401Y-62461505D01*
X140377830Y-62325965D01*
X140163663Y-62226097D01*
X140096209Y-62208023D01*
X139935407Y-62164936D01*
X139700000Y-62144340D01*
X139464592Y-62164936D01*
X139236336Y-62226097D01*
X139022170Y-62325965D01*
X138828601Y-62461503D01*
X138706673Y-62583431D01*
X138653926Y-62614726D01*
X138592634Y-62616915D01*
X138537789Y-62589462D01*
X138502810Y-62539082D01*
X138485304Y-62492147D01*
X138453796Y-62407669D01*
X138367546Y-62292454D01*
X138252331Y-62206204D01*
X138117483Y-62155909D01*
X138057873Y-62149500D01*
X138057869Y-62149500D01*
X136262130Y-62149500D01*
X136202515Y-62155909D01*
X136067669Y-62206204D01*
X135952454Y-62292454D01*
X135866204Y-62407668D01*
X135834695Y-62492147D01*
X135815909Y-62542517D01*
X135813162Y-62568072D01*
X135809500Y-62602130D01*
X135809500Y-64397869D01*
X134117575Y-64397869D01*
X134139063Y-64348881D01*
X134200108Y-64107821D01*
X134220643Y-63860000D01*
X134200108Y-63612179D01*
X134139063Y-63371119D01*
X134039173Y-63143393D01*
X133903164Y-62935215D01*
X133734744Y-62752262D01*
X133687764Y-62715696D01*
X133651992Y-62687853D01*
X133616754Y-62644460D01*
X133604154Y-62590000D01*
X133616754Y-62535540D01*
X133651992Y-62492147D01*
X133691360Y-62461505D01*
X133734744Y-62427738D01*
X133903164Y-62244785D01*
X134039173Y-62036607D01*
X134139063Y-61808881D01*
X134200108Y-61567821D01*
X134220643Y-61320000D01*
X134212595Y-61222869D01*
X150414500Y-61222869D01*
X150420909Y-61282484D01*
X150434902Y-61320000D01*
X150471204Y-61417331D01*
X150557454Y-61532546D01*
X150672669Y-61618796D01*
X150807517Y-61669091D01*
X150867127Y-61675500D01*
X152662872Y-61675499D01*
X152722483Y-61669091D01*
X152857331Y-61618796D01*
X152972546Y-61532546D01*
X153058796Y-61417331D01*
X153109091Y-61282483D01*
X153115500Y-61222873D01*
X153115499Y-59427128D01*
X153109091Y-59367517D01*
X153058796Y-59232669D01*
X152972546Y-59117454D01*
X152857331Y-59031204D01*
X152725399Y-58981996D01*
X152675021Y-58947018D01*
X152647568Y-58892173D01*
X152649757Y-58830880D01*
X152681053Y-58778133D01*
X152803109Y-58656077D01*
X152938600Y-58462576D01*
X153038430Y-58248492D01*
X153095636Y-58035000D01*
X150434364Y-58035000D01*
X150491569Y-58248492D01*
X150591399Y-58462576D01*
X150726893Y-58656081D01*
X150848946Y-58778134D01*
X150880242Y-58830880D01*
X150882431Y-58892173D01*
X150854978Y-58947018D01*
X150804599Y-58981997D01*
X150672669Y-59031204D01*
X150557454Y-59117454D01*
X150471204Y-59232668D01*
X150420909Y-59367515D01*
X150420909Y-59367517D01*
X150416005Y-59413134D01*
X150414500Y-59427130D01*
X150414500Y-61222869D01*
X134212595Y-61222869D01*
X134200108Y-61072179D01*
X134139063Y-60831119D01*
X134039173Y-60603393D01*
X133903164Y-60395215D01*
X133734744Y-60212262D01*
X133718437Y-60199570D01*
X133651992Y-60147853D01*
X133616754Y-60104460D01*
X133604154Y-60050000D01*
X133616754Y-59995540D01*
X133651992Y-59952147D01*
X133667597Y-59940000D01*
X135810000Y-59940000D01*
X135810000Y-60587824D01*
X135816402Y-60647375D01*
X135866647Y-60782089D01*
X135952811Y-60897188D01*
X136067910Y-60983352D01*
X136202624Y-61033597D01*
X136262176Y-61040000D01*
X136910000Y-61040000D01*
X136910000Y-59940000D01*
X137410000Y-59940000D01*
X137410000Y-61040000D01*
X138057824Y-61040000D01*
X138117375Y-61033597D01*
X138252089Y-60983352D01*
X138367188Y-60897188D01*
X138453352Y-60782088D01*
X138502614Y-60650013D01*
X138537593Y-60599633D01*
X138592438Y-60572180D01*
X138653731Y-60574369D01*
X138706477Y-60605665D01*
X138828918Y-60728106D01*
X139022423Y-60863600D01*
X139236507Y-60963430D01*
X139449999Y-61020635D01*
X139450000Y-61020636D01*
X139450000Y-59940000D01*
X139950000Y-59940000D01*
X139950000Y-61020635D01*
X140163492Y-60963430D01*
X140377576Y-60863600D01*
X140571081Y-60728106D01*
X140738106Y-60561081D01*
X140868425Y-60374968D01*
X140912743Y-60336103D01*
X140970000Y-60322092D01*
X141027257Y-60336103D01*
X141071575Y-60374968D01*
X141201893Y-60561081D01*
X141368918Y-60728106D01*
X141562423Y-60863600D01*
X141776507Y-60963430D01*
X141989999Y-61020635D01*
X141990000Y-61020636D01*
X141990000Y-59940000D01*
X142490000Y-59940000D01*
X142490000Y-61020635D01*
X142703492Y-60963430D01*
X142917576Y-60863600D01*
X143111081Y-60728106D01*
X143278106Y-60561081D01*
X143408425Y-60374968D01*
X143452743Y-60336103D01*
X143510000Y-60322092D01*
X143567257Y-60336103D01*
X143611575Y-60374968D01*
X143741893Y-60561081D01*
X143908918Y-60728106D01*
X144102423Y-60863600D01*
X144316507Y-60963430D01*
X144529999Y-61020635D01*
X144530000Y-61020636D01*
X144530000Y-59940000D01*
X145030000Y-59940000D01*
X145030000Y-61020635D01*
X145243492Y-60963430D01*
X145457576Y-60863600D01*
X145651081Y-60728106D01*
X145818106Y-60561081D01*
X145948425Y-60374968D01*
X145992743Y-60336103D01*
X146050000Y-60322092D01*
X146107257Y-60336103D01*
X146151575Y-60374968D01*
X146281893Y-60561081D01*
X146448918Y-60728106D01*
X146642423Y-60863600D01*
X146856507Y-60963430D01*
X147069999Y-61020635D01*
X147070000Y-61020636D01*
X147070000Y-59940000D01*
X147570000Y-59940000D01*
X147570000Y-61020635D01*
X147783492Y-60963430D01*
X147997576Y-60863600D01*
X148191081Y-60728106D01*
X148358106Y-60561081D01*
X148493600Y-60367576D01*
X148593430Y-60153492D01*
X148650636Y-59940000D01*
X147570000Y-59940000D01*
X147070000Y-59940000D01*
X145030000Y-59940000D01*
X144530000Y-59940000D01*
X142490000Y-59940000D01*
X141990000Y-59940000D01*
X139950000Y-59940000D01*
X139450000Y-59940000D01*
X137410000Y-59940000D01*
X136910000Y-59940000D01*
X135810000Y-59940000D01*
X133667597Y-59940000D01*
X133676256Y-59933260D01*
X133734744Y-59887738D01*
X133903164Y-59704785D01*
X134039173Y-59496607D01*
X134064003Y-59440000D01*
X135810000Y-59440000D01*
X136910000Y-59440000D01*
X136910000Y-58340000D01*
X137410000Y-58340000D01*
X137410000Y-59440000D01*
X139450000Y-59440000D01*
X139950000Y-59440000D01*
X141990000Y-59440000D01*
X142490000Y-59440000D01*
X144530000Y-59440000D01*
X145030000Y-59440000D01*
X147070000Y-59440000D01*
X147070000Y-58359364D01*
X147570000Y-58359364D01*
X147570000Y-59440000D01*
X148650636Y-59440000D01*
X148650635Y-59439999D01*
X148593430Y-59226507D01*
X148493599Y-59012421D01*
X148358109Y-58818921D01*
X148191081Y-58651893D01*
X147997576Y-58516399D01*
X147783492Y-58416569D01*
X147570000Y-58359364D01*
X147070000Y-58359364D01*
X147069999Y-58359364D01*
X146856507Y-58416569D01*
X146642421Y-58516400D01*
X146448921Y-58651890D01*
X146281893Y-58818918D01*
X146151575Y-59005032D01*
X146107257Y-59043897D01*
X146050000Y-59057908D01*
X145992743Y-59043897D01*
X145948425Y-59005032D01*
X145818106Y-58818918D01*
X145651081Y-58651893D01*
X145457576Y-58516399D01*
X145243492Y-58416569D01*
X145030000Y-58359364D01*
X145030000Y-59440000D01*
X144530000Y-59440000D01*
X144530000Y-58359364D01*
X144529999Y-58359364D01*
X144316507Y-58416569D01*
X144102421Y-58516400D01*
X143908921Y-58651890D01*
X143741893Y-58818918D01*
X143611575Y-59005032D01*
X143567257Y-59043897D01*
X143510000Y-59057908D01*
X143452743Y-59043897D01*
X143408425Y-59005032D01*
X143278106Y-58818918D01*
X143111081Y-58651893D01*
X142917576Y-58516399D01*
X142703492Y-58416569D01*
X142490000Y-58359364D01*
X142490000Y-59440000D01*
X141990000Y-59440000D01*
X141990000Y-58359364D01*
X141989999Y-58359364D01*
X141776507Y-58416569D01*
X141562421Y-58516400D01*
X141368921Y-58651890D01*
X141201893Y-58818918D01*
X141071575Y-59005032D01*
X141027257Y-59043897D01*
X140970000Y-59057908D01*
X140912743Y-59043897D01*
X140868425Y-59005032D01*
X140738106Y-58818918D01*
X140571081Y-58651893D01*
X140377576Y-58516399D01*
X140163492Y-58416569D01*
X139950000Y-58359364D01*
X139950000Y-59440000D01*
X139450000Y-59440000D01*
X139450000Y-58359364D01*
X139449999Y-58359364D01*
X139236507Y-58416569D01*
X139022421Y-58516400D01*
X138828924Y-58651888D01*
X138706477Y-58774335D01*
X138653730Y-58805630D01*
X138592438Y-58807819D01*
X138537593Y-58780366D01*
X138502614Y-58729987D01*
X138453352Y-58597910D01*
X138367188Y-58482811D01*
X138252089Y-58396647D01*
X138117375Y-58346402D01*
X138057824Y-58340000D01*
X137410000Y-58340000D01*
X136910000Y-58340000D01*
X136262176Y-58340000D01*
X136202624Y-58346402D01*
X136067910Y-58396647D01*
X135952811Y-58482811D01*
X135866647Y-58597910D01*
X135816402Y-58732624D01*
X135810000Y-58792176D01*
X135810000Y-59440000D01*
X134064003Y-59440000D01*
X134139063Y-59268881D01*
X134200108Y-59027821D01*
X134220643Y-58780000D01*
X134200108Y-58532179D01*
X134139063Y-58291119D01*
X134039173Y-58063393D01*
X133903164Y-57855215D01*
X133734744Y-57672262D01*
X133631253Y-57591711D01*
X133594382Y-57544841D01*
X133592583Y-57535000D01*
X150434364Y-57535000D01*
X151515000Y-57535000D01*
X151515000Y-56454364D01*
X152015000Y-56454364D01*
X152015000Y-57535000D01*
X153095636Y-57535000D01*
X153095635Y-57534999D01*
X153038430Y-57321507D01*
X152938599Y-57107421D01*
X152803109Y-56913921D01*
X152636081Y-56746893D01*
X152442576Y-56611399D01*
X152228492Y-56511569D01*
X152015000Y-56454364D01*
X151515000Y-56454364D01*
X151514999Y-56454364D01*
X151301507Y-56511569D01*
X151087421Y-56611400D01*
X150893921Y-56746890D01*
X150726890Y-56913921D01*
X150591400Y-57107421D01*
X150491569Y-57321507D01*
X150434364Y-57534999D01*
X150434364Y-57535000D01*
X133592583Y-57535000D01*
X133583655Y-57486176D01*
X133585056Y-57463609D01*
X132715000Y-56593553D01*
X131844942Y-57463610D01*
X131846343Y-57486178D01*
X131835616Y-57544842D01*
X131798744Y-57591714D01*
X131695256Y-57672261D01*
X131526837Y-57855214D01*
X131390825Y-58063395D01*
X131309635Y-58248492D01*
X131290937Y-58291119D01*
X131247454Y-58462830D01*
X131229891Y-58532183D01*
X131209356Y-58780000D01*
X131229891Y-59027816D01*
X131229891Y-59027819D01*
X131229892Y-59027821D01*
X131290937Y-59268881D01*
X131300675Y-59291081D01*
X131390825Y-59496604D01*
X131390827Y-59496607D01*
X131526836Y-59704785D01*
X131641582Y-59829432D01*
X131695256Y-59887738D01*
X131778008Y-59952147D01*
X131813246Y-59995540D01*
X131825845Y-60050000D01*
X131813246Y-60104460D01*
X131778008Y-60147853D01*
X131695256Y-60212261D01*
X131526837Y-60395214D01*
X131390825Y-60603395D01*
X131290938Y-60831117D01*
X131229891Y-61072183D01*
X131209356Y-61319999D01*
X131229891Y-61567816D01*
X131229891Y-61567819D01*
X131229892Y-61567821D01*
X131290937Y-61808881D01*
X131312427Y-61857873D01*
X131390825Y-62036604D01*
X131390827Y-62036607D01*
X131526836Y-62244785D01*
X131676780Y-62407668D01*
X131695256Y-62427738D01*
X131778008Y-62492147D01*
X131813246Y-62535540D01*
X131825845Y-62590000D01*
X131813246Y-62644460D01*
X131778008Y-62687853D01*
X131695256Y-62752261D01*
X131526837Y-62935214D01*
X131390825Y-63143395D01*
X131290938Y-63371117D01*
X131229891Y-63612183D01*
X131209356Y-63860000D01*
X131229891Y-64107816D01*
X131229891Y-64107819D01*
X131229892Y-64107821D01*
X131290937Y-64348881D01*
X131312427Y-64397873D01*
X131390825Y-64576604D01*
X131390827Y-64576607D01*
X131526836Y-64784785D01*
X131695256Y-64967738D01*
X131778008Y-65032147D01*
X131813245Y-65075538D01*
X131825845Y-65129998D01*
X131813246Y-65184458D01*
X131778009Y-65227851D01*
X131695257Y-65292260D01*
X131541369Y-65459426D01*
X131526836Y-65475215D01*
X131509600Y-65501597D01*
X131390825Y-65683395D01*
X131323160Y-65837658D01*
X131290937Y-65911119D01*
X131246718Y-66085736D01*
X131229891Y-66152183D01*
X131209356Y-66400000D01*
X131229891Y-66647816D01*
X131229891Y-66647819D01*
X131229892Y-66647821D01*
X131290937Y-66888881D01*
X131335960Y-66991523D01*
X131390825Y-67116604D01*
X131390827Y-67116607D01*
X131526836Y-67324785D01*
X131695256Y-67507738D01*
X131778008Y-67572147D01*
X131813246Y-67615540D01*
X131825845Y-67670000D01*
X131813246Y-67724460D01*
X131778008Y-67767853D01*
X131695256Y-67832261D01*
X131526837Y-68015214D01*
X131390825Y-68223395D01*
X131323160Y-68377658D01*
X131290937Y-68451119D01*
X131268401Y-68540113D01*
X131229891Y-68692183D01*
X131209356Y-68939999D01*
X131229891Y-69187816D01*
X131229891Y-69187819D01*
X131229892Y-69187821D01*
X131290937Y-69428881D01*
X131335960Y-69531523D01*
X131390825Y-69656604D01*
X131390827Y-69656607D01*
X131526836Y-69864785D01*
X131695255Y-70047737D01*
X131695256Y-70047738D01*
X131778008Y-70112147D01*
X131813246Y-70155540D01*
X131825845Y-70210000D01*
X131813246Y-70264460D01*
X131778008Y-70307853D01*
X131695256Y-70372261D01*
X131526837Y-70555214D01*
X131390825Y-70763395D01*
X131314532Y-70937327D01*
X131290937Y-70991119D01*
X131242539Y-71182237D01*
X131229891Y-71232183D01*
X131209356Y-71479999D01*
X131229891Y-71727816D01*
X131229891Y-71727819D01*
X131229892Y-71727821D01*
X131290937Y-71968881D01*
X131335960Y-72071523D01*
X131390825Y-72196604D01*
X131390827Y-72196607D01*
X131526836Y-72404785D01*
X131695255Y-72587737D01*
X131695256Y-72587738D01*
X131778008Y-72652147D01*
X131813246Y-72695540D01*
X131825845Y-72750000D01*
X131813246Y-72804460D01*
X131778008Y-72847853D01*
X131695256Y-72912261D01*
X131526837Y-73095214D01*
X131390825Y-73303395D01*
X131314532Y-73477327D01*
X131290937Y-73531119D01*
X131242539Y-73722237D01*
X131229891Y-73772183D01*
X131209356Y-74020000D01*
X131229891Y-74267816D01*
X131229891Y-74267819D01*
X131229892Y-74267821D01*
X131290937Y-74508881D01*
X131322177Y-74580101D01*
X131390825Y-74736604D01*
X131390827Y-74736607D01*
X131526836Y-74944785D01*
X131695256Y-75127738D01*
X131778008Y-75192147D01*
X131813246Y-75235540D01*
X131825845Y-75290000D01*
X131813246Y-75344460D01*
X131778008Y-75387853D01*
X131695256Y-75452261D01*
X131526837Y-75635214D01*
X131390825Y-75843395D01*
X131314532Y-76017327D01*
X131290937Y-76071119D01*
X131242539Y-76262237D01*
X131229891Y-76312183D01*
X131209356Y-76559999D01*
X131229891Y-76807816D01*
X131229891Y-76807819D01*
X131229892Y-76807821D01*
X131290937Y-77048881D01*
X131333623Y-77146195D01*
X131390825Y-77276604D01*
X131390827Y-77276607D01*
X131526836Y-77484785D01*
X131695255Y-77667737D01*
X131695256Y-77667738D01*
X131778008Y-77732147D01*
X131813246Y-77775540D01*
X131825845Y-77830000D01*
X131813246Y-77884460D01*
X131778008Y-77927853D01*
X131695256Y-77992261D01*
X131526837Y-78175214D01*
X131390825Y-78383395D01*
X131303181Y-78583206D01*
X131290937Y-78611119D01*
X131242539Y-78802236D01*
X131229891Y-78852183D01*
X131209356Y-79099999D01*
X131229891Y-79347816D01*
X131229891Y-79347819D01*
X131229892Y-79347821D01*
X131290937Y-79588881D01*
X131323159Y-79662339D01*
X131390825Y-79816604D01*
X131390827Y-79816607D01*
X131526836Y-80024785D01*
X131685461Y-80197098D01*
X131695256Y-80207738D01*
X131778008Y-80272147D01*
X131813246Y-80315540D01*
X131825845Y-80370000D01*
X131813246Y-80424460D01*
X131778008Y-80467853D01*
X131695256Y-80532261D01*
X131526837Y-80715214D01*
X131390825Y-80923395D01*
X131323949Y-81075859D01*
X131290937Y-81151119D01*
X131251508Y-81306819D01*
X131229891Y-81392183D01*
X131209356Y-81640000D01*
X131229891Y-81887816D01*
X131229891Y-81887819D01*
X131229892Y-81887821D01*
X131290937Y-82128881D01*
X131312427Y-82177873D01*
X131390825Y-82356604D01*
X131390827Y-82356607D01*
X131526836Y-82564785D01*
X131662941Y-82712634D01*
X131695256Y-82747738D01*
X131778008Y-82812147D01*
X131813246Y-82855540D01*
X131825845Y-82910000D01*
X131813246Y-82964460D01*
X131778008Y-83007853D01*
X131695256Y-83072261D01*
X131526837Y-83255214D01*
X131390825Y-83463395D01*
X131290938Y-83691117D01*
X131229891Y-83932183D01*
X131209356Y-84179999D01*
X131229891Y-84427816D01*
X131229891Y-84427819D01*
X131229892Y-84427821D01*
X131290937Y-84668881D01*
X131300817Y-84691404D01*
X131390825Y-84896604D01*
X131390827Y-84896607D01*
X131526836Y-85104785D01*
X131607013Y-85191880D01*
X131695256Y-85287738D01*
X131778008Y-85352147D01*
X131813246Y-85395540D01*
X131825845Y-85450000D01*
X131813246Y-85504460D01*
X131778008Y-85547853D01*
X131695256Y-85612261D01*
X131526837Y-85795214D01*
X131390825Y-86003395D01*
X131318837Y-86167514D01*
X131290937Y-86231119D01*
X131274999Y-86294058D01*
X131229891Y-86472183D01*
X131209356Y-86720000D01*
X131229891Y-86967816D01*
X131229891Y-86967819D01*
X131229892Y-86967821D01*
X131290937Y-87208881D01*
X131300675Y-87231081D01*
X131390825Y-87436604D01*
X131390827Y-87436607D01*
X131526836Y-87644785D01*
X131695256Y-87827738D01*
X131778008Y-87892147D01*
X131813245Y-87935538D01*
X131825845Y-87989998D01*
X131813246Y-88044458D01*
X131778009Y-88087851D01*
X131695257Y-88152260D01*
X131526837Y-88335214D01*
X131390825Y-88543395D01*
X131323949Y-88695859D01*
X131290937Y-88771119D01*
X131241623Y-88965855D01*
X131229891Y-89012183D01*
X131209356Y-89260000D01*
X131229891Y-89507816D01*
X131229891Y-89507819D01*
X131229892Y-89507821D01*
X131290937Y-89748881D01*
X131335960Y-89851523D01*
X131390825Y-89976604D01*
X131390827Y-89976607D01*
X131526836Y-90184785D01*
X131695256Y-90367738D01*
X131760667Y-90418649D01*
X131891485Y-90520470D01*
X131891487Y-90520471D01*
X131891491Y-90520474D01*
X132110190Y-90638828D01*
X132188078Y-90665567D01*
X132283189Y-90698219D01*
X132339507Y-90737730D01*
X132366096Y-90801180D01*
X132354773Y-90869038D01*
X132309022Y-90920416D01*
X132242926Y-90939500D01*
X132179501Y-90939500D01*
X131983372Y-90954197D01*
X131727581Y-91012580D01*
X131483358Y-91108431D01*
X131256143Y-91239613D01*
X131051015Y-91403198D01*
X130872571Y-91595514D01*
X130772070Y-91742922D01*
X130724772Y-91812296D01*
X130610937Y-92048677D01*
X130533604Y-92299385D01*
X130494500Y-92558818D01*
X130494500Y-92821182D01*
X130533604Y-93080615D01*
X130610937Y-93331323D01*
X130724772Y-93567704D01*
X130860766Y-93767170D01*
X130872571Y-93784485D01*
X131051015Y-93976801D01*
X131051019Y-93976805D01*
X131256143Y-94140386D01*
X131483357Y-94271568D01*
X131727584Y-94367420D01*
X131983370Y-94425802D01*
X132039408Y-94430001D01*
X132179501Y-94440500D01*
X132179506Y-94440500D01*
X132310494Y-94440500D01*
X132310499Y-94440500D01*
X132433078Y-94431313D01*
X132506630Y-94425802D01*
X132762416Y-94367420D01*
X133006643Y-94271568D01*
X133233857Y-94140386D01*
X133438981Y-93976805D01*
X133538273Y-93869792D01*
X133617428Y-93784485D01*
X133617429Y-93784482D01*
X133617433Y-93784479D01*
X133765228Y-93567704D01*
X133879063Y-93331323D01*
X133956396Y-93080615D01*
X133995500Y-92821182D01*
X133995500Y-92558818D01*
X133956396Y-92299385D01*
X133879063Y-92048677D01*
X133765228Y-91812296D01*
X133617433Y-91595521D01*
X133617432Y-91595520D01*
X133617428Y-91595514D01*
X133438984Y-91403198D01*
X133438983Y-91403197D01*
X133438981Y-91403195D01*
X133233857Y-91239614D01*
X133233856Y-91239613D01*
X133042498Y-91129133D01*
X133006643Y-91108432D01*
X133006642Y-91108431D01*
X133006641Y-91108431D01*
X132762418Y-91012580D01*
X132742795Y-91008101D01*
X132730917Y-91005390D01*
X132677627Y-90978488D01*
X132643083Y-90929802D01*
X132635291Y-90870616D01*
X132656057Y-90814648D01*
X132700570Y-90774870D01*
X132758511Y-90760500D01*
X132839335Y-90760500D01*
X133084614Y-90719571D01*
X133319810Y-90638828D01*
X133538509Y-90520474D01*
X133734744Y-90367738D01*
X133903164Y-90184785D01*
X134039173Y-89976607D01*
X134139063Y-89748881D01*
X134200108Y-89507821D01*
X134220643Y-89260000D01*
X134200108Y-89012179D01*
X134139063Y-88771119D01*
X134049016Y-88565833D01*
X134039174Y-88543395D01*
X134033657Y-88534950D01*
X133903164Y-88335215D01*
X133734744Y-88152262D01*
X133718437Y-88139570D01*
X133651992Y-88087853D01*
X133616754Y-88044460D01*
X133604154Y-87990000D01*
X133616754Y-87935540D01*
X133651992Y-87892147D01*
X133676256Y-87873260D01*
X133734744Y-87827738D01*
X133903164Y-87644785D01*
X134039173Y-87436607D01*
X134139063Y-87208881D01*
X134200108Y-86967821D01*
X134220643Y-86720000D01*
X134200108Y-86472179D01*
X134139063Y-86231119D01*
X134049016Y-86025833D01*
X134039174Y-86003395D01*
X134039173Y-86003393D01*
X133903164Y-85795215D01*
X133734744Y-85612262D01*
X133718437Y-85599570D01*
X133651992Y-85547853D01*
X133616754Y-85504460D01*
X133604154Y-85450000D01*
X133616754Y-85395540D01*
X133651992Y-85352147D01*
X133676256Y-85333260D01*
X133734744Y-85287738D01*
X133903164Y-85104785D01*
X134039173Y-84896607D01*
X134139063Y-84668881D01*
X134200108Y-84427821D01*
X134220643Y-84180000D01*
X134200108Y-83932179D01*
X134139063Y-83691119D01*
X134039173Y-83463393D01*
X133903164Y-83255215D01*
X133734744Y-83072262D01*
X133700446Y-83045567D01*
X133651992Y-83007853D01*
X133616754Y-82964460D01*
X133604154Y-82910000D01*
X133616754Y-82855540D01*
X133651992Y-82812147D01*
X133701096Y-82773927D01*
X133734744Y-82747738D01*
X133903164Y-82564785D01*
X134039173Y-82356607D01*
X134139063Y-82128881D01*
X134200108Y-81887821D01*
X134220643Y-81640000D01*
X134200108Y-81392179D01*
X134139063Y-81151119D01*
X134039173Y-80923393D01*
X133903164Y-80715215D01*
X133734744Y-80532262D01*
X133718437Y-80519570D01*
X133651992Y-80467853D01*
X133616754Y-80424460D01*
X133604154Y-80370000D01*
X133616754Y-80315540D01*
X133651992Y-80272147D01*
X133678480Y-80251530D01*
X133734744Y-80207738D01*
X133903164Y-80024785D01*
X134039173Y-79816607D01*
X134139063Y-79588881D01*
X134200108Y-79347821D01*
X134220643Y-79100000D01*
X134200108Y-78852179D01*
X134139063Y-78611119D01*
X134046868Y-78400936D01*
X134039174Y-78383395D01*
X134019695Y-78353580D01*
X133903164Y-78175215D01*
X133734744Y-77992262D01*
X133718437Y-77979570D01*
X133651992Y-77927853D01*
X133616754Y-77884460D01*
X133604154Y-77830000D01*
X133616754Y-77775540D01*
X133651992Y-77732147D01*
X133676256Y-77713260D01*
X133734744Y-77667738D01*
X133903164Y-77484785D01*
X134039173Y-77276607D01*
X134041851Y-77270500D01*
X134046594Y-77259690D01*
X134073685Y-77220619D01*
X134113488Y-77194615D01*
X134160150Y-77185500D01*
X134669548Y-77185500D01*
X134717001Y-77194939D01*
X134757229Y-77221819D01*
X136498181Y-78962771D01*
X136525061Y-79002999D01*
X136534500Y-79050452D01*
X136534500Y-96209547D01*
X136525061Y-96257000D01*
X136498181Y-96297228D01*
X126777228Y-106018181D01*
X126737000Y-106045061D01*
X126689547Y-106054500D01*
X103180453Y-106054500D01*
X103133000Y-106045061D01*
X103092772Y-106018181D01*
X101141590Y-104066999D01*
X101112749Y-104021728D01*
X101105743Y-103968509D01*
X101121885Y-103917316D01*
X101158148Y-103877742D01*
X101169139Y-103870047D01*
X101330047Y-103709139D01*
X101460568Y-103522734D01*
X101556739Y-103316496D01*
X101615635Y-103096692D01*
X101635468Y-102870000D01*
X101615635Y-102643308D01*
X101556739Y-102423504D01*
X101460568Y-102217266D01*
X101330047Y-102030861D01*
X101330046Y-102030859D01*
X101169140Y-101869953D01*
X100982735Y-101739432D01*
X100776497Y-101643261D01*
X100556689Y-101584364D01*
X100330000Y-101564531D01*
X100103310Y-101584364D01*
X99883502Y-101643261D01*
X99677264Y-101739432D01*
X99490859Y-101869953D01*
X99329953Y-102030859D01*
X99199432Y-102217264D01*
X99103261Y-102423502D01*
X99044364Y-102643310D01*
X99024531Y-102870000D01*
X96555468Y-102870000D01*
X96535635Y-102643308D01*
X96476739Y-102423504D01*
X96380568Y-102217266D01*
X96250047Y-102030861D01*
X96250046Y-102030859D01*
X96089140Y-101869953D01*
X95902735Y-101739432D01*
X95696497Y-101643261D01*
X95476689Y-101584364D01*
X95250000Y-101564531D01*
X95023310Y-101584364D01*
X94803502Y-101643261D01*
X94597264Y-101739432D01*
X94410859Y-101869953D01*
X94249953Y-102030859D01*
X94119432Y-102217264D01*
X94023261Y-102423502D01*
X93964364Y-102643310D01*
X93944531Y-102870000D01*
X92135468Y-102870000D01*
X92115635Y-102643308D01*
X92056739Y-102423504D01*
X91960568Y-102217266D01*
X91830047Y-102030861D01*
X91830046Y-102030859D01*
X91669140Y-101869953D01*
X91508377Y-101757387D01*
X91469511Y-101713069D01*
X91455500Y-101655812D01*
X91455500Y-100580000D01*
X105330000Y-100580000D01*
X105330000Y-101227824D01*
X105336402Y-101287375D01*
X105386647Y-101422089D01*
X105472811Y-101537188D01*
X105587910Y-101623352D01*
X105722624Y-101673597D01*
X105782176Y-101680000D01*
X106430000Y-101680000D01*
X106430000Y-100580000D01*
X106930000Y-100580000D01*
X106930000Y-101680000D01*
X107577824Y-101680000D01*
X107637375Y-101673597D01*
X107772089Y-101623352D01*
X107887188Y-101537188D01*
X107973352Y-101422089D01*
X108023597Y-101287375D01*
X108030000Y-101227824D01*
X108030000Y-100580000D01*
X106930000Y-100580000D01*
X106430000Y-100580000D01*
X105330000Y-100580000D01*
X91455500Y-100580000D01*
X91455500Y-100080000D01*
X105330000Y-100080000D01*
X106430000Y-100080000D01*
X106430000Y-98980000D01*
X106930000Y-98980000D01*
X106930000Y-100080000D01*
X108030000Y-100080000D01*
X108030000Y-99432176D01*
X108023597Y-99372624D01*
X107973352Y-99237910D01*
X107887188Y-99122811D01*
X107772089Y-99036647D01*
X107637375Y-98986402D01*
X107577824Y-98980000D01*
X106930000Y-98980000D01*
X106430000Y-98980000D01*
X105782176Y-98980000D01*
X105722624Y-98986402D01*
X105587910Y-99036647D01*
X105472811Y-99122811D01*
X105386647Y-99237910D01*
X105336402Y-99372624D01*
X105330000Y-99432176D01*
X105330000Y-100080000D01*
X91455500Y-100080000D01*
X91455500Y-96170452D01*
X91464939Y-96122999D01*
X91491819Y-96082771D01*
X100192772Y-87381819D01*
X100233000Y-87354939D01*
X100280453Y-87345500D01*
X105869850Y-87345500D01*
X105916512Y-87354615D01*
X105956315Y-87380619D01*
X105983406Y-87419690D01*
X105990825Y-87436604D01*
X105990827Y-87436607D01*
X106126836Y-87644785D01*
X106295256Y-87827738D01*
X106378008Y-87892147D01*
X106413245Y-87935538D01*
X106425845Y-87989998D01*
X106413246Y-88044458D01*
X106378009Y-88087851D01*
X106295257Y-88152260D01*
X106126837Y-88335214D01*
X105990825Y-88543395D01*
X105983406Y-88560310D01*
X105956315Y-88599381D01*
X105916512Y-88625385D01*
X105869850Y-88634500D01*
X103225048Y-88634500D01*
X103177595Y-88625061D01*
X103137369Y-88598183D01*
X103074139Y-88534953D01*
X103074138Y-88534952D01*
X103074136Y-88534950D01*
X102887735Y-88404432D01*
X102681497Y-88308261D01*
X102461689Y-88249364D01*
X102234999Y-88229531D01*
X102008310Y-88249364D01*
X101788502Y-88308261D01*
X101582264Y-88404432D01*
X101395859Y-88534953D01*
X101234953Y-88695859D01*
X101104432Y-88882264D01*
X101008261Y-89088502D01*
X100949364Y-89308310D01*
X100929531Y-89535000D01*
X100949364Y-89761689D01*
X101008261Y-89981497D01*
X101104432Y-90187735D01*
X101234953Y-90374140D01*
X101395859Y-90535046D01*
X101582264Y-90665567D01*
X101582265Y-90665567D01*
X101582266Y-90665568D01*
X101788504Y-90761739D01*
X102008308Y-90820635D01*
X102235000Y-90840468D01*
X102461692Y-90820635D01*
X102681496Y-90761739D01*
X102887734Y-90665568D01*
X103074139Y-90535047D01*
X103235047Y-90374139D01*
X103365568Y-90187734D01*
X103461739Y-89981496D01*
X103461740Y-89981493D01*
X103462836Y-89977405D01*
X103487621Y-89929793D01*
X103530206Y-89897118D01*
X103582610Y-89885500D01*
X105869850Y-89885500D01*
X105916512Y-89894615D01*
X105956315Y-89920619D01*
X105983406Y-89959690D01*
X105990825Y-89976604D01*
X105990827Y-89976607D01*
X106126836Y-90184785D01*
X106295256Y-90367738D01*
X106360667Y-90418649D01*
X106491485Y-90520470D01*
X106491487Y-90520471D01*
X106491491Y-90520474D01*
X106710190Y-90638828D01*
X106945386Y-90719571D01*
X107190665Y-90760500D01*
X107221489Y-90760500D01*
X107279430Y-90774870D01*
X107323943Y-90814648D01*
X107344709Y-90870616D01*
X107336917Y-90929802D01*
X107302373Y-90978488D01*
X107249082Y-91005390D01*
X107240024Y-91007458D01*
X107217581Y-91012580D01*
X106973358Y-91108431D01*
X106746143Y-91239613D01*
X106541015Y-91403198D01*
X106362571Y-91595514D01*
X106262070Y-91742922D01*
X106214772Y-91812296D01*
X106100937Y-92048677D01*
X106023604Y-92299385D01*
X105984500Y-92558818D01*
X105984500Y-92821182D01*
X106023604Y-93080615D01*
X106100937Y-93331323D01*
X106214772Y-93567704D01*
X106350766Y-93767170D01*
X106362571Y-93784485D01*
X106541015Y-93976801D01*
X106541019Y-93976805D01*
X106746143Y-94140386D01*
X106973357Y-94271568D01*
X107217584Y-94367420D01*
X107473370Y-94425802D01*
X107529408Y-94430001D01*
X107669501Y-94440500D01*
X107669506Y-94440500D01*
X107800494Y-94440500D01*
X107800499Y-94440500D01*
X107923078Y-94431313D01*
X107996630Y-94425802D01*
X108252416Y-94367420D01*
X108496643Y-94271568D01*
X108723857Y-94140386D01*
X108928981Y-93976805D01*
X109028273Y-93869792D01*
X109107428Y-93784485D01*
X109107429Y-93784482D01*
X109107433Y-93784479D01*
X109255228Y-93567704D01*
X109369063Y-93331323D01*
X109446396Y-93080615D01*
X109485500Y-92821182D01*
X109485500Y-92558818D01*
X109446396Y-92299385D01*
X109369063Y-92048677D01*
X109255228Y-91812296D01*
X109107433Y-91595521D01*
X109107432Y-91595520D01*
X109107428Y-91595514D01*
X108928984Y-91403198D01*
X108928983Y-91403197D01*
X108928981Y-91403195D01*
X108723857Y-91239614D01*
X108723856Y-91239613D01*
X108532498Y-91129133D01*
X108496643Y-91108432D01*
X108496642Y-91108431D01*
X108496641Y-91108431D01*
X108252418Y-91012580D01*
X107996627Y-90954197D01*
X107800499Y-90939500D01*
X107800494Y-90939500D01*
X107787074Y-90939500D01*
X107720978Y-90920416D01*
X107675227Y-90869038D01*
X107663904Y-90801180D01*
X107690493Y-90737730D01*
X107746811Y-90698219D01*
X107796222Y-90681255D01*
X107919810Y-90638828D01*
X108138509Y-90520474D01*
X108334744Y-90367738D01*
X108503164Y-90184785D01*
X108639173Y-89976607D01*
X108739063Y-89748881D01*
X108800108Y-89507821D01*
X108820643Y-89260000D01*
X108800108Y-89012179D01*
X108739063Y-88771119D01*
X108649016Y-88565833D01*
X108639174Y-88543395D01*
X108633657Y-88534950D01*
X108503164Y-88335215D01*
X108378690Y-88200000D01*
X111105000Y-88200000D01*
X111105000Y-94690000D01*
X128795000Y-94690000D01*
X128795000Y-88200000D01*
X111105000Y-88200000D01*
X108378690Y-88200000D01*
X108334744Y-88152262D01*
X108318437Y-88139570D01*
X108251992Y-88087853D01*
X108216754Y-88044460D01*
X108204154Y-87990000D01*
X108216754Y-87935540D01*
X108251992Y-87892147D01*
X108276256Y-87873260D01*
X108334744Y-87827738D01*
X108503164Y-87644785D01*
X108639173Y-87436607D01*
X108739063Y-87208881D01*
X108800108Y-86967821D01*
X108820643Y-86720000D01*
X108800108Y-86472179D01*
X108739063Y-86231119D01*
X108649016Y-86025833D01*
X108639174Y-86003395D01*
X108639173Y-86003393D01*
X108503164Y-85795215D01*
X108334744Y-85612262D01*
X108318437Y-85599570D01*
X108251992Y-85547853D01*
X108216754Y-85504460D01*
X108204154Y-85450000D01*
X108216754Y-85395540D01*
X108251992Y-85352147D01*
X108276256Y-85333260D01*
X108334744Y-85287738D01*
X108503164Y-85104785D01*
X108639173Y-84896607D01*
X108739063Y-84668881D01*
X108800108Y-84427821D01*
X108820643Y-84180000D01*
X108800108Y-83932179D01*
X108739063Y-83691119D01*
X108639173Y-83463393D01*
X108503164Y-83255215D01*
X108334744Y-83072262D01*
X108300446Y-83045567D01*
X108251992Y-83007853D01*
X108216754Y-82964460D01*
X108204154Y-82910000D01*
X108216754Y-82855540D01*
X108251992Y-82812147D01*
X108301096Y-82773927D01*
X108334744Y-82747738D01*
X108503164Y-82564785D01*
X108639173Y-82356607D01*
X108739063Y-82128881D01*
X108800108Y-81887821D01*
X108820643Y-81640000D01*
X108800108Y-81392179D01*
X108739063Y-81151119D01*
X108639173Y-80923393D01*
X108503164Y-80715215D01*
X108334744Y-80532262D01*
X108318437Y-80519570D01*
X108251992Y-80467853D01*
X108216754Y-80424460D01*
X108204154Y-80370000D01*
X108216754Y-80315540D01*
X108251992Y-80272147D01*
X108278480Y-80251530D01*
X108334744Y-80207738D01*
X108503164Y-80024785D01*
X108639173Y-79816607D01*
X108739063Y-79588881D01*
X108800108Y-79347821D01*
X108820643Y-79100000D01*
X108800108Y-78852179D01*
X108739063Y-78611119D01*
X108646868Y-78400936D01*
X108639174Y-78383395D01*
X108619695Y-78353580D01*
X108503164Y-78175215D01*
X108334744Y-77992262D01*
X108318437Y-77979570D01*
X108251992Y-77927853D01*
X108216754Y-77884460D01*
X108204154Y-77830000D01*
X108216754Y-77775540D01*
X108251992Y-77732147D01*
X108276256Y-77713260D01*
X108334744Y-77667738D01*
X108503164Y-77484785D01*
X108639173Y-77276607D01*
X108739063Y-77048881D01*
X108800108Y-76807821D01*
X108820643Y-76560000D01*
X108800108Y-76312179D01*
X108739063Y-76071119D01*
X108646868Y-75860936D01*
X108639174Y-75843395D01*
X108619695Y-75813580D01*
X108503164Y-75635215D01*
X108334744Y-75452262D01*
X108318437Y-75439570D01*
X108251992Y-75387853D01*
X108216754Y-75344460D01*
X108204154Y-75290000D01*
X108216754Y-75235540D01*
X108251992Y-75192147D01*
X108276256Y-75173260D01*
X108334744Y-75127738D01*
X108503164Y-74944785D01*
X108639173Y-74736607D01*
X108739063Y-74508881D01*
X108800108Y-74267821D01*
X108820643Y-74020000D01*
X108800108Y-73772179D01*
X108739063Y-73531119D01*
X108646868Y-73320936D01*
X108639174Y-73303395D01*
X108620878Y-73275391D01*
X108503164Y-73095215D01*
X108334744Y-72912262D01*
X108318437Y-72899570D01*
X108251992Y-72847853D01*
X108216754Y-72804460D01*
X108204154Y-72750000D01*
X108216754Y-72695540D01*
X108251992Y-72652147D01*
X108276256Y-72633260D01*
X108334744Y-72587738D01*
X108503164Y-72404785D01*
X108639173Y-72196607D01*
X108739063Y-71968881D01*
X108800108Y-71727821D01*
X108820643Y-71480000D01*
X108800108Y-71232179D01*
X108739063Y-70991119D01*
X108646868Y-70780936D01*
X108639174Y-70763395D01*
X108619695Y-70733580D01*
X108503164Y-70555215D01*
X108334744Y-70372262D01*
X108318437Y-70359570D01*
X108251992Y-70307853D01*
X108216754Y-70264460D01*
X108204154Y-70210000D01*
X108216754Y-70155540D01*
X108251992Y-70112147D01*
X108276256Y-70093260D01*
X108334744Y-70047738D01*
X108503164Y-69864785D01*
X108639173Y-69656607D01*
X108739063Y-69428881D01*
X108800108Y-69187821D01*
X108820643Y-68940000D01*
X108800108Y-68692179D01*
X108739063Y-68451119D01*
X108649016Y-68245833D01*
X108639174Y-68223395D01*
X108639173Y-68223393D01*
X108503164Y-68015215D01*
X108334744Y-67832262D01*
X108318437Y-67819570D01*
X108251992Y-67767853D01*
X108216754Y-67724460D01*
X108204154Y-67670000D01*
X108216754Y-67615540D01*
X108251992Y-67572147D01*
X108276256Y-67553260D01*
X108334744Y-67507738D01*
X108503164Y-67324785D01*
X108639173Y-67116607D01*
X108739063Y-66888881D01*
X108800108Y-66647821D01*
X108820643Y-66400000D01*
X108800108Y-66152179D01*
X108739063Y-65911119D01*
X108646845Y-65700883D01*
X108639174Y-65683395D01*
X108608672Y-65636708D01*
X108503164Y-65475215D01*
X108334744Y-65292262D01*
X108318437Y-65279570D01*
X108251992Y-65227853D01*
X108216754Y-65184460D01*
X108204154Y-65130000D01*
X108216754Y-65075540D01*
X108251992Y-65032147D01*
X108276256Y-65013260D01*
X108334744Y-64967738D01*
X108503164Y-64784785D01*
X108639173Y-64576607D01*
X108739063Y-64348881D01*
X108800108Y-64107821D01*
X108820643Y-63860000D01*
X108800108Y-63612179D01*
X108739063Y-63371119D01*
X108639173Y-63143393D01*
X108503164Y-62935215D01*
X108334744Y-62752262D01*
X108287764Y-62715696D01*
X108251992Y-62687853D01*
X108216754Y-62644460D01*
X108204154Y-62590000D01*
X108216754Y-62535540D01*
X108251992Y-62492147D01*
X108291360Y-62461505D01*
X108334744Y-62427738D01*
X108503164Y-62244785D01*
X108639173Y-62036607D01*
X108739063Y-61808881D01*
X108800108Y-61567821D01*
X108820643Y-61320000D01*
X108800108Y-61072179D01*
X108739063Y-60831119D01*
X108639173Y-60603393D01*
X108503164Y-60395215D01*
X108334744Y-60212262D01*
X108318437Y-60199570D01*
X108251992Y-60147853D01*
X108216754Y-60104460D01*
X108204154Y-60050000D01*
X108216754Y-59995540D01*
X108251992Y-59952147D01*
X108276256Y-59933260D01*
X108334744Y-59887738D01*
X108503164Y-59704785D01*
X108639173Y-59496607D01*
X108739063Y-59268881D01*
X108800108Y-59027821D01*
X108820643Y-58780000D01*
X108800108Y-58532179D01*
X108739063Y-58291119D01*
X108639173Y-58063393D01*
X108503164Y-57855215D01*
X108334744Y-57672262D01*
X108231253Y-57591711D01*
X108194382Y-57544841D01*
X108183655Y-57486176D01*
X108185056Y-57463609D01*
X107315000Y-56593553D01*
X106444942Y-57463610D01*
X106446343Y-57486178D01*
X106435616Y-57544842D01*
X106398744Y-57591714D01*
X106295256Y-57672261D01*
X106126837Y-57855214D01*
X105990825Y-58063395D01*
X105909635Y-58248492D01*
X105890937Y-58291119D01*
X105847454Y-58462830D01*
X105829891Y-58532183D01*
X105809356Y-58780000D01*
X105829891Y-59027816D01*
X105829891Y-59027819D01*
X105829892Y-59027821D01*
X105890937Y-59268881D01*
X105900675Y-59291081D01*
X105990825Y-59496604D01*
X105990827Y-59496607D01*
X106126836Y-59704785D01*
X106241582Y-59829432D01*
X106295256Y-59887738D01*
X106378008Y-59952147D01*
X106413246Y-59995540D01*
X106425845Y-60050000D01*
X106413246Y-60104460D01*
X106378008Y-60147853D01*
X106295256Y-60212261D01*
X106126837Y-60395214D01*
X105990825Y-60603395D01*
X105890938Y-60831117D01*
X105829891Y-61072183D01*
X105809356Y-61319999D01*
X105829891Y-61567816D01*
X105829891Y-61567819D01*
X105829892Y-61567821D01*
X105890937Y-61808881D01*
X105912427Y-61857873D01*
X105990825Y-62036604D01*
X105990827Y-62036607D01*
X106126836Y-62244785D01*
X106276780Y-62407668D01*
X106295256Y-62427738D01*
X106378008Y-62492147D01*
X106413246Y-62535540D01*
X106425845Y-62590000D01*
X106413246Y-62644460D01*
X106378008Y-62687853D01*
X106295256Y-62752261D01*
X106126837Y-62935214D01*
X105990825Y-63143395D01*
X105890938Y-63371117D01*
X105829891Y-63612183D01*
X105809356Y-63860000D01*
X105829891Y-64107816D01*
X105829891Y-64107819D01*
X105829892Y-64107821D01*
X105890937Y-64348881D01*
X105912427Y-64397873D01*
X105990825Y-64576604D01*
X105990827Y-64576607D01*
X106126836Y-64784785D01*
X106295256Y-64967738D01*
X106378008Y-65032147D01*
X106413245Y-65075538D01*
X106425845Y-65129998D01*
X106413246Y-65184458D01*
X106378009Y-65227851D01*
X106295257Y-65292260D01*
X106141369Y-65459426D01*
X106126836Y-65475215D01*
X106109600Y-65501597D01*
X105990825Y-65683395D01*
X105923160Y-65837658D01*
X105890937Y-65911119D01*
X105846718Y-66085736D01*
X105829891Y-66152183D01*
X105809356Y-66400000D01*
X105829891Y-66647816D01*
X105829891Y-66647819D01*
X105829892Y-66647821D01*
X105890937Y-66888881D01*
X105935960Y-66991523D01*
X105990825Y-67116604D01*
X105990827Y-67116607D01*
X106126836Y-67324785D01*
X106295256Y-67507738D01*
X106378008Y-67572147D01*
X106413246Y-67615540D01*
X106425845Y-67670000D01*
X106413246Y-67724460D01*
X106378008Y-67767853D01*
X106295256Y-67832261D01*
X106126837Y-68015214D01*
X105990825Y-68223395D01*
X105923160Y-68377658D01*
X105890937Y-68451119D01*
X105868401Y-68540113D01*
X105829891Y-68692183D01*
X105809356Y-68940000D01*
X105829891Y-69187816D01*
X105829891Y-69187819D01*
X105829892Y-69187821D01*
X105890937Y-69428881D01*
X105935960Y-69531523D01*
X105990825Y-69656604D01*
X105990827Y-69656607D01*
X106126836Y-69864785D01*
X106295255Y-70047737D01*
X106295256Y-70047738D01*
X106378008Y-70112147D01*
X106413246Y-70155540D01*
X106425845Y-70210000D01*
X106413246Y-70264460D01*
X106378008Y-70307853D01*
X106295256Y-70372261D01*
X106126837Y-70555214D01*
X105990825Y-70763395D01*
X105914532Y-70937327D01*
X105890937Y-70991119D01*
X105842539Y-71182237D01*
X105829891Y-71232183D01*
X105809356Y-71479999D01*
X105829891Y-71727816D01*
X105829891Y-71727819D01*
X105829892Y-71727821D01*
X105890937Y-71968881D01*
X105935960Y-72071523D01*
X105990825Y-72196604D01*
X105990827Y-72196607D01*
X106126836Y-72404785D01*
X106295255Y-72587737D01*
X106295256Y-72587738D01*
X106378008Y-72652147D01*
X106413246Y-72695540D01*
X106425845Y-72750000D01*
X106413246Y-72804460D01*
X106378008Y-72847853D01*
X106295256Y-72912261D01*
X106126833Y-73095218D01*
X106053461Y-73207522D01*
X106014224Y-73245561D01*
X105962444Y-73263038D01*
X105908180Y-73256559D01*
X105861972Y-73227381D01*
X105436819Y-72802228D01*
X105409939Y-72762000D01*
X105400500Y-72714547D01*
X105400500Y-56239999D01*
X105809858Y-56239999D01*
X105830386Y-56487732D01*
X105891413Y-56728721D01*
X105991268Y-56956370D01*
X106091563Y-57109882D01*
X106091564Y-57109882D01*
X107227318Y-55974128D01*
X107282905Y-55942034D01*
X107347093Y-55942034D01*
X107402680Y-55974128D01*
X108538434Y-57109882D01*
X108638730Y-56956369D01*
X108738586Y-56728721D01*
X108799613Y-56487732D01*
X108820141Y-56239999D01*
X131209858Y-56239999D01*
X131230386Y-56487732D01*
X131291413Y-56728721D01*
X131391268Y-56956370D01*
X131491563Y-57109882D01*
X131491564Y-57109882D01*
X132361447Y-56240001D01*
X133068553Y-56240001D01*
X133938434Y-57109882D01*
X134038730Y-56956369D01*
X134138586Y-56728721D01*
X134199613Y-56487732D01*
X134220141Y-56240000D01*
X134199613Y-55992267D01*
X134138586Y-55751278D01*
X134038730Y-55523630D01*
X133938434Y-55370116D01*
X133068553Y-56240000D01*
X133068553Y-56240001D01*
X132361447Y-56240001D01*
X132361447Y-56239999D01*
X131491564Y-55370116D01*
X131391266Y-55523634D01*
X131291413Y-55751278D01*
X131230386Y-55992267D01*
X131209858Y-56239999D01*
X108820141Y-56239999D01*
X108799613Y-55992267D01*
X108738586Y-55751278D01*
X108638732Y-55523631D01*
X108508058Y-55323619D01*
X108488922Y-55271939D01*
X108494070Y-55217070D01*
X108522485Y-55169851D01*
X108543994Y-55155730D01*
X108543058Y-55154480D01*
X108557328Y-55143796D01*
X108557331Y-55143796D01*
X108672546Y-55057546D01*
X108758796Y-54942331D01*
X108809091Y-54807483D01*
X108815500Y-54747873D01*
X108815500Y-54574500D01*
X108832113Y-54512500D01*
X108877500Y-54467113D01*
X108939500Y-54450500D01*
X124036294Y-54450500D01*
X124054264Y-54451809D01*
X124058320Y-54452402D01*
X124078023Y-54455289D01*
X124127368Y-54450972D01*
X124138176Y-54450500D01*
X124143706Y-54450500D01*
X124143709Y-54450500D01*
X124174550Y-54446894D01*
X124178031Y-54446539D01*
X124252797Y-54439999D01*
X124252797Y-54439998D01*
X124254052Y-54439889D01*
X124273062Y-54435674D01*
X124274250Y-54435241D01*
X124274255Y-54435241D01*
X124344820Y-54409557D01*
X124348095Y-54408419D01*
X124419334Y-54384814D01*
X124419336Y-54384812D01*
X124420536Y-54384415D01*
X124438063Y-54375929D01*
X124439112Y-54375238D01*
X124439117Y-54375237D01*
X124501806Y-54334005D01*
X124504798Y-54332099D01*
X124568656Y-54292712D01*
X124568656Y-54292711D01*
X124569729Y-54292050D01*
X124584824Y-54279753D01*
X124585692Y-54278832D01*
X124585696Y-54278830D01*
X124637185Y-54224253D01*
X124639631Y-54221735D01*
X125161366Y-53700000D01*
X131209356Y-53700000D01*
X131229891Y-53947816D01*
X131229891Y-53947819D01*
X131229892Y-53947821D01*
X131290937Y-54188881D01*
X131327368Y-54271936D01*
X131390825Y-54416604D01*
X131390827Y-54416607D01*
X131526836Y-54624785D01*
X131641582Y-54749432D01*
X131695256Y-54807738D01*
X131798744Y-54888286D01*
X131835616Y-54935158D01*
X131846343Y-54993823D01*
X131844941Y-55016389D01*
X132715000Y-55886447D01*
X132715001Y-55886447D01*
X133585056Y-55016390D01*
X133583655Y-54993825D01*
X133594382Y-54935159D01*
X133631251Y-54888289D01*
X133734744Y-54807738D01*
X133903164Y-54624785D01*
X134039173Y-54416607D01*
X134139063Y-54188881D01*
X134200108Y-53947821D01*
X134220643Y-53700000D01*
X134200108Y-53452179D01*
X134139063Y-53211119D01*
X134039173Y-52983393D01*
X133903164Y-52775215D01*
X133734744Y-52592262D01*
X133694956Y-52561294D01*
X133538514Y-52439529D01*
X133538510Y-52439526D01*
X133538509Y-52439526D01*
X133319810Y-52321172D01*
X133319806Y-52321170D01*
X133319805Y-52321170D01*
X133084615Y-52240429D01*
X132839335Y-52199500D01*
X132590665Y-52199500D01*
X132345384Y-52240429D01*
X132110194Y-52321170D01*
X131891485Y-52439529D01*
X131695259Y-52592259D01*
X131695256Y-52592261D01*
X131695256Y-52592262D01*
X131526836Y-52775215D01*
X131511130Y-52799255D01*
X131390825Y-52983395D01*
X131290938Y-53211117D01*
X131229891Y-53452183D01*
X131209356Y-53700000D01*
X125161366Y-53700000D01*
X128544548Y-50316819D01*
X128584776Y-50289939D01*
X128632229Y-50280500D01*
X134257770Y-50280500D01*
X134305223Y-50289939D01*
X134345451Y-50316819D01*
X136373181Y-52344548D01*
X136400061Y-52384776D01*
X136409500Y-52432229D01*
X136409500Y-54405501D01*
X136392887Y-54467501D01*
X136347500Y-54512888D01*
X136285500Y-54529501D01*
X136262128Y-54529501D01*
X136232322Y-54532705D01*
X136202515Y-54535909D01*
X136067669Y-54586204D01*
X135952454Y-54672454D01*
X135866204Y-54787668D01*
X135815909Y-54922516D01*
X135809500Y-54982130D01*
X135809500Y-56777869D01*
X135815909Y-56837484D01*
X135831784Y-56880046D01*
X135866204Y-56972331D01*
X135952454Y-57087546D01*
X136067669Y-57173796D01*
X136202517Y-57224091D01*
X136262127Y-57230500D01*
X138057872Y-57230499D01*
X138117483Y-57224091D01*
X138252331Y-57173796D01*
X138367546Y-57087546D01*
X138453796Y-56972331D01*
X138502810Y-56840916D01*
X138537789Y-56790537D01*
X138592634Y-56763084D01*
X138653927Y-56765273D01*
X138706673Y-56796569D01*
X138828599Y-56918495D01*
X139022170Y-57054035D01*
X139236337Y-57153903D01*
X139464592Y-57215063D01*
X139700000Y-57235659D01*
X139935408Y-57215063D01*
X140163663Y-57153903D01*
X140377830Y-57054035D01*
X140571401Y-56918495D01*
X140738495Y-56751401D01*
X140868426Y-56565839D01*
X140912743Y-56526975D01*
X140970000Y-56512964D01*
X141027257Y-56526975D01*
X141071573Y-56565839D01*
X141201505Y-56751401D01*
X141368599Y-56918495D01*
X141562170Y-57054035D01*
X141776337Y-57153903D01*
X142004592Y-57215063D01*
X142240000Y-57235659D01*
X142475408Y-57215063D01*
X142703663Y-57153903D01*
X142917830Y-57054035D01*
X143111401Y-56918495D01*
X143278495Y-56751401D01*
X143408426Y-56565839D01*
X143452743Y-56526975D01*
X143510000Y-56512964D01*
X143567257Y-56526975D01*
X143611573Y-56565839D01*
X143741505Y-56751401D01*
X143908599Y-56918495D01*
X144102170Y-57054035D01*
X144316337Y-57153903D01*
X144544592Y-57215063D01*
X144780000Y-57235659D01*
X145015408Y-57215063D01*
X145243663Y-57153903D01*
X145457830Y-57054035D01*
X145651401Y-56918495D01*
X145818495Y-56751401D01*
X145948426Y-56565839D01*
X145992743Y-56526975D01*
X146050000Y-56512964D01*
X146107257Y-56526975D01*
X146151573Y-56565839D01*
X146281505Y-56751401D01*
X146448599Y-56918495D01*
X146642170Y-57054035D01*
X146856337Y-57153903D01*
X147084592Y-57215063D01*
X147320000Y-57235659D01*
X147555408Y-57215063D01*
X147783663Y-57153903D01*
X147997830Y-57054035D01*
X148191401Y-56918495D01*
X148358495Y-56751401D01*
X148494035Y-56557830D01*
X148593903Y-56343663D01*
X148655063Y-56115408D01*
X148675659Y-55880000D01*
X148655063Y-55644592D01*
X148593903Y-55416337D01*
X148494035Y-55202171D01*
X148358495Y-55008599D01*
X148191401Y-54841505D01*
X147997830Y-54705965D01*
X147783663Y-54606097D01*
X147722502Y-54589709D01*
X147555407Y-54544936D01*
X147320000Y-54524340D01*
X147084592Y-54544936D01*
X146856336Y-54606097D01*
X146642170Y-54705965D01*
X146448598Y-54841505D01*
X146281505Y-55008598D01*
X146151575Y-55194159D01*
X146107257Y-55233025D01*
X146050000Y-55247036D01*
X145992743Y-55233025D01*
X145948425Y-55194159D01*
X145913161Y-55143796D01*
X145818495Y-55008599D01*
X145651401Y-54841505D01*
X145457830Y-54705965D01*
X145243663Y-54606097D01*
X145182502Y-54589709D01*
X145015407Y-54544936D01*
X144780000Y-54524340D01*
X144544592Y-54544936D01*
X144316336Y-54606097D01*
X144102170Y-54705965D01*
X143908598Y-54841505D01*
X143741505Y-55008598D01*
X143611575Y-55194159D01*
X143567257Y-55233025D01*
X143510000Y-55247036D01*
X143452743Y-55233025D01*
X143408425Y-55194159D01*
X143373161Y-55143796D01*
X143278495Y-55008599D01*
X143111401Y-54841505D01*
X142917830Y-54705965D01*
X142703663Y-54606097D01*
X142642502Y-54589709D01*
X142475407Y-54544936D01*
X142240000Y-54524340D01*
X142004592Y-54544936D01*
X141776336Y-54606097D01*
X141562170Y-54705965D01*
X141368598Y-54841505D01*
X141201505Y-55008598D01*
X141071575Y-55194159D01*
X141027257Y-55233025D01*
X140970000Y-55247036D01*
X140912743Y-55233025D01*
X140868425Y-55194159D01*
X140833161Y-55143796D01*
X140738495Y-55008599D01*
X140571401Y-54841505D01*
X140377830Y-54705965D01*
X140163663Y-54606097D01*
X140102502Y-54589709D01*
X139935407Y-54544936D01*
X139700000Y-54524340D01*
X139464592Y-54544936D01*
X139236336Y-54606097D01*
X139022170Y-54705965D01*
X138828601Y-54841503D01*
X138706673Y-54963431D01*
X138653926Y-54994726D01*
X138592634Y-54996915D01*
X138537789Y-54969462D01*
X138502810Y-54919082D01*
X138489930Y-54884549D01*
X138453796Y-54787669D01*
X138367546Y-54672454D01*
X138252331Y-54586204D01*
X138117483Y-54535909D01*
X138057873Y-54529500D01*
X138057869Y-54529500D01*
X138034500Y-54529500D01*
X137972500Y-54512887D01*
X137927113Y-54467500D01*
X137910500Y-54405500D01*
X137910500Y-52133706D01*
X137911809Y-52115736D01*
X137912338Y-52112118D01*
X137915289Y-52091977D01*
X137910971Y-52042633D01*
X137910500Y-52031827D01*
X137910500Y-52026291D01*
X137910499Y-52026290D01*
X137906897Y-51995471D01*
X137906534Y-51991915D01*
X137905871Y-51984341D01*
X137899998Y-51917202D01*
X137899888Y-51915942D01*
X137895674Y-51896935D01*
X137874888Y-51839825D01*
X137869571Y-51825217D01*
X137868424Y-51821917D01*
X137844814Y-51750665D01*
X137844812Y-51750662D01*
X137844415Y-51749463D01*
X137835929Y-51731936D01*
X137835237Y-51730884D01*
X137835237Y-51730883D01*
X137793994Y-51668176D01*
X137792099Y-51665201D01*
X137757591Y-51609255D01*
X137752047Y-51600267D01*
X137739748Y-51585170D01*
X137684272Y-51532831D01*
X137681685Y-51530318D01*
X135195728Y-49044360D01*
X135183946Y-49030727D01*
X135169609Y-49011469D01*
X135131666Y-48979631D01*
X135123691Y-48972323D01*
X135119782Y-48968414D01*
X135119777Y-48968409D01*
X135095423Y-48949152D01*
X135092647Y-48946890D01*
X135034251Y-48897890D01*
X135017821Y-48887422D01*
X134948691Y-48855186D01*
X134945447Y-48853615D01*
X134877306Y-48819394D01*
X134858903Y-48812997D01*
X134784211Y-48797574D01*
X134780692Y-48796794D01*
X134706490Y-48779208D01*
X134687121Y-48777229D01*
X134610869Y-48779448D01*
X134607263Y-48779500D01*
X128333706Y-48779500D01*
X128315736Y-48778191D01*
X128301853Y-48776157D01*
X128291977Y-48774711D01*
X128291976Y-48774711D01*
X128242631Y-48779028D01*
X128231824Y-48779500D01*
X128226291Y-48779500D01*
X128195501Y-48783098D01*
X128191917Y-48783464D01*
X128115961Y-48790109D01*
X128096921Y-48794330D01*
X128025232Y-48820421D01*
X128021831Y-48821603D01*
X127949474Y-48845580D01*
X127931927Y-48854075D01*
X127868221Y-48895975D01*
X127865181Y-48897912D01*
X127800280Y-48937944D01*
X127785164Y-48950257D01*
X127732831Y-49005726D01*
X127730319Y-49008312D01*
X123825451Y-52913181D01*
X123785223Y-52940061D01*
X123737770Y-52949500D01*
X108939499Y-52949500D01*
X108877499Y-52932887D01*
X108832112Y-52887500D01*
X108815499Y-52825500D01*
X108815499Y-52652130D01*
X108810220Y-52603023D01*
X108809091Y-52592517D01*
X108758796Y-52457669D01*
X108672546Y-52342454D01*
X108557331Y-52256204D01*
X108422483Y-52205909D01*
X108362873Y-52199500D01*
X108362869Y-52199500D01*
X106267130Y-52199500D01*
X106207515Y-52205909D01*
X106072669Y-52256204D01*
X105957454Y-52342454D01*
X105871204Y-52457668D01*
X105820909Y-52592516D01*
X105814500Y-52652130D01*
X105814500Y-54747869D01*
X105820909Y-54807484D01*
X105833598Y-54841505D01*
X105871204Y-54942331D01*
X105957454Y-55057546D01*
X106072669Y-55143796D01*
X106072671Y-55143796D01*
X106086942Y-55154480D01*
X106086004Y-55155731D01*
X106107528Y-55169867D01*
X106135933Y-55217084D01*
X106141076Y-55271947D01*
X106121941Y-55323620D01*
X105991267Y-55523631D01*
X105891413Y-55751278D01*
X105830386Y-55992267D01*
X105809858Y-56239999D01*
X105400500Y-56239999D01*
X105400500Y-51517744D01*
X105402764Y-51497236D01*
X105400950Y-51439511D01*
X105400561Y-51427113D01*
X105400500Y-51423219D01*
X105400500Y-51395654D01*
X105400500Y-51395650D01*
X105399997Y-51391670D01*
X105399081Y-51380028D01*
X105398807Y-51371294D01*
X105397710Y-51336373D01*
X105392118Y-51317126D01*
X105388174Y-51298085D01*
X105385664Y-51278208D01*
X105369579Y-51237583D01*
X105365808Y-51226568D01*
X105353618Y-51184610D01*
X105343414Y-51167355D01*
X105334861Y-51149895D01*
X105327486Y-51131269D01*
X105327486Y-51131268D01*
X105301808Y-51095925D01*
X105295401Y-51086171D01*
X105273169Y-51048579D01*
X105259006Y-51034416D01*
X105246367Y-51019617D01*
X105234595Y-51003413D01*
X105200941Y-50975573D01*
X105192299Y-50967709D01*
X104640802Y-50416211D01*
X104627906Y-50400113D01*
X104576775Y-50352098D01*
X104573978Y-50349387D01*
X104554470Y-50329879D01*
X104551290Y-50327412D01*
X104542424Y-50319839D01*
X104510582Y-50289938D01*
X104493024Y-50280285D01*
X104476764Y-50269604D01*
X104460936Y-50257327D01*
X104420851Y-50239980D01*
X104410361Y-50234841D01*
X104372091Y-50213802D01*
X104352691Y-50208821D01*
X104334284Y-50202519D01*
X104315897Y-50194562D01*
X104272758Y-50187729D01*
X104261324Y-50185361D01*
X104219019Y-50174500D01*
X104198984Y-50174500D01*
X104179586Y-50172973D01*
X104172162Y-50171797D01*
X104159805Y-50169840D01*
X104159804Y-50169840D01*
X104133484Y-50172328D01*
X104116325Y-50173950D01*
X104104656Y-50174500D01*
X103449188Y-50174500D01*
X103391931Y-50160489D01*
X103347613Y-50121623D01*
X103235046Y-49960859D01*
X103074140Y-49799953D01*
X102887735Y-49669432D01*
X102681497Y-49573261D01*
X102461689Y-49514364D01*
X102235000Y-49494531D01*
X102008310Y-49514364D01*
X101788502Y-49573261D01*
X101582264Y-49669432D01*
X101395859Y-49799953D01*
X101234953Y-49960859D01*
X101104432Y-50147264D01*
X101008261Y-50353502D01*
X100949364Y-50573310D01*
X100929531Y-50799999D01*
X100949364Y-51026689D01*
X101008261Y-51246497D01*
X101104432Y-51452735D01*
X101234953Y-51639140D01*
X101395859Y-51800046D01*
X101582264Y-51930567D01*
X101582265Y-51930567D01*
X101582266Y-51930568D01*
X101788504Y-52026739D01*
X102008308Y-52085635D01*
X102235000Y-52105468D01*
X102461692Y-52085635D01*
X102681496Y-52026739D01*
X102887734Y-51930568D01*
X103074139Y-51800047D01*
X103235047Y-51639139D01*
X103334408Y-51497236D01*
X103347613Y-51478377D01*
X103391931Y-51439511D01*
X103449188Y-51425500D01*
X103829548Y-51425500D01*
X103877001Y-51434939D01*
X103917229Y-51461819D01*
X104113181Y-51657771D01*
X104140061Y-51697999D01*
X104149500Y-51745452D01*
X104149500Y-72942256D01*
X104147235Y-72962762D01*
X104149439Y-73032873D01*
X104149500Y-73036768D01*
X104149500Y-73064349D01*
X104150003Y-73068334D01*
X104150918Y-73079967D01*
X104152290Y-73123626D01*
X104157879Y-73142860D01*
X104161825Y-73161916D01*
X104164335Y-73181792D01*
X104180414Y-73222404D01*
X104184197Y-73233451D01*
X104196382Y-73275391D01*
X104206580Y-73292635D01*
X104215136Y-73310100D01*
X104222514Y-73328732D01*
X104222515Y-73328733D01*
X104248180Y-73364059D01*
X104254593Y-73373822D01*
X104276826Y-73411416D01*
X104276829Y-73411419D01*
X104276830Y-73411420D01*
X104290995Y-73425585D01*
X104303627Y-73440375D01*
X104315406Y-73456587D01*
X104349058Y-73484426D01*
X104357699Y-73492289D01*
X105269196Y-74403787D01*
X105282096Y-74419888D01*
X105333223Y-74467900D01*
X105336019Y-74470610D01*
X105355529Y-74490120D01*
X105358711Y-74492588D01*
X105367571Y-74500155D01*
X105399418Y-74530062D01*
X105416970Y-74539711D01*
X105433238Y-74550397D01*
X105449064Y-74562673D01*
X105489146Y-74580017D01*
X105499633Y-74585155D01*
X105537907Y-74606197D01*
X105546410Y-74608379D01*
X105557308Y-74611178D01*
X105575713Y-74617478D01*
X105594104Y-74625437D01*
X105637250Y-74632270D01*
X105648668Y-74634635D01*
X105690981Y-74645500D01*
X105711017Y-74645500D01*
X105730414Y-74647026D01*
X105750196Y-74650160D01*
X105790720Y-74646328D01*
X105793672Y-74646050D01*
X105805342Y-74645500D01*
X105869850Y-74645500D01*
X105916512Y-74654615D01*
X105956315Y-74680619D01*
X105983406Y-74719690D01*
X105990825Y-74736604D01*
X105990827Y-74736607D01*
X106126836Y-74944785D01*
X106295256Y-75127738D01*
X106378008Y-75192147D01*
X106413246Y-75235540D01*
X106425845Y-75290000D01*
X106413246Y-75344460D01*
X106378008Y-75387853D01*
X106295256Y-75452261D01*
X106126837Y-75635214D01*
X105990825Y-75843395D01*
X105983406Y-75860310D01*
X105956315Y-75899381D01*
X105916512Y-75925385D01*
X105869850Y-75934500D01*
X104810452Y-75934500D01*
X104762999Y-75925061D01*
X104722771Y-75898181D01*
X102896819Y-74072228D01*
X102869939Y-74032000D01*
X102860500Y-73984547D01*
X102860500Y-62174188D01*
X102874511Y-62116931D01*
X102913377Y-62072613D01*
X103074140Y-61960046D01*
X103235046Y-61799140D01*
X103278206Y-61737500D01*
X103365568Y-61612734D01*
X103461739Y-61406496D01*
X103520635Y-61186692D01*
X103540468Y-60960000D01*
X103520635Y-60733308D01*
X103461739Y-60513504D01*
X103365568Y-60307266D01*
X103299045Y-60212261D01*
X103235046Y-60120859D01*
X103074140Y-59959953D01*
X102887735Y-59829432D01*
X102681497Y-59733261D01*
X102461689Y-59674364D01*
X102235000Y-59654531D01*
X102008310Y-59674364D01*
X101788502Y-59733261D01*
X101582264Y-59829432D01*
X101395859Y-59959953D01*
X101234953Y-60120859D01*
X101104432Y-60307264D01*
X101008261Y-60513502D01*
X100949364Y-60733310D01*
X100929531Y-60959999D01*
X100949364Y-61186689D01*
X101008261Y-61406497D01*
X101104432Y-61612735D01*
X101234953Y-61799140D01*
X101395859Y-61960046D01*
X101556623Y-62072613D01*
X101595489Y-62116931D01*
X101609500Y-62174188D01*
X101609500Y-74212256D01*
X101607235Y-74232762D01*
X101609439Y-74302873D01*
X101609500Y-74306768D01*
X101609500Y-74334349D01*
X101610003Y-74338334D01*
X101610918Y-74349967D01*
X101612290Y-74393626D01*
X101617879Y-74412860D01*
X101621825Y-74431916D01*
X101624335Y-74451792D01*
X101640414Y-74492404D01*
X101644197Y-74503451D01*
X101656382Y-74545391D01*
X101666580Y-74562635D01*
X101675136Y-74580100D01*
X101682514Y-74598732D01*
X101682515Y-74598733D01*
X101708180Y-74634059D01*
X101714593Y-74643822D01*
X101736826Y-74681416D01*
X101736829Y-74681419D01*
X101736830Y-74681420D01*
X101750995Y-74695585D01*
X101763627Y-74710375D01*
X101775406Y-74726587D01*
X101809058Y-74754426D01*
X101817699Y-74762289D01*
X103999197Y-76943787D01*
X104012098Y-76959889D01*
X104014212Y-76961874D01*
X104014214Y-76961877D01*
X104061561Y-77006339D01*
X104063240Y-77007916D01*
X104066036Y-77010626D01*
X104085530Y-77030120D01*
X104088704Y-77032582D01*
X104097568Y-77040153D01*
X104129418Y-77070062D01*
X104139914Y-77075832D01*
X104146974Y-77079714D01*
X104163231Y-77090392D01*
X104179064Y-77102674D01*
X104195185Y-77109649D01*
X104219156Y-77120023D01*
X104229643Y-77125160D01*
X104267908Y-77146197D01*
X104287316Y-77151180D01*
X104305710Y-77157478D01*
X104324105Y-77165438D01*
X104367254Y-77172271D01*
X104378680Y-77174638D01*
X104394222Y-77178629D01*
X104420980Y-77185500D01*
X104420981Y-77185500D01*
X104441016Y-77185500D01*
X104460413Y-77187026D01*
X104480196Y-77190160D01*
X104523674Y-77186050D01*
X104535344Y-77185500D01*
X105869850Y-77185500D01*
X105916512Y-77194615D01*
X105956315Y-77220619D01*
X105983406Y-77259690D01*
X105990825Y-77276604D01*
X105990827Y-77276607D01*
X106126836Y-77484785D01*
X106295255Y-77667737D01*
X106295256Y-77667738D01*
X106378008Y-77732147D01*
X106413246Y-77775540D01*
X106425845Y-77830000D01*
X106413246Y-77884460D01*
X106378008Y-77927853D01*
X106295256Y-77992261D01*
X106126837Y-78175214D01*
X105990825Y-78383395D01*
X105983406Y-78400310D01*
X105956315Y-78439381D01*
X105916512Y-78465385D01*
X105869850Y-78474500D01*
X103540453Y-78474500D01*
X103493000Y-78465061D01*
X103452772Y-78438181D01*
X99086819Y-74072228D01*
X99059939Y-74032000D01*
X99050500Y-73984547D01*
X99050500Y-58095452D01*
X99059939Y-58047999D01*
X99086819Y-58007771D01*
X100552772Y-56541819D01*
X100593000Y-56514939D01*
X100640453Y-56505500D01*
X101020812Y-56505500D01*
X101078069Y-56519511D01*
X101122387Y-56558377D01*
X101234953Y-56719140D01*
X101395859Y-56880046D01*
X101582264Y-57010567D01*
X101582265Y-57010567D01*
X101582266Y-57010568D01*
X101788504Y-57106739D01*
X102008308Y-57165635D01*
X102235000Y-57185468D01*
X102461692Y-57165635D01*
X102681496Y-57106739D01*
X102887734Y-57010568D01*
X103074139Y-56880047D01*
X103235047Y-56719139D01*
X103365568Y-56532734D01*
X103461739Y-56326496D01*
X103520635Y-56106692D01*
X103540468Y-55880000D01*
X103520635Y-55653308D01*
X103461739Y-55433504D01*
X103365568Y-55227266D01*
X103347996Y-55202171D01*
X103235046Y-55040859D01*
X103074140Y-54879953D01*
X102887735Y-54749432D01*
X102681497Y-54653261D01*
X102461689Y-54594364D01*
X102235000Y-54574531D01*
X102008310Y-54594364D01*
X101788502Y-54653261D01*
X101582264Y-54749432D01*
X101395859Y-54879953D01*
X101234953Y-55040859D01*
X101122387Y-55201623D01*
X101078069Y-55240489D01*
X101020812Y-55254500D01*
X100412744Y-55254500D01*
X100392237Y-55252235D01*
X100322127Y-55254439D01*
X100318232Y-55254500D01*
X100290650Y-55254500D01*
X100286665Y-55255003D01*
X100275033Y-55255918D01*
X100231369Y-55257290D01*
X100212129Y-55262880D01*
X100193081Y-55266825D01*
X100173209Y-55269335D01*
X100132599Y-55285413D01*
X100121554Y-55289194D01*
X100079610Y-55301381D01*
X100062365Y-55311579D01*
X100044904Y-55320133D01*
X100026267Y-55327512D01*
X99990931Y-55353185D01*
X99981174Y-55359595D01*
X99943580Y-55381829D01*
X99929413Y-55395996D01*
X99914624Y-55408626D01*
X99898413Y-55420404D01*
X99870572Y-55454058D01*
X99862711Y-55462697D01*
X98041208Y-57284199D01*
X98025110Y-57297096D01*
X97977096Y-57348225D01*
X97974391Y-57351017D01*
X97954874Y-57370534D01*
X97952415Y-57373705D01*
X97944842Y-57382572D01*
X97914935Y-57414420D01*
X97905285Y-57431974D01*
X97894609Y-57448228D01*
X97882326Y-57464063D01*
X97864975Y-57504158D01*
X97859838Y-57514644D01*
X97838802Y-57552907D01*
X97833821Y-57572309D01*
X97827520Y-57590711D01*
X97819561Y-57609102D01*
X97812728Y-57652242D01*
X97810360Y-57663674D01*
X97799500Y-57705978D01*
X97799500Y-57726016D01*
X97797973Y-57745415D01*
X97794840Y-57765194D01*
X97798950Y-57808675D01*
X97799500Y-57820344D01*
X97799500Y-74212256D01*
X97797235Y-74232762D01*
X97799439Y-74302873D01*
X97799500Y-74306768D01*
X97799500Y-74334349D01*
X97800003Y-74338334D01*
X97800918Y-74349967D01*
X97802290Y-74393626D01*
X97807879Y-74412860D01*
X97811825Y-74431916D01*
X97814335Y-74451792D01*
X97830414Y-74492404D01*
X97834197Y-74503451D01*
X97846382Y-74545391D01*
X97856580Y-74562635D01*
X97865136Y-74580100D01*
X97872514Y-74598732D01*
X97872515Y-74598733D01*
X97898180Y-74634059D01*
X97904593Y-74643822D01*
X97926826Y-74681416D01*
X97926829Y-74681419D01*
X97926830Y-74681420D01*
X97940995Y-74695585D01*
X97953627Y-74710375D01*
X97965406Y-74726587D01*
X97999058Y-74754426D01*
X98007699Y-74762289D01*
X102729196Y-79483787D01*
X102742096Y-79499888D01*
X102793223Y-79547900D01*
X102796020Y-79550611D01*
X102815529Y-79570120D01*
X102818711Y-79572588D01*
X102827571Y-79580155D01*
X102845644Y-79597127D01*
X102859418Y-79610062D01*
X102876970Y-79619711D01*
X102893238Y-79630397D01*
X102909064Y-79642673D01*
X102949146Y-79660017D01*
X102959633Y-79665155D01*
X102997907Y-79686197D01*
X103006410Y-79688379D01*
X103017308Y-79691178D01*
X103035713Y-79697478D01*
X103054104Y-79705437D01*
X103097250Y-79712270D01*
X103108668Y-79714635D01*
X103150981Y-79725500D01*
X103171016Y-79725500D01*
X103190415Y-79727027D01*
X103210196Y-79730160D01*
X103253674Y-79726050D01*
X103265344Y-79725500D01*
X105869850Y-79725500D01*
X105916512Y-79734615D01*
X105956315Y-79760619D01*
X105983406Y-79799690D01*
X105990825Y-79816604D01*
X105990827Y-79816607D01*
X106126836Y-80024785D01*
X106285461Y-80197098D01*
X106295256Y-80207738D01*
X106378008Y-80272147D01*
X106413246Y-80315540D01*
X106425845Y-80370000D01*
X106413246Y-80424460D01*
X106378008Y-80467853D01*
X106295256Y-80532261D01*
X106126837Y-80715214D01*
X105990825Y-80923395D01*
X105923949Y-81075859D01*
X105890937Y-81151119D01*
X105851508Y-81306819D01*
X105829891Y-81392183D01*
X105809356Y-81640000D01*
X105829891Y-81887816D01*
X105829891Y-81887819D01*
X105829892Y-81887821D01*
X105890937Y-82128881D01*
X105912427Y-82177873D01*
X105990825Y-82356604D01*
X105990827Y-82356607D01*
X106126836Y-82564785D01*
X106262941Y-82712634D01*
X106295256Y-82747738D01*
X106378008Y-82812147D01*
X106413246Y-82855540D01*
X106425845Y-82910000D01*
X106413246Y-82964460D01*
X106378008Y-83007853D01*
X106295256Y-83072261D01*
X106126837Y-83255214D01*
X105990825Y-83463395D01*
X105890938Y-83691117D01*
X105829891Y-83932183D01*
X105809356Y-84180000D01*
X105829891Y-84427816D01*
X105829891Y-84427819D01*
X105829892Y-84427821D01*
X105890937Y-84668881D01*
X105900817Y-84691404D01*
X105990825Y-84896604D01*
X105990827Y-84896607D01*
X106126836Y-85104785D01*
X106207013Y-85191880D01*
X106295256Y-85287738D01*
X106378008Y-85352147D01*
X106413246Y-85395540D01*
X106425845Y-85450000D01*
X106413246Y-85504460D01*
X106378008Y-85547853D01*
X106295256Y-85612261D01*
X106126837Y-85795214D01*
X105990825Y-86003395D01*
X105983406Y-86020310D01*
X105956315Y-86059381D01*
X105916512Y-86085385D01*
X105869850Y-86094500D01*
X100052744Y-86094500D01*
X100032237Y-86092235D01*
X99962127Y-86094439D01*
X99958232Y-86094500D01*
X99930650Y-86094500D01*
X99926665Y-86095003D01*
X99915033Y-86095918D01*
X99871369Y-86097290D01*
X99852129Y-86102880D01*
X99833081Y-86106825D01*
X99813209Y-86109335D01*
X99772599Y-86125413D01*
X99761554Y-86129194D01*
X99719610Y-86141381D01*
X99702365Y-86151579D01*
X99684904Y-86160133D01*
X99666267Y-86167512D01*
X99630931Y-86193185D01*
X99621174Y-86199595D01*
X99583580Y-86221829D01*
X99569413Y-86235996D01*
X99554624Y-86248626D01*
X99538413Y-86260404D01*
X99510572Y-86294058D01*
X99502711Y-86302697D01*
X90446208Y-95359199D01*
X90430110Y-95372096D01*
X90382096Y-95423225D01*
X90379391Y-95426017D01*
X90359874Y-95445534D01*
X90357415Y-95448705D01*
X90349842Y-95457572D01*
X90319935Y-95489420D01*
X90310285Y-95506974D01*
X90299609Y-95523228D01*
X90287326Y-95539063D01*
X90269975Y-95579158D01*
X90264838Y-95589644D01*
X90243802Y-95627907D01*
X90238821Y-95647309D01*
X90232520Y-95665711D01*
X90224561Y-95684102D01*
X90217728Y-95727242D01*
X90215360Y-95738674D01*
X90204500Y-95780978D01*
X90204500Y-95801016D01*
X90202973Y-95820415D01*
X90199840Y-95840194D01*
X90203950Y-95883675D01*
X90204500Y-95895344D01*
X90204500Y-101655812D01*
X90190489Y-101713069D01*
X90151623Y-101757387D01*
X89990859Y-101869953D01*
X89829953Y-102030859D01*
X89699432Y-102217264D01*
X89603261Y-102423502D01*
X89544364Y-102643310D01*
X89524531Y-102870000D01*
X82910500Y-102870000D01*
X82910500Y-81868610D01*
X88674942Y-81868610D01*
X88721766Y-81905055D01*
X88940393Y-82023368D01*
X89175506Y-82104083D01*
X89420707Y-82145000D01*
X89669293Y-82145000D01*
X89914493Y-82104083D01*
X90149606Y-82023368D01*
X90368233Y-81905053D01*
X90415056Y-81868609D01*
X90239316Y-81692869D01*
X95644500Y-81692869D01*
X95650909Y-81752483D01*
X95701204Y-81887331D01*
X95787454Y-82002546D01*
X95902669Y-82088796D01*
X96037517Y-82139091D01*
X96097127Y-82145500D01*
X98192872Y-82145499D01*
X98252483Y-82139091D01*
X98387331Y-82088796D01*
X98502546Y-82002546D01*
X98588796Y-81887331D01*
X98639091Y-81752483D01*
X98645500Y-81692873D01*
X98645500Y-81394500D01*
X98662113Y-81332500D01*
X98707500Y-81287113D01*
X98769500Y-81270500D01*
X100654548Y-81270500D01*
X100702001Y-81279939D01*
X100742229Y-81306819D01*
X100935586Y-81500177D01*
X100967680Y-81555764D01*
X100967680Y-81619950D01*
X100949364Y-81688307D01*
X100929531Y-81915000D01*
X100949364Y-82141689D01*
X101008261Y-82361497D01*
X101104432Y-82567735D01*
X101234953Y-82754140D01*
X101395859Y-82915046D01*
X101582264Y-83045567D01*
X101582265Y-83045567D01*
X101582266Y-83045568D01*
X101788504Y-83141739D01*
X102008308Y-83200635D01*
X102159436Y-83213857D01*
X102234999Y-83220468D01*
X102234999Y-83220467D01*
X102235000Y-83220468D01*
X102461692Y-83200635D01*
X102681496Y-83141739D01*
X102887734Y-83045568D01*
X103074139Y-82915047D01*
X103235047Y-82754139D01*
X103365568Y-82567734D01*
X103461739Y-82361496D01*
X103520635Y-82141692D01*
X103540468Y-81915000D01*
X103520635Y-81688308D01*
X103461739Y-81468504D01*
X103365568Y-81262266D01*
X103287741Y-81151117D01*
X103235046Y-81075859D01*
X103074140Y-80914953D01*
X102887735Y-80784432D01*
X102681497Y-80688261D01*
X102461689Y-80629364D01*
X102235000Y-80609531D01*
X102008307Y-80629364D01*
X101939950Y-80647680D01*
X101875764Y-80647680D01*
X101820177Y-80615586D01*
X101465802Y-80261211D01*
X101452906Y-80245113D01*
X101401775Y-80197098D01*
X101398978Y-80194387D01*
X101379470Y-80174879D01*
X101376290Y-80172412D01*
X101367424Y-80164839D01*
X101335582Y-80134938D01*
X101318024Y-80125285D01*
X101301764Y-80114604D01*
X101285936Y-80102327D01*
X101245851Y-80084980D01*
X101235361Y-80079841D01*
X101197091Y-80058802D01*
X101177691Y-80053821D01*
X101159284Y-80047519D01*
X101140897Y-80039562D01*
X101097758Y-80032729D01*
X101086324Y-80030361D01*
X101044019Y-80019500D01*
X101023984Y-80019500D01*
X101004586Y-80017973D01*
X100997162Y-80016797D01*
X100984805Y-80014840D01*
X100984804Y-80014840D01*
X100951751Y-80017964D01*
X100941325Y-80018950D01*
X100929656Y-80019500D01*
X98769499Y-80019500D01*
X98707499Y-80002887D01*
X98662112Y-79957500D01*
X98645499Y-79895500D01*
X98645499Y-79597130D01*
X98645499Y-79597127D01*
X98639091Y-79537517D01*
X98588796Y-79402669D01*
X98502546Y-79287454D01*
X98387331Y-79201204D01*
X98252483Y-79150909D01*
X98192873Y-79144500D01*
X98192869Y-79144500D01*
X96097130Y-79144500D01*
X96037515Y-79150909D01*
X95902669Y-79201204D01*
X95787454Y-79287454D01*
X95701204Y-79402668D01*
X95650909Y-79537515D01*
X95650909Y-79537517D01*
X95645387Y-79588882D01*
X95644500Y-79597130D01*
X95644500Y-81692869D01*
X90239316Y-81692869D01*
X89545000Y-80998553D01*
X88674942Y-81868609D01*
X88674942Y-81868610D01*
X82910500Y-81868610D01*
X82910500Y-80644999D01*
X88039858Y-80644999D01*
X88060386Y-80892732D01*
X88121413Y-81133721D01*
X88221268Y-81361370D01*
X88321563Y-81514882D01*
X88321564Y-81514882D01*
X89191447Y-80645001D01*
X89898553Y-80645001D01*
X90768434Y-81514882D01*
X90868730Y-81361369D01*
X90968586Y-81133721D01*
X91029613Y-80892732D01*
X91050141Y-80644999D01*
X91029613Y-80397267D01*
X90968586Y-80156278D01*
X90868730Y-79928630D01*
X90768434Y-79775116D01*
X89898553Y-80645000D01*
X89898553Y-80645001D01*
X89191447Y-80645001D01*
X89191447Y-80645000D01*
X88321564Y-79775116D01*
X88221266Y-79928634D01*
X88121413Y-80156278D01*
X88060386Y-80397267D01*
X88039858Y-80644999D01*
X82910500Y-80644999D01*
X82910500Y-79421390D01*
X88674942Y-79421390D01*
X89545000Y-80291447D01*
X89545001Y-80291447D01*
X90415057Y-79421390D01*
X90415056Y-79421388D01*
X90368235Y-79384947D01*
X90149606Y-79266631D01*
X89914493Y-79185916D01*
X89669293Y-79145000D01*
X89420707Y-79145000D01*
X89175506Y-79185916D01*
X88940393Y-79266631D01*
X88721764Y-79384946D01*
X88674942Y-79421388D01*
X88674942Y-79421390D01*
X82910500Y-79421390D01*
X82910500Y-61857869D01*
X88184500Y-61857869D01*
X88190666Y-61915223D01*
X88190909Y-61917483D01*
X88241204Y-62052331D01*
X88327454Y-62167546D01*
X88442669Y-62253796D01*
X88577517Y-62304091D01*
X88637127Y-62310500D01*
X90432872Y-62310499D01*
X90492483Y-62304091D01*
X90627331Y-62253796D01*
X90742546Y-62167546D01*
X90828796Y-62052331D01*
X90879091Y-61917483D01*
X90885500Y-61857873D01*
X90885500Y-61709500D01*
X90902113Y-61647500D01*
X90947500Y-61602113D01*
X91009500Y-61585500D01*
X93400812Y-61585500D01*
X93458069Y-61599511D01*
X93502387Y-61638377D01*
X93614953Y-61799140D01*
X93775859Y-61960046D01*
X93962264Y-62090567D01*
X93962265Y-62090567D01*
X93962266Y-62090568D01*
X94168504Y-62186739D01*
X94388308Y-62245635D01*
X94615000Y-62265468D01*
X94841692Y-62245635D01*
X95061496Y-62186739D01*
X95267734Y-62090568D01*
X95454139Y-61960047D01*
X95615047Y-61799139D01*
X95745568Y-61612734D01*
X95841739Y-61406496D01*
X95900635Y-61186692D01*
X95920468Y-60960000D01*
X95900635Y-60733308D01*
X95841739Y-60513504D01*
X95745568Y-60307266D01*
X95679045Y-60212261D01*
X95615046Y-60120859D01*
X95454140Y-59959953D01*
X95267735Y-59829432D01*
X95061497Y-59733261D01*
X94841689Y-59674364D01*
X94615000Y-59654531D01*
X94388310Y-59674364D01*
X94168502Y-59733261D01*
X93962264Y-59829432D01*
X93775859Y-59959953D01*
X93614953Y-60120859D01*
X93502387Y-60281623D01*
X93458069Y-60320489D01*
X93400812Y-60334500D01*
X91009499Y-60334500D01*
X90947499Y-60317887D01*
X90902112Y-60272500D01*
X90885499Y-60210500D01*
X90885499Y-60062130D01*
X90883171Y-60040474D01*
X90879091Y-60002517D01*
X90828796Y-59867669D01*
X90742546Y-59752454D01*
X90627331Y-59666204D01*
X90495399Y-59616996D01*
X90445021Y-59582018D01*
X90417568Y-59527173D01*
X90419757Y-59465880D01*
X90451053Y-59413133D01*
X90573109Y-59291077D01*
X90708600Y-59097576D01*
X90808430Y-58883492D01*
X90865636Y-58670000D01*
X88204364Y-58670000D01*
X88261569Y-58883492D01*
X88361399Y-59097576D01*
X88496893Y-59291081D01*
X88618946Y-59413134D01*
X88650242Y-59465880D01*
X88652431Y-59527173D01*
X88624978Y-59582018D01*
X88574599Y-59616997D01*
X88442669Y-59666204D01*
X88327454Y-59752454D01*
X88241204Y-59867668D01*
X88190909Y-60002516D01*
X88184500Y-60062130D01*
X88184500Y-61857869D01*
X82910500Y-61857869D01*
X82910500Y-55880000D01*
X88179340Y-55880000D01*
X88199936Y-56115407D01*
X88233321Y-56240000D01*
X88261097Y-56343663D01*
X88360965Y-56557830D01*
X88496505Y-56751401D01*
X88663599Y-56918495D01*
X88849597Y-57048732D01*
X88888460Y-57093048D01*
X88902471Y-57150305D01*
X88888461Y-57207561D01*
X88849595Y-57251880D01*
X88663919Y-57381892D01*
X88496890Y-57548921D01*
X88361400Y-57742421D01*
X88261569Y-57956507D01*
X88204364Y-58169999D01*
X88204364Y-58170000D01*
X90865636Y-58170000D01*
X90865635Y-58169999D01*
X90808430Y-57956507D01*
X90708599Y-57742421D01*
X90573109Y-57548921D01*
X90406081Y-57381893D01*
X90220404Y-57251880D01*
X90181539Y-57207562D01*
X90167528Y-57150305D01*
X90181539Y-57093048D01*
X90220402Y-57048732D01*
X90406401Y-56918495D01*
X90573495Y-56751401D01*
X90708653Y-56558374D01*
X90752970Y-56519511D01*
X90810227Y-56505500D01*
X93400812Y-56505500D01*
X93458069Y-56519511D01*
X93502387Y-56558377D01*
X93614953Y-56719140D01*
X93775859Y-56880046D01*
X93962264Y-57010567D01*
X93962265Y-57010567D01*
X93962266Y-57010568D01*
X94168504Y-57106739D01*
X94388308Y-57165635D01*
X94615000Y-57185468D01*
X94841692Y-57165635D01*
X95061496Y-57106739D01*
X95267734Y-57010568D01*
X95454139Y-56880047D01*
X95615047Y-56719139D01*
X95745568Y-56532734D01*
X95841739Y-56326496D01*
X95900635Y-56106692D01*
X95920468Y-55880000D01*
X95900635Y-55653308D01*
X95841739Y-55433504D01*
X95745568Y-55227266D01*
X95727996Y-55202171D01*
X95615046Y-55040859D01*
X95454140Y-54879953D01*
X95267735Y-54749432D01*
X95061497Y-54653261D01*
X94841689Y-54594364D01*
X94615000Y-54574531D01*
X94388310Y-54594364D01*
X94168502Y-54653261D01*
X93962264Y-54749432D01*
X93775859Y-54879953D01*
X93614953Y-55040859D01*
X93502387Y-55201623D01*
X93458069Y-55240489D01*
X93400812Y-55254500D01*
X90810226Y-55254500D01*
X90752969Y-55240489D01*
X90708651Y-55201623D01*
X90703377Y-55194091D01*
X90573495Y-55008599D01*
X90406401Y-54841505D01*
X90220839Y-54711573D01*
X90181974Y-54667255D01*
X90167964Y-54609999D01*
X90181975Y-54552742D01*
X90220837Y-54508428D01*
X90406401Y-54378495D01*
X90573495Y-54211401D01*
X90709035Y-54017830D01*
X90808903Y-53803663D01*
X90870063Y-53575408D01*
X90890659Y-53340000D01*
X90870063Y-53104592D01*
X90843143Y-53004126D01*
X90843143Y-52939939D01*
X90875235Y-52884353D01*
X92297771Y-51461819D01*
X92338000Y-51434939D01*
X92385453Y-51425500D01*
X93400812Y-51425500D01*
X93458069Y-51439511D01*
X93502387Y-51478377D01*
X93614953Y-51639140D01*
X93775859Y-51800046D01*
X93962264Y-51930567D01*
X93962265Y-51930567D01*
X93962266Y-51930568D01*
X94168504Y-52026739D01*
X94388308Y-52085635D01*
X94615000Y-52105468D01*
X94841692Y-52085635D01*
X95061496Y-52026739D01*
X95267734Y-51930568D01*
X95454139Y-51800047D01*
X95615047Y-51639139D01*
X95745568Y-51452734D01*
X95841739Y-51246496D01*
X95900635Y-51026692D01*
X95920468Y-50800000D01*
X95900635Y-50573308D01*
X95841739Y-50353504D01*
X95745568Y-50147266D01*
X95615047Y-49960861D01*
X95615046Y-49960859D01*
X95454140Y-49799953D01*
X95267735Y-49669432D01*
X95061497Y-49573261D01*
X94841689Y-49514364D01*
X94615000Y-49494531D01*
X94388310Y-49514364D01*
X94168502Y-49573261D01*
X93962264Y-49669432D01*
X93775859Y-49799953D01*
X93614953Y-49960859D01*
X93502387Y-50121623D01*
X93458069Y-50160489D01*
X93400812Y-50174500D01*
X92157740Y-50174500D01*
X92137236Y-50172236D01*
X92067144Y-50174439D01*
X92063250Y-50174500D01*
X92035648Y-50174500D01*
X92031653Y-50175004D01*
X92020029Y-50175918D01*
X91976368Y-50177290D01*
X91957129Y-50182880D01*
X91938080Y-50186825D01*
X91918208Y-50189335D01*
X91877593Y-50205415D01*
X91866549Y-50209196D01*
X91824611Y-50221382D01*
X91807364Y-50231581D01*
X91789900Y-50240136D01*
X91771267Y-50247514D01*
X91735926Y-50273189D01*
X91726168Y-50279599D01*
X91688579Y-50301829D01*
X91674410Y-50315998D01*
X91659622Y-50328628D01*
X91643413Y-50340405D01*
X91615572Y-50374058D01*
X91607711Y-50382696D01*
X89990646Y-51999761D01*
X89935059Y-52031855D01*
X89870873Y-52031855D01*
X89770408Y-52004936D01*
X89534999Y-51984340D01*
X89299592Y-52004936D01*
X89071336Y-52066097D01*
X88857170Y-52165965D01*
X88663598Y-52301505D01*
X88496505Y-52468598D01*
X88360965Y-52662170D01*
X88261097Y-52876336D01*
X88199936Y-53104592D01*
X88179340Y-53339999D01*
X88199936Y-53575407D01*
X88233321Y-53700000D01*
X88261097Y-53803663D01*
X88360965Y-54017830D01*
X88496505Y-54211401D01*
X88663599Y-54378495D01*
X88849160Y-54508426D01*
X88888024Y-54552743D01*
X88902035Y-54610000D01*
X88888024Y-54667257D01*
X88849160Y-54711574D01*
X88711824Y-54807738D01*
X88663595Y-54841508D01*
X88496505Y-55008598D01*
X88360965Y-55202170D01*
X88261097Y-55416336D01*
X88199936Y-55644592D01*
X88179340Y-55880000D01*
X82910500Y-55880000D01*
X82910500Y-45871182D01*
X105984500Y-45871182D01*
X106023604Y-46130615D01*
X106100937Y-46381323D01*
X106214772Y-46617704D01*
X106350766Y-46817170D01*
X106362571Y-46834485D01*
X106541015Y-47026801D01*
X106541019Y-47026805D01*
X106746143Y-47190386D01*
X106973357Y-47321568D01*
X107141550Y-47387579D01*
X107190129Y-47406645D01*
X107217584Y-47417420D01*
X107473370Y-47475802D01*
X107529408Y-47480001D01*
X107669501Y-47490500D01*
X107669506Y-47490500D01*
X107800494Y-47490500D01*
X107800499Y-47490500D01*
X107923079Y-47481313D01*
X107996630Y-47475802D01*
X108252416Y-47417420D01*
X108496643Y-47321568D01*
X108723857Y-47190386D01*
X108928981Y-47026805D01*
X109028273Y-46919792D01*
X109107428Y-46834485D01*
X109107429Y-46834482D01*
X109107433Y-46834479D01*
X109255228Y-46617704D01*
X109369063Y-46381323D01*
X109446396Y-46130615D01*
X109485500Y-45871182D01*
X130494500Y-45871182D01*
X130533604Y-46130615D01*
X130610937Y-46381323D01*
X130724772Y-46617704D01*
X130860766Y-46817170D01*
X130872571Y-46834485D01*
X131051015Y-47026801D01*
X131051019Y-47026805D01*
X131256143Y-47190386D01*
X131483357Y-47321568D01*
X131651550Y-47387579D01*
X131700129Y-47406645D01*
X131727584Y-47417420D01*
X131983370Y-47475802D01*
X132039408Y-47480001D01*
X132179501Y-47490500D01*
X132179506Y-47490500D01*
X132310494Y-47490500D01*
X132310499Y-47490500D01*
X132433079Y-47481313D01*
X132506630Y-47475802D01*
X132762416Y-47417420D01*
X133006643Y-47321568D01*
X133233857Y-47190386D01*
X133438981Y-47026805D01*
X133538273Y-46919792D01*
X133617428Y-46834485D01*
X133617429Y-46834482D01*
X133617433Y-46834479D01*
X133765228Y-46617704D01*
X133879063Y-46381323D01*
X133956396Y-46130615D01*
X133995500Y-45871182D01*
X133995500Y-45608818D01*
X133956396Y-45349385D01*
X133879063Y-45098677D01*
X133765228Y-44862296D01*
X133617433Y-44645521D01*
X133617432Y-44645520D01*
X133617428Y-44645514D01*
X133438984Y-44453198D01*
X133438983Y-44453197D01*
X133438981Y-44453195D01*
X133233857Y-44289614D01*
X133233856Y-44289613D01*
X133006641Y-44158431D01*
X132762418Y-44062580D01*
X132506627Y-44004197D01*
X132310499Y-43989500D01*
X132310494Y-43989500D01*
X132179506Y-43989500D01*
X132179501Y-43989500D01*
X131983372Y-44004197D01*
X131727581Y-44062580D01*
X131483358Y-44158431D01*
X131256143Y-44289613D01*
X131051015Y-44453198D01*
X130872571Y-44645514D01*
X130867351Y-44653171D01*
X130724772Y-44862296D01*
X130610937Y-45098677D01*
X130533604Y-45349385D01*
X130494500Y-45608818D01*
X130494500Y-45871182D01*
X109485500Y-45871182D01*
X109485500Y-45608818D01*
X109446396Y-45349385D01*
X109369063Y-45098677D01*
X109255228Y-44862296D01*
X109107433Y-44645521D01*
X109107432Y-44645520D01*
X109107428Y-44645514D01*
X108928984Y-44453198D01*
X108928983Y-44453197D01*
X108928981Y-44453195D01*
X108723857Y-44289614D01*
X108723856Y-44289613D01*
X108496641Y-44158431D01*
X108252418Y-44062580D01*
X107996627Y-44004197D01*
X107800499Y-43989500D01*
X107800494Y-43989500D01*
X107669506Y-43989500D01*
X107669501Y-43989500D01*
X107473372Y-44004197D01*
X107217581Y-44062580D01*
X106973358Y-44158431D01*
X106746143Y-44289613D01*
X106541015Y-44453198D01*
X106362571Y-44645514D01*
X106357351Y-44653171D01*
X106214772Y-44862296D01*
X106100937Y-45098677D01*
X106023604Y-45349385D01*
X105984500Y-45608818D01*
X105984500Y-45871182D01*
X82910500Y-45871182D01*
X82910500Y-40254500D01*
X82927113Y-40192500D01*
X82972500Y-40147113D01*
X83034500Y-40130500D01*
X168785500Y-40130500D01*
X168847500Y-40147113D01*
G37*
%TD.AperFunction*%
%TD*%
M02*
