%TF.GenerationSoftware,KiCad,Pcbnew,7.0.1*%
%TF.CreationDate,2023-12-09T17:11:34+05:30*%
%TF.ProjectId,hologlyph bot circuit,686f6c6f-676c-4797-9068-20626f742063,rev?*%
%TF.SameCoordinates,Original*%
%TF.FileFunction,Legend,Bot*%
%TF.FilePolarity,Positive*%
%FSLAX46Y46*%
G04 Gerber Fmt 4.6, Leading zero omitted, Abs format (unit mm)*
G04 Created by KiCad (PCBNEW 7.0.1) date 2023-12-09 17:11:34*
%MOMM*%
%LPD*%
G01*
G04 APERTURE LIST*
%ADD10C,0.150000*%
G04 APERTURE END LIST*
D10*
X152400000Y-66040000D02*
X152400000Y-77470000D01*
X134620000Y-66040000D02*
X152400000Y-66040000D01*
X149860000Y-68580000D02*
X149860000Y-77470000D01*
X134620000Y-68580000D02*
X149860000Y-68580000D01*
X147320000Y-71120000D02*
X147320000Y-77470000D01*
X134620000Y-71120000D02*
X147320000Y-71120000D01*
X144780000Y-73660000D02*
X144780000Y-77470000D01*
X134620000Y-73660000D02*
X144780000Y-73660000D01*
X154687811Y-122353850D02*
X155259239Y-122353850D01*
X154973525Y-122353850D02*
X154973525Y-121353850D01*
X154973525Y-121353850D02*
X155068763Y-121496707D01*
X155068763Y-121496707D02*
X155164001Y-121591945D01*
X155164001Y-121591945D02*
X155259239Y-121639564D01*
X154306858Y-121449088D02*
X154259239Y-121401469D01*
X154259239Y-121401469D02*
X154164001Y-121353850D01*
X154164001Y-121353850D02*
X153925906Y-121353850D01*
X153925906Y-121353850D02*
X153830668Y-121401469D01*
X153830668Y-121401469D02*
X153783049Y-121449088D01*
X153783049Y-121449088D02*
X153735430Y-121544326D01*
X153735430Y-121544326D02*
X153735430Y-121639564D01*
X153735430Y-121639564D02*
X153783049Y-121782421D01*
X153783049Y-121782421D02*
X154354477Y-122353850D01*
X154354477Y-122353850D02*
X153735430Y-122353850D01*
X153449715Y-121353850D02*
X153116382Y-122353850D01*
X153116382Y-122353850D02*
X152783049Y-121353850D01*
X154757797Y-99565957D02*
X154853035Y-99518338D01*
X154853035Y-99518338D02*
X154995892Y-99518338D01*
X154995892Y-99518338D02*
X155138749Y-99565957D01*
X155138749Y-99565957D02*
X155233987Y-99661195D01*
X155233987Y-99661195D02*
X155281606Y-99756433D01*
X155281606Y-99756433D02*
X155329225Y-99946909D01*
X155329225Y-99946909D02*
X155329225Y-100089766D01*
X155329225Y-100089766D02*
X155281606Y-100280242D01*
X155281606Y-100280242D02*
X155233987Y-100375480D01*
X155233987Y-100375480D02*
X155138749Y-100470719D01*
X155138749Y-100470719D02*
X154995892Y-100518338D01*
X154995892Y-100518338D02*
X154900654Y-100518338D01*
X154900654Y-100518338D02*
X154757797Y-100470719D01*
X154757797Y-100470719D02*
X154710178Y-100423099D01*
X154710178Y-100423099D02*
X154710178Y-100089766D01*
X154710178Y-100089766D02*
X154900654Y-100089766D01*
X154281606Y-99851671D02*
X154281606Y-100518338D01*
X154281606Y-99946909D02*
X154233987Y-99899290D01*
X154233987Y-99899290D02*
X154138749Y-99851671D01*
X154138749Y-99851671D02*
X153995892Y-99851671D01*
X153995892Y-99851671D02*
X153900654Y-99899290D01*
X153900654Y-99899290D02*
X153853035Y-99994528D01*
X153853035Y-99994528D02*
X153853035Y-100518338D01*
X152948273Y-100518338D02*
X152948273Y-99518338D01*
X152948273Y-100470719D02*
X153043511Y-100518338D01*
X153043511Y-100518338D02*
X153233987Y-100518338D01*
X153233987Y-100518338D02*
X153329225Y-100470719D01*
X153329225Y-100470719D02*
X153376844Y-100423099D01*
X153376844Y-100423099D02*
X153424463Y-100327861D01*
X153424463Y-100327861D02*
X153424463Y-100042147D01*
X153424463Y-100042147D02*
X153376844Y-99946909D01*
X153376844Y-99946909D02*
X153329225Y-99899290D01*
X153329225Y-99899290D02*
X153233987Y-99851671D01*
X153233987Y-99851671D02*
X153043511Y-99851671D01*
X153043511Y-99851671D02*
X152948273Y-99899290D01*
X151710177Y-100518338D02*
X151710177Y-99518338D01*
X151710177Y-99518338D02*
X151329225Y-99518338D01*
X151329225Y-99518338D02*
X151233987Y-99565957D01*
X151233987Y-99565957D02*
X151186368Y-99613576D01*
X151186368Y-99613576D02*
X151138749Y-99708814D01*
X151138749Y-99708814D02*
X151138749Y-99851671D01*
X151138749Y-99851671D02*
X151186368Y-99946909D01*
X151186368Y-99946909D02*
X151233987Y-99994528D01*
X151233987Y-99994528D02*
X151329225Y-100042147D01*
X151329225Y-100042147D02*
X151710177Y-100042147D01*
X150805415Y-99851671D02*
X150614939Y-100518338D01*
X150614939Y-100518338D02*
X150424463Y-100042147D01*
X150424463Y-100042147D02*
X150233987Y-100518338D01*
X150233987Y-100518338D02*
X150043511Y-99851671D01*
X149662558Y-100518338D02*
X149662558Y-99851671D01*
X149662558Y-100042147D02*
X149614939Y-99946909D01*
X149614939Y-99946909D02*
X149567320Y-99899290D01*
X149567320Y-99899290D02*
X149472082Y-99851671D01*
X149472082Y-99851671D02*
X149376844Y-99851671D01*
X110946800Y-99985870D02*
X111042038Y-99938251D01*
X111042038Y-99938251D02*
X111184895Y-99938251D01*
X111184895Y-99938251D02*
X111327752Y-99985870D01*
X111327752Y-99985870D02*
X111422990Y-100081108D01*
X111422990Y-100081108D02*
X111470609Y-100176346D01*
X111470609Y-100176346D02*
X111518228Y-100366822D01*
X111518228Y-100366822D02*
X111518228Y-100509679D01*
X111518228Y-100509679D02*
X111470609Y-100700155D01*
X111470609Y-100700155D02*
X111422990Y-100795393D01*
X111422990Y-100795393D02*
X111327752Y-100890632D01*
X111327752Y-100890632D02*
X111184895Y-100938251D01*
X111184895Y-100938251D02*
X111089657Y-100938251D01*
X111089657Y-100938251D02*
X110946800Y-100890632D01*
X110946800Y-100890632D02*
X110899181Y-100843012D01*
X110899181Y-100843012D02*
X110899181Y-100509679D01*
X110899181Y-100509679D02*
X111089657Y-100509679D01*
X110470609Y-100271584D02*
X110470609Y-100938251D01*
X110470609Y-100366822D02*
X110422990Y-100319203D01*
X110422990Y-100319203D02*
X110327752Y-100271584D01*
X110327752Y-100271584D02*
X110184895Y-100271584D01*
X110184895Y-100271584D02*
X110089657Y-100319203D01*
X110089657Y-100319203D02*
X110042038Y-100414441D01*
X110042038Y-100414441D02*
X110042038Y-100938251D01*
X109137276Y-100938251D02*
X109137276Y-99938251D01*
X109137276Y-100890632D02*
X109232514Y-100938251D01*
X109232514Y-100938251D02*
X109422990Y-100938251D01*
X109422990Y-100938251D02*
X109518228Y-100890632D01*
X109518228Y-100890632D02*
X109565847Y-100843012D01*
X109565847Y-100843012D02*
X109613466Y-100747774D01*
X109613466Y-100747774D02*
X109613466Y-100462060D01*
X109613466Y-100462060D02*
X109565847Y-100366822D01*
X109565847Y-100366822D02*
X109518228Y-100319203D01*
X109518228Y-100319203D02*
X109422990Y-100271584D01*
X109422990Y-100271584D02*
X109232514Y-100271584D01*
X109232514Y-100271584D02*
X109137276Y-100319203D01*
X111680566Y-121902912D02*
X110918662Y-121902912D01*
X111299614Y-122283865D02*
X111299614Y-121521960D01*
X109966281Y-121283865D02*
X110442471Y-121283865D01*
X110442471Y-121283865D02*
X110490090Y-121760055D01*
X110490090Y-121760055D02*
X110442471Y-121712436D01*
X110442471Y-121712436D02*
X110347233Y-121664817D01*
X110347233Y-121664817D02*
X110109138Y-121664817D01*
X110109138Y-121664817D02*
X110013900Y-121712436D01*
X110013900Y-121712436D02*
X109966281Y-121760055D01*
X109966281Y-121760055D02*
X109918662Y-121855293D01*
X109918662Y-121855293D02*
X109918662Y-122093388D01*
X109918662Y-122093388D02*
X109966281Y-122188626D01*
X109966281Y-122188626D02*
X110013900Y-122236246D01*
X110013900Y-122236246D02*
X110109138Y-122283865D01*
X110109138Y-122283865D02*
X110347233Y-122283865D01*
X110347233Y-122283865D02*
X110442471Y-122236246D01*
X110442471Y-122236246D02*
X110490090Y-122188626D01*
X109632947Y-121283865D02*
X109299614Y-122283865D01*
X109299614Y-122283865D02*
X108966281Y-121283865D01*
X153034307Y-96553033D02*
X152034307Y-96314938D01*
X152034307Y-96314938D02*
X152748593Y-96124462D01*
X152748593Y-96124462D02*
X152034307Y-95933986D01*
X152034307Y-95933986D02*
X153034307Y-95695891D01*
X152034307Y-95314938D02*
X153034307Y-95314938D01*
X152034307Y-94886367D02*
X152558117Y-94886367D01*
X152558117Y-94886367D02*
X152653355Y-94933986D01*
X152653355Y-94933986D02*
X152700974Y-95029224D01*
X152700974Y-95029224D02*
X152700974Y-95172081D01*
X152700974Y-95172081D02*
X152653355Y-95267319D01*
X152653355Y-95267319D02*
X152605736Y-95314938D01*
X152081927Y-94029224D02*
X152034307Y-94124462D01*
X152034307Y-94124462D02*
X152034307Y-94314938D01*
X152034307Y-94314938D02*
X152081927Y-94410176D01*
X152081927Y-94410176D02*
X152177165Y-94457795D01*
X152177165Y-94457795D02*
X152558117Y-94457795D01*
X152558117Y-94457795D02*
X152653355Y-94410176D01*
X152653355Y-94410176D02*
X152700974Y-94314938D01*
X152700974Y-94314938D02*
X152700974Y-94124462D01*
X152700974Y-94124462D02*
X152653355Y-94029224D01*
X152653355Y-94029224D02*
X152558117Y-93981605D01*
X152558117Y-93981605D02*
X152462879Y-93981605D01*
X152462879Y-93981605D02*
X152367641Y-94457795D01*
X152081927Y-93172081D02*
X152034307Y-93267319D01*
X152034307Y-93267319D02*
X152034307Y-93457795D01*
X152034307Y-93457795D02*
X152081927Y-93553033D01*
X152081927Y-93553033D02*
X152177165Y-93600652D01*
X152177165Y-93600652D02*
X152558117Y-93600652D01*
X152558117Y-93600652D02*
X152653355Y-93553033D01*
X152653355Y-93553033D02*
X152700974Y-93457795D01*
X152700974Y-93457795D02*
X152700974Y-93267319D01*
X152700974Y-93267319D02*
X152653355Y-93172081D01*
X152653355Y-93172081D02*
X152558117Y-93124462D01*
X152558117Y-93124462D02*
X152462879Y-93124462D01*
X152462879Y-93124462D02*
X152367641Y-93600652D01*
X152034307Y-92553033D02*
X152081927Y-92648271D01*
X152081927Y-92648271D02*
X152177165Y-92695890D01*
X152177165Y-92695890D02*
X153034307Y-92695890D01*
X152034307Y-90838747D02*
X152510498Y-91172080D01*
X152034307Y-91410175D02*
X153034307Y-91410175D01*
X153034307Y-91410175D02*
X153034307Y-91029223D01*
X153034307Y-91029223D02*
X152986688Y-90933985D01*
X152986688Y-90933985D02*
X152939069Y-90886366D01*
X152939069Y-90886366D02*
X152843831Y-90838747D01*
X152843831Y-90838747D02*
X152700974Y-90838747D01*
X152700974Y-90838747D02*
X152605736Y-90886366D01*
X152605736Y-90886366D02*
X152558117Y-90933985D01*
X152558117Y-90933985D02*
X152510498Y-91029223D01*
X152510498Y-91029223D02*
X152510498Y-91410175D01*
X152081927Y-90029223D02*
X152034307Y-90124461D01*
X152034307Y-90124461D02*
X152034307Y-90314937D01*
X152034307Y-90314937D02*
X152081927Y-90410175D01*
X152081927Y-90410175D02*
X152177165Y-90457794D01*
X152177165Y-90457794D02*
X152558117Y-90457794D01*
X152558117Y-90457794D02*
X152653355Y-90410175D01*
X152653355Y-90410175D02*
X152700974Y-90314937D01*
X152700974Y-90314937D02*
X152700974Y-90124461D01*
X152700974Y-90124461D02*
X152653355Y-90029223D01*
X152653355Y-90029223D02*
X152558117Y-89981604D01*
X152558117Y-89981604D02*
X152462879Y-89981604D01*
X152462879Y-89981604D02*
X152367641Y-90457794D01*
X152034307Y-89124461D02*
X152558117Y-89124461D01*
X152558117Y-89124461D02*
X152653355Y-89172080D01*
X152653355Y-89172080D02*
X152700974Y-89267318D01*
X152700974Y-89267318D02*
X152700974Y-89457794D01*
X152700974Y-89457794D02*
X152653355Y-89553032D01*
X152081927Y-89124461D02*
X152034307Y-89219699D01*
X152034307Y-89219699D02*
X152034307Y-89457794D01*
X152034307Y-89457794D02*
X152081927Y-89553032D01*
X152081927Y-89553032D02*
X152177165Y-89600651D01*
X152177165Y-89600651D02*
X152272403Y-89600651D01*
X152272403Y-89600651D02*
X152367641Y-89553032D01*
X152367641Y-89553032D02*
X152415260Y-89457794D01*
X152415260Y-89457794D02*
X152415260Y-89219699D01*
X152415260Y-89219699D02*
X152462879Y-89124461D01*
X152034307Y-88648270D02*
X152700974Y-88648270D01*
X152510498Y-88648270D02*
X152605736Y-88600651D01*
X152605736Y-88600651D02*
X152653355Y-88553032D01*
X152653355Y-88553032D02*
X152700974Y-88457794D01*
X152700974Y-88457794D02*
X152700974Y-88362556D01*
X150494307Y-97029223D02*
X149494307Y-96791128D01*
X149494307Y-96791128D02*
X150208593Y-96600652D01*
X150208593Y-96600652D02*
X149494307Y-96410176D01*
X149494307Y-96410176D02*
X150494307Y-96172081D01*
X149494307Y-95791128D02*
X150494307Y-95791128D01*
X149494307Y-95362557D02*
X150018117Y-95362557D01*
X150018117Y-95362557D02*
X150113355Y-95410176D01*
X150113355Y-95410176D02*
X150160974Y-95505414D01*
X150160974Y-95505414D02*
X150160974Y-95648271D01*
X150160974Y-95648271D02*
X150113355Y-95743509D01*
X150113355Y-95743509D02*
X150065736Y-95791128D01*
X149541927Y-94505414D02*
X149494307Y-94600652D01*
X149494307Y-94600652D02*
X149494307Y-94791128D01*
X149494307Y-94791128D02*
X149541927Y-94886366D01*
X149541927Y-94886366D02*
X149637165Y-94933985D01*
X149637165Y-94933985D02*
X150018117Y-94933985D01*
X150018117Y-94933985D02*
X150113355Y-94886366D01*
X150113355Y-94886366D02*
X150160974Y-94791128D01*
X150160974Y-94791128D02*
X150160974Y-94600652D01*
X150160974Y-94600652D02*
X150113355Y-94505414D01*
X150113355Y-94505414D02*
X150018117Y-94457795D01*
X150018117Y-94457795D02*
X149922879Y-94457795D01*
X149922879Y-94457795D02*
X149827641Y-94933985D01*
X149541927Y-93648271D02*
X149494307Y-93743509D01*
X149494307Y-93743509D02*
X149494307Y-93933985D01*
X149494307Y-93933985D02*
X149541927Y-94029223D01*
X149541927Y-94029223D02*
X149637165Y-94076842D01*
X149637165Y-94076842D02*
X150018117Y-94076842D01*
X150018117Y-94076842D02*
X150113355Y-94029223D01*
X150113355Y-94029223D02*
X150160974Y-93933985D01*
X150160974Y-93933985D02*
X150160974Y-93743509D01*
X150160974Y-93743509D02*
X150113355Y-93648271D01*
X150113355Y-93648271D02*
X150018117Y-93600652D01*
X150018117Y-93600652D02*
X149922879Y-93600652D01*
X149922879Y-93600652D02*
X149827641Y-94076842D01*
X149494307Y-93029223D02*
X149541927Y-93124461D01*
X149541927Y-93124461D02*
X149637165Y-93172080D01*
X149637165Y-93172080D02*
X150494307Y-93172080D01*
X149494307Y-91314937D02*
X149970498Y-91648270D01*
X149494307Y-91886365D02*
X150494307Y-91886365D01*
X150494307Y-91886365D02*
X150494307Y-91505413D01*
X150494307Y-91505413D02*
X150446688Y-91410175D01*
X150446688Y-91410175D02*
X150399069Y-91362556D01*
X150399069Y-91362556D02*
X150303831Y-91314937D01*
X150303831Y-91314937D02*
X150160974Y-91314937D01*
X150160974Y-91314937D02*
X150065736Y-91362556D01*
X150065736Y-91362556D02*
X150018117Y-91410175D01*
X150018117Y-91410175D02*
X149970498Y-91505413D01*
X149970498Y-91505413D02*
X149970498Y-91886365D01*
X149494307Y-90886365D02*
X150160974Y-90886365D01*
X150494307Y-90886365D02*
X150446688Y-90933984D01*
X150446688Y-90933984D02*
X150399069Y-90886365D01*
X150399069Y-90886365D02*
X150446688Y-90838746D01*
X150446688Y-90838746D02*
X150494307Y-90886365D01*
X150494307Y-90886365D02*
X150399069Y-90886365D01*
X150160974Y-89981604D02*
X149351450Y-89981604D01*
X149351450Y-89981604D02*
X149256212Y-90029223D01*
X149256212Y-90029223D02*
X149208593Y-90076842D01*
X149208593Y-90076842D02*
X149160974Y-90172080D01*
X149160974Y-90172080D02*
X149160974Y-90314937D01*
X149160974Y-90314937D02*
X149208593Y-90410175D01*
X149541927Y-89981604D02*
X149494307Y-90076842D01*
X149494307Y-90076842D02*
X149494307Y-90267318D01*
X149494307Y-90267318D02*
X149541927Y-90362556D01*
X149541927Y-90362556D02*
X149589546Y-90410175D01*
X149589546Y-90410175D02*
X149684784Y-90457794D01*
X149684784Y-90457794D02*
X149970498Y-90457794D01*
X149970498Y-90457794D02*
X150065736Y-90410175D01*
X150065736Y-90410175D02*
X150113355Y-90362556D01*
X150113355Y-90362556D02*
X150160974Y-90267318D01*
X150160974Y-90267318D02*
X150160974Y-90076842D01*
X150160974Y-90076842D02*
X150113355Y-89981604D01*
X149494307Y-89505413D02*
X150494307Y-89505413D01*
X149494307Y-89076842D02*
X150018117Y-89076842D01*
X150018117Y-89076842D02*
X150113355Y-89124461D01*
X150113355Y-89124461D02*
X150160974Y-89219699D01*
X150160974Y-89219699D02*
X150160974Y-89362556D01*
X150160974Y-89362556D02*
X150113355Y-89457794D01*
X150113355Y-89457794D02*
X150065736Y-89505413D01*
X150160974Y-88743508D02*
X150160974Y-88362556D01*
X150494307Y-88600651D02*
X149637165Y-88600651D01*
X149637165Y-88600651D02*
X149541927Y-88553032D01*
X149541927Y-88553032D02*
X149494307Y-88457794D01*
X149494307Y-88457794D02*
X149494307Y-88362556D01*
X147954307Y-95981605D02*
X146954307Y-95743510D01*
X146954307Y-95743510D02*
X147668593Y-95553034D01*
X147668593Y-95553034D02*
X146954307Y-95362558D01*
X146954307Y-95362558D02*
X147954307Y-95124463D01*
X146954307Y-94743510D02*
X147954307Y-94743510D01*
X146954307Y-94314939D02*
X147478117Y-94314939D01*
X147478117Y-94314939D02*
X147573355Y-94362558D01*
X147573355Y-94362558D02*
X147620974Y-94457796D01*
X147620974Y-94457796D02*
X147620974Y-94600653D01*
X147620974Y-94600653D02*
X147573355Y-94695891D01*
X147573355Y-94695891D02*
X147525736Y-94743510D01*
X147001927Y-93457796D02*
X146954307Y-93553034D01*
X146954307Y-93553034D02*
X146954307Y-93743510D01*
X146954307Y-93743510D02*
X147001927Y-93838748D01*
X147001927Y-93838748D02*
X147097165Y-93886367D01*
X147097165Y-93886367D02*
X147478117Y-93886367D01*
X147478117Y-93886367D02*
X147573355Y-93838748D01*
X147573355Y-93838748D02*
X147620974Y-93743510D01*
X147620974Y-93743510D02*
X147620974Y-93553034D01*
X147620974Y-93553034D02*
X147573355Y-93457796D01*
X147573355Y-93457796D02*
X147478117Y-93410177D01*
X147478117Y-93410177D02*
X147382879Y-93410177D01*
X147382879Y-93410177D02*
X147287641Y-93886367D01*
X147001927Y-92600653D02*
X146954307Y-92695891D01*
X146954307Y-92695891D02*
X146954307Y-92886367D01*
X146954307Y-92886367D02*
X147001927Y-92981605D01*
X147001927Y-92981605D02*
X147097165Y-93029224D01*
X147097165Y-93029224D02*
X147478117Y-93029224D01*
X147478117Y-93029224D02*
X147573355Y-92981605D01*
X147573355Y-92981605D02*
X147620974Y-92886367D01*
X147620974Y-92886367D02*
X147620974Y-92695891D01*
X147620974Y-92695891D02*
X147573355Y-92600653D01*
X147573355Y-92600653D02*
X147478117Y-92553034D01*
X147478117Y-92553034D02*
X147382879Y-92553034D01*
X147382879Y-92553034D02*
X147287641Y-93029224D01*
X146954307Y-91981605D02*
X147001927Y-92076843D01*
X147001927Y-92076843D02*
X147097165Y-92124462D01*
X147097165Y-92124462D02*
X147954307Y-92124462D01*
X146954307Y-90362557D02*
X146954307Y-90838747D01*
X146954307Y-90838747D02*
X147954307Y-90838747D01*
X147001927Y-89648271D02*
X146954307Y-89743509D01*
X146954307Y-89743509D02*
X146954307Y-89933985D01*
X146954307Y-89933985D02*
X147001927Y-90029223D01*
X147001927Y-90029223D02*
X147097165Y-90076842D01*
X147097165Y-90076842D02*
X147478117Y-90076842D01*
X147478117Y-90076842D02*
X147573355Y-90029223D01*
X147573355Y-90029223D02*
X147620974Y-89933985D01*
X147620974Y-89933985D02*
X147620974Y-89743509D01*
X147620974Y-89743509D02*
X147573355Y-89648271D01*
X147573355Y-89648271D02*
X147478117Y-89600652D01*
X147478117Y-89600652D02*
X147382879Y-89600652D01*
X147382879Y-89600652D02*
X147287641Y-90076842D01*
X147620974Y-89314937D02*
X147620974Y-88933985D01*
X146954307Y-89172080D02*
X147811450Y-89172080D01*
X147811450Y-89172080D02*
X147906688Y-89124461D01*
X147906688Y-89124461D02*
X147954307Y-89029223D01*
X147954307Y-89029223D02*
X147954307Y-88933985D01*
X147620974Y-88743508D02*
X147620974Y-88362556D01*
X147954307Y-88600651D02*
X147097165Y-88600651D01*
X147097165Y-88600651D02*
X147001927Y-88553032D01*
X147001927Y-88553032D02*
X146954307Y-88457794D01*
X146954307Y-88457794D02*
X146954307Y-88362556D01*
X144414307Y-90791127D02*
X145414307Y-90791127D01*
X145414307Y-90791127D02*
X145414307Y-90410175D01*
X145414307Y-90410175D02*
X145366688Y-90314937D01*
X145366688Y-90314937D02*
X145319069Y-90267318D01*
X145319069Y-90267318D02*
X145223831Y-90219699D01*
X145223831Y-90219699D02*
X145080974Y-90219699D01*
X145080974Y-90219699D02*
X144985736Y-90267318D01*
X144985736Y-90267318D02*
X144938117Y-90314937D01*
X144938117Y-90314937D02*
X144890498Y-90410175D01*
X144890498Y-90410175D02*
X144890498Y-90791127D01*
X144461927Y-89410175D02*
X144414307Y-89505413D01*
X144414307Y-89505413D02*
X144414307Y-89695889D01*
X144414307Y-89695889D02*
X144461927Y-89791127D01*
X144461927Y-89791127D02*
X144557165Y-89838746D01*
X144557165Y-89838746D02*
X144938117Y-89838746D01*
X144938117Y-89838746D02*
X145033355Y-89791127D01*
X145033355Y-89791127D02*
X145080974Y-89695889D01*
X145080974Y-89695889D02*
X145080974Y-89505413D01*
X145080974Y-89505413D02*
X145033355Y-89410175D01*
X145033355Y-89410175D02*
X144938117Y-89362556D01*
X144938117Y-89362556D02*
X144842879Y-89362556D01*
X144842879Y-89362556D02*
X144747641Y-89838746D01*
X145080974Y-88933984D02*
X144414307Y-88933984D01*
X144985736Y-88933984D02*
X145033355Y-88886365D01*
X145033355Y-88886365D02*
X145080974Y-88791127D01*
X145080974Y-88791127D02*
X145080974Y-88648270D01*
X145080974Y-88648270D02*
X145033355Y-88553032D01*
X145033355Y-88553032D02*
X144938117Y-88505413D01*
X144938117Y-88505413D02*
X144414307Y-88505413D01*
X156987619Y-85285238D02*
X157082857Y-85237619D01*
X157082857Y-85237619D02*
X157225714Y-85237619D01*
X157225714Y-85237619D02*
X157368571Y-85285238D01*
X157368571Y-85285238D02*
X157463809Y-85380476D01*
X157463809Y-85380476D02*
X157511428Y-85475714D01*
X157511428Y-85475714D02*
X157559047Y-85666190D01*
X157559047Y-85666190D02*
X157559047Y-85809047D01*
X157559047Y-85809047D02*
X157511428Y-85999523D01*
X157511428Y-85999523D02*
X157463809Y-86094761D01*
X157463809Y-86094761D02*
X157368571Y-86190000D01*
X157368571Y-86190000D02*
X157225714Y-86237619D01*
X157225714Y-86237619D02*
X157130476Y-86237619D01*
X157130476Y-86237619D02*
X156987619Y-86190000D01*
X156987619Y-86190000D02*
X156940000Y-86142380D01*
X156940000Y-86142380D02*
X156940000Y-85809047D01*
X156940000Y-85809047D02*
X157130476Y-85809047D01*
X156511428Y-85570952D02*
X156511428Y-86237619D01*
X156511428Y-85666190D02*
X156463809Y-85618571D01*
X156463809Y-85618571D02*
X156368571Y-85570952D01*
X156368571Y-85570952D02*
X156225714Y-85570952D01*
X156225714Y-85570952D02*
X156130476Y-85618571D01*
X156130476Y-85618571D02*
X156082857Y-85713809D01*
X156082857Y-85713809D02*
X156082857Y-86237619D01*
X155178095Y-86237619D02*
X155178095Y-85237619D01*
X155178095Y-86190000D02*
X155273333Y-86237619D01*
X155273333Y-86237619D02*
X155463809Y-86237619D01*
X155463809Y-86237619D02*
X155559047Y-86190000D01*
X155559047Y-86190000D02*
X155606666Y-86142380D01*
X155606666Y-86142380D02*
X155654285Y-86047142D01*
X155654285Y-86047142D02*
X155654285Y-85761428D01*
X155654285Y-85761428D02*
X155606666Y-85666190D01*
X155606666Y-85666190D02*
X155559047Y-85618571D01*
X155559047Y-85618571D02*
X155463809Y-85570952D01*
X155463809Y-85570952D02*
X155273333Y-85570952D01*
X155273333Y-85570952D02*
X155178095Y-85618571D01*
X157749523Y-83316666D02*
X156987619Y-83316666D01*
X157368571Y-83697619D02*
X157368571Y-82935714D01*
X156035238Y-82697619D02*
X156511428Y-82697619D01*
X156511428Y-82697619D02*
X156559047Y-83173809D01*
X156559047Y-83173809D02*
X156511428Y-83126190D01*
X156511428Y-83126190D02*
X156416190Y-83078571D01*
X156416190Y-83078571D02*
X156178095Y-83078571D01*
X156178095Y-83078571D02*
X156082857Y-83126190D01*
X156082857Y-83126190D02*
X156035238Y-83173809D01*
X156035238Y-83173809D02*
X155987619Y-83269047D01*
X155987619Y-83269047D02*
X155987619Y-83507142D01*
X155987619Y-83507142D02*
X156035238Y-83602380D01*
X156035238Y-83602380D02*
X156082857Y-83650000D01*
X156082857Y-83650000D02*
X156178095Y-83697619D01*
X156178095Y-83697619D02*
X156416190Y-83697619D01*
X156416190Y-83697619D02*
X156511428Y-83650000D01*
X156511428Y-83650000D02*
X156559047Y-83602380D01*
X155701904Y-82697619D02*
X155368571Y-83697619D01*
X155368571Y-83697619D02*
X155035238Y-82697619D01*
X157082856Y-81110000D02*
X156939999Y-81157619D01*
X156939999Y-81157619D02*
X156701904Y-81157619D01*
X156701904Y-81157619D02*
X156606666Y-81110000D01*
X156606666Y-81110000D02*
X156559047Y-81062380D01*
X156559047Y-81062380D02*
X156511428Y-80967142D01*
X156511428Y-80967142D02*
X156511428Y-80871904D01*
X156511428Y-80871904D02*
X156559047Y-80776666D01*
X156559047Y-80776666D02*
X156606666Y-80729047D01*
X156606666Y-80729047D02*
X156701904Y-80681428D01*
X156701904Y-80681428D02*
X156892380Y-80633809D01*
X156892380Y-80633809D02*
X156987618Y-80586190D01*
X156987618Y-80586190D02*
X157035237Y-80538571D01*
X157035237Y-80538571D02*
X157082856Y-80443333D01*
X157082856Y-80443333D02*
X157082856Y-80348095D01*
X157082856Y-80348095D02*
X157035237Y-80252857D01*
X157035237Y-80252857D02*
X156987618Y-80205238D01*
X156987618Y-80205238D02*
X156892380Y-80157619D01*
X156892380Y-80157619D02*
X156654285Y-80157619D01*
X156654285Y-80157619D02*
X156511428Y-80205238D01*
X156082856Y-81157619D02*
X156082856Y-80490952D01*
X156082856Y-80157619D02*
X156130475Y-80205238D01*
X156130475Y-80205238D02*
X156082856Y-80252857D01*
X156082856Y-80252857D02*
X156035237Y-80205238D01*
X156035237Y-80205238D02*
X156082856Y-80157619D01*
X156082856Y-80157619D02*
X156082856Y-80252857D01*
X155178095Y-80490952D02*
X155178095Y-81300476D01*
X155178095Y-81300476D02*
X155225714Y-81395714D01*
X155225714Y-81395714D02*
X155273333Y-81443333D01*
X155273333Y-81443333D02*
X155368571Y-81490952D01*
X155368571Y-81490952D02*
X155511428Y-81490952D01*
X155511428Y-81490952D02*
X155606666Y-81443333D01*
X155178095Y-81110000D02*
X155273333Y-81157619D01*
X155273333Y-81157619D02*
X155463809Y-81157619D01*
X155463809Y-81157619D02*
X155559047Y-81110000D01*
X155559047Y-81110000D02*
X155606666Y-81062380D01*
X155606666Y-81062380D02*
X155654285Y-80967142D01*
X155654285Y-80967142D02*
X155654285Y-80681428D01*
X155654285Y-80681428D02*
X155606666Y-80586190D01*
X155606666Y-80586190D02*
X155559047Y-80538571D01*
X155559047Y-80538571D02*
X155463809Y-80490952D01*
X155463809Y-80490952D02*
X155273333Y-80490952D01*
X155273333Y-80490952D02*
X155178095Y-80538571D01*
G36*
X98550635Y-121378670D02*
G01*
X98581040Y-121409075D01*
X98615299Y-121477591D01*
X98615299Y-121727895D01*
X98581040Y-121796412D01*
X98550632Y-121826820D01*
X98482118Y-121861078D01*
X98327053Y-121861078D01*
X98289109Y-121842106D01*
X98289109Y-121363383D01*
X98327051Y-121344411D01*
X98482117Y-121344411D01*
X98550635Y-121378670D01*
G37*
G36*
X96377203Y-121363383D02*
G01*
X96377203Y-121842107D01*
X96339260Y-121861078D01*
X96184195Y-121861078D01*
X96115677Y-121826819D01*
X96085269Y-121796410D01*
X96051013Y-121727896D01*
X96051013Y-121477593D01*
X96085272Y-121409075D01*
X96115677Y-121378669D01*
X96184193Y-121344411D01*
X96339259Y-121344411D01*
X96377203Y-121363383D01*
G37*
G36*
X100883969Y-121378670D02*
G01*
X100914374Y-121409075D01*
X100948633Y-121477591D01*
X100948633Y-121727895D01*
X100914374Y-121796412D01*
X100883966Y-121826820D01*
X100815452Y-121861078D01*
X100708006Y-121861078D01*
X100639488Y-121826819D01*
X100609080Y-121796410D01*
X100574824Y-121727896D01*
X100574824Y-121477593D01*
X100609083Y-121409075D01*
X100639488Y-121378669D01*
X100708004Y-121344411D01*
X100815451Y-121344411D01*
X100883969Y-121378670D01*
G37*
G36*
X99455397Y-121378670D02*
G01*
X99485802Y-121409075D01*
X99520061Y-121477591D01*
X99520061Y-121727895D01*
X99485802Y-121796412D01*
X99455394Y-121826820D01*
X99386880Y-121861078D01*
X99279434Y-121861078D01*
X99210916Y-121826819D01*
X99180508Y-121796410D01*
X99146252Y-121727896D01*
X99146252Y-121477593D01*
X99180511Y-121409075D01*
X99210916Y-121378669D01*
X99279432Y-121344411D01*
X99386879Y-121344411D01*
X99455397Y-121378670D01*
G37*
G36*
X93805774Y-121861078D02*
G01*
X93517528Y-121861078D01*
X93449010Y-121826819D01*
X93418602Y-121796410D01*
X93384346Y-121727896D01*
X93384346Y-121620450D01*
X93418605Y-121551932D01*
X93445097Y-121525439D01*
X93552999Y-121489472D01*
X93555832Y-121489982D01*
X93562376Y-121487268D01*
X93805774Y-121487268D01*
X93805774Y-121861078D01*
G37*
G36*
X93805774Y-121337268D02*
G01*
X93565147Y-121337268D01*
X93496629Y-121303009D01*
X93466222Y-121272602D01*
X93431965Y-121204087D01*
X93431965Y-121144260D01*
X93466224Y-121075742D01*
X93496629Y-121045336D01*
X93565145Y-121011078D01*
X93805774Y-121011078D01*
X93805774Y-121337268D01*
G37*
G36*
X92788729Y-121378670D02*
G01*
X92819134Y-121409075D01*
X92853393Y-121477591D01*
X92853393Y-121727895D01*
X92819134Y-121796412D01*
X92788726Y-121826820D01*
X92720212Y-121861078D01*
X92612766Y-121861078D01*
X92544248Y-121826819D01*
X92513840Y-121796410D01*
X92479584Y-121727896D01*
X92479584Y-121477593D01*
X92513843Y-121409075D01*
X92544248Y-121378669D01*
X92612764Y-121344411D01*
X92720211Y-121344411D01*
X92788729Y-121378670D01*
G37*
G36*
X88567678Y-121861078D02*
G01*
X88279432Y-121861078D01*
X88210914Y-121826819D01*
X88180506Y-121796410D01*
X88146250Y-121727896D01*
X88146250Y-121620450D01*
X88180509Y-121551932D01*
X88207001Y-121525439D01*
X88314903Y-121489472D01*
X88317736Y-121489982D01*
X88324280Y-121487268D01*
X88567678Y-121487268D01*
X88567678Y-121861078D01*
G37*
G36*
X88567678Y-121337268D02*
G01*
X88327051Y-121337268D01*
X88258533Y-121303009D01*
X88228126Y-121272602D01*
X88193869Y-121204087D01*
X88193869Y-121144260D01*
X88228128Y-121075742D01*
X88258533Y-121045336D01*
X88327049Y-121011078D01*
X88567678Y-121011078D01*
X88567678Y-121337268D01*
G37*
G36*
X90567678Y-121384887D02*
G01*
X90279432Y-121384887D01*
X90210914Y-121350628D01*
X90180507Y-121320221D01*
X90146250Y-121251706D01*
X90146250Y-121144260D01*
X90180509Y-121075742D01*
X90210914Y-121045336D01*
X90279430Y-121011078D01*
X90567678Y-121011078D01*
X90567678Y-121384887D01*
G37*
G36*
X102629586Y-124046316D02*
G01*
X87337917Y-124046316D01*
X87337917Y-123567202D01*
X100565311Y-123567202D01*
X100583607Y-123607266D01*
X100620659Y-123631078D01*
X100923035Y-123631078D01*
X100939519Y-123633448D01*
X100944709Y-123631078D01*
X101224891Y-123631078D01*
X101256369Y-123621835D01*
X101285211Y-123588549D01*
X101291479Y-123544954D01*
X101273183Y-123504890D01*
X101236131Y-123481078D01*
X101003395Y-123481078D01*
X101003395Y-122784763D01*
X101059189Y-122840557D01*
X101065633Y-122851407D01*
X101084134Y-122860657D01*
X101102256Y-122870553D01*
X101103716Y-122870448D01*
X101190211Y-122913696D01*
X101222500Y-122919506D01*
X101263183Y-122902633D01*
X101288285Y-122866443D01*
X101289838Y-122822427D01*
X101267347Y-122784558D01*
X101163297Y-122732533D01*
X101081918Y-122651154D01*
X101020417Y-122558903D01*
X101421709Y-122558903D01*
X101757716Y-123566927D01*
X101757411Y-123575375D01*
X101764543Y-123587408D01*
X101765415Y-123590023D01*
X101770023Y-123596654D01*
X101779868Y-123613263D01*
X101782474Y-123614569D01*
X101784138Y-123616963D01*
X101801980Y-123624343D01*
X101819244Y-123632995D01*
X101822143Y-123632684D01*
X101824837Y-123633799D01*
X101843824Y-123630364D01*
X101863037Y-123628308D01*
X101865310Y-123626477D01*
X101868177Y-123625959D01*
X101882295Y-123612802D01*
X101897344Y-123600687D01*
X101898266Y-123597920D01*
X101900399Y-123595933D01*
X101905165Y-123577222D01*
X102241051Y-122569567D01*
X102242236Y-122536781D01*
X102219779Y-122498893D01*
X102180403Y-122479161D01*
X102136609Y-122483849D01*
X102102303Y-122511469D01*
X101833157Y-123318906D01*
X101567566Y-122522132D01*
X101548843Y-122495192D01*
X101508144Y-122478356D01*
X101464804Y-122486196D01*
X101432582Y-122516223D01*
X101421709Y-122558903D01*
X101020417Y-122558903D01*
X100997136Y-122523981D01*
X100994152Y-122513818D01*
X100985175Y-122506039D01*
X100984818Y-122505504D01*
X100977015Y-122498969D01*
X100960866Y-122484976D01*
X100960191Y-122484878D01*
X100959667Y-122484440D01*
X100938437Y-122481751D01*
X100917271Y-122478708D01*
X100916649Y-122478991D01*
X100915972Y-122478906D01*
X100896681Y-122488110D01*
X100877207Y-122497004D01*
X100876837Y-122497579D01*
X100876222Y-122497873D01*
X100864973Y-122516038D01*
X100853395Y-122534056D01*
X100853395Y-122534739D01*
X100853036Y-122535319D01*
X100853395Y-122556683D01*
X100853395Y-123481078D01*
X100631899Y-123481078D01*
X100600421Y-123490321D01*
X100571579Y-123523607D01*
X100565311Y-123567202D01*
X87337917Y-123567202D01*
X87337917Y-121611135D01*
X87993536Y-121611135D01*
X87996250Y-121617679D01*
X87996250Y-121741561D01*
X87994319Y-121759445D01*
X88001175Y-121773158D01*
X88005493Y-121787861D01*
X88010846Y-121792499D01*
X88047581Y-121865968D01*
X88050264Y-121878299D01*
X88064883Y-121892919D01*
X88078953Y-121908045D01*
X88080371Y-121908407D01*
X88106805Y-121934842D01*
X88113250Y-121945693D01*
X88131761Y-121954948D01*
X88149872Y-121964838D01*
X88151331Y-121964733D01*
X88224577Y-122001356D01*
X88239704Y-122011078D01*
X88255034Y-122011078D01*
X88270117Y-122013792D01*
X88276661Y-122011078D01*
X88637318Y-122011078D01*
X88653802Y-122013448D01*
X88668954Y-122006528D01*
X88684938Y-122001835D01*
X88688674Y-121997522D01*
X88693866Y-121995152D01*
X88702873Y-121981135D01*
X88713780Y-121968549D01*
X88714591Y-121962902D01*
X88717678Y-121958100D01*
X88717678Y-121941438D01*
X88720048Y-121924954D01*
X88717678Y-121919764D01*
X88717678Y-121835262D01*
X88993283Y-121835262D01*
X89002645Y-121878299D01*
X89062980Y-121938636D01*
X89074260Y-121952646D01*
X89088803Y-121957493D01*
X89102253Y-121964838D01*
X89109319Y-121964332D01*
X89229089Y-122004256D01*
X89239704Y-122011078D01*
X89260383Y-122011078D01*
X89281023Y-122011824D01*
X89282282Y-122011078D01*
X89347562Y-122011078D01*
X89359789Y-122014193D01*
X89379401Y-122007655D01*
X89399224Y-122001835D01*
X89400182Y-122000728D01*
X89519708Y-121960886D01*
X89537282Y-121957064D01*
X89548122Y-121946223D01*
X89560706Y-121937478D01*
X89563413Y-121930931D01*
X89641443Y-121852901D01*
X89652293Y-121846458D01*
X89661543Y-121827957D01*
X89671439Y-121809834D01*
X89671334Y-121808374D01*
X89703786Y-121743471D01*
X89710098Y-121737537D01*
X89713442Y-121724159D01*
X89714582Y-121721880D01*
X89716045Y-121713747D01*
X89760064Y-121537669D01*
X89765297Y-121529528D01*
X89765297Y-121516740D01*
X89765673Y-121515236D01*
X89765297Y-121505990D01*
X89765297Y-121376992D01*
X89768399Y-121367823D01*
X89765297Y-121355415D01*
X89765297Y-121353867D01*
X89762692Y-121344997D01*
X89718678Y-121168940D01*
X89719608Y-121160329D01*
X89713442Y-121147998D01*
X89712824Y-121145523D01*
X89708636Y-121138384D01*
X89706916Y-121134945D01*
X89993536Y-121134945D01*
X89996250Y-121141489D01*
X89996250Y-121265371D01*
X89994319Y-121283255D01*
X90001175Y-121296968D01*
X90005493Y-121311671D01*
X90010846Y-121316309D01*
X90047581Y-121389778D01*
X90050264Y-121402110D01*
X90064891Y-121416737D01*
X90078953Y-121431855D01*
X90080371Y-121432217D01*
X90106806Y-121458652D01*
X90113250Y-121469502D01*
X90131759Y-121478756D01*
X90149873Y-121488647D01*
X90151331Y-121488542D01*
X90224577Y-121525165D01*
X90239704Y-121534887D01*
X90255034Y-121534887D01*
X90270117Y-121537601D01*
X90276661Y-121534887D01*
X90567678Y-121534887D01*
X90567678Y-121946860D01*
X90576921Y-121978338D01*
X90610207Y-122007180D01*
X90653802Y-122013448D01*
X90693866Y-121995152D01*
X90717678Y-121958100D01*
X90717678Y-121947202D01*
X91660547Y-121947202D01*
X91678843Y-121987266D01*
X91715895Y-122011078D01*
X91829115Y-122011078D01*
X91846999Y-122013009D01*
X91860712Y-122006152D01*
X91875415Y-122001835D01*
X91880053Y-121996481D01*
X91944844Y-121964085D01*
X91947759Y-121964188D01*
X91964366Y-121954324D01*
X91971577Y-121950719D01*
X91973591Y-121948845D01*
X91985627Y-121941697D01*
X91989409Y-121934132D01*
X91995599Y-121928375D01*
X91999064Y-121914821D01*
X92041289Y-121830371D01*
X92051012Y-121815242D01*
X92051012Y-121799912D01*
X92053726Y-121784829D01*
X92051012Y-121778286D01*
X92051012Y-121468278D01*
X92326870Y-121468278D01*
X92329584Y-121474822D01*
X92329584Y-121741561D01*
X92327653Y-121759445D01*
X92334509Y-121773158D01*
X92338827Y-121787861D01*
X92344180Y-121792499D01*
X92380915Y-121865968D01*
X92383598Y-121878299D01*
X92398217Y-121892919D01*
X92412287Y-121908045D01*
X92413705Y-121908407D01*
X92440139Y-121934842D01*
X92446584Y-121945693D01*
X92465095Y-121954948D01*
X92483206Y-121964838D01*
X92484665Y-121964733D01*
X92557911Y-122001356D01*
X92573038Y-122011078D01*
X92588368Y-122011078D01*
X92603451Y-122013792D01*
X92609995Y-122011078D01*
X92733877Y-122011078D01*
X92751761Y-122013009D01*
X92765474Y-122006152D01*
X92780177Y-122001835D01*
X92784815Y-121996481D01*
X92858283Y-121959746D01*
X92870617Y-121957064D01*
X92885248Y-121942431D01*
X92900361Y-121928375D01*
X92900723Y-121926955D01*
X92927157Y-121900521D01*
X92938008Y-121894077D01*
X92947264Y-121875563D01*
X92957154Y-121857453D01*
X92957049Y-121855993D01*
X92993671Y-121782749D01*
X93003393Y-121767623D01*
X93003393Y-121752293D01*
X93006107Y-121737210D01*
X93003393Y-121730666D01*
X93003393Y-121611135D01*
X93231632Y-121611135D01*
X93234346Y-121617679D01*
X93234346Y-121741561D01*
X93232415Y-121759445D01*
X93239271Y-121773158D01*
X93243589Y-121787861D01*
X93248942Y-121792499D01*
X93285677Y-121865968D01*
X93288360Y-121878299D01*
X93302979Y-121892919D01*
X93317049Y-121908045D01*
X93318467Y-121908407D01*
X93344901Y-121934842D01*
X93351346Y-121945693D01*
X93369857Y-121954948D01*
X93387968Y-121964838D01*
X93389427Y-121964733D01*
X93462673Y-122001356D01*
X93477800Y-122011078D01*
X93493130Y-122011078D01*
X93508213Y-122013792D01*
X93514757Y-122011078D01*
X93875414Y-122011078D01*
X93891898Y-122013448D01*
X93907050Y-122006528D01*
X93923034Y-122001835D01*
X93926770Y-121997522D01*
X93931962Y-121995152D01*
X93940969Y-121981135D01*
X93951876Y-121968549D01*
X93952687Y-121962902D01*
X93955774Y-121958100D01*
X93955774Y-121941438D01*
X93958144Y-121924954D01*
X93955774Y-121919764D01*
X93955774Y-121420659D01*
X95041156Y-121420659D01*
X95043870Y-121427203D01*
X95043870Y-121946860D01*
X95053113Y-121978338D01*
X95086399Y-122007180D01*
X95129994Y-122013448D01*
X95170058Y-121995152D01*
X95193870Y-121958100D01*
X95193870Y-121429974D01*
X95222391Y-121372931D01*
X95279431Y-121344411D01*
X95386878Y-121344411D01*
X95455396Y-121378670D01*
X95472441Y-121395715D01*
X95472441Y-121946860D01*
X95481684Y-121978338D01*
X95514970Y-122007180D01*
X95558565Y-122013448D01*
X95598629Y-121995152D01*
X95622441Y-121958100D01*
X95622441Y-121468278D01*
X95898299Y-121468278D01*
X95901013Y-121474822D01*
X95901013Y-121741561D01*
X95899082Y-121759445D01*
X95905938Y-121773158D01*
X95910256Y-121787861D01*
X95915609Y-121792499D01*
X95952344Y-121865968D01*
X95955027Y-121878299D01*
X95969646Y-121892919D01*
X95983716Y-121908045D01*
X95985134Y-121908407D01*
X96011568Y-121934842D01*
X96018013Y-121945693D01*
X96036524Y-121954948D01*
X96054635Y-121964838D01*
X96056094Y-121964733D01*
X96129340Y-122001356D01*
X96144467Y-122011078D01*
X96159797Y-122011078D01*
X96174880Y-122013792D01*
X96181424Y-122011078D01*
X96352925Y-122011078D01*
X96370809Y-122013009D01*
X96377203Y-122009812D01*
X96377203Y-122280193D01*
X96386446Y-122311671D01*
X96419732Y-122340513D01*
X96463327Y-122346781D01*
X96503391Y-122328485D01*
X96527203Y-122291433D01*
X96527203Y-121897894D01*
X96530320Y-121885704D01*
X96527203Y-121876325D01*
X96527203Y-121318327D01*
X96527932Y-121297665D01*
X96527203Y-121296438D01*
X96527203Y-121273897D01*
X96755119Y-121273897D01*
X96993724Y-121941992D01*
X96993436Y-121943485D01*
X96995416Y-121948437D01*
X96995111Y-121953760D01*
X97002779Y-121967348D01*
X97004247Y-121971457D01*
X97005087Y-121972612D01*
X97094531Y-122196220D01*
X97097884Y-122211634D01*
X97110292Y-122224042D01*
X97121130Y-122237832D01*
X97125646Y-122239396D01*
X97154426Y-122268176D01*
X97160870Y-122279026D01*
X97179379Y-122288280D01*
X97197493Y-122298171D01*
X97198951Y-122298066D01*
X97285448Y-122341315D01*
X97317737Y-122347125D01*
X97358420Y-122330252D01*
X97383522Y-122294062D01*
X97385075Y-122250046D01*
X97362584Y-122212177D01*
X97258534Y-122160152D01*
X97230406Y-122132024D01*
X97153130Y-121938833D01*
X97516944Y-121938833D01*
X97530834Y-121980629D01*
X97565116Y-122008281D01*
X97608905Y-122013009D01*
X97706750Y-121964085D01*
X97709665Y-121964188D01*
X97726272Y-121954324D01*
X97733483Y-121950719D01*
X97735497Y-121948845D01*
X97747533Y-121941697D01*
X97751315Y-121934132D01*
X97757505Y-121928375D01*
X97760970Y-121914821D01*
X97803195Y-121830371D01*
X97812918Y-121815242D01*
X97812918Y-121799912D01*
X97815632Y-121784829D01*
X97812918Y-121778286D01*
X97812918Y-121319785D01*
X98135992Y-121319785D01*
X98139109Y-121329164D01*
X98139109Y-121887149D01*
X98138380Y-121907824D01*
X98139109Y-121909051D01*
X98139109Y-122074895D01*
X98137178Y-122092779D01*
X98144034Y-122106492D01*
X98148352Y-122121195D01*
X98153705Y-122125833D01*
X98190440Y-122199302D01*
X98193123Y-122211634D01*
X98207750Y-122226261D01*
X98221812Y-122241379D01*
X98223230Y-122241741D01*
X98249665Y-122268176D01*
X98256109Y-122279026D01*
X98274618Y-122288280D01*
X98292732Y-122298171D01*
X98294190Y-122298066D01*
X98367436Y-122334689D01*
X98382563Y-122344411D01*
X98397893Y-122344411D01*
X98412976Y-122347125D01*
X98419520Y-122344411D01*
X98543402Y-122344411D01*
X98561286Y-122346342D01*
X98574999Y-122339485D01*
X98589702Y-122335168D01*
X98594340Y-122329814D01*
X98685864Y-122284052D01*
X98709886Y-122261708D01*
X98720797Y-122219037D01*
X98706907Y-122177242D01*
X98672625Y-122149590D01*
X98628836Y-122144862D01*
X98529737Y-122194411D01*
X98422291Y-122194411D01*
X98353773Y-122160152D01*
X98323366Y-122129745D01*
X98289109Y-122061230D01*
X98289109Y-122011078D01*
X98302655Y-122011078D01*
X98317738Y-122013792D01*
X98324282Y-122011078D01*
X98495783Y-122011078D01*
X98513667Y-122013009D01*
X98527380Y-122006152D01*
X98542083Y-122001835D01*
X98546721Y-121996481D01*
X98620189Y-121959746D01*
X98632523Y-121957064D01*
X98647154Y-121942431D01*
X98662267Y-121928375D01*
X98662629Y-121926955D01*
X98689063Y-121900521D01*
X98699914Y-121894077D01*
X98709170Y-121875563D01*
X98719060Y-121857453D01*
X98718955Y-121855993D01*
X98755577Y-121782749D01*
X98765299Y-121767623D01*
X98765299Y-121752293D01*
X98768013Y-121737210D01*
X98765299Y-121730666D01*
X98765299Y-121468278D01*
X98993538Y-121468278D01*
X98996252Y-121474822D01*
X98996252Y-121741561D01*
X98994321Y-121759445D01*
X99001177Y-121773158D01*
X99005495Y-121787861D01*
X99010848Y-121792499D01*
X99047583Y-121865968D01*
X99050266Y-121878299D01*
X99064885Y-121892919D01*
X99078955Y-121908045D01*
X99080373Y-121908407D01*
X99106807Y-121934842D01*
X99113252Y-121945693D01*
X99131763Y-121954948D01*
X99149874Y-121964838D01*
X99151333Y-121964733D01*
X99224579Y-122001356D01*
X99239706Y-122011078D01*
X99255036Y-122011078D01*
X99270119Y-122013792D01*
X99276663Y-122011078D01*
X99400545Y-122011078D01*
X99418429Y-122013009D01*
X99432142Y-122006152D01*
X99446845Y-122001835D01*
X99451483Y-121996481D01*
X99524951Y-121959746D01*
X99537285Y-121957064D01*
X99551916Y-121942431D01*
X99555785Y-121938833D01*
X99850278Y-121938833D01*
X99864168Y-121980629D01*
X99898450Y-122008281D01*
X99942239Y-122013009D01*
X100040084Y-121964085D01*
X100042999Y-121964188D01*
X100059606Y-121954324D01*
X100066817Y-121950719D01*
X100068831Y-121948845D01*
X100080867Y-121941697D01*
X100084649Y-121934132D01*
X100090839Y-121928375D01*
X100094304Y-121914821D01*
X100136529Y-121830371D01*
X100146252Y-121815242D01*
X100146252Y-121799912D01*
X100148966Y-121784829D01*
X100146252Y-121778286D01*
X100146252Y-121468278D01*
X100422110Y-121468278D01*
X100424824Y-121474822D01*
X100424824Y-121741561D01*
X100422893Y-121759445D01*
X100429749Y-121773158D01*
X100434067Y-121787861D01*
X100439420Y-121792499D01*
X100476155Y-121865968D01*
X100478838Y-121878299D01*
X100493457Y-121892919D01*
X100507527Y-121908045D01*
X100508945Y-121908407D01*
X100535379Y-121934842D01*
X100541824Y-121945693D01*
X100560335Y-121954948D01*
X100578446Y-121964838D01*
X100579905Y-121964733D01*
X100653151Y-122001356D01*
X100668278Y-122011078D01*
X100683608Y-122011078D01*
X100698691Y-122013792D01*
X100705235Y-122011078D01*
X100829117Y-122011078D01*
X100847001Y-122013009D01*
X100860714Y-122006152D01*
X100875417Y-122001835D01*
X100880055Y-121996481D01*
X100953523Y-121959746D01*
X100965857Y-121957064D01*
X100980488Y-121942431D01*
X100995601Y-121928375D01*
X100995963Y-121926955D01*
X101022397Y-121900521D01*
X101033248Y-121894077D01*
X101042504Y-121875563D01*
X101052394Y-121857453D01*
X101052289Y-121855993D01*
X101088911Y-121782749D01*
X101098633Y-121767623D01*
X101098633Y-121752293D01*
X101101347Y-121737210D01*
X101098633Y-121730666D01*
X101098633Y-121463918D01*
X101100563Y-121446043D01*
X101093708Y-121432333D01*
X101091083Y-121423392D01*
X101374835Y-121423392D01*
X101377205Y-121428582D01*
X101377205Y-121946860D01*
X101386448Y-121978338D01*
X101419734Y-122007180D01*
X101463329Y-122013448D01*
X101503393Y-121995152D01*
X101527205Y-121958100D01*
X101527205Y-121487268D01*
X101948633Y-121487268D01*
X101948633Y-121946860D01*
X101957876Y-121978338D01*
X101991162Y-122007180D01*
X102034757Y-122013448D01*
X102074821Y-121995152D01*
X102098633Y-121958100D01*
X102098633Y-121417627D01*
X102101003Y-121401144D01*
X102098633Y-121395954D01*
X102098633Y-120925296D01*
X102089390Y-120893818D01*
X102056104Y-120864976D01*
X102012509Y-120858708D01*
X101972445Y-120877004D01*
X101948633Y-120914056D01*
X101948633Y-121337268D01*
X101527205Y-121337268D01*
X101527205Y-120925296D01*
X101517962Y-120893818D01*
X101484676Y-120864976D01*
X101441081Y-120858708D01*
X101401017Y-120877004D01*
X101377205Y-120914056D01*
X101377205Y-121406908D01*
X101374835Y-121423392D01*
X101091083Y-121423392D01*
X101089390Y-121417627D01*
X101084035Y-121412987D01*
X101047301Y-121339518D01*
X101044619Y-121327188D01*
X101029999Y-121312568D01*
X101015930Y-121297443D01*
X101014511Y-121297080D01*
X100988076Y-121270645D01*
X100981633Y-121259796D01*
X100963132Y-121250545D01*
X100945010Y-121240650D01*
X100943549Y-121240754D01*
X100870308Y-121204134D01*
X100855179Y-121194411D01*
X100839849Y-121194411D01*
X100824766Y-121191697D01*
X100818222Y-121194411D01*
X100694331Y-121194411D01*
X100676456Y-121192481D01*
X100662746Y-121199335D01*
X100648040Y-121203654D01*
X100643400Y-121209008D01*
X100569931Y-121245742D01*
X100557601Y-121248425D01*
X100542981Y-121263044D01*
X100527856Y-121277114D01*
X100527493Y-121278532D01*
X100501058Y-121304967D01*
X100490209Y-121311411D01*
X100480958Y-121329911D01*
X100471063Y-121348034D01*
X100471167Y-121349494D01*
X100434547Y-121422735D01*
X100424824Y-121437865D01*
X100424824Y-121453195D01*
X100422110Y-121468278D01*
X100146252Y-121468278D01*
X100146252Y-120925296D01*
X100137009Y-120893818D01*
X100103723Y-120864976D01*
X100060128Y-120858708D01*
X100020064Y-120877004D01*
X99996252Y-120914056D01*
X99996252Y-121775515D01*
X99967730Y-121832557D01*
X99885210Y-121873818D01*
X99861189Y-121896162D01*
X99850278Y-121938833D01*
X99555785Y-121938833D01*
X99567029Y-121928375D01*
X99567391Y-121926955D01*
X99593825Y-121900521D01*
X99604676Y-121894077D01*
X99613932Y-121875563D01*
X99623822Y-121857453D01*
X99623717Y-121855993D01*
X99660339Y-121782749D01*
X99670061Y-121767623D01*
X99670061Y-121752293D01*
X99672775Y-121737210D01*
X99670061Y-121730666D01*
X99670061Y-121463918D01*
X99671991Y-121446043D01*
X99665136Y-121432333D01*
X99660818Y-121417627D01*
X99655463Y-121412987D01*
X99618729Y-121339518D01*
X99616047Y-121327188D01*
X99601427Y-121312568D01*
X99587358Y-121297443D01*
X99585939Y-121297080D01*
X99559504Y-121270645D01*
X99553061Y-121259796D01*
X99534560Y-121250545D01*
X99516438Y-121240650D01*
X99514977Y-121240754D01*
X99441736Y-121204134D01*
X99426607Y-121194411D01*
X99411277Y-121194411D01*
X99396194Y-121191697D01*
X99389650Y-121194411D01*
X99265759Y-121194411D01*
X99247884Y-121192481D01*
X99234174Y-121199335D01*
X99219468Y-121203654D01*
X99214828Y-121209008D01*
X99141359Y-121245742D01*
X99129029Y-121248425D01*
X99114409Y-121263044D01*
X99099284Y-121277114D01*
X99098921Y-121278532D01*
X99072486Y-121304967D01*
X99061637Y-121311411D01*
X99052386Y-121329911D01*
X99042491Y-121348034D01*
X99042595Y-121349494D01*
X99005975Y-121422735D01*
X98996252Y-121437865D01*
X98996252Y-121453195D01*
X98993538Y-121468278D01*
X98765299Y-121468278D01*
X98765299Y-121463918D01*
X98767229Y-121446043D01*
X98760374Y-121432333D01*
X98756056Y-121417627D01*
X98750701Y-121412987D01*
X98713967Y-121339518D01*
X98711285Y-121327188D01*
X98696665Y-121312568D01*
X98682596Y-121297443D01*
X98681177Y-121297080D01*
X98654742Y-121270645D01*
X98648299Y-121259796D01*
X98629798Y-121250545D01*
X98611676Y-121240650D01*
X98610215Y-121240754D01*
X98536974Y-121204134D01*
X98521845Y-121194411D01*
X98506515Y-121194411D01*
X98491432Y-121191697D01*
X98484888Y-121194411D01*
X98313378Y-121194411D01*
X98295503Y-121192481D01*
X98281793Y-121199335D01*
X98267087Y-121203654D01*
X98262447Y-121209008D01*
X98260215Y-121210124D01*
X98246580Y-121198309D01*
X98202985Y-121192041D01*
X98162921Y-121210337D01*
X98139109Y-121247389D01*
X98139109Y-121307595D01*
X98135992Y-121319785D01*
X97812918Y-121319785D01*
X97812918Y-120925296D01*
X97803675Y-120893818D01*
X97770389Y-120864976D01*
X97726794Y-120858708D01*
X97686730Y-120877004D01*
X97662918Y-120914056D01*
X97662918Y-121775515D01*
X97634396Y-121832557D01*
X97551876Y-121873818D01*
X97527855Y-121896162D01*
X97516944Y-121938833D01*
X97153130Y-121938833D01*
X97151427Y-121934575D01*
X97383603Y-121284483D01*
X97385486Y-121251730D01*
X97363839Y-121213373D01*
X97324892Y-121192807D01*
X97281009Y-121196562D01*
X97246122Y-121223447D01*
X97071250Y-121713087D01*
X96900160Y-121234032D01*
X96880869Y-121207497D01*
X96839821Y-121191530D01*
X96796658Y-121200290D01*
X96765081Y-121230995D01*
X96755119Y-121273897D01*
X96527203Y-121273897D01*
X96527203Y-121258629D01*
X96517960Y-121227151D01*
X96484674Y-121198309D01*
X96441079Y-121192041D01*
X96403893Y-121209022D01*
X96394116Y-121204134D01*
X96378987Y-121194411D01*
X96363657Y-121194411D01*
X96348574Y-121191697D01*
X96342030Y-121194411D01*
X96170520Y-121194411D01*
X96152645Y-121192481D01*
X96138935Y-121199335D01*
X96124229Y-121203654D01*
X96119589Y-121209008D01*
X96046120Y-121245742D01*
X96033790Y-121248425D01*
X96019170Y-121263044D01*
X96004045Y-121277114D01*
X96003682Y-121278532D01*
X95977247Y-121304967D01*
X95966398Y-121311411D01*
X95957147Y-121329911D01*
X95947252Y-121348034D01*
X95947356Y-121349494D01*
X95910736Y-121422735D01*
X95901013Y-121437865D01*
X95901013Y-121453195D01*
X95898299Y-121468278D01*
X95622441Y-121468278D01*
X95622441Y-121378179D01*
X95625408Y-121370225D01*
X95622441Y-121356586D01*
X95622441Y-120925296D01*
X95613198Y-120893818D01*
X95579912Y-120864976D01*
X95536317Y-120858708D01*
X95496253Y-120877004D01*
X95472441Y-120914056D01*
X95472441Y-121219487D01*
X95441735Y-121204134D01*
X95426606Y-121194411D01*
X95411276Y-121194411D01*
X95396193Y-121191697D01*
X95389649Y-121194411D01*
X95265758Y-121194411D01*
X95247883Y-121192481D01*
X95234173Y-121199335D01*
X95219467Y-121203654D01*
X95214827Y-121209008D01*
X95150036Y-121241403D01*
X95147124Y-121241301D01*
X95130523Y-121251160D01*
X95123304Y-121254770D01*
X95121287Y-121256645D01*
X95109255Y-121263792D01*
X95105472Y-121271356D01*
X95099283Y-121277114D01*
X95095817Y-121290667D01*
X95053593Y-121375116D01*
X95043870Y-121390246D01*
X95043870Y-121405576D01*
X95041156Y-121420659D01*
X93955774Y-121420659D01*
X93955774Y-121417627D01*
X93958144Y-121401144D01*
X93955774Y-121395954D01*
X93955774Y-120941438D01*
X93958144Y-120924954D01*
X93951224Y-120909801D01*
X93946531Y-120893818D01*
X93942218Y-120890081D01*
X93939848Y-120884890D01*
X93925831Y-120875882D01*
X93913245Y-120864976D01*
X93907598Y-120864164D01*
X93902796Y-120861078D01*
X93886134Y-120861078D01*
X93869650Y-120858708D01*
X93864460Y-120861078D01*
X93551472Y-120861078D01*
X93533597Y-120859148D01*
X93519887Y-120866002D01*
X93505181Y-120870321D01*
X93500541Y-120875675D01*
X93427072Y-120912409D01*
X93414742Y-120915092D01*
X93400122Y-120929711D01*
X93384997Y-120943781D01*
X93384634Y-120945199D01*
X93358199Y-120971634D01*
X93347350Y-120978078D01*
X93338099Y-120996578D01*
X93328204Y-121014701D01*
X93328308Y-121016161D01*
X93291688Y-121089402D01*
X93281965Y-121104532D01*
X93281965Y-121119862D01*
X93279251Y-121134945D01*
X93281965Y-121141489D01*
X93281965Y-121217752D01*
X93280034Y-121235636D01*
X93286890Y-121249349D01*
X93291208Y-121264052D01*
X93296561Y-121268690D01*
X93333296Y-121342159D01*
X93335979Y-121354491D01*
X93350606Y-121369118D01*
X93364668Y-121384236D01*
X93366086Y-121384598D01*
X93371761Y-121390273D01*
X93367123Y-121391282D01*
X93356284Y-121402120D01*
X93343698Y-121410868D01*
X93340989Y-121417415D01*
X93310580Y-121447824D01*
X93299731Y-121454268D01*
X93290480Y-121472768D01*
X93280585Y-121490891D01*
X93280689Y-121492351D01*
X93244069Y-121565592D01*
X93234346Y-121580722D01*
X93234346Y-121596052D01*
X93231632Y-121611135D01*
X93003393Y-121611135D01*
X93003393Y-121463918D01*
X93005323Y-121446043D01*
X92998468Y-121432333D01*
X92994150Y-121417627D01*
X92988795Y-121412987D01*
X92952061Y-121339518D01*
X92949379Y-121327188D01*
X92934759Y-121312568D01*
X92920690Y-121297443D01*
X92919271Y-121297080D01*
X92892836Y-121270645D01*
X92886393Y-121259796D01*
X92867892Y-121250545D01*
X92849770Y-121240650D01*
X92848309Y-121240754D01*
X92775068Y-121204134D01*
X92759939Y-121194411D01*
X92744609Y-121194411D01*
X92729526Y-121191697D01*
X92722982Y-121194411D01*
X92599091Y-121194411D01*
X92581216Y-121192481D01*
X92567506Y-121199335D01*
X92552800Y-121203654D01*
X92548160Y-121209008D01*
X92474691Y-121245742D01*
X92462361Y-121248425D01*
X92447741Y-121263044D01*
X92432616Y-121277114D01*
X92432253Y-121278532D01*
X92405818Y-121304967D01*
X92394969Y-121311411D01*
X92385718Y-121329911D01*
X92375823Y-121348034D01*
X92375927Y-121349494D01*
X92339307Y-121422735D01*
X92329584Y-121437865D01*
X92329584Y-121453195D01*
X92326870Y-121468278D01*
X92051012Y-121468278D01*
X92051012Y-121344411D01*
X92129651Y-121344411D01*
X92161129Y-121335168D01*
X92189971Y-121301882D01*
X92196239Y-121258287D01*
X92177943Y-121218223D01*
X92140891Y-121194411D01*
X92051012Y-121194411D01*
X92051012Y-120925296D01*
X92041769Y-120893818D01*
X92008483Y-120864976D01*
X91964888Y-120858708D01*
X91924824Y-120877004D01*
X91901012Y-120914056D01*
X91901012Y-121194411D01*
X91727135Y-121194411D01*
X91695657Y-121203654D01*
X91666815Y-121236940D01*
X91660547Y-121280535D01*
X91678843Y-121320599D01*
X91715895Y-121344411D01*
X91901012Y-121344411D01*
X91901012Y-121775515D01*
X91872490Y-121832557D01*
X91815450Y-121861078D01*
X91727135Y-121861078D01*
X91695657Y-121870321D01*
X91666815Y-121903607D01*
X91660547Y-121947202D01*
X90717678Y-121947202D01*
X90717678Y-121465247D01*
X90720048Y-121448763D01*
X90717678Y-121443573D01*
X90717678Y-120941438D01*
X90720048Y-120924954D01*
X90713128Y-120909801D01*
X90708435Y-120893818D01*
X90704122Y-120890081D01*
X90701752Y-120884890D01*
X90687735Y-120875882D01*
X90675149Y-120864976D01*
X90669502Y-120864164D01*
X90664700Y-120861078D01*
X90648038Y-120861078D01*
X90631554Y-120858708D01*
X90626364Y-120861078D01*
X90265757Y-120861078D01*
X90247882Y-120859148D01*
X90234172Y-120866002D01*
X90219466Y-120870321D01*
X90214826Y-120875675D01*
X90141357Y-120912409D01*
X90129027Y-120915092D01*
X90114407Y-120929711D01*
X90099282Y-120943781D01*
X90098919Y-120945199D01*
X90072484Y-120971634D01*
X90061635Y-120978078D01*
X90052384Y-120996578D01*
X90042489Y-121014701D01*
X90042593Y-121016161D01*
X90005973Y-121089402D01*
X89996250Y-121104532D01*
X89996250Y-121119862D01*
X89993536Y-121134945D01*
X89706916Y-121134945D01*
X89666346Y-121053804D01*
X89663664Y-121041474D01*
X89649044Y-121026854D01*
X89634975Y-121011729D01*
X89633556Y-121011366D01*
X89555707Y-120933517D01*
X89544430Y-120919510D01*
X89529888Y-120914662D01*
X89516436Y-120907317D01*
X89509368Y-120907822D01*
X89389601Y-120867900D01*
X89378986Y-120861078D01*
X89358306Y-120861078D01*
X89337667Y-120860332D01*
X89336408Y-120861078D01*
X89271128Y-120861078D01*
X89258900Y-120857963D01*
X89239280Y-120864502D01*
X89219466Y-120870321D01*
X89218507Y-120871427D01*
X89098978Y-120911269D01*
X89081408Y-120915092D01*
X89070569Y-120925930D01*
X89057983Y-120934678D01*
X89055274Y-120941225D01*
X89010593Y-120985907D01*
X88994870Y-121014701D01*
X88998013Y-121058632D01*
X89024407Y-121093891D01*
X89065674Y-121109283D01*
X89108711Y-121099921D01*
X89159382Y-121049249D01*
X89273897Y-121011078D01*
X89344794Y-121011078D01*
X89459307Y-121049249D01*
X89533419Y-121123361D01*
X89571913Y-121200347D01*
X89615297Y-121373883D01*
X89615297Y-121498272D01*
X89571913Y-121671804D01*
X89533419Y-121748793D01*
X89459307Y-121822906D01*
X89344792Y-121861078D01*
X89273896Y-121861078D01*
X89159382Y-121822906D01*
X89116660Y-121780182D01*
X89087866Y-121764460D01*
X89043935Y-121767602D01*
X89008676Y-121793995D01*
X88993283Y-121835262D01*
X88717678Y-121835262D01*
X88717678Y-121417627D01*
X88720048Y-121401144D01*
X88717678Y-121395954D01*
X88717678Y-120941438D01*
X88720048Y-120924954D01*
X88713128Y-120909801D01*
X88708435Y-120893818D01*
X88704122Y-120890081D01*
X88701752Y-120884890D01*
X88687735Y-120875882D01*
X88675149Y-120864976D01*
X88669502Y-120864164D01*
X88664700Y-120861078D01*
X88648038Y-120861078D01*
X88631554Y-120858708D01*
X88626364Y-120861078D01*
X88313376Y-120861078D01*
X88295501Y-120859148D01*
X88281791Y-120866002D01*
X88267085Y-120870321D01*
X88262445Y-120875675D01*
X88188976Y-120912409D01*
X88176646Y-120915092D01*
X88162026Y-120929711D01*
X88146901Y-120943781D01*
X88146538Y-120945199D01*
X88120103Y-120971634D01*
X88109254Y-120978078D01*
X88100003Y-120996578D01*
X88090108Y-121014701D01*
X88090212Y-121016161D01*
X88053592Y-121089402D01*
X88043869Y-121104532D01*
X88043869Y-121119862D01*
X88041155Y-121134945D01*
X88043869Y-121141489D01*
X88043869Y-121217752D01*
X88041938Y-121235636D01*
X88048794Y-121249349D01*
X88053112Y-121264052D01*
X88058465Y-121268690D01*
X88095200Y-121342159D01*
X88097883Y-121354491D01*
X88112510Y-121369118D01*
X88126572Y-121384236D01*
X88127990Y-121384598D01*
X88133665Y-121390273D01*
X88129027Y-121391282D01*
X88118188Y-121402120D01*
X88105602Y-121410868D01*
X88102893Y-121417415D01*
X88072484Y-121447824D01*
X88061635Y-121454268D01*
X88052384Y-121472768D01*
X88042489Y-121490891D01*
X88042593Y-121492351D01*
X88005973Y-121565592D01*
X87996250Y-121580722D01*
X87996250Y-121596052D01*
X87993536Y-121611135D01*
X87337917Y-121611135D01*
X87337917Y-120315602D01*
X102629586Y-120315602D01*
X102629586Y-124046316D01*
G37*
X105410000Y-93250000D02*
G75*
G03*
X107410000Y-95250000I2000000J0D01*
G01*
X102140000Y-118806200D02*
G75*
G03*
X104140000Y-116806203I0J2000000D01*
G01*
X102140000Y-92710000D02*
G75*
G03*
X104140000Y-90710000I0J2000000D01*
G01*
X134620000Y-45180000D02*
X134620000Y-93250000D01*
X104140000Y-74390000D02*
G75*
G03*
X102140000Y-72390000I-2000000J0D01*
G01*
X142970000Y-77470000D02*
X158020000Y-77470000D01*
X83280000Y-46990000D02*
G75*
G03*
X81280000Y-48990000I0J-2000000D01*
G01*
X84550000Y-72390000D02*
X102140000Y-72390000D01*
X104140000Y-102330000D02*
X104140000Y-116806203D01*
X82703883Y-116806203D02*
X82703883Y-102330000D01*
X106140000Y-97790000D02*
G75*
G03*
X104140000Y-99790000I0J-2000000D01*
G01*
X81280000Y-64040000D02*
X81280000Y-48990000D01*
X83280000Y-46990000D02*
X102140000Y-46990000D01*
X140970000Y-95790000D02*
G75*
G03*
X142970000Y-97790000I2000000J0D01*
G01*
X102140000Y-92710000D02*
X84550000Y-92710000D01*
X160560000Y-124460000D02*
G75*
G03*
X162560000Y-122460000I0J2000000D01*
G01*
X162560000Y-99790000D02*
G75*
G03*
X160560000Y-97790000I-2000000J0D01*
G01*
X107410000Y-43180000D02*
X132620000Y-43180000D01*
X158020000Y-97790000D02*
X142970000Y-97790000D01*
X104140000Y-74390000D02*
X104140000Y-90710000D01*
X82550000Y-90710000D02*
X82550000Y-74390000D01*
X160020000Y-79470000D02*
G75*
G03*
X158020000Y-77470000I-2000000J0D01*
G01*
X160020000Y-79470000D02*
X160020000Y-95790000D01*
X160560000Y-124460000D02*
X106140000Y-124460000D01*
X162560000Y-99790000D02*
X162560000Y-122460000D01*
X134620000Y-45180000D02*
G75*
G03*
X132620000Y-43180000I-2000000J0D01*
G01*
X102140000Y-118806203D02*
X84703883Y-118806203D01*
X132620000Y-95250000D02*
G75*
G03*
X134620000Y-93250000I0J2000000D01*
G01*
X84550000Y-72390000D02*
G75*
G03*
X82550000Y-74390000I0J-2000000D01*
G01*
X104140000Y-122460000D02*
X104140000Y-99790000D01*
X142970000Y-77470000D02*
G75*
G03*
X140970000Y-79470000I0J-2000000D01*
G01*
X105410000Y-93250000D02*
X105410000Y-45180000D01*
X132620000Y-95250000D02*
X107410000Y-95250000D01*
X102140000Y-66040000D02*
G75*
G03*
X104140000Y-64040000I0J2000000D01*
G01*
X106140000Y-97790000D02*
X160560000Y-97790000D01*
X104140000Y-48990000D02*
X104140000Y-64040000D01*
X84703883Y-100329983D02*
G75*
G03*
X82703883Y-102330000I17J-2000017D01*
G01*
X107410000Y-43180000D02*
G75*
G03*
X105410000Y-45180000I0J-2000000D01*
G01*
X104140000Y-122460000D02*
G75*
G03*
X106140000Y-124460000I2000000J0D01*
G01*
X84703883Y-100330000D02*
X102140000Y-100330000D01*
X82550000Y-90710000D02*
G75*
G03*
X84550000Y-92710000I2000000J0D01*
G01*
X140970000Y-95790000D02*
X140970000Y-79470000D01*
X104140000Y-48990000D02*
G75*
G03*
X102140000Y-46990000I-2000000J0D01*
G01*
X81280000Y-64040000D02*
G75*
G03*
X83280000Y-66040000I2000000J0D01*
G01*
X104140000Y-102330000D02*
G75*
G03*
X102140000Y-100330000I-2000000J0D01*
G01*
X82703897Y-116806203D02*
G75*
G03*
X84703883Y-118806203I2000003J3D01*
G01*
X158020000Y-97790000D02*
G75*
G03*
X160020000Y-95790000I0J2000000D01*
G01*
X102140000Y-66040000D02*
X83280000Y-66040000D01*
M02*
