%TF.GenerationSoftware,KiCad,Pcbnew,7.0.1*%
%TF.CreationDate,2024-01-15T22:42:35+05:30*%
%TF.ProjectId,hologlyph bot circuit,686f6c6f-676c-4797-9068-20626f742063,rev?*%
%TF.SameCoordinates,Original*%
%TF.FileFunction,Drillmap*%
%TF.FilePolarity,Positive*%
%FSLAX45Y45*%
G04 Gerber Fmt 4.5, Leading zero omitted, Abs format (unit mm)*
G04 Created by KiCad (PCBNEW 7.0.1) date 2024-01-15 22:42:35*
%MOMM*%
%LPD*%
G01*
G04 APERTURE LIST*
%ADD10C,0.100000*%
%ADD11C,0.200000*%
%ADD12C,0.080000*%
%ADD13C,0.102000*%
%ADD14C,0.132000*%
G04 APERTURE END LIST*
D10*
X8291000Y-4013000D02*
X16891000Y-4013000D01*
X16891000Y-13013000D01*
X8291000Y-13013000D01*
X8291000Y-4013000D01*
D11*
D12*
X9043000Y-10247000D02*
X9123000Y-10327000D01*
X9123000Y-10247000D02*
X9043000Y-10327000D01*
X9043000Y-11009000D02*
X9123000Y-11089000D01*
X9123000Y-11009000D02*
X9043000Y-11089000D01*
X9421500Y-5040000D02*
X9501500Y-5120000D01*
X9501500Y-5040000D02*
X9421500Y-5120000D01*
X9421500Y-5548000D02*
X9501500Y-5628000D01*
X9501500Y-5548000D02*
X9421500Y-5628000D01*
X9421500Y-6056000D02*
X9501500Y-6136000D01*
X9501500Y-6056000D02*
X9421500Y-6136000D01*
X9485000Y-10247000D02*
X9565000Y-10327000D01*
X9565000Y-10247000D02*
X9485000Y-10327000D01*
X9485000Y-11009000D02*
X9565000Y-11089000D01*
X9565000Y-11009000D02*
X9485000Y-11089000D01*
X9993000Y-10247000D02*
X10073000Y-10327000D01*
X10073000Y-10247000D02*
X9993000Y-10327000D01*
X9993000Y-11009000D02*
X10073000Y-11089000D01*
X10073000Y-11009000D02*
X9993000Y-11089000D01*
X10183500Y-5040000D02*
X10263500Y-5120000D01*
X10263500Y-5040000D02*
X10183500Y-5120000D01*
X10183500Y-5548000D02*
X10263500Y-5628000D01*
X10263500Y-5548000D02*
X10183500Y-5628000D01*
X10183500Y-6056000D02*
X10263500Y-6136000D01*
X10263500Y-6056000D02*
X10183500Y-6136000D01*
X10183500Y-8151500D02*
X10263500Y-8231500D01*
X10263500Y-8151500D02*
X10183500Y-8231500D01*
X10183500Y-8913500D02*
X10263500Y-8993500D01*
X10263500Y-8913500D02*
X10183500Y-8993500D01*
D10*
X9003500Y-5334000D02*
G75*
G03*
X9003500Y-5334000I-50000J0D01*
G01*
X9003500Y-5588000D02*
G75*
G03*
X9003500Y-5588000I-50000J0D01*
G01*
X9003500Y-5842000D02*
G75*
G03*
X9003500Y-5842000I-50000J0D01*
G01*
X9003500Y-6096000D02*
G75*
G03*
X9003500Y-6096000I-50000J0D01*
G01*
X9004500Y-8064500D02*
G75*
G03*
X9004500Y-8064500I-50000J0D01*
G01*
X9321000Y-11559500D02*
G75*
G03*
X9321000Y-11559500I-50000J0D01*
G01*
X9575000Y-11559500D02*
G75*
G03*
X9575000Y-11559500I-50000J0D01*
G01*
X9764500Y-8064500D02*
G75*
G03*
X9764500Y-8064500I-50000J0D01*
G01*
X9829000Y-11559500D02*
G75*
G03*
X9829000Y-11559500I-50000J0D01*
G01*
X10083000Y-11559500D02*
G75*
G03*
X10083000Y-11559500I-50000J0D01*
G01*
X10718000Y-10033000D02*
G75*
G03*
X10718000Y-10033000I-50000J0D01*
G01*
X10718000Y-12183000D02*
G75*
G03*
X10718000Y-12183000I-50000J0D01*
G01*
X13766000Y-5588000D02*
G75*
G03*
X13766000Y-5588000I-50000J0D01*
G01*
X13766000Y-5969000D02*
G75*
G03*
X13766000Y-5969000I-50000J0D01*
G01*
X13766000Y-6350000D02*
G75*
G03*
X13766000Y-6350000I-50000J0D01*
G01*
X14020000Y-5588000D02*
G75*
G03*
X14020000Y-5588000I-50000J0D01*
G01*
X14020000Y-5969000D02*
G75*
G03*
X14020000Y-5969000I-50000J0D01*
G01*
X14020000Y-6350000D02*
G75*
G03*
X14020000Y-6350000I-50000J0D01*
G01*
X14274000Y-5588000D02*
G75*
G03*
X14274000Y-5588000I-50000J0D01*
G01*
X14274000Y-5969000D02*
G75*
G03*
X14274000Y-5969000I-50000J0D01*
G01*
X14274000Y-6350000D02*
G75*
G03*
X14274000Y-6350000I-50000J0D01*
G01*
X14528000Y-5588000D02*
G75*
G03*
X14528000Y-5588000I-50000J0D01*
G01*
X14528000Y-5969000D02*
G75*
G03*
X14528000Y-5969000I-50000J0D01*
G01*
X14528000Y-6350000D02*
G75*
G03*
X14528000Y-6350000I-50000J0D01*
G01*
X14528000Y-8128000D02*
G75*
G03*
X14528000Y-8128000I-50000J0D01*
G01*
X14528000Y-8382000D02*
G75*
G03*
X14528000Y-8382000I-50000J0D01*
G01*
X14528000Y-8636000D02*
G75*
G03*
X14528000Y-8636000I-50000J0D01*
G01*
X14782000Y-5588000D02*
G75*
G03*
X14782000Y-5588000I-50000J0D01*
G01*
X14782000Y-5969000D02*
G75*
G03*
X14782000Y-5969000I-50000J0D01*
G01*
X14782000Y-6350000D02*
G75*
G03*
X14782000Y-6350000I-50000J0D01*
G01*
X14782000Y-8128000D02*
G75*
G03*
X14782000Y-8128000I-50000J0D01*
G01*
X14782000Y-8382000D02*
G75*
G03*
X14782000Y-8382000I-50000J0D01*
G01*
X14782000Y-8636000D02*
G75*
G03*
X14782000Y-8636000I-50000J0D01*
G01*
X15036000Y-8128000D02*
G75*
G03*
X15036000Y-8128000I-50000J0D01*
G01*
X15036000Y-8382000D02*
G75*
G03*
X15036000Y-8382000I-50000J0D01*
G01*
X15036000Y-8636000D02*
G75*
G03*
X15036000Y-8636000I-50000J0D01*
G01*
X15226500Y-5778500D02*
G75*
G03*
X15226500Y-5778500I-50000J0D01*
G01*
X15226500Y-6032500D02*
G75*
G03*
X15226500Y-6032500I-50000J0D01*
G01*
X15290000Y-8128000D02*
G75*
G03*
X15290000Y-8128000I-50000J0D01*
G01*
X15290000Y-8382000D02*
G75*
G03*
X15290000Y-8382000I-50000J0D01*
G01*
X15290000Y-8636000D02*
G75*
G03*
X15290000Y-8636000I-50000J0D01*
G01*
X15544000Y-5778500D02*
G75*
G03*
X15544000Y-5778500I-50000J0D01*
G01*
X15544000Y-6032500D02*
G75*
G03*
X15544000Y-6032500I-50000J0D01*
G01*
X15818000Y-10033000D02*
G75*
G03*
X15818000Y-10033000I-50000J0D01*
G01*
X15818000Y-12183000D02*
G75*
G03*
X15818000Y-12183000I-50000J0D01*
G01*
D13*
X10731500Y-5319000D02*
X10731500Y-5421000D01*
X10680500Y-5370000D02*
X10782500Y-5370000D01*
X10731500Y-5573000D02*
X10731500Y-5675000D01*
X10680500Y-5624000D02*
X10782500Y-5624000D01*
X10731500Y-5827000D02*
X10731500Y-5929000D01*
X10680500Y-5878000D02*
X10782500Y-5878000D01*
X10731500Y-6081000D02*
X10731500Y-6183000D01*
X10680500Y-6132000D02*
X10782500Y-6132000D01*
X10731500Y-6335000D02*
X10731500Y-6437000D01*
X10680500Y-6386000D02*
X10782500Y-6386000D01*
X10731500Y-6589000D02*
X10731500Y-6691000D01*
X10680500Y-6640000D02*
X10782500Y-6640000D01*
X10731500Y-6843000D02*
X10731500Y-6945000D01*
X10680500Y-6894000D02*
X10782500Y-6894000D01*
X10731500Y-7097000D02*
X10731500Y-7199000D01*
X10680500Y-7148000D02*
X10782500Y-7148000D01*
X10731500Y-7351000D02*
X10731500Y-7453000D01*
X10680500Y-7402000D02*
X10782500Y-7402000D01*
X10731500Y-7605000D02*
X10731500Y-7707000D01*
X10680500Y-7656000D02*
X10782500Y-7656000D01*
X10731500Y-7859000D02*
X10731500Y-7961000D01*
X10680500Y-7910000D02*
X10782500Y-7910000D01*
X10731500Y-8113000D02*
X10731500Y-8215000D01*
X10680500Y-8164000D02*
X10782500Y-8164000D01*
X10731500Y-8367000D02*
X10731500Y-8469000D01*
X10680500Y-8418000D02*
X10782500Y-8418000D01*
X10731500Y-8621000D02*
X10731500Y-8723000D01*
X10680500Y-8672000D02*
X10782500Y-8672000D01*
X10731500Y-8875000D02*
X10731500Y-8977000D01*
X10680500Y-8926000D02*
X10782500Y-8926000D01*
X13271500Y-5319000D02*
X13271500Y-5421000D01*
X13220500Y-5370000D02*
X13322500Y-5370000D01*
X13271500Y-5573000D02*
X13271500Y-5675000D01*
X13220500Y-5624000D02*
X13322500Y-5624000D01*
X13271500Y-5827000D02*
X13271500Y-5929000D01*
X13220500Y-5878000D02*
X13322500Y-5878000D01*
X13271500Y-6081000D02*
X13271500Y-6183000D01*
X13220500Y-6132000D02*
X13322500Y-6132000D01*
X13271500Y-6335000D02*
X13271500Y-6437000D01*
X13220500Y-6386000D02*
X13322500Y-6386000D01*
X13271500Y-6589000D02*
X13271500Y-6691000D01*
X13220500Y-6640000D02*
X13322500Y-6640000D01*
X13271500Y-6843000D02*
X13271500Y-6945000D01*
X13220500Y-6894000D02*
X13322500Y-6894000D01*
X13271500Y-7097000D02*
X13271500Y-7199000D01*
X13220500Y-7148000D02*
X13322500Y-7148000D01*
X13271500Y-7351000D02*
X13271500Y-7453000D01*
X13220500Y-7402000D02*
X13322500Y-7402000D01*
X13271500Y-7605000D02*
X13271500Y-7707000D01*
X13220500Y-7656000D02*
X13322500Y-7656000D01*
X13271500Y-7859000D02*
X13271500Y-7961000D01*
X13220500Y-7910000D02*
X13322500Y-7910000D01*
X13271500Y-8113000D02*
X13271500Y-8215000D01*
X13220500Y-8164000D02*
X13322500Y-8164000D01*
X13271500Y-8367000D02*
X13271500Y-8469000D01*
X13220500Y-8418000D02*
X13322500Y-8418000D01*
X13271500Y-8621000D02*
X13271500Y-8723000D01*
X13220500Y-8672000D02*
X13322500Y-8672000D01*
X13271500Y-8875000D02*
X13271500Y-8977000D01*
X13220500Y-8926000D02*
X13322500Y-8926000D01*
D14*
X15223169Y-4682170D02*
X15223169Y-4588831D01*
X15129830Y-4588831D01*
X15129830Y-4682170D01*
X15223169Y-4682170D01*
X15723169Y-4682170D02*
X15723169Y-4588831D01*
X15629830Y-4588831D01*
X15629830Y-4682170D01*
X15723169Y-4682170D01*
D11*
X8533619Y-13330524D02*
X8533619Y-13130524D01*
X8533619Y-13130524D02*
X8581238Y-13130524D01*
X8581238Y-13130524D02*
X8609810Y-13140048D01*
X8609810Y-13140048D02*
X8628857Y-13159095D01*
X8628857Y-13159095D02*
X8638381Y-13178143D01*
X8638381Y-13178143D02*
X8647905Y-13216238D01*
X8647905Y-13216238D02*
X8647905Y-13244809D01*
X8647905Y-13244809D02*
X8638381Y-13282905D01*
X8638381Y-13282905D02*
X8628857Y-13301952D01*
X8628857Y-13301952D02*
X8609810Y-13321000D01*
X8609810Y-13321000D02*
X8581238Y-13330524D01*
X8581238Y-13330524D02*
X8533619Y-13330524D01*
X8733619Y-13330524D02*
X8733619Y-13197190D01*
X8733619Y-13235286D02*
X8743143Y-13216238D01*
X8743143Y-13216238D02*
X8752667Y-13206714D01*
X8752667Y-13206714D02*
X8771714Y-13197190D01*
X8771714Y-13197190D02*
X8790762Y-13197190D01*
X8857429Y-13330524D02*
X8857429Y-13197190D01*
X8857429Y-13130524D02*
X8847905Y-13140048D01*
X8847905Y-13140048D02*
X8857429Y-13149571D01*
X8857429Y-13149571D02*
X8866952Y-13140048D01*
X8866952Y-13140048D02*
X8857429Y-13130524D01*
X8857429Y-13130524D02*
X8857429Y-13149571D01*
X8981238Y-13330524D02*
X8962190Y-13321000D01*
X8962190Y-13321000D02*
X8952667Y-13301952D01*
X8952667Y-13301952D02*
X8952667Y-13130524D01*
X9086000Y-13330524D02*
X9066952Y-13321000D01*
X9066952Y-13321000D02*
X9057429Y-13301952D01*
X9057429Y-13301952D02*
X9057429Y-13130524D01*
X9314571Y-13330524D02*
X9314571Y-13130524D01*
X9314571Y-13130524D02*
X9381238Y-13273381D01*
X9381238Y-13273381D02*
X9447905Y-13130524D01*
X9447905Y-13130524D02*
X9447905Y-13330524D01*
X9628857Y-13330524D02*
X9628857Y-13225762D01*
X9628857Y-13225762D02*
X9619333Y-13206714D01*
X9619333Y-13206714D02*
X9600286Y-13197190D01*
X9600286Y-13197190D02*
X9562190Y-13197190D01*
X9562190Y-13197190D02*
X9543143Y-13206714D01*
X9628857Y-13321000D02*
X9609810Y-13330524D01*
X9609810Y-13330524D02*
X9562190Y-13330524D01*
X9562190Y-13330524D02*
X9543143Y-13321000D01*
X9543143Y-13321000D02*
X9533619Y-13301952D01*
X9533619Y-13301952D02*
X9533619Y-13282905D01*
X9533619Y-13282905D02*
X9543143Y-13263857D01*
X9543143Y-13263857D02*
X9562190Y-13254333D01*
X9562190Y-13254333D02*
X9609810Y-13254333D01*
X9609810Y-13254333D02*
X9628857Y-13244809D01*
X9724095Y-13197190D02*
X9724095Y-13397190D01*
X9724095Y-13206714D02*
X9743143Y-13197190D01*
X9743143Y-13197190D02*
X9781238Y-13197190D01*
X9781238Y-13197190D02*
X9800286Y-13206714D01*
X9800286Y-13206714D02*
X9809810Y-13216238D01*
X9809810Y-13216238D02*
X9819333Y-13235286D01*
X9819333Y-13235286D02*
X9819333Y-13292428D01*
X9819333Y-13292428D02*
X9809810Y-13311476D01*
X9809810Y-13311476D02*
X9800286Y-13321000D01*
X9800286Y-13321000D02*
X9781238Y-13330524D01*
X9781238Y-13330524D02*
X9743143Y-13330524D01*
X9743143Y-13330524D02*
X9724095Y-13321000D01*
X9905048Y-13311476D02*
X9914571Y-13321000D01*
X9914571Y-13321000D02*
X9905048Y-13330524D01*
X9905048Y-13330524D02*
X9895524Y-13321000D01*
X9895524Y-13321000D02*
X9905048Y-13311476D01*
X9905048Y-13311476D02*
X9905048Y-13330524D01*
X9905048Y-13206714D02*
X9914571Y-13216238D01*
X9914571Y-13216238D02*
X9905048Y-13225762D01*
X9905048Y-13225762D02*
X9895524Y-13216238D01*
X9895524Y-13216238D02*
X9905048Y-13206714D01*
X9905048Y-13206714D02*
X9905048Y-13225762D01*
D12*
X8206000Y-13618000D02*
X8286000Y-13698000D01*
X8286000Y-13618000D02*
X8206000Y-13698000D01*
D11*
X8571714Y-13550524D02*
X8590762Y-13550524D01*
X8590762Y-13550524D02*
X8609810Y-13560048D01*
X8609810Y-13560048D02*
X8619333Y-13569571D01*
X8619333Y-13569571D02*
X8628857Y-13588619D01*
X8628857Y-13588619D02*
X8638381Y-13626714D01*
X8638381Y-13626714D02*
X8638381Y-13674333D01*
X8638381Y-13674333D02*
X8628857Y-13712428D01*
X8628857Y-13712428D02*
X8619333Y-13731476D01*
X8619333Y-13731476D02*
X8609810Y-13741000D01*
X8609810Y-13741000D02*
X8590762Y-13750524D01*
X8590762Y-13750524D02*
X8571714Y-13750524D01*
X8571714Y-13750524D02*
X8552667Y-13741000D01*
X8552667Y-13741000D02*
X8543143Y-13731476D01*
X8543143Y-13731476D02*
X8533619Y-13712428D01*
X8533619Y-13712428D02*
X8524095Y-13674333D01*
X8524095Y-13674333D02*
X8524095Y-13626714D01*
X8524095Y-13626714D02*
X8533619Y-13588619D01*
X8533619Y-13588619D02*
X8543143Y-13569571D01*
X8543143Y-13569571D02*
X8552667Y-13560048D01*
X8552667Y-13560048D02*
X8571714Y-13550524D01*
X8724095Y-13731476D02*
X8733619Y-13741000D01*
X8733619Y-13741000D02*
X8724095Y-13750524D01*
X8724095Y-13750524D02*
X8714571Y-13741000D01*
X8714571Y-13741000D02*
X8724095Y-13731476D01*
X8724095Y-13731476D02*
X8724095Y-13750524D01*
X8847905Y-13636238D02*
X8828857Y-13626714D01*
X8828857Y-13626714D02*
X8819333Y-13617190D01*
X8819333Y-13617190D02*
X8809810Y-13598143D01*
X8809810Y-13598143D02*
X8809810Y-13588619D01*
X8809810Y-13588619D02*
X8819333Y-13569571D01*
X8819333Y-13569571D02*
X8828857Y-13560048D01*
X8828857Y-13560048D02*
X8847905Y-13550524D01*
X8847905Y-13550524D02*
X8886000Y-13550524D01*
X8886000Y-13550524D02*
X8905048Y-13560048D01*
X8905048Y-13560048D02*
X8914571Y-13569571D01*
X8914571Y-13569571D02*
X8924095Y-13588619D01*
X8924095Y-13588619D02*
X8924095Y-13598143D01*
X8924095Y-13598143D02*
X8914571Y-13617190D01*
X8914571Y-13617190D02*
X8905048Y-13626714D01*
X8905048Y-13626714D02*
X8886000Y-13636238D01*
X8886000Y-13636238D02*
X8847905Y-13636238D01*
X8847905Y-13636238D02*
X8828857Y-13645762D01*
X8828857Y-13645762D02*
X8819333Y-13655286D01*
X8819333Y-13655286D02*
X8809810Y-13674333D01*
X8809810Y-13674333D02*
X8809810Y-13712428D01*
X8809810Y-13712428D02*
X8819333Y-13731476D01*
X8819333Y-13731476D02*
X8828857Y-13741000D01*
X8828857Y-13741000D02*
X8847905Y-13750524D01*
X8847905Y-13750524D02*
X8886000Y-13750524D01*
X8886000Y-13750524D02*
X8905048Y-13741000D01*
X8905048Y-13741000D02*
X8914571Y-13731476D01*
X8914571Y-13731476D02*
X8924095Y-13712428D01*
X8924095Y-13712428D02*
X8924095Y-13674333D01*
X8924095Y-13674333D02*
X8914571Y-13655286D01*
X8914571Y-13655286D02*
X8905048Y-13645762D01*
X8905048Y-13645762D02*
X8886000Y-13636238D01*
X9047905Y-13550524D02*
X9066952Y-13550524D01*
X9066952Y-13550524D02*
X9086000Y-13560048D01*
X9086000Y-13560048D02*
X9095524Y-13569571D01*
X9095524Y-13569571D02*
X9105048Y-13588619D01*
X9105048Y-13588619D02*
X9114571Y-13626714D01*
X9114571Y-13626714D02*
X9114571Y-13674333D01*
X9114571Y-13674333D02*
X9105048Y-13712428D01*
X9105048Y-13712428D02*
X9095524Y-13731476D01*
X9095524Y-13731476D02*
X9086000Y-13741000D01*
X9086000Y-13741000D02*
X9066952Y-13750524D01*
X9066952Y-13750524D02*
X9047905Y-13750524D01*
X9047905Y-13750524D02*
X9028857Y-13741000D01*
X9028857Y-13741000D02*
X9019333Y-13731476D01*
X9019333Y-13731476D02*
X9009810Y-13712428D01*
X9009810Y-13712428D02*
X9000286Y-13674333D01*
X9000286Y-13674333D02*
X9000286Y-13626714D01*
X9000286Y-13626714D02*
X9009810Y-13588619D01*
X9009810Y-13588619D02*
X9019333Y-13569571D01*
X9019333Y-13569571D02*
X9028857Y-13560048D01*
X9028857Y-13560048D02*
X9047905Y-13550524D01*
X9238381Y-13550524D02*
X9257429Y-13550524D01*
X9257429Y-13550524D02*
X9276476Y-13560048D01*
X9276476Y-13560048D02*
X9286000Y-13569571D01*
X9286000Y-13569571D02*
X9295524Y-13588619D01*
X9295524Y-13588619D02*
X9305048Y-13626714D01*
X9305048Y-13626714D02*
X9305048Y-13674333D01*
X9305048Y-13674333D02*
X9295524Y-13712428D01*
X9295524Y-13712428D02*
X9286000Y-13731476D01*
X9286000Y-13731476D02*
X9276476Y-13741000D01*
X9276476Y-13741000D02*
X9257429Y-13750524D01*
X9257429Y-13750524D02*
X9238381Y-13750524D01*
X9238381Y-13750524D02*
X9219333Y-13741000D01*
X9219333Y-13741000D02*
X9209810Y-13731476D01*
X9209810Y-13731476D02*
X9200286Y-13712428D01*
X9200286Y-13712428D02*
X9190762Y-13674333D01*
X9190762Y-13674333D02*
X9190762Y-13626714D01*
X9190762Y-13626714D02*
X9200286Y-13588619D01*
X9200286Y-13588619D02*
X9209810Y-13569571D01*
X9209810Y-13569571D02*
X9219333Y-13560048D01*
X9219333Y-13560048D02*
X9238381Y-13550524D01*
X9390762Y-13750524D02*
X9390762Y-13617190D01*
X9390762Y-13636238D02*
X9400286Y-13626714D01*
X9400286Y-13626714D02*
X9419333Y-13617190D01*
X9419333Y-13617190D02*
X9447905Y-13617190D01*
X9447905Y-13617190D02*
X9466952Y-13626714D01*
X9466952Y-13626714D02*
X9476476Y-13645762D01*
X9476476Y-13645762D02*
X9476476Y-13750524D01*
X9476476Y-13645762D02*
X9486000Y-13626714D01*
X9486000Y-13626714D02*
X9505048Y-13617190D01*
X9505048Y-13617190D02*
X9533619Y-13617190D01*
X9533619Y-13617190D02*
X9552667Y-13626714D01*
X9552667Y-13626714D02*
X9562191Y-13645762D01*
X9562191Y-13645762D02*
X9562191Y-13750524D01*
X9657429Y-13750524D02*
X9657429Y-13617190D01*
X9657429Y-13636238D02*
X9666952Y-13626714D01*
X9666952Y-13626714D02*
X9686000Y-13617190D01*
X9686000Y-13617190D02*
X9714572Y-13617190D01*
X9714572Y-13617190D02*
X9733619Y-13626714D01*
X9733619Y-13626714D02*
X9743143Y-13645762D01*
X9743143Y-13645762D02*
X9743143Y-13750524D01*
X9743143Y-13645762D02*
X9752667Y-13626714D01*
X9752667Y-13626714D02*
X9771714Y-13617190D01*
X9771714Y-13617190D02*
X9800286Y-13617190D01*
X9800286Y-13617190D02*
X9819333Y-13626714D01*
X9819333Y-13626714D02*
X9828857Y-13645762D01*
X9828857Y-13645762D02*
X9828857Y-13750524D01*
X10219333Y-13541000D02*
X10047905Y-13798143D01*
X10476476Y-13550524D02*
X10495524Y-13550524D01*
X10495524Y-13550524D02*
X10514572Y-13560048D01*
X10514572Y-13560048D02*
X10524095Y-13569571D01*
X10524095Y-13569571D02*
X10533619Y-13588619D01*
X10533619Y-13588619D02*
X10543143Y-13626714D01*
X10543143Y-13626714D02*
X10543143Y-13674333D01*
X10543143Y-13674333D02*
X10533619Y-13712428D01*
X10533619Y-13712428D02*
X10524095Y-13731476D01*
X10524095Y-13731476D02*
X10514572Y-13741000D01*
X10514572Y-13741000D02*
X10495524Y-13750524D01*
X10495524Y-13750524D02*
X10476476Y-13750524D01*
X10476476Y-13750524D02*
X10457429Y-13741000D01*
X10457429Y-13741000D02*
X10447905Y-13731476D01*
X10447905Y-13731476D02*
X10438381Y-13712428D01*
X10438381Y-13712428D02*
X10428857Y-13674333D01*
X10428857Y-13674333D02*
X10428857Y-13626714D01*
X10428857Y-13626714D02*
X10438381Y-13588619D01*
X10438381Y-13588619D02*
X10447905Y-13569571D01*
X10447905Y-13569571D02*
X10457429Y-13560048D01*
X10457429Y-13560048D02*
X10476476Y-13550524D01*
X10628857Y-13731476D02*
X10638381Y-13741000D01*
X10638381Y-13741000D02*
X10628857Y-13750524D01*
X10628857Y-13750524D02*
X10619334Y-13741000D01*
X10619334Y-13741000D02*
X10628857Y-13731476D01*
X10628857Y-13731476D02*
X10628857Y-13750524D01*
X10762191Y-13550524D02*
X10781238Y-13550524D01*
X10781238Y-13550524D02*
X10800286Y-13560048D01*
X10800286Y-13560048D02*
X10809810Y-13569571D01*
X10809810Y-13569571D02*
X10819334Y-13588619D01*
X10819334Y-13588619D02*
X10828857Y-13626714D01*
X10828857Y-13626714D02*
X10828857Y-13674333D01*
X10828857Y-13674333D02*
X10819334Y-13712428D01*
X10819334Y-13712428D02*
X10809810Y-13731476D01*
X10809810Y-13731476D02*
X10800286Y-13741000D01*
X10800286Y-13741000D02*
X10781238Y-13750524D01*
X10781238Y-13750524D02*
X10762191Y-13750524D01*
X10762191Y-13750524D02*
X10743143Y-13741000D01*
X10743143Y-13741000D02*
X10733619Y-13731476D01*
X10733619Y-13731476D02*
X10724095Y-13712428D01*
X10724095Y-13712428D02*
X10714572Y-13674333D01*
X10714572Y-13674333D02*
X10714572Y-13626714D01*
X10714572Y-13626714D02*
X10724095Y-13588619D01*
X10724095Y-13588619D02*
X10733619Y-13569571D01*
X10733619Y-13569571D02*
X10743143Y-13560048D01*
X10743143Y-13560048D02*
X10762191Y-13550524D01*
X10895524Y-13550524D02*
X11019334Y-13550524D01*
X11019334Y-13550524D02*
X10952667Y-13626714D01*
X10952667Y-13626714D02*
X10981238Y-13626714D01*
X10981238Y-13626714D02*
X11000286Y-13636238D01*
X11000286Y-13636238D02*
X11009810Y-13645762D01*
X11009810Y-13645762D02*
X11019334Y-13664809D01*
X11019334Y-13664809D02*
X11019334Y-13712428D01*
X11019334Y-13712428D02*
X11009810Y-13731476D01*
X11009810Y-13731476D02*
X11000286Y-13741000D01*
X11000286Y-13741000D02*
X10981238Y-13750524D01*
X10981238Y-13750524D02*
X10924095Y-13750524D01*
X10924095Y-13750524D02*
X10905048Y-13741000D01*
X10905048Y-13741000D02*
X10895524Y-13731476D01*
X11209810Y-13750524D02*
X11095524Y-13750524D01*
X11152667Y-13750524D02*
X11152667Y-13550524D01*
X11152667Y-13550524D02*
X11133619Y-13579095D01*
X11133619Y-13579095D02*
X11114572Y-13598143D01*
X11114572Y-13598143D02*
X11095524Y-13607667D01*
X11390762Y-13550524D02*
X11295524Y-13550524D01*
X11295524Y-13550524D02*
X11286000Y-13645762D01*
X11286000Y-13645762D02*
X11295524Y-13636238D01*
X11295524Y-13636238D02*
X11314572Y-13626714D01*
X11314572Y-13626714D02*
X11362191Y-13626714D01*
X11362191Y-13626714D02*
X11381238Y-13636238D01*
X11381238Y-13636238D02*
X11390762Y-13645762D01*
X11390762Y-13645762D02*
X11400286Y-13664809D01*
X11400286Y-13664809D02*
X11400286Y-13712428D01*
X11400286Y-13712428D02*
X11390762Y-13731476D01*
X11390762Y-13731476D02*
X11381238Y-13741000D01*
X11381238Y-13741000D02*
X11362191Y-13750524D01*
X11362191Y-13750524D02*
X11314572Y-13750524D01*
X11314572Y-13750524D02*
X11295524Y-13741000D01*
X11295524Y-13741000D02*
X11286000Y-13731476D01*
X11476476Y-13550524D02*
X11476476Y-13588619D01*
X11552667Y-13550524D02*
X11552667Y-13588619D01*
X11847905Y-13826714D02*
X11838381Y-13817190D01*
X11838381Y-13817190D02*
X11819334Y-13788619D01*
X11819334Y-13788619D02*
X11809810Y-13769571D01*
X11809810Y-13769571D02*
X11800286Y-13741000D01*
X11800286Y-13741000D02*
X11790762Y-13693381D01*
X11790762Y-13693381D02*
X11790762Y-13655286D01*
X11790762Y-13655286D02*
X11800286Y-13607667D01*
X11800286Y-13607667D02*
X11809810Y-13579095D01*
X11809810Y-13579095D02*
X11819334Y-13560048D01*
X11819334Y-13560048D02*
X11838381Y-13531476D01*
X11838381Y-13531476D02*
X11847905Y-13521952D01*
X12028857Y-13750524D02*
X11914572Y-13750524D01*
X11971714Y-13750524D02*
X11971714Y-13550524D01*
X11971714Y-13550524D02*
X11952667Y-13579095D01*
X11952667Y-13579095D02*
X11933619Y-13598143D01*
X11933619Y-13598143D02*
X11914572Y-13607667D01*
X12200286Y-13617190D02*
X12200286Y-13750524D01*
X12152667Y-13541000D02*
X12105048Y-13683857D01*
X12105048Y-13683857D02*
X12228857Y-13683857D01*
X12457429Y-13750524D02*
X12457429Y-13550524D01*
X12543143Y-13750524D02*
X12543143Y-13645762D01*
X12543143Y-13645762D02*
X12533619Y-13626714D01*
X12533619Y-13626714D02*
X12514572Y-13617190D01*
X12514572Y-13617190D02*
X12486000Y-13617190D01*
X12486000Y-13617190D02*
X12466953Y-13626714D01*
X12466953Y-13626714D02*
X12457429Y-13636238D01*
X12666953Y-13750524D02*
X12647905Y-13741000D01*
X12647905Y-13741000D02*
X12638381Y-13731476D01*
X12638381Y-13731476D02*
X12628857Y-13712428D01*
X12628857Y-13712428D02*
X12628857Y-13655286D01*
X12628857Y-13655286D02*
X12638381Y-13636238D01*
X12638381Y-13636238D02*
X12647905Y-13626714D01*
X12647905Y-13626714D02*
X12666953Y-13617190D01*
X12666953Y-13617190D02*
X12695524Y-13617190D01*
X12695524Y-13617190D02*
X12714572Y-13626714D01*
X12714572Y-13626714D02*
X12724096Y-13636238D01*
X12724096Y-13636238D02*
X12733619Y-13655286D01*
X12733619Y-13655286D02*
X12733619Y-13712428D01*
X12733619Y-13712428D02*
X12724096Y-13731476D01*
X12724096Y-13731476D02*
X12714572Y-13741000D01*
X12714572Y-13741000D02*
X12695524Y-13750524D01*
X12695524Y-13750524D02*
X12666953Y-13750524D01*
X12847905Y-13750524D02*
X12828857Y-13741000D01*
X12828857Y-13741000D02*
X12819334Y-13721952D01*
X12819334Y-13721952D02*
X12819334Y-13550524D01*
X13000286Y-13741000D02*
X12981238Y-13750524D01*
X12981238Y-13750524D02*
X12943143Y-13750524D01*
X12943143Y-13750524D02*
X12924096Y-13741000D01*
X12924096Y-13741000D02*
X12914572Y-13721952D01*
X12914572Y-13721952D02*
X12914572Y-13645762D01*
X12914572Y-13645762D02*
X12924096Y-13626714D01*
X12924096Y-13626714D02*
X12943143Y-13617190D01*
X12943143Y-13617190D02*
X12981238Y-13617190D01*
X12981238Y-13617190D02*
X13000286Y-13626714D01*
X13000286Y-13626714D02*
X13009810Y-13645762D01*
X13009810Y-13645762D02*
X13009810Y-13664809D01*
X13009810Y-13664809D02*
X12914572Y-13683857D01*
X13086000Y-13741000D02*
X13105048Y-13750524D01*
X13105048Y-13750524D02*
X13143143Y-13750524D01*
X13143143Y-13750524D02*
X13162191Y-13741000D01*
X13162191Y-13741000D02*
X13171715Y-13721952D01*
X13171715Y-13721952D02*
X13171715Y-13712428D01*
X13171715Y-13712428D02*
X13162191Y-13693381D01*
X13162191Y-13693381D02*
X13143143Y-13683857D01*
X13143143Y-13683857D02*
X13114572Y-13683857D01*
X13114572Y-13683857D02*
X13095524Y-13674333D01*
X13095524Y-13674333D02*
X13086000Y-13655286D01*
X13086000Y-13655286D02*
X13086000Y-13645762D01*
X13086000Y-13645762D02*
X13095524Y-13626714D01*
X13095524Y-13626714D02*
X13114572Y-13617190D01*
X13114572Y-13617190D02*
X13143143Y-13617190D01*
X13143143Y-13617190D02*
X13162191Y-13626714D01*
X13238381Y-13826714D02*
X13247905Y-13817190D01*
X13247905Y-13817190D02*
X13266953Y-13788619D01*
X13266953Y-13788619D02*
X13276477Y-13769571D01*
X13276477Y-13769571D02*
X13286000Y-13741000D01*
X13286000Y-13741000D02*
X13295524Y-13693381D01*
X13295524Y-13693381D02*
X13295524Y-13655286D01*
X13295524Y-13655286D02*
X13286000Y-13607667D01*
X13286000Y-13607667D02*
X13276477Y-13579095D01*
X13276477Y-13579095D02*
X13266953Y-13560048D01*
X13266953Y-13560048D02*
X13247905Y-13531476D01*
X13247905Y-13531476D02*
X13238381Y-13521952D01*
D10*
X8286000Y-13922000D02*
G75*
G03*
X8286000Y-13922000I-50000J0D01*
G01*
D11*
X8638381Y-14014524D02*
X8524095Y-14014524D01*
X8581238Y-14014524D02*
X8581238Y-13814524D01*
X8581238Y-13814524D02*
X8562190Y-13843095D01*
X8562190Y-13843095D02*
X8543143Y-13862143D01*
X8543143Y-13862143D02*
X8524095Y-13871667D01*
X8724095Y-13995476D02*
X8733619Y-14005000D01*
X8733619Y-14005000D02*
X8724095Y-14014524D01*
X8724095Y-14014524D02*
X8714571Y-14005000D01*
X8714571Y-14005000D02*
X8724095Y-13995476D01*
X8724095Y-13995476D02*
X8724095Y-14014524D01*
X8857429Y-13814524D02*
X8876476Y-13814524D01*
X8876476Y-13814524D02*
X8895524Y-13824048D01*
X8895524Y-13824048D02*
X8905048Y-13833571D01*
X8905048Y-13833571D02*
X8914571Y-13852619D01*
X8914571Y-13852619D02*
X8924095Y-13890714D01*
X8924095Y-13890714D02*
X8924095Y-13938333D01*
X8924095Y-13938333D02*
X8914571Y-13976428D01*
X8914571Y-13976428D02*
X8905048Y-13995476D01*
X8905048Y-13995476D02*
X8895524Y-14005000D01*
X8895524Y-14005000D02*
X8876476Y-14014524D01*
X8876476Y-14014524D02*
X8857429Y-14014524D01*
X8857429Y-14014524D02*
X8838381Y-14005000D01*
X8838381Y-14005000D02*
X8828857Y-13995476D01*
X8828857Y-13995476D02*
X8819333Y-13976428D01*
X8819333Y-13976428D02*
X8809810Y-13938333D01*
X8809810Y-13938333D02*
X8809810Y-13890714D01*
X8809810Y-13890714D02*
X8819333Y-13852619D01*
X8819333Y-13852619D02*
X8828857Y-13833571D01*
X8828857Y-13833571D02*
X8838381Y-13824048D01*
X8838381Y-13824048D02*
X8857429Y-13814524D01*
X9047905Y-13814524D02*
X9066952Y-13814524D01*
X9066952Y-13814524D02*
X9086000Y-13824048D01*
X9086000Y-13824048D02*
X9095524Y-13833571D01*
X9095524Y-13833571D02*
X9105048Y-13852619D01*
X9105048Y-13852619D02*
X9114571Y-13890714D01*
X9114571Y-13890714D02*
X9114571Y-13938333D01*
X9114571Y-13938333D02*
X9105048Y-13976428D01*
X9105048Y-13976428D02*
X9095524Y-13995476D01*
X9095524Y-13995476D02*
X9086000Y-14005000D01*
X9086000Y-14005000D02*
X9066952Y-14014524D01*
X9066952Y-14014524D02*
X9047905Y-14014524D01*
X9047905Y-14014524D02*
X9028857Y-14005000D01*
X9028857Y-14005000D02*
X9019333Y-13995476D01*
X9019333Y-13995476D02*
X9009810Y-13976428D01*
X9009810Y-13976428D02*
X9000286Y-13938333D01*
X9000286Y-13938333D02*
X9000286Y-13890714D01*
X9000286Y-13890714D02*
X9009810Y-13852619D01*
X9009810Y-13852619D02*
X9019333Y-13833571D01*
X9019333Y-13833571D02*
X9028857Y-13824048D01*
X9028857Y-13824048D02*
X9047905Y-13814524D01*
X9238381Y-13814524D02*
X9257429Y-13814524D01*
X9257429Y-13814524D02*
X9276476Y-13824048D01*
X9276476Y-13824048D02*
X9286000Y-13833571D01*
X9286000Y-13833571D02*
X9295524Y-13852619D01*
X9295524Y-13852619D02*
X9305048Y-13890714D01*
X9305048Y-13890714D02*
X9305048Y-13938333D01*
X9305048Y-13938333D02*
X9295524Y-13976428D01*
X9295524Y-13976428D02*
X9286000Y-13995476D01*
X9286000Y-13995476D02*
X9276476Y-14005000D01*
X9276476Y-14005000D02*
X9257429Y-14014524D01*
X9257429Y-14014524D02*
X9238381Y-14014524D01*
X9238381Y-14014524D02*
X9219333Y-14005000D01*
X9219333Y-14005000D02*
X9209810Y-13995476D01*
X9209810Y-13995476D02*
X9200286Y-13976428D01*
X9200286Y-13976428D02*
X9190762Y-13938333D01*
X9190762Y-13938333D02*
X9190762Y-13890714D01*
X9190762Y-13890714D02*
X9200286Y-13852619D01*
X9200286Y-13852619D02*
X9209810Y-13833571D01*
X9209810Y-13833571D02*
X9219333Y-13824048D01*
X9219333Y-13824048D02*
X9238381Y-13814524D01*
X9390762Y-14014524D02*
X9390762Y-13881190D01*
X9390762Y-13900238D02*
X9400286Y-13890714D01*
X9400286Y-13890714D02*
X9419333Y-13881190D01*
X9419333Y-13881190D02*
X9447905Y-13881190D01*
X9447905Y-13881190D02*
X9466952Y-13890714D01*
X9466952Y-13890714D02*
X9476476Y-13909762D01*
X9476476Y-13909762D02*
X9476476Y-14014524D01*
X9476476Y-13909762D02*
X9486000Y-13890714D01*
X9486000Y-13890714D02*
X9505048Y-13881190D01*
X9505048Y-13881190D02*
X9533619Y-13881190D01*
X9533619Y-13881190D02*
X9552667Y-13890714D01*
X9552667Y-13890714D02*
X9562191Y-13909762D01*
X9562191Y-13909762D02*
X9562191Y-14014524D01*
X9657429Y-14014524D02*
X9657429Y-13881190D01*
X9657429Y-13900238D02*
X9666952Y-13890714D01*
X9666952Y-13890714D02*
X9686000Y-13881190D01*
X9686000Y-13881190D02*
X9714572Y-13881190D01*
X9714572Y-13881190D02*
X9733619Y-13890714D01*
X9733619Y-13890714D02*
X9743143Y-13909762D01*
X9743143Y-13909762D02*
X9743143Y-14014524D01*
X9743143Y-13909762D02*
X9752667Y-13890714D01*
X9752667Y-13890714D02*
X9771714Y-13881190D01*
X9771714Y-13881190D02*
X9800286Y-13881190D01*
X9800286Y-13881190D02*
X9819333Y-13890714D01*
X9819333Y-13890714D02*
X9828857Y-13909762D01*
X9828857Y-13909762D02*
X9828857Y-14014524D01*
X10219333Y-13805000D02*
X10047905Y-14062143D01*
X10476476Y-13814524D02*
X10495524Y-13814524D01*
X10495524Y-13814524D02*
X10514572Y-13824048D01*
X10514572Y-13824048D02*
X10524095Y-13833571D01*
X10524095Y-13833571D02*
X10533619Y-13852619D01*
X10533619Y-13852619D02*
X10543143Y-13890714D01*
X10543143Y-13890714D02*
X10543143Y-13938333D01*
X10543143Y-13938333D02*
X10533619Y-13976428D01*
X10533619Y-13976428D02*
X10524095Y-13995476D01*
X10524095Y-13995476D02*
X10514572Y-14005000D01*
X10514572Y-14005000D02*
X10495524Y-14014524D01*
X10495524Y-14014524D02*
X10476476Y-14014524D01*
X10476476Y-14014524D02*
X10457429Y-14005000D01*
X10457429Y-14005000D02*
X10447905Y-13995476D01*
X10447905Y-13995476D02*
X10438381Y-13976428D01*
X10438381Y-13976428D02*
X10428857Y-13938333D01*
X10428857Y-13938333D02*
X10428857Y-13890714D01*
X10428857Y-13890714D02*
X10438381Y-13852619D01*
X10438381Y-13852619D02*
X10447905Y-13833571D01*
X10447905Y-13833571D02*
X10457429Y-13824048D01*
X10457429Y-13824048D02*
X10476476Y-13814524D01*
X10628857Y-13995476D02*
X10638381Y-14005000D01*
X10638381Y-14005000D02*
X10628857Y-14014524D01*
X10628857Y-14014524D02*
X10619334Y-14005000D01*
X10619334Y-14005000D02*
X10628857Y-13995476D01*
X10628857Y-13995476D02*
X10628857Y-14014524D01*
X10762191Y-13814524D02*
X10781238Y-13814524D01*
X10781238Y-13814524D02*
X10800286Y-13824048D01*
X10800286Y-13824048D02*
X10809810Y-13833571D01*
X10809810Y-13833571D02*
X10819334Y-13852619D01*
X10819334Y-13852619D02*
X10828857Y-13890714D01*
X10828857Y-13890714D02*
X10828857Y-13938333D01*
X10828857Y-13938333D02*
X10819334Y-13976428D01*
X10819334Y-13976428D02*
X10809810Y-13995476D01*
X10809810Y-13995476D02*
X10800286Y-14005000D01*
X10800286Y-14005000D02*
X10781238Y-14014524D01*
X10781238Y-14014524D02*
X10762191Y-14014524D01*
X10762191Y-14014524D02*
X10743143Y-14005000D01*
X10743143Y-14005000D02*
X10733619Y-13995476D01*
X10733619Y-13995476D02*
X10724095Y-13976428D01*
X10724095Y-13976428D02*
X10714572Y-13938333D01*
X10714572Y-13938333D02*
X10714572Y-13890714D01*
X10714572Y-13890714D02*
X10724095Y-13852619D01*
X10724095Y-13852619D02*
X10733619Y-13833571D01*
X10733619Y-13833571D02*
X10743143Y-13824048D01*
X10743143Y-13824048D02*
X10762191Y-13814524D01*
X10895524Y-13814524D02*
X11019334Y-13814524D01*
X11019334Y-13814524D02*
X10952667Y-13890714D01*
X10952667Y-13890714D02*
X10981238Y-13890714D01*
X10981238Y-13890714D02*
X11000286Y-13900238D01*
X11000286Y-13900238D02*
X11009810Y-13909762D01*
X11009810Y-13909762D02*
X11019334Y-13928809D01*
X11019334Y-13928809D02*
X11019334Y-13976428D01*
X11019334Y-13976428D02*
X11009810Y-13995476D01*
X11009810Y-13995476D02*
X11000286Y-14005000D01*
X11000286Y-14005000D02*
X10981238Y-14014524D01*
X10981238Y-14014524D02*
X10924095Y-14014524D01*
X10924095Y-14014524D02*
X10905048Y-14005000D01*
X10905048Y-14005000D02*
X10895524Y-13995476D01*
X11114572Y-14014524D02*
X11152667Y-14014524D01*
X11152667Y-14014524D02*
X11171715Y-14005000D01*
X11171715Y-14005000D02*
X11181238Y-13995476D01*
X11181238Y-13995476D02*
X11200286Y-13966905D01*
X11200286Y-13966905D02*
X11209810Y-13928809D01*
X11209810Y-13928809D02*
X11209810Y-13852619D01*
X11209810Y-13852619D02*
X11200286Y-13833571D01*
X11200286Y-13833571D02*
X11190762Y-13824048D01*
X11190762Y-13824048D02*
X11171715Y-13814524D01*
X11171715Y-13814524D02*
X11133619Y-13814524D01*
X11133619Y-13814524D02*
X11114572Y-13824048D01*
X11114572Y-13824048D02*
X11105048Y-13833571D01*
X11105048Y-13833571D02*
X11095524Y-13852619D01*
X11095524Y-13852619D02*
X11095524Y-13900238D01*
X11095524Y-13900238D02*
X11105048Y-13919286D01*
X11105048Y-13919286D02*
X11114572Y-13928809D01*
X11114572Y-13928809D02*
X11133619Y-13938333D01*
X11133619Y-13938333D02*
X11171715Y-13938333D01*
X11171715Y-13938333D02*
X11190762Y-13928809D01*
X11190762Y-13928809D02*
X11200286Y-13919286D01*
X11200286Y-13919286D02*
X11209810Y-13900238D01*
X11381238Y-13881190D02*
X11381238Y-14014524D01*
X11333619Y-13805000D02*
X11286000Y-13947857D01*
X11286000Y-13947857D02*
X11409810Y-13947857D01*
X11476476Y-13814524D02*
X11476476Y-13852619D01*
X11552667Y-13814524D02*
X11552667Y-13852619D01*
X11847905Y-14090714D02*
X11838381Y-14081190D01*
X11838381Y-14081190D02*
X11819334Y-14052619D01*
X11819334Y-14052619D02*
X11809810Y-14033571D01*
X11809810Y-14033571D02*
X11800286Y-14005000D01*
X11800286Y-14005000D02*
X11790762Y-13957381D01*
X11790762Y-13957381D02*
X11790762Y-13919286D01*
X11790762Y-13919286D02*
X11800286Y-13871667D01*
X11800286Y-13871667D02*
X11809810Y-13843095D01*
X11809810Y-13843095D02*
X11819334Y-13824048D01*
X11819334Y-13824048D02*
X11838381Y-13795476D01*
X11838381Y-13795476D02*
X11847905Y-13785952D01*
X12009810Y-13881190D02*
X12009810Y-14014524D01*
X11962191Y-13805000D02*
X11914572Y-13947857D01*
X11914572Y-13947857D02*
X12038381Y-13947857D01*
X12209810Y-13814524D02*
X12114572Y-13814524D01*
X12114572Y-13814524D02*
X12105048Y-13909762D01*
X12105048Y-13909762D02*
X12114572Y-13900238D01*
X12114572Y-13900238D02*
X12133619Y-13890714D01*
X12133619Y-13890714D02*
X12181238Y-13890714D01*
X12181238Y-13890714D02*
X12200286Y-13900238D01*
X12200286Y-13900238D02*
X12209810Y-13909762D01*
X12209810Y-13909762D02*
X12219334Y-13928809D01*
X12219334Y-13928809D02*
X12219334Y-13976428D01*
X12219334Y-13976428D02*
X12209810Y-13995476D01*
X12209810Y-13995476D02*
X12200286Y-14005000D01*
X12200286Y-14005000D02*
X12181238Y-14014524D01*
X12181238Y-14014524D02*
X12133619Y-14014524D01*
X12133619Y-14014524D02*
X12114572Y-14005000D01*
X12114572Y-14005000D02*
X12105048Y-13995476D01*
X12457429Y-14014524D02*
X12457429Y-13814524D01*
X12543143Y-14014524D02*
X12543143Y-13909762D01*
X12543143Y-13909762D02*
X12533619Y-13890714D01*
X12533619Y-13890714D02*
X12514572Y-13881190D01*
X12514572Y-13881190D02*
X12486000Y-13881190D01*
X12486000Y-13881190D02*
X12466953Y-13890714D01*
X12466953Y-13890714D02*
X12457429Y-13900238D01*
X12666953Y-14014524D02*
X12647905Y-14005000D01*
X12647905Y-14005000D02*
X12638381Y-13995476D01*
X12638381Y-13995476D02*
X12628857Y-13976428D01*
X12628857Y-13976428D02*
X12628857Y-13919286D01*
X12628857Y-13919286D02*
X12638381Y-13900238D01*
X12638381Y-13900238D02*
X12647905Y-13890714D01*
X12647905Y-13890714D02*
X12666953Y-13881190D01*
X12666953Y-13881190D02*
X12695524Y-13881190D01*
X12695524Y-13881190D02*
X12714572Y-13890714D01*
X12714572Y-13890714D02*
X12724096Y-13900238D01*
X12724096Y-13900238D02*
X12733619Y-13919286D01*
X12733619Y-13919286D02*
X12733619Y-13976428D01*
X12733619Y-13976428D02*
X12724096Y-13995476D01*
X12724096Y-13995476D02*
X12714572Y-14005000D01*
X12714572Y-14005000D02*
X12695524Y-14014524D01*
X12695524Y-14014524D02*
X12666953Y-14014524D01*
X12847905Y-14014524D02*
X12828857Y-14005000D01*
X12828857Y-14005000D02*
X12819334Y-13985952D01*
X12819334Y-13985952D02*
X12819334Y-13814524D01*
X13000286Y-14005000D02*
X12981238Y-14014524D01*
X12981238Y-14014524D02*
X12943143Y-14014524D01*
X12943143Y-14014524D02*
X12924096Y-14005000D01*
X12924096Y-14005000D02*
X12914572Y-13985952D01*
X12914572Y-13985952D02*
X12914572Y-13909762D01*
X12914572Y-13909762D02*
X12924096Y-13890714D01*
X12924096Y-13890714D02*
X12943143Y-13881190D01*
X12943143Y-13881190D02*
X12981238Y-13881190D01*
X12981238Y-13881190D02*
X13000286Y-13890714D01*
X13000286Y-13890714D02*
X13009810Y-13909762D01*
X13009810Y-13909762D02*
X13009810Y-13928809D01*
X13009810Y-13928809D02*
X12914572Y-13947857D01*
X13086000Y-14005000D02*
X13105048Y-14014524D01*
X13105048Y-14014524D02*
X13143143Y-14014524D01*
X13143143Y-14014524D02*
X13162191Y-14005000D01*
X13162191Y-14005000D02*
X13171715Y-13985952D01*
X13171715Y-13985952D02*
X13171715Y-13976428D01*
X13171715Y-13976428D02*
X13162191Y-13957381D01*
X13162191Y-13957381D02*
X13143143Y-13947857D01*
X13143143Y-13947857D02*
X13114572Y-13947857D01*
X13114572Y-13947857D02*
X13095524Y-13938333D01*
X13095524Y-13938333D02*
X13086000Y-13919286D01*
X13086000Y-13919286D02*
X13086000Y-13909762D01*
X13086000Y-13909762D02*
X13095524Y-13890714D01*
X13095524Y-13890714D02*
X13114572Y-13881190D01*
X13114572Y-13881190D02*
X13143143Y-13881190D01*
X13143143Y-13881190D02*
X13162191Y-13890714D01*
X13238381Y-14090714D02*
X13247905Y-14081190D01*
X13247905Y-14081190D02*
X13266953Y-14052619D01*
X13266953Y-14052619D02*
X13276477Y-14033571D01*
X13276477Y-14033571D02*
X13286000Y-14005000D01*
X13286000Y-14005000D02*
X13295524Y-13957381D01*
X13295524Y-13957381D02*
X13295524Y-13919286D01*
X13295524Y-13919286D02*
X13286000Y-13871667D01*
X13286000Y-13871667D02*
X13276477Y-13843095D01*
X13276477Y-13843095D02*
X13266953Y-13824048D01*
X13266953Y-13824048D02*
X13247905Y-13795476D01*
X13247905Y-13795476D02*
X13238381Y-13785952D01*
D13*
X8235000Y-14135000D02*
X8235000Y-14237000D01*
X8184000Y-14186000D02*
X8286000Y-14186000D01*
D11*
X8638381Y-14278524D02*
X8524095Y-14278524D01*
X8581238Y-14278524D02*
X8581238Y-14078524D01*
X8581238Y-14078524D02*
X8562190Y-14107095D01*
X8562190Y-14107095D02*
X8543143Y-14126143D01*
X8543143Y-14126143D02*
X8524095Y-14135667D01*
X8724095Y-14259476D02*
X8733619Y-14269000D01*
X8733619Y-14269000D02*
X8724095Y-14278524D01*
X8724095Y-14278524D02*
X8714571Y-14269000D01*
X8714571Y-14269000D02*
X8724095Y-14259476D01*
X8724095Y-14259476D02*
X8724095Y-14278524D01*
X8857429Y-14078524D02*
X8876476Y-14078524D01*
X8876476Y-14078524D02*
X8895524Y-14088048D01*
X8895524Y-14088048D02*
X8905048Y-14097571D01*
X8905048Y-14097571D02*
X8914571Y-14116619D01*
X8914571Y-14116619D02*
X8924095Y-14154714D01*
X8924095Y-14154714D02*
X8924095Y-14202333D01*
X8924095Y-14202333D02*
X8914571Y-14240428D01*
X8914571Y-14240428D02*
X8905048Y-14259476D01*
X8905048Y-14259476D02*
X8895524Y-14269000D01*
X8895524Y-14269000D02*
X8876476Y-14278524D01*
X8876476Y-14278524D02*
X8857429Y-14278524D01*
X8857429Y-14278524D02*
X8838381Y-14269000D01*
X8838381Y-14269000D02*
X8828857Y-14259476D01*
X8828857Y-14259476D02*
X8819333Y-14240428D01*
X8819333Y-14240428D02*
X8809810Y-14202333D01*
X8809810Y-14202333D02*
X8809810Y-14154714D01*
X8809810Y-14154714D02*
X8819333Y-14116619D01*
X8819333Y-14116619D02*
X8828857Y-14097571D01*
X8828857Y-14097571D02*
X8838381Y-14088048D01*
X8838381Y-14088048D02*
X8857429Y-14078524D01*
X9000286Y-14097571D02*
X9009810Y-14088048D01*
X9009810Y-14088048D02*
X9028857Y-14078524D01*
X9028857Y-14078524D02*
X9076476Y-14078524D01*
X9076476Y-14078524D02*
X9095524Y-14088048D01*
X9095524Y-14088048D02*
X9105048Y-14097571D01*
X9105048Y-14097571D02*
X9114571Y-14116619D01*
X9114571Y-14116619D02*
X9114571Y-14135667D01*
X9114571Y-14135667D02*
X9105048Y-14164238D01*
X9105048Y-14164238D02*
X8990762Y-14278524D01*
X8990762Y-14278524D02*
X9114571Y-14278524D01*
X9238381Y-14078524D02*
X9257429Y-14078524D01*
X9257429Y-14078524D02*
X9276476Y-14088048D01*
X9276476Y-14088048D02*
X9286000Y-14097571D01*
X9286000Y-14097571D02*
X9295524Y-14116619D01*
X9295524Y-14116619D02*
X9305048Y-14154714D01*
X9305048Y-14154714D02*
X9305048Y-14202333D01*
X9305048Y-14202333D02*
X9295524Y-14240428D01*
X9295524Y-14240428D02*
X9286000Y-14259476D01*
X9286000Y-14259476D02*
X9276476Y-14269000D01*
X9276476Y-14269000D02*
X9257429Y-14278524D01*
X9257429Y-14278524D02*
X9238381Y-14278524D01*
X9238381Y-14278524D02*
X9219333Y-14269000D01*
X9219333Y-14269000D02*
X9209810Y-14259476D01*
X9209810Y-14259476D02*
X9200286Y-14240428D01*
X9200286Y-14240428D02*
X9190762Y-14202333D01*
X9190762Y-14202333D02*
X9190762Y-14154714D01*
X9190762Y-14154714D02*
X9200286Y-14116619D01*
X9200286Y-14116619D02*
X9209810Y-14097571D01*
X9209810Y-14097571D02*
X9219333Y-14088048D01*
X9219333Y-14088048D02*
X9238381Y-14078524D01*
X9390762Y-14278524D02*
X9390762Y-14145190D01*
X9390762Y-14164238D02*
X9400286Y-14154714D01*
X9400286Y-14154714D02*
X9419333Y-14145190D01*
X9419333Y-14145190D02*
X9447905Y-14145190D01*
X9447905Y-14145190D02*
X9466952Y-14154714D01*
X9466952Y-14154714D02*
X9476476Y-14173762D01*
X9476476Y-14173762D02*
X9476476Y-14278524D01*
X9476476Y-14173762D02*
X9486000Y-14154714D01*
X9486000Y-14154714D02*
X9505048Y-14145190D01*
X9505048Y-14145190D02*
X9533619Y-14145190D01*
X9533619Y-14145190D02*
X9552667Y-14154714D01*
X9552667Y-14154714D02*
X9562191Y-14173762D01*
X9562191Y-14173762D02*
X9562191Y-14278524D01*
X9657429Y-14278524D02*
X9657429Y-14145190D01*
X9657429Y-14164238D02*
X9666952Y-14154714D01*
X9666952Y-14154714D02*
X9686000Y-14145190D01*
X9686000Y-14145190D02*
X9714572Y-14145190D01*
X9714572Y-14145190D02*
X9733619Y-14154714D01*
X9733619Y-14154714D02*
X9743143Y-14173762D01*
X9743143Y-14173762D02*
X9743143Y-14278524D01*
X9743143Y-14173762D02*
X9752667Y-14154714D01*
X9752667Y-14154714D02*
X9771714Y-14145190D01*
X9771714Y-14145190D02*
X9800286Y-14145190D01*
X9800286Y-14145190D02*
X9819333Y-14154714D01*
X9819333Y-14154714D02*
X9828857Y-14173762D01*
X9828857Y-14173762D02*
X9828857Y-14278524D01*
X10219333Y-14069000D02*
X10047905Y-14326143D01*
X10476476Y-14078524D02*
X10495524Y-14078524D01*
X10495524Y-14078524D02*
X10514572Y-14088048D01*
X10514572Y-14088048D02*
X10524095Y-14097571D01*
X10524095Y-14097571D02*
X10533619Y-14116619D01*
X10533619Y-14116619D02*
X10543143Y-14154714D01*
X10543143Y-14154714D02*
X10543143Y-14202333D01*
X10543143Y-14202333D02*
X10533619Y-14240428D01*
X10533619Y-14240428D02*
X10524095Y-14259476D01*
X10524095Y-14259476D02*
X10514572Y-14269000D01*
X10514572Y-14269000D02*
X10495524Y-14278524D01*
X10495524Y-14278524D02*
X10476476Y-14278524D01*
X10476476Y-14278524D02*
X10457429Y-14269000D01*
X10457429Y-14269000D02*
X10447905Y-14259476D01*
X10447905Y-14259476D02*
X10438381Y-14240428D01*
X10438381Y-14240428D02*
X10428857Y-14202333D01*
X10428857Y-14202333D02*
X10428857Y-14154714D01*
X10428857Y-14154714D02*
X10438381Y-14116619D01*
X10438381Y-14116619D02*
X10447905Y-14097571D01*
X10447905Y-14097571D02*
X10457429Y-14088048D01*
X10457429Y-14088048D02*
X10476476Y-14078524D01*
X10628857Y-14259476D02*
X10638381Y-14269000D01*
X10638381Y-14269000D02*
X10628857Y-14278524D01*
X10628857Y-14278524D02*
X10619334Y-14269000D01*
X10619334Y-14269000D02*
X10628857Y-14259476D01*
X10628857Y-14259476D02*
X10628857Y-14278524D01*
X10762191Y-14078524D02*
X10781238Y-14078524D01*
X10781238Y-14078524D02*
X10800286Y-14088048D01*
X10800286Y-14088048D02*
X10809810Y-14097571D01*
X10809810Y-14097571D02*
X10819334Y-14116619D01*
X10819334Y-14116619D02*
X10828857Y-14154714D01*
X10828857Y-14154714D02*
X10828857Y-14202333D01*
X10828857Y-14202333D02*
X10819334Y-14240428D01*
X10819334Y-14240428D02*
X10809810Y-14259476D01*
X10809810Y-14259476D02*
X10800286Y-14269000D01*
X10800286Y-14269000D02*
X10781238Y-14278524D01*
X10781238Y-14278524D02*
X10762191Y-14278524D01*
X10762191Y-14278524D02*
X10743143Y-14269000D01*
X10743143Y-14269000D02*
X10733619Y-14259476D01*
X10733619Y-14259476D02*
X10724095Y-14240428D01*
X10724095Y-14240428D02*
X10714572Y-14202333D01*
X10714572Y-14202333D02*
X10714572Y-14154714D01*
X10714572Y-14154714D02*
X10724095Y-14116619D01*
X10724095Y-14116619D02*
X10733619Y-14097571D01*
X10733619Y-14097571D02*
X10743143Y-14088048D01*
X10743143Y-14088048D02*
X10762191Y-14078524D01*
X11000286Y-14145190D02*
X11000286Y-14278524D01*
X10952667Y-14069000D02*
X10905048Y-14211857D01*
X10905048Y-14211857D02*
X11028857Y-14211857D01*
X11143143Y-14078524D02*
X11162191Y-14078524D01*
X11162191Y-14078524D02*
X11181238Y-14088048D01*
X11181238Y-14088048D02*
X11190762Y-14097571D01*
X11190762Y-14097571D02*
X11200286Y-14116619D01*
X11200286Y-14116619D02*
X11209810Y-14154714D01*
X11209810Y-14154714D02*
X11209810Y-14202333D01*
X11209810Y-14202333D02*
X11200286Y-14240428D01*
X11200286Y-14240428D02*
X11190762Y-14259476D01*
X11190762Y-14259476D02*
X11181238Y-14269000D01*
X11181238Y-14269000D02*
X11162191Y-14278524D01*
X11162191Y-14278524D02*
X11143143Y-14278524D01*
X11143143Y-14278524D02*
X11124095Y-14269000D01*
X11124095Y-14269000D02*
X11114572Y-14259476D01*
X11114572Y-14259476D02*
X11105048Y-14240428D01*
X11105048Y-14240428D02*
X11095524Y-14202333D01*
X11095524Y-14202333D02*
X11095524Y-14154714D01*
X11095524Y-14154714D02*
X11105048Y-14116619D01*
X11105048Y-14116619D02*
X11114572Y-14097571D01*
X11114572Y-14097571D02*
X11124095Y-14088048D01*
X11124095Y-14088048D02*
X11143143Y-14078524D01*
X11286000Y-14097571D02*
X11295524Y-14088048D01*
X11295524Y-14088048D02*
X11314572Y-14078524D01*
X11314572Y-14078524D02*
X11362191Y-14078524D01*
X11362191Y-14078524D02*
X11381238Y-14088048D01*
X11381238Y-14088048D02*
X11390762Y-14097571D01*
X11390762Y-14097571D02*
X11400286Y-14116619D01*
X11400286Y-14116619D02*
X11400286Y-14135667D01*
X11400286Y-14135667D02*
X11390762Y-14164238D01*
X11390762Y-14164238D02*
X11276476Y-14278524D01*
X11276476Y-14278524D02*
X11400286Y-14278524D01*
X11476476Y-14078524D02*
X11476476Y-14116619D01*
X11552667Y-14078524D02*
X11552667Y-14116619D01*
X11847905Y-14354714D02*
X11838381Y-14345190D01*
X11838381Y-14345190D02*
X11819334Y-14316619D01*
X11819334Y-14316619D02*
X11809810Y-14297571D01*
X11809810Y-14297571D02*
X11800286Y-14269000D01*
X11800286Y-14269000D02*
X11790762Y-14221381D01*
X11790762Y-14221381D02*
X11790762Y-14183286D01*
X11790762Y-14183286D02*
X11800286Y-14135667D01*
X11800286Y-14135667D02*
X11809810Y-14107095D01*
X11809810Y-14107095D02*
X11819334Y-14088048D01*
X11819334Y-14088048D02*
X11838381Y-14059476D01*
X11838381Y-14059476D02*
X11847905Y-14049952D01*
X11905048Y-14078524D02*
X12028857Y-14078524D01*
X12028857Y-14078524D02*
X11962191Y-14154714D01*
X11962191Y-14154714D02*
X11990762Y-14154714D01*
X11990762Y-14154714D02*
X12009810Y-14164238D01*
X12009810Y-14164238D02*
X12019334Y-14173762D01*
X12019334Y-14173762D02*
X12028857Y-14192809D01*
X12028857Y-14192809D02*
X12028857Y-14240428D01*
X12028857Y-14240428D02*
X12019334Y-14259476D01*
X12019334Y-14259476D02*
X12009810Y-14269000D01*
X12009810Y-14269000D02*
X11990762Y-14278524D01*
X11990762Y-14278524D02*
X11933619Y-14278524D01*
X11933619Y-14278524D02*
X11914572Y-14269000D01*
X11914572Y-14269000D02*
X11905048Y-14259476D01*
X12152667Y-14078524D02*
X12171715Y-14078524D01*
X12171715Y-14078524D02*
X12190762Y-14088048D01*
X12190762Y-14088048D02*
X12200286Y-14097571D01*
X12200286Y-14097571D02*
X12209810Y-14116619D01*
X12209810Y-14116619D02*
X12219334Y-14154714D01*
X12219334Y-14154714D02*
X12219334Y-14202333D01*
X12219334Y-14202333D02*
X12209810Y-14240428D01*
X12209810Y-14240428D02*
X12200286Y-14259476D01*
X12200286Y-14259476D02*
X12190762Y-14269000D01*
X12190762Y-14269000D02*
X12171715Y-14278524D01*
X12171715Y-14278524D02*
X12152667Y-14278524D01*
X12152667Y-14278524D02*
X12133619Y-14269000D01*
X12133619Y-14269000D02*
X12124095Y-14259476D01*
X12124095Y-14259476D02*
X12114572Y-14240428D01*
X12114572Y-14240428D02*
X12105048Y-14202333D01*
X12105048Y-14202333D02*
X12105048Y-14154714D01*
X12105048Y-14154714D02*
X12114572Y-14116619D01*
X12114572Y-14116619D02*
X12124095Y-14097571D01*
X12124095Y-14097571D02*
X12133619Y-14088048D01*
X12133619Y-14088048D02*
X12152667Y-14078524D01*
X12457429Y-14278524D02*
X12457429Y-14078524D01*
X12543143Y-14278524D02*
X12543143Y-14173762D01*
X12543143Y-14173762D02*
X12533619Y-14154714D01*
X12533619Y-14154714D02*
X12514572Y-14145190D01*
X12514572Y-14145190D02*
X12486000Y-14145190D01*
X12486000Y-14145190D02*
X12466953Y-14154714D01*
X12466953Y-14154714D02*
X12457429Y-14164238D01*
X12666953Y-14278524D02*
X12647905Y-14269000D01*
X12647905Y-14269000D02*
X12638381Y-14259476D01*
X12638381Y-14259476D02*
X12628857Y-14240428D01*
X12628857Y-14240428D02*
X12628857Y-14183286D01*
X12628857Y-14183286D02*
X12638381Y-14164238D01*
X12638381Y-14164238D02*
X12647905Y-14154714D01*
X12647905Y-14154714D02*
X12666953Y-14145190D01*
X12666953Y-14145190D02*
X12695524Y-14145190D01*
X12695524Y-14145190D02*
X12714572Y-14154714D01*
X12714572Y-14154714D02*
X12724096Y-14164238D01*
X12724096Y-14164238D02*
X12733619Y-14183286D01*
X12733619Y-14183286D02*
X12733619Y-14240428D01*
X12733619Y-14240428D02*
X12724096Y-14259476D01*
X12724096Y-14259476D02*
X12714572Y-14269000D01*
X12714572Y-14269000D02*
X12695524Y-14278524D01*
X12695524Y-14278524D02*
X12666953Y-14278524D01*
X12847905Y-14278524D02*
X12828857Y-14269000D01*
X12828857Y-14269000D02*
X12819334Y-14249952D01*
X12819334Y-14249952D02*
X12819334Y-14078524D01*
X13000286Y-14269000D02*
X12981238Y-14278524D01*
X12981238Y-14278524D02*
X12943143Y-14278524D01*
X12943143Y-14278524D02*
X12924096Y-14269000D01*
X12924096Y-14269000D02*
X12914572Y-14249952D01*
X12914572Y-14249952D02*
X12914572Y-14173762D01*
X12914572Y-14173762D02*
X12924096Y-14154714D01*
X12924096Y-14154714D02*
X12943143Y-14145190D01*
X12943143Y-14145190D02*
X12981238Y-14145190D01*
X12981238Y-14145190D02*
X13000286Y-14154714D01*
X13000286Y-14154714D02*
X13009810Y-14173762D01*
X13009810Y-14173762D02*
X13009810Y-14192809D01*
X13009810Y-14192809D02*
X12914572Y-14211857D01*
X13086000Y-14269000D02*
X13105048Y-14278524D01*
X13105048Y-14278524D02*
X13143143Y-14278524D01*
X13143143Y-14278524D02*
X13162191Y-14269000D01*
X13162191Y-14269000D02*
X13171715Y-14249952D01*
X13171715Y-14249952D02*
X13171715Y-14240428D01*
X13171715Y-14240428D02*
X13162191Y-14221381D01*
X13162191Y-14221381D02*
X13143143Y-14211857D01*
X13143143Y-14211857D02*
X13114572Y-14211857D01*
X13114572Y-14211857D02*
X13095524Y-14202333D01*
X13095524Y-14202333D02*
X13086000Y-14183286D01*
X13086000Y-14183286D02*
X13086000Y-14173762D01*
X13086000Y-14173762D02*
X13095524Y-14154714D01*
X13095524Y-14154714D02*
X13114572Y-14145190D01*
X13114572Y-14145190D02*
X13143143Y-14145190D01*
X13143143Y-14145190D02*
X13162191Y-14154714D01*
X13238381Y-14354714D02*
X13247905Y-14345190D01*
X13247905Y-14345190D02*
X13266953Y-14316619D01*
X13266953Y-14316619D02*
X13276477Y-14297571D01*
X13276477Y-14297571D02*
X13286000Y-14269000D01*
X13286000Y-14269000D02*
X13295524Y-14221381D01*
X13295524Y-14221381D02*
X13295524Y-14183286D01*
X13295524Y-14183286D02*
X13286000Y-14135667D01*
X13286000Y-14135667D02*
X13276477Y-14107095D01*
X13276477Y-14107095D02*
X13266953Y-14088048D01*
X13266953Y-14088048D02*
X13247905Y-14059476D01*
X13247905Y-14059476D02*
X13238381Y-14049952D01*
D14*
X8266669Y-14496669D02*
X8266669Y-14403330D01*
X8173330Y-14403330D01*
X8173330Y-14496669D01*
X8266669Y-14496669D01*
D11*
X8638381Y-14542524D02*
X8524095Y-14542524D01*
X8581238Y-14542524D02*
X8581238Y-14342524D01*
X8581238Y-14342524D02*
X8562190Y-14371095D01*
X8562190Y-14371095D02*
X8543143Y-14390143D01*
X8543143Y-14390143D02*
X8524095Y-14399667D01*
X8724095Y-14523476D02*
X8733619Y-14533000D01*
X8733619Y-14533000D02*
X8724095Y-14542524D01*
X8724095Y-14542524D02*
X8714571Y-14533000D01*
X8714571Y-14533000D02*
X8724095Y-14523476D01*
X8724095Y-14523476D02*
X8724095Y-14542524D01*
X8800286Y-14342524D02*
X8924095Y-14342524D01*
X8924095Y-14342524D02*
X8857429Y-14418714D01*
X8857429Y-14418714D02*
X8886000Y-14418714D01*
X8886000Y-14418714D02*
X8905048Y-14428238D01*
X8905048Y-14428238D02*
X8914571Y-14437762D01*
X8914571Y-14437762D02*
X8924095Y-14456809D01*
X8924095Y-14456809D02*
X8924095Y-14504428D01*
X8924095Y-14504428D02*
X8914571Y-14523476D01*
X8914571Y-14523476D02*
X8905048Y-14533000D01*
X8905048Y-14533000D02*
X8886000Y-14542524D01*
X8886000Y-14542524D02*
X8828857Y-14542524D01*
X8828857Y-14542524D02*
X8809810Y-14533000D01*
X8809810Y-14533000D02*
X8800286Y-14523476D01*
X9000286Y-14361571D02*
X9009810Y-14352048D01*
X9009810Y-14352048D02*
X9028857Y-14342524D01*
X9028857Y-14342524D02*
X9076476Y-14342524D01*
X9076476Y-14342524D02*
X9095524Y-14352048D01*
X9095524Y-14352048D02*
X9105048Y-14361571D01*
X9105048Y-14361571D02*
X9114571Y-14380619D01*
X9114571Y-14380619D02*
X9114571Y-14399667D01*
X9114571Y-14399667D02*
X9105048Y-14428238D01*
X9105048Y-14428238D02*
X8990762Y-14542524D01*
X8990762Y-14542524D02*
X9114571Y-14542524D01*
X9238381Y-14342524D02*
X9257429Y-14342524D01*
X9257429Y-14342524D02*
X9276476Y-14352048D01*
X9276476Y-14352048D02*
X9286000Y-14361571D01*
X9286000Y-14361571D02*
X9295524Y-14380619D01*
X9295524Y-14380619D02*
X9305048Y-14418714D01*
X9305048Y-14418714D02*
X9305048Y-14466333D01*
X9305048Y-14466333D02*
X9295524Y-14504428D01*
X9295524Y-14504428D02*
X9286000Y-14523476D01*
X9286000Y-14523476D02*
X9276476Y-14533000D01*
X9276476Y-14533000D02*
X9257429Y-14542524D01*
X9257429Y-14542524D02*
X9238381Y-14542524D01*
X9238381Y-14542524D02*
X9219333Y-14533000D01*
X9219333Y-14533000D02*
X9209810Y-14523476D01*
X9209810Y-14523476D02*
X9200286Y-14504428D01*
X9200286Y-14504428D02*
X9190762Y-14466333D01*
X9190762Y-14466333D02*
X9190762Y-14418714D01*
X9190762Y-14418714D02*
X9200286Y-14380619D01*
X9200286Y-14380619D02*
X9209810Y-14361571D01*
X9209810Y-14361571D02*
X9219333Y-14352048D01*
X9219333Y-14352048D02*
X9238381Y-14342524D01*
X9390762Y-14542524D02*
X9390762Y-14409190D01*
X9390762Y-14428238D02*
X9400286Y-14418714D01*
X9400286Y-14418714D02*
X9419333Y-14409190D01*
X9419333Y-14409190D02*
X9447905Y-14409190D01*
X9447905Y-14409190D02*
X9466952Y-14418714D01*
X9466952Y-14418714D02*
X9476476Y-14437762D01*
X9476476Y-14437762D02*
X9476476Y-14542524D01*
X9476476Y-14437762D02*
X9486000Y-14418714D01*
X9486000Y-14418714D02*
X9505048Y-14409190D01*
X9505048Y-14409190D02*
X9533619Y-14409190D01*
X9533619Y-14409190D02*
X9552667Y-14418714D01*
X9552667Y-14418714D02*
X9562191Y-14437762D01*
X9562191Y-14437762D02*
X9562191Y-14542524D01*
X9657429Y-14542524D02*
X9657429Y-14409190D01*
X9657429Y-14428238D02*
X9666952Y-14418714D01*
X9666952Y-14418714D02*
X9686000Y-14409190D01*
X9686000Y-14409190D02*
X9714572Y-14409190D01*
X9714572Y-14409190D02*
X9733619Y-14418714D01*
X9733619Y-14418714D02*
X9743143Y-14437762D01*
X9743143Y-14437762D02*
X9743143Y-14542524D01*
X9743143Y-14437762D02*
X9752667Y-14418714D01*
X9752667Y-14418714D02*
X9771714Y-14409190D01*
X9771714Y-14409190D02*
X9800286Y-14409190D01*
X9800286Y-14409190D02*
X9819333Y-14418714D01*
X9819333Y-14418714D02*
X9828857Y-14437762D01*
X9828857Y-14437762D02*
X9828857Y-14542524D01*
X10219333Y-14333000D02*
X10047905Y-14590143D01*
X10476476Y-14342524D02*
X10495524Y-14342524D01*
X10495524Y-14342524D02*
X10514572Y-14352048D01*
X10514572Y-14352048D02*
X10524095Y-14361571D01*
X10524095Y-14361571D02*
X10533619Y-14380619D01*
X10533619Y-14380619D02*
X10543143Y-14418714D01*
X10543143Y-14418714D02*
X10543143Y-14466333D01*
X10543143Y-14466333D02*
X10533619Y-14504428D01*
X10533619Y-14504428D02*
X10524095Y-14523476D01*
X10524095Y-14523476D02*
X10514572Y-14533000D01*
X10514572Y-14533000D02*
X10495524Y-14542524D01*
X10495524Y-14542524D02*
X10476476Y-14542524D01*
X10476476Y-14542524D02*
X10457429Y-14533000D01*
X10457429Y-14533000D02*
X10447905Y-14523476D01*
X10447905Y-14523476D02*
X10438381Y-14504428D01*
X10438381Y-14504428D02*
X10428857Y-14466333D01*
X10428857Y-14466333D02*
X10428857Y-14418714D01*
X10428857Y-14418714D02*
X10438381Y-14380619D01*
X10438381Y-14380619D02*
X10447905Y-14361571D01*
X10447905Y-14361571D02*
X10457429Y-14352048D01*
X10457429Y-14352048D02*
X10476476Y-14342524D01*
X10628857Y-14523476D02*
X10638381Y-14533000D01*
X10638381Y-14533000D02*
X10628857Y-14542524D01*
X10628857Y-14542524D02*
X10619334Y-14533000D01*
X10619334Y-14533000D02*
X10628857Y-14523476D01*
X10628857Y-14523476D02*
X10628857Y-14542524D01*
X10762191Y-14342524D02*
X10781238Y-14342524D01*
X10781238Y-14342524D02*
X10800286Y-14352048D01*
X10800286Y-14352048D02*
X10809810Y-14361571D01*
X10809810Y-14361571D02*
X10819334Y-14380619D01*
X10819334Y-14380619D02*
X10828857Y-14418714D01*
X10828857Y-14418714D02*
X10828857Y-14466333D01*
X10828857Y-14466333D02*
X10819334Y-14504428D01*
X10819334Y-14504428D02*
X10809810Y-14523476D01*
X10809810Y-14523476D02*
X10800286Y-14533000D01*
X10800286Y-14533000D02*
X10781238Y-14542524D01*
X10781238Y-14542524D02*
X10762191Y-14542524D01*
X10762191Y-14542524D02*
X10743143Y-14533000D01*
X10743143Y-14533000D02*
X10733619Y-14523476D01*
X10733619Y-14523476D02*
X10724095Y-14504428D01*
X10724095Y-14504428D02*
X10714572Y-14466333D01*
X10714572Y-14466333D02*
X10714572Y-14418714D01*
X10714572Y-14418714D02*
X10724095Y-14380619D01*
X10724095Y-14380619D02*
X10733619Y-14361571D01*
X10733619Y-14361571D02*
X10743143Y-14352048D01*
X10743143Y-14352048D02*
X10762191Y-14342524D01*
X11009810Y-14342524D02*
X10914572Y-14342524D01*
X10914572Y-14342524D02*
X10905048Y-14437762D01*
X10905048Y-14437762D02*
X10914572Y-14428238D01*
X10914572Y-14428238D02*
X10933619Y-14418714D01*
X10933619Y-14418714D02*
X10981238Y-14418714D01*
X10981238Y-14418714D02*
X11000286Y-14428238D01*
X11000286Y-14428238D02*
X11009810Y-14437762D01*
X11009810Y-14437762D02*
X11019334Y-14456809D01*
X11019334Y-14456809D02*
X11019334Y-14504428D01*
X11019334Y-14504428D02*
X11009810Y-14523476D01*
X11009810Y-14523476D02*
X11000286Y-14533000D01*
X11000286Y-14533000D02*
X10981238Y-14542524D01*
X10981238Y-14542524D02*
X10933619Y-14542524D01*
X10933619Y-14542524D02*
X10914572Y-14533000D01*
X10914572Y-14533000D02*
X10905048Y-14523476D01*
X11095524Y-14361571D02*
X11105048Y-14352048D01*
X11105048Y-14352048D02*
X11124095Y-14342524D01*
X11124095Y-14342524D02*
X11171715Y-14342524D01*
X11171715Y-14342524D02*
X11190762Y-14352048D01*
X11190762Y-14352048D02*
X11200286Y-14361571D01*
X11200286Y-14361571D02*
X11209810Y-14380619D01*
X11209810Y-14380619D02*
X11209810Y-14399667D01*
X11209810Y-14399667D02*
X11200286Y-14428238D01*
X11200286Y-14428238D02*
X11086000Y-14542524D01*
X11086000Y-14542524D02*
X11209810Y-14542524D01*
X11333619Y-14342524D02*
X11352667Y-14342524D01*
X11352667Y-14342524D02*
X11371714Y-14352048D01*
X11371714Y-14352048D02*
X11381238Y-14361571D01*
X11381238Y-14361571D02*
X11390762Y-14380619D01*
X11390762Y-14380619D02*
X11400286Y-14418714D01*
X11400286Y-14418714D02*
X11400286Y-14466333D01*
X11400286Y-14466333D02*
X11390762Y-14504428D01*
X11390762Y-14504428D02*
X11381238Y-14523476D01*
X11381238Y-14523476D02*
X11371714Y-14533000D01*
X11371714Y-14533000D02*
X11352667Y-14542524D01*
X11352667Y-14542524D02*
X11333619Y-14542524D01*
X11333619Y-14542524D02*
X11314572Y-14533000D01*
X11314572Y-14533000D02*
X11305048Y-14523476D01*
X11305048Y-14523476D02*
X11295524Y-14504428D01*
X11295524Y-14504428D02*
X11286000Y-14466333D01*
X11286000Y-14466333D02*
X11286000Y-14418714D01*
X11286000Y-14418714D02*
X11295524Y-14380619D01*
X11295524Y-14380619D02*
X11305048Y-14361571D01*
X11305048Y-14361571D02*
X11314572Y-14352048D01*
X11314572Y-14352048D02*
X11333619Y-14342524D01*
X11476476Y-14342524D02*
X11476476Y-14380619D01*
X11552667Y-14342524D02*
X11552667Y-14380619D01*
X11847905Y-14618714D02*
X11838381Y-14609190D01*
X11838381Y-14609190D02*
X11819334Y-14580619D01*
X11819334Y-14580619D02*
X11809810Y-14561571D01*
X11809810Y-14561571D02*
X11800286Y-14533000D01*
X11800286Y-14533000D02*
X11790762Y-14485381D01*
X11790762Y-14485381D02*
X11790762Y-14447286D01*
X11790762Y-14447286D02*
X11800286Y-14399667D01*
X11800286Y-14399667D02*
X11809810Y-14371095D01*
X11809810Y-14371095D02*
X11819334Y-14352048D01*
X11819334Y-14352048D02*
X11838381Y-14323476D01*
X11838381Y-14323476D02*
X11847905Y-14313952D01*
X11914572Y-14361571D02*
X11924095Y-14352048D01*
X11924095Y-14352048D02*
X11943143Y-14342524D01*
X11943143Y-14342524D02*
X11990762Y-14342524D01*
X11990762Y-14342524D02*
X12009810Y-14352048D01*
X12009810Y-14352048D02*
X12019334Y-14361571D01*
X12019334Y-14361571D02*
X12028857Y-14380619D01*
X12028857Y-14380619D02*
X12028857Y-14399667D01*
X12028857Y-14399667D02*
X12019334Y-14428238D01*
X12019334Y-14428238D02*
X11905048Y-14542524D01*
X11905048Y-14542524D02*
X12028857Y-14542524D01*
X12266953Y-14542524D02*
X12266953Y-14342524D01*
X12352667Y-14542524D02*
X12352667Y-14437762D01*
X12352667Y-14437762D02*
X12343143Y-14418714D01*
X12343143Y-14418714D02*
X12324096Y-14409190D01*
X12324096Y-14409190D02*
X12295524Y-14409190D01*
X12295524Y-14409190D02*
X12276476Y-14418714D01*
X12276476Y-14418714D02*
X12266953Y-14428238D01*
X12476476Y-14542524D02*
X12457429Y-14533000D01*
X12457429Y-14533000D02*
X12447905Y-14523476D01*
X12447905Y-14523476D02*
X12438381Y-14504428D01*
X12438381Y-14504428D02*
X12438381Y-14447286D01*
X12438381Y-14447286D02*
X12447905Y-14428238D01*
X12447905Y-14428238D02*
X12457429Y-14418714D01*
X12457429Y-14418714D02*
X12476476Y-14409190D01*
X12476476Y-14409190D02*
X12505048Y-14409190D01*
X12505048Y-14409190D02*
X12524096Y-14418714D01*
X12524096Y-14418714D02*
X12533619Y-14428238D01*
X12533619Y-14428238D02*
X12543143Y-14447286D01*
X12543143Y-14447286D02*
X12543143Y-14504428D01*
X12543143Y-14504428D02*
X12533619Y-14523476D01*
X12533619Y-14523476D02*
X12524096Y-14533000D01*
X12524096Y-14533000D02*
X12505048Y-14542524D01*
X12505048Y-14542524D02*
X12476476Y-14542524D01*
X12657429Y-14542524D02*
X12638381Y-14533000D01*
X12638381Y-14533000D02*
X12628857Y-14513952D01*
X12628857Y-14513952D02*
X12628857Y-14342524D01*
X12809810Y-14533000D02*
X12790762Y-14542524D01*
X12790762Y-14542524D02*
X12752667Y-14542524D01*
X12752667Y-14542524D02*
X12733619Y-14533000D01*
X12733619Y-14533000D02*
X12724096Y-14513952D01*
X12724096Y-14513952D02*
X12724096Y-14437762D01*
X12724096Y-14437762D02*
X12733619Y-14418714D01*
X12733619Y-14418714D02*
X12752667Y-14409190D01*
X12752667Y-14409190D02*
X12790762Y-14409190D01*
X12790762Y-14409190D02*
X12809810Y-14418714D01*
X12809810Y-14418714D02*
X12819334Y-14437762D01*
X12819334Y-14437762D02*
X12819334Y-14456809D01*
X12819334Y-14456809D02*
X12724096Y-14475857D01*
X12895524Y-14533000D02*
X12914572Y-14542524D01*
X12914572Y-14542524D02*
X12952667Y-14542524D01*
X12952667Y-14542524D02*
X12971715Y-14533000D01*
X12971715Y-14533000D02*
X12981238Y-14513952D01*
X12981238Y-14513952D02*
X12981238Y-14504428D01*
X12981238Y-14504428D02*
X12971715Y-14485381D01*
X12971715Y-14485381D02*
X12952667Y-14475857D01*
X12952667Y-14475857D02*
X12924096Y-14475857D01*
X12924096Y-14475857D02*
X12905048Y-14466333D01*
X12905048Y-14466333D02*
X12895524Y-14447286D01*
X12895524Y-14447286D02*
X12895524Y-14437762D01*
X12895524Y-14437762D02*
X12905048Y-14418714D01*
X12905048Y-14418714D02*
X12924096Y-14409190D01*
X12924096Y-14409190D02*
X12952667Y-14409190D01*
X12952667Y-14409190D02*
X12971715Y-14418714D01*
X13047905Y-14618714D02*
X13057429Y-14609190D01*
X13057429Y-14609190D02*
X13076477Y-14580619D01*
X13076477Y-14580619D02*
X13086000Y-14561571D01*
X13086000Y-14561571D02*
X13095524Y-14533000D01*
X13095524Y-14533000D02*
X13105048Y-14485381D01*
X13105048Y-14485381D02*
X13105048Y-14447286D01*
X13105048Y-14447286D02*
X13095524Y-14399667D01*
X13095524Y-14399667D02*
X13086000Y-14371095D01*
X13086000Y-14371095D02*
X13076477Y-14352048D01*
X13076477Y-14352048D02*
X13057429Y-14323476D01*
X13057429Y-14323476D02*
X13047905Y-14313952D01*
M02*
