%TF.GenerationSoftware,KiCad,Pcbnew,7.0.1*%
%TF.CreationDate,2023-12-18T22:50:53+05:30*%
%TF.ProjectId,hologlyph bot circuit,686f6c6f-676c-4797-9068-20626f742063,rev?*%
%TF.SameCoordinates,Original*%
%TF.FileFunction,Legend,Bot*%
%TF.FilePolarity,Positive*%
%FSLAX46Y46*%
G04 Gerber Fmt 4.6, Leading zero omitted, Abs format (unit mm)*
G04 Created by KiCad (PCBNEW 7.0.1) date 2023-12-18 22:50:53*
%MOMM*%
%LPD*%
G01*
G04 APERTURE LIST*
%ADD10C,0.150000*%
%ADD11C,0.300000*%
%ADD12C,0.120000*%
G04 APERTURE END LIST*
D10*
X82991942Y-119380000D02*
X102153670Y-119380000D01*
X82991942Y-100330000D02*
X102153670Y-100330000D01*
X82978272Y-92710000D02*
X102140000Y-92710000D01*
X82978272Y-72390000D02*
X102140000Y-72390000D01*
X82978272Y-66040000D02*
X102140000Y-66040000D01*
X105410000Y-93250000D02*
G75*
G03*
X107410000Y-95250000I2000000J0D01*
G01*
X134620000Y-73660000D02*
X142780000Y-73660000D01*
X102140000Y-92710000D02*
G75*
G03*
X104140000Y-90710000I0J2000000D01*
G01*
X134620000Y-45180000D02*
X134620000Y-93250000D01*
X104140000Y-74390000D02*
G75*
G03*
X102140000Y-72390000I-2000000J0D01*
G01*
X142970000Y-77470000D02*
X158020000Y-77470000D01*
X147320000Y-73120000D02*
X147320000Y-77470000D01*
X84550000Y-72390000D02*
X102140000Y-72390000D01*
X106140000Y-97790000D02*
G75*
G03*
X104140000Y-99790000I0J-2000000D01*
G01*
X82978272Y-46990000D02*
X102140000Y-46990000D01*
X140970000Y-95790000D02*
G75*
G03*
X142970000Y-97790000I2000000J0D01*
G01*
X102140000Y-92710000D02*
X84550000Y-92710000D01*
X102140000Y-119380000D02*
G75*
G03*
X104140000Y-117380000I0J2000000D01*
G01*
X160560000Y-124460000D02*
G75*
G03*
X162560000Y-122460000I0J2000000D01*
G01*
X144780000Y-75660000D02*
X144780000Y-77470000D01*
X147320000Y-73120000D02*
G75*
G03*
X145320000Y-71120000I-2000000J0D01*
G01*
X162560000Y-99790000D02*
G75*
G03*
X160560000Y-97790000I-2000000J0D01*
G01*
X144780000Y-75660000D02*
G75*
G03*
X142780000Y-73660000I-2000000J0D01*
G01*
X107410000Y-43180000D02*
X132620000Y-43180000D01*
X158020000Y-97790000D02*
X142970000Y-97790000D01*
X104140000Y-74390000D02*
X104140000Y-90710000D01*
X134620000Y-66040000D02*
X150400000Y-66040000D01*
X104140000Y-102330000D02*
X104140000Y-117380000D01*
X160020000Y-79470000D02*
G75*
G03*
X158020000Y-77470000I-2000000J0D01*
G01*
X152400000Y-68040000D02*
X152400000Y-77470000D01*
X160020000Y-79470000D02*
X160020000Y-95790000D01*
X160560000Y-124460000D02*
X106140000Y-124460000D01*
X162560000Y-99790000D02*
X162560000Y-122460000D01*
X134620000Y-45180000D02*
G75*
G03*
X132620000Y-43180000I-2000000J0D01*
G01*
X152400000Y-68040000D02*
G75*
G03*
X150400000Y-66040000I-2000000J0D01*
G01*
X134620000Y-71120000D02*
X145320000Y-71120000D01*
X132620000Y-95250000D02*
G75*
G03*
X134620000Y-93250000I0J2000000D01*
G01*
X104140000Y-122460000D02*
X104140000Y-99790000D01*
X142970000Y-77470000D02*
G75*
G03*
X140970000Y-79470000I0J-2000000D01*
G01*
X105410000Y-93250000D02*
X105410000Y-45180000D01*
X132620000Y-95250000D02*
X107410000Y-95250000D01*
X102140000Y-66040000D02*
G75*
G03*
X104140000Y-64040000I0J2000000D01*
G01*
X106140000Y-97790000D02*
X160560000Y-97790000D01*
X104140000Y-48990000D02*
X104140000Y-64040000D01*
X159290000Y-52265514D02*
X149320000Y-52265514D01*
X134620000Y-68580000D02*
X147860000Y-68580000D01*
X147319986Y-50265514D02*
G75*
G03*
X149320000Y-52265514I2000014J14D01*
G01*
X107410000Y-43180000D02*
G75*
G03*
X105410000Y-45180000I0J-2000000D01*
G01*
X104140000Y-122460000D02*
G75*
G03*
X106140000Y-124460000I2000000J0D01*
G01*
X104140000Y-102330000D02*
G75*
G03*
X102140000Y-100330000I-2000000J0D01*
G01*
X149860000Y-70580000D02*
G75*
G03*
X147860000Y-68580000I-2000000J0D01*
G01*
X140970000Y-95790000D02*
X140970000Y-79470000D01*
X104140000Y-48990000D02*
G75*
G03*
X102140000Y-46990000I-2000000J0D01*
G01*
X159290000Y-52265500D02*
G75*
G03*
X161290000Y-50265514I0J2000000D01*
G01*
X158020000Y-97790000D02*
G75*
G03*
X160020000Y-95790000I0J2000000D01*
G01*
X102140000Y-66040000D02*
X83280000Y-66040000D01*
X149860000Y-70580000D02*
X149860000Y-77470000D01*
X150494307Y-97029223D02*
X149494307Y-96791128D01*
X149494307Y-96791128D02*
X150208593Y-96600652D01*
X150208593Y-96600652D02*
X149494307Y-96410176D01*
X149494307Y-96410176D02*
X150494307Y-96172081D01*
X149494307Y-95791128D02*
X150494307Y-95791128D01*
X149494307Y-95362557D02*
X150018117Y-95362557D01*
X150018117Y-95362557D02*
X150113355Y-95410176D01*
X150113355Y-95410176D02*
X150160974Y-95505414D01*
X150160974Y-95505414D02*
X150160974Y-95648271D01*
X150160974Y-95648271D02*
X150113355Y-95743509D01*
X150113355Y-95743509D02*
X150065736Y-95791128D01*
X149541927Y-94505414D02*
X149494307Y-94600652D01*
X149494307Y-94600652D02*
X149494307Y-94791128D01*
X149494307Y-94791128D02*
X149541927Y-94886366D01*
X149541927Y-94886366D02*
X149637165Y-94933985D01*
X149637165Y-94933985D02*
X150018117Y-94933985D01*
X150018117Y-94933985D02*
X150113355Y-94886366D01*
X150113355Y-94886366D02*
X150160974Y-94791128D01*
X150160974Y-94791128D02*
X150160974Y-94600652D01*
X150160974Y-94600652D02*
X150113355Y-94505414D01*
X150113355Y-94505414D02*
X150018117Y-94457795D01*
X150018117Y-94457795D02*
X149922879Y-94457795D01*
X149922879Y-94457795D02*
X149827641Y-94933985D01*
X149541927Y-93648271D02*
X149494307Y-93743509D01*
X149494307Y-93743509D02*
X149494307Y-93933985D01*
X149494307Y-93933985D02*
X149541927Y-94029223D01*
X149541927Y-94029223D02*
X149637165Y-94076842D01*
X149637165Y-94076842D02*
X150018117Y-94076842D01*
X150018117Y-94076842D02*
X150113355Y-94029223D01*
X150113355Y-94029223D02*
X150160974Y-93933985D01*
X150160974Y-93933985D02*
X150160974Y-93743509D01*
X150160974Y-93743509D02*
X150113355Y-93648271D01*
X150113355Y-93648271D02*
X150018117Y-93600652D01*
X150018117Y-93600652D02*
X149922879Y-93600652D01*
X149922879Y-93600652D02*
X149827641Y-94076842D01*
X149494307Y-93029223D02*
X149541927Y-93124461D01*
X149541927Y-93124461D02*
X149637165Y-93172080D01*
X149637165Y-93172080D02*
X150494307Y-93172080D01*
X149494307Y-91314937D02*
X149970498Y-91648270D01*
X149494307Y-91886365D02*
X150494307Y-91886365D01*
X150494307Y-91886365D02*
X150494307Y-91505413D01*
X150494307Y-91505413D02*
X150446688Y-91410175D01*
X150446688Y-91410175D02*
X150399069Y-91362556D01*
X150399069Y-91362556D02*
X150303831Y-91314937D01*
X150303831Y-91314937D02*
X150160974Y-91314937D01*
X150160974Y-91314937D02*
X150065736Y-91362556D01*
X150065736Y-91362556D02*
X150018117Y-91410175D01*
X150018117Y-91410175D02*
X149970498Y-91505413D01*
X149970498Y-91505413D02*
X149970498Y-91886365D01*
X149494307Y-90886365D02*
X150160974Y-90886365D01*
X150494307Y-90886365D02*
X150446688Y-90933984D01*
X150446688Y-90933984D02*
X150399069Y-90886365D01*
X150399069Y-90886365D02*
X150446688Y-90838746D01*
X150446688Y-90838746D02*
X150494307Y-90886365D01*
X150494307Y-90886365D02*
X150399069Y-90886365D01*
X150160974Y-89981604D02*
X149351450Y-89981604D01*
X149351450Y-89981604D02*
X149256212Y-90029223D01*
X149256212Y-90029223D02*
X149208593Y-90076842D01*
X149208593Y-90076842D02*
X149160974Y-90172080D01*
X149160974Y-90172080D02*
X149160974Y-90314937D01*
X149160974Y-90314937D02*
X149208593Y-90410175D01*
X149541927Y-89981604D02*
X149494307Y-90076842D01*
X149494307Y-90076842D02*
X149494307Y-90267318D01*
X149494307Y-90267318D02*
X149541927Y-90362556D01*
X149541927Y-90362556D02*
X149589546Y-90410175D01*
X149589546Y-90410175D02*
X149684784Y-90457794D01*
X149684784Y-90457794D02*
X149970498Y-90457794D01*
X149970498Y-90457794D02*
X150065736Y-90410175D01*
X150065736Y-90410175D02*
X150113355Y-90362556D01*
X150113355Y-90362556D02*
X150160974Y-90267318D01*
X150160974Y-90267318D02*
X150160974Y-90076842D01*
X150160974Y-90076842D02*
X150113355Y-89981604D01*
X149494307Y-89505413D02*
X150494307Y-89505413D01*
X149494307Y-89076842D02*
X150018117Y-89076842D01*
X150018117Y-89076842D02*
X150113355Y-89124461D01*
X150113355Y-89124461D02*
X150160974Y-89219699D01*
X150160974Y-89219699D02*
X150160974Y-89362556D01*
X150160974Y-89362556D02*
X150113355Y-89457794D01*
X150113355Y-89457794D02*
X150065736Y-89505413D01*
X150160974Y-88743508D02*
X150160974Y-88362556D01*
X150494307Y-88600651D02*
X149637165Y-88600651D01*
X149637165Y-88600651D02*
X149541927Y-88553032D01*
X149541927Y-88553032D02*
X149494307Y-88457794D01*
X149494307Y-88457794D02*
X149494307Y-88362556D01*
D11*
G36*
X96588973Y-44528866D02*
G01*
X96689579Y-44629472D01*
X96742757Y-44735826D01*
X96805714Y-44987653D01*
X96805714Y-45165011D01*
X96742758Y-45416833D01*
X96689580Y-45523191D01*
X96588972Y-45623798D01*
X96431372Y-45676332D01*
X96248571Y-45676332D01*
X96248571Y-44476332D01*
X96431373Y-44476332D01*
X96588973Y-44528866D01*
G37*
G36*
X91081146Y-45306753D02*
G01*
X91118149Y-45343756D01*
X91162857Y-45433172D01*
X91162857Y-45505208D01*
X91118151Y-45594618D01*
X91081145Y-45631624D01*
X90991731Y-45676332D01*
X90677142Y-45676332D01*
X90677142Y-45262046D01*
X90991732Y-45262046D01*
X91081146Y-45306753D01*
G37*
G36*
X91152575Y-44521039D02*
G01*
X91189578Y-44558042D01*
X91234285Y-44647456D01*
X91234285Y-44790922D01*
X91189578Y-44880336D01*
X91160400Y-44909513D01*
X91016030Y-44957636D01*
X91010361Y-44956616D01*
X90997269Y-44962046D01*
X90677142Y-44962046D01*
X90677142Y-44476332D01*
X91063160Y-44476332D01*
X91152575Y-44521039D01*
G37*
G36*
X92509718Y-44521039D02*
G01*
X92546721Y-44558042D01*
X92591428Y-44647456D01*
X92591428Y-45005208D01*
X92546720Y-45094622D01*
X92509718Y-45131624D01*
X92420304Y-45176332D01*
X92276838Y-45176332D01*
X92187425Y-45131625D01*
X92150419Y-45094620D01*
X92105714Y-45005208D01*
X92105714Y-44647456D01*
X92150420Y-44558042D01*
X92187424Y-44521038D01*
X92276838Y-44476332D01*
X92420303Y-44476332D01*
X92509718Y-44521039D01*
G37*
G36*
X98355715Y-47057047D02*
G01*
X89505714Y-47057047D01*
X89505714Y-45848581D01*
X90372400Y-45848581D01*
X90386240Y-45878887D01*
X90395626Y-45910852D01*
X90404251Y-45918326D01*
X90408993Y-45928708D01*
X90437020Y-45946720D01*
X90462199Y-45968537D01*
X90473496Y-45970161D01*
X90483098Y-45976332D01*
X90516411Y-45976332D01*
X90549391Y-45981074D01*
X90559774Y-45976332D01*
X91019066Y-45976332D01*
X91054830Y-45980193D01*
X91082245Y-45966485D01*
X91111662Y-45957848D01*
X91120943Y-45947136D01*
X91220261Y-45897477D01*
X91244922Y-45892113D01*
X91274133Y-45862901D01*
X91304413Y-45834736D01*
X91305139Y-45831895D01*
X91334193Y-45802841D01*
X91355895Y-45789952D01*
X91374378Y-45752985D01*
X91394188Y-45716707D01*
X91393978Y-45713784D01*
X91443409Y-45614923D01*
X91462857Y-45584662D01*
X91462857Y-45554009D01*
X91468287Y-45523837D01*
X91462857Y-45510745D01*
X91462857Y-45405837D01*
X91466718Y-45370073D01*
X91453010Y-45342657D01*
X91444373Y-45313241D01*
X91433661Y-45303959D01*
X91384002Y-45204641D01*
X91378638Y-45179980D01*
X91349416Y-45150758D01*
X91347991Y-45149226D01*
X91363199Y-45138658D01*
X91368617Y-45125560D01*
X91405624Y-45088553D01*
X91427324Y-45075665D01*
X91445798Y-45038715D01*
X91465618Y-45002420D01*
X91465408Y-44999495D01*
X91514837Y-44900637D01*
X91534285Y-44870376D01*
X91534285Y-44839724D01*
X91539715Y-44809550D01*
X91534285Y-44796458D01*
X91534285Y-44628828D01*
X91800284Y-44628828D01*
X91805714Y-44641920D01*
X91805714Y-45032542D01*
X91801853Y-45068305D01*
X91815560Y-45095719D01*
X91824198Y-45125138D01*
X91834909Y-45134419D01*
X91884567Y-45233737D01*
X91889933Y-45258398D01*
X91919137Y-45287601D01*
X91947309Y-45317888D01*
X91950150Y-45318614D01*
X91979204Y-45347667D01*
X91992094Y-45369370D01*
X92029068Y-45387857D01*
X92065341Y-45407664D01*
X92068263Y-45407454D01*
X92167122Y-45456884D01*
X92197384Y-45476332D01*
X92228037Y-45476332D01*
X92258209Y-45481762D01*
X92271301Y-45476332D01*
X92447639Y-45476332D01*
X92483402Y-45480193D01*
X92510816Y-45466485D01*
X92540234Y-45457848D01*
X92549516Y-45447135D01*
X92648830Y-45397477D01*
X92673492Y-45392113D01*
X92702706Y-45362898D01*
X92718099Y-45348581D01*
X93015258Y-45348581D01*
X93051851Y-45428708D01*
X93125956Y-45476332D01*
X93234285Y-45476332D01*
X93234285Y-45847900D01*
X93252769Y-45910852D01*
X93319342Y-45968537D01*
X93406534Y-45981074D01*
X93486661Y-45944481D01*
X93534285Y-45870376D01*
X93534285Y-45847900D01*
X95234285Y-45847900D01*
X95252769Y-45910852D01*
X95319342Y-45968537D01*
X95406534Y-45981074D01*
X95486661Y-45944481D01*
X95534285Y-45870376D01*
X95534285Y-45848581D01*
X95943829Y-45848581D01*
X95957669Y-45878887D01*
X95967055Y-45910852D01*
X95975680Y-45918326D01*
X95980422Y-45928708D01*
X96008449Y-45946720D01*
X96033628Y-45968537D01*
X96044925Y-45970161D01*
X96054527Y-45976332D01*
X96087840Y-45976332D01*
X96120820Y-45981074D01*
X96131203Y-45976332D01*
X96436908Y-45976332D01*
X96461365Y-45982562D01*
X96500556Y-45969498D01*
X96540234Y-45957848D01*
X96542153Y-45955632D01*
X96709769Y-45899760D01*
X96744922Y-45892113D01*
X96766598Y-45870436D01*
X96791771Y-45852942D01*
X96797188Y-45839846D01*
X96905622Y-45731412D01*
X96927324Y-45718523D01*
X96945809Y-45681552D01*
X96965617Y-45645277D01*
X96965408Y-45642354D01*
X97006501Y-45560167D01*
X97019125Y-45548298D01*
X97025813Y-45521544D01*
X97028095Y-45516981D01*
X97031026Y-45500690D01*
X97095247Y-45243805D01*
X97105714Y-45227519D01*
X97105714Y-45201939D01*
X97106466Y-45198931D01*
X97105714Y-45180426D01*
X97105714Y-44993876D01*
X97111918Y-44975538D01*
X97105714Y-44950722D01*
X97105714Y-44947621D01*
X97100495Y-44929847D01*
X97036286Y-44673014D01*
X97038147Y-44655786D01*
X97025812Y-44631117D01*
X97024576Y-44626171D01*
X97016204Y-44611901D01*
X96955432Y-44490358D01*
X96950067Y-44465696D01*
X96920846Y-44436475D01*
X96892690Y-44406205D01*
X96889849Y-44405478D01*
X96781776Y-44297405D01*
X96759218Y-44269386D01*
X96730137Y-44259692D01*
X96703231Y-44245000D01*
X96689093Y-44246011D01*
X96520989Y-44189976D01*
X96499758Y-44176332D01*
X96458445Y-44176332D01*
X96417121Y-44174837D01*
X96414599Y-44176332D01*
X96109302Y-44176332D01*
X96076322Y-44171590D01*
X96046015Y-44185430D01*
X96014051Y-44194816D01*
X96006576Y-44203441D01*
X95996195Y-44208183D01*
X95978182Y-44236210D01*
X95956366Y-44261389D01*
X95954741Y-44272686D01*
X95948571Y-44282288D01*
X95948571Y-44315601D01*
X95943829Y-44348581D01*
X95948571Y-44358964D01*
X95948571Y-45815601D01*
X95943829Y-45848581D01*
X95534285Y-45848581D01*
X95534285Y-44304764D01*
X95515801Y-44241812D01*
X95449228Y-44184127D01*
X95362036Y-44171590D01*
X95281909Y-44208183D01*
X95234285Y-44282288D01*
X95234285Y-45847900D01*
X93534285Y-45847900D01*
X93534285Y-45476332D01*
X93762996Y-45476332D01*
X93825948Y-45457848D01*
X93883633Y-45391275D01*
X93896170Y-45304083D01*
X93859577Y-45223956D01*
X93785472Y-45176332D01*
X93534285Y-45176332D01*
X93534285Y-44576029D01*
X93567517Y-44509563D01*
X93633981Y-44476332D01*
X93762996Y-44476332D01*
X93825948Y-44457848D01*
X93883633Y-44391275D01*
X93896170Y-44304083D01*
X93859577Y-44223956D01*
X93785472Y-44176332D01*
X93606646Y-44176332D01*
X93570882Y-44172471D01*
X93543466Y-44186179D01*
X93514051Y-44194816D01*
X93504769Y-44205527D01*
X93422813Y-44246506D01*
X93416984Y-44246301D01*
X93383770Y-44266028D01*
X93369341Y-44273243D01*
X93365309Y-44276993D01*
X93341247Y-44291285D01*
X93333685Y-44306408D01*
X93321301Y-44317928D01*
X93314367Y-44345043D01*
X93253735Y-44466308D01*
X93234285Y-44496574D01*
X93234285Y-44527227D01*
X93228855Y-44557399D01*
X93234285Y-44570491D01*
X93234285Y-45176332D01*
X93148432Y-45176332D01*
X93085480Y-45194816D01*
X93027795Y-45261389D01*
X93015258Y-45348581D01*
X92718099Y-45348581D01*
X92732984Y-45334736D01*
X92733710Y-45331895D01*
X92762766Y-45302840D01*
X92784467Y-45289951D01*
X92802946Y-45252992D01*
X92822760Y-45216707D01*
X92822550Y-45213782D01*
X92871980Y-45114923D01*
X92891428Y-45084662D01*
X92891428Y-45054010D01*
X92896858Y-45023836D01*
X92891428Y-45010744D01*
X92891428Y-44620122D01*
X92895289Y-44584359D01*
X92881581Y-44556944D01*
X92872944Y-44527526D01*
X92862232Y-44518244D01*
X92812574Y-44418926D01*
X92807209Y-44394266D01*
X92778001Y-44365058D01*
X92749833Y-44334776D01*
X92746992Y-44334049D01*
X92717934Y-44304992D01*
X92705047Y-44283294D01*
X92668097Y-44264819D01*
X92631801Y-44245000D01*
X92628877Y-44245209D01*
X92530023Y-44195782D01*
X92499758Y-44176332D01*
X92469105Y-44176332D01*
X92438933Y-44170902D01*
X92425841Y-44176332D01*
X92249503Y-44176332D01*
X92213739Y-44172471D01*
X92186323Y-44186179D01*
X92156908Y-44194816D01*
X92147626Y-44205527D01*
X92048311Y-44255186D01*
X92023650Y-44260551D01*
X91994435Y-44289765D01*
X91964158Y-44317928D01*
X91963431Y-44320768D01*
X91934375Y-44349823D01*
X91912675Y-44362713D01*
X91894194Y-44399673D01*
X91874382Y-44435957D01*
X91874591Y-44438880D01*
X91825159Y-44537743D01*
X91805714Y-44568002D01*
X91805714Y-44598653D01*
X91800284Y-44628828D01*
X91534285Y-44628828D01*
X91534285Y-44620122D01*
X91538146Y-44584359D01*
X91524438Y-44556944D01*
X91515801Y-44527526D01*
X91505089Y-44518244D01*
X91455431Y-44418926D01*
X91450066Y-44394266D01*
X91420858Y-44365058D01*
X91392690Y-44334776D01*
X91389849Y-44334049D01*
X91360791Y-44304992D01*
X91347904Y-44283294D01*
X91310954Y-44264819D01*
X91274658Y-44245000D01*
X91271734Y-44245209D01*
X91172880Y-44195782D01*
X91142615Y-44176332D01*
X91111962Y-44176332D01*
X91081790Y-44170902D01*
X91068698Y-44176332D01*
X90537873Y-44176332D01*
X90504893Y-44171590D01*
X90474586Y-44185430D01*
X90442622Y-44194816D01*
X90435147Y-44203441D01*
X90424766Y-44208183D01*
X90406753Y-44236210D01*
X90384937Y-44261389D01*
X90383312Y-44272686D01*
X90377142Y-44282288D01*
X90377142Y-44315601D01*
X90372400Y-44348581D01*
X90377142Y-44358964D01*
X90377142Y-45101315D01*
X90372400Y-45134295D01*
X90377142Y-45144678D01*
X90377142Y-45815601D01*
X90372400Y-45848581D01*
X89505714Y-45848581D01*
X89505714Y-43478475D01*
X98355715Y-43478475D01*
X98355715Y-47057047D01*
G37*
D10*
X147954307Y-95981605D02*
X146954307Y-95743510D01*
X146954307Y-95743510D02*
X147668593Y-95553034D01*
X147668593Y-95553034D02*
X146954307Y-95362558D01*
X146954307Y-95362558D02*
X147954307Y-95124463D01*
X146954307Y-94743510D02*
X147954307Y-94743510D01*
X146954307Y-94314939D02*
X147478117Y-94314939D01*
X147478117Y-94314939D02*
X147573355Y-94362558D01*
X147573355Y-94362558D02*
X147620974Y-94457796D01*
X147620974Y-94457796D02*
X147620974Y-94600653D01*
X147620974Y-94600653D02*
X147573355Y-94695891D01*
X147573355Y-94695891D02*
X147525736Y-94743510D01*
X147001927Y-93457796D02*
X146954307Y-93553034D01*
X146954307Y-93553034D02*
X146954307Y-93743510D01*
X146954307Y-93743510D02*
X147001927Y-93838748D01*
X147001927Y-93838748D02*
X147097165Y-93886367D01*
X147097165Y-93886367D02*
X147478117Y-93886367D01*
X147478117Y-93886367D02*
X147573355Y-93838748D01*
X147573355Y-93838748D02*
X147620974Y-93743510D01*
X147620974Y-93743510D02*
X147620974Y-93553034D01*
X147620974Y-93553034D02*
X147573355Y-93457796D01*
X147573355Y-93457796D02*
X147478117Y-93410177D01*
X147478117Y-93410177D02*
X147382879Y-93410177D01*
X147382879Y-93410177D02*
X147287641Y-93886367D01*
X147001927Y-92600653D02*
X146954307Y-92695891D01*
X146954307Y-92695891D02*
X146954307Y-92886367D01*
X146954307Y-92886367D02*
X147001927Y-92981605D01*
X147001927Y-92981605D02*
X147097165Y-93029224D01*
X147097165Y-93029224D02*
X147478117Y-93029224D01*
X147478117Y-93029224D02*
X147573355Y-92981605D01*
X147573355Y-92981605D02*
X147620974Y-92886367D01*
X147620974Y-92886367D02*
X147620974Y-92695891D01*
X147620974Y-92695891D02*
X147573355Y-92600653D01*
X147573355Y-92600653D02*
X147478117Y-92553034D01*
X147478117Y-92553034D02*
X147382879Y-92553034D01*
X147382879Y-92553034D02*
X147287641Y-93029224D01*
X146954307Y-91981605D02*
X147001927Y-92076843D01*
X147001927Y-92076843D02*
X147097165Y-92124462D01*
X147097165Y-92124462D02*
X147954307Y-92124462D01*
X146954307Y-90362557D02*
X146954307Y-90838747D01*
X146954307Y-90838747D02*
X147954307Y-90838747D01*
X147001927Y-89648271D02*
X146954307Y-89743509D01*
X146954307Y-89743509D02*
X146954307Y-89933985D01*
X146954307Y-89933985D02*
X147001927Y-90029223D01*
X147001927Y-90029223D02*
X147097165Y-90076842D01*
X147097165Y-90076842D02*
X147478117Y-90076842D01*
X147478117Y-90076842D02*
X147573355Y-90029223D01*
X147573355Y-90029223D02*
X147620974Y-89933985D01*
X147620974Y-89933985D02*
X147620974Y-89743509D01*
X147620974Y-89743509D02*
X147573355Y-89648271D01*
X147573355Y-89648271D02*
X147478117Y-89600652D01*
X147478117Y-89600652D02*
X147382879Y-89600652D01*
X147382879Y-89600652D02*
X147287641Y-90076842D01*
X147620974Y-89314937D02*
X147620974Y-88933985D01*
X146954307Y-89172080D02*
X147811450Y-89172080D01*
X147811450Y-89172080D02*
X147906688Y-89124461D01*
X147906688Y-89124461D02*
X147954307Y-89029223D01*
X147954307Y-89029223D02*
X147954307Y-88933985D01*
X147620974Y-88743508D02*
X147620974Y-88362556D01*
X147954307Y-88600651D02*
X147097165Y-88600651D01*
X147097165Y-88600651D02*
X147001927Y-88553032D01*
X147001927Y-88553032D02*
X146954307Y-88457794D01*
X146954307Y-88457794D02*
X146954307Y-88362556D01*
X154530997Y-80960361D02*
X154673854Y-80912741D01*
X154673854Y-80912741D02*
X154911949Y-80912741D01*
X154911949Y-80912741D02*
X155007187Y-80960361D01*
X155007187Y-80960361D02*
X155054806Y-81007980D01*
X155054806Y-81007980D02*
X155102425Y-81103218D01*
X155102425Y-81103218D02*
X155102425Y-81198456D01*
X155102425Y-81198456D02*
X155054806Y-81293694D01*
X155054806Y-81293694D02*
X155007187Y-81341313D01*
X155007187Y-81341313D02*
X154911949Y-81388932D01*
X154911949Y-81388932D02*
X154721473Y-81436551D01*
X154721473Y-81436551D02*
X154626235Y-81484170D01*
X154626235Y-81484170D02*
X154578616Y-81531789D01*
X154578616Y-81531789D02*
X154530997Y-81627027D01*
X154530997Y-81627027D02*
X154530997Y-81722265D01*
X154530997Y-81722265D02*
X154578616Y-81817503D01*
X154578616Y-81817503D02*
X154626235Y-81865122D01*
X154626235Y-81865122D02*
X154721473Y-81912741D01*
X154721473Y-81912741D02*
X154959568Y-81912741D01*
X154959568Y-81912741D02*
X155102425Y-81865122D01*
X155530997Y-80912741D02*
X155530997Y-81579408D01*
X155530997Y-81912741D02*
X155483378Y-81865122D01*
X155483378Y-81865122D02*
X155530997Y-81817503D01*
X155530997Y-81817503D02*
X155578616Y-81865122D01*
X155578616Y-81865122D02*
X155530997Y-81912741D01*
X155530997Y-81912741D02*
X155530997Y-81817503D01*
X156435758Y-81579408D02*
X156435758Y-80769884D01*
X156435758Y-80769884D02*
X156388139Y-80674646D01*
X156388139Y-80674646D02*
X156340520Y-80627027D01*
X156340520Y-80627027D02*
X156245282Y-80579408D01*
X156245282Y-80579408D02*
X156102425Y-80579408D01*
X156102425Y-80579408D02*
X156007187Y-80627027D01*
X156435758Y-80960361D02*
X156340520Y-80912741D01*
X156340520Y-80912741D02*
X156150044Y-80912741D01*
X156150044Y-80912741D02*
X156054806Y-80960361D01*
X156054806Y-80960361D02*
X156007187Y-81007980D01*
X156007187Y-81007980D02*
X155959568Y-81103218D01*
X155959568Y-81103218D02*
X155959568Y-81388932D01*
X155959568Y-81388932D02*
X156007187Y-81484170D01*
X156007187Y-81484170D02*
X156054806Y-81531789D01*
X156054806Y-81531789D02*
X156150044Y-81579408D01*
X156150044Y-81579408D02*
X156340520Y-81579408D01*
X156340520Y-81579408D02*
X156435758Y-81531789D01*
X154578616Y-83833694D02*
X155340521Y-83833694D01*
X154959568Y-83452741D02*
X154959568Y-84214646D01*
X156292901Y-84452741D02*
X155816711Y-84452741D01*
X155816711Y-84452741D02*
X155769092Y-83976551D01*
X155769092Y-83976551D02*
X155816711Y-84024170D01*
X155816711Y-84024170D02*
X155911949Y-84071789D01*
X155911949Y-84071789D02*
X156150044Y-84071789D01*
X156150044Y-84071789D02*
X156245282Y-84024170D01*
X156245282Y-84024170D02*
X156292901Y-83976551D01*
X156292901Y-83976551D02*
X156340520Y-83881313D01*
X156340520Y-83881313D02*
X156340520Y-83643218D01*
X156340520Y-83643218D02*
X156292901Y-83547980D01*
X156292901Y-83547980D02*
X156245282Y-83500361D01*
X156245282Y-83500361D02*
X156150044Y-83452741D01*
X156150044Y-83452741D02*
X155911949Y-83452741D01*
X155911949Y-83452741D02*
X155816711Y-83500361D01*
X155816711Y-83500361D02*
X155769092Y-83547980D01*
X156626235Y-84452741D02*
X156959568Y-83452741D01*
X156959568Y-83452741D02*
X157292901Y-84452741D01*
X154687811Y-122353850D02*
X155259239Y-122353850D01*
X154973525Y-122353850D02*
X154973525Y-121353850D01*
X154973525Y-121353850D02*
X155068763Y-121496707D01*
X155068763Y-121496707D02*
X155164001Y-121591945D01*
X155164001Y-121591945D02*
X155259239Y-121639564D01*
X154306858Y-121449088D02*
X154259239Y-121401469D01*
X154259239Y-121401469D02*
X154164001Y-121353850D01*
X154164001Y-121353850D02*
X153925906Y-121353850D01*
X153925906Y-121353850D02*
X153830668Y-121401469D01*
X153830668Y-121401469D02*
X153783049Y-121449088D01*
X153783049Y-121449088D02*
X153735430Y-121544326D01*
X153735430Y-121544326D02*
X153735430Y-121639564D01*
X153735430Y-121639564D02*
X153783049Y-121782421D01*
X153783049Y-121782421D02*
X154354477Y-122353850D01*
X154354477Y-122353850D02*
X153735430Y-122353850D01*
X153449715Y-121353850D02*
X153116382Y-122353850D01*
X153116382Y-122353850D02*
X152783049Y-121353850D01*
X111680566Y-121902912D02*
X110918662Y-121902912D01*
X111299614Y-122283865D02*
X111299614Y-121521960D01*
X109966281Y-121283865D02*
X110442471Y-121283865D01*
X110442471Y-121283865D02*
X110490090Y-121760055D01*
X110490090Y-121760055D02*
X110442471Y-121712436D01*
X110442471Y-121712436D02*
X110347233Y-121664817D01*
X110347233Y-121664817D02*
X110109138Y-121664817D01*
X110109138Y-121664817D02*
X110013900Y-121712436D01*
X110013900Y-121712436D02*
X109966281Y-121760055D01*
X109966281Y-121760055D02*
X109918662Y-121855293D01*
X109918662Y-121855293D02*
X109918662Y-122093388D01*
X109918662Y-122093388D02*
X109966281Y-122188626D01*
X109966281Y-122188626D02*
X110013900Y-122236246D01*
X110013900Y-122236246D02*
X110109138Y-122283865D01*
X110109138Y-122283865D02*
X110347233Y-122283865D01*
X110347233Y-122283865D02*
X110442471Y-122236246D01*
X110442471Y-122236246D02*
X110490090Y-122188626D01*
X109632947Y-121283865D02*
X109299614Y-122283865D01*
X109299614Y-122283865D02*
X108966281Y-121283865D01*
D11*
G36*
X87271146Y-98646753D02*
G01*
X87308149Y-98683756D01*
X87352857Y-98773172D01*
X87352857Y-98845208D01*
X87308151Y-98934618D01*
X87271145Y-98971624D01*
X87181731Y-99016332D01*
X86867142Y-99016332D01*
X86867142Y-98602046D01*
X87181732Y-98602046D01*
X87271146Y-98646753D01*
G37*
G36*
X87342575Y-97861039D02*
G01*
X87379578Y-97898042D01*
X87424285Y-97987456D01*
X87424285Y-98130922D01*
X87379578Y-98220336D01*
X87350400Y-98249513D01*
X87206030Y-98297636D01*
X87200361Y-98296616D01*
X87187269Y-98302046D01*
X86867142Y-98302046D01*
X86867142Y-97816332D01*
X87253160Y-97816332D01*
X87342575Y-97861039D01*
G37*
G36*
X94352857Y-97830466D02*
G01*
X94352857Y-98084066D01*
X94343217Y-98082331D01*
X94330125Y-98087761D01*
X94038267Y-98087761D01*
X93971802Y-98054528D01*
X93938571Y-97988065D01*
X93938571Y-97916028D01*
X93971802Y-97849564D01*
X94038268Y-97816332D01*
X94324589Y-97816332D01*
X94352857Y-97830466D01*
G37*
G36*
X88699718Y-97861039D02*
G01*
X88736721Y-97898042D01*
X88781428Y-97987456D01*
X88781428Y-98345208D01*
X88736720Y-98434622D01*
X88699718Y-98471624D01*
X88610304Y-98516332D01*
X88466838Y-98516332D01*
X88377425Y-98471625D01*
X88340419Y-98434620D01*
X88295714Y-98345208D01*
X88295714Y-97987456D01*
X88340420Y-97898042D01*
X88377424Y-97861038D01*
X88466838Y-97816332D01*
X88610303Y-97816332D01*
X88699718Y-97861039D01*
G37*
G36*
X99402858Y-100397047D02*
G01*
X85695714Y-100397047D01*
X85695714Y-99188581D01*
X86562400Y-99188581D01*
X86576240Y-99218887D01*
X86585626Y-99250852D01*
X86594251Y-99258326D01*
X86598993Y-99268708D01*
X86627020Y-99286720D01*
X86652199Y-99308537D01*
X86663496Y-99310161D01*
X86673098Y-99316332D01*
X86706411Y-99316332D01*
X86739391Y-99321074D01*
X86749774Y-99316332D01*
X87209066Y-99316332D01*
X87244830Y-99320193D01*
X87272245Y-99306485D01*
X87301662Y-99297848D01*
X87310943Y-99287136D01*
X87410261Y-99237477D01*
X87434922Y-99232113D01*
X87464133Y-99202901D01*
X87494413Y-99174736D01*
X87495139Y-99171895D01*
X87524193Y-99142841D01*
X87545895Y-99129952D01*
X87564378Y-99092985D01*
X87584188Y-99056707D01*
X87583978Y-99053784D01*
X87633409Y-98954923D01*
X87652857Y-98924662D01*
X87652857Y-98894009D01*
X87658287Y-98863837D01*
X87652857Y-98850745D01*
X87652857Y-98745837D01*
X87656718Y-98710073D01*
X87643010Y-98682657D01*
X87634373Y-98653241D01*
X87623661Y-98643959D01*
X87574002Y-98544641D01*
X87568638Y-98519980D01*
X87539416Y-98490758D01*
X87537991Y-98489226D01*
X87553199Y-98478658D01*
X87558617Y-98465560D01*
X87595624Y-98428553D01*
X87617324Y-98415665D01*
X87635798Y-98378715D01*
X87655618Y-98342420D01*
X87655408Y-98339495D01*
X87704837Y-98240637D01*
X87724285Y-98210376D01*
X87724285Y-98179724D01*
X87729715Y-98149550D01*
X87724285Y-98136458D01*
X87724285Y-97968828D01*
X87990284Y-97968828D01*
X87995714Y-97981920D01*
X87995714Y-98372542D01*
X87991853Y-98408305D01*
X88005560Y-98435719D01*
X88014198Y-98465138D01*
X88024909Y-98474419D01*
X88074567Y-98573737D01*
X88079933Y-98598398D01*
X88109137Y-98627601D01*
X88137309Y-98657888D01*
X88140150Y-98658614D01*
X88169204Y-98687667D01*
X88182094Y-98709370D01*
X88219068Y-98727857D01*
X88255341Y-98747664D01*
X88258263Y-98747454D01*
X88357122Y-98796884D01*
X88387384Y-98816332D01*
X88418037Y-98816332D01*
X88448209Y-98821762D01*
X88461301Y-98816332D01*
X88637639Y-98816332D01*
X88673402Y-98820193D01*
X88700816Y-98806485D01*
X88730234Y-98797848D01*
X88739516Y-98787135D01*
X88838830Y-98737477D01*
X88863492Y-98732113D01*
X88892706Y-98702898D01*
X88908099Y-98688581D01*
X89205258Y-98688581D01*
X89241851Y-98768708D01*
X89315956Y-98816332D01*
X89424285Y-98816332D01*
X89424285Y-99187900D01*
X89442769Y-99250852D01*
X89509342Y-99308537D01*
X89596534Y-99321074D01*
X89676661Y-99284481D01*
X89724285Y-99210376D01*
X89724285Y-98816332D01*
X89952996Y-98816332D01*
X90015948Y-98797848D01*
X90073633Y-98731275D01*
X90086170Y-98644083D01*
X90049577Y-98563956D01*
X89975472Y-98516332D01*
X89724285Y-98516332D01*
X89724285Y-97916029D01*
X89757517Y-97849563D01*
X89823981Y-97816332D01*
X89952996Y-97816332D01*
X90015948Y-97797848D01*
X90073633Y-97731275D01*
X90075093Y-97721120D01*
X91347413Y-97721120D01*
X91363092Y-97807802D01*
X91423145Y-97872246D01*
X91508508Y-97893991D01*
X91741484Y-97816332D01*
X92038875Y-97816332D01*
X92128289Y-97861039D01*
X92165293Y-97898043D01*
X92210000Y-97987456D01*
X92210000Y-98059493D01*
X92165292Y-98148906D01*
X92128288Y-98185910D01*
X92021930Y-98239089D01*
X91778110Y-98300045D01*
X91760882Y-98298185D01*
X91736213Y-98310519D01*
X91731267Y-98311756D01*
X91716997Y-98320127D01*
X91595454Y-98380900D01*
X91570793Y-98386265D01*
X91541578Y-98415479D01*
X91511301Y-98443642D01*
X91510574Y-98446482D01*
X91481518Y-98475537D01*
X91459818Y-98488427D01*
X91441339Y-98525383D01*
X91421525Y-98561671D01*
X91421734Y-98564595D01*
X91372304Y-98663456D01*
X91352857Y-98693717D01*
X91352857Y-98724369D01*
X91347427Y-98754543D01*
X91352857Y-98767635D01*
X91352857Y-98872542D01*
X91348996Y-98908305D01*
X91362703Y-98935719D01*
X91371341Y-98965138D01*
X91382052Y-98974419D01*
X91431710Y-99073737D01*
X91437076Y-99098398D01*
X91466280Y-99127601D01*
X91494452Y-99157888D01*
X91497293Y-99158614D01*
X91526347Y-99187667D01*
X91539237Y-99209370D01*
X91576211Y-99227857D01*
X91612484Y-99247664D01*
X91615406Y-99247454D01*
X91714265Y-99296884D01*
X91744527Y-99316332D01*
X91775180Y-99316332D01*
X91805352Y-99321762D01*
X91818444Y-99316332D01*
X92126908Y-99316332D01*
X92151365Y-99322562D01*
X92190556Y-99309498D01*
X92230234Y-99297848D01*
X92232153Y-99295632D01*
X92427895Y-99230385D01*
X92481771Y-99192942D01*
X92515444Y-99111544D01*
X92499765Y-99024862D01*
X92439711Y-98960419D01*
X92354349Y-98938673D01*
X92121372Y-99016332D01*
X91823981Y-99016332D01*
X91734568Y-98971625D01*
X91697562Y-98934620D01*
X91652857Y-98845208D01*
X91652857Y-98773172D01*
X91695150Y-98688581D01*
X92633829Y-98688581D01*
X92670422Y-98768708D01*
X92744527Y-98816332D01*
X92852856Y-98816332D01*
X92852856Y-99187900D01*
X92871340Y-99250852D01*
X92937913Y-99308537D01*
X93025105Y-99321074D01*
X93105232Y-99284481D01*
X93152856Y-99210376D01*
X93152856Y-98816332D01*
X93381567Y-98816332D01*
X93444519Y-98797848D01*
X93502204Y-98731275D01*
X93514741Y-98644083D01*
X93478148Y-98563956D01*
X93404043Y-98516332D01*
X93152856Y-98516332D01*
X93152856Y-97916029D01*
X93162170Y-97897400D01*
X93633141Y-97897400D01*
X93638571Y-97910492D01*
X93638571Y-98015399D01*
X93634710Y-98051162D01*
X93648417Y-98078576D01*
X93657055Y-98107995D01*
X93667766Y-98117276D01*
X93708744Y-98199233D01*
X93708539Y-98205062D01*
X93728261Y-98238266D01*
X93735480Y-98252705D01*
X93739232Y-98256739D01*
X93753523Y-98280799D01*
X93768646Y-98288360D01*
X93780166Y-98300745D01*
X93807283Y-98307679D01*
X93928554Y-98368315D01*
X93958813Y-98387761D01*
X93989464Y-98387761D01*
X94019638Y-98393191D01*
X94032730Y-98387761D01*
X94324588Y-98387761D01*
X94352857Y-98401895D01*
X94352857Y-98416636D01*
X94319625Y-98483099D01*
X94253161Y-98516332D01*
X94038267Y-98516332D01*
X93907790Y-98451093D01*
X93843218Y-98439473D01*
X93761850Y-98473220D01*
X93711643Y-98545600D01*
X93708539Y-98633633D01*
X93753523Y-98709370D01*
X93928554Y-98796886D01*
X93958813Y-98816332D01*
X93989464Y-98816332D01*
X94019638Y-98821762D01*
X94032730Y-98816332D01*
X94280496Y-98816332D01*
X94316259Y-98820193D01*
X94343673Y-98806485D01*
X94373091Y-98797848D01*
X94382373Y-98787135D01*
X94464328Y-98746157D01*
X94470158Y-98746363D01*
X94503376Y-98726633D01*
X94517801Y-98719421D01*
X94521830Y-98715672D01*
X94545895Y-98701380D01*
X94552294Y-98688581D01*
X94848115Y-98688581D01*
X94884708Y-98768708D01*
X94958813Y-98816332D01*
X95067142Y-98816332D01*
X95067142Y-99187900D01*
X95085626Y-99250852D01*
X95152199Y-99308537D01*
X95239391Y-99321074D01*
X95319518Y-99284481D01*
X95367142Y-99210376D01*
X95367142Y-98816332D01*
X95595853Y-98816332D01*
X95658805Y-98797848D01*
X95716490Y-98731275D01*
X95729027Y-98644083D01*
X95692434Y-98563956D01*
X95618329Y-98516332D01*
X95367142Y-98516332D01*
X95367142Y-97916029D01*
X95376457Y-97897399D01*
X95918855Y-97897399D01*
X95924285Y-97910491D01*
X95924285Y-98687900D01*
X95942769Y-98750852D01*
X96009342Y-98808537D01*
X96096534Y-98821074D01*
X96176661Y-98784481D01*
X96224285Y-98710376D01*
X96224285Y-97916029D01*
X96257517Y-97849563D01*
X96323981Y-97816332D01*
X96467446Y-97816332D01*
X96556861Y-97861039D01*
X96567143Y-97871321D01*
X96567143Y-98687900D01*
X96585627Y-98750852D01*
X96652200Y-98808537D01*
X96739392Y-98821074D01*
X96819519Y-98784481D01*
X96867143Y-98710376D01*
X96867143Y-97836254D01*
X96873078Y-97820341D01*
X96867143Y-97793060D01*
X96867143Y-97743271D01*
X97203765Y-97743271D01*
X97231545Y-97826864D01*
X97300109Y-97882167D01*
X97387688Y-97891622D01*
X97538267Y-97816332D01*
X97753160Y-97816332D01*
X97819625Y-97849564D01*
X97852857Y-97916028D01*
X97852857Y-97916636D01*
X97819625Y-97983099D01*
X97753161Y-98016332D01*
X97582362Y-98016332D01*
X97546598Y-98012471D01*
X97519182Y-98026178D01*
X97489766Y-98034816D01*
X97480484Y-98045527D01*
X97398526Y-98086506D01*
X97392698Y-98086301D01*
X97359493Y-98106022D01*
X97345055Y-98113242D01*
X97341020Y-98116994D01*
X97316961Y-98131285D01*
X97309399Y-98146408D01*
X97297015Y-98157928D01*
X97290081Y-98185044D01*
X97229445Y-98306315D01*
X97210000Y-98336574D01*
X97210000Y-98367225D01*
X97204570Y-98397400D01*
X97210000Y-98410492D01*
X97210000Y-98443970D01*
X97206139Y-98479733D01*
X97219846Y-98507147D01*
X97228484Y-98536566D01*
X97239195Y-98545847D01*
X97280173Y-98627804D01*
X97279968Y-98633633D01*
X97299690Y-98666837D01*
X97306909Y-98681276D01*
X97310661Y-98685310D01*
X97324952Y-98709370D01*
X97340075Y-98716931D01*
X97351595Y-98729316D01*
X97378712Y-98736250D01*
X97499983Y-98796886D01*
X97530242Y-98816332D01*
X97560893Y-98816332D01*
X97591067Y-98821762D01*
X97604159Y-98816332D01*
X97780496Y-98816332D01*
X97816259Y-98820193D01*
X97843673Y-98806485D01*
X97873091Y-98797848D01*
X97882373Y-98787135D01*
X98017801Y-98719421D01*
X98065841Y-98674736D01*
X98087663Y-98589393D01*
X98059883Y-98505800D01*
X97991319Y-98450497D01*
X97903739Y-98441042D01*
X97753161Y-98516332D01*
X97609696Y-98516332D01*
X97543231Y-98483099D01*
X97510000Y-98416636D01*
X97510000Y-98416028D01*
X97543231Y-98349564D01*
X97609697Y-98316332D01*
X97780496Y-98316332D01*
X97816259Y-98320193D01*
X97843673Y-98306485D01*
X97873091Y-98297848D01*
X97882373Y-98287135D01*
X97964328Y-98246157D01*
X97970158Y-98246363D01*
X98003376Y-98226633D01*
X98017801Y-98219421D01*
X98021830Y-98215672D01*
X98045895Y-98201380D01*
X98053457Y-98186254D01*
X98065841Y-98174736D01*
X98072773Y-98147622D01*
X98133409Y-98026351D01*
X98152857Y-97996090D01*
X98152857Y-97965437D01*
X98158287Y-97935265D01*
X98152857Y-97922173D01*
X98152857Y-97888693D01*
X98156718Y-97852929D01*
X98143009Y-97825513D01*
X98134373Y-97796098D01*
X98123661Y-97786816D01*
X98082682Y-97704860D01*
X98082888Y-97699031D01*
X98063160Y-97665817D01*
X98055946Y-97651388D01*
X98052195Y-97647356D01*
X98037904Y-97623294D01*
X98022780Y-97615732D01*
X98011261Y-97603348D01*
X97984145Y-97596414D01*
X97862880Y-97535782D01*
X97832615Y-97516332D01*
X97801962Y-97516332D01*
X97771790Y-97510902D01*
X97758698Y-97516332D01*
X97510932Y-97516332D01*
X97475168Y-97512471D01*
X97447752Y-97526179D01*
X97418337Y-97534816D01*
X97409055Y-97545527D01*
X97273627Y-97613243D01*
X97225587Y-97657928D01*
X97203765Y-97743271D01*
X96867143Y-97743271D01*
X96867143Y-97644764D01*
X96848659Y-97581812D01*
X96782086Y-97524127D01*
X96694894Y-97511590D01*
X96614767Y-97548183D01*
X96611654Y-97553026D01*
X96577166Y-97535782D01*
X96546901Y-97516332D01*
X96516248Y-97516332D01*
X96486076Y-97510902D01*
X96472984Y-97516332D01*
X96296646Y-97516332D01*
X96260882Y-97512471D01*
X96233466Y-97526179D01*
X96204051Y-97534816D01*
X96194769Y-97545527D01*
X96112813Y-97586506D01*
X96106984Y-97586301D01*
X96073770Y-97606028D01*
X96059341Y-97613243D01*
X96055309Y-97616993D01*
X96031247Y-97631285D01*
X96023685Y-97646408D01*
X96011301Y-97657928D01*
X96004367Y-97685043D01*
X95943735Y-97806308D01*
X95924285Y-97836574D01*
X95924285Y-97867227D01*
X95918855Y-97897399D01*
X95376457Y-97897399D01*
X95400374Y-97849563D01*
X95466838Y-97816332D01*
X95595853Y-97816332D01*
X95658805Y-97797848D01*
X95716490Y-97731275D01*
X95729027Y-97644083D01*
X95692434Y-97563956D01*
X95618329Y-97516332D01*
X95439503Y-97516332D01*
X95403739Y-97512471D01*
X95376323Y-97526179D01*
X95346908Y-97534816D01*
X95337626Y-97545527D01*
X95255670Y-97586506D01*
X95249841Y-97586301D01*
X95216627Y-97606028D01*
X95202198Y-97613243D01*
X95198166Y-97616993D01*
X95174104Y-97631285D01*
X95166542Y-97646408D01*
X95154158Y-97657928D01*
X95147224Y-97685043D01*
X95086592Y-97806308D01*
X95067142Y-97836574D01*
X95067142Y-97867227D01*
X95061712Y-97897399D01*
X95067142Y-97910491D01*
X95067142Y-98516332D01*
X94981289Y-98516332D01*
X94918337Y-98534816D01*
X94860652Y-98601389D01*
X94848115Y-98688581D01*
X94552294Y-98688581D01*
X94553457Y-98686254D01*
X94565841Y-98674736D01*
X94572773Y-98647622D01*
X94633409Y-98526351D01*
X94652857Y-98496090D01*
X94652857Y-98465437D01*
X94658287Y-98435265D01*
X94652857Y-98422173D01*
X94652857Y-98311865D01*
X94654317Y-98270458D01*
X94652857Y-98268000D01*
X94652857Y-97740425D01*
X94654317Y-97699031D01*
X94652857Y-97696573D01*
X94652857Y-97644764D01*
X94634373Y-97581812D01*
X94567800Y-97524127D01*
X94480608Y-97511590D01*
X94431536Y-97534000D01*
X94404043Y-97516332D01*
X94373392Y-97516332D01*
X94343218Y-97510902D01*
X94330126Y-97516332D01*
X94010933Y-97516332D01*
X93975169Y-97512471D01*
X93947753Y-97526178D01*
X93918337Y-97534816D01*
X93909055Y-97545527D01*
X93827097Y-97586506D01*
X93821269Y-97586301D01*
X93788064Y-97606022D01*
X93773626Y-97613242D01*
X93769591Y-97616994D01*
X93745532Y-97631285D01*
X93737970Y-97646408D01*
X93725586Y-97657928D01*
X93718652Y-97685044D01*
X93658016Y-97806315D01*
X93638571Y-97836574D01*
X93638571Y-97867225D01*
X93633141Y-97897400D01*
X93162170Y-97897400D01*
X93186088Y-97849563D01*
X93252552Y-97816332D01*
X93381567Y-97816332D01*
X93444519Y-97797848D01*
X93502204Y-97731275D01*
X93514741Y-97644083D01*
X93478148Y-97563956D01*
X93404043Y-97516332D01*
X93225217Y-97516332D01*
X93189453Y-97512471D01*
X93162037Y-97526179D01*
X93132622Y-97534816D01*
X93123340Y-97545527D01*
X93041384Y-97586506D01*
X93035555Y-97586301D01*
X93002341Y-97606028D01*
X92987912Y-97613243D01*
X92983880Y-97616993D01*
X92959818Y-97631285D01*
X92952256Y-97646408D01*
X92939872Y-97657928D01*
X92932938Y-97685043D01*
X92872306Y-97806308D01*
X92852856Y-97836574D01*
X92852856Y-97867227D01*
X92847426Y-97897399D01*
X92852856Y-97910491D01*
X92852856Y-98516332D01*
X92767003Y-98516332D01*
X92704051Y-98534816D01*
X92646366Y-98601389D01*
X92633829Y-98688581D01*
X91695150Y-98688581D01*
X91697563Y-98683755D01*
X91734567Y-98646752D01*
X91840922Y-98593574D01*
X92084744Y-98532619D01*
X92101973Y-98534479D01*
X92126641Y-98522144D01*
X92131589Y-98520908D01*
X92145857Y-98512536D01*
X92267404Y-98451763D01*
X92292065Y-98446399D01*
X92321276Y-98417187D01*
X92351556Y-98389022D01*
X92352282Y-98386181D01*
X92381338Y-98357125D01*
X92403038Y-98344237D01*
X92421516Y-98307280D01*
X92441331Y-98270993D01*
X92441121Y-98268069D01*
X92490554Y-98169205D01*
X92510000Y-98138947D01*
X92510000Y-98108296D01*
X92515430Y-98078122D01*
X92510000Y-98065030D01*
X92510000Y-97960121D01*
X92513861Y-97924357D01*
X92500152Y-97896941D01*
X92491516Y-97867526D01*
X92480804Y-97858244D01*
X92431146Y-97758929D01*
X92425781Y-97734266D01*
X92396550Y-97705035D01*
X92368404Y-97674776D01*
X92365564Y-97674049D01*
X92336506Y-97644992D01*
X92323619Y-97623294D01*
X92286665Y-97604817D01*
X92250374Y-97585000D01*
X92247449Y-97585209D01*
X92148587Y-97535777D01*
X92118329Y-97516332D01*
X92087678Y-97516332D01*
X92057504Y-97510902D01*
X92044412Y-97516332D01*
X91735947Y-97516332D01*
X91711492Y-97510102D01*
X91672299Y-97523166D01*
X91632623Y-97534816D01*
X91630703Y-97537031D01*
X91434961Y-97602279D01*
X91381085Y-97639722D01*
X91347413Y-97721120D01*
X90075093Y-97721120D01*
X90086170Y-97644083D01*
X90049577Y-97563956D01*
X89975472Y-97516332D01*
X89796646Y-97516332D01*
X89760882Y-97512471D01*
X89733466Y-97526179D01*
X89704051Y-97534816D01*
X89694769Y-97545527D01*
X89612813Y-97586506D01*
X89606984Y-97586301D01*
X89573770Y-97606028D01*
X89559341Y-97613243D01*
X89555309Y-97616993D01*
X89531247Y-97631285D01*
X89523685Y-97646408D01*
X89511301Y-97657928D01*
X89504367Y-97685043D01*
X89443735Y-97806308D01*
X89424285Y-97836574D01*
X89424285Y-97867227D01*
X89418855Y-97897399D01*
X89424285Y-97910491D01*
X89424285Y-98516332D01*
X89338432Y-98516332D01*
X89275480Y-98534816D01*
X89217795Y-98601389D01*
X89205258Y-98688581D01*
X88908099Y-98688581D01*
X88922984Y-98674736D01*
X88923710Y-98671895D01*
X88952766Y-98642840D01*
X88974467Y-98629951D01*
X88992946Y-98592992D01*
X89012760Y-98556707D01*
X89012550Y-98553782D01*
X89061980Y-98454923D01*
X89081428Y-98424662D01*
X89081428Y-98394010D01*
X89086858Y-98363836D01*
X89081428Y-98350744D01*
X89081428Y-97960122D01*
X89085289Y-97924359D01*
X89071581Y-97896944D01*
X89062944Y-97867526D01*
X89052232Y-97858244D01*
X89002574Y-97758926D01*
X88997209Y-97734266D01*
X88968001Y-97705058D01*
X88939833Y-97674776D01*
X88936992Y-97674049D01*
X88907934Y-97644992D01*
X88895047Y-97623294D01*
X88858097Y-97604819D01*
X88821801Y-97585000D01*
X88818877Y-97585209D01*
X88720023Y-97535782D01*
X88689758Y-97516332D01*
X88659105Y-97516332D01*
X88628933Y-97510902D01*
X88615841Y-97516332D01*
X88439503Y-97516332D01*
X88403739Y-97512471D01*
X88376323Y-97526179D01*
X88346908Y-97534816D01*
X88337626Y-97545527D01*
X88238311Y-97595186D01*
X88213650Y-97600551D01*
X88184435Y-97629765D01*
X88154158Y-97657928D01*
X88153431Y-97660768D01*
X88124375Y-97689823D01*
X88102675Y-97702713D01*
X88084194Y-97739673D01*
X88064382Y-97775957D01*
X88064591Y-97778880D01*
X88015159Y-97877743D01*
X87995714Y-97908002D01*
X87995714Y-97938653D01*
X87990284Y-97968828D01*
X87724285Y-97968828D01*
X87724285Y-97960122D01*
X87728146Y-97924359D01*
X87714438Y-97896944D01*
X87705801Y-97867526D01*
X87695089Y-97858244D01*
X87645431Y-97758926D01*
X87640066Y-97734266D01*
X87610858Y-97705058D01*
X87582690Y-97674776D01*
X87579849Y-97674049D01*
X87550791Y-97644992D01*
X87537904Y-97623294D01*
X87500954Y-97604819D01*
X87464658Y-97585000D01*
X87461734Y-97585209D01*
X87362880Y-97535782D01*
X87332615Y-97516332D01*
X87301962Y-97516332D01*
X87271790Y-97510902D01*
X87258698Y-97516332D01*
X86727873Y-97516332D01*
X86694893Y-97511590D01*
X86664586Y-97525430D01*
X86632622Y-97534816D01*
X86625147Y-97543441D01*
X86614766Y-97548183D01*
X86596753Y-97576210D01*
X86574937Y-97601389D01*
X86573312Y-97612686D01*
X86567142Y-97622288D01*
X86567142Y-97655601D01*
X86562400Y-97688581D01*
X86567142Y-97698964D01*
X86567142Y-98441315D01*
X86562400Y-98474295D01*
X86567142Y-98484678D01*
X86567142Y-99155601D01*
X86562400Y-99188581D01*
X85695714Y-99188581D01*
X85695714Y-96818475D01*
X99402858Y-96818475D01*
X99402858Y-100397047D01*
G37*
D10*
X154757797Y-99565957D02*
X154853035Y-99518338D01*
X154853035Y-99518338D02*
X154995892Y-99518338D01*
X154995892Y-99518338D02*
X155138749Y-99565957D01*
X155138749Y-99565957D02*
X155233987Y-99661195D01*
X155233987Y-99661195D02*
X155281606Y-99756433D01*
X155281606Y-99756433D02*
X155329225Y-99946909D01*
X155329225Y-99946909D02*
X155329225Y-100089766D01*
X155329225Y-100089766D02*
X155281606Y-100280242D01*
X155281606Y-100280242D02*
X155233987Y-100375480D01*
X155233987Y-100375480D02*
X155138749Y-100470719D01*
X155138749Y-100470719D02*
X154995892Y-100518338D01*
X154995892Y-100518338D02*
X154900654Y-100518338D01*
X154900654Y-100518338D02*
X154757797Y-100470719D01*
X154757797Y-100470719D02*
X154710178Y-100423099D01*
X154710178Y-100423099D02*
X154710178Y-100089766D01*
X154710178Y-100089766D02*
X154900654Y-100089766D01*
X154281606Y-99851671D02*
X154281606Y-100518338D01*
X154281606Y-99946909D02*
X154233987Y-99899290D01*
X154233987Y-99899290D02*
X154138749Y-99851671D01*
X154138749Y-99851671D02*
X153995892Y-99851671D01*
X153995892Y-99851671D02*
X153900654Y-99899290D01*
X153900654Y-99899290D02*
X153853035Y-99994528D01*
X153853035Y-99994528D02*
X153853035Y-100518338D01*
X152948273Y-100518338D02*
X152948273Y-99518338D01*
X152948273Y-100470719D02*
X153043511Y-100518338D01*
X153043511Y-100518338D02*
X153233987Y-100518338D01*
X153233987Y-100518338D02*
X153329225Y-100470719D01*
X153329225Y-100470719D02*
X153376844Y-100423099D01*
X153376844Y-100423099D02*
X153424463Y-100327861D01*
X153424463Y-100327861D02*
X153424463Y-100042147D01*
X153424463Y-100042147D02*
X153376844Y-99946909D01*
X153376844Y-99946909D02*
X153329225Y-99899290D01*
X153329225Y-99899290D02*
X153233987Y-99851671D01*
X153233987Y-99851671D02*
X153043511Y-99851671D01*
X153043511Y-99851671D02*
X152948273Y-99899290D01*
X151710177Y-100518338D02*
X151710177Y-99518338D01*
X151710177Y-99518338D02*
X151329225Y-99518338D01*
X151329225Y-99518338D02*
X151233987Y-99565957D01*
X151233987Y-99565957D02*
X151186368Y-99613576D01*
X151186368Y-99613576D02*
X151138749Y-99708814D01*
X151138749Y-99708814D02*
X151138749Y-99851671D01*
X151138749Y-99851671D02*
X151186368Y-99946909D01*
X151186368Y-99946909D02*
X151233987Y-99994528D01*
X151233987Y-99994528D02*
X151329225Y-100042147D01*
X151329225Y-100042147D02*
X151710177Y-100042147D01*
X150805415Y-99851671D02*
X150614939Y-100518338D01*
X150614939Y-100518338D02*
X150424463Y-100042147D01*
X150424463Y-100042147D02*
X150233987Y-100518338D01*
X150233987Y-100518338D02*
X150043511Y-99851671D01*
X149662558Y-100518338D02*
X149662558Y-99851671D01*
X149662558Y-100042147D02*
X149614939Y-99946909D01*
X149614939Y-99946909D02*
X149567320Y-99899290D01*
X149567320Y-99899290D02*
X149472082Y-99851671D01*
X149472082Y-99851671D02*
X149376844Y-99851671D01*
X144414307Y-90791127D02*
X145414307Y-90791127D01*
X145414307Y-90791127D02*
X145414307Y-90410175D01*
X145414307Y-90410175D02*
X145366688Y-90314937D01*
X145366688Y-90314937D02*
X145319069Y-90267318D01*
X145319069Y-90267318D02*
X145223831Y-90219699D01*
X145223831Y-90219699D02*
X145080974Y-90219699D01*
X145080974Y-90219699D02*
X144985736Y-90267318D01*
X144985736Y-90267318D02*
X144938117Y-90314937D01*
X144938117Y-90314937D02*
X144890498Y-90410175D01*
X144890498Y-90410175D02*
X144890498Y-90791127D01*
X144461927Y-89410175D02*
X144414307Y-89505413D01*
X144414307Y-89505413D02*
X144414307Y-89695889D01*
X144414307Y-89695889D02*
X144461927Y-89791127D01*
X144461927Y-89791127D02*
X144557165Y-89838746D01*
X144557165Y-89838746D02*
X144938117Y-89838746D01*
X144938117Y-89838746D02*
X145033355Y-89791127D01*
X145033355Y-89791127D02*
X145080974Y-89695889D01*
X145080974Y-89695889D02*
X145080974Y-89505413D01*
X145080974Y-89505413D02*
X145033355Y-89410175D01*
X145033355Y-89410175D02*
X144938117Y-89362556D01*
X144938117Y-89362556D02*
X144842879Y-89362556D01*
X144842879Y-89362556D02*
X144747641Y-89838746D01*
X145080974Y-88933984D02*
X144414307Y-88933984D01*
X144985736Y-88933984D02*
X145033355Y-88886365D01*
X145033355Y-88886365D02*
X145080974Y-88791127D01*
X145080974Y-88791127D02*
X145080974Y-88648270D01*
X145080974Y-88648270D02*
X145033355Y-88553032D01*
X145033355Y-88553032D02*
X144938117Y-88505413D01*
X144938117Y-88505413D02*
X144414307Y-88505413D01*
X155102425Y-86945122D02*
X155007187Y-86992741D01*
X155007187Y-86992741D02*
X154864330Y-86992741D01*
X154864330Y-86992741D02*
X154721473Y-86945122D01*
X154721473Y-86945122D02*
X154626235Y-86849884D01*
X154626235Y-86849884D02*
X154578616Y-86754646D01*
X154578616Y-86754646D02*
X154530997Y-86564170D01*
X154530997Y-86564170D02*
X154530997Y-86421313D01*
X154530997Y-86421313D02*
X154578616Y-86230837D01*
X154578616Y-86230837D02*
X154626235Y-86135599D01*
X154626235Y-86135599D02*
X154721473Y-86040361D01*
X154721473Y-86040361D02*
X154864330Y-85992741D01*
X154864330Y-85992741D02*
X154959568Y-85992741D01*
X154959568Y-85992741D02*
X155102425Y-86040361D01*
X155102425Y-86040361D02*
X155150044Y-86087980D01*
X155150044Y-86087980D02*
X155150044Y-86421313D01*
X155150044Y-86421313D02*
X154959568Y-86421313D01*
X155578616Y-86659408D02*
X155578616Y-85992741D01*
X155578616Y-86564170D02*
X155626235Y-86611789D01*
X155626235Y-86611789D02*
X155721473Y-86659408D01*
X155721473Y-86659408D02*
X155864330Y-86659408D01*
X155864330Y-86659408D02*
X155959568Y-86611789D01*
X155959568Y-86611789D02*
X156007187Y-86516551D01*
X156007187Y-86516551D02*
X156007187Y-85992741D01*
X156911949Y-85992741D02*
X156911949Y-86992741D01*
X156911949Y-86040361D02*
X156816711Y-85992741D01*
X156816711Y-85992741D02*
X156626235Y-85992741D01*
X156626235Y-85992741D02*
X156530997Y-86040361D01*
X156530997Y-86040361D02*
X156483378Y-86087980D01*
X156483378Y-86087980D02*
X156435759Y-86183218D01*
X156435759Y-86183218D02*
X156435759Y-86468932D01*
X156435759Y-86468932D02*
X156483378Y-86564170D01*
X156483378Y-86564170D02*
X156530997Y-86611789D01*
X156530997Y-86611789D02*
X156626235Y-86659408D01*
X156626235Y-86659408D02*
X156816711Y-86659408D01*
X156816711Y-86659408D02*
X156911949Y-86611789D01*
D11*
G36*
X101858287Y-126089849D02*
G01*
X101881004Y-126112567D01*
X101911426Y-126173409D01*
X101911426Y-126216874D01*
X101881003Y-126277718D01*
X101858286Y-126300435D01*
X101797444Y-126330857D01*
X101582855Y-126330857D01*
X101582855Y-126059428D01*
X101797445Y-126059428D01*
X101858287Y-126089849D01*
G37*
G36*
X101915430Y-125461279D02*
G01*
X101938148Y-125483996D01*
X101968569Y-125544837D01*
X101968569Y-125645446D01*
X101938148Y-125706288D01*
X101923255Y-125721180D01*
X101821742Y-125755018D01*
X101816074Y-125753998D01*
X101802982Y-125759428D01*
X101582855Y-125759428D01*
X101582855Y-125430857D01*
X101854587Y-125430857D01*
X101915430Y-125461279D01*
G37*
G36*
X99515429Y-126032706D02*
G01*
X99538148Y-126055425D01*
X99568569Y-126116266D01*
X99568569Y-126216874D01*
X99538147Y-126277718D01*
X99515428Y-126300436D01*
X99454588Y-126330857D01*
X99182855Y-126330857D01*
X99182855Y-126002285D01*
X99454587Y-126002285D01*
X99515429Y-126032706D01*
G37*
G36*
X95572573Y-126089849D02*
G01*
X95595290Y-126112567D01*
X95625712Y-126173409D01*
X95625712Y-126216874D01*
X95595289Y-126277718D01*
X95572572Y-126300435D01*
X95511730Y-126330857D01*
X95297141Y-126330857D01*
X95297141Y-126059428D01*
X95511731Y-126059428D01*
X95572573Y-126089849D01*
G37*
G36*
X95629716Y-125461279D02*
G01*
X95652434Y-125483996D01*
X95682855Y-125544837D01*
X95682855Y-125645446D01*
X95652434Y-125706288D01*
X95637541Y-125721180D01*
X95536028Y-125755018D01*
X95530360Y-125753998D01*
X95517268Y-125759428D01*
X95297141Y-125759428D01*
X95297141Y-125430857D01*
X95568873Y-125430857D01*
X95629716Y-125461279D01*
G37*
G36*
X96715431Y-125461279D02*
G01*
X96738149Y-125483996D01*
X96768569Y-125544837D01*
X96768569Y-125816875D01*
X96738148Y-125877717D01*
X96715430Y-125900435D01*
X96654587Y-125930857D01*
X96553980Y-125930857D01*
X96493138Y-125900436D01*
X96470419Y-125877717D01*
X96439998Y-125816874D01*
X96439998Y-125544838D01*
X96470419Y-125483995D01*
X96493137Y-125461278D01*
X96553979Y-125430857D01*
X96654588Y-125430857D01*
X96715431Y-125461279D01*
G37*
G36*
X92429717Y-125461279D02*
G01*
X92452435Y-125483996D01*
X92482855Y-125544837D01*
X92482855Y-125816875D01*
X92452434Y-125877717D01*
X92429716Y-125900435D01*
X92368873Y-125930857D01*
X92211427Y-125930857D01*
X92211427Y-125430857D01*
X92368874Y-125430857D01*
X92429717Y-125461279D01*
G37*
G36*
X89797142Y-125930857D02*
G01*
X89639695Y-125930857D01*
X89578853Y-125900436D01*
X89556134Y-125877717D01*
X89525713Y-125816874D01*
X89525713Y-125544838D01*
X89556134Y-125483995D01*
X89578852Y-125461278D01*
X89639694Y-125430857D01*
X89797142Y-125430857D01*
X89797142Y-125930857D01*
G37*
G36*
X88715432Y-125461279D02*
G01*
X88738150Y-125483996D01*
X88768570Y-125544837D01*
X88768570Y-125816875D01*
X88738149Y-125877717D01*
X88715431Y-125900435D01*
X88654588Y-125930857D01*
X88553981Y-125930857D01*
X88493139Y-125900436D01*
X88470420Y-125877717D01*
X88439999Y-125816874D01*
X88439999Y-125544838D01*
X88470420Y-125483995D01*
X88493138Y-125461278D01*
X88553980Y-125430857D01*
X88654589Y-125430857D01*
X88715432Y-125461279D01*
G37*
G36*
X87001147Y-125461279D02*
G01*
X87023865Y-125483996D01*
X87054285Y-125544837D01*
X87054285Y-125816875D01*
X87023864Y-125877717D01*
X87001146Y-125900435D01*
X86940303Y-125930857D01*
X86839696Y-125930857D01*
X86778854Y-125900436D01*
X86756135Y-125877717D01*
X86725714Y-125816874D01*
X86725714Y-125544838D01*
X86756135Y-125483995D01*
X86778853Y-125461278D01*
X86839695Y-125430857D01*
X86940304Y-125430857D01*
X87001147Y-125461279D01*
G37*
G36*
X103478570Y-127705429D02*
G01*
X84468571Y-127705429D01*
X84468571Y-125931677D01*
X85220972Y-125931677D01*
X85225714Y-125942060D01*
X85225714Y-126502425D01*
X85244198Y-126565377D01*
X85310771Y-126623062D01*
X85397963Y-126635599D01*
X85478090Y-126599006D01*
X85525714Y-126524901D01*
X85525714Y-126059428D01*
X85911428Y-126059428D01*
X85911428Y-126502425D01*
X85929912Y-126565377D01*
X85996485Y-126623062D01*
X86083677Y-126635599D01*
X86163804Y-126599006D01*
X86211428Y-126524901D01*
X86211428Y-125920159D01*
X86216170Y-125887179D01*
X86211428Y-125876796D01*
X86211428Y-125526209D01*
X86420284Y-125526209D01*
X86425714Y-125539301D01*
X86425714Y-125844209D01*
X86421853Y-125879973D01*
X86435560Y-125907387D01*
X86444198Y-125936805D01*
X86454910Y-125946087D01*
X86490281Y-126016829D01*
X86495647Y-126041493D01*
X86524867Y-126070713D01*
X86553024Y-126100984D01*
X86555864Y-126101710D01*
X86570633Y-126116479D01*
X86583523Y-126138181D01*
X86620496Y-126156667D01*
X86656769Y-126176474D01*
X86659690Y-126176265D01*
X86729982Y-126211411D01*
X86760241Y-126230857D01*
X86790892Y-126230857D01*
X86821066Y-126236287D01*
X86834158Y-126230857D01*
X86967638Y-126230857D01*
X87003402Y-126234718D01*
X87030816Y-126221010D01*
X87060234Y-126212373D01*
X87069516Y-126201660D01*
X87140258Y-126166289D01*
X87164922Y-126160924D01*
X87194142Y-126131703D01*
X87224413Y-126103547D01*
X87225139Y-126100706D01*
X87239911Y-126085934D01*
X87261611Y-126073046D01*
X87280091Y-126036084D01*
X87299903Y-125999802D01*
X87299693Y-125996878D01*
X87334838Y-125926589D01*
X87354285Y-125896329D01*
X87354285Y-125865677D01*
X87359715Y-125835503D01*
X87354285Y-125822411D01*
X87354285Y-125517501D01*
X87358146Y-125481741D01*
X87351808Y-125469066D01*
X87563141Y-125469066D01*
X87568571Y-125482158D01*
X87568571Y-126502425D01*
X87587055Y-126565377D01*
X87653628Y-126623062D01*
X87740820Y-126635599D01*
X87820947Y-126599006D01*
X87868571Y-126524901D01*
X87868571Y-125526209D01*
X88134569Y-125526209D01*
X88139999Y-125539301D01*
X88139999Y-125844209D01*
X88136138Y-125879973D01*
X88149845Y-125907387D01*
X88158483Y-125936805D01*
X88169195Y-125946087D01*
X88204566Y-126016829D01*
X88209932Y-126041493D01*
X88239152Y-126070713D01*
X88267309Y-126100984D01*
X88270149Y-126101710D01*
X88284918Y-126116479D01*
X88297808Y-126138181D01*
X88334781Y-126156667D01*
X88371054Y-126176474D01*
X88373975Y-126176265D01*
X88444267Y-126211411D01*
X88474526Y-126230857D01*
X88505177Y-126230857D01*
X88535351Y-126236287D01*
X88548443Y-126230857D01*
X88681923Y-126230857D01*
X88717687Y-126234718D01*
X88745101Y-126221010D01*
X88774519Y-126212373D01*
X88783801Y-126201660D01*
X88854543Y-126166289D01*
X88879207Y-126160924D01*
X88908427Y-126131703D01*
X88938698Y-126103547D01*
X88939424Y-126100706D01*
X88954196Y-126085934D01*
X88975896Y-126073046D01*
X88994376Y-126036084D01*
X89014188Y-125999802D01*
X89013978Y-125996878D01*
X89049123Y-125926589D01*
X89068570Y-125896329D01*
X89068570Y-125865677D01*
X89074000Y-125835503D01*
X89068570Y-125822411D01*
X89068570Y-125526209D01*
X89220283Y-125526209D01*
X89225713Y-125539301D01*
X89225713Y-125844209D01*
X89221852Y-125879973D01*
X89235559Y-125907387D01*
X89244197Y-125936805D01*
X89254909Y-125946087D01*
X89290280Y-126016829D01*
X89295646Y-126041493D01*
X89324866Y-126070713D01*
X89353023Y-126100984D01*
X89355863Y-126101710D01*
X89370632Y-126116479D01*
X89383522Y-126138181D01*
X89420495Y-126156667D01*
X89456768Y-126176474D01*
X89459689Y-126176265D01*
X89529981Y-126211411D01*
X89560240Y-126230857D01*
X89590891Y-126230857D01*
X89621065Y-126236287D01*
X89634157Y-126230857D01*
X89824780Y-126230857D01*
X89860544Y-126234718D01*
X89883485Y-126223247D01*
X89969391Y-126235599D01*
X90049518Y-126199006D01*
X90097142Y-126124901D01*
X90097142Y-126042592D01*
X90103378Y-126018205D01*
X90097142Y-125999440D01*
X90097142Y-125469066D01*
X90363140Y-125469066D01*
X90368570Y-125482158D01*
X90368570Y-126502425D01*
X90387054Y-126565377D01*
X90453627Y-126623062D01*
X90540819Y-126635599D01*
X90620946Y-126599006D01*
X90668570Y-126524901D01*
X90668570Y-126116219D01*
X90880574Y-126116219D01*
X90923867Y-126192935D01*
X91001762Y-126234067D01*
X91089529Y-126226556D01*
X91159303Y-126172786D01*
X91318569Y-125726839D01*
X91470277Y-126151619D01*
X91508857Y-126204687D01*
X91590953Y-126236620D01*
X91677282Y-126219101D01*
X91740434Y-126157690D01*
X91760359Y-126071885D01*
X91500224Y-125343509D01*
X91905192Y-125343509D01*
X91911427Y-125362271D01*
X91911427Y-126021037D01*
X91909967Y-126062444D01*
X91911427Y-126064902D01*
X91911427Y-126102425D01*
X91929911Y-126165377D01*
X91996484Y-126223062D01*
X92083676Y-126235599D01*
X92116045Y-126220816D01*
X92131669Y-126230857D01*
X92162320Y-126230857D01*
X92192495Y-126236287D01*
X92205587Y-126230857D01*
X92396208Y-126230857D01*
X92431972Y-126234718D01*
X92459386Y-126221010D01*
X92488804Y-126212373D01*
X92498086Y-126201660D01*
X92568828Y-126166289D01*
X92593492Y-126160924D01*
X92622712Y-126131703D01*
X92652983Y-126103547D01*
X92653709Y-126100706D01*
X92668481Y-126085934D01*
X92690181Y-126073046D01*
X92708661Y-126036084D01*
X92728473Y-125999802D01*
X92728263Y-125996878D01*
X92748993Y-125955418D01*
X92991206Y-125955418D01*
X92997141Y-125982700D01*
X92997141Y-126502425D01*
X93015625Y-126565377D01*
X93082198Y-126623062D01*
X93169390Y-126635599D01*
X93249517Y-126599006D01*
X93297141Y-126524901D01*
X93297141Y-126503106D01*
X94992399Y-126503106D01*
X95006239Y-126533412D01*
X95015625Y-126565377D01*
X95024250Y-126572851D01*
X95028992Y-126583233D01*
X95057019Y-126601245D01*
X95082198Y-126623062D01*
X95093495Y-126624686D01*
X95103097Y-126630857D01*
X95136410Y-126630857D01*
X95169390Y-126635599D01*
X95179773Y-126630857D01*
X95539065Y-126630857D01*
X95574829Y-126634718D01*
X95602243Y-126621010D01*
X95631661Y-126612373D01*
X95640943Y-126601660D01*
X95711687Y-126566288D01*
X95736350Y-126560923D01*
X95765565Y-126531706D01*
X95795840Y-126503547D01*
X95796566Y-126500705D01*
X95811337Y-126485934D01*
X95833036Y-126473047D01*
X95851511Y-126436095D01*
X95871330Y-126399801D01*
X95871120Y-126396877D01*
X95906266Y-126326587D01*
X95925712Y-126296329D01*
X95925712Y-126265678D01*
X95931142Y-126235503D01*
X95925712Y-126222411D01*
X95925712Y-126146076D01*
X95929573Y-126110312D01*
X95915865Y-126082896D01*
X95907228Y-126053480D01*
X95896516Y-126044198D01*
X95861144Y-125973454D01*
X95855780Y-125948793D01*
X95845306Y-125938319D01*
X95845758Y-125937227D01*
X95868477Y-125914508D01*
X95890179Y-125901619D01*
X95908665Y-125864645D01*
X95928472Y-125828373D01*
X95928263Y-125825451D01*
X95963409Y-125755159D01*
X95982855Y-125724901D01*
X95982855Y-125694250D01*
X95988285Y-125664076D01*
X95982855Y-125650984D01*
X95982855Y-125526209D01*
X96134568Y-125526209D01*
X96139998Y-125539301D01*
X96139998Y-125844209D01*
X96136137Y-125879973D01*
X96149844Y-125907387D01*
X96158482Y-125936805D01*
X96169194Y-125946087D01*
X96204565Y-126016829D01*
X96209931Y-126041493D01*
X96239151Y-126070713D01*
X96267308Y-126100984D01*
X96270148Y-126101710D01*
X96284917Y-126116479D01*
X96297807Y-126138181D01*
X96334780Y-126156667D01*
X96371053Y-126176474D01*
X96373974Y-126176265D01*
X96444266Y-126211411D01*
X96474525Y-126230857D01*
X96505176Y-126230857D01*
X96535350Y-126236287D01*
X96548442Y-126230857D01*
X96681922Y-126230857D01*
X96717686Y-126234718D01*
X96745100Y-126221010D01*
X96774518Y-126212373D01*
X96783800Y-126201660D01*
X96854542Y-126166289D01*
X96879206Y-126160924D01*
X96908426Y-126131703D01*
X96938697Y-126103547D01*
X96938810Y-126103106D01*
X97106684Y-126103106D01*
X97143277Y-126183233D01*
X97217382Y-126230857D01*
X97282855Y-126230857D01*
X97282855Y-126502425D01*
X97301339Y-126565377D01*
X97367912Y-126623062D01*
X97455104Y-126635599D01*
X97535231Y-126599006D01*
X97582855Y-126524901D01*
X97582855Y-126503106D01*
X98878113Y-126503106D01*
X98891953Y-126533412D01*
X98901339Y-126565377D01*
X98909964Y-126572851D01*
X98914706Y-126583233D01*
X98942733Y-126601245D01*
X98967912Y-126623062D01*
X98979209Y-126624686D01*
X98988811Y-126630857D01*
X99022124Y-126630857D01*
X99055104Y-126635599D01*
X99065487Y-126630857D01*
X99481923Y-126630857D01*
X99517686Y-126634718D01*
X99545100Y-126621010D01*
X99574518Y-126612373D01*
X99583800Y-126601660D01*
X99654543Y-126566288D01*
X99679205Y-126560924D01*
X99708422Y-126531706D01*
X99738696Y-126503546D01*
X99739421Y-126500707D01*
X99754193Y-126485935D01*
X99775893Y-126473047D01*
X99794373Y-126436085D01*
X99814186Y-126399802D01*
X99813976Y-126396879D01*
X99849123Y-126326587D01*
X99868569Y-126296329D01*
X99868569Y-126265678D01*
X99873999Y-126235503D01*
X99868569Y-126222411D01*
X99868569Y-126088933D01*
X99872430Y-126053169D01*
X99858722Y-126025753D01*
X99850085Y-125996337D01*
X99839373Y-125987055D01*
X99825957Y-125960223D01*
X100019508Y-125960223D01*
X100025712Y-125985039D01*
X100025712Y-125988139D01*
X100030929Y-126005909D01*
X100080853Y-126205602D01*
X100078994Y-126222830D01*
X100091327Y-126247496D01*
X100092565Y-126252447D01*
X100100941Y-126266724D01*
X100147422Y-126359686D01*
X100152788Y-126384350D01*
X100182011Y-126413573D01*
X100210165Y-126443841D01*
X100213004Y-126444567D01*
X100292505Y-126524068D01*
X100315065Y-126552089D01*
X100344147Y-126561782D01*
X100371051Y-126576474D01*
X100385187Y-126575462D01*
X100510436Y-126617212D01*
X100531668Y-126630857D01*
X100572981Y-126630857D01*
X100614306Y-126632352D01*
X100616828Y-126630857D01*
X100671192Y-126630857D01*
X100695649Y-126637087D01*
X100734841Y-126624022D01*
X100774518Y-126612373D01*
X100776437Y-126610157D01*
X100901198Y-126568570D01*
X100936348Y-126560924D01*
X100958022Y-126539249D01*
X100983198Y-126521753D01*
X100988615Y-126508656D01*
X100994165Y-126503106D01*
X101278113Y-126503106D01*
X101291953Y-126533412D01*
X101301339Y-126565377D01*
X101309964Y-126572851D01*
X101314706Y-126583233D01*
X101342733Y-126601245D01*
X101367912Y-126623062D01*
X101379209Y-126624686D01*
X101388811Y-126630857D01*
X101422124Y-126630857D01*
X101455104Y-126635599D01*
X101465487Y-126630857D01*
X101824779Y-126630857D01*
X101860543Y-126634718D01*
X101887957Y-126621010D01*
X101917375Y-126612373D01*
X101926657Y-126601660D01*
X101997401Y-126566288D01*
X102022064Y-126560923D01*
X102051279Y-126531706D01*
X102081554Y-126503547D01*
X102082280Y-126500705D01*
X102097051Y-126485934D01*
X102118750Y-126473047D01*
X102137225Y-126436095D01*
X102157044Y-126399801D01*
X102156834Y-126396877D01*
X102191980Y-126326587D01*
X102211426Y-126296329D01*
X102211426Y-126265678D01*
X102216856Y-126235503D01*
X102211426Y-126222411D01*
X102211426Y-126146076D01*
X102215287Y-126110312D01*
X102201579Y-126082896D01*
X102192942Y-126053480D01*
X102182230Y-126044198D01*
X102146858Y-125973454D01*
X102141494Y-125948793D01*
X102131020Y-125938319D01*
X102131472Y-125937227D01*
X102154191Y-125914508D01*
X102175893Y-125901619D01*
X102194379Y-125864645D01*
X102214186Y-125828373D01*
X102213977Y-125825451D01*
X102249123Y-125755159D01*
X102268569Y-125724901D01*
X102268569Y-125694250D01*
X102273999Y-125664076D01*
X102268569Y-125650984D01*
X102268569Y-125517504D01*
X102272430Y-125481740D01*
X102258722Y-125454324D01*
X102250085Y-125424908D01*
X102239373Y-125415626D01*
X102203999Y-125344878D01*
X102198635Y-125320219D01*
X102169427Y-125291012D01*
X102141259Y-125260729D01*
X102138417Y-125260002D01*
X102123648Y-125245232D01*
X102110760Y-125223533D01*
X102073798Y-125205052D01*
X102037513Y-125185239D01*
X102034590Y-125185448D01*
X101964303Y-125150304D01*
X101934042Y-125130857D01*
X101903389Y-125130857D01*
X101873217Y-125125427D01*
X101860125Y-125130857D01*
X101443586Y-125130857D01*
X101410606Y-125126115D01*
X101380299Y-125139955D01*
X101348335Y-125149341D01*
X101340860Y-125157966D01*
X101330479Y-125162708D01*
X101312466Y-125190735D01*
X101290650Y-125215914D01*
X101289025Y-125227211D01*
X101282855Y-125236813D01*
X101282855Y-125270126D01*
X101278113Y-125303106D01*
X101282855Y-125313489D01*
X101282855Y-125898697D01*
X101278113Y-125931677D01*
X101282855Y-125942060D01*
X101282855Y-126470126D01*
X101278113Y-126503106D01*
X100994165Y-126503106D01*
X101039886Y-126457386D01*
X101071329Y-126399802D01*
X101065044Y-126311939D01*
X101012255Y-126241420D01*
X100929722Y-126210637D01*
X100843647Y-126229361D01*
X100780398Y-126292609D01*
X100665656Y-126330857D01*
X100600055Y-126330857D01*
X100485310Y-126292609D01*
X100413276Y-126220574D01*
X100374382Y-126142786D01*
X100325712Y-125948106D01*
X100325712Y-125813607D01*
X100374381Y-125618927D01*
X100413276Y-125541138D01*
X100485310Y-125469104D01*
X100600053Y-125430857D01*
X100665657Y-125430857D01*
X100780399Y-125469104D01*
X100827755Y-125516460D01*
X100885339Y-125547903D01*
X100973203Y-125541617D01*
X101043722Y-125488828D01*
X101074504Y-125406294D01*
X101055778Y-125320219D01*
X100973199Y-125237641D01*
X100950644Y-125209626D01*
X100921567Y-125199933D01*
X100894656Y-125185239D01*
X100880518Y-125186250D01*
X100755273Y-125144501D01*
X100734042Y-125130857D01*
X100692729Y-125130857D01*
X100651405Y-125129362D01*
X100648883Y-125130857D01*
X100594517Y-125130857D01*
X100570062Y-125124627D01*
X100530875Y-125137689D01*
X100491192Y-125149341D01*
X100489271Y-125151556D01*
X100364510Y-125193143D01*
X100329361Y-125200790D01*
X100307685Y-125222465D01*
X100282511Y-125239961D01*
X100277093Y-125253057D01*
X100197232Y-125332918D01*
X100175531Y-125345808D01*
X100157049Y-125382770D01*
X100137237Y-125419054D01*
X100137446Y-125421977D01*
X100110639Y-125475591D01*
X100098016Y-125487461D01*
X100091327Y-125514214D01*
X100089045Y-125518780D01*
X100086112Y-125535073D01*
X100036178Y-125734811D01*
X100025712Y-125751098D01*
X100025712Y-125776678D01*
X100024960Y-125779686D01*
X100025712Y-125798191D01*
X100025712Y-125941884D01*
X100019508Y-125960223D01*
X99825957Y-125960223D01*
X99804000Y-125916308D01*
X99798636Y-125891649D01*
X99769424Y-125862437D01*
X99741259Y-125832158D01*
X99738418Y-125831431D01*
X99723648Y-125816661D01*
X99710760Y-125794961D01*
X99673797Y-125776479D01*
X99637514Y-125756667D01*
X99634590Y-125756876D01*
X99564303Y-125721732D01*
X99534042Y-125702285D01*
X99503389Y-125702285D01*
X99473217Y-125696855D01*
X99460125Y-125702285D01*
X99182855Y-125702285D01*
X99182855Y-125259289D01*
X99164371Y-125196337D01*
X99097798Y-125138652D01*
X99010606Y-125126115D01*
X98930479Y-125162708D01*
X98882855Y-125236813D01*
X98882855Y-125841554D01*
X98878113Y-125874534D01*
X98882855Y-125884917D01*
X98882855Y-126470126D01*
X98878113Y-126503106D01*
X97582855Y-126503106D01*
X97582855Y-126230857D01*
X97740137Y-126230857D01*
X97803089Y-126212373D01*
X97860774Y-126145800D01*
X97873311Y-126058608D01*
X97836718Y-125978481D01*
X97762613Y-125930857D01*
X97582855Y-125930857D01*
X97582855Y-125487696D01*
X97601801Y-125449802D01*
X97639693Y-125430857D01*
X97740137Y-125430857D01*
X97803089Y-125412373D01*
X97860774Y-125345800D01*
X97873311Y-125258608D01*
X97836718Y-125178481D01*
X97762613Y-125130857D01*
X97612358Y-125130857D01*
X97576595Y-125126996D01*
X97549180Y-125140703D01*
X97519763Y-125149341D01*
X97510480Y-125160053D01*
X97457097Y-125186745D01*
X97451269Y-125186540D01*
X97418053Y-125206267D01*
X97403625Y-125213482D01*
X97399594Y-125217230D01*
X97375531Y-125231523D01*
X97367968Y-125246648D01*
X97355585Y-125258167D01*
X97348652Y-125285280D01*
X97302302Y-125377979D01*
X97282855Y-125408241D01*
X97282855Y-125438894D01*
X97277425Y-125469066D01*
X97282855Y-125482158D01*
X97282855Y-125930857D01*
X97239858Y-125930857D01*
X97176906Y-125949341D01*
X97119221Y-126015914D01*
X97106684Y-126103106D01*
X96938810Y-126103106D01*
X96939423Y-126100706D01*
X96954195Y-126085934D01*
X96975895Y-126073046D01*
X96994375Y-126036084D01*
X97014187Y-125999802D01*
X97013977Y-125996878D01*
X97049122Y-125926589D01*
X97068569Y-125896329D01*
X97068569Y-125865677D01*
X97073999Y-125835503D01*
X97068569Y-125822411D01*
X97068569Y-125517501D01*
X97072430Y-125481741D01*
X97058722Y-125454325D01*
X97050085Y-125424908D01*
X97039373Y-125415626D01*
X97004001Y-125344881D01*
X96998636Y-125320219D01*
X96969420Y-125291004D01*
X96941261Y-125260730D01*
X96938419Y-125260003D01*
X96923649Y-125245233D01*
X96910761Y-125223533D01*
X96873799Y-125205052D01*
X96837514Y-125185239D01*
X96834591Y-125185448D01*
X96764300Y-125150302D01*
X96734042Y-125130857D01*
X96703391Y-125130857D01*
X96673217Y-125125427D01*
X96660125Y-125130857D01*
X96526644Y-125130857D01*
X96490881Y-125126996D01*
X96463466Y-125140703D01*
X96434049Y-125149341D01*
X96424766Y-125160053D01*
X96354026Y-125195423D01*
X96329363Y-125200789D01*
X96300137Y-125230014D01*
X96269871Y-125258167D01*
X96269144Y-125261006D01*
X96254375Y-125275775D01*
X96232674Y-125288665D01*
X96214189Y-125325633D01*
X96194381Y-125361909D01*
X96194590Y-125364832D01*
X96159443Y-125435125D01*
X96139998Y-125465384D01*
X96139998Y-125496035D01*
X96134568Y-125526209D01*
X95982855Y-125526209D01*
X95982855Y-125517504D01*
X95986716Y-125481740D01*
X95973008Y-125454324D01*
X95964371Y-125424908D01*
X95953659Y-125415626D01*
X95918285Y-125344878D01*
X95912921Y-125320219D01*
X95883713Y-125291012D01*
X95855545Y-125260729D01*
X95852703Y-125260002D01*
X95837934Y-125245232D01*
X95825046Y-125223533D01*
X95788084Y-125205052D01*
X95751799Y-125185239D01*
X95748876Y-125185448D01*
X95678589Y-125150304D01*
X95648328Y-125130857D01*
X95617675Y-125130857D01*
X95587503Y-125125427D01*
X95574411Y-125130857D01*
X95157872Y-125130857D01*
X95124892Y-125126115D01*
X95094585Y-125139955D01*
X95062621Y-125149341D01*
X95055146Y-125157966D01*
X95044765Y-125162708D01*
X95026752Y-125190735D01*
X95004936Y-125215914D01*
X95003311Y-125227211D01*
X94997141Y-125236813D01*
X94997141Y-125270126D01*
X94992399Y-125303106D01*
X94997141Y-125313489D01*
X94997141Y-125898697D01*
X94992399Y-125931677D01*
X94997141Y-125942060D01*
X94997141Y-126470126D01*
X94992399Y-126503106D01*
X93297141Y-126503106D01*
X93297141Y-126230857D01*
X93305176Y-126230857D01*
X93335350Y-126236287D01*
X93348442Y-126230857D01*
X93481922Y-126230857D01*
X93517686Y-126234718D01*
X93545100Y-126221010D01*
X93574518Y-126212373D01*
X93583800Y-126201660D01*
X93637184Y-126174968D01*
X93643014Y-126175174D01*
X93676227Y-126155446D01*
X93690657Y-126148232D01*
X93694688Y-126144481D01*
X93718751Y-126130190D01*
X93726312Y-126115066D01*
X93738697Y-126103547D01*
X93745631Y-126076430D01*
X93791981Y-125983730D01*
X93811427Y-125953472D01*
X93811427Y-125922821D01*
X93816857Y-125892646D01*
X93811427Y-125879554D01*
X93811427Y-125259289D01*
X93792943Y-125196337D01*
X93726370Y-125138652D01*
X93639178Y-125126115D01*
X93559051Y-125162708D01*
X93511427Y-125236813D01*
X93511427Y-125874017D01*
X93492480Y-125911910D01*
X93454587Y-125930857D01*
X93353980Y-125930857D01*
X93297141Y-125902438D01*
X93297141Y-125259289D01*
X93278657Y-125196337D01*
X93212084Y-125138652D01*
X93124892Y-125126115D01*
X93044765Y-125162708D01*
X92997141Y-125236813D01*
X92997141Y-125939505D01*
X92991206Y-125955418D01*
X92748993Y-125955418D01*
X92763408Y-125926589D01*
X92782855Y-125896329D01*
X92782855Y-125865677D01*
X92788285Y-125835503D01*
X92782855Y-125822411D01*
X92782855Y-125517501D01*
X92786716Y-125481741D01*
X92773008Y-125454325D01*
X92764371Y-125424908D01*
X92753659Y-125415626D01*
X92718287Y-125344881D01*
X92712922Y-125320219D01*
X92683706Y-125291004D01*
X92655547Y-125260730D01*
X92652705Y-125260003D01*
X92637935Y-125245233D01*
X92625047Y-125223533D01*
X92588085Y-125205052D01*
X92551800Y-125185239D01*
X92548877Y-125185448D01*
X92478586Y-125150302D01*
X92448328Y-125130857D01*
X92417677Y-125130857D01*
X92387503Y-125125427D01*
X92374411Y-125130857D01*
X92211427Y-125130857D01*
X92211427Y-124859289D01*
X92192943Y-124796337D01*
X92126370Y-124738652D01*
X92039178Y-124726115D01*
X91959051Y-124762708D01*
X91911427Y-124836813D01*
X91911427Y-125319125D01*
X91905192Y-125343509D01*
X91500224Y-125343509D01*
X91473622Y-125269024D01*
X91474198Y-125266043D01*
X91470237Y-125256142D01*
X91470850Y-125245494D01*
X91455511Y-125218314D01*
X91452576Y-125210095D01*
X91450893Y-125207780D01*
X91348197Y-124951037D01*
X91341493Y-124920219D01*
X91316689Y-124895415D01*
X91295004Y-124867824D01*
X91285966Y-124864693D01*
X91266506Y-124845233D01*
X91253618Y-124823533D01*
X91216656Y-124805052D01*
X91180371Y-124785239D01*
X91177448Y-124785448D01*
X91080646Y-124737047D01*
X91016074Y-124725427D01*
X90934706Y-124759174D01*
X90884499Y-124831554D01*
X90881395Y-124919587D01*
X90926379Y-124995324D01*
X91058288Y-125061279D01*
X91076447Y-125079437D01*
X91158216Y-125283861D01*
X90884340Y-126050718D01*
X90880574Y-126116219D01*
X90668570Y-126116219D01*
X90668570Y-125487696D01*
X90687516Y-125449802D01*
X90776372Y-125405375D01*
X90824411Y-125360689D01*
X90846234Y-125275347D01*
X90818453Y-125191754D01*
X90749889Y-125136451D01*
X90662310Y-125126996D01*
X90542812Y-125186745D01*
X90536984Y-125186540D01*
X90503768Y-125206267D01*
X90489340Y-125213482D01*
X90485309Y-125217230D01*
X90461246Y-125231523D01*
X90453683Y-125246648D01*
X90441300Y-125258167D01*
X90434367Y-125285280D01*
X90388017Y-125377979D01*
X90368570Y-125408241D01*
X90368570Y-125438894D01*
X90363140Y-125469066D01*
X90097142Y-125469066D01*
X90097142Y-125340677D01*
X90098602Y-125299270D01*
X90097142Y-125296812D01*
X90097142Y-125117504D01*
X90101003Y-125081740D01*
X90087295Y-125054324D01*
X90078658Y-125024908D01*
X90067946Y-125015626D01*
X90032572Y-124944878D01*
X90027208Y-124920219D01*
X89998000Y-124891012D01*
X89969832Y-124860729D01*
X89966990Y-124860002D01*
X89952221Y-124845233D01*
X89939333Y-124823533D01*
X89902371Y-124805052D01*
X89866086Y-124785239D01*
X89863163Y-124785448D01*
X89792872Y-124750302D01*
X89762614Y-124730857D01*
X89731963Y-124730857D01*
X89701789Y-124725427D01*
X89688697Y-124730857D01*
X89555218Y-124730857D01*
X89519454Y-124726996D01*
X89492038Y-124740703D01*
X89462622Y-124749341D01*
X89453340Y-124760052D01*
X89346483Y-124813481D01*
X89298443Y-124858167D01*
X89276621Y-124943509D01*
X89304401Y-125027103D01*
X89372964Y-125082406D01*
X89460544Y-125091861D01*
X89582551Y-125030857D01*
X89683160Y-125030857D01*
X89744003Y-125061279D01*
X89766721Y-125083996D01*
X89790152Y-125130857D01*
X89612359Y-125130857D01*
X89576596Y-125126996D01*
X89549181Y-125140703D01*
X89519764Y-125149341D01*
X89510481Y-125160053D01*
X89439741Y-125195423D01*
X89415078Y-125200789D01*
X89385852Y-125230014D01*
X89355586Y-125258167D01*
X89354859Y-125261006D01*
X89340090Y-125275775D01*
X89318389Y-125288665D01*
X89299904Y-125325633D01*
X89280096Y-125361909D01*
X89280305Y-125364832D01*
X89245158Y-125435125D01*
X89225713Y-125465384D01*
X89225713Y-125496035D01*
X89220283Y-125526209D01*
X89068570Y-125526209D01*
X89068570Y-125517501D01*
X89072431Y-125481741D01*
X89058723Y-125454325D01*
X89050086Y-125424908D01*
X89039374Y-125415626D01*
X89004002Y-125344881D01*
X88998637Y-125320219D01*
X88969421Y-125291004D01*
X88941262Y-125260730D01*
X88938420Y-125260003D01*
X88923650Y-125245233D01*
X88910762Y-125223533D01*
X88873800Y-125205052D01*
X88837515Y-125185239D01*
X88834592Y-125185448D01*
X88764301Y-125150302D01*
X88734043Y-125130857D01*
X88703392Y-125130857D01*
X88673218Y-125125427D01*
X88660126Y-125130857D01*
X88526645Y-125130857D01*
X88490882Y-125126996D01*
X88463467Y-125140703D01*
X88434050Y-125149341D01*
X88424767Y-125160053D01*
X88354027Y-125195423D01*
X88329364Y-125200789D01*
X88300138Y-125230014D01*
X88269872Y-125258167D01*
X88269145Y-125261006D01*
X88254376Y-125275775D01*
X88232675Y-125288665D01*
X88214190Y-125325633D01*
X88194382Y-125361909D01*
X88194591Y-125364832D01*
X88159444Y-125435125D01*
X88139999Y-125465384D01*
X88139999Y-125496035D01*
X88134569Y-125526209D01*
X87868571Y-125526209D01*
X87868571Y-125487696D01*
X87887517Y-125449802D01*
X87976373Y-125405375D01*
X88024412Y-125360689D01*
X88046235Y-125275347D01*
X88018454Y-125191754D01*
X87949890Y-125136451D01*
X87862311Y-125126996D01*
X87742813Y-125186745D01*
X87736985Y-125186540D01*
X87703769Y-125206267D01*
X87689341Y-125213482D01*
X87685310Y-125217230D01*
X87661247Y-125231523D01*
X87653684Y-125246648D01*
X87641301Y-125258167D01*
X87634368Y-125285280D01*
X87588018Y-125377979D01*
X87568571Y-125408241D01*
X87568571Y-125438894D01*
X87563141Y-125469066D01*
X87351808Y-125469066D01*
X87344438Y-125454325D01*
X87335801Y-125424908D01*
X87325089Y-125415626D01*
X87289717Y-125344881D01*
X87284352Y-125320219D01*
X87255136Y-125291004D01*
X87226977Y-125260730D01*
X87224135Y-125260003D01*
X87209365Y-125245233D01*
X87196477Y-125223533D01*
X87159515Y-125205052D01*
X87123230Y-125185239D01*
X87120307Y-125185448D01*
X87050016Y-125150302D01*
X87019758Y-125130857D01*
X86989107Y-125130857D01*
X86958933Y-125125427D01*
X86945841Y-125130857D01*
X86812360Y-125130857D01*
X86776597Y-125126996D01*
X86749182Y-125140703D01*
X86719765Y-125149341D01*
X86710482Y-125160053D01*
X86639742Y-125195423D01*
X86615079Y-125200789D01*
X86585853Y-125230014D01*
X86555587Y-125258167D01*
X86554860Y-125261006D01*
X86540091Y-125275775D01*
X86518390Y-125288665D01*
X86499905Y-125325633D01*
X86480097Y-125361909D01*
X86480306Y-125364832D01*
X86445159Y-125435125D01*
X86425714Y-125465384D01*
X86425714Y-125496035D01*
X86420284Y-125526209D01*
X86211428Y-125526209D01*
X86211428Y-125259289D01*
X86192944Y-125196337D01*
X86126371Y-125138652D01*
X86039179Y-125126115D01*
X85959052Y-125162708D01*
X85911428Y-125236813D01*
X85911428Y-125759428D01*
X85525714Y-125759428D01*
X85525714Y-125259289D01*
X85507230Y-125196337D01*
X85440657Y-125138652D01*
X85353465Y-125126115D01*
X85273338Y-125162708D01*
X85225714Y-125236813D01*
X85225714Y-125898697D01*
X85220972Y-125931677D01*
X84468571Y-125931677D01*
X84468571Y-124575451D01*
X85052790Y-124575451D01*
X85097705Y-124651228D01*
X85176459Y-124690694D01*
X85264045Y-124681317D01*
X85332660Y-124626075D01*
X85604285Y-123811198D01*
X85868803Y-124604752D01*
X85906246Y-124658629D01*
X85987644Y-124692301D01*
X86074326Y-124676622D01*
X86138769Y-124616569D01*
X86160515Y-124531207D01*
X85769815Y-123359106D01*
X86192400Y-123359106D01*
X86228993Y-123439233D01*
X86303098Y-123486857D01*
X86539999Y-123486857D01*
X86539999Y-124122722D01*
X86530939Y-124118192D01*
X86494660Y-124098382D01*
X86491735Y-124098591D01*
X86394932Y-124050190D01*
X86330360Y-124038570D01*
X86248993Y-124072318D01*
X86198786Y-124144698D01*
X86195683Y-124232731D01*
X86240667Y-124308468D01*
X86372574Y-124374420D01*
X86459143Y-124460990D01*
X86552513Y-124601045D01*
X86558483Y-124621377D01*
X86576441Y-124636938D01*
X86577155Y-124638008D01*
X86592746Y-124651066D01*
X86625056Y-124679062D01*
X86626405Y-124679256D01*
X86627454Y-124680134D01*
X86669920Y-124685512D01*
X86712248Y-124691599D01*
X86713490Y-124691031D01*
X86714844Y-124691203D01*
X86753450Y-124672782D01*
X86792375Y-124655006D01*
X86793112Y-124653857D01*
X86794347Y-124653269D01*
X86816891Y-124616856D01*
X86839999Y-124580901D01*
X86839999Y-124579536D01*
X86840718Y-124578375D01*
X86839999Y-124535587D01*
X86839999Y-123486857D01*
X87054424Y-123486857D01*
X87117376Y-123468373D01*
X87175061Y-123401800D01*
X87187598Y-123314608D01*
X87151005Y-123234481D01*
X87076900Y-123186857D01*
X86700730Y-123186857D01*
X86667750Y-123182115D01*
X86657367Y-123186857D01*
X86325574Y-123186857D01*
X86262622Y-123205341D01*
X86204937Y-123271914D01*
X86192400Y-123359106D01*
X85769815Y-123359106D01*
X85755168Y-123315166D01*
X85755780Y-123298263D01*
X85741507Y-123274184D01*
X85739767Y-123268962D01*
X85730556Y-123255709D01*
X85710864Y-123222486D01*
X85705652Y-123219874D01*
X85702324Y-123215085D01*
X85666637Y-123200322D01*
X85632111Y-123183020D01*
X85626311Y-123183640D01*
X85620926Y-123181413D01*
X85582934Y-123188284D01*
X85544525Y-123192397D01*
X85539982Y-123196053D01*
X85534244Y-123197092D01*
X85505987Y-123223423D01*
X85475910Y-123247639D01*
X85474066Y-123253170D01*
X85469801Y-123257145D01*
X85460268Y-123294562D01*
X85055162Y-124509884D01*
X85052790Y-124575451D01*
X84468571Y-124575451D01*
X84468571Y-122568571D01*
X103478570Y-122568571D01*
X103478570Y-127705429D01*
G37*
D10*
X110946800Y-99985870D02*
X111042038Y-99938251D01*
X111042038Y-99938251D02*
X111184895Y-99938251D01*
X111184895Y-99938251D02*
X111327752Y-99985870D01*
X111327752Y-99985870D02*
X111422990Y-100081108D01*
X111422990Y-100081108D02*
X111470609Y-100176346D01*
X111470609Y-100176346D02*
X111518228Y-100366822D01*
X111518228Y-100366822D02*
X111518228Y-100509679D01*
X111518228Y-100509679D02*
X111470609Y-100700155D01*
X111470609Y-100700155D02*
X111422990Y-100795393D01*
X111422990Y-100795393D02*
X111327752Y-100890632D01*
X111327752Y-100890632D02*
X111184895Y-100938251D01*
X111184895Y-100938251D02*
X111089657Y-100938251D01*
X111089657Y-100938251D02*
X110946800Y-100890632D01*
X110946800Y-100890632D02*
X110899181Y-100843012D01*
X110899181Y-100843012D02*
X110899181Y-100509679D01*
X110899181Y-100509679D02*
X111089657Y-100509679D01*
X110470609Y-100271584D02*
X110470609Y-100938251D01*
X110470609Y-100366822D02*
X110422990Y-100319203D01*
X110422990Y-100319203D02*
X110327752Y-100271584D01*
X110327752Y-100271584D02*
X110184895Y-100271584D01*
X110184895Y-100271584D02*
X110089657Y-100319203D01*
X110089657Y-100319203D02*
X110042038Y-100414441D01*
X110042038Y-100414441D02*
X110042038Y-100938251D01*
X109137276Y-100938251D02*
X109137276Y-99938251D01*
X109137276Y-100890632D02*
X109232514Y-100938251D01*
X109232514Y-100938251D02*
X109422990Y-100938251D01*
X109422990Y-100938251D02*
X109518228Y-100890632D01*
X109518228Y-100890632D02*
X109565847Y-100843012D01*
X109565847Y-100843012D02*
X109613466Y-100747774D01*
X109613466Y-100747774D02*
X109613466Y-100462060D01*
X109613466Y-100462060D02*
X109565847Y-100366822D01*
X109565847Y-100366822D02*
X109518228Y-100319203D01*
X109518228Y-100319203D02*
X109422990Y-100271584D01*
X109422990Y-100271584D02*
X109232514Y-100271584D01*
X109232514Y-100271584D02*
X109137276Y-100319203D01*
X153034307Y-96553033D02*
X152034307Y-96314938D01*
X152034307Y-96314938D02*
X152748593Y-96124462D01*
X152748593Y-96124462D02*
X152034307Y-95933986D01*
X152034307Y-95933986D02*
X153034307Y-95695891D01*
X152034307Y-95314938D02*
X153034307Y-95314938D01*
X152034307Y-94886367D02*
X152558117Y-94886367D01*
X152558117Y-94886367D02*
X152653355Y-94933986D01*
X152653355Y-94933986D02*
X152700974Y-95029224D01*
X152700974Y-95029224D02*
X152700974Y-95172081D01*
X152700974Y-95172081D02*
X152653355Y-95267319D01*
X152653355Y-95267319D02*
X152605736Y-95314938D01*
X152081927Y-94029224D02*
X152034307Y-94124462D01*
X152034307Y-94124462D02*
X152034307Y-94314938D01*
X152034307Y-94314938D02*
X152081927Y-94410176D01*
X152081927Y-94410176D02*
X152177165Y-94457795D01*
X152177165Y-94457795D02*
X152558117Y-94457795D01*
X152558117Y-94457795D02*
X152653355Y-94410176D01*
X152653355Y-94410176D02*
X152700974Y-94314938D01*
X152700974Y-94314938D02*
X152700974Y-94124462D01*
X152700974Y-94124462D02*
X152653355Y-94029224D01*
X152653355Y-94029224D02*
X152558117Y-93981605D01*
X152558117Y-93981605D02*
X152462879Y-93981605D01*
X152462879Y-93981605D02*
X152367641Y-94457795D01*
X152081927Y-93172081D02*
X152034307Y-93267319D01*
X152034307Y-93267319D02*
X152034307Y-93457795D01*
X152034307Y-93457795D02*
X152081927Y-93553033D01*
X152081927Y-93553033D02*
X152177165Y-93600652D01*
X152177165Y-93600652D02*
X152558117Y-93600652D01*
X152558117Y-93600652D02*
X152653355Y-93553033D01*
X152653355Y-93553033D02*
X152700974Y-93457795D01*
X152700974Y-93457795D02*
X152700974Y-93267319D01*
X152700974Y-93267319D02*
X152653355Y-93172081D01*
X152653355Y-93172081D02*
X152558117Y-93124462D01*
X152558117Y-93124462D02*
X152462879Y-93124462D01*
X152462879Y-93124462D02*
X152367641Y-93600652D01*
X152034307Y-92553033D02*
X152081927Y-92648271D01*
X152081927Y-92648271D02*
X152177165Y-92695890D01*
X152177165Y-92695890D02*
X153034307Y-92695890D01*
X152034307Y-90838747D02*
X152510498Y-91172080D01*
X152034307Y-91410175D02*
X153034307Y-91410175D01*
X153034307Y-91410175D02*
X153034307Y-91029223D01*
X153034307Y-91029223D02*
X152986688Y-90933985D01*
X152986688Y-90933985D02*
X152939069Y-90886366D01*
X152939069Y-90886366D02*
X152843831Y-90838747D01*
X152843831Y-90838747D02*
X152700974Y-90838747D01*
X152700974Y-90838747D02*
X152605736Y-90886366D01*
X152605736Y-90886366D02*
X152558117Y-90933985D01*
X152558117Y-90933985D02*
X152510498Y-91029223D01*
X152510498Y-91029223D02*
X152510498Y-91410175D01*
X152081927Y-90029223D02*
X152034307Y-90124461D01*
X152034307Y-90124461D02*
X152034307Y-90314937D01*
X152034307Y-90314937D02*
X152081927Y-90410175D01*
X152081927Y-90410175D02*
X152177165Y-90457794D01*
X152177165Y-90457794D02*
X152558117Y-90457794D01*
X152558117Y-90457794D02*
X152653355Y-90410175D01*
X152653355Y-90410175D02*
X152700974Y-90314937D01*
X152700974Y-90314937D02*
X152700974Y-90124461D01*
X152700974Y-90124461D02*
X152653355Y-90029223D01*
X152653355Y-90029223D02*
X152558117Y-89981604D01*
X152558117Y-89981604D02*
X152462879Y-89981604D01*
X152462879Y-89981604D02*
X152367641Y-90457794D01*
X152034307Y-89124461D02*
X152558117Y-89124461D01*
X152558117Y-89124461D02*
X152653355Y-89172080D01*
X152653355Y-89172080D02*
X152700974Y-89267318D01*
X152700974Y-89267318D02*
X152700974Y-89457794D01*
X152700974Y-89457794D02*
X152653355Y-89553032D01*
X152081927Y-89124461D02*
X152034307Y-89219699D01*
X152034307Y-89219699D02*
X152034307Y-89457794D01*
X152034307Y-89457794D02*
X152081927Y-89553032D01*
X152081927Y-89553032D02*
X152177165Y-89600651D01*
X152177165Y-89600651D02*
X152272403Y-89600651D01*
X152272403Y-89600651D02*
X152367641Y-89553032D01*
X152367641Y-89553032D02*
X152415260Y-89457794D01*
X152415260Y-89457794D02*
X152415260Y-89219699D01*
X152415260Y-89219699D02*
X152462879Y-89124461D01*
X152034307Y-88648270D02*
X152700974Y-88648270D01*
X152510498Y-88648270D02*
X152605736Y-88600651D01*
X152605736Y-88600651D02*
X152653355Y-88553032D01*
X152653355Y-88553032D02*
X152700974Y-88457794D01*
X152700974Y-88457794D02*
X152700974Y-88362556D01*
D11*
G36*
X94265515Y-70678822D02*
G01*
X94302518Y-70715825D01*
X94347226Y-70805241D01*
X94347226Y-70877277D01*
X94302520Y-70966687D01*
X94265514Y-71003693D01*
X94176100Y-71048401D01*
X93861511Y-71048401D01*
X93861511Y-70634115D01*
X94176101Y-70634115D01*
X94265515Y-70678822D01*
G37*
G36*
X94336944Y-69893108D02*
G01*
X94373947Y-69930111D01*
X94418654Y-70019525D01*
X94418654Y-70162991D01*
X94373947Y-70252405D01*
X94344769Y-70281582D01*
X94200399Y-70329705D01*
X94194730Y-70328685D01*
X94181638Y-70334115D01*
X93861511Y-70334115D01*
X93861511Y-69848401D01*
X94247529Y-69848401D01*
X94336944Y-69893108D01*
G37*
G36*
X87836943Y-70678822D02*
G01*
X87873946Y-70715825D01*
X87918654Y-70805241D01*
X87918654Y-70877277D01*
X87873948Y-70966687D01*
X87836942Y-71003693D01*
X87747528Y-71048401D01*
X87432939Y-71048401D01*
X87432939Y-70634115D01*
X87747529Y-70634115D01*
X87836943Y-70678822D01*
G37*
G36*
X87908372Y-69893108D02*
G01*
X87945375Y-69930111D01*
X87990082Y-70019525D01*
X87990082Y-70162991D01*
X87945375Y-70252405D01*
X87916197Y-70281582D01*
X87771827Y-70329705D01*
X87766158Y-70328685D01*
X87753066Y-70334115D01*
X87432939Y-70334115D01*
X87432939Y-69848401D01*
X87818957Y-69848401D01*
X87908372Y-69893108D01*
G37*
G36*
X99754370Y-72429116D02*
G01*
X86261511Y-72429116D01*
X86261511Y-71220650D01*
X87128197Y-71220650D01*
X87142037Y-71250956D01*
X87151423Y-71282921D01*
X87160048Y-71290395D01*
X87164790Y-71300777D01*
X87192817Y-71318789D01*
X87217996Y-71340606D01*
X87229293Y-71342230D01*
X87238895Y-71348401D01*
X87272208Y-71348401D01*
X87305188Y-71353143D01*
X87315571Y-71348401D01*
X87774863Y-71348401D01*
X87810627Y-71352262D01*
X87838042Y-71338554D01*
X87867459Y-71329917D01*
X87876740Y-71319205D01*
X87976058Y-71269546D01*
X88000719Y-71264182D01*
X88029930Y-71234970D01*
X88045325Y-71220650D01*
X93556769Y-71220650D01*
X93570609Y-71250956D01*
X93579995Y-71282921D01*
X93588620Y-71290395D01*
X93593362Y-71300777D01*
X93621389Y-71318789D01*
X93646568Y-71340606D01*
X93657865Y-71342230D01*
X93667467Y-71348401D01*
X93700780Y-71348401D01*
X93733760Y-71353143D01*
X93744143Y-71348401D01*
X94203435Y-71348401D01*
X94239199Y-71352262D01*
X94266614Y-71338554D01*
X94296031Y-71329917D01*
X94305312Y-71319205D01*
X94404630Y-71269546D01*
X94429291Y-71264182D01*
X94458502Y-71234970D01*
X94488782Y-71206805D01*
X94489508Y-71203964D01*
X94518562Y-71174910D01*
X94540264Y-71162021D01*
X94558747Y-71125054D01*
X94578557Y-71088776D01*
X94578347Y-71085853D01*
X94627778Y-70986992D01*
X94647226Y-70956731D01*
X94647226Y-70926078D01*
X94652656Y-70895906D01*
X94647226Y-70882814D01*
X94647226Y-70777906D01*
X94651087Y-70742142D01*
X94637379Y-70714726D01*
X94628742Y-70685310D01*
X94618030Y-70676028D01*
X94568371Y-70576710D01*
X94563007Y-70552049D01*
X94533785Y-70522827D01*
X94532360Y-70521295D01*
X94547568Y-70510727D01*
X94552986Y-70497629D01*
X94589993Y-70460622D01*
X94611693Y-70447734D01*
X94630167Y-70410784D01*
X94649987Y-70374489D01*
X94649777Y-70371564D01*
X94699206Y-70272706D01*
X94718654Y-70242445D01*
X94718654Y-70211793D01*
X94724084Y-70181619D01*
X94718654Y-70168527D01*
X94718654Y-69992191D01*
X94722515Y-69956428D01*
X94709035Y-69929468D01*
X95056081Y-69929468D01*
X95061511Y-69942560D01*
X95061511Y-70719969D01*
X95079995Y-70782921D01*
X95146568Y-70840606D01*
X95233760Y-70853143D01*
X95313887Y-70816550D01*
X95361511Y-70742445D01*
X95361511Y-69948098D01*
X95394743Y-69881632D01*
X95461207Y-69848401D01*
X95604672Y-69848401D01*
X95694087Y-69893108D01*
X95704369Y-69903390D01*
X95704369Y-70719969D01*
X95722853Y-70782921D01*
X95789426Y-70840606D01*
X95876618Y-70853143D01*
X95956745Y-70816550D01*
X96004369Y-70742445D01*
X96004369Y-70720650D01*
X96271055Y-70720650D01*
X96307648Y-70800777D01*
X96381753Y-70848401D01*
X97207899Y-70848401D01*
X97248304Y-70850343D01*
X97270949Y-70837281D01*
X97296032Y-70829917D01*
X97308334Y-70815719D01*
X97324610Y-70806332D01*
X97336600Y-70783097D01*
X97353717Y-70763344D01*
X97356390Y-70744750D01*
X97365007Y-70728054D01*
X97364303Y-70720650D01*
X97485341Y-70720650D01*
X97521934Y-70800777D01*
X97596039Y-70848401D01*
X98422185Y-70848401D01*
X98462590Y-70850343D01*
X98485235Y-70837281D01*
X98510318Y-70829917D01*
X98522620Y-70815719D01*
X98538896Y-70806332D01*
X98550886Y-70783097D01*
X98568003Y-70763344D01*
X98570676Y-70744750D01*
X98579293Y-70728054D01*
X98576819Y-70702029D01*
X98580540Y-70676152D01*
X98572734Y-70659060D01*
X98570957Y-70640360D01*
X98554807Y-70619806D01*
X98543947Y-70596025D01*
X98528141Y-70585867D01*
X97948703Y-69848401D01*
X98447366Y-69848401D01*
X98510318Y-69829917D01*
X98568003Y-69763344D01*
X98580540Y-69676152D01*
X98543947Y-69596025D01*
X98469842Y-69548401D01*
X97643696Y-69548401D01*
X97603291Y-69546459D01*
X97580645Y-69559520D01*
X97555563Y-69566885D01*
X97543260Y-69581082D01*
X97526985Y-69590470D01*
X97514994Y-69613704D01*
X97497878Y-69633458D01*
X97495204Y-69652051D01*
X97486588Y-69668748D01*
X97489061Y-69694772D01*
X97485341Y-69720650D01*
X97493146Y-69737741D01*
X97494924Y-69756442D01*
X97511073Y-69776995D01*
X97521934Y-69800777D01*
X97537739Y-69810934D01*
X98117178Y-70548401D01*
X97618515Y-70548401D01*
X97555563Y-70566885D01*
X97497878Y-70633458D01*
X97485341Y-70720650D01*
X97364303Y-70720650D01*
X97362533Y-70702029D01*
X97366254Y-70676152D01*
X97358448Y-70659060D01*
X97356671Y-70640360D01*
X97340521Y-70619806D01*
X97329661Y-70596025D01*
X97313855Y-70585867D01*
X96734417Y-69848401D01*
X97233080Y-69848401D01*
X97296032Y-69829917D01*
X97353717Y-69763344D01*
X97366254Y-69676152D01*
X97329661Y-69596025D01*
X97255556Y-69548401D01*
X96429410Y-69548401D01*
X96389005Y-69546459D01*
X96366359Y-69559520D01*
X96341277Y-69566885D01*
X96328974Y-69581082D01*
X96312699Y-69590470D01*
X96300708Y-69613704D01*
X96283592Y-69633458D01*
X96280918Y-69652051D01*
X96272302Y-69668748D01*
X96274775Y-69694772D01*
X96271055Y-69720650D01*
X96278860Y-69737741D01*
X96280638Y-69756442D01*
X96296787Y-69776995D01*
X96307648Y-69800777D01*
X96323453Y-69810934D01*
X96902892Y-70548401D01*
X96404229Y-70548401D01*
X96341277Y-70566885D01*
X96283592Y-70633458D01*
X96271055Y-70720650D01*
X96004369Y-70720650D01*
X96004369Y-69868323D01*
X96010304Y-69852410D01*
X96004369Y-69825129D01*
X96004369Y-69676833D01*
X95985885Y-69613881D01*
X95919312Y-69556196D01*
X95832120Y-69543659D01*
X95751993Y-69580252D01*
X95748880Y-69585095D01*
X95714392Y-69567851D01*
X95684127Y-69548401D01*
X95653474Y-69548401D01*
X95623302Y-69542971D01*
X95610210Y-69548401D01*
X95433872Y-69548401D01*
X95398108Y-69544540D01*
X95370692Y-69558248D01*
X95341277Y-69566885D01*
X95331995Y-69577596D01*
X95250039Y-69618575D01*
X95244210Y-69618370D01*
X95210996Y-69638097D01*
X95196567Y-69645312D01*
X95192535Y-69649062D01*
X95168473Y-69663354D01*
X95160911Y-69678477D01*
X95148527Y-69689997D01*
X95141593Y-69717112D01*
X95080961Y-69838377D01*
X95061511Y-69868643D01*
X95061511Y-69899296D01*
X95056081Y-69929468D01*
X94709035Y-69929468D01*
X94708807Y-69929013D01*
X94700170Y-69899595D01*
X94689458Y-69890313D01*
X94639800Y-69790995D01*
X94634435Y-69766335D01*
X94605227Y-69737127D01*
X94577059Y-69706845D01*
X94574218Y-69706118D01*
X94545160Y-69677061D01*
X94532273Y-69655363D01*
X94495323Y-69636888D01*
X94459027Y-69617069D01*
X94456103Y-69617278D01*
X94357249Y-69567851D01*
X94326984Y-69548401D01*
X94296331Y-69548401D01*
X94266159Y-69542971D01*
X94253067Y-69548401D01*
X93722242Y-69548401D01*
X93689262Y-69543659D01*
X93658955Y-69557499D01*
X93626991Y-69566885D01*
X93619516Y-69575510D01*
X93609135Y-69580252D01*
X93591122Y-69608279D01*
X93569306Y-69633458D01*
X93567681Y-69644755D01*
X93561511Y-69654357D01*
X93561511Y-69687670D01*
X93556769Y-69720650D01*
X93561511Y-69731033D01*
X93561511Y-70473384D01*
X93556769Y-70506364D01*
X93561511Y-70516747D01*
X93561511Y-71187670D01*
X93556769Y-71220650D01*
X88045325Y-71220650D01*
X88060210Y-71206805D01*
X88060936Y-71203964D01*
X88089990Y-71174910D01*
X88111692Y-71162021D01*
X88130175Y-71125054D01*
X88149985Y-71088776D01*
X88149775Y-71085853D01*
X88199206Y-70986992D01*
X88218654Y-70956731D01*
X88218654Y-70926078D01*
X88224084Y-70895906D01*
X88218654Y-70882814D01*
X88218654Y-70777906D01*
X88222515Y-70742142D01*
X88208807Y-70714726D01*
X88200170Y-70685310D01*
X88189458Y-70676028D01*
X88139799Y-70576710D01*
X88134435Y-70552049D01*
X88105213Y-70522827D01*
X88103788Y-70521295D01*
X88118996Y-70510727D01*
X88124414Y-70497629D01*
X88161421Y-70460622D01*
X88183121Y-70447734D01*
X88201595Y-70410784D01*
X88221415Y-70374489D01*
X88221205Y-70371564D01*
X88270634Y-70272706D01*
X88290082Y-70242445D01*
X88290082Y-70211793D01*
X88295512Y-70181619D01*
X88290082Y-70168527D01*
X88290082Y-69992191D01*
X88293943Y-69956428D01*
X88280463Y-69929468D01*
X88627509Y-69929468D01*
X88632939Y-69942560D01*
X88632939Y-70719969D01*
X88651423Y-70782921D01*
X88717996Y-70840606D01*
X88805188Y-70853143D01*
X88885315Y-70816550D01*
X88932939Y-70742445D01*
X88932939Y-69948098D01*
X88966171Y-69881632D01*
X89032635Y-69848401D01*
X89176100Y-69848401D01*
X89265515Y-69893108D01*
X89275797Y-69903390D01*
X89275797Y-70719969D01*
X89294281Y-70782921D01*
X89360854Y-70840606D01*
X89448046Y-70853143D01*
X89528173Y-70816550D01*
X89575797Y-70742445D01*
X89575797Y-70720650D01*
X89842483Y-70720650D01*
X89879076Y-70800777D01*
X89953181Y-70848401D01*
X90779327Y-70848401D01*
X90819732Y-70850343D01*
X90842377Y-70837281D01*
X90867460Y-70829917D01*
X90879762Y-70815719D01*
X90896038Y-70806332D01*
X90908028Y-70783097D01*
X90925145Y-70763344D01*
X90927818Y-70744750D01*
X90936435Y-70728054D01*
X90935731Y-70720650D01*
X91056769Y-70720650D01*
X91093362Y-70800777D01*
X91167467Y-70848401D01*
X91993613Y-70848401D01*
X92034018Y-70850343D01*
X92056663Y-70837281D01*
X92081746Y-70829917D01*
X92094048Y-70815719D01*
X92110324Y-70806332D01*
X92122314Y-70783097D01*
X92139431Y-70763344D01*
X92142104Y-70744750D01*
X92150721Y-70728054D01*
X92148247Y-70702029D01*
X92151968Y-70676152D01*
X92144162Y-70659060D01*
X92142385Y-70640360D01*
X92126235Y-70619806D01*
X92115375Y-70596025D01*
X92099569Y-70585867D01*
X91520131Y-69848401D01*
X92018794Y-69848401D01*
X92081746Y-69829917D01*
X92139431Y-69763344D01*
X92151968Y-69676152D01*
X92115375Y-69596025D01*
X92041270Y-69548401D01*
X91215124Y-69548401D01*
X91174719Y-69546459D01*
X91152073Y-69559520D01*
X91126991Y-69566885D01*
X91114688Y-69581082D01*
X91098413Y-69590470D01*
X91086422Y-69613704D01*
X91069306Y-69633458D01*
X91066632Y-69652051D01*
X91058016Y-69668748D01*
X91060489Y-69694772D01*
X91056769Y-69720650D01*
X91064574Y-69737741D01*
X91066352Y-69756442D01*
X91082501Y-69776995D01*
X91093362Y-69800777D01*
X91109167Y-69810934D01*
X91688606Y-70548401D01*
X91189943Y-70548401D01*
X91126991Y-70566885D01*
X91069306Y-70633458D01*
X91056769Y-70720650D01*
X90935731Y-70720650D01*
X90933961Y-70702029D01*
X90937682Y-70676152D01*
X90929876Y-70659060D01*
X90928099Y-70640360D01*
X90911949Y-70619806D01*
X90901089Y-70596025D01*
X90885283Y-70585867D01*
X90305845Y-69848401D01*
X90804508Y-69848401D01*
X90867460Y-69829917D01*
X90925145Y-69763344D01*
X90937682Y-69676152D01*
X90901089Y-69596025D01*
X90826984Y-69548401D01*
X90000838Y-69548401D01*
X89960433Y-69546459D01*
X89937787Y-69559520D01*
X89912705Y-69566885D01*
X89900402Y-69581082D01*
X89884127Y-69590470D01*
X89872136Y-69613704D01*
X89855020Y-69633458D01*
X89852346Y-69652051D01*
X89843730Y-69668748D01*
X89846203Y-69694772D01*
X89842483Y-69720650D01*
X89850288Y-69737741D01*
X89852066Y-69756442D01*
X89868215Y-69776995D01*
X89879076Y-69800777D01*
X89894881Y-69810934D01*
X90474320Y-70548401D01*
X89975657Y-70548401D01*
X89912705Y-70566885D01*
X89855020Y-70633458D01*
X89842483Y-70720650D01*
X89575797Y-70720650D01*
X89575797Y-69868323D01*
X89581732Y-69852410D01*
X89575797Y-69825129D01*
X89575797Y-69676833D01*
X89557313Y-69613881D01*
X89490740Y-69556196D01*
X89403548Y-69543659D01*
X89323421Y-69580252D01*
X89320308Y-69585095D01*
X89285820Y-69567851D01*
X89255555Y-69548401D01*
X89224902Y-69548401D01*
X89194730Y-69542971D01*
X89181638Y-69548401D01*
X89005300Y-69548401D01*
X88969536Y-69544540D01*
X88942120Y-69558248D01*
X88912705Y-69566885D01*
X88903423Y-69577596D01*
X88821467Y-69618575D01*
X88815638Y-69618370D01*
X88782424Y-69638097D01*
X88767995Y-69645312D01*
X88763963Y-69649062D01*
X88739901Y-69663354D01*
X88732339Y-69678477D01*
X88719955Y-69689997D01*
X88713021Y-69717112D01*
X88652389Y-69838377D01*
X88632939Y-69868643D01*
X88632939Y-69899296D01*
X88627509Y-69929468D01*
X88280463Y-69929468D01*
X88280235Y-69929013D01*
X88271598Y-69899595D01*
X88260886Y-69890313D01*
X88211228Y-69790995D01*
X88205863Y-69766335D01*
X88176655Y-69737127D01*
X88148487Y-69706845D01*
X88145646Y-69706118D01*
X88116588Y-69677061D01*
X88103701Y-69655363D01*
X88066751Y-69636888D01*
X88030455Y-69617069D01*
X88027531Y-69617278D01*
X87928677Y-69567851D01*
X87898412Y-69548401D01*
X87867759Y-69548401D01*
X87837587Y-69542971D01*
X87824495Y-69548401D01*
X87293670Y-69548401D01*
X87260690Y-69543659D01*
X87230383Y-69557499D01*
X87198419Y-69566885D01*
X87190944Y-69575510D01*
X87180563Y-69580252D01*
X87162550Y-69608279D01*
X87140734Y-69633458D01*
X87139109Y-69644755D01*
X87132939Y-69654357D01*
X87132939Y-69687670D01*
X87128197Y-69720650D01*
X87132939Y-69731033D01*
X87132939Y-70473384D01*
X87128197Y-70506364D01*
X87132939Y-70516747D01*
X87132939Y-71187670D01*
X87128197Y-71220650D01*
X86261511Y-71220650D01*
X86261511Y-68850544D01*
X99754370Y-68850544D01*
X99754370Y-72429116D01*
G37*
D12*
%TO.C,D1*%
X88205000Y-52010000D02*
X90865000Y-52010000D01*
X88205000Y-59690000D02*
X88205000Y-52010000D01*
X88205000Y-59690000D02*
X90865000Y-59690000D01*
X89535000Y-62290000D02*
X90865000Y-62290000D01*
X90865000Y-59690000D02*
X90865000Y-52010000D01*
X90865000Y-62290000D02*
X90865000Y-60960000D01*
%TD*%
M02*
