%TF.GenerationSoftware,KiCad,Pcbnew,7.0.1*%
%TF.CreationDate,2024-01-15T22:41:26+05:30*%
%TF.ProjectId,hologlyph bot circuit,686f6c6f-676c-4797-9068-20626f742063,rev?*%
%TF.SameCoordinates,Original*%
%TF.FileFunction,AssemblyDrawing,Top*%
%FSLAX46Y46*%
G04 Gerber Fmt 4.6, Leading zero omitted, Abs format (unit mm)*
G04 Created by KiCad (PCBNEW 7.0.1) date 2024-01-15 22:41:26*
%MOMM*%
%LPD*%
G01*
G04 APERTURE LIST*
%ADD10C,0.150000*%
%ADD11C,0.100000*%
%ADD12C,0.127000*%
%ADD13C,0.200000*%
G04 APERTURE END LIST*
D10*
%TO.C,J5*%
X156537143Y-119962619D02*
X156537143Y-118962619D01*
X157013333Y-119962619D02*
X157013333Y-118962619D01*
X157013333Y-118962619D02*
X157584761Y-119962619D01*
X157584761Y-119962619D02*
X157584761Y-118962619D01*
X158060952Y-119581666D02*
X158822857Y-119581666D01*
X158441904Y-119962619D02*
X158441904Y-119200714D01*
X157142619Y-122163333D02*
X157856904Y-122163333D01*
X157856904Y-122163333D02*
X157999761Y-122210952D01*
X157999761Y-122210952D02*
X158095000Y-122306190D01*
X158095000Y-122306190D02*
X158142619Y-122449047D01*
X158142619Y-122449047D02*
X158142619Y-122544285D01*
X157142619Y-121210952D02*
X157142619Y-121687142D01*
X157142619Y-121687142D02*
X157618809Y-121734761D01*
X157618809Y-121734761D02*
X157571190Y-121687142D01*
X157571190Y-121687142D02*
X157523571Y-121591904D01*
X157523571Y-121591904D02*
X157523571Y-121353809D01*
X157523571Y-121353809D02*
X157571190Y-121258571D01*
X157571190Y-121258571D02*
X157618809Y-121210952D01*
X157618809Y-121210952D02*
X157714047Y-121163333D01*
X157714047Y-121163333D02*
X157952142Y-121163333D01*
X157952142Y-121163333D02*
X158047380Y-121210952D01*
X158047380Y-121210952D02*
X158095000Y-121258571D01*
X158095000Y-121258571D02*
X158142619Y-121353809D01*
X158142619Y-121353809D02*
X158142619Y-121591904D01*
X158142619Y-121591904D02*
X158095000Y-121687142D01*
X158095000Y-121687142D02*
X158047380Y-121734761D01*
%TO.C,J4*%
X145242619Y-99042857D02*
X144242619Y-99042857D01*
X144242619Y-99042857D02*
X144242619Y-98661905D01*
X144242619Y-98661905D02*
X144290238Y-98566667D01*
X144290238Y-98566667D02*
X144337857Y-98519048D01*
X144337857Y-98519048D02*
X144433095Y-98471429D01*
X144433095Y-98471429D02*
X144575952Y-98471429D01*
X144575952Y-98471429D02*
X144671190Y-98519048D01*
X144671190Y-98519048D02*
X144718809Y-98566667D01*
X144718809Y-98566667D02*
X144766428Y-98661905D01*
X144766428Y-98661905D02*
X144766428Y-99042857D01*
X145195000Y-97661905D02*
X145242619Y-97757143D01*
X145242619Y-97757143D02*
X145242619Y-97947619D01*
X145242619Y-97947619D02*
X145195000Y-98042857D01*
X145195000Y-98042857D02*
X145099761Y-98090476D01*
X145099761Y-98090476D02*
X144718809Y-98090476D01*
X144718809Y-98090476D02*
X144623571Y-98042857D01*
X144623571Y-98042857D02*
X144575952Y-97947619D01*
X144575952Y-97947619D02*
X144575952Y-97757143D01*
X144575952Y-97757143D02*
X144623571Y-97661905D01*
X144623571Y-97661905D02*
X144718809Y-97614286D01*
X144718809Y-97614286D02*
X144814047Y-97614286D01*
X144814047Y-97614286D02*
X144909285Y-98090476D01*
X144575952Y-97185714D02*
X145242619Y-97185714D01*
X144671190Y-97185714D02*
X144623571Y-97138095D01*
X144623571Y-97138095D02*
X144575952Y-97042857D01*
X144575952Y-97042857D02*
X144575952Y-96900000D01*
X144575952Y-96900000D02*
X144623571Y-96804762D01*
X144623571Y-96804762D02*
X144718809Y-96757143D01*
X144718809Y-96757143D02*
X145242619Y-96757143D01*
X144242619Y-95519047D02*
X145052142Y-95519047D01*
X145052142Y-95519047D02*
X145147380Y-95471428D01*
X145147380Y-95471428D02*
X145195000Y-95423809D01*
X145195000Y-95423809D02*
X145242619Y-95328571D01*
X145242619Y-95328571D02*
X145242619Y-95138095D01*
X145242619Y-95138095D02*
X145195000Y-95042857D01*
X145195000Y-95042857D02*
X145147380Y-94995238D01*
X145147380Y-94995238D02*
X145052142Y-94947619D01*
X145052142Y-94947619D02*
X144242619Y-94947619D01*
X144575952Y-94471428D02*
X145575952Y-94471428D01*
X144623571Y-94471428D02*
X144575952Y-94376190D01*
X144575952Y-94376190D02*
X144575952Y-94185714D01*
X144575952Y-94185714D02*
X144623571Y-94090476D01*
X144623571Y-94090476D02*
X144671190Y-94042857D01*
X144671190Y-94042857D02*
X144766428Y-93995238D01*
X144766428Y-93995238D02*
X145052142Y-93995238D01*
X145052142Y-93995238D02*
X145147380Y-94042857D01*
X145147380Y-94042857D02*
X145195000Y-94090476D01*
X145195000Y-94090476D02*
X145242619Y-94185714D01*
X145242619Y-94185714D02*
X145242619Y-94376190D01*
X145242619Y-94376190D02*
X145195000Y-94471428D01*
X144195000Y-92852381D02*
X145480714Y-93709523D01*
X145242619Y-92519047D02*
X144242619Y-92519047D01*
X144242619Y-92519047D02*
X144242619Y-92280952D01*
X144242619Y-92280952D02*
X144290238Y-92138095D01*
X144290238Y-92138095D02*
X144385476Y-92042857D01*
X144385476Y-92042857D02*
X144480714Y-91995238D01*
X144480714Y-91995238D02*
X144671190Y-91947619D01*
X144671190Y-91947619D02*
X144814047Y-91947619D01*
X144814047Y-91947619D02*
X145004523Y-91995238D01*
X145004523Y-91995238D02*
X145099761Y-92042857D01*
X145099761Y-92042857D02*
X145195000Y-92138095D01*
X145195000Y-92138095D02*
X145242619Y-92280952D01*
X145242619Y-92280952D02*
X145242619Y-92519047D01*
X145242619Y-91376190D02*
X145195000Y-91471428D01*
X145195000Y-91471428D02*
X145147380Y-91519047D01*
X145147380Y-91519047D02*
X145052142Y-91566666D01*
X145052142Y-91566666D02*
X144766428Y-91566666D01*
X144766428Y-91566666D02*
X144671190Y-91519047D01*
X144671190Y-91519047D02*
X144623571Y-91471428D01*
X144623571Y-91471428D02*
X144575952Y-91376190D01*
X144575952Y-91376190D02*
X144575952Y-91233333D01*
X144575952Y-91233333D02*
X144623571Y-91138095D01*
X144623571Y-91138095D02*
X144671190Y-91090476D01*
X144671190Y-91090476D02*
X144766428Y-91042857D01*
X144766428Y-91042857D02*
X145052142Y-91042857D01*
X145052142Y-91042857D02*
X145147380Y-91090476D01*
X145147380Y-91090476D02*
X145195000Y-91138095D01*
X145195000Y-91138095D02*
X145242619Y-91233333D01*
X145242619Y-91233333D02*
X145242619Y-91376190D01*
X144575952Y-90709523D02*
X145242619Y-90519047D01*
X145242619Y-90519047D02*
X144766428Y-90328571D01*
X144766428Y-90328571D02*
X145242619Y-90138095D01*
X145242619Y-90138095D02*
X144575952Y-89947619D01*
X144575952Y-89566666D02*
X145242619Y-89566666D01*
X144671190Y-89566666D02*
X144623571Y-89519047D01*
X144623571Y-89519047D02*
X144575952Y-89423809D01*
X144575952Y-89423809D02*
X144575952Y-89280952D01*
X144575952Y-89280952D02*
X144623571Y-89185714D01*
X144623571Y-89185714D02*
X144718809Y-89138095D01*
X144718809Y-89138095D02*
X145242619Y-89138095D01*
X144242619Y-84153333D02*
X144956904Y-84153333D01*
X144956904Y-84153333D02*
X145099761Y-84200952D01*
X145099761Y-84200952D02*
X145195000Y-84296190D01*
X145195000Y-84296190D02*
X145242619Y-84439047D01*
X145242619Y-84439047D02*
X145242619Y-84534285D01*
X144575952Y-83248571D02*
X145242619Y-83248571D01*
X144195000Y-83486666D02*
X144909285Y-83724761D01*
X144909285Y-83724761D02*
X144909285Y-83105714D01*
%TO.C,D1*%
X87749285Y-50508809D02*
X87892142Y-50556428D01*
X87892142Y-50556428D02*
X87939761Y-50604047D01*
X87939761Y-50604047D02*
X87987380Y-50699285D01*
X87987380Y-50699285D02*
X87987380Y-50842142D01*
X87987380Y-50842142D02*
X87939761Y-50937380D01*
X87939761Y-50937380D02*
X87892142Y-50985000D01*
X87892142Y-50985000D02*
X87796904Y-51032619D01*
X87796904Y-51032619D02*
X87415952Y-51032619D01*
X87415952Y-51032619D02*
X87415952Y-50032619D01*
X87415952Y-50032619D02*
X87749285Y-50032619D01*
X87749285Y-50032619D02*
X87844523Y-50080238D01*
X87844523Y-50080238D02*
X87892142Y-50127857D01*
X87892142Y-50127857D02*
X87939761Y-50223095D01*
X87939761Y-50223095D02*
X87939761Y-50318333D01*
X87939761Y-50318333D02*
X87892142Y-50413571D01*
X87892142Y-50413571D02*
X87844523Y-50461190D01*
X87844523Y-50461190D02*
X87749285Y-50508809D01*
X87749285Y-50508809D02*
X87415952Y-50508809D01*
X88558809Y-51032619D02*
X88463571Y-50985000D01*
X88463571Y-50985000D02*
X88415952Y-50937380D01*
X88415952Y-50937380D02*
X88368333Y-50842142D01*
X88368333Y-50842142D02*
X88368333Y-50556428D01*
X88368333Y-50556428D02*
X88415952Y-50461190D01*
X88415952Y-50461190D02*
X88463571Y-50413571D01*
X88463571Y-50413571D02*
X88558809Y-50365952D01*
X88558809Y-50365952D02*
X88701666Y-50365952D01*
X88701666Y-50365952D02*
X88796904Y-50413571D01*
X88796904Y-50413571D02*
X88844523Y-50461190D01*
X88844523Y-50461190D02*
X88892142Y-50556428D01*
X88892142Y-50556428D02*
X88892142Y-50842142D01*
X88892142Y-50842142D02*
X88844523Y-50937380D01*
X88844523Y-50937380D02*
X88796904Y-50985000D01*
X88796904Y-50985000D02*
X88701666Y-51032619D01*
X88701666Y-51032619D02*
X88558809Y-51032619D01*
X89177857Y-50365952D02*
X89558809Y-50365952D01*
X89320714Y-50032619D02*
X89320714Y-50889761D01*
X89320714Y-50889761D02*
X89368333Y-50985000D01*
X89368333Y-50985000D02*
X89463571Y-51032619D01*
X89463571Y-51032619D02*
X89558809Y-51032619D01*
X90654048Y-51032619D02*
X90654048Y-50032619D01*
X91130238Y-51032619D02*
X91130238Y-50032619D01*
X91130238Y-50032619D02*
X91368333Y-50032619D01*
X91368333Y-50032619D02*
X91511190Y-50080238D01*
X91511190Y-50080238D02*
X91606428Y-50175476D01*
X91606428Y-50175476D02*
X91654047Y-50270714D01*
X91654047Y-50270714D02*
X91701666Y-50461190D01*
X91701666Y-50461190D02*
X91701666Y-50604047D01*
X91701666Y-50604047D02*
X91654047Y-50794523D01*
X91654047Y-50794523D02*
X91606428Y-50889761D01*
X91606428Y-50889761D02*
X91511190Y-50985000D01*
X91511190Y-50985000D02*
X91368333Y-51032619D01*
X91368333Y-51032619D02*
X91130238Y-51032619D01*
X89997619Y-57888094D02*
X88997619Y-57888094D01*
X88997619Y-57888094D02*
X88997619Y-57649999D01*
X88997619Y-57649999D02*
X89045238Y-57507142D01*
X89045238Y-57507142D02*
X89140476Y-57411904D01*
X89140476Y-57411904D02*
X89235714Y-57364285D01*
X89235714Y-57364285D02*
X89426190Y-57316666D01*
X89426190Y-57316666D02*
X89569047Y-57316666D01*
X89569047Y-57316666D02*
X89759523Y-57364285D01*
X89759523Y-57364285D02*
X89854761Y-57411904D01*
X89854761Y-57411904D02*
X89950000Y-57507142D01*
X89950000Y-57507142D02*
X89997619Y-57649999D01*
X89997619Y-57649999D02*
X89997619Y-57888094D01*
X89997619Y-56364285D02*
X89997619Y-56935713D01*
X89997619Y-56649999D02*
X88997619Y-56649999D01*
X88997619Y-56649999D02*
X89140476Y-56745237D01*
X89140476Y-56745237D02*
X89235714Y-56840475D01*
X89235714Y-56840475D02*
X89283333Y-56935713D01*
%TO.C,J7*%
X105060952Y-118962619D02*
X105251428Y-118962619D01*
X105251428Y-118962619D02*
X105346666Y-119010238D01*
X105346666Y-119010238D02*
X105441904Y-119105476D01*
X105441904Y-119105476D02*
X105489523Y-119295952D01*
X105489523Y-119295952D02*
X105489523Y-119629285D01*
X105489523Y-119629285D02*
X105441904Y-119819761D01*
X105441904Y-119819761D02*
X105346666Y-119915000D01*
X105346666Y-119915000D02*
X105251428Y-119962619D01*
X105251428Y-119962619D02*
X105060952Y-119962619D01*
X105060952Y-119962619D02*
X104965714Y-119915000D01*
X104965714Y-119915000D02*
X104870476Y-119819761D01*
X104870476Y-119819761D02*
X104822857Y-119629285D01*
X104822857Y-119629285D02*
X104822857Y-119295952D01*
X104822857Y-119295952D02*
X104870476Y-119105476D01*
X104870476Y-119105476D02*
X104965714Y-119010238D01*
X104965714Y-119010238D02*
X105060952Y-118962619D01*
X105918095Y-118962619D02*
X105918095Y-119772142D01*
X105918095Y-119772142D02*
X105965714Y-119867380D01*
X105965714Y-119867380D02*
X106013333Y-119915000D01*
X106013333Y-119915000D02*
X106108571Y-119962619D01*
X106108571Y-119962619D02*
X106299047Y-119962619D01*
X106299047Y-119962619D02*
X106394285Y-119915000D01*
X106394285Y-119915000D02*
X106441904Y-119867380D01*
X106441904Y-119867380D02*
X106489523Y-119772142D01*
X106489523Y-119772142D02*
X106489523Y-118962619D01*
X106822857Y-118962619D02*
X107394285Y-118962619D01*
X107108571Y-119962619D02*
X107108571Y-118962619D01*
X107727619Y-119581666D02*
X108489524Y-119581666D01*
X108108571Y-119962619D02*
X108108571Y-119200714D01*
X106142619Y-122163333D02*
X106856904Y-122163333D01*
X106856904Y-122163333D02*
X106999761Y-122210952D01*
X106999761Y-122210952D02*
X107095000Y-122306190D01*
X107095000Y-122306190D02*
X107142619Y-122449047D01*
X107142619Y-122449047D02*
X107142619Y-122544285D01*
X106142619Y-121782380D02*
X106142619Y-121115714D01*
X106142619Y-121115714D02*
X107142619Y-121544285D01*
%TO.C,3V3 GND 5V*%
X149112619Y-60499047D02*
X149112619Y-59880000D01*
X149112619Y-59880000D02*
X149493571Y-60213333D01*
X149493571Y-60213333D02*
X149493571Y-60070476D01*
X149493571Y-60070476D02*
X149541190Y-59975238D01*
X149541190Y-59975238D02*
X149588809Y-59927619D01*
X149588809Y-59927619D02*
X149684047Y-59880000D01*
X149684047Y-59880000D02*
X149922142Y-59880000D01*
X149922142Y-59880000D02*
X150017380Y-59927619D01*
X150017380Y-59927619D02*
X150065000Y-59975238D01*
X150065000Y-59975238D02*
X150112619Y-60070476D01*
X150112619Y-60070476D02*
X150112619Y-60356190D01*
X150112619Y-60356190D02*
X150065000Y-60451428D01*
X150065000Y-60451428D02*
X150017380Y-60499047D01*
X149112619Y-59594285D02*
X150112619Y-59260952D01*
X150112619Y-59260952D02*
X149112619Y-58927619D01*
X149112619Y-58689523D02*
X149112619Y-58070476D01*
X149112619Y-58070476D02*
X149493571Y-58403809D01*
X149493571Y-58403809D02*
X149493571Y-58260952D01*
X149493571Y-58260952D02*
X149541190Y-58165714D01*
X149541190Y-58165714D02*
X149588809Y-58118095D01*
X149588809Y-58118095D02*
X149684047Y-58070476D01*
X149684047Y-58070476D02*
X149922142Y-58070476D01*
X149922142Y-58070476D02*
X150017380Y-58118095D01*
X150017380Y-58118095D02*
X150065000Y-58165714D01*
X150065000Y-58165714D02*
X150112619Y-58260952D01*
X150112619Y-58260952D02*
X150112619Y-58546666D01*
X150112619Y-58546666D02*
X150065000Y-58641904D01*
X150065000Y-58641904D02*
X150017380Y-58689523D01*
X150112619Y-56879999D02*
X149112619Y-56879999D01*
X149588809Y-56879999D02*
X149588809Y-56308571D01*
X150112619Y-56308571D02*
X149112619Y-56308571D01*
X150065000Y-55451428D02*
X150112619Y-55546666D01*
X150112619Y-55546666D02*
X150112619Y-55737142D01*
X150112619Y-55737142D02*
X150065000Y-55832380D01*
X150065000Y-55832380D02*
X149969761Y-55879999D01*
X149969761Y-55879999D02*
X149588809Y-55879999D01*
X149588809Y-55879999D02*
X149493571Y-55832380D01*
X149493571Y-55832380D02*
X149445952Y-55737142D01*
X149445952Y-55737142D02*
X149445952Y-55546666D01*
X149445952Y-55546666D02*
X149493571Y-55451428D01*
X149493571Y-55451428D02*
X149588809Y-55403809D01*
X149588809Y-55403809D02*
X149684047Y-55403809D01*
X149684047Y-55403809D02*
X149779285Y-55879999D01*
X150112619Y-54546666D02*
X149588809Y-54546666D01*
X149588809Y-54546666D02*
X149493571Y-54594285D01*
X149493571Y-54594285D02*
X149445952Y-54689523D01*
X149445952Y-54689523D02*
X149445952Y-54879999D01*
X149445952Y-54879999D02*
X149493571Y-54975237D01*
X150065000Y-54546666D02*
X150112619Y-54641904D01*
X150112619Y-54641904D02*
X150112619Y-54879999D01*
X150112619Y-54879999D02*
X150065000Y-54975237D01*
X150065000Y-54975237D02*
X149969761Y-55022856D01*
X149969761Y-55022856D02*
X149874523Y-55022856D01*
X149874523Y-55022856D02*
X149779285Y-54975237D01*
X149779285Y-54975237D02*
X149731666Y-54879999D01*
X149731666Y-54879999D02*
X149731666Y-54641904D01*
X149731666Y-54641904D02*
X149684047Y-54546666D01*
X150112619Y-53641904D02*
X149112619Y-53641904D01*
X150065000Y-53641904D02*
X150112619Y-53737142D01*
X150112619Y-53737142D02*
X150112619Y-53927618D01*
X150112619Y-53927618D02*
X150065000Y-54022856D01*
X150065000Y-54022856D02*
X150017380Y-54070475D01*
X150017380Y-54070475D02*
X149922142Y-54118094D01*
X149922142Y-54118094D02*
X149636428Y-54118094D01*
X149636428Y-54118094D02*
X149541190Y-54070475D01*
X149541190Y-54070475D02*
X149493571Y-54022856D01*
X149493571Y-54022856D02*
X149445952Y-53927618D01*
X149445952Y-53927618D02*
X149445952Y-53737142D01*
X149445952Y-53737142D02*
X149493571Y-53641904D01*
X150065000Y-52784761D02*
X150112619Y-52879999D01*
X150112619Y-52879999D02*
X150112619Y-53070475D01*
X150112619Y-53070475D02*
X150065000Y-53165713D01*
X150065000Y-53165713D02*
X149969761Y-53213332D01*
X149969761Y-53213332D02*
X149588809Y-53213332D01*
X149588809Y-53213332D02*
X149493571Y-53165713D01*
X149493571Y-53165713D02*
X149445952Y-53070475D01*
X149445952Y-53070475D02*
X149445952Y-52879999D01*
X149445952Y-52879999D02*
X149493571Y-52784761D01*
X149493571Y-52784761D02*
X149588809Y-52737142D01*
X149588809Y-52737142D02*
X149684047Y-52737142D01*
X149684047Y-52737142D02*
X149779285Y-53213332D01*
X150112619Y-52308570D02*
X149445952Y-52308570D01*
X149636428Y-52308570D02*
X149541190Y-52260951D01*
X149541190Y-52260951D02*
X149493571Y-52213332D01*
X149493571Y-52213332D02*
X149445952Y-52118094D01*
X149445952Y-52118094D02*
X149445952Y-52022856D01*
X150065000Y-51737141D02*
X150112619Y-51641903D01*
X150112619Y-51641903D02*
X150112619Y-51451427D01*
X150112619Y-51451427D02*
X150065000Y-51356189D01*
X150065000Y-51356189D02*
X149969761Y-51308570D01*
X149969761Y-51308570D02*
X149922142Y-51308570D01*
X149922142Y-51308570D02*
X149826904Y-51356189D01*
X149826904Y-51356189D02*
X149779285Y-51451427D01*
X149779285Y-51451427D02*
X149779285Y-51594284D01*
X149779285Y-51594284D02*
X149731666Y-51689522D01*
X149731666Y-51689522D02*
X149636428Y-51737141D01*
X149636428Y-51737141D02*
X149588809Y-51737141D01*
X149588809Y-51737141D02*
X149493571Y-51689522D01*
X149493571Y-51689522D02*
X149445952Y-51594284D01*
X149445952Y-51594284D02*
X149445952Y-51451427D01*
X149445952Y-51451427D02*
X149493571Y-51356189D01*
X137811428Y-55342619D02*
X138430475Y-55342619D01*
X138430475Y-55342619D02*
X138097142Y-55723571D01*
X138097142Y-55723571D02*
X138239999Y-55723571D01*
X138239999Y-55723571D02*
X138335237Y-55771190D01*
X138335237Y-55771190D02*
X138382856Y-55818809D01*
X138382856Y-55818809D02*
X138430475Y-55914047D01*
X138430475Y-55914047D02*
X138430475Y-56152142D01*
X138430475Y-56152142D02*
X138382856Y-56247380D01*
X138382856Y-56247380D02*
X138335237Y-56295000D01*
X138335237Y-56295000D02*
X138239999Y-56342619D01*
X138239999Y-56342619D02*
X137954285Y-56342619D01*
X137954285Y-56342619D02*
X137859047Y-56295000D01*
X137859047Y-56295000D02*
X137811428Y-56247380D01*
X138716190Y-55342619D02*
X139049523Y-56342619D01*
X139049523Y-56342619D02*
X139382856Y-55342619D01*
X139620952Y-55342619D02*
X140239999Y-55342619D01*
X140239999Y-55342619D02*
X139906666Y-55723571D01*
X139906666Y-55723571D02*
X140049523Y-55723571D01*
X140049523Y-55723571D02*
X140144761Y-55771190D01*
X140144761Y-55771190D02*
X140192380Y-55818809D01*
X140192380Y-55818809D02*
X140239999Y-55914047D01*
X140239999Y-55914047D02*
X140239999Y-56152142D01*
X140239999Y-56152142D02*
X140192380Y-56247380D01*
X140192380Y-56247380D02*
X140144761Y-56295000D01*
X140144761Y-56295000D02*
X140049523Y-56342619D01*
X140049523Y-56342619D02*
X139763809Y-56342619D01*
X139763809Y-56342619D02*
X139668571Y-56295000D01*
X139668571Y-56295000D02*
X139620952Y-56247380D01*
X141954285Y-55390238D02*
X141859047Y-55342619D01*
X141859047Y-55342619D02*
X141716190Y-55342619D01*
X141716190Y-55342619D02*
X141573333Y-55390238D01*
X141573333Y-55390238D02*
X141478095Y-55485476D01*
X141478095Y-55485476D02*
X141430476Y-55580714D01*
X141430476Y-55580714D02*
X141382857Y-55771190D01*
X141382857Y-55771190D02*
X141382857Y-55914047D01*
X141382857Y-55914047D02*
X141430476Y-56104523D01*
X141430476Y-56104523D02*
X141478095Y-56199761D01*
X141478095Y-56199761D02*
X141573333Y-56295000D01*
X141573333Y-56295000D02*
X141716190Y-56342619D01*
X141716190Y-56342619D02*
X141811428Y-56342619D01*
X141811428Y-56342619D02*
X141954285Y-56295000D01*
X141954285Y-56295000D02*
X142001904Y-56247380D01*
X142001904Y-56247380D02*
X142001904Y-55914047D01*
X142001904Y-55914047D02*
X141811428Y-55914047D01*
X142430476Y-56342619D02*
X142430476Y-55342619D01*
X142430476Y-55342619D02*
X143001904Y-56342619D01*
X143001904Y-56342619D02*
X143001904Y-55342619D01*
X143478095Y-56342619D02*
X143478095Y-55342619D01*
X143478095Y-55342619D02*
X143716190Y-55342619D01*
X143716190Y-55342619D02*
X143859047Y-55390238D01*
X143859047Y-55390238D02*
X143954285Y-55485476D01*
X143954285Y-55485476D02*
X144001904Y-55580714D01*
X144001904Y-55580714D02*
X144049523Y-55771190D01*
X144049523Y-55771190D02*
X144049523Y-55914047D01*
X144049523Y-55914047D02*
X144001904Y-56104523D01*
X144001904Y-56104523D02*
X143954285Y-56199761D01*
X143954285Y-56199761D02*
X143859047Y-56295000D01*
X143859047Y-56295000D02*
X143716190Y-56342619D01*
X143716190Y-56342619D02*
X143478095Y-56342619D01*
X145716190Y-55342619D02*
X145240000Y-55342619D01*
X145240000Y-55342619D02*
X145192381Y-55818809D01*
X145192381Y-55818809D02*
X145240000Y-55771190D01*
X145240000Y-55771190D02*
X145335238Y-55723571D01*
X145335238Y-55723571D02*
X145573333Y-55723571D01*
X145573333Y-55723571D02*
X145668571Y-55771190D01*
X145668571Y-55771190D02*
X145716190Y-55818809D01*
X145716190Y-55818809D02*
X145763809Y-55914047D01*
X145763809Y-55914047D02*
X145763809Y-56152142D01*
X145763809Y-56152142D02*
X145716190Y-56247380D01*
X145716190Y-56247380D02*
X145668571Y-56295000D01*
X145668571Y-56295000D02*
X145573333Y-56342619D01*
X145573333Y-56342619D02*
X145335238Y-56342619D01*
X145335238Y-56342619D02*
X145240000Y-56295000D01*
X145240000Y-56295000D02*
X145192381Y-56247380D01*
X146049524Y-55342619D02*
X146382857Y-56342619D01*
X146382857Y-56342619D02*
X146716190Y-55342619D01*
%TO.C,J11*%
X149112619Y-67071429D02*
X149112619Y-67547619D01*
X149112619Y-67547619D02*
X149588809Y-67595238D01*
X149588809Y-67595238D02*
X149541190Y-67547619D01*
X149541190Y-67547619D02*
X149493571Y-67452381D01*
X149493571Y-67452381D02*
X149493571Y-67214286D01*
X149493571Y-67214286D02*
X149541190Y-67119048D01*
X149541190Y-67119048D02*
X149588809Y-67071429D01*
X149588809Y-67071429D02*
X149684047Y-67023810D01*
X149684047Y-67023810D02*
X149922142Y-67023810D01*
X149922142Y-67023810D02*
X150017380Y-67071429D01*
X150017380Y-67071429D02*
X150065000Y-67119048D01*
X150065000Y-67119048D02*
X150112619Y-67214286D01*
X150112619Y-67214286D02*
X150112619Y-67452381D01*
X150112619Y-67452381D02*
X150065000Y-67547619D01*
X150065000Y-67547619D02*
X150017380Y-67595238D01*
X149112619Y-66738095D02*
X150112619Y-66404762D01*
X150112619Y-66404762D02*
X149112619Y-66071429D01*
X150112619Y-64976190D02*
X149112619Y-64976190D01*
X149588809Y-64976190D02*
X149588809Y-64404762D01*
X150112619Y-64404762D02*
X149112619Y-64404762D01*
X150065000Y-63547619D02*
X150112619Y-63642857D01*
X150112619Y-63642857D02*
X150112619Y-63833333D01*
X150112619Y-63833333D02*
X150065000Y-63928571D01*
X150065000Y-63928571D02*
X149969761Y-63976190D01*
X149969761Y-63976190D02*
X149588809Y-63976190D01*
X149588809Y-63976190D02*
X149493571Y-63928571D01*
X149493571Y-63928571D02*
X149445952Y-63833333D01*
X149445952Y-63833333D02*
X149445952Y-63642857D01*
X149445952Y-63642857D02*
X149493571Y-63547619D01*
X149493571Y-63547619D02*
X149588809Y-63500000D01*
X149588809Y-63500000D02*
X149684047Y-63500000D01*
X149684047Y-63500000D02*
X149779285Y-63976190D01*
X150112619Y-62642857D02*
X149588809Y-62642857D01*
X149588809Y-62642857D02*
X149493571Y-62690476D01*
X149493571Y-62690476D02*
X149445952Y-62785714D01*
X149445952Y-62785714D02*
X149445952Y-62976190D01*
X149445952Y-62976190D02*
X149493571Y-63071428D01*
X150065000Y-62642857D02*
X150112619Y-62738095D01*
X150112619Y-62738095D02*
X150112619Y-62976190D01*
X150112619Y-62976190D02*
X150065000Y-63071428D01*
X150065000Y-63071428D02*
X149969761Y-63119047D01*
X149969761Y-63119047D02*
X149874523Y-63119047D01*
X149874523Y-63119047D02*
X149779285Y-63071428D01*
X149779285Y-63071428D02*
X149731666Y-62976190D01*
X149731666Y-62976190D02*
X149731666Y-62738095D01*
X149731666Y-62738095D02*
X149684047Y-62642857D01*
X150112619Y-61738095D02*
X149112619Y-61738095D01*
X150065000Y-61738095D02*
X150112619Y-61833333D01*
X150112619Y-61833333D02*
X150112619Y-62023809D01*
X150112619Y-62023809D02*
X150065000Y-62119047D01*
X150065000Y-62119047D02*
X150017380Y-62166666D01*
X150017380Y-62166666D02*
X149922142Y-62214285D01*
X149922142Y-62214285D02*
X149636428Y-62214285D01*
X149636428Y-62214285D02*
X149541190Y-62166666D01*
X149541190Y-62166666D02*
X149493571Y-62119047D01*
X149493571Y-62119047D02*
X149445952Y-62023809D01*
X149445952Y-62023809D02*
X149445952Y-61833333D01*
X149445952Y-61833333D02*
X149493571Y-61738095D01*
X150065000Y-60880952D02*
X150112619Y-60976190D01*
X150112619Y-60976190D02*
X150112619Y-61166666D01*
X150112619Y-61166666D02*
X150065000Y-61261904D01*
X150065000Y-61261904D02*
X149969761Y-61309523D01*
X149969761Y-61309523D02*
X149588809Y-61309523D01*
X149588809Y-61309523D02*
X149493571Y-61261904D01*
X149493571Y-61261904D02*
X149445952Y-61166666D01*
X149445952Y-61166666D02*
X149445952Y-60976190D01*
X149445952Y-60976190D02*
X149493571Y-60880952D01*
X149493571Y-60880952D02*
X149588809Y-60833333D01*
X149588809Y-60833333D02*
X149684047Y-60833333D01*
X149684047Y-60833333D02*
X149779285Y-61309523D01*
X150112619Y-60404761D02*
X149445952Y-60404761D01*
X149636428Y-60404761D02*
X149541190Y-60357142D01*
X149541190Y-60357142D02*
X149493571Y-60309523D01*
X149493571Y-60309523D02*
X149445952Y-60214285D01*
X149445952Y-60214285D02*
X149445952Y-60119047D01*
X150065000Y-59833332D02*
X150112619Y-59738094D01*
X150112619Y-59738094D02*
X150112619Y-59547618D01*
X150112619Y-59547618D02*
X150065000Y-59452380D01*
X150065000Y-59452380D02*
X149969761Y-59404761D01*
X149969761Y-59404761D02*
X149922142Y-59404761D01*
X149922142Y-59404761D02*
X149826904Y-59452380D01*
X149826904Y-59452380D02*
X149779285Y-59547618D01*
X149779285Y-59547618D02*
X149779285Y-59690475D01*
X149779285Y-59690475D02*
X149731666Y-59785713D01*
X149731666Y-59785713D02*
X149636428Y-59833332D01*
X149636428Y-59833332D02*
X149588809Y-59833332D01*
X149588809Y-59833332D02*
X149493571Y-59785713D01*
X149493571Y-59785713D02*
X149445952Y-59690475D01*
X149445952Y-59690475D02*
X149445952Y-59547618D01*
X149445952Y-59547618D02*
X149493571Y-59452380D01*
X141430476Y-62962619D02*
X141430476Y-63676904D01*
X141430476Y-63676904D02*
X141382857Y-63819761D01*
X141382857Y-63819761D02*
X141287619Y-63915000D01*
X141287619Y-63915000D02*
X141144762Y-63962619D01*
X141144762Y-63962619D02*
X141049524Y-63962619D01*
X142430476Y-63962619D02*
X141859048Y-63962619D01*
X142144762Y-63962619D02*
X142144762Y-62962619D01*
X142144762Y-62962619D02*
X142049524Y-63105476D01*
X142049524Y-63105476D02*
X141954286Y-63200714D01*
X141954286Y-63200714D02*
X141859048Y-63248333D01*
X143382857Y-63962619D02*
X142811429Y-63962619D01*
X143097143Y-63962619D02*
X143097143Y-62962619D01*
X143097143Y-62962619D02*
X143001905Y-63105476D01*
X143001905Y-63105476D02*
X142906667Y-63200714D01*
X142906667Y-63200714D02*
X142811429Y-63248333D01*
%TO.C,R1*%
X96686905Y-47987857D02*
X96734524Y-47940238D01*
X96734524Y-47940238D02*
X96829762Y-47892619D01*
X96829762Y-47892619D02*
X97067857Y-47892619D01*
X97067857Y-47892619D02*
X97163095Y-47940238D01*
X97163095Y-47940238D02*
X97210714Y-47987857D01*
X97210714Y-47987857D02*
X97258333Y-48083095D01*
X97258333Y-48083095D02*
X97258333Y-48178333D01*
X97258333Y-48178333D02*
X97210714Y-48321190D01*
X97210714Y-48321190D02*
X96639286Y-48892619D01*
X96639286Y-48892619D02*
X97258333Y-48892619D01*
X97639286Y-47987857D02*
X97686905Y-47940238D01*
X97686905Y-47940238D02*
X97782143Y-47892619D01*
X97782143Y-47892619D02*
X98020238Y-47892619D01*
X98020238Y-47892619D02*
X98115476Y-47940238D01*
X98115476Y-47940238D02*
X98163095Y-47987857D01*
X98163095Y-47987857D02*
X98210714Y-48083095D01*
X98210714Y-48083095D02*
X98210714Y-48178333D01*
X98210714Y-48178333D02*
X98163095Y-48321190D01*
X98163095Y-48321190D02*
X97591667Y-48892619D01*
X97591667Y-48892619D02*
X98210714Y-48892619D01*
X98829762Y-47892619D02*
X98925000Y-47892619D01*
X98925000Y-47892619D02*
X99020238Y-47940238D01*
X99020238Y-47940238D02*
X99067857Y-47987857D01*
X99067857Y-47987857D02*
X99115476Y-48083095D01*
X99115476Y-48083095D02*
X99163095Y-48273571D01*
X99163095Y-48273571D02*
X99163095Y-48511666D01*
X99163095Y-48511666D02*
X99115476Y-48702142D01*
X99115476Y-48702142D02*
X99067857Y-48797380D01*
X99067857Y-48797380D02*
X99020238Y-48845000D01*
X99020238Y-48845000D02*
X98925000Y-48892619D01*
X98925000Y-48892619D02*
X98829762Y-48892619D01*
X98829762Y-48892619D02*
X98734524Y-48845000D01*
X98734524Y-48845000D02*
X98686905Y-48797380D01*
X98686905Y-48797380D02*
X98639286Y-48702142D01*
X98639286Y-48702142D02*
X98591667Y-48511666D01*
X98591667Y-48511666D02*
X98591667Y-48273571D01*
X98591667Y-48273571D02*
X98639286Y-48083095D01*
X98639286Y-48083095D02*
X98686905Y-47987857D01*
X98686905Y-47987857D02*
X98734524Y-47940238D01*
X98734524Y-47940238D02*
X98829762Y-47892619D01*
X100163095Y-48892619D02*
X99829762Y-48416428D01*
X99591667Y-48892619D02*
X99591667Y-47892619D01*
X99591667Y-47892619D02*
X99972619Y-47892619D01*
X99972619Y-47892619D02*
X100067857Y-47940238D01*
X100067857Y-47940238D02*
X100115476Y-47987857D01*
X100115476Y-47987857D02*
X100163095Y-48083095D01*
X100163095Y-48083095D02*
X100163095Y-48225952D01*
X100163095Y-48225952D02*
X100115476Y-48321190D01*
X100115476Y-48321190D02*
X100067857Y-48368809D01*
X100067857Y-48368809D02*
X99972619Y-48416428D01*
X99972619Y-48416428D02*
X99591667Y-48416428D01*
X98258333Y-51262619D02*
X97925000Y-50786428D01*
X97686905Y-51262619D02*
X97686905Y-50262619D01*
X97686905Y-50262619D02*
X98067857Y-50262619D01*
X98067857Y-50262619D02*
X98163095Y-50310238D01*
X98163095Y-50310238D02*
X98210714Y-50357857D01*
X98210714Y-50357857D02*
X98258333Y-50453095D01*
X98258333Y-50453095D02*
X98258333Y-50595952D01*
X98258333Y-50595952D02*
X98210714Y-50691190D01*
X98210714Y-50691190D02*
X98163095Y-50738809D01*
X98163095Y-50738809D02*
X98067857Y-50786428D01*
X98067857Y-50786428D02*
X97686905Y-50786428D01*
X99210714Y-51262619D02*
X98639286Y-51262619D01*
X98925000Y-51262619D02*
X98925000Y-50262619D01*
X98925000Y-50262619D02*
X98829762Y-50405476D01*
X98829762Y-50405476D02*
X98734524Y-50500714D01*
X98734524Y-50500714D02*
X98639286Y-50548333D01*
%TO.C,J10*%
X152227619Y-76865952D02*
X151227619Y-76865952D01*
X151227619Y-76865952D02*
X151227619Y-76485000D01*
X151227619Y-76485000D02*
X151275238Y-76389762D01*
X151275238Y-76389762D02*
X151322857Y-76342143D01*
X151322857Y-76342143D02*
X151418095Y-76294524D01*
X151418095Y-76294524D02*
X151560952Y-76294524D01*
X151560952Y-76294524D02*
X151656190Y-76342143D01*
X151656190Y-76342143D02*
X151703809Y-76389762D01*
X151703809Y-76389762D02*
X151751428Y-76485000D01*
X151751428Y-76485000D02*
X151751428Y-76865952D01*
X151227619Y-75961190D02*
X152227619Y-75723095D01*
X152227619Y-75723095D02*
X151513333Y-75532619D01*
X151513333Y-75532619D02*
X152227619Y-75342143D01*
X152227619Y-75342143D02*
X151227619Y-75104048D01*
X152227619Y-74151667D02*
X151751428Y-74485000D01*
X152227619Y-74723095D02*
X151227619Y-74723095D01*
X151227619Y-74723095D02*
X151227619Y-74342143D01*
X151227619Y-74342143D02*
X151275238Y-74246905D01*
X151275238Y-74246905D02*
X151322857Y-74199286D01*
X151322857Y-74199286D02*
X151418095Y-74151667D01*
X151418095Y-74151667D02*
X151560952Y-74151667D01*
X151560952Y-74151667D02*
X151656190Y-74199286D01*
X151656190Y-74199286D02*
X151703809Y-74246905D01*
X151703809Y-74246905D02*
X151751428Y-74342143D01*
X151751428Y-74342143D02*
X151751428Y-74723095D01*
X152227619Y-72485000D02*
X152227619Y-72961190D01*
X152227619Y-72961190D02*
X151227619Y-72961190D01*
X151703809Y-72151666D02*
X151703809Y-71818333D01*
X152227619Y-71675476D02*
X152227619Y-72151666D01*
X152227619Y-72151666D02*
X151227619Y-72151666D01*
X151227619Y-72151666D02*
X151227619Y-71675476D01*
X152227619Y-71246904D02*
X151227619Y-71246904D01*
X151227619Y-71246904D02*
X151227619Y-71008809D01*
X151227619Y-71008809D02*
X151275238Y-70865952D01*
X151275238Y-70865952D02*
X151370476Y-70770714D01*
X151370476Y-70770714D02*
X151465714Y-70723095D01*
X151465714Y-70723095D02*
X151656190Y-70675476D01*
X151656190Y-70675476D02*
X151799047Y-70675476D01*
X151799047Y-70675476D02*
X151989523Y-70723095D01*
X151989523Y-70723095D02*
X152084761Y-70770714D01*
X152084761Y-70770714D02*
X152180000Y-70865952D01*
X152180000Y-70865952D02*
X152227619Y-71008809D01*
X152227619Y-71008809D02*
X152227619Y-71246904D01*
X151227619Y-59864523D02*
X151941904Y-59864523D01*
X151941904Y-59864523D02*
X152084761Y-59912142D01*
X152084761Y-59912142D02*
X152180000Y-60007380D01*
X152180000Y-60007380D02*
X152227619Y-60150237D01*
X152227619Y-60150237D02*
X152227619Y-60245475D01*
X152227619Y-58864523D02*
X152227619Y-59435951D01*
X152227619Y-59150237D02*
X151227619Y-59150237D01*
X151227619Y-59150237D02*
X151370476Y-59245475D01*
X151370476Y-59245475D02*
X151465714Y-59340713D01*
X151465714Y-59340713D02*
X151513333Y-59435951D01*
X151227619Y-58245475D02*
X151227619Y-58150237D01*
X151227619Y-58150237D02*
X151275238Y-58054999D01*
X151275238Y-58054999D02*
X151322857Y-58007380D01*
X151322857Y-58007380D02*
X151418095Y-57959761D01*
X151418095Y-57959761D02*
X151608571Y-57912142D01*
X151608571Y-57912142D02*
X151846666Y-57912142D01*
X151846666Y-57912142D02*
X152037142Y-57959761D01*
X152037142Y-57959761D02*
X152132380Y-58007380D01*
X152132380Y-58007380D02*
X152180000Y-58054999D01*
X152180000Y-58054999D02*
X152227619Y-58150237D01*
X152227619Y-58150237D02*
X152227619Y-58245475D01*
X152227619Y-58245475D02*
X152180000Y-58340713D01*
X152180000Y-58340713D02*
X152132380Y-58388332D01*
X152132380Y-58388332D02*
X152037142Y-58435951D01*
X152037142Y-58435951D02*
X151846666Y-58483570D01*
X151846666Y-58483570D02*
X151608571Y-58483570D01*
X151608571Y-58483570D02*
X151418095Y-58435951D01*
X151418095Y-58435951D02*
X151322857Y-58388332D01*
X151322857Y-58388332D02*
X151275238Y-58340713D01*
X151275238Y-58340713D02*
X151227619Y-58245475D01*
%TO.C,J2*%
X149322619Y-88757142D02*
X150322619Y-88519047D01*
X150322619Y-88519047D02*
X149608333Y-88328571D01*
X149608333Y-88328571D02*
X150322619Y-88138095D01*
X150322619Y-88138095D02*
X149322619Y-87900000D01*
X150322619Y-87519047D02*
X149322619Y-87519047D01*
X150322619Y-87090476D02*
X149798809Y-87090476D01*
X149798809Y-87090476D02*
X149703571Y-87138095D01*
X149703571Y-87138095D02*
X149655952Y-87233333D01*
X149655952Y-87233333D02*
X149655952Y-87376190D01*
X149655952Y-87376190D02*
X149703571Y-87471428D01*
X149703571Y-87471428D02*
X149751190Y-87519047D01*
X150275000Y-86233333D02*
X150322619Y-86328571D01*
X150322619Y-86328571D02*
X150322619Y-86519047D01*
X150322619Y-86519047D02*
X150275000Y-86614285D01*
X150275000Y-86614285D02*
X150179761Y-86661904D01*
X150179761Y-86661904D02*
X149798809Y-86661904D01*
X149798809Y-86661904D02*
X149703571Y-86614285D01*
X149703571Y-86614285D02*
X149655952Y-86519047D01*
X149655952Y-86519047D02*
X149655952Y-86328571D01*
X149655952Y-86328571D02*
X149703571Y-86233333D01*
X149703571Y-86233333D02*
X149798809Y-86185714D01*
X149798809Y-86185714D02*
X149894047Y-86185714D01*
X149894047Y-86185714D02*
X149989285Y-86661904D01*
X150275000Y-85376190D02*
X150322619Y-85471428D01*
X150322619Y-85471428D02*
X150322619Y-85661904D01*
X150322619Y-85661904D02*
X150275000Y-85757142D01*
X150275000Y-85757142D02*
X150179761Y-85804761D01*
X150179761Y-85804761D02*
X149798809Y-85804761D01*
X149798809Y-85804761D02*
X149703571Y-85757142D01*
X149703571Y-85757142D02*
X149655952Y-85661904D01*
X149655952Y-85661904D02*
X149655952Y-85471428D01*
X149655952Y-85471428D02*
X149703571Y-85376190D01*
X149703571Y-85376190D02*
X149798809Y-85328571D01*
X149798809Y-85328571D02*
X149894047Y-85328571D01*
X149894047Y-85328571D02*
X149989285Y-85804761D01*
X150322619Y-84757142D02*
X150275000Y-84852380D01*
X150275000Y-84852380D02*
X150179761Y-84899999D01*
X150179761Y-84899999D02*
X149322619Y-84899999D01*
X150322619Y-83042856D02*
X149846428Y-83376189D01*
X150322619Y-83614284D02*
X149322619Y-83614284D01*
X149322619Y-83614284D02*
X149322619Y-83233332D01*
X149322619Y-83233332D02*
X149370238Y-83138094D01*
X149370238Y-83138094D02*
X149417857Y-83090475D01*
X149417857Y-83090475D02*
X149513095Y-83042856D01*
X149513095Y-83042856D02*
X149655952Y-83042856D01*
X149655952Y-83042856D02*
X149751190Y-83090475D01*
X149751190Y-83090475D02*
X149798809Y-83138094D01*
X149798809Y-83138094D02*
X149846428Y-83233332D01*
X149846428Y-83233332D02*
X149846428Y-83614284D01*
X150322619Y-82614284D02*
X149655952Y-82614284D01*
X149322619Y-82614284D02*
X149370238Y-82661903D01*
X149370238Y-82661903D02*
X149417857Y-82614284D01*
X149417857Y-82614284D02*
X149370238Y-82566665D01*
X149370238Y-82566665D02*
X149322619Y-82614284D01*
X149322619Y-82614284D02*
X149417857Y-82614284D01*
X149655952Y-81709523D02*
X150465476Y-81709523D01*
X150465476Y-81709523D02*
X150560714Y-81757142D01*
X150560714Y-81757142D02*
X150608333Y-81804761D01*
X150608333Y-81804761D02*
X150655952Y-81899999D01*
X150655952Y-81899999D02*
X150655952Y-82042856D01*
X150655952Y-82042856D02*
X150608333Y-82138094D01*
X150275000Y-81709523D02*
X150322619Y-81804761D01*
X150322619Y-81804761D02*
X150322619Y-81995237D01*
X150322619Y-81995237D02*
X150275000Y-82090475D01*
X150275000Y-82090475D02*
X150227380Y-82138094D01*
X150227380Y-82138094D02*
X150132142Y-82185713D01*
X150132142Y-82185713D02*
X149846428Y-82185713D01*
X149846428Y-82185713D02*
X149751190Y-82138094D01*
X149751190Y-82138094D02*
X149703571Y-82090475D01*
X149703571Y-82090475D02*
X149655952Y-81995237D01*
X149655952Y-81995237D02*
X149655952Y-81804761D01*
X149655952Y-81804761D02*
X149703571Y-81709523D01*
X150322619Y-81233332D02*
X149322619Y-81233332D01*
X150322619Y-80804761D02*
X149798809Y-80804761D01*
X149798809Y-80804761D02*
X149703571Y-80852380D01*
X149703571Y-80852380D02*
X149655952Y-80947618D01*
X149655952Y-80947618D02*
X149655952Y-81090475D01*
X149655952Y-81090475D02*
X149703571Y-81185713D01*
X149703571Y-81185713D02*
X149751190Y-81233332D01*
X149655952Y-80471427D02*
X149655952Y-80090475D01*
X149322619Y-80328570D02*
X150179761Y-80328570D01*
X150179761Y-80328570D02*
X150275000Y-80280951D01*
X150275000Y-80280951D02*
X150322619Y-80185713D01*
X150322619Y-80185713D02*
X150322619Y-80090475D01*
X149322619Y-84153333D02*
X150036904Y-84153333D01*
X150036904Y-84153333D02*
X150179761Y-84200952D01*
X150179761Y-84200952D02*
X150275000Y-84296190D01*
X150275000Y-84296190D02*
X150322619Y-84439047D01*
X150322619Y-84439047D02*
X150322619Y-84534285D01*
X149417857Y-83724761D02*
X149370238Y-83677142D01*
X149370238Y-83677142D02*
X149322619Y-83581904D01*
X149322619Y-83581904D02*
X149322619Y-83343809D01*
X149322619Y-83343809D02*
X149370238Y-83248571D01*
X149370238Y-83248571D02*
X149417857Y-83200952D01*
X149417857Y-83200952D02*
X149513095Y-83153333D01*
X149513095Y-83153333D02*
X149608333Y-83153333D01*
X149608333Y-83153333D02*
X149751190Y-83200952D01*
X149751190Y-83200952D02*
X150322619Y-83772380D01*
X150322619Y-83772380D02*
X150322619Y-83153333D01*
%TO.C,R2*%
X96686905Y-53067857D02*
X96734524Y-53020238D01*
X96734524Y-53020238D02*
X96829762Y-52972619D01*
X96829762Y-52972619D02*
X97067857Y-52972619D01*
X97067857Y-52972619D02*
X97163095Y-53020238D01*
X97163095Y-53020238D02*
X97210714Y-53067857D01*
X97210714Y-53067857D02*
X97258333Y-53163095D01*
X97258333Y-53163095D02*
X97258333Y-53258333D01*
X97258333Y-53258333D02*
X97210714Y-53401190D01*
X97210714Y-53401190D02*
X96639286Y-53972619D01*
X96639286Y-53972619D02*
X97258333Y-53972619D01*
X97639286Y-53067857D02*
X97686905Y-53020238D01*
X97686905Y-53020238D02*
X97782143Y-52972619D01*
X97782143Y-52972619D02*
X98020238Y-52972619D01*
X98020238Y-52972619D02*
X98115476Y-53020238D01*
X98115476Y-53020238D02*
X98163095Y-53067857D01*
X98163095Y-53067857D02*
X98210714Y-53163095D01*
X98210714Y-53163095D02*
X98210714Y-53258333D01*
X98210714Y-53258333D02*
X98163095Y-53401190D01*
X98163095Y-53401190D02*
X97591667Y-53972619D01*
X97591667Y-53972619D02*
X98210714Y-53972619D01*
X98829762Y-52972619D02*
X98925000Y-52972619D01*
X98925000Y-52972619D02*
X99020238Y-53020238D01*
X99020238Y-53020238D02*
X99067857Y-53067857D01*
X99067857Y-53067857D02*
X99115476Y-53163095D01*
X99115476Y-53163095D02*
X99163095Y-53353571D01*
X99163095Y-53353571D02*
X99163095Y-53591666D01*
X99163095Y-53591666D02*
X99115476Y-53782142D01*
X99115476Y-53782142D02*
X99067857Y-53877380D01*
X99067857Y-53877380D02*
X99020238Y-53925000D01*
X99020238Y-53925000D02*
X98925000Y-53972619D01*
X98925000Y-53972619D02*
X98829762Y-53972619D01*
X98829762Y-53972619D02*
X98734524Y-53925000D01*
X98734524Y-53925000D02*
X98686905Y-53877380D01*
X98686905Y-53877380D02*
X98639286Y-53782142D01*
X98639286Y-53782142D02*
X98591667Y-53591666D01*
X98591667Y-53591666D02*
X98591667Y-53353571D01*
X98591667Y-53353571D02*
X98639286Y-53163095D01*
X98639286Y-53163095D02*
X98686905Y-53067857D01*
X98686905Y-53067857D02*
X98734524Y-53020238D01*
X98734524Y-53020238D02*
X98829762Y-52972619D01*
X100163095Y-53972619D02*
X99829762Y-53496428D01*
X99591667Y-53972619D02*
X99591667Y-52972619D01*
X99591667Y-52972619D02*
X99972619Y-52972619D01*
X99972619Y-52972619D02*
X100067857Y-53020238D01*
X100067857Y-53020238D02*
X100115476Y-53067857D01*
X100115476Y-53067857D02*
X100163095Y-53163095D01*
X100163095Y-53163095D02*
X100163095Y-53305952D01*
X100163095Y-53305952D02*
X100115476Y-53401190D01*
X100115476Y-53401190D02*
X100067857Y-53448809D01*
X100067857Y-53448809D02*
X99972619Y-53496428D01*
X99972619Y-53496428D02*
X99591667Y-53496428D01*
X98258333Y-56342619D02*
X97925000Y-55866428D01*
X97686905Y-56342619D02*
X97686905Y-55342619D01*
X97686905Y-55342619D02*
X98067857Y-55342619D01*
X98067857Y-55342619D02*
X98163095Y-55390238D01*
X98163095Y-55390238D02*
X98210714Y-55437857D01*
X98210714Y-55437857D02*
X98258333Y-55533095D01*
X98258333Y-55533095D02*
X98258333Y-55675952D01*
X98258333Y-55675952D02*
X98210714Y-55771190D01*
X98210714Y-55771190D02*
X98163095Y-55818809D01*
X98163095Y-55818809D02*
X98067857Y-55866428D01*
X98067857Y-55866428D02*
X97686905Y-55866428D01*
X98639286Y-55437857D02*
X98686905Y-55390238D01*
X98686905Y-55390238D02*
X98782143Y-55342619D01*
X98782143Y-55342619D02*
X99020238Y-55342619D01*
X99020238Y-55342619D02*
X99115476Y-55390238D01*
X99115476Y-55390238D02*
X99163095Y-55437857D01*
X99163095Y-55437857D02*
X99210714Y-55533095D01*
X99210714Y-55533095D02*
X99210714Y-55628333D01*
X99210714Y-55628333D02*
X99163095Y-55771190D01*
X99163095Y-55771190D02*
X98591667Y-56342619D01*
X98591667Y-56342619D02*
X99210714Y-56342619D01*
%TO.C,R6*%
X97517857Y-108418094D02*
X97470238Y-108370475D01*
X97470238Y-108370475D02*
X97422619Y-108275237D01*
X97422619Y-108275237D02*
X97422619Y-108037142D01*
X97422619Y-108037142D02*
X97470238Y-107941904D01*
X97470238Y-107941904D02*
X97517857Y-107894285D01*
X97517857Y-107894285D02*
X97613095Y-107846666D01*
X97613095Y-107846666D02*
X97708333Y-107846666D01*
X97708333Y-107846666D02*
X97851190Y-107894285D01*
X97851190Y-107894285D02*
X98422619Y-108465713D01*
X98422619Y-108465713D02*
X98422619Y-107846666D01*
X97517857Y-107465713D02*
X97470238Y-107418094D01*
X97470238Y-107418094D02*
X97422619Y-107322856D01*
X97422619Y-107322856D02*
X97422619Y-107084761D01*
X97422619Y-107084761D02*
X97470238Y-106989523D01*
X97470238Y-106989523D02*
X97517857Y-106941904D01*
X97517857Y-106941904D02*
X97613095Y-106894285D01*
X97613095Y-106894285D02*
X97708333Y-106894285D01*
X97708333Y-106894285D02*
X97851190Y-106941904D01*
X97851190Y-106941904D02*
X98422619Y-107513332D01*
X98422619Y-107513332D02*
X98422619Y-106894285D01*
X97422619Y-106275237D02*
X97422619Y-106179999D01*
X97422619Y-106179999D02*
X97470238Y-106084761D01*
X97470238Y-106084761D02*
X97517857Y-106037142D01*
X97517857Y-106037142D02*
X97613095Y-105989523D01*
X97613095Y-105989523D02*
X97803571Y-105941904D01*
X97803571Y-105941904D02*
X98041666Y-105941904D01*
X98041666Y-105941904D02*
X98232142Y-105989523D01*
X98232142Y-105989523D02*
X98327380Y-106037142D01*
X98327380Y-106037142D02*
X98375000Y-106084761D01*
X98375000Y-106084761D02*
X98422619Y-106179999D01*
X98422619Y-106179999D02*
X98422619Y-106275237D01*
X98422619Y-106275237D02*
X98375000Y-106370475D01*
X98375000Y-106370475D02*
X98327380Y-106418094D01*
X98327380Y-106418094D02*
X98232142Y-106465713D01*
X98232142Y-106465713D02*
X98041666Y-106513332D01*
X98041666Y-106513332D02*
X97803571Y-106513332D01*
X97803571Y-106513332D02*
X97613095Y-106465713D01*
X97613095Y-106465713D02*
X97517857Y-106418094D01*
X97517857Y-106418094D02*
X97470238Y-106370475D01*
X97470238Y-106370475D02*
X97422619Y-106275237D01*
X98422619Y-104941904D02*
X97946428Y-105275237D01*
X98422619Y-105513332D02*
X97422619Y-105513332D01*
X97422619Y-105513332D02*
X97422619Y-105132380D01*
X97422619Y-105132380D02*
X97470238Y-105037142D01*
X97470238Y-105037142D02*
X97517857Y-104989523D01*
X97517857Y-104989523D02*
X97613095Y-104941904D01*
X97613095Y-104941904D02*
X97755952Y-104941904D01*
X97755952Y-104941904D02*
X97851190Y-104989523D01*
X97851190Y-104989523D02*
X97898809Y-105037142D01*
X97898809Y-105037142D02*
X97946428Y-105132380D01*
X97946428Y-105132380D02*
X97946428Y-105513332D01*
X100792619Y-106846666D02*
X100316428Y-107179999D01*
X100792619Y-107418094D02*
X99792619Y-107418094D01*
X99792619Y-107418094D02*
X99792619Y-107037142D01*
X99792619Y-107037142D02*
X99840238Y-106941904D01*
X99840238Y-106941904D02*
X99887857Y-106894285D01*
X99887857Y-106894285D02*
X99983095Y-106846666D01*
X99983095Y-106846666D02*
X100125952Y-106846666D01*
X100125952Y-106846666D02*
X100221190Y-106894285D01*
X100221190Y-106894285D02*
X100268809Y-106941904D01*
X100268809Y-106941904D02*
X100316428Y-107037142D01*
X100316428Y-107037142D02*
X100316428Y-107418094D01*
X99792619Y-105989523D02*
X99792619Y-106179999D01*
X99792619Y-106179999D02*
X99840238Y-106275237D01*
X99840238Y-106275237D02*
X99887857Y-106322856D01*
X99887857Y-106322856D02*
X100030714Y-106418094D01*
X100030714Y-106418094D02*
X100221190Y-106465713D01*
X100221190Y-106465713D02*
X100602142Y-106465713D01*
X100602142Y-106465713D02*
X100697380Y-106418094D01*
X100697380Y-106418094D02*
X100745000Y-106370475D01*
X100745000Y-106370475D02*
X100792619Y-106275237D01*
X100792619Y-106275237D02*
X100792619Y-106084761D01*
X100792619Y-106084761D02*
X100745000Y-105989523D01*
X100745000Y-105989523D02*
X100697380Y-105941904D01*
X100697380Y-105941904D02*
X100602142Y-105894285D01*
X100602142Y-105894285D02*
X100364047Y-105894285D01*
X100364047Y-105894285D02*
X100268809Y-105941904D01*
X100268809Y-105941904D02*
X100221190Y-105989523D01*
X100221190Y-105989523D02*
X100173571Y-106084761D01*
X100173571Y-106084761D02*
X100173571Y-106275237D01*
X100173571Y-106275237D02*
X100221190Y-106370475D01*
X100221190Y-106370475D02*
X100268809Y-106418094D01*
X100268809Y-106418094D02*
X100364047Y-106465713D01*
%TO.C,BZ1*%
X91416428Y-73183809D02*
X91559285Y-73231428D01*
X91559285Y-73231428D02*
X91606904Y-73279047D01*
X91606904Y-73279047D02*
X91654523Y-73374285D01*
X91654523Y-73374285D02*
X91654523Y-73517142D01*
X91654523Y-73517142D02*
X91606904Y-73612380D01*
X91606904Y-73612380D02*
X91559285Y-73660000D01*
X91559285Y-73660000D02*
X91464047Y-73707619D01*
X91464047Y-73707619D02*
X91083095Y-73707619D01*
X91083095Y-73707619D02*
X91083095Y-72707619D01*
X91083095Y-72707619D02*
X91416428Y-72707619D01*
X91416428Y-72707619D02*
X91511666Y-72755238D01*
X91511666Y-72755238D02*
X91559285Y-72802857D01*
X91559285Y-72802857D02*
X91606904Y-72898095D01*
X91606904Y-72898095D02*
X91606904Y-72993333D01*
X91606904Y-72993333D02*
X91559285Y-73088571D01*
X91559285Y-73088571D02*
X91511666Y-73136190D01*
X91511666Y-73136190D02*
X91416428Y-73183809D01*
X91416428Y-73183809D02*
X91083095Y-73183809D01*
X92511666Y-73040952D02*
X92511666Y-73707619D01*
X92083095Y-73040952D02*
X92083095Y-73564761D01*
X92083095Y-73564761D02*
X92130714Y-73660000D01*
X92130714Y-73660000D02*
X92225952Y-73707619D01*
X92225952Y-73707619D02*
X92368809Y-73707619D01*
X92368809Y-73707619D02*
X92464047Y-73660000D01*
X92464047Y-73660000D02*
X92511666Y-73612380D01*
X92892619Y-73040952D02*
X93416428Y-73040952D01*
X93416428Y-73040952D02*
X92892619Y-73707619D01*
X92892619Y-73707619D02*
X93416428Y-73707619D01*
X93702143Y-73040952D02*
X94225952Y-73040952D01*
X94225952Y-73040952D02*
X93702143Y-73707619D01*
X93702143Y-73707619D02*
X94225952Y-73707619D01*
X94987857Y-73660000D02*
X94892619Y-73707619D01*
X94892619Y-73707619D02*
X94702143Y-73707619D01*
X94702143Y-73707619D02*
X94606905Y-73660000D01*
X94606905Y-73660000D02*
X94559286Y-73564761D01*
X94559286Y-73564761D02*
X94559286Y-73183809D01*
X94559286Y-73183809D02*
X94606905Y-73088571D01*
X94606905Y-73088571D02*
X94702143Y-73040952D01*
X94702143Y-73040952D02*
X94892619Y-73040952D01*
X94892619Y-73040952D02*
X94987857Y-73088571D01*
X94987857Y-73088571D02*
X95035476Y-73183809D01*
X95035476Y-73183809D02*
X95035476Y-73279047D01*
X95035476Y-73279047D02*
X94559286Y-73374285D01*
X95464048Y-73707619D02*
X95464048Y-73040952D01*
X95464048Y-73231428D02*
X95511667Y-73136190D01*
X95511667Y-73136190D02*
X95559286Y-73088571D01*
X95559286Y-73088571D02*
X95654524Y-73040952D01*
X95654524Y-73040952D02*
X95749762Y-73040952D01*
X96774048Y-83266666D02*
X97535953Y-83266666D01*
X97155000Y-83647619D02*
X97155000Y-82885714D01*
X92464047Y-84583809D02*
X92606904Y-84631428D01*
X92606904Y-84631428D02*
X92654523Y-84679047D01*
X92654523Y-84679047D02*
X92702142Y-84774285D01*
X92702142Y-84774285D02*
X92702142Y-84917142D01*
X92702142Y-84917142D02*
X92654523Y-85012380D01*
X92654523Y-85012380D02*
X92606904Y-85060000D01*
X92606904Y-85060000D02*
X92511666Y-85107619D01*
X92511666Y-85107619D02*
X92130714Y-85107619D01*
X92130714Y-85107619D02*
X92130714Y-84107619D01*
X92130714Y-84107619D02*
X92464047Y-84107619D01*
X92464047Y-84107619D02*
X92559285Y-84155238D01*
X92559285Y-84155238D02*
X92606904Y-84202857D01*
X92606904Y-84202857D02*
X92654523Y-84298095D01*
X92654523Y-84298095D02*
X92654523Y-84393333D01*
X92654523Y-84393333D02*
X92606904Y-84488571D01*
X92606904Y-84488571D02*
X92559285Y-84536190D01*
X92559285Y-84536190D02*
X92464047Y-84583809D01*
X92464047Y-84583809D02*
X92130714Y-84583809D01*
X93035476Y-84107619D02*
X93702142Y-84107619D01*
X93702142Y-84107619D02*
X93035476Y-85107619D01*
X93035476Y-85107619D02*
X93702142Y-85107619D01*
X94606904Y-85107619D02*
X94035476Y-85107619D01*
X94321190Y-85107619D02*
X94321190Y-84107619D01*
X94321190Y-84107619D02*
X94225952Y-84250476D01*
X94225952Y-84250476D02*
X94130714Y-84345714D01*
X94130714Y-84345714D02*
X94035476Y-84393333D01*
%TO.C,U1*%
X112669286Y-96513809D02*
X113002619Y-96513809D01*
X113145476Y-97037619D02*
X112669286Y-97037619D01*
X112669286Y-97037619D02*
X112669286Y-96037619D01*
X112669286Y-96037619D02*
X113145476Y-96037619D01*
X113526429Y-96990000D02*
X113669286Y-97037619D01*
X113669286Y-97037619D02*
X113907381Y-97037619D01*
X113907381Y-97037619D02*
X114002619Y-96990000D01*
X114002619Y-96990000D02*
X114050238Y-96942380D01*
X114050238Y-96942380D02*
X114097857Y-96847142D01*
X114097857Y-96847142D02*
X114097857Y-96751904D01*
X114097857Y-96751904D02*
X114050238Y-96656666D01*
X114050238Y-96656666D02*
X114002619Y-96609047D01*
X114002619Y-96609047D02*
X113907381Y-96561428D01*
X113907381Y-96561428D02*
X113716905Y-96513809D01*
X113716905Y-96513809D02*
X113621667Y-96466190D01*
X113621667Y-96466190D02*
X113574048Y-96418571D01*
X113574048Y-96418571D02*
X113526429Y-96323333D01*
X113526429Y-96323333D02*
X113526429Y-96228095D01*
X113526429Y-96228095D02*
X113574048Y-96132857D01*
X113574048Y-96132857D02*
X113621667Y-96085238D01*
X113621667Y-96085238D02*
X113716905Y-96037619D01*
X113716905Y-96037619D02*
X113955000Y-96037619D01*
X113955000Y-96037619D02*
X114097857Y-96085238D01*
X114526429Y-97037619D02*
X114526429Y-96037619D01*
X114526429Y-96037619D02*
X114907381Y-96037619D01*
X114907381Y-96037619D02*
X115002619Y-96085238D01*
X115002619Y-96085238D02*
X115050238Y-96132857D01*
X115050238Y-96132857D02*
X115097857Y-96228095D01*
X115097857Y-96228095D02*
X115097857Y-96370952D01*
X115097857Y-96370952D02*
X115050238Y-96466190D01*
X115050238Y-96466190D02*
X115002619Y-96513809D01*
X115002619Y-96513809D02*
X114907381Y-96561428D01*
X114907381Y-96561428D02*
X114526429Y-96561428D01*
X115431191Y-96037619D02*
X116050238Y-96037619D01*
X116050238Y-96037619D02*
X115716905Y-96418571D01*
X115716905Y-96418571D02*
X115859762Y-96418571D01*
X115859762Y-96418571D02*
X115955000Y-96466190D01*
X115955000Y-96466190D02*
X116002619Y-96513809D01*
X116002619Y-96513809D02*
X116050238Y-96609047D01*
X116050238Y-96609047D02*
X116050238Y-96847142D01*
X116050238Y-96847142D02*
X116002619Y-96942380D01*
X116002619Y-96942380D02*
X115955000Y-96990000D01*
X115955000Y-96990000D02*
X115859762Y-97037619D01*
X115859762Y-97037619D02*
X115574048Y-97037619D01*
X115574048Y-97037619D02*
X115478810Y-96990000D01*
X115478810Y-96990000D02*
X115431191Y-96942380D01*
X116431191Y-96132857D02*
X116478810Y-96085238D01*
X116478810Y-96085238D02*
X116574048Y-96037619D01*
X116574048Y-96037619D02*
X116812143Y-96037619D01*
X116812143Y-96037619D02*
X116907381Y-96085238D01*
X116907381Y-96085238D02*
X116955000Y-96132857D01*
X116955000Y-96132857D02*
X117002619Y-96228095D01*
X117002619Y-96228095D02*
X117002619Y-96323333D01*
X117002619Y-96323333D02*
X116955000Y-96466190D01*
X116955000Y-96466190D02*
X116383572Y-97037619D01*
X116383572Y-97037619D02*
X117002619Y-97037619D01*
X117431191Y-96656666D02*
X118193096Y-96656666D01*
X118669286Y-97037619D02*
X118669286Y-96037619D01*
X118669286Y-96037619D02*
X118907381Y-96037619D01*
X118907381Y-96037619D02*
X119050238Y-96085238D01*
X119050238Y-96085238D02*
X119145476Y-96180476D01*
X119145476Y-96180476D02*
X119193095Y-96275714D01*
X119193095Y-96275714D02*
X119240714Y-96466190D01*
X119240714Y-96466190D02*
X119240714Y-96609047D01*
X119240714Y-96609047D02*
X119193095Y-96799523D01*
X119193095Y-96799523D02*
X119145476Y-96894761D01*
X119145476Y-96894761D02*
X119050238Y-96990000D01*
X119050238Y-96990000D02*
X118907381Y-97037619D01*
X118907381Y-97037619D02*
X118669286Y-97037619D01*
X119669286Y-96513809D02*
X120002619Y-96513809D01*
X120145476Y-97037619D02*
X119669286Y-97037619D01*
X119669286Y-97037619D02*
X119669286Y-96037619D01*
X119669286Y-96037619D02*
X120145476Y-96037619D01*
X120431191Y-96037619D02*
X120764524Y-97037619D01*
X120764524Y-97037619D02*
X121097857Y-96037619D01*
X121431191Y-97037619D02*
X121431191Y-96037619D01*
X122002619Y-97037619D02*
X121574048Y-96466190D01*
X122002619Y-96037619D02*
X121431191Y-96609047D01*
X122431191Y-97037619D02*
X122431191Y-96037619D01*
X122764524Y-96037619D02*
X123335952Y-96037619D01*
X123050238Y-97037619D02*
X123050238Y-96037619D01*
X123669286Y-96656666D02*
X124431191Y-96656666D01*
X124764524Y-96037619D02*
X125097857Y-97037619D01*
X125097857Y-97037619D02*
X125431190Y-96037619D01*
X126288333Y-97037619D02*
X125716905Y-97037619D01*
X126002619Y-97037619D02*
X126002619Y-96037619D01*
X126002619Y-96037619D02*
X125907381Y-96180476D01*
X125907381Y-96180476D02*
X125812143Y-96275714D01*
X125812143Y-96275714D02*
X125716905Y-96323333D01*
%TO.C,J9*%
X147770712Y-38543809D02*
X147913569Y-38591428D01*
X147913569Y-38591428D02*
X147961188Y-38639047D01*
X147961188Y-38639047D02*
X148008807Y-38734285D01*
X148008807Y-38734285D02*
X148008807Y-38877142D01*
X148008807Y-38877142D02*
X147961188Y-38972380D01*
X147961188Y-38972380D02*
X147913569Y-39020000D01*
X147913569Y-39020000D02*
X147818331Y-39067619D01*
X147818331Y-39067619D02*
X147437379Y-39067619D01*
X147437379Y-39067619D02*
X147437379Y-38067619D01*
X147437379Y-38067619D02*
X147770712Y-38067619D01*
X147770712Y-38067619D02*
X147865950Y-38115238D01*
X147865950Y-38115238D02*
X147913569Y-38162857D01*
X147913569Y-38162857D02*
X147961188Y-38258095D01*
X147961188Y-38258095D02*
X147961188Y-38353333D01*
X147961188Y-38353333D02*
X147913569Y-38448571D01*
X147913569Y-38448571D02*
X147865950Y-38496190D01*
X147865950Y-38496190D02*
X147770712Y-38543809D01*
X147770712Y-38543809D02*
X147437379Y-38543809D01*
X148865950Y-39067619D02*
X148865950Y-38543809D01*
X148865950Y-38543809D02*
X148818331Y-38448571D01*
X148818331Y-38448571D02*
X148723093Y-38400952D01*
X148723093Y-38400952D02*
X148532617Y-38400952D01*
X148532617Y-38400952D02*
X148437379Y-38448571D01*
X148865950Y-39020000D02*
X148770712Y-39067619D01*
X148770712Y-39067619D02*
X148532617Y-39067619D01*
X148532617Y-39067619D02*
X148437379Y-39020000D01*
X148437379Y-39020000D02*
X148389760Y-38924761D01*
X148389760Y-38924761D02*
X148389760Y-38829523D01*
X148389760Y-38829523D02*
X148437379Y-38734285D01*
X148437379Y-38734285D02*
X148532617Y-38686666D01*
X148532617Y-38686666D02*
X148770712Y-38686666D01*
X148770712Y-38686666D02*
X148865950Y-38639047D01*
X149199284Y-38400952D02*
X149580236Y-38400952D01*
X149342141Y-38067619D02*
X149342141Y-38924761D01*
X149342141Y-38924761D02*
X149389760Y-39020000D01*
X149389760Y-39020000D02*
X149484998Y-39067619D01*
X149484998Y-39067619D02*
X149580236Y-39067619D01*
X149770713Y-38400952D02*
X150151665Y-38400952D01*
X149913570Y-38067619D02*
X149913570Y-38924761D01*
X149913570Y-38924761D02*
X149961189Y-39020000D01*
X149961189Y-39020000D02*
X150056427Y-39067619D01*
X150056427Y-39067619D02*
X150151665Y-39067619D01*
X150865951Y-39020000D02*
X150770713Y-39067619D01*
X150770713Y-39067619D02*
X150580237Y-39067619D01*
X150580237Y-39067619D02*
X150484999Y-39020000D01*
X150484999Y-39020000D02*
X150437380Y-38924761D01*
X150437380Y-38924761D02*
X150437380Y-38543809D01*
X150437380Y-38543809D02*
X150484999Y-38448571D01*
X150484999Y-38448571D02*
X150580237Y-38400952D01*
X150580237Y-38400952D02*
X150770713Y-38400952D01*
X150770713Y-38400952D02*
X150865951Y-38448571D01*
X150865951Y-38448571D02*
X150913570Y-38543809D01*
X150913570Y-38543809D02*
X150913570Y-38639047D01*
X150913570Y-38639047D02*
X150437380Y-38734285D01*
X151342142Y-39067619D02*
X151342142Y-38400952D01*
X151342142Y-38591428D02*
X151389761Y-38496190D01*
X151389761Y-38496190D02*
X151437380Y-38448571D01*
X151437380Y-38448571D02*
X151532618Y-38400952D01*
X151532618Y-38400952D02*
X151627856Y-38400952D01*
X151865952Y-38400952D02*
X152104047Y-39067619D01*
X152342142Y-38400952D02*
X152104047Y-39067619D01*
X152104047Y-39067619D02*
X152008809Y-39305714D01*
X152008809Y-39305714D02*
X151961190Y-39353333D01*
X151961190Y-39353333D02*
X151865952Y-39400952D01*
X154056428Y-38972380D02*
X154008809Y-39020000D01*
X154008809Y-39020000D02*
X153865952Y-39067619D01*
X153865952Y-39067619D02*
X153770714Y-39067619D01*
X153770714Y-39067619D02*
X153627857Y-39020000D01*
X153627857Y-39020000D02*
X153532619Y-38924761D01*
X153532619Y-38924761D02*
X153485000Y-38829523D01*
X153485000Y-38829523D02*
X153437381Y-38639047D01*
X153437381Y-38639047D02*
X153437381Y-38496190D01*
X153437381Y-38496190D02*
X153485000Y-38305714D01*
X153485000Y-38305714D02*
X153532619Y-38210476D01*
X153532619Y-38210476D02*
X153627857Y-38115238D01*
X153627857Y-38115238D02*
X153770714Y-38067619D01*
X153770714Y-38067619D02*
X153865952Y-38067619D01*
X153865952Y-38067619D02*
X154008809Y-38115238D01*
X154008809Y-38115238D02*
X154056428Y-38162857D01*
X154627857Y-39067619D02*
X154532619Y-39020000D01*
X154532619Y-39020000D02*
X154485000Y-38972380D01*
X154485000Y-38972380D02*
X154437381Y-38877142D01*
X154437381Y-38877142D02*
X154437381Y-38591428D01*
X154437381Y-38591428D02*
X154485000Y-38496190D01*
X154485000Y-38496190D02*
X154532619Y-38448571D01*
X154532619Y-38448571D02*
X154627857Y-38400952D01*
X154627857Y-38400952D02*
X154770714Y-38400952D01*
X154770714Y-38400952D02*
X154865952Y-38448571D01*
X154865952Y-38448571D02*
X154913571Y-38496190D01*
X154913571Y-38496190D02*
X154961190Y-38591428D01*
X154961190Y-38591428D02*
X154961190Y-38877142D01*
X154961190Y-38877142D02*
X154913571Y-38972380D01*
X154913571Y-38972380D02*
X154865952Y-39020000D01*
X154865952Y-39020000D02*
X154770714Y-39067619D01*
X154770714Y-39067619D02*
X154627857Y-39067619D01*
X155389762Y-38400952D02*
X155389762Y-39067619D01*
X155389762Y-38496190D02*
X155437381Y-38448571D01*
X155437381Y-38448571D02*
X155532619Y-38400952D01*
X155532619Y-38400952D02*
X155675476Y-38400952D01*
X155675476Y-38400952D02*
X155770714Y-38448571D01*
X155770714Y-38448571D02*
X155818333Y-38543809D01*
X155818333Y-38543809D02*
X155818333Y-39067619D01*
X156294524Y-38400952D02*
X156294524Y-39067619D01*
X156294524Y-38496190D02*
X156342143Y-38448571D01*
X156342143Y-38448571D02*
X156437381Y-38400952D01*
X156437381Y-38400952D02*
X156580238Y-38400952D01*
X156580238Y-38400952D02*
X156675476Y-38448571D01*
X156675476Y-38448571D02*
X156723095Y-38543809D01*
X156723095Y-38543809D02*
X156723095Y-39067619D01*
X157580238Y-39020000D02*
X157485000Y-39067619D01*
X157485000Y-39067619D02*
X157294524Y-39067619D01*
X157294524Y-39067619D02*
X157199286Y-39020000D01*
X157199286Y-39020000D02*
X157151667Y-38924761D01*
X157151667Y-38924761D02*
X157151667Y-38543809D01*
X157151667Y-38543809D02*
X157199286Y-38448571D01*
X157199286Y-38448571D02*
X157294524Y-38400952D01*
X157294524Y-38400952D02*
X157485000Y-38400952D01*
X157485000Y-38400952D02*
X157580238Y-38448571D01*
X157580238Y-38448571D02*
X157627857Y-38543809D01*
X157627857Y-38543809D02*
X157627857Y-38639047D01*
X157627857Y-38639047D02*
X157151667Y-38734285D01*
X158485000Y-39020000D02*
X158389762Y-39067619D01*
X158389762Y-39067619D02*
X158199286Y-39067619D01*
X158199286Y-39067619D02*
X158104048Y-39020000D01*
X158104048Y-39020000D02*
X158056429Y-38972380D01*
X158056429Y-38972380D02*
X158008810Y-38877142D01*
X158008810Y-38877142D02*
X158008810Y-38591428D01*
X158008810Y-38591428D02*
X158056429Y-38496190D01*
X158056429Y-38496190D02*
X158104048Y-38448571D01*
X158104048Y-38448571D02*
X158199286Y-38400952D01*
X158199286Y-38400952D02*
X158389762Y-38400952D01*
X158389762Y-38400952D02*
X158485000Y-38448571D01*
X158770715Y-38400952D02*
X159151667Y-38400952D01*
X158913572Y-38067619D02*
X158913572Y-38924761D01*
X158913572Y-38924761D02*
X158961191Y-39020000D01*
X158961191Y-39020000D02*
X159056429Y-39067619D01*
X159056429Y-39067619D02*
X159151667Y-39067619D01*
X159627858Y-39067619D02*
X159532620Y-39020000D01*
X159532620Y-39020000D02*
X159485001Y-38972380D01*
X159485001Y-38972380D02*
X159437382Y-38877142D01*
X159437382Y-38877142D02*
X159437382Y-38591428D01*
X159437382Y-38591428D02*
X159485001Y-38496190D01*
X159485001Y-38496190D02*
X159532620Y-38448571D01*
X159532620Y-38448571D02*
X159627858Y-38400952D01*
X159627858Y-38400952D02*
X159770715Y-38400952D01*
X159770715Y-38400952D02*
X159865953Y-38448571D01*
X159865953Y-38448571D02*
X159913572Y-38496190D01*
X159913572Y-38496190D02*
X159961191Y-38591428D01*
X159961191Y-38591428D02*
X159961191Y-38877142D01*
X159961191Y-38877142D02*
X159913572Y-38972380D01*
X159913572Y-38972380D02*
X159865953Y-39020000D01*
X159865953Y-39020000D02*
X159770715Y-39067619D01*
X159770715Y-39067619D02*
X159627858Y-39067619D01*
X160389763Y-39067619D02*
X160389763Y-38400952D01*
X160389763Y-38591428D02*
X160437382Y-38496190D01*
X160437382Y-38496190D02*
X160485001Y-38448571D01*
X160485001Y-38448571D02*
X160580239Y-38400952D01*
X160580239Y-38400952D02*
X160675477Y-38400952D01*
X153931666Y-47817619D02*
X153931666Y-48531904D01*
X153931666Y-48531904D02*
X153884047Y-48674761D01*
X153884047Y-48674761D02*
X153788809Y-48770000D01*
X153788809Y-48770000D02*
X153645952Y-48817619D01*
X153645952Y-48817619D02*
X153550714Y-48817619D01*
X154455476Y-48817619D02*
X154645952Y-48817619D01*
X154645952Y-48817619D02*
X154741190Y-48770000D01*
X154741190Y-48770000D02*
X154788809Y-48722380D01*
X154788809Y-48722380D02*
X154884047Y-48579523D01*
X154884047Y-48579523D02*
X154931666Y-48389047D01*
X154931666Y-48389047D02*
X154931666Y-48008095D01*
X154931666Y-48008095D02*
X154884047Y-47912857D01*
X154884047Y-47912857D02*
X154836428Y-47865238D01*
X154836428Y-47865238D02*
X154741190Y-47817619D01*
X154741190Y-47817619D02*
X154550714Y-47817619D01*
X154550714Y-47817619D02*
X154455476Y-47865238D01*
X154455476Y-47865238D02*
X154407857Y-47912857D01*
X154407857Y-47912857D02*
X154360238Y-48008095D01*
X154360238Y-48008095D02*
X154360238Y-48246190D01*
X154360238Y-48246190D02*
X154407857Y-48341428D01*
X154407857Y-48341428D02*
X154455476Y-48389047D01*
X154455476Y-48389047D02*
X154550714Y-48436666D01*
X154550714Y-48436666D02*
X154741190Y-48436666D01*
X154741190Y-48436666D02*
X154836428Y-48389047D01*
X154836428Y-48389047D02*
X154884047Y-48341428D01*
X154884047Y-48341428D02*
X154931666Y-48246190D01*
%TO.C,R5*%
X92437857Y-108418094D02*
X92390238Y-108370475D01*
X92390238Y-108370475D02*
X92342619Y-108275237D01*
X92342619Y-108275237D02*
X92342619Y-108037142D01*
X92342619Y-108037142D02*
X92390238Y-107941904D01*
X92390238Y-107941904D02*
X92437857Y-107894285D01*
X92437857Y-107894285D02*
X92533095Y-107846666D01*
X92533095Y-107846666D02*
X92628333Y-107846666D01*
X92628333Y-107846666D02*
X92771190Y-107894285D01*
X92771190Y-107894285D02*
X93342619Y-108465713D01*
X93342619Y-108465713D02*
X93342619Y-107846666D01*
X92437857Y-107465713D02*
X92390238Y-107418094D01*
X92390238Y-107418094D02*
X92342619Y-107322856D01*
X92342619Y-107322856D02*
X92342619Y-107084761D01*
X92342619Y-107084761D02*
X92390238Y-106989523D01*
X92390238Y-106989523D02*
X92437857Y-106941904D01*
X92437857Y-106941904D02*
X92533095Y-106894285D01*
X92533095Y-106894285D02*
X92628333Y-106894285D01*
X92628333Y-106894285D02*
X92771190Y-106941904D01*
X92771190Y-106941904D02*
X93342619Y-107513332D01*
X93342619Y-107513332D02*
X93342619Y-106894285D01*
X92342619Y-106275237D02*
X92342619Y-106179999D01*
X92342619Y-106179999D02*
X92390238Y-106084761D01*
X92390238Y-106084761D02*
X92437857Y-106037142D01*
X92437857Y-106037142D02*
X92533095Y-105989523D01*
X92533095Y-105989523D02*
X92723571Y-105941904D01*
X92723571Y-105941904D02*
X92961666Y-105941904D01*
X92961666Y-105941904D02*
X93152142Y-105989523D01*
X93152142Y-105989523D02*
X93247380Y-106037142D01*
X93247380Y-106037142D02*
X93295000Y-106084761D01*
X93295000Y-106084761D02*
X93342619Y-106179999D01*
X93342619Y-106179999D02*
X93342619Y-106275237D01*
X93342619Y-106275237D02*
X93295000Y-106370475D01*
X93295000Y-106370475D02*
X93247380Y-106418094D01*
X93247380Y-106418094D02*
X93152142Y-106465713D01*
X93152142Y-106465713D02*
X92961666Y-106513332D01*
X92961666Y-106513332D02*
X92723571Y-106513332D01*
X92723571Y-106513332D02*
X92533095Y-106465713D01*
X92533095Y-106465713D02*
X92437857Y-106418094D01*
X92437857Y-106418094D02*
X92390238Y-106370475D01*
X92390238Y-106370475D02*
X92342619Y-106275237D01*
X93342619Y-104941904D02*
X92866428Y-105275237D01*
X93342619Y-105513332D02*
X92342619Y-105513332D01*
X92342619Y-105513332D02*
X92342619Y-105132380D01*
X92342619Y-105132380D02*
X92390238Y-105037142D01*
X92390238Y-105037142D02*
X92437857Y-104989523D01*
X92437857Y-104989523D02*
X92533095Y-104941904D01*
X92533095Y-104941904D02*
X92675952Y-104941904D01*
X92675952Y-104941904D02*
X92771190Y-104989523D01*
X92771190Y-104989523D02*
X92818809Y-105037142D01*
X92818809Y-105037142D02*
X92866428Y-105132380D01*
X92866428Y-105132380D02*
X92866428Y-105513332D01*
X95712619Y-106846666D02*
X95236428Y-107179999D01*
X95712619Y-107418094D02*
X94712619Y-107418094D01*
X94712619Y-107418094D02*
X94712619Y-107037142D01*
X94712619Y-107037142D02*
X94760238Y-106941904D01*
X94760238Y-106941904D02*
X94807857Y-106894285D01*
X94807857Y-106894285D02*
X94903095Y-106846666D01*
X94903095Y-106846666D02*
X95045952Y-106846666D01*
X95045952Y-106846666D02*
X95141190Y-106894285D01*
X95141190Y-106894285D02*
X95188809Y-106941904D01*
X95188809Y-106941904D02*
X95236428Y-107037142D01*
X95236428Y-107037142D02*
X95236428Y-107418094D01*
X94712619Y-105941904D02*
X94712619Y-106418094D01*
X94712619Y-106418094D02*
X95188809Y-106465713D01*
X95188809Y-106465713D02*
X95141190Y-106418094D01*
X95141190Y-106418094D02*
X95093571Y-106322856D01*
X95093571Y-106322856D02*
X95093571Y-106084761D01*
X95093571Y-106084761D02*
X95141190Y-105989523D01*
X95141190Y-105989523D02*
X95188809Y-105941904D01*
X95188809Y-105941904D02*
X95284047Y-105894285D01*
X95284047Y-105894285D02*
X95522142Y-105894285D01*
X95522142Y-105894285D02*
X95617380Y-105941904D01*
X95617380Y-105941904D02*
X95665000Y-105989523D01*
X95665000Y-105989523D02*
X95712619Y-106084761D01*
X95712619Y-106084761D02*
X95712619Y-106322856D01*
X95712619Y-106322856D02*
X95665000Y-106418094D01*
X95665000Y-106418094D02*
X95617380Y-106465713D01*
%TO.C,R4*%
X88017857Y-108418094D02*
X87970238Y-108370475D01*
X87970238Y-108370475D02*
X87922619Y-108275237D01*
X87922619Y-108275237D02*
X87922619Y-108037142D01*
X87922619Y-108037142D02*
X87970238Y-107941904D01*
X87970238Y-107941904D02*
X88017857Y-107894285D01*
X88017857Y-107894285D02*
X88113095Y-107846666D01*
X88113095Y-107846666D02*
X88208333Y-107846666D01*
X88208333Y-107846666D02*
X88351190Y-107894285D01*
X88351190Y-107894285D02*
X88922619Y-108465713D01*
X88922619Y-108465713D02*
X88922619Y-107846666D01*
X88017857Y-107465713D02*
X87970238Y-107418094D01*
X87970238Y-107418094D02*
X87922619Y-107322856D01*
X87922619Y-107322856D02*
X87922619Y-107084761D01*
X87922619Y-107084761D02*
X87970238Y-106989523D01*
X87970238Y-106989523D02*
X88017857Y-106941904D01*
X88017857Y-106941904D02*
X88113095Y-106894285D01*
X88113095Y-106894285D02*
X88208333Y-106894285D01*
X88208333Y-106894285D02*
X88351190Y-106941904D01*
X88351190Y-106941904D02*
X88922619Y-107513332D01*
X88922619Y-107513332D02*
X88922619Y-106894285D01*
X87922619Y-106275237D02*
X87922619Y-106179999D01*
X87922619Y-106179999D02*
X87970238Y-106084761D01*
X87970238Y-106084761D02*
X88017857Y-106037142D01*
X88017857Y-106037142D02*
X88113095Y-105989523D01*
X88113095Y-105989523D02*
X88303571Y-105941904D01*
X88303571Y-105941904D02*
X88541666Y-105941904D01*
X88541666Y-105941904D02*
X88732142Y-105989523D01*
X88732142Y-105989523D02*
X88827380Y-106037142D01*
X88827380Y-106037142D02*
X88875000Y-106084761D01*
X88875000Y-106084761D02*
X88922619Y-106179999D01*
X88922619Y-106179999D02*
X88922619Y-106275237D01*
X88922619Y-106275237D02*
X88875000Y-106370475D01*
X88875000Y-106370475D02*
X88827380Y-106418094D01*
X88827380Y-106418094D02*
X88732142Y-106465713D01*
X88732142Y-106465713D02*
X88541666Y-106513332D01*
X88541666Y-106513332D02*
X88303571Y-106513332D01*
X88303571Y-106513332D02*
X88113095Y-106465713D01*
X88113095Y-106465713D02*
X88017857Y-106418094D01*
X88017857Y-106418094D02*
X87970238Y-106370475D01*
X87970238Y-106370475D02*
X87922619Y-106275237D01*
X88922619Y-104941904D02*
X88446428Y-105275237D01*
X88922619Y-105513332D02*
X87922619Y-105513332D01*
X87922619Y-105513332D02*
X87922619Y-105132380D01*
X87922619Y-105132380D02*
X87970238Y-105037142D01*
X87970238Y-105037142D02*
X88017857Y-104989523D01*
X88017857Y-104989523D02*
X88113095Y-104941904D01*
X88113095Y-104941904D02*
X88255952Y-104941904D01*
X88255952Y-104941904D02*
X88351190Y-104989523D01*
X88351190Y-104989523D02*
X88398809Y-105037142D01*
X88398809Y-105037142D02*
X88446428Y-105132380D01*
X88446428Y-105132380D02*
X88446428Y-105513332D01*
X91292619Y-106846666D02*
X90816428Y-107179999D01*
X91292619Y-107418094D02*
X90292619Y-107418094D01*
X90292619Y-107418094D02*
X90292619Y-107037142D01*
X90292619Y-107037142D02*
X90340238Y-106941904D01*
X90340238Y-106941904D02*
X90387857Y-106894285D01*
X90387857Y-106894285D02*
X90483095Y-106846666D01*
X90483095Y-106846666D02*
X90625952Y-106846666D01*
X90625952Y-106846666D02*
X90721190Y-106894285D01*
X90721190Y-106894285D02*
X90768809Y-106941904D01*
X90768809Y-106941904D02*
X90816428Y-107037142D01*
X90816428Y-107037142D02*
X90816428Y-107418094D01*
X90625952Y-105989523D02*
X91292619Y-105989523D01*
X90245000Y-106227618D02*
X90959285Y-106465713D01*
X90959285Y-106465713D02*
X90959285Y-105846666D01*
%TO.C,J8*%
X105060952Y-97462619D02*
X105251428Y-97462619D01*
X105251428Y-97462619D02*
X105346666Y-97510238D01*
X105346666Y-97510238D02*
X105441904Y-97605476D01*
X105441904Y-97605476D02*
X105489523Y-97795952D01*
X105489523Y-97795952D02*
X105489523Y-98129285D01*
X105489523Y-98129285D02*
X105441904Y-98319761D01*
X105441904Y-98319761D02*
X105346666Y-98415000D01*
X105346666Y-98415000D02*
X105251428Y-98462619D01*
X105251428Y-98462619D02*
X105060952Y-98462619D01*
X105060952Y-98462619D02*
X104965714Y-98415000D01*
X104965714Y-98415000D02*
X104870476Y-98319761D01*
X104870476Y-98319761D02*
X104822857Y-98129285D01*
X104822857Y-98129285D02*
X104822857Y-97795952D01*
X104822857Y-97795952D02*
X104870476Y-97605476D01*
X104870476Y-97605476D02*
X104965714Y-97510238D01*
X104965714Y-97510238D02*
X105060952Y-97462619D01*
X105918095Y-97462619D02*
X105918095Y-98272142D01*
X105918095Y-98272142D02*
X105965714Y-98367380D01*
X105965714Y-98367380D02*
X106013333Y-98415000D01*
X106013333Y-98415000D02*
X106108571Y-98462619D01*
X106108571Y-98462619D02*
X106299047Y-98462619D01*
X106299047Y-98462619D02*
X106394285Y-98415000D01*
X106394285Y-98415000D02*
X106441904Y-98367380D01*
X106441904Y-98367380D02*
X106489523Y-98272142D01*
X106489523Y-98272142D02*
X106489523Y-97462619D01*
X106822857Y-97462619D02*
X107394285Y-97462619D01*
X107108571Y-98462619D02*
X107108571Y-97462619D01*
X107727619Y-98081666D02*
X108489524Y-98081666D01*
X106142619Y-100663333D02*
X106856904Y-100663333D01*
X106856904Y-100663333D02*
X106999761Y-100710952D01*
X106999761Y-100710952D02*
X107095000Y-100806190D01*
X107095000Y-100806190D02*
X107142619Y-100949047D01*
X107142619Y-100949047D02*
X107142619Y-101044285D01*
X106571190Y-100044285D02*
X106523571Y-100139523D01*
X106523571Y-100139523D02*
X106475952Y-100187142D01*
X106475952Y-100187142D02*
X106380714Y-100234761D01*
X106380714Y-100234761D02*
X106333095Y-100234761D01*
X106333095Y-100234761D02*
X106237857Y-100187142D01*
X106237857Y-100187142D02*
X106190238Y-100139523D01*
X106190238Y-100139523D02*
X106142619Y-100044285D01*
X106142619Y-100044285D02*
X106142619Y-99853809D01*
X106142619Y-99853809D02*
X106190238Y-99758571D01*
X106190238Y-99758571D02*
X106237857Y-99710952D01*
X106237857Y-99710952D02*
X106333095Y-99663333D01*
X106333095Y-99663333D02*
X106380714Y-99663333D01*
X106380714Y-99663333D02*
X106475952Y-99710952D01*
X106475952Y-99710952D02*
X106523571Y-99758571D01*
X106523571Y-99758571D02*
X106571190Y-99853809D01*
X106571190Y-99853809D02*
X106571190Y-100044285D01*
X106571190Y-100044285D02*
X106618809Y-100139523D01*
X106618809Y-100139523D02*
X106666428Y-100187142D01*
X106666428Y-100187142D02*
X106761666Y-100234761D01*
X106761666Y-100234761D02*
X106952142Y-100234761D01*
X106952142Y-100234761D02*
X107047380Y-100187142D01*
X107047380Y-100187142D02*
X107095000Y-100139523D01*
X107095000Y-100139523D02*
X107142619Y-100044285D01*
X107142619Y-100044285D02*
X107142619Y-99853809D01*
X107142619Y-99853809D02*
X107095000Y-99758571D01*
X107095000Y-99758571D02*
X107047380Y-99710952D01*
X107047380Y-99710952D02*
X106952142Y-99663333D01*
X106952142Y-99663333D02*
X106761666Y-99663333D01*
X106761666Y-99663333D02*
X106666428Y-99710952D01*
X106666428Y-99710952D02*
X106618809Y-99758571D01*
X106618809Y-99758571D02*
X106571190Y-99853809D01*
%TO.C,J6*%
X156537143Y-98462619D02*
X156537143Y-97462619D01*
X157013333Y-98462619D02*
X157013333Y-97462619D01*
X157013333Y-97462619D02*
X157584761Y-98462619D01*
X157584761Y-98462619D02*
X157584761Y-97462619D01*
X158060952Y-98081666D02*
X158822857Y-98081666D01*
X157142619Y-100663333D02*
X157856904Y-100663333D01*
X157856904Y-100663333D02*
X157999761Y-100710952D01*
X157999761Y-100710952D02*
X158095000Y-100806190D01*
X158095000Y-100806190D02*
X158142619Y-100949047D01*
X158142619Y-100949047D02*
X158142619Y-101044285D01*
X157142619Y-99758571D02*
X157142619Y-99949047D01*
X157142619Y-99949047D02*
X157190238Y-100044285D01*
X157190238Y-100044285D02*
X157237857Y-100091904D01*
X157237857Y-100091904D02*
X157380714Y-100187142D01*
X157380714Y-100187142D02*
X157571190Y-100234761D01*
X157571190Y-100234761D02*
X157952142Y-100234761D01*
X157952142Y-100234761D02*
X158047380Y-100187142D01*
X158047380Y-100187142D02*
X158095000Y-100139523D01*
X158095000Y-100139523D02*
X158142619Y-100044285D01*
X158142619Y-100044285D02*
X158142619Y-99853809D01*
X158142619Y-99853809D02*
X158095000Y-99758571D01*
X158095000Y-99758571D02*
X158047380Y-99710952D01*
X158047380Y-99710952D02*
X157952142Y-99663333D01*
X157952142Y-99663333D02*
X157714047Y-99663333D01*
X157714047Y-99663333D02*
X157618809Y-99710952D01*
X157618809Y-99710952D02*
X157571190Y-99758571D01*
X157571190Y-99758571D02*
X157523571Y-99853809D01*
X157523571Y-99853809D02*
X157523571Y-100044285D01*
X157523571Y-100044285D02*
X157571190Y-100139523D01*
X157571190Y-100139523D02*
X157618809Y-100187142D01*
X157618809Y-100187142D02*
X157714047Y-100234761D01*
%TO.C,J1*%
X146782619Y-96614287D02*
X147782619Y-96376192D01*
X147782619Y-96376192D02*
X147068333Y-96185716D01*
X147068333Y-96185716D02*
X147782619Y-95995240D01*
X147782619Y-95995240D02*
X146782619Y-95757145D01*
X147782619Y-95376192D02*
X146782619Y-95376192D01*
X147782619Y-94947621D02*
X147258809Y-94947621D01*
X147258809Y-94947621D02*
X147163571Y-94995240D01*
X147163571Y-94995240D02*
X147115952Y-95090478D01*
X147115952Y-95090478D02*
X147115952Y-95233335D01*
X147115952Y-95233335D02*
X147163571Y-95328573D01*
X147163571Y-95328573D02*
X147211190Y-95376192D01*
X147735000Y-94090478D02*
X147782619Y-94185716D01*
X147782619Y-94185716D02*
X147782619Y-94376192D01*
X147782619Y-94376192D02*
X147735000Y-94471430D01*
X147735000Y-94471430D02*
X147639761Y-94519049D01*
X147639761Y-94519049D02*
X147258809Y-94519049D01*
X147258809Y-94519049D02*
X147163571Y-94471430D01*
X147163571Y-94471430D02*
X147115952Y-94376192D01*
X147115952Y-94376192D02*
X147115952Y-94185716D01*
X147115952Y-94185716D02*
X147163571Y-94090478D01*
X147163571Y-94090478D02*
X147258809Y-94042859D01*
X147258809Y-94042859D02*
X147354047Y-94042859D01*
X147354047Y-94042859D02*
X147449285Y-94519049D01*
X147735000Y-93233335D02*
X147782619Y-93328573D01*
X147782619Y-93328573D02*
X147782619Y-93519049D01*
X147782619Y-93519049D02*
X147735000Y-93614287D01*
X147735000Y-93614287D02*
X147639761Y-93661906D01*
X147639761Y-93661906D02*
X147258809Y-93661906D01*
X147258809Y-93661906D02*
X147163571Y-93614287D01*
X147163571Y-93614287D02*
X147115952Y-93519049D01*
X147115952Y-93519049D02*
X147115952Y-93328573D01*
X147115952Y-93328573D02*
X147163571Y-93233335D01*
X147163571Y-93233335D02*
X147258809Y-93185716D01*
X147258809Y-93185716D02*
X147354047Y-93185716D01*
X147354047Y-93185716D02*
X147449285Y-93661906D01*
X147782619Y-92614287D02*
X147735000Y-92709525D01*
X147735000Y-92709525D02*
X147639761Y-92757144D01*
X147639761Y-92757144D02*
X146782619Y-92757144D01*
X147782619Y-90995239D02*
X147782619Y-91471429D01*
X147782619Y-91471429D02*
X146782619Y-91471429D01*
X147735000Y-90280953D02*
X147782619Y-90376191D01*
X147782619Y-90376191D02*
X147782619Y-90566667D01*
X147782619Y-90566667D02*
X147735000Y-90661905D01*
X147735000Y-90661905D02*
X147639761Y-90709524D01*
X147639761Y-90709524D02*
X147258809Y-90709524D01*
X147258809Y-90709524D02*
X147163571Y-90661905D01*
X147163571Y-90661905D02*
X147115952Y-90566667D01*
X147115952Y-90566667D02*
X147115952Y-90376191D01*
X147115952Y-90376191D02*
X147163571Y-90280953D01*
X147163571Y-90280953D02*
X147258809Y-90233334D01*
X147258809Y-90233334D02*
X147354047Y-90233334D01*
X147354047Y-90233334D02*
X147449285Y-90709524D01*
X147115952Y-89947619D02*
X147115952Y-89566667D01*
X147782619Y-89804762D02*
X146925476Y-89804762D01*
X146925476Y-89804762D02*
X146830238Y-89757143D01*
X146830238Y-89757143D02*
X146782619Y-89661905D01*
X146782619Y-89661905D02*
X146782619Y-89566667D01*
X147115952Y-89376190D02*
X147115952Y-88995238D01*
X146782619Y-89233333D02*
X147639761Y-89233333D01*
X147639761Y-89233333D02*
X147735000Y-89185714D01*
X147735000Y-89185714D02*
X147782619Y-89090476D01*
X147782619Y-89090476D02*
X147782619Y-88995238D01*
X146782619Y-84153333D02*
X147496904Y-84153333D01*
X147496904Y-84153333D02*
X147639761Y-84200952D01*
X147639761Y-84200952D02*
X147735000Y-84296190D01*
X147735000Y-84296190D02*
X147782619Y-84439047D01*
X147782619Y-84439047D02*
X147782619Y-84534285D01*
X147782619Y-83153333D02*
X147782619Y-83724761D01*
X147782619Y-83439047D02*
X146782619Y-83439047D01*
X146782619Y-83439047D02*
X146925476Y-83534285D01*
X146925476Y-83534285D02*
X147020714Y-83629523D01*
X147020714Y-83629523D02*
X147068333Y-83724761D01*
%TO.C,J3*%
X151862619Y-88757142D02*
X152862619Y-88519047D01*
X152862619Y-88519047D02*
X152148333Y-88328571D01*
X152148333Y-88328571D02*
X152862619Y-88138095D01*
X152862619Y-88138095D02*
X151862619Y-87900000D01*
X152862619Y-87519047D02*
X151862619Y-87519047D01*
X152862619Y-87090476D02*
X152338809Y-87090476D01*
X152338809Y-87090476D02*
X152243571Y-87138095D01*
X152243571Y-87138095D02*
X152195952Y-87233333D01*
X152195952Y-87233333D02*
X152195952Y-87376190D01*
X152195952Y-87376190D02*
X152243571Y-87471428D01*
X152243571Y-87471428D02*
X152291190Y-87519047D01*
X152815000Y-86233333D02*
X152862619Y-86328571D01*
X152862619Y-86328571D02*
X152862619Y-86519047D01*
X152862619Y-86519047D02*
X152815000Y-86614285D01*
X152815000Y-86614285D02*
X152719761Y-86661904D01*
X152719761Y-86661904D02*
X152338809Y-86661904D01*
X152338809Y-86661904D02*
X152243571Y-86614285D01*
X152243571Y-86614285D02*
X152195952Y-86519047D01*
X152195952Y-86519047D02*
X152195952Y-86328571D01*
X152195952Y-86328571D02*
X152243571Y-86233333D01*
X152243571Y-86233333D02*
X152338809Y-86185714D01*
X152338809Y-86185714D02*
X152434047Y-86185714D01*
X152434047Y-86185714D02*
X152529285Y-86661904D01*
X152815000Y-85376190D02*
X152862619Y-85471428D01*
X152862619Y-85471428D02*
X152862619Y-85661904D01*
X152862619Y-85661904D02*
X152815000Y-85757142D01*
X152815000Y-85757142D02*
X152719761Y-85804761D01*
X152719761Y-85804761D02*
X152338809Y-85804761D01*
X152338809Y-85804761D02*
X152243571Y-85757142D01*
X152243571Y-85757142D02*
X152195952Y-85661904D01*
X152195952Y-85661904D02*
X152195952Y-85471428D01*
X152195952Y-85471428D02*
X152243571Y-85376190D01*
X152243571Y-85376190D02*
X152338809Y-85328571D01*
X152338809Y-85328571D02*
X152434047Y-85328571D01*
X152434047Y-85328571D02*
X152529285Y-85804761D01*
X152862619Y-84757142D02*
X152815000Y-84852380D01*
X152815000Y-84852380D02*
X152719761Y-84899999D01*
X152719761Y-84899999D02*
X151862619Y-84899999D01*
X152862619Y-83042856D02*
X152386428Y-83376189D01*
X152862619Y-83614284D02*
X151862619Y-83614284D01*
X151862619Y-83614284D02*
X151862619Y-83233332D01*
X151862619Y-83233332D02*
X151910238Y-83138094D01*
X151910238Y-83138094D02*
X151957857Y-83090475D01*
X151957857Y-83090475D02*
X152053095Y-83042856D01*
X152053095Y-83042856D02*
X152195952Y-83042856D01*
X152195952Y-83042856D02*
X152291190Y-83090475D01*
X152291190Y-83090475D02*
X152338809Y-83138094D01*
X152338809Y-83138094D02*
X152386428Y-83233332D01*
X152386428Y-83233332D02*
X152386428Y-83614284D01*
X152815000Y-82233332D02*
X152862619Y-82328570D01*
X152862619Y-82328570D02*
X152862619Y-82519046D01*
X152862619Y-82519046D02*
X152815000Y-82614284D01*
X152815000Y-82614284D02*
X152719761Y-82661903D01*
X152719761Y-82661903D02*
X152338809Y-82661903D01*
X152338809Y-82661903D02*
X152243571Y-82614284D01*
X152243571Y-82614284D02*
X152195952Y-82519046D01*
X152195952Y-82519046D02*
X152195952Y-82328570D01*
X152195952Y-82328570D02*
X152243571Y-82233332D01*
X152243571Y-82233332D02*
X152338809Y-82185713D01*
X152338809Y-82185713D02*
X152434047Y-82185713D01*
X152434047Y-82185713D02*
X152529285Y-82661903D01*
X152862619Y-81328570D02*
X152338809Y-81328570D01*
X152338809Y-81328570D02*
X152243571Y-81376189D01*
X152243571Y-81376189D02*
X152195952Y-81471427D01*
X152195952Y-81471427D02*
X152195952Y-81661903D01*
X152195952Y-81661903D02*
X152243571Y-81757141D01*
X152815000Y-81328570D02*
X152862619Y-81423808D01*
X152862619Y-81423808D02*
X152862619Y-81661903D01*
X152862619Y-81661903D02*
X152815000Y-81757141D01*
X152815000Y-81757141D02*
X152719761Y-81804760D01*
X152719761Y-81804760D02*
X152624523Y-81804760D01*
X152624523Y-81804760D02*
X152529285Y-81757141D01*
X152529285Y-81757141D02*
X152481666Y-81661903D01*
X152481666Y-81661903D02*
X152481666Y-81423808D01*
X152481666Y-81423808D02*
X152434047Y-81328570D01*
X152862619Y-80852379D02*
X152195952Y-80852379D01*
X152386428Y-80852379D02*
X152291190Y-80804760D01*
X152291190Y-80804760D02*
X152243571Y-80757141D01*
X152243571Y-80757141D02*
X152195952Y-80661903D01*
X152195952Y-80661903D02*
X152195952Y-80566665D01*
X151862619Y-84153333D02*
X152576904Y-84153333D01*
X152576904Y-84153333D02*
X152719761Y-84200952D01*
X152719761Y-84200952D02*
X152815000Y-84296190D01*
X152815000Y-84296190D02*
X152862619Y-84439047D01*
X152862619Y-84439047D02*
X152862619Y-84534285D01*
X151862619Y-83772380D02*
X151862619Y-83153333D01*
X151862619Y-83153333D02*
X152243571Y-83486666D01*
X152243571Y-83486666D02*
X152243571Y-83343809D01*
X152243571Y-83343809D02*
X152291190Y-83248571D01*
X152291190Y-83248571D02*
X152338809Y-83200952D01*
X152338809Y-83200952D02*
X152434047Y-83153333D01*
X152434047Y-83153333D02*
X152672142Y-83153333D01*
X152672142Y-83153333D02*
X152767380Y-83200952D01*
X152767380Y-83200952D02*
X152815000Y-83248571D01*
X152815000Y-83248571D02*
X152862619Y-83343809D01*
X152862619Y-83343809D02*
X152862619Y-83629523D01*
X152862619Y-83629523D02*
X152815000Y-83724761D01*
X152815000Y-83724761D02*
X152767380Y-83772380D01*
%TO.C,R3*%
X96686905Y-58147857D02*
X96734524Y-58100238D01*
X96734524Y-58100238D02*
X96829762Y-58052619D01*
X96829762Y-58052619D02*
X97067857Y-58052619D01*
X97067857Y-58052619D02*
X97163095Y-58100238D01*
X97163095Y-58100238D02*
X97210714Y-58147857D01*
X97210714Y-58147857D02*
X97258333Y-58243095D01*
X97258333Y-58243095D02*
X97258333Y-58338333D01*
X97258333Y-58338333D02*
X97210714Y-58481190D01*
X97210714Y-58481190D02*
X96639286Y-59052619D01*
X96639286Y-59052619D02*
X97258333Y-59052619D01*
X97639286Y-58147857D02*
X97686905Y-58100238D01*
X97686905Y-58100238D02*
X97782143Y-58052619D01*
X97782143Y-58052619D02*
X98020238Y-58052619D01*
X98020238Y-58052619D02*
X98115476Y-58100238D01*
X98115476Y-58100238D02*
X98163095Y-58147857D01*
X98163095Y-58147857D02*
X98210714Y-58243095D01*
X98210714Y-58243095D02*
X98210714Y-58338333D01*
X98210714Y-58338333D02*
X98163095Y-58481190D01*
X98163095Y-58481190D02*
X97591667Y-59052619D01*
X97591667Y-59052619D02*
X98210714Y-59052619D01*
X98829762Y-58052619D02*
X98925000Y-58052619D01*
X98925000Y-58052619D02*
X99020238Y-58100238D01*
X99020238Y-58100238D02*
X99067857Y-58147857D01*
X99067857Y-58147857D02*
X99115476Y-58243095D01*
X99115476Y-58243095D02*
X99163095Y-58433571D01*
X99163095Y-58433571D02*
X99163095Y-58671666D01*
X99163095Y-58671666D02*
X99115476Y-58862142D01*
X99115476Y-58862142D02*
X99067857Y-58957380D01*
X99067857Y-58957380D02*
X99020238Y-59005000D01*
X99020238Y-59005000D02*
X98925000Y-59052619D01*
X98925000Y-59052619D02*
X98829762Y-59052619D01*
X98829762Y-59052619D02*
X98734524Y-59005000D01*
X98734524Y-59005000D02*
X98686905Y-58957380D01*
X98686905Y-58957380D02*
X98639286Y-58862142D01*
X98639286Y-58862142D02*
X98591667Y-58671666D01*
X98591667Y-58671666D02*
X98591667Y-58433571D01*
X98591667Y-58433571D02*
X98639286Y-58243095D01*
X98639286Y-58243095D02*
X98686905Y-58147857D01*
X98686905Y-58147857D02*
X98734524Y-58100238D01*
X98734524Y-58100238D02*
X98829762Y-58052619D01*
X100163095Y-59052619D02*
X99829762Y-58576428D01*
X99591667Y-59052619D02*
X99591667Y-58052619D01*
X99591667Y-58052619D02*
X99972619Y-58052619D01*
X99972619Y-58052619D02*
X100067857Y-58100238D01*
X100067857Y-58100238D02*
X100115476Y-58147857D01*
X100115476Y-58147857D02*
X100163095Y-58243095D01*
X100163095Y-58243095D02*
X100163095Y-58385952D01*
X100163095Y-58385952D02*
X100115476Y-58481190D01*
X100115476Y-58481190D02*
X100067857Y-58528809D01*
X100067857Y-58528809D02*
X99972619Y-58576428D01*
X99972619Y-58576428D02*
X99591667Y-58576428D01*
X98258333Y-61422619D02*
X97925000Y-60946428D01*
X97686905Y-61422619D02*
X97686905Y-60422619D01*
X97686905Y-60422619D02*
X98067857Y-60422619D01*
X98067857Y-60422619D02*
X98163095Y-60470238D01*
X98163095Y-60470238D02*
X98210714Y-60517857D01*
X98210714Y-60517857D02*
X98258333Y-60613095D01*
X98258333Y-60613095D02*
X98258333Y-60755952D01*
X98258333Y-60755952D02*
X98210714Y-60851190D01*
X98210714Y-60851190D02*
X98163095Y-60898809D01*
X98163095Y-60898809D02*
X98067857Y-60946428D01*
X98067857Y-60946428D02*
X97686905Y-60946428D01*
X98591667Y-60422619D02*
X99210714Y-60422619D01*
X99210714Y-60422619D02*
X98877381Y-60803571D01*
X98877381Y-60803571D02*
X99020238Y-60803571D01*
X99020238Y-60803571D02*
X99115476Y-60851190D01*
X99115476Y-60851190D02*
X99163095Y-60898809D01*
X99163095Y-60898809D02*
X99210714Y-60994047D01*
X99210714Y-60994047D02*
X99210714Y-61232142D01*
X99210714Y-61232142D02*
X99163095Y-61327380D01*
X99163095Y-61327380D02*
X99115476Y-61375000D01*
X99115476Y-61375000D02*
X99020238Y-61422619D01*
X99020238Y-61422619D02*
X98734524Y-61422619D01*
X98734524Y-61422619D02*
X98639286Y-61375000D01*
X98639286Y-61375000D02*
X98591667Y-61327380D01*
%TO.C,R7*%
X104162857Y-87463094D02*
X104115238Y-87415475D01*
X104115238Y-87415475D02*
X104067619Y-87320237D01*
X104067619Y-87320237D02*
X104067619Y-87082142D01*
X104067619Y-87082142D02*
X104115238Y-86986904D01*
X104115238Y-86986904D02*
X104162857Y-86939285D01*
X104162857Y-86939285D02*
X104258095Y-86891666D01*
X104258095Y-86891666D02*
X104353333Y-86891666D01*
X104353333Y-86891666D02*
X104496190Y-86939285D01*
X104496190Y-86939285D02*
X105067619Y-87510713D01*
X105067619Y-87510713D02*
X105067619Y-86891666D01*
X104162857Y-86510713D02*
X104115238Y-86463094D01*
X104115238Y-86463094D02*
X104067619Y-86367856D01*
X104067619Y-86367856D02*
X104067619Y-86129761D01*
X104067619Y-86129761D02*
X104115238Y-86034523D01*
X104115238Y-86034523D02*
X104162857Y-85986904D01*
X104162857Y-85986904D02*
X104258095Y-85939285D01*
X104258095Y-85939285D02*
X104353333Y-85939285D01*
X104353333Y-85939285D02*
X104496190Y-85986904D01*
X104496190Y-85986904D02*
X105067619Y-86558332D01*
X105067619Y-86558332D02*
X105067619Y-85939285D01*
X104067619Y-85320237D02*
X104067619Y-85224999D01*
X104067619Y-85224999D02*
X104115238Y-85129761D01*
X104115238Y-85129761D02*
X104162857Y-85082142D01*
X104162857Y-85082142D02*
X104258095Y-85034523D01*
X104258095Y-85034523D02*
X104448571Y-84986904D01*
X104448571Y-84986904D02*
X104686666Y-84986904D01*
X104686666Y-84986904D02*
X104877142Y-85034523D01*
X104877142Y-85034523D02*
X104972380Y-85082142D01*
X104972380Y-85082142D02*
X105020000Y-85129761D01*
X105020000Y-85129761D02*
X105067619Y-85224999D01*
X105067619Y-85224999D02*
X105067619Y-85320237D01*
X105067619Y-85320237D02*
X105020000Y-85415475D01*
X105020000Y-85415475D02*
X104972380Y-85463094D01*
X104972380Y-85463094D02*
X104877142Y-85510713D01*
X104877142Y-85510713D02*
X104686666Y-85558332D01*
X104686666Y-85558332D02*
X104448571Y-85558332D01*
X104448571Y-85558332D02*
X104258095Y-85510713D01*
X104258095Y-85510713D02*
X104162857Y-85463094D01*
X104162857Y-85463094D02*
X104115238Y-85415475D01*
X104115238Y-85415475D02*
X104067619Y-85320237D01*
X105067619Y-83986904D02*
X104591428Y-84320237D01*
X105067619Y-84558332D02*
X104067619Y-84558332D01*
X104067619Y-84558332D02*
X104067619Y-84177380D01*
X104067619Y-84177380D02*
X104115238Y-84082142D01*
X104115238Y-84082142D02*
X104162857Y-84034523D01*
X104162857Y-84034523D02*
X104258095Y-83986904D01*
X104258095Y-83986904D02*
X104400952Y-83986904D01*
X104400952Y-83986904D02*
X104496190Y-84034523D01*
X104496190Y-84034523D02*
X104543809Y-84082142D01*
X104543809Y-84082142D02*
X104591428Y-84177380D01*
X104591428Y-84177380D02*
X104591428Y-84558332D01*
X102697619Y-85891666D02*
X102221428Y-86224999D01*
X102697619Y-86463094D02*
X101697619Y-86463094D01*
X101697619Y-86463094D02*
X101697619Y-86082142D01*
X101697619Y-86082142D02*
X101745238Y-85986904D01*
X101745238Y-85986904D02*
X101792857Y-85939285D01*
X101792857Y-85939285D02*
X101888095Y-85891666D01*
X101888095Y-85891666D02*
X102030952Y-85891666D01*
X102030952Y-85891666D02*
X102126190Y-85939285D01*
X102126190Y-85939285D02*
X102173809Y-85986904D01*
X102173809Y-85986904D02*
X102221428Y-86082142D01*
X102221428Y-86082142D02*
X102221428Y-86463094D01*
X101697619Y-85558332D02*
X101697619Y-84891666D01*
X101697619Y-84891666D02*
X102697619Y-85320237D01*
%TO.C,SW1*%
X155402619Y-73896905D02*
X154402619Y-73896905D01*
X154402619Y-73896905D02*
X154402619Y-73515953D01*
X154402619Y-73515953D02*
X154450238Y-73420715D01*
X154450238Y-73420715D02*
X154497857Y-73373096D01*
X154497857Y-73373096D02*
X154593095Y-73325477D01*
X154593095Y-73325477D02*
X154735952Y-73325477D01*
X154735952Y-73325477D02*
X154831190Y-73373096D01*
X154831190Y-73373096D02*
X154878809Y-73420715D01*
X154878809Y-73420715D02*
X154926428Y-73515953D01*
X154926428Y-73515953D02*
X154926428Y-73896905D01*
X155402619Y-72754048D02*
X155355000Y-72849286D01*
X155355000Y-72849286D02*
X155307380Y-72896905D01*
X155307380Y-72896905D02*
X155212142Y-72944524D01*
X155212142Y-72944524D02*
X154926428Y-72944524D01*
X154926428Y-72944524D02*
X154831190Y-72896905D01*
X154831190Y-72896905D02*
X154783571Y-72849286D01*
X154783571Y-72849286D02*
X154735952Y-72754048D01*
X154735952Y-72754048D02*
X154735952Y-72611191D01*
X154735952Y-72611191D02*
X154783571Y-72515953D01*
X154783571Y-72515953D02*
X154831190Y-72468334D01*
X154831190Y-72468334D02*
X154926428Y-72420715D01*
X154926428Y-72420715D02*
X155212142Y-72420715D01*
X155212142Y-72420715D02*
X155307380Y-72468334D01*
X155307380Y-72468334D02*
X155355000Y-72515953D01*
X155355000Y-72515953D02*
X155402619Y-72611191D01*
X155402619Y-72611191D02*
X155402619Y-72754048D01*
X154735952Y-72087381D02*
X155402619Y-71896905D01*
X155402619Y-71896905D02*
X154926428Y-71706429D01*
X154926428Y-71706429D02*
X155402619Y-71515953D01*
X155402619Y-71515953D02*
X154735952Y-71325477D01*
X155355000Y-70563572D02*
X155402619Y-70658810D01*
X155402619Y-70658810D02*
X155402619Y-70849286D01*
X155402619Y-70849286D02*
X155355000Y-70944524D01*
X155355000Y-70944524D02*
X155259761Y-70992143D01*
X155259761Y-70992143D02*
X154878809Y-70992143D01*
X154878809Y-70992143D02*
X154783571Y-70944524D01*
X154783571Y-70944524D02*
X154735952Y-70849286D01*
X154735952Y-70849286D02*
X154735952Y-70658810D01*
X154735952Y-70658810D02*
X154783571Y-70563572D01*
X154783571Y-70563572D02*
X154878809Y-70515953D01*
X154878809Y-70515953D02*
X154974047Y-70515953D01*
X154974047Y-70515953D02*
X155069285Y-70992143D01*
X155402619Y-70087381D02*
X154735952Y-70087381D01*
X154926428Y-70087381D02*
X154831190Y-70039762D01*
X154831190Y-70039762D02*
X154783571Y-69992143D01*
X154783571Y-69992143D02*
X154735952Y-69896905D01*
X154735952Y-69896905D02*
X154735952Y-69801667D01*
X155355000Y-68754047D02*
X155402619Y-68611190D01*
X155402619Y-68611190D02*
X155402619Y-68373095D01*
X155402619Y-68373095D02*
X155355000Y-68277857D01*
X155355000Y-68277857D02*
X155307380Y-68230238D01*
X155307380Y-68230238D02*
X155212142Y-68182619D01*
X155212142Y-68182619D02*
X155116904Y-68182619D01*
X155116904Y-68182619D02*
X155021666Y-68230238D01*
X155021666Y-68230238D02*
X154974047Y-68277857D01*
X154974047Y-68277857D02*
X154926428Y-68373095D01*
X154926428Y-68373095D02*
X154878809Y-68563571D01*
X154878809Y-68563571D02*
X154831190Y-68658809D01*
X154831190Y-68658809D02*
X154783571Y-68706428D01*
X154783571Y-68706428D02*
X154688333Y-68754047D01*
X154688333Y-68754047D02*
X154593095Y-68754047D01*
X154593095Y-68754047D02*
X154497857Y-68706428D01*
X154497857Y-68706428D02*
X154450238Y-68658809D01*
X154450238Y-68658809D02*
X154402619Y-68563571D01*
X154402619Y-68563571D02*
X154402619Y-68325476D01*
X154402619Y-68325476D02*
X154450238Y-68182619D01*
X154735952Y-67849285D02*
X155402619Y-67658809D01*
X155402619Y-67658809D02*
X154926428Y-67468333D01*
X154926428Y-67468333D02*
X155402619Y-67277857D01*
X155402619Y-67277857D02*
X154735952Y-67087381D01*
X155402619Y-66706428D02*
X154735952Y-66706428D01*
X154402619Y-66706428D02*
X154450238Y-66754047D01*
X154450238Y-66754047D02*
X154497857Y-66706428D01*
X154497857Y-66706428D02*
X154450238Y-66658809D01*
X154450238Y-66658809D02*
X154402619Y-66706428D01*
X154402619Y-66706428D02*
X154497857Y-66706428D01*
X154735952Y-66373095D02*
X154735952Y-65992143D01*
X154402619Y-66230238D02*
X155259761Y-66230238D01*
X155259761Y-66230238D02*
X155355000Y-66182619D01*
X155355000Y-66182619D02*
X155402619Y-66087381D01*
X155402619Y-66087381D02*
X155402619Y-65992143D01*
X155355000Y-65230238D02*
X155402619Y-65325476D01*
X155402619Y-65325476D02*
X155402619Y-65515952D01*
X155402619Y-65515952D02*
X155355000Y-65611190D01*
X155355000Y-65611190D02*
X155307380Y-65658809D01*
X155307380Y-65658809D02*
X155212142Y-65706428D01*
X155212142Y-65706428D02*
X154926428Y-65706428D01*
X154926428Y-65706428D02*
X154831190Y-65658809D01*
X154831190Y-65658809D02*
X154783571Y-65611190D01*
X154783571Y-65611190D02*
X154735952Y-65515952D01*
X154735952Y-65515952D02*
X154735952Y-65325476D01*
X154735952Y-65325476D02*
X154783571Y-65230238D01*
X155402619Y-64801666D02*
X154402619Y-64801666D01*
X155402619Y-64373095D02*
X154878809Y-64373095D01*
X154878809Y-64373095D02*
X154783571Y-64420714D01*
X154783571Y-64420714D02*
X154735952Y-64515952D01*
X154735952Y-64515952D02*
X154735952Y-64658809D01*
X154735952Y-64658809D02*
X154783571Y-64754047D01*
X154783571Y-64754047D02*
X154831190Y-64801666D01*
X155355000Y-60388332D02*
X155402619Y-60245475D01*
X155402619Y-60245475D02*
X155402619Y-60007380D01*
X155402619Y-60007380D02*
X155355000Y-59912142D01*
X155355000Y-59912142D02*
X155307380Y-59864523D01*
X155307380Y-59864523D02*
X155212142Y-59816904D01*
X155212142Y-59816904D02*
X155116904Y-59816904D01*
X155116904Y-59816904D02*
X155021666Y-59864523D01*
X155021666Y-59864523D02*
X154974047Y-59912142D01*
X154974047Y-59912142D02*
X154926428Y-60007380D01*
X154926428Y-60007380D02*
X154878809Y-60197856D01*
X154878809Y-60197856D02*
X154831190Y-60293094D01*
X154831190Y-60293094D02*
X154783571Y-60340713D01*
X154783571Y-60340713D02*
X154688333Y-60388332D01*
X154688333Y-60388332D02*
X154593095Y-60388332D01*
X154593095Y-60388332D02*
X154497857Y-60340713D01*
X154497857Y-60340713D02*
X154450238Y-60293094D01*
X154450238Y-60293094D02*
X154402619Y-60197856D01*
X154402619Y-60197856D02*
X154402619Y-59959761D01*
X154402619Y-59959761D02*
X154450238Y-59816904D01*
X154402619Y-59483570D02*
X155402619Y-59245475D01*
X155402619Y-59245475D02*
X154688333Y-59054999D01*
X154688333Y-59054999D02*
X155402619Y-58864523D01*
X155402619Y-58864523D02*
X154402619Y-58626428D01*
X155402619Y-57721666D02*
X155402619Y-58293094D01*
X155402619Y-58007380D02*
X154402619Y-58007380D01*
X154402619Y-58007380D02*
X154545476Y-58102618D01*
X154545476Y-58102618D02*
X154640714Y-58197856D01*
X154640714Y-58197856D02*
X154688333Y-58293094D01*
%TO.C,D2*%
X89878809Y-118999762D02*
X89926428Y-118856905D01*
X89926428Y-118856905D02*
X89974047Y-118809286D01*
X89974047Y-118809286D02*
X90069285Y-118761667D01*
X90069285Y-118761667D02*
X90212142Y-118761667D01*
X90212142Y-118761667D02*
X90307380Y-118809286D01*
X90307380Y-118809286D02*
X90355000Y-118856905D01*
X90355000Y-118856905D02*
X90402619Y-118952143D01*
X90402619Y-118952143D02*
X90402619Y-119333095D01*
X90402619Y-119333095D02*
X89402619Y-119333095D01*
X89402619Y-119333095D02*
X89402619Y-118999762D01*
X89402619Y-118999762D02*
X89450238Y-118904524D01*
X89450238Y-118904524D02*
X89497857Y-118856905D01*
X89497857Y-118856905D02*
X89593095Y-118809286D01*
X89593095Y-118809286D02*
X89688333Y-118809286D01*
X89688333Y-118809286D02*
X89783571Y-118856905D01*
X89783571Y-118856905D02*
X89831190Y-118904524D01*
X89831190Y-118904524D02*
X89878809Y-118999762D01*
X89878809Y-118999762D02*
X89878809Y-119333095D01*
X90402619Y-118190238D02*
X90355000Y-118285476D01*
X90355000Y-118285476D02*
X90307380Y-118333095D01*
X90307380Y-118333095D02*
X90212142Y-118380714D01*
X90212142Y-118380714D02*
X89926428Y-118380714D01*
X89926428Y-118380714D02*
X89831190Y-118333095D01*
X89831190Y-118333095D02*
X89783571Y-118285476D01*
X89783571Y-118285476D02*
X89735952Y-118190238D01*
X89735952Y-118190238D02*
X89735952Y-118047381D01*
X89735952Y-118047381D02*
X89783571Y-117952143D01*
X89783571Y-117952143D02*
X89831190Y-117904524D01*
X89831190Y-117904524D02*
X89926428Y-117856905D01*
X89926428Y-117856905D02*
X90212142Y-117856905D01*
X90212142Y-117856905D02*
X90307380Y-117904524D01*
X90307380Y-117904524D02*
X90355000Y-117952143D01*
X90355000Y-117952143D02*
X90402619Y-118047381D01*
X90402619Y-118047381D02*
X90402619Y-118190238D01*
X89735952Y-117571190D02*
X89735952Y-117190238D01*
X89402619Y-117428333D02*
X90259761Y-117428333D01*
X90259761Y-117428333D02*
X90355000Y-117380714D01*
X90355000Y-117380714D02*
X90402619Y-117285476D01*
X90402619Y-117285476D02*
X90402619Y-117190238D01*
X90355000Y-116142618D02*
X90402619Y-115999761D01*
X90402619Y-115999761D02*
X90402619Y-115761666D01*
X90402619Y-115761666D02*
X90355000Y-115666428D01*
X90355000Y-115666428D02*
X90307380Y-115618809D01*
X90307380Y-115618809D02*
X90212142Y-115571190D01*
X90212142Y-115571190D02*
X90116904Y-115571190D01*
X90116904Y-115571190D02*
X90021666Y-115618809D01*
X90021666Y-115618809D02*
X89974047Y-115666428D01*
X89974047Y-115666428D02*
X89926428Y-115761666D01*
X89926428Y-115761666D02*
X89878809Y-115952142D01*
X89878809Y-115952142D02*
X89831190Y-116047380D01*
X89831190Y-116047380D02*
X89783571Y-116094999D01*
X89783571Y-116094999D02*
X89688333Y-116142618D01*
X89688333Y-116142618D02*
X89593095Y-116142618D01*
X89593095Y-116142618D02*
X89497857Y-116094999D01*
X89497857Y-116094999D02*
X89450238Y-116047380D01*
X89450238Y-116047380D02*
X89402619Y-115952142D01*
X89402619Y-115952142D02*
X89402619Y-115714047D01*
X89402619Y-115714047D02*
X89450238Y-115571190D01*
X89735952Y-115285475D02*
X89735952Y-114904523D01*
X89402619Y-115142618D02*
X90259761Y-115142618D01*
X90259761Y-115142618D02*
X90355000Y-115094999D01*
X90355000Y-115094999D02*
X90402619Y-114999761D01*
X90402619Y-114999761D02*
X90402619Y-114904523D01*
X90402619Y-114142618D02*
X89878809Y-114142618D01*
X89878809Y-114142618D02*
X89783571Y-114190237D01*
X89783571Y-114190237D02*
X89735952Y-114285475D01*
X89735952Y-114285475D02*
X89735952Y-114475951D01*
X89735952Y-114475951D02*
X89783571Y-114571189D01*
X90355000Y-114142618D02*
X90402619Y-114237856D01*
X90402619Y-114237856D02*
X90402619Y-114475951D01*
X90402619Y-114475951D02*
X90355000Y-114571189D01*
X90355000Y-114571189D02*
X90259761Y-114618808D01*
X90259761Y-114618808D02*
X90164523Y-114618808D01*
X90164523Y-114618808D02*
X90069285Y-114571189D01*
X90069285Y-114571189D02*
X90021666Y-114475951D01*
X90021666Y-114475951D02*
X90021666Y-114237856D01*
X90021666Y-114237856D02*
X89974047Y-114142618D01*
X89735952Y-113809284D02*
X89735952Y-113428332D01*
X89402619Y-113666427D02*
X90259761Y-113666427D01*
X90259761Y-113666427D02*
X90355000Y-113618808D01*
X90355000Y-113618808D02*
X90402619Y-113523570D01*
X90402619Y-113523570D02*
X90402619Y-113428332D01*
X89735952Y-112666427D02*
X90402619Y-112666427D01*
X89735952Y-113094998D02*
X90259761Y-113094998D01*
X90259761Y-113094998D02*
X90355000Y-113047379D01*
X90355000Y-113047379D02*
X90402619Y-112952141D01*
X90402619Y-112952141D02*
X90402619Y-112809284D01*
X90402619Y-112809284D02*
X90355000Y-112714046D01*
X90355000Y-112714046D02*
X90307380Y-112666427D01*
X90355000Y-112237855D02*
X90402619Y-112142617D01*
X90402619Y-112142617D02*
X90402619Y-111952141D01*
X90402619Y-111952141D02*
X90355000Y-111856903D01*
X90355000Y-111856903D02*
X90259761Y-111809284D01*
X90259761Y-111809284D02*
X90212142Y-111809284D01*
X90212142Y-111809284D02*
X90116904Y-111856903D01*
X90116904Y-111856903D02*
X90069285Y-111952141D01*
X90069285Y-111952141D02*
X90069285Y-112094998D01*
X90069285Y-112094998D02*
X90021666Y-112190236D01*
X90021666Y-112190236D02*
X89926428Y-112237855D01*
X89926428Y-112237855D02*
X89878809Y-112237855D01*
X89878809Y-112237855D02*
X89783571Y-112190236D01*
X89783571Y-112190236D02*
X89735952Y-112094998D01*
X89735952Y-112094998D02*
X89735952Y-111952141D01*
X89735952Y-111952141D02*
X89783571Y-111856903D01*
X95781905Y-116057619D02*
X95781905Y-115057619D01*
X95781905Y-115057619D02*
X96020000Y-115057619D01*
X96020000Y-115057619D02*
X96162857Y-115105238D01*
X96162857Y-115105238D02*
X96258095Y-115200476D01*
X96258095Y-115200476D02*
X96305714Y-115295714D01*
X96305714Y-115295714D02*
X96353333Y-115486190D01*
X96353333Y-115486190D02*
X96353333Y-115629047D01*
X96353333Y-115629047D02*
X96305714Y-115819523D01*
X96305714Y-115819523D02*
X96258095Y-115914761D01*
X96258095Y-115914761D02*
X96162857Y-116010000D01*
X96162857Y-116010000D02*
X96020000Y-116057619D01*
X96020000Y-116057619D02*
X95781905Y-116057619D01*
X96734286Y-115152857D02*
X96781905Y-115105238D01*
X96781905Y-115105238D02*
X96877143Y-115057619D01*
X96877143Y-115057619D02*
X97115238Y-115057619D01*
X97115238Y-115057619D02*
X97210476Y-115105238D01*
X97210476Y-115105238D02*
X97258095Y-115152857D01*
X97258095Y-115152857D02*
X97305714Y-115248095D01*
X97305714Y-115248095D02*
X97305714Y-115343333D01*
X97305714Y-115343333D02*
X97258095Y-115486190D01*
X97258095Y-115486190D02*
X96686667Y-116057619D01*
X96686667Y-116057619D02*
X97305714Y-116057619D01*
%TO.C,J12*%
X149160238Y-63832857D02*
X149112619Y-63928095D01*
X149112619Y-63928095D02*
X149112619Y-64070952D01*
X149112619Y-64070952D02*
X149160238Y-64213809D01*
X149160238Y-64213809D02*
X149255476Y-64309047D01*
X149255476Y-64309047D02*
X149350714Y-64356666D01*
X149350714Y-64356666D02*
X149541190Y-64404285D01*
X149541190Y-64404285D02*
X149684047Y-64404285D01*
X149684047Y-64404285D02*
X149874523Y-64356666D01*
X149874523Y-64356666D02*
X149969761Y-64309047D01*
X149969761Y-64309047D02*
X150065000Y-64213809D01*
X150065000Y-64213809D02*
X150112619Y-64070952D01*
X150112619Y-64070952D02*
X150112619Y-63975714D01*
X150112619Y-63975714D02*
X150065000Y-63832857D01*
X150065000Y-63832857D02*
X150017380Y-63785238D01*
X150017380Y-63785238D02*
X149684047Y-63785238D01*
X149684047Y-63785238D02*
X149684047Y-63975714D01*
X150112619Y-63356666D02*
X149112619Y-63356666D01*
X149112619Y-63356666D02*
X150112619Y-62785238D01*
X150112619Y-62785238D02*
X149112619Y-62785238D01*
X150112619Y-62309047D02*
X149112619Y-62309047D01*
X149112619Y-62309047D02*
X149112619Y-62070952D01*
X149112619Y-62070952D02*
X149160238Y-61928095D01*
X149160238Y-61928095D02*
X149255476Y-61832857D01*
X149255476Y-61832857D02*
X149350714Y-61785238D01*
X149350714Y-61785238D02*
X149541190Y-61737619D01*
X149541190Y-61737619D02*
X149684047Y-61737619D01*
X149684047Y-61737619D02*
X149874523Y-61785238D01*
X149874523Y-61785238D02*
X149969761Y-61832857D01*
X149969761Y-61832857D02*
X150065000Y-61928095D01*
X150065000Y-61928095D02*
X150112619Y-62070952D01*
X150112619Y-62070952D02*
X150112619Y-62309047D01*
X150112619Y-60547142D02*
X149112619Y-60547142D01*
X149588809Y-60547142D02*
X149588809Y-59975714D01*
X150112619Y-59975714D02*
X149112619Y-59975714D01*
X150065000Y-59118571D02*
X150112619Y-59213809D01*
X150112619Y-59213809D02*
X150112619Y-59404285D01*
X150112619Y-59404285D02*
X150065000Y-59499523D01*
X150065000Y-59499523D02*
X149969761Y-59547142D01*
X149969761Y-59547142D02*
X149588809Y-59547142D01*
X149588809Y-59547142D02*
X149493571Y-59499523D01*
X149493571Y-59499523D02*
X149445952Y-59404285D01*
X149445952Y-59404285D02*
X149445952Y-59213809D01*
X149445952Y-59213809D02*
X149493571Y-59118571D01*
X149493571Y-59118571D02*
X149588809Y-59070952D01*
X149588809Y-59070952D02*
X149684047Y-59070952D01*
X149684047Y-59070952D02*
X149779285Y-59547142D01*
X150112619Y-58213809D02*
X149588809Y-58213809D01*
X149588809Y-58213809D02*
X149493571Y-58261428D01*
X149493571Y-58261428D02*
X149445952Y-58356666D01*
X149445952Y-58356666D02*
X149445952Y-58547142D01*
X149445952Y-58547142D02*
X149493571Y-58642380D01*
X150065000Y-58213809D02*
X150112619Y-58309047D01*
X150112619Y-58309047D02*
X150112619Y-58547142D01*
X150112619Y-58547142D02*
X150065000Y-58642380D01*
X150065000Y-58642380D02*
X149969761Y-58689999D01*
X149969761Y-58689999D02*
X149874523Y-58689999D01*
X149874523Y-58689999D02*
X149779285Y-58642380D01*
X149779285Y-58642380D02*
X149731666Y-58547142D01*
X149731666Y-58547142D02*
X149731666Y-58309047D01*
X149731666Y-58309047D02*
X149684047Y-58213809D01*
X150112619Y-57309047D02*
X149112619Y-57309047D01*
X150065000Y-57309047D02*
X150112619Y-57404285D01*
X150112619Y-57404285D02*
X150112619Y-57594761D01*
X150112619Y-57594761D02*
X150065000Y-57689999D01*
X150065000Y-57689999D02*
X150017380Y-57737618D01*
X150017380Y-57737618D02*
X149922142Y-57785237D01*
X149922142Y-57785237D02*
X149636428Y-57785237D01*
X149636428Y-57785237D02*
X149541190Y-57737618D01*
X149541190Y-57737618D02*
X149493571Y-57689999D01*
X149493571Y-57689999D02*
X149445952Y-57594761D01*
X149445952Y-57594761D02*
X149445952Y-57404285D01*
X149445952Y-57404285D02*
X149493571Y-57309047D01*
X150065000Y-56451904D02*
X150112619Y-56547142D01*
X150112619Y-56547142D02*
X150112619Y-56737618D01*
X150112619Y-56737618D02*
X150065000Y-56832856D01*
X150065000Y-56832856D02*
X149969761Y-56880475D01*
X149969761Y-56880475D02*
X149588809Y-56880475D01*
X149588809Y-56880475D02*
X149493571Y-56832856D01*
X149493571Y-56832856D02*
X149445952Y-56737618D01*
X149445952Y-56737618D02*
X149445952Y-56547142D01*
X149445952Y-56547142D02*
X149493571Y-56451904D01*
X149493571Y-56451904D02*
X149588809Y-56404285D01*
X149588809Y-56404285D02*
X149684047Y-56404285D01*
X149684047Y-56404285D02*
X149779285Y-56880475D01*
X150112619Y-55975713D02*
X149445952Y-55975713D01*
X149636428Y-55975713D02*
X149541190Y-55928094D01*
X149541190Y-55928094D02*
X149493571Y-55880475D01*
X149493571Y-55880475D02*
X149445952Y-55785237D01*
X149445952Y-55785237D02*
X149445952Y-55689999D01*
X150065000Y-55404284D02*
X150112619Y-55309046D01*
X150112619Y-55309046D02*
X150112619Y-55118570D01*
X150112619Y-55118570D02*
X150065000Y-55023332D01*
X150065000Y-55023332D02*
X149969761Y-54975713D01*
X149969761Y-54975713D02*
X149922142Y-54975713D01*
X149922142Y-54975713D02*
X149826904Y-55023332D01*
X149826904Y-55023332D02*
X149779285Y-55118570D01*
X149779285Y-55118570D02*
X149779285Y-55261427D01*
X149779285Y-55261427D02*
X149731666Y-55356665D01*
X149731666Y-55356665D02*
X149636428Y-55404284D01*
X149636428Y-55404284D02*
X149588809Y-55404284D01*
X149588809Y-55404284D02*
X149493571Y-55356665D01*
X149493571Y-55356665D02*
X149445952Y-55261427D01*
X149445952Y-55261427D02*
X149445952Y-55118570D01*
X149445952Y-55118570D02*
X149493571Y-55023332D01*
X141430476Y-59152619D02*
X141430476Y-59866904D01*
X141430476Y-59866904D02*
X141382857Y-60009761D01*
X141382857Y-60009761D02*
X141287619Y-60105000D01*
X141287619Y-60105000D02*
X141144762Y-60152619D01*
X141144762Y-60152619D02*
X141049524Y-60152619D01*
X142430476Y-60152619D02*
X141859048Y-60152619D01*
X142144762Y-60152619D02*
X142144762Y-59152619D01*
X142144762Y-59152619D02*
X142049524Y-59295476D01*
X142049524Y-59295476D02*
X141954286Y-59390714D01*
X141954286Y-59390714D02*
X141859048Y-59438333D01*
X142811429Y-59247857D02*
X142859048Y-59200238D01*
X142859048Y-59200238D02*
X142954286Y-59152619D01*
X142954286Y-59152619D02*
X143192381Y-59152619D01*
X143192381Y-59152619D02*
X143287619Y-59200238D01*
X143287619Y-59200238D02*
X143335238Y-59247857D01*
X143335238Y-59247857D02*
X143382857Y-59343095D01*
X143382857Y-59343095D02*
X143382857Y-59438333D01*
X143382857Y-59438333D02*
X143335238Y-59581190D01*
X143335238Y-59581190D02*
X142763810Y-60152619D01*
X142763810Y-60152619D02*
X143382857Y-60152619D01*
D11*
%TO.C,J5*%
X158950000Y-122465000D02*
X158315000Y-123100000D01*
X158950000Y-120560000D02*
X158950000Y-122465000D01*
X158315000Y-123100000D02*
X156410000Y-123100000D01*
X156410000Y-123100000D02*
X156410000Y-120560000D01*
X156410000Y-120560000D02*
X158950000Y-120560000D01*
%TO.C,J4*%
X143510000Y-80645000D02*
X144145000Y-80010000D01*
X143510000Y-87630000D02*
X143510000Y-80645000D01*
X144145000Y-80010000D02*
X146050000Y-80010000D01*
X146050000Y-80010000D02*
X146050000Y-87630000D01*
X146050000Y-87630000D02*
X143510000Y-87630000D01*
%TO.C,D1*%
X90805000Y-62230000D02*
X88900000Y-62230000D01*
X90805000Y-52070000D02*
X90805000Y-62230000D01*
X88900000Y-62230000D02*
X88265000Y-61595000D01*
X88265000Y-61595000D02*
X88265000Y-52070000D01*
X88265000Y-52070000D02*
X90805000Y-52070000D01*
%TO.C,J7*%
X107950000Y-122465000D02*
X107315000Y-123100000D01*
X107950000Y-120560000D02*
X107950000Y-122465000D01*
X107315000Y-123100000D02*
X105410000Y-123100000D01*
X105410000Y-123100000D02*
X105410000Y-120560000D01*
X105410000Y-120560000D02*
X107950000Y-120560000D01*
%TO.C,3V3 GND 5V*%
X136525000Y-57150000D02*
X135890000Y-56515000D01*
X148590000Y-57150000D02*
X136525000Y-57150000D01*
X135890000Y-56515000D02*
X135890000Y-54610000D01*
X135890000Y-54610000D02*
X148590000Y-54610000D01*
X148590000Y-54610000D02*
X148590000Y-57150000D01*
%TO.C,J11*%
X136525000Y-64770000D02*
X135890000Y-64135000D01*
X148590000Y-64770000D02*
X136525000Y-64770000D01*
X135890000Y-64135000D02*
X135890000Y-62230000D01*
X135890000Y-62230000D02*
X148590000Y-62230000D01*
X148590000Y-62230000D02*
X148590000Y-64770000D01*
%TO.C,R1*%
X102235000Y-50800000D02*
X101575000Y-50800000D01*
X101575000Y-52050000D02*
X101575000Y-49550000D01*
X101575000Y-49550000D02*
X95275000Y-49550000D01*
X95275000Y-52050000D02*
X101575000Y-52050000D01*
X95275000Y-49550000D02*
X95275000Y-52050000D01*
X94615000Y-50800000D02*
X95275000Y-50800000D01*
%TO.C,J10*%
X153035000Y-60960000D02*
X152400000Y-61595000D01*
X153035000Y-56515000D02*
X153035000Y-60960000D01*
X152400000Y-61595000D02*
X150495000Y-61595000D01*
X150495000Y-61595000D02*
X150495000Y-56515000D01*
X150495000Y-56515000D02*
X153035000Y-56515000D01*
%TO.C,J2*%
X148590000Y-80645000D02*
X149225000Y-80010000D01*
X148590000Y-87630000D02*
X148590000Y-80645000D01*
X149225000Y-80010000D02*
X151130000Y-80010000D01*
X151130000Y-80010000D02*
X151130000Y-87630000D01*
X151130000Y-87630000D02*
X148590000Y-87630000D01*
%TO.C,R2*%
X102235000Y-55880000D02*
X101575000Y-55880000D01*
X101575000Y-57130000D02*
X101575000Y-54630000D01*
X101575000Y-54630000D02*
X95275000Y-54630000D01*
X95275000Y-57130000D02*
X101575000Y-57130000D01*
X95275000Y-54630000D02*
X95275000Y-57130000D01*
X94615000Y-55880000D02*
X95275000Y-55880000D01*
%TO.C,R6*%
X100330000Y-102870000D02*
X100330000Y-103530000D01*
X101580000Y-103530000D02*
X99080000Y-103530000D01*
X99080000Y-103530000D02*
X99080000Y-109830000D01*
X101580000Y-109830000D02*
X101580000Y-103530000D01*
X99080000Y-109830000D02*
X101580000Y-109830000D01*
X100330000Y-110490000D02*
X100330000Y-109830000D01*
%TO.C,BZ1*%
X94345000Y-80645000D02*
G75*
G03*
X94345000Y-80645000I-1000000J0D01*
G01*
X99345000Y-80645000D02*
G75*
G03*
X99345000Y-80645000I-6000000J0D01*
G01*
D12*
%TO.C,U1*%
X105735000Y-43740000D02*
X116804000Y-43740000D01*
X105735000Y-94690000D02*
X105735000Y-43740000D01*
X105735000Y-94690000D02*
X111105000Y-94690000D01*
X111105000Y-75570000D02*
X128795000Y-75570000D01*
X111105000Y-88200000D02*
X111105000Y-75570000D01*
X111105000Y-88200000D02*
X128795000Y-88200000D01*
X111105000Y-94690000D02*
X111105000Y-88200000D01*
X111105000Y-94690000D02*
X128795000Y-94690000D01*
X116804000Y-43740000D02*
X123515000Y-43740000D01*
X116804000Y-47630000D02*
X116804000Y-43740000D01*
X123515000Y-43740000D02*
X123515000Y-47630000D01*
X123515000Y-43740000D02*
X134245000Y-43740000D01*
X123515000Y-47630000D02*
X116804000Y-47630000D01*
X128795000Y-75570000D02*
X128795000Y-88200000D01*
X128795000Y-88200000D02*
X128795000Y-94690000D01*
X128795000Y-94690000D02*
X134245000Y-94690000D01*
X134245000Y-43740000D02*
X134245000Y-94690000D01*
D13*
X105265000Y-53700000D02*
G75*
G03*
X105265000Y-53700000I-100000J0D01*
G01*
D11*
%TO.C,J9*%
X159345000Y-49525000D02*
X159345000Y-52575000D01*
X159345000Y-49525000D02*
X149155000Y-49525000D01*
X159345000Y-46995000D02*
X159345000Y-49525000D01*
X159345000Y-46995000D02*
X158405000Y-46995000D01*
X159345000Y-40135000D02*
X159345000Y-46995000D01*
X159345000Y-40135000D02*
X158785000Y-40135000D01*
X158785000Y-49785000D02*
X158785000Y-52325000D01*
X158785000Y-46605000D02*
X158785000Y-42035000D01*
X158785000Y-46605000D02*
X158405000Y-46605000D01*
X158785000Y-42035000D02*
X158785000Y-40135000D01*
X158785000Y-40135000D02*
X154725000Y-40135000D01*
X158405000Y-46995000D02*
X155105000Y-46995000D01*
X158405000Y-45845000D02*
X158025000Y-45845000D01*
X158405000Y-42675000D02*
X158405000Y-45845000D01*
X158385000Y-50805000D02*
X155325000Y-51435000D01*
X158255000Y-50675000D02*
X155205000Y-51305000D01*
X158025000Y-46605000D02*
X155485000Y-46605000D01*
X158025000Y-43815000D02*
X158025000Y-46605000D01*
X158025000Y-43815000D02*
X155485000Y-43815000D01*
X155485000Y-43815000D02*
X155485000Y-46605000D01*
X155105000Y-46995000D02*
X153405000Y-46995000D01*
X155105000Y-46605000D02*
X158405000Y-46605000D01*
X155105000Y-45845000D02*
X155485000Y-45845000D01*
X155105000Y-42675000D02*
X158405000Y-42675000D01*
X155105000Y-42675000D02*
X155105000Y-45845000D01*
X154725000Y-52325000D02*
X158785000Y-52325000D01*
X154725000Y-49785000D02*
X158785000Y-49785000D01*
X154725000Y-49785000D02*
X154725000Y-52325000D01*
X154725000Y-46605000D02*
X155105000Y-46605000D01*
X154725000Y-42035000D02*
X158785000Y-42035000D01*
X154725000Y-42035000D02*
X154725000Y-46605000D01*
X154725000Y-40135000D02*
X154725000Y-42035000D01*
X154725000Y-40135000D02*
X153785000Y-40135000D01*
X153785000Y-52325000D02*
X149715000Y-52325000D01*
X153785000Y-49785000D02*
X153785000Y-52325000D01*
X153785000Y-46605000D02*
X153405000Y-46605000D01*
X153785000Y-42035000D02*
X153785000Y-46605000D01*
X153785000Y-42035000D02*
X149715000Y-42035000D01*
X153785000Y-40135000D02*
X153785000Y-42035000D01*
X153785000Y-40135000D02*
X149715000Y-40135000D01*
X153405000Y-46605000D02*
X150095000Y-46605000D01*
X153405000Y-45845000D02*
X153025000Y-45845000D01*
X153405000Y-42675000D02*
X153405000Y-45845000D01*
X153375000Y-50805000D02*
X150325000Y-51435000D01*
X153245000Y-50675000D02*
X150205000Y-51305000D01*
X153025000Y-46605000D02*
X150485000Y-46605000D01*
X153025000Y-43815000D02*
X153025000Y-46605000D01*
X153025000Y-43815000D02*
X150485000Y-43815000D01*
X150485000Y-43815000D02*
X150485000Y-46605000D01*
X150095000Y-46995000D02*
X153405000Y-46995000D01*
X150095000Y-45845000D02*
X150485000Y-45845000D01*
X150095000Y-42675000D02*
X153405000Y-42675000D01*
X150095000Y-42675000D02*
X150095000Y-45845000D01*
X149715000Y-52325000D02*
X149715000Y-49785000D01*
X149715000Y-49785000D02*
X153785000Y-49785000D01*
X149715000Y-46605000D02*
X150095000Y-46605000D01*
X149715000Y-46605000D02*
X149715000Y-42035000D01*
X149715000Y-42035000D02*
X149715000Y-40135000D01*
X149715000Y-40135000D02*
X149155000Y-40135000D01*
X149155000Y-52575000D02*
X159345000Y-52575000D01*
X149155000Y-52575000D02*
X149155000Y-49525000D01*
X149155000Y-52575000D02*
X148655000Y-52575000D01*
X149155000Y-49525000D02*
X149155000Y-48005000D01*
X149155000Y-48005000D02*
X149155000Y-46995000D01*
X149155000Y-46995000D02*
X150095000Y-46995000D01*
X149155000Y-46995000D02*
X149155000Y-42295000D01*
X149155000Y-42295000D02*
X149155000Y-41145000D01*
X149155000Y-41145000D02*
X149155000Y-40135000D01*
X148655000Y-52575000D02*
X148655000Y-47755000D01*
X148655000Y-47755000D02*
X149155000Y-48005000D01*
X148655000Y-42545000D02*
X149155000Y-42295000D01*
X148655000Y-42545000D02*
X148655000Y-40895000D01*
X148655000Y-40895000D02*
X149155000Y-41145000D01*
X155225024Y-51426534D02*
G75*
G03*
X158385000Y-51355000I1549976J1361533D01*
G01*
X158327972Y-51413699D02*
G75*
G03*
X158185000Y-50485000I-432973J408699D01*
G01*
X155279381Y-50441005D02*
G75*
G03*
X155235000Y-51405000I455619J-503995D01*
G01*
X158224829Y-50513582D02*
G75*
G03*
X155235000Y-50475000I-1519829J-1911418D01*
G01*
X150226761Y-51416686D02*
G75*
G03*
X153375000Y-51355000I1548239J1351686D01*
G01*
X153327972Y-51413699D02*
G75*
G03*
X153185000Y-50485000I-432972J408699D01*
G01*
X153217332Y-50523264D02*
G75*
G03*
X150235000Y-50475001I-1522332J-1901736D01*
G01*
X150279468Y-50431005D02*
G75*
G03*
X150225000Y-51405000I455532J-513995D01*
G01*
%TO.C,R5*%
X95250000Y-102870000D02*
X95250000Y-103530000D01*
X96500000Y-103530000D02*
X94000000Y-103530000D01*
X94000000Y-103530000D02*
X94000000Y-109830000D01*
X96500000Y-109830000D02*
X96500000Y-103530000D01*
X94000000Y-109830000D02*
X96500000Y-109830000D01*
X95250000Y-110490000D02*
X95250000Y-109830000D01*
%TO.C,R4*%
X90830000Y-102870000D02*
X90830000Y-103530000D01*
X92080000Y-103530000D02*
X89580000Y-103530000D01*
X89580000Y-103530000D02*
X89580000Y-109830000D01*
X92080000Y-109830000D02*
X92080000Y-103530000D01*
X89580000Y-109830000D02*
X92080000Y-109830000D01*
X90830000Y-110490000D02*
X90830000Y-109830000D01*
%TO.C,J8*%
X107950000Y-100965000D02*
X107315000Y-101600000D01*
X107950000Y-99060000D02*
X107950000Y-100965000D01*
X107315000Y-101600000D02*
X105410000Y-101600000D01*
X105410000Y-101600000D02*
X105410000Y-99060000D01*
X105410000Y-99060000D02*
X107950000Y-99060000D01*
%TO.C,J6*%
X158950000Y-100965000D02*
X158315000Y-101600000D01*
X158950000Y-99060000D02*
X158950000Y-100965000D01*
X158315000Y-101600000D02*
X156410000Y-101600000D01*
X156410000Y-101600000D02*
X156410000Y-99060000D01*
X156410000Y-99060000D02*
X158950000Y-99060000D01*
%TO.C,J1*%
X146050000Y-80645000D02*
X146685000Y-80010000D01*
X146050000Y-87630000D02*
X146050000Y-80645000D01*
X146685000Y-80010000D02*
X148590000Y-80010000D01*
X148590000Y-80010000D02*
X148590000Y-87630000D01*
X148590000Y-87630000D02*
X146050000Y-87630000D01*
%TO.C,J3*%
X151130000Y-80645000D02*
X151765000Y-80010000D01*
X151130000Y-87630000D02*
X151130000Y-80645000D01*
X151765000Y-80010000D02*
X153670000Y-80010000D01*
X153670000Y-80010000D02*
X153670000Y-87630000D01*
X153670000Y-87630000D02*
X151130000Y-87630000D01*
%TO.C,R3*%
X102235000Y-60960000D02*
X101575000Y-60960000D01*
X101575000Y-62210000D02*
X101575000Y-59710000D01*
X101575000Y-59710000D02*
X95275000Y-59710000D01*
X95275000Y-62210000D02*
X101575000Y-62210000D01*
X95275000Y-59710000D02*
X95275000Y-62210000D01*
X94615000Y-60960000D02*
X95275000Y-60960000D01*
%TO.C,R7*%
X102235000Y-89535000D02*
X102235000Y-88875000D01*
X100985000Y-88875000D02*
X103485000Y-88875000D01*
X103485000Y-88875000D02*
X103485000Y-82575000D01*
X100985000Y-82575000D02*
X100985000Y-88875000D01*
X103485000Y-82575000D02*
X100985000Y-82575000D01*
X102235000Y-81915000D02*
X102235000Y-82575000D01*
%TO.C,SW1*%
X156210000Y-60960000D02*
X155575000Y-61595000D01*
X156210000Y-56515000D02*
X156210000Y-60960000D01*
X155575000Y-61595000D02*
X153670000Y-61595000D01*
X153670000Y-61595000D02*
X153670000Y-56515000D01*
X153670000Y-56515000D02*
X156210000Y-56515000D01*
%TO.C,D2*%
X101600000Y-114325000D02*
X101600000Y-116230000D01*
X91440000Y-114325000D02*
X101600000Y-114325000D01*
X101600000Y-116230000D02*
X100965000Y-116865000D01*
X100965000Y-116865000D02*
X91440000Y-116865000D01*
X91440000Y-116865000D02*
X91440000Y-114325000D01*
%TO.C,J12*%
X136525000Y-60960000D02*
X135890000Y-60325000D01*
X148590000Y-60960000D02*
X136525000Y-60960000D01*
X135890000Y-60325000D02*
X135890000Y-58420000D01*
X135890000Y-58420000D02*
X148590000Y-58420000D01*
X148590000Y-58420000D02*
X148590000Y-60960000D01*
%TD*%
M02*
