M48
; DRILL file {KiCad 7.0.1} date Mon Dec 18 22:51:47 2023
; FORMAT={-:-/ absolute / inch / decimal}
; #@! TF.CreationDate,2023-12-18T22:51:47+05:30
; #@! TF.GenerationSoftware,Kicad,Pcbnew,7.0.1
; #@! TF.FileFunction,Plated,1,2,PTH
FMAT,2
INCH
; #@! TA.AperFunction,Plated,PTH,ComponentDrill
T1C0.0315
; #@! TA.AperFunction,Plated,PTH,ComponentDrill
T2C0.0394
; #@! TA.AperFunction,Plated,PTH,ComponentDrill
T3C0.0402
; #@! TA.AperFunction,Plated,PTH,ComponentDrill
T4C0.0520
%
G90
G05
T1
X3.576Y-4.05
X3.576Y-4.35
X3.725Y-2.0
X3.725Y-2.2
X3.725Y-2.4
X3.75Y-4.05
X3.75Y-4.35
X3.95Y-4.05
X3.95Y-4.35
X4.025Y-2.0
X4.025Y-2.2
X4.025Y-2.4
X4.025Y-3.225
X4.025Y-3.525
T2
X3.525Y-2.1
X3.525Y-2.2
X3.525Y-2.3
X3.525Y-2.4
X3.5254Y-3.175
X3.65Y-4.551
X3.75Y-4.551
X3.8246Y-3.175
X3.85Y-4.551
X3.95Y-4.551
X4.2Y-3.95
X4.2Y-4.7965
X5.7Y-3.2
X5.7Y-3.3
X5.7Y-3.4
X5.8Y-2.275
X5.8Y-2.375
X5.8Y-3.2
X5.8Y-3.3
X5.8Y-3.4
X5.9Y-3.2
X5.9Y-3.3
X5.9Y-3.4
X5.925Y-2.275
X5.925Y-2.375
X6.0Y-3.2
X6.0Y-3.3
X6.0Y-3.4
X6.2079Y-3.95
X6.2079Y-4.7965
T3
X4.225Y-2.1142
X4.225Y-2.2142
X4.225Y-2.3142
X4.225Y-2.4142
X4.225Y-2.5142
X4.225Y-2.6142
X4.225Y-2.7142
X4.225Y-2.8142
X4.225Y-2.9142
X4.225Y-3.0142
X4.225Y-3.1142
X4.225Y-3.2142
X4.225Y-3.3142
X4.225Y-3.4142
X4.225Y-3.5142
X5.225Y-2.1142
X5.225Y-2.2142
X5.225Y-2.3142
X5.225Y-2.4142
X5.225Y-2.5142
X5.225Y-2.6142
X5.225Y-2.7142
X5.225Y-2.8142
X5.225Y-2.9142
X5.225Y-3.0142
X5.225Y-3.1142
X5.225Y-3.2142
X5.225Y-3.3142
X5.225Y-3.4142
X5.225Y-3.5142
T4
X5.975Y-1.825
X6.1719Y-1.825
T0
M30
