%TF.GenerationSoftware,KiCad,Pcbnew,7.0.1*%
%TF.CreationDate,2024-01-15T22:42:35+05:30*%
%TF.ProjectId,hologlyph bot circuit,686f6c6f-676c-4797-9068-20626f742063,rev?*%
%TF.SameCoordinates,Original*%
%TF.FileFunction,Drillmap*%
%TF.FilePolarity,Positive*%
%FSLAX45Y45*%
G04 Gerber Fmt 4.5, Leading zero omitted, Abs format (unit mm)*
G04 Created by KiCad (PCBNEW 7.0.1) date 2024-01-15 22:42:35*
%MOMM*%
%LPD*%
G01*
G04 APERTURE LIST*
%ADD10C,0.100000*%
%ADD11C,0.200000*%
%ADD12C,0.300000*%
G04 APERTURE END LIST*
D10*
X8291000Y-4013000D02*
X16891000Y-4013000D01*
X16891000Y-13013000D01*
X8291000Y-13013000D01*
X8291000Y-4013000D01*
D11*
D12*
X10623500Y-4424000D02*
X10923500Y-4724000D01*
X10923500Y-4424000D02*
X10623500Y-4724000D01*
X10623500Y-9119000D02*
X10923500Y-9419000D01*
X10923500Y-9119000D02*
X10623500Y-9419000D01*
X13074500Y-4424000D02*
X13374500Y-4724000D01*
X13374500Y-4424000D02*
X13074500Y-4724000D01*
X13074500Y-9119000D02*
X13374500Y-9419000D01*
X13374500Y-9119000D02*
X13074500Y-9419000D01*
D11*
X8533619Y-13330524D02*
X8533619Y-13130524D01*
X8533619Y-13130524D02*
X8581238Y-13130524D01*
X8581238Y-13130524D02*
X8609810Y-13140048D01*
X8609810Y-13140048D02*
X8628857Y-13159095D01*
X8628857Y-13159095D02*
X8638381Y-13178143D01*
X8638381Y-13178143D02*
X8647905Y-13216238D01*
X8647905Y-13216238D02*
X8647905Y-13244809D01*
X8647905Y-13244809D02*
X8638381Y-13282905D01*
X8638381Y-13282905D02*
X8628857Y-13301952D01*
X8628857Y-13301952D02*
X8609810Y-13321000D01*
X8609810Y-13321000D02*
X8581238Y-13330524D01*
X8581238Y-13330524D02*
X8533619Y-13330524D01*
X8733619Y-13330524D02*
X8733619Y-13197190D01*
X8733619Y-13235286D02*
X8743143Y-13216238D01*
X8743143Y-13216238D02*
X8752667Y-13206714D01*
X8752667Y-13206714D02*
X8771714Y-13197190D01*
X8771714Y-13197190D02*
X8790762Y-13197190D01*
X8857429Y-13330524D02*
X8857429Y-13197190D01*
X8857429Y-13130524D02*
X8847905Y-13140048D01*
X8847905Y-13140048D02*
X8857429Y-13149571D01*
X8857429Y-13149571D02*
X8866952Y-13140048D01*
X8866952Y-13140048D02*
X8857429Y-13130524D01*
X8857429Y-13130524D02*
X8857429Y-13149571D01*
X8981238Y-13330524D02*
X8962190Y-13321000D01*
X8962190Y-13321000D02*
X8952667Y-13301952D01*
X8952667Y-13301952D02*
X8952667Y-13130524D01*
X9086000Y-13330524D02*
X9066952Y-13321000D01*
X9066952Y-13321000D02*
X9057429Y-13301952D01*
X9057429Y-13301952D02*
X9057429Y-13130524D01*
X9314571Y-13330524D02*
X9314571Y-13130524D01*
X9314571Y-13130524D02*
X9381238Y-13273381D01*
X9381238Y-13273381D02*
X9447905Y-13130524D01*
X9447905Y-13130524D02*
X9447905Y-13330524D01*
X9628857Y-13330524D02*
X9628857Y-13225762D01*
X9628857Y-13225762D02*
X9619333Y-13206714D01*
X9619333Y-13206714D02*
X9600286Y-13197190D01*
X9600286Y-13197190D02*
X9562190Y-13197190D01*
X9562190Y-13197190D02*
X9543143Y-13206714D01*
X9628857Y-13321000D02*
X9609810Y-13330524D01*
X9609810Y-13330524D02*
X9562190Y-13330524D01*
X9562190Y-13330524D02*
X9543143Y-13321000D01*
X9543143Y-13321000D02*
X9533619Y-13301952D01*
X9533619Y-13301952D02*
X9533619Y-13282905D01*
X9533619Y-13282905D02*
X9543143Y-13263857D01*
X9543143Y-13263857D02*
X9562190Y-13254333D01*
X9562190Y-13254333D02*
X9609810Y-13254333D01*
X9609810Y-13254333D02*
X9628857Y-13244809D01*
X9724095Y-13197190D02*
X9724095Y-13397190D01*
X9724095Y-13206714D02*
X9743143Y-13197190D01*
X9743143Y-13197190D02*
X9781238Y-13197190D01*
X9781238Y-13197190D02*
X9800286Y-13206714D01*
X9800286Y-13206714D02*
X9809810Y-13216238D01*
X9809810Y-13216238D02*
X9819333Y-13235286D01*
X9819333Y-13235286D02*
X9819333Y-13292428D01*
X9819333Y-13292428D02*
X9809810Y-13311476D01*
X9809810Y-13311476D02*
X9800286Y-13321000D01*
X9800286Y-13321000D02*
X9781238Y-13330524D01*
X9781238Y-13330524D02*
X9743143Y-13330524D01*
X9743143Y-13330524D02*
X9724095Y-13321000D01*
X9905048Y-13311476D02*
X9914571Y-13321000D01*
X9914571Y-13321000D02*
X9905048Y-13330524D01*
X9905048Y-13330524D02*
X9895524Y-13321000D01*
X9895524Y-13321000D02*
X9905048Y-13311476D01*
X9905048Y-13311476D02*
X9905048Y-13330524D01*
X9905048Y-13206714D02*
X9914571Y-13216238D01*
X9914571Y-13216238D02*
X9905048Y-13225762D01*
X9905048Y-13225762D02*
X9895524Y-13216238D01*
X9895524Y-13216238D02*
X9905048Y-13206714D01*
X9905048Y-13206714D02*
X9905048Y-13225762D01*
X8086000Y-13558000D02*
X8286000Y-13758000D01*
X8286000Y-13558000D02*
X8086000Y-13758000D01*
X8514571Y-13550524D02*
X8638381Y-13550524D01*
X8638381Y-13550524D02*
X8571714Y-13626714D01*
X8571714Y-13626714D02*
X8600286Y-13626714D01*
X8600286Y-13626714D02*
X8619333Y-13636238D01*
X8619333Y-13636238D02*
X8628857Y-13645762D01*
X8628857Y-13645762D02*
X8638381Y-13664809D01*
X8638381Y-13664809D02*
X8638381Y-13712428D01*
X8638381Y-13712428D02*
X8628857Y-13731476D01*
X8628857Y-13731476D02*
X8619333Y-13741000D01*
X8619333Y-13741000D02*
X8600286Y-13750524D01*
X8600286Y-13750524D02*
X8543143Y-13750524D01*
X8543143Y-13750524D02*
X8524095Y-13741000D01*
X8524095Y-13741000D02*
X8514571Y-13731476D01*
X8724095Y-13731476D02*
X8733619Y-13741000D01*
X8733619Y-13741000D02*
X8724095Y-13750524D01*
X8724095Y-13750524D02*
X8714571Y-13741000D01*
X8714571Y-13741000D02*
X8724095Y-13731476D01*
X8724095Y-13731476D02*
X8724095Y-13750524D01*
X8857429Y-13550524D02*
X8876476Y-13550524D01*
X8876476Y-13550524D02*
X8895524Y-13560048D01*
X8895524Y-13560048D02*
X8905048Y-13569571D01*
X8905048Y-13569571D02*
X8914571Y-13588619D01*
X8914571Y-13588619D02*
X8924095Y-13626714D01*
X8924095Y-13626714D02*
X8924095Y-13674333D01*
X8924095Y-13674333D02*
X8914571Y-13712428D01*
X8914571Y-13712428D02*
X8905048Y-13731476D01*
X8905048Y-13731476D02*
X8895524Y-13741000D01*
X8895524Y-13741000D02*
X8876476Y-13750524D01*
X8876476Y-13750524D02*
X8857429Y-13750524D01*
X8857429Y-13750524D02*
X8838381Y-13741000D01*
X8838381Y-13741000D02*
X8828857Y-13731476D01*
X8828857Y-13731476D02*
X8819333Y-13712428D01*
X8819333Y-13712428D02*
X8809810Y-13674333D01*
X8809810Y-13674333D02*
X8809810Y-13626714D01*
X8809810Y-13626714D02*
X8819333Y-13588619D01*
X8819333Y-13588619D02*
X8828857Y-13569571D01*
X8828857Y-13569571D02*
X8838381Y-13560048D01*
X8838381Y-13560048D02*
X8857429Y-13550524D01*
X9047905Y-13550524D02*
X9066952Y-13550524D01*
X9066952Y-13550524D02*
X9086000Y-13560048D01*
X9086000Y-13560048D02*
X9095524Y-13569571D01*
X9095524Y-13569571D02*
X9105048Y-13588619D01*
X9105048Y-13588619D02*
X9114571Y-13626714D01*
X9114571Y-13626714D02*
X9114571Y-13674333D01*
X9114571Y-13674333D02*
X9105048Y-13712428D01*
X9105048Y-13712428D02*
X9095524Y-13731476D01*
X9095524Y-13731476D02*
X9086000Y-13741000D01*
X9086000Y-13741000D02*
X9066952Y-13750524D01*
X9066952Y-13750524D02*
X9047905Y-13750524D01*
X9047905Y-13750524D02*
X9028857Y-13741000D01*
X9028857Y-13741000D02*
X9019333Y-13731476D01*
X9019333Y-13731476D02*
X9009810Y-13712428D01*
X9009810Y-13712428D02*
X9000286Y-13674333D01*
X9000286Y-13674333D02*
X9000286Y-13626714D01*
X9000286Y-13626714D02*
X9009810Y-13588619D01*
X9009810Y-13588619D02*
X9019333Y-13569571D01*
X9019333Y-13569571D02*
X9028857Y-13560048D01*
X9028857Y-13560048D02*
X9047905Y-13550524D01*
X9238381Y-13550524D02*
X9257429Y-13550524D01*
X9257429Y-13550524D02*
X9276476Y-13560048D01*
X9276476Y-13560048D02*
X9286000Y-13569571D01*
X9286000Y-13569571D02*
X9295524Y-13588619D01*
X9295524Y-13588619D02*
X9305048Y-13626714D01*
X9305048Y-13626714D02*
X9305048Y-13674333D01*
X9305048Y-13674333D02*
X9295524Y-13712428D01*
X9295524Y-13712428D02*
X9286000Y-13731476D01*
X9286000Y-13731476D02*
X9276476Y-13741000D01*
X9276476Y-13741000D02*
X9257429Y-13750524D01*
X9257429Y-13750524D02*
X9238381Y-13750524D01*
X9238381Y-13750524D02*
X9219333Y-13741000D01*
X9219333Y-13741000D02*
X9209810Y-13731476D01*
X9209810Y-13731476D02*
X9200286Y-13712428D01*
X9200286Y-13712428D02*
X9190762Y-13674333D01*
X9190762Y-13674333D02*
X9190762Y-13626714D01*
X9190762Y-13626714D02*
X9200286Y-13588619D01*
X9200286Y-13588619D02*
X9209810Y-13569571D01*
X9209810Y-13569571D02*
X9219333Y-13560048D01*
X9219333Y-13560048D02*
X9238381Y-13550524D01*
X9390762Y-13750524D02*
X9390762Y-13617190D01*
X9390762Y-13636238D02*
X9400286Y-13626714D01*
X9400286Y-13626714D02*
X9419333Y-13617190D01*
X9419333Y-13617190D02*
X9447905Y-13617190D01*
X9447905Y-13617190D02*
X9466952Y-13626714D01*
X9466952Y-13626714D02*
X9476476Y-13645762D01*
X9476476Y-13645762D02*
X9476476Y-13750524D01*
X9476476Y-13645762D02*
X9486000Y-13626714D01*
X9486000Y-13626714D02*
X9505048Y-13617190D01*
X9505048Y-13617190D02*
X9533619Y-13617190D01*
X9533619Y-13617190D02*
X9552667Y-13626714D01*
X9552667Y-13626714D02*
X9562191Y-13645762D01*
X9562191Y-13645762D02*
X9562191Y-13750524D01*
X9657429Y-13750524D02*
X9657429Y-13617190D01*
X9657429Y-13636238D02*
X9666952Y-13626714D01*
X9666952Y-13626714D02*
X9686000Y-13617190D01*
X9686000Y-13617190D02*
X9714572Y-13617190D01*
X9714572Y-13617190D02*
X9733619Y-13626714D01*
X9733619Y-13626714D02*
X9743143Y-13645762D01*
X9743143Y-13645762D02*
X9743143Y-13750524D01*
X9743143Y-13645762D02*
X9752667Y-13626714D01*
X9752667Y-13626714D02*
X9771714Y-13617190D01*
X9771714Y-13617190D02*
X9800286Y-13617190D01*
X9800286Y-13617190D02*
X9819333Y-13626714D01*
X9819333Y-13626714D02*
X9828857Y-13645762D01*
X9828857Y-13645762D02*
X9828857Y-13750524D01*
X10219333Y-13541000D02*
X10047905Y-13798143D01*
X10476476Y-13550524D02*
X10495524Y-13550524D01*
X10495524Y-13550524D02*
X10514572Y-13560048D01*
X10514572Y-13560048D02*
X10524095Y-13569571D01*
X10524095Y-13569571D02*
X10533619Y-13588619D01*
X10533619Y-13588619D02*
X10543143Y-13626714D01*
X10543143Y-13626714D02*
X10543143Y-13674333D01*
X10543143Y-13674333D02*
X10533619Y-13712428D01*
X10533619Y-13712428D02*
X10524095Y-13731476D01*
X10524095Y-13731476D02*
X10514572Y-13741000D01*
X10514572Y-13741000D02*
X10495524Y-13750524D01*
X10495524Y-13750524D02*
X10476476Y-13750524D01*
X10476476Y-13750524D02*
X10457429Y-13741000D01*
X10457429Y-13741000D02*
X10447905Y-13731476D01*
X10447905Y-13731476D02*
X10438381Y-13712428D01*
X10438381Y-13712428D02*
X10428857Y-13674333D01*
X10428857Y-13674333D02*
X10428857Y-13626714D01*
X10428857Y-13626714D02*
X10438381Y-13588619D01*
X10438381Y-13588619D02*
X10447905Y-13569571D01*
X10447905Y-13569571D02*
X10457429Y-13560048D01*
X10457429Y-13560048D02*
X10476476Y-13550524D01*
X10628857Y-13731476D02*
X10638381Y-13741000D01*
X10638381Y-13741000D02*
X10628857Y-13750524D01*
X10628857Y-13750524D02*
X10619334Y-13741000D01*
X10619334Y-13741000D02*
X10628857Y-13731476D01*
X10628857Y-13731476D02*
X10628857Y-13750524D01*
X10828857Y-13750524D02*
X10714572Y-13750524D01*
X10771714Y-13750524D02*
X10771714Y-13550524D01*
X10771714Y-13550524D02*
X10752667Y-13579095D01*
X10752667Y-13579095D02*
X10733619Y-13598143D01*
X10733619Y-13598143D02*
X10714572Y-13607667D01*
X11019334Y-13750524D02*
X10905048Y-13750524D01*
X10962191Y-13750524D02*
X10962191Y-13550524D01*
X10962191Y-13550524D02*
X10943143Y-13579095D01*
X10943143Y-13579095D02*
X10924095Y-13598143D01*
X10924095Y-13598143D02*
X10905048Y-13607667D01*
X11133619Y-13636238D02*
X11114572Y-13626714D01*
X11114572Y-13626714D02*
X11105048Y-13617190D01*
X11105048Y-13617190D02*
X11095524Y-13598143D01*
X11095524Y-13598143D02*
X11095524Y-13588619D01*
X11095524Y-13588619D02*
X11105048Y-13569571D01*
X11105048Y-13569571D02*
X11114572Y-13560048D01*
X11114572Y-13560048D02*
X11133619Y-13550524D01*
X11133619Y-13550524D02*
X11171715Y-13550524D01*
X11171715Y-13550524D02*
X11190762Y-13560048D01*
X11190762Y-13560048D02*
X11200286Y-13569571D01*
X11200286Y-13569571D02*
X11209810Y-13588619D01*
X11209810Y-13588619D02*
X11209810Y-13598143D01*
X11209810Y-13598143D02*
X11200286Y-13617190D01*
X11200286Y-13617190D02*
X11190762Y-13626714D01*
X11190762Y-13626714D02*
X11171715Y-13636238D01*
X11171715Y-13636238D02*
X11133619Y-13636238D01*
X11133619Y-13636238D02*
X11114572Y-13645762D01*
X11114572Y-13645762D02*
X11105048Y-13655286D01*
X11105048Y-13655286D02*
X11095524Y-13674333D01*
X11095524Y-13674333D02*
X11095524Y-13712428D01*
X11095524Y-13712428D02*
X11105048Y-13731476D01*
X11105048Y-13731476D02*
X11114572Y-13741000D01*
X11114572Y-13741000D02*
X11133619Y-13750524D01*
X11133619Y-13750524D02*
X11171715Y-13750524D01*
X11171715Y-13750524D02*
X11190762Y-13741000D01*
X11190762Y-13741000D02*
X11200286Y-13731476D01*
X11200286Y-13731476D02*
X11209810Y-13712428D01*
X11209810Y-13712428D02*
X11209810Y-13674333D01*
X11209810Y-13674333D02*
X11200286Y-13655286D01*
X11200286Y-13655286D02*
X11190762Y-13645762D01*
X11190762Y-13645762D02*
X11171715Y-13636238D01*
X11400286Y-13750524D02*
X11286000Y-13750524D01*
X11343143Y-13750524D02*
X11343143Y-13550524D01*
X11343143Y-13550524D02*
X11324095Y-13579095D01*
X11324095Y-13579095D02*
X11305048Y-13598143D01*
X11305048Y-13598143D02*
X11286000Y-13607667D01*
X11476476Y-13550524D02*
X11476476Y-13588619D01*
X11552667Y-13550524D02*
X11552667Y-13588619D01*
X11847905Y-13826714D02*
X11838381Y-13817190D01*
X11838381Y-13817190D02*
X11819334Y-13788619D01*
X11819334Y-13788619D02*
X11809810Y-13769571D01*
X11809810Y-13769571D02*
X11800286Y-13741000D01*
X11800286Y-13741000D02*
X11790762Y-13693381D01*
X11790762Y-13693381D02*
X11790762Y-13655286D01*
X11790762Y-13655286D02*
X11800286Y-13607667D01*
X11800286Y-13607667D02*
X11809810Y-13579095D01*
X11809810Y-13579095D02*
X11819334Y-13560048D01*
X11819334Y-13560048D02*
X11838381Y-13531476D01*
X11838381Y-13531476D02*
X11847905Y-13521952D01*
X12009810Y-13617190D02*
X12009810Y-13750524D01*
X11962191Y-13541000D02*
X11914572Y-13683857D01*
X11914572Y-13683857D02*
X12038381Y-13683857D01*
X12266953Y-13750524D02*
X12266953Y-13550524D01*
X12352667Y-13750524D02*
X12352667Y-13645762D01*
X12352667Y-13645762D02*
X12343143Y-13626714D01*
X12343143Y-13626714D02*
X12324096Y-13617190D01*
X12324096Y-13617190D02*
X12295524Y-13617190D01*
X12295524Y-13617190D02*
X12276476Y-13626714D01*
X12276476Y-13626714D02*
X12266953Y-13636238D01*
X12476476Y-13750524D02*
X12457429Y-13741000D01*
X12457429Y-13741000D02*
X12447905Y-13731476D01*
X12447905Y-13731476D02*
X12438381Y-13712428D01*
X12438381Y-13712428D02*
X12438381Y-13655286D01*
X12438381Y-13655286D02*
X12447905Y-13636238D01*
X12447905Y-13636238D02*
X12457429Y-13626714D01*
X12457429Y-13626714D02*
X12476476Y-13617190D01*
X12476476Y-13617190D02*
X12505048Y-13617190D01*
X12505048Y-13617190D02*
X12524096Y-13626714D01*
X12524096Y-13626714D02*
X12533619Y-13636238D01*
X12533619Y-13636238D02*
X12543143Y-13655286D01*
X12543143Y-13655286D02*
X12543143Y-13712428D01*
X12543143Y-13712428D02*
X12533619Y-13731476D01*
X12533619Y-13731476D02*
X12524096Y-13741000D01*
X12524096Y-13741000D02*
X12505048Y-13750524D01*
X12505048Y-13750524D02*
X12476476Y-13750524D01*
X12657429Y-13750524D02*
X12638381Y-13741000D01*
X12638381Y-13741000D02*
X12628857Y-13721952D01*
X12628857Y-13721952D02*
X12628857Y-13550524D01*
X12809810Y-13741000D02*
X12790762Y-13750524D01*
X12790762Y-13750524D02*
X12752667Y-13750524D01*
X12752667Y-13750524D02*
X12733619Y-13741000D01*
X12733619Y-13741000D02*
X12724096Y-13721952D01*
X12724096Y-13721952D02*
X12724096Y-13645762D01*
X12724096Y-13645762D02*
X12733619Y-13626714D01*
X12733619Y-13626714D02*
X12752667Y-13617190D01*
X12752667Y-13617190D02*
X12790762Y-13617190D01*
X12790762Y-13617190D02*
X12809810Y-13626714D01*
X12809810Y-13626714D02*
X12819334Y-13645762D01*
X12819334Y-13645762D02*
X12819334Y-13664809D01*
X12819334Y-13664809D02*
X12724096Y-13683857D01*
X12895524Y-13741000D02*
X12914572Y-13750524D01*
X12914572Y-13750524D02*
X12952667Y-13750524D01*
X12952667Y-13750524D02*
X12971715Y-13741000D01*
X12971715Y-13741000D02*
X12981238Y-13721952D01*
X12981238Y-13721952D02*
X12981238Y-13712428D01*
X12981238Y-13712428D02*
X12971715Y-13693381D01*
X12971715Y-13693381D02*
X12952667Y-13683857D01*
X12952667Y-13683857D02*
X12924096Y-13683857D01*
X12924096Y-13683857D02*
X12905048Y-13674333D01*
X12905048Y-13674333D02*
X12895524Y-13655286D01*
X12895524Y-13655286D02*
X12895524Y-13645762D01*
X12895524Y-13645762D02*
X12905048Y-13626714D01*
X12905048Y-13626714D02*
X12924096Y-13617190D01*
X12924096Y-13617190D02*
X12952667Y-13617190D01*
X12952667Y-13617190D02*
X12971715Y-13626714D01*
X13047905Y-13826714D02*
X13057429Y-13817190D01*
X13057429Y-13817190D02*
X13076477Y-13788619D01*
X13076477Y-13788619D02*
X13086000Y-13769571D01*
X13086000Y-13769571D02*
X13095524Y-13741000D01*
X13095524Y-13741000D02*
X13105048Y-13693381D01*
X13105048Y-13693381D02*
X13105048Y-13655286D01*
X13105048Y-13655286D02*
X13095524Y-13607667D01*
X13095524Y-13607667D02*
X13086000Y-13579095D01*
X13086000Y-13579095D02*
X13076477Y-13560048D01*
X13076477Y-13560048D02*
X13057429Y-13531476D01*
X13057429Y-13531476D02*
X13047905Y-13521952D01*
X13409810Y-13826714D02*
X13400286Y-13817190D01*
X13400286Y-13817190D02*
X13381238Y-13788619D01*
X13381238Y-13788619D02*
X13371715Y-13769571D01*
X13371715Y-13769571D02*
X13362191Y-13741000D01*
X13362191Y-13741000D02*
X13352667Y-13693381D01*
X13352667Y-13693381D02*
X13352667Y-13655286D01*
X13352667Y-13655286D02*
X13362191Y-13607667D01*
X13362191Y-13607667D02*
X13371715Y-13579095D01*
X13371715Y-13579095D02*
X13381238Y-13560048D01*
X13381238Y-13560048D02*
X13400286Y-13531476D01*
X13400286Y-13531476D02*
X13409810Y-13521952D01*
X13486000Y-13617190D02*
X13486000Y-13750524D01*
X13486000Y-13636238D02*
X13495524Y-13626714D01*
X13495524Y-13626714D02*
X13514572Y-13617190D01*
X13514572Y-13617190D02*
X13543143Y-13617190D01*
X13543143Y-13617190D02*
X13562191Y-13626714D01*
X13562191Y-13626714D02*
X13571715Y-13645762D01*
X13571715Y-13645762D02*
X13571715Y-13750524D01*
X13695524Y-13750524D02*
X13676477Y-13741000D01*
X13676477Y-13741000D02*
X13666953Y-13731476D01*
X13666953Y-13731476D02*
X13657429Y-13712428D01*
X13657429Y-13712428D02*
X13657429Y-13655286D01*
X13657429Y-13655286D02*
X13666953Y-13636238D01*
X13666953Y-13636238D02*
X13676477Y-13626714D01*
X13676477Y-13626714D02*
X13695524Y-13617190D01*
X13695524Y-13617190D02*
X13724096Y-13617190D01*
X13724096Y-13617190D02*
X13743143Y-13626714D01*
X13743143Y-13626714D02*
X13752667Y-13636238D01*
X13752667Y-13636238D02*
X13762191Y-13655286D01*
X13762191Y-13655286D02*
X13762191Y-13712428D01*
X13762191Y-13712428D02*
X13752667Y-13731476D01*
X13752667Y-13731476D02*
X13743143Y-13741000D01*
X13743143Y-13741000D02*
X13724096Y-13750524D01*
X13724096Y-13750524D02*
X13695524Y-13750524D01*
X13819334Y-13617190D02*
X13895524Y-13617190D01*
X13847905Y-13550524D02*
X13847905Y-13721952D01*
X13847905Y-13721952D02*
X13857429Y-13741000D01*
X13857429Y-13741000D02*
X13876477Y-13750524D01*
X13876477Y-13750524D02*
X13895524Y-13750524D01*
X14114572Y-13617190D02*
X14114572Y-13817190D01*
X14114572Y-13626714D02*
X14133619Y-13617190D01*
X14133619Y-13617190D02*
X14171715Y-13617190D01*
X14171715Y-13617190D02*
X14190762Y-13626714D01*
X14190762Y-13626714D02*
X14200286Y-13636238D01*
X14200286Y-13636238D02*
X14209810Y-13655286D01*
X14209810Y-13655286D02*
X14209810Y-13712428D01*
X14209810Y-13712428D02*
X14200286Y-13731476D01*
X14200286Y-13731476D02*
X14190762Y-13741000D01*
X14190762Y-13741000D02*
X14171715Y-13750524D01*
X14171715Y-13750524D02*
X14133619Y-13750524D01*
X14133619Y-13750524D02*
X14114572Y-13741000D01*
X14324096Y-13750524D02*
X14305048Y-13741000D01*
X14305048Y-13741000D02*
X14295524Y-13721952D01*
X14295524Y-13721952D02*
X14295524Y-13550524D01*
X14486000Y-13750524D02*
X14486000Y-13645762D01*
X14486000Y-13645762D02*
X14476477Y-13626714D01*
X14476477Y-13626714D02*
X14457429Y-13617190D01*
X14457429Y-13617190D02*
X14419334Y-13617190D01*
X14419334Y-13617190D02*
X14400286Y-13626714D01*
X14486000Y-13741000D02*
X14466953Y-13750524D01*
X14466953Y-13750524D02*
X14419334Y-13750524D01*
X14419334Y-13750524D02*
X14400286Y-13741000D01*
X14400286Y-13741000D02*
X14390762Y-13721952D01*
X14390762Y-13721952D02*
X14390762Y-13702905D01*
X14390762Y-13702905D02*
X14400286Y-13683857D01*
X14400286Y-13683857D02*
X14419334Y-13674333D01*
X14419334Y-13674333D02*
X14466953Y-13674333D01*
X14466953Y-13674333D02*
X14486000Y-13664809D01*
X14552667Y-13617190D02*
X14628858Y-13617190D01*
X14581239Y-13550524D02*
X14581239Y-13721952D01*
X14581239Y-13721952D02*
X14590762Y-13741000D01*
X14590762Y-13741000D02*
X14609810Y-13750524D01*
X14609810Y-13750524D02*
X14628858Y-13750524D01*
X14771715Y-13741000D02*
X14752667Y-13750524D01*
X14752667Y-13750524D02*
X14714572Y-13750524D01*
X14714572Y-13750524D02*
X14695524Y-13741000D01*
X14695524Y-13741000D02*
X14686000Y-13721952D01*
X14686000Y-13721952D02*
X14686000Y-13645762D01*
X14686000Y-13645762D02*
X14695524Y-13626714D01*
X14695524Y-13626714D02*
X14714572Y-13617190D01*
X14714572Y-13617190D02*
X14752667Y-13617190D01*
X14752667Y-13617190D02*
X14771715Y-13626714D01*
X14771715Y-13626714D02*
X14781239Y-13645762D01*
X14781239Y-13645762D02*
X14781239Y-13664809D01*
X14781239Y-13664809D02*
X14686000Y-13683857D01*
X14952667Y-13750524D02*
X14952667Y-13550524D01*
X14952667Y-13741000D02*
X14933620Y-13750524D01*
X14933620Y-13750524D02*
X14895524Y-13750524D01*
X14895524Y-13750524D02*
X14876477Y-13741000D01*
X14876477Y-13741000D02*
X14866953Y-13731476D01*
X14866953Y-13731476D02*
X14857429Y-13712428D01*
X14857429Y-13712428D02*
X14857429Y-13655286D01*
X14857429Y-13655286D02*
X14866953Y-13636238D01*
X14866953Y-13636238D02*
X14876477Y-13626714D01*
X14876477Y-13626714D02*
X14895524Y-13617190D01*
X14895524Y-13617190D02*
X14933620Y-13617190D01*
X14933620Y-13617190D02*
X14952667Y-13626714D01*
X15028858Y-13826714D02*
X15038381Y-13817190D01*
X15038381Y-13817190D02*
X15057429Y-13788619D01*
X15057429Y-13788619D02*
X15066953Y-13769571D01*
X15066953Y-13769571D02*
X15076477Y-13741000D01*
X15076477Y-13741000D02*
X15086000Y-13693381D01*
X15086000Y-13693381D02*
X15086000Y-13655286D01*
X15086000Y-13655286D02*
X15076477Y-13607667D01*
X15076477Y-13607667D02*
X15066953Y-13579095D01*
X15066953Y-13579095D02*
X15057429Y-13560048D01*
X15057429Y-13560048D02*
X15038381Y-13531476D01*
X15038381Y-13531476D02*
X15028858Y-13521952D01*
M02*
