%TF.GenerationSoftware,KiCad,Pcbnew,7.0.1*%
%TF.CreationDate,2023-12-09T17:11:34+05:30*%
%TF.ProjectId,hologlyph bot circuit,686f6c6f-676c-4797-9068-20626f742063,rev?*%
%TF.SameCoordinates,Original*%
%TF.FileFunction,Other,User*%
%FSLAX46Y46*%
G04 Gerber Fmt 4.6, Leading zero omitted, Abs format (unit mm)*
G04 Created by KiCad (PCBNEW 7.0.1) date 2023-12-09 17:11:34*
%MOMM*%
%LPD*%
G01*
G04 APERTURE LIST*
%ADD10C,0.050000*%
G04 APERTURE END LIST*
D10*
%TO.C,J5*%
X155880000Y-120030000D02*
X155880000Y-123630000D01*
X155880000Y-123630000D02*
X159480000Y-123630000D01*
X159480000Y-120030000D02*
X155880000Y-120030000D01*
X159480000Y-123630000D02*
X159480000Y-120030000D01*
%TO.C,J4*%
X142980000Y-79480000D02*
X142980000Y-88130000D01*
X142980000Y-88130000D02*
X146580000Y-88130000D01*
X146580000Y-79480000D02*
X142980000Y-79480000D01*
X146580000Y-88130000D02*
X146580000Y-79480000D01*
%TO.C,U2*%
X123150000Y-104721926D02*
X123150000Y-116021926D01*
X123150000Y-116021926D02*
X139800000Y-116021926D01*
X139800000Y-104721926D02*
X123150000Y-104721926D01*
X139800000Y-116021926D02*
X139800000Y-104721926D01*
%TO.C,D1*%
X91335000Y-62760000D02*
X87785000Y-62760000D01*
X91335000Y-51560000D02*
X91335000Y-62760000D01*
X87785000Y-62760000D02*
X87785000Y-51560000D01*
X87785000Y-51560000D02*
X91335000Y-51560000D01*
%TO.C,J7*%
X104880000Y-120030000D02*
X104880000Y-123630000D01*
X104880000Y-123630000D02*
X108480000Y-123630000D01*
X108480000Y-120030000D02*
X104880000Y-120030000D01*
X108480000Y-123630000D02*
X108480000Y-120030000D01*
%TO.C,R1*%
X103285000Y-52300000D02*
X103285000Y-49300000D01*
X103285000Y-49300000D02*
X93565000Y-49300000D01*
X93565000Y-52300000D02*
X103285000Y-52300000D01*
X93565000Y-49300000D02*
X93565000Y-52300000D01*
%TO.C,J10*%
X149120000Y-62125000D02*
X149120000Y-55975000D01*
X149120000Y-55975000D02*
X145520000Y-55975000D01*
X145520000Y-62125000D02*
X149120000Y-62125000D01*
X145520000Y-55975000D02*
X145520000Y-62125000D01*
%TO.C,J2*%
X148060000Y-79480000D02*
X148060000Y-88130000D01*
X148060000Y-88130000D02*
X151660000Y-88130000D01*
X151660000Y-79480000D02*
X148060000Y-79480000D01*
X151660000Y-88130000D02*
X151660000Y-79480000D01*
%TO.C,R2*%
X103285000Y-57380000D02*
X103285000Y-54380000D01*
X103285000Y-54380000D02*
X93565000Y-54380000D01*
X93565000Y-57380000D02*
X103285000Y-57380000D01*
X93565000Y-54380000D02*
X93565000Y-57380000D01*
%TO.C,R6*%
X101830000Y-101820000D02*
X98830000Y-101820000D01*
X98830000Y-101820000D02*
X98830000Y-111540000D01*
X101830000Y-111540000D02*
X101830000Y-101820000D01*
X98830000Y-111540000D02*
X101830000Y-111540000D01*
%TO.C,BZ1*%
X99595000Y-80645000D02*
G75*
G03*
X99595000Y-80645000I-6250000J0D01*
G01*
%TO.C,U1*%
X105485000Y-43490000D02*
X105485000Y-94940000D01*
X105485000Y-94940000D02*
X134495000Y-94940000D01*
X134495000Y-43490000D02*
X105485000Y-43490000D01*
X134495000Y-94940000D02*
X134495000Y-43490000D01*
%TO.C,J9*%
X159595000Y-52825000D02*
X159595000Y-39885000D01*
X159595000Y-52825000D02*
X148405000Y-52825000D01*
X148405000Y-39885000D02*
X159595000Y-39885000D01*
X148405000Y-39885000D02*
X148405000Y-52825000D01*
%TO.C,R5*%
X96750000Y-101820000D02*
X93750000Y-101820000D01*
X93750000Y-101820000D02*
X93750000Y-111540000D01*
X96750000Y-111540000D02*
X96750000Y-101820000D01*
X93750000Y-111540000D02*
X96750000Y-111540000D01*
%TO.C,R4*%
X92330000Y-101820000D02*
X89330000Y-101820000D01*
X89330000Y-101820000D02*
X89330000Y-111540000D01*
X92330000Y-111540000D02*
X92330000Y-101820000D01*
X89330000Y-111540000D02*
X92330000Y-111540000D01*
%TO.C,J8*%
X104880000Y-98530000D02*
X104880000Y-102130000D01*
X104880000Y-102130000D02*
X108480000Y-102130000D01*
X108480000Y-98530000D02*
X104880000Y-98530000D01*
X108480000Y-102130000D02*
X108480000Y-98530000D01*
%TO.C,J6*%
X155880000Y-98530000D02*
X155880000Y-102130000D01*
X155880000Y-102130000D02*
X159480000Y-102130000D01*
X159480000Y-98530000D02*
X155880000Y-98530000D01*
X159480000Y-102130000D02*
X159480000Y-98530000D01*
%TO.C,J1*%
X145520000Y-79480000D02*
X145520000Y-88130000D01*
X145520000Y-88130000D02*
X149120000Y-88130000D01*
X149120000Y-79480000D02*
X145520000Y-79480000D01*
X149120000Y-88130000D02*
X149120000Y-79480000D01*
%TO.C,J3*%
X150600000Y-79480000D02*
X150600000Y-88130000D01*
X150600000Y-88130000D02*
X154200000Y-88130000D01*
X154200000Y-79480000D02*
X150600000Y-79480000D01*
X154200000Y-88130000D02*
X154200000Y-79480000D01*
%TO.C,R3*%
X103285000Y-62460000D02*
X103285000Y-59460000D01*
X103285000Y-59460000D02*
X93565000Y-59460000D01*
X93565000Y-62460000D02*
X103285000Y-62460000D01*
X93565000Y-59460000D02*
X93565000Y-62460000D01*
%TO.C,R7*%
X100735000Y-90585000D02*
X103735000Y-90585000D01*
X103735000Y-90585000D02*
X103735000Y-80865000D01*
X100735000Y-80865000D02*
X100735000Y-90585000D01*
X103735000Y-80865000D02*
X100735000Y-80865000D01*
%TO.C,SW1*%
X152295000Y-62125000D02*
X152295000Y-55975000D01*
X152295000Y-55975000D02*
X148695000Y-55975000D01*
X148695000Y-62125000D02*
X152295000Y-62125000D01*
X148695000Y-55975000D02*
X148695000Y-62125000D01*
%TO.C,D2*%
X102130000Y-113795000D02*
X102130000Y-117345000D01*
X90930000Y-113795000D02*
X102130000Y-113795000D01*
X102130000Y-117345000D02*
X90930000Y-117345000D01*
X90930000Y-117345000D02*
X90930000Y-113795000D01*
%TD*%
M02*
