%TF.GenerationSoftware,KiCad,Pcbnew,7.0.1*%
%TF.CreationDate,2024-01-15T22:41:26+05:30*%
%TF.ProjectId,hologlyph bot circuit,686f6c6f-676c-4797-9068-20626f742063,rev?*%
%TF.SameCoordinates,Original*%
%TF.FileFunction,Copper,L2,Bot*%
%TF.FilePolarity,Positive*%
%FSLAX46Y46*%
G04 Gerber Fmt 4.6, Leading zero omitted, Abs format (unit mm)*
G04 Created by KiCad (PCBNEW 7.0.1) date 2024-01-15 22:41:26*
%MOMM*%
%LPD*%
G01*
G04 APERTURE LIST*
%ADD10C,0.300000*%
%TA.AperFunction,ComponentPad*%
%ADD11R,1.700000X1.700000*%
%TD*%
%TA.AperFunction,ComponentPad*%
%ADD12O,1.700000X1.700000*%
%TD*%
%TA.AperFunction,ComponentPad*%
%ADD13C,1.600000*%
%TD*%
%TA.AperFunction,ComponentPad*%
%ADD14O,1.600000X1.600000*%
%TD*%
%TA.AperFunction,ComponentPad*%
%ADD15R,2.000000X2.000000*%
%TD*%
%TA.AperFunction,ComponentPad*%
%ADD16C,2.000000*%
%TD*%
%TA.AperFunction,ComponentPad*%
%ADD17R,1.980000X3.960000*%
%TD*%
%TA.AperFunction,ComponentPad*%
%ADD18O,1.980000X3.960000*%
%TD*%
%TA.AperFunction,Conductor*%
%ADD19C,0.250000*%
%TD*%
G04 APERTURE END LIST*
D10*
G36*
X101858287Y-126089849D02*
G01*
X101881004Y-126112567D01*
X101911426Y-126173409D01*
X101911426Y-126216874D01*
X101881003Y-126277718D01*
X101858286Y-126300435D01*
X101797444Y-126330857D01*
X101582855Y-126330857D01*
X101582855Y-126059428D01*
X101797445Y-126059428D01*
X101858287Y-126089849D01*
G37*
G36*
X101915430Y-125461279D02*
G01*
X101938148Y-125483996D01*
X101968569Y-125544837D01*
X101968569Y-125645446D01*
X101938148Y-125706288D01*
X101923255Y-125721180D01*
X101821742Y-125755018D01*
X101816074Y-125753998D01*
X101802982Y-125759428D01*
X101582855Y-125759428D01*
X101582855Y-125430857D01*
X101854587Y-125430857D01*
X101915430Y-125461279D01*
G37*
G36*
X99515429Y-126032706D02*
G01*
X99538148Y-126055425D01*
X99568569Y-126116266D01*
X99568569Y-126216874D01*
X99538147Y-126277718D01*
X99515428Y-126300436D01*
X99454588Y-126330857D01*
X99182855Y-126330857D01*
X99182855Y-126002285D01*
X99454587Y-126002285D01*
X99515429Y-126032706D01*
G37*
G36*
X95572573Y-126089849D02*
G01*
X95595290Y-126112567D01*
X95625712Y-126173409D01*
X95625712Y-126216874D01*
X95595289Y-126277718D01*
X95572572Y-126300435D01*
X95511730Y-126330857D01*
X95297141Y-126330857D01*
X95297141Y-126059428D01*
X95511731Y-126059428D01*
X95572573Y-126089849D01*
G37*
G36*
X95629716Y-125461279D02*
G01*
X95652434Y-125483996D01*
X95682855Y-125544837D01*
X95682855Y-125645446D01*
X95652434Y-125706288D01*
X95637541Y-125721180D01*
X95536028Y-125755018D01*
X95530360Y-125753998D01*
X95517268Y-125759428D01*
X95297141Y-125759428D01*
X95297141Y-125430857D01*
X95568873Y-125430857D01*
X95629716Y-125461279D01*
G37*
G36*
X96715431Y-125461279D02*
G01*
X96738149Y-125483996D01*
X96768569Y-125544837D01*
X96768569Y-125816875D01*
X96738148Y-125877717D01*
X96715430Y-125900435D01*
X96654587Y-125930857D01*
X96553980Y-125930857D01*
X96493138Y-125900436D01*
X96470419Y-125877717D01*
X96439998Y-125816874D01*
X96439998Y-125544838D01*
X96470419Y-125483995D01*
X96493137Y-125461278D01*
X96553979Y-125430857D01*
X96654588Y-125430857D01*
X96715431Y-125461279D01*
G37*
G36*
X92429717Y-125461279D02*
G01*
X92452435Y-125483996D01*
X92482855Y-125544837D01*
X92482855Y-125816875D01*
X92452434Y-125877717D01*
X92429716Y-125900435D01*
X92368873Y-125930857D01*
X92211427Y-125930857D01*
X92211427Y-125430857D01*
X92368874Y-125430857D01*
X92429717Y-125461279D01*
G37*
G36*
X89797142Y-125930857D02*
G01*
X89639695Y-125930857D01*
X89578853Y-125900436D01*
X89556134Y-125877717D01*
X89525713Y-125816874D01*
X89525713Y-125544838D01*
X89556134Y-125483995D01*
X89578852Y-125461278D01*
X89639694Y-125430857D01*
X89797142Y-125430857D01*
X89797142Y-125930857D01*
G37*
G36*
X88715432Y-125461279D02*
G01*
X88738150Y-125483996D01*
X88768570Y-125544837D01*
X88768570Y-125816875D01*
X88738149Y-125877717D01*
X88715431Y-125900435D01*
X88654588Y-125930857D01*
X88553981Y-125930857D01*
X88493139Y-125900436D01*
X88470420Y-125877717D01*
X88439999Y-125816874D01*
X88439999Y-125544838D01*
X88470420Y-125483995D01*
X88493138Y-125461278D01*
X88553980Y-125430857D01*
X88654589Y-125430857D01*
X88715432Y-125461279D01*
G37*
G36*
X87001147Y-125461279D02*
G01*
X87023865Y-125483996D01*
X87054285Y-125544837D01*
X87054285Y-125816875D01*
X87023864Y-125877717D01*
X87001146Y-125900435D01*
X86940303Y-125930857D01*
X86839696Y-125930857D01*
X86778854Y-125900436D01*
X86756135Y-125877717D01*
X86725714Y-125816874D01*
X86725714Y-125544838D01*
X86756135Y-125483995D01*
X86778853Y-125461278D01*
X86839695Y-125430857D01*
X86940304Y-125430857D01*
X87001147Y-125461279D01*
G37*
G36*
X103478570Y-127705429D02*
G01*
X84468571Y-127705429D01*
X84468571Y-125931677D01*
X85220972Y-125931677D01*
X85225714Y-125942060D01*
X85225714Y-126502425D01*
X85244198Y-126565377D01*
X85310771Y-126623062D01*
X85397963Y-126635599D01*
X85478090Y-126599006D01*
X85525714Y-126524901D01*
X85525714Y-126059428D01*
X85911428Y-126059428D01*
X85911428Y-126502425D01*
X85929912Y-126565377D01*
X85996485Y-126623062D01*
X86083677Y-126635599D01*
X86163804Y-126599006D01*
X86211428Y-126524901D01*
X86211428Y-125920159D01*
X86216170Y-125887179D01*
X86211428Y-125876796D01*
X86211428Y-125526209D01*
X86420284Y-125526209D01*
X86425714Y-125539301D01*
X86425714Y-125844209D01*
X86421853Y-125879973D01*
X86435560Y-125907387D01*
X86444198Y-125936805D01*
X86454910Y-125946087D01*
X86490281Y-126016829D01*
X86495647Y-126041493D01*
X86524867Y-126070713D01*
X86553024Y-126100984D01*
X86555864Y-126101710D01*
X86570633Y-126116479D01*
X86583523Y-126138181D01*
X86620496Y-126156667D01*
X86656769Y-126176474D01*
X86659690Y-126176265D01*
X86729982Y-126211411D01*
X86760241Y-126230857D01*
X86790892Y-126230857D01*
X86821066Y-126236287D01*
X86834158Y-126230857D01*
X86967638Y-126230857D01*
X87003402Y-126234718D01*
X87030816Y-126221010D01*
X87060234Y-126212373D01*
X87069516Y-126201660D01*
X87140258Y-126166289D01*
X87164922Y-126160924D01*
X87194142Y-126131703D01*
X87224413Y-126103547D01*
X87225139Y-126100706D01*
X87239911Y-126085934D01*
X87261611Y-126073046D01*
X87280091Y-126036084D01*
X87299903Y-125999802D01*
X87299693Y-125996878D01*
X87334838Y-125926589D01*
X87354285Y-125896329D01*
X87354285Y-125865677D01*
X87359715Y-125835503D01*
X87354285Y-125822411D01*
X87354285Y-125517501D01*
X87358146Y-125481741D01*
X87351808Y-125469066D01*
X87563141Y-125469066D01*
X87568571Y-125482158D01*
X87568571Y-126502425D01*
X87587055Y-126565377D01*
X87653628Y-126623062D01*
X87740820Y-126635599D01*
X87820947Y-126599006D01*
X87868571Y-126524901D01*
X87868571Y-125526209D01*
X88134569Y-125526209D01*
X88139999Y-125539301D01*
X88139999Y-125844209D01*
X88136138Y-125879973D01*
X88149845Y-125907387D01*
X88158483Y-125936805D01*
X88169195Y-125946087D01*
X88204566Y-126016829D01*
X88209932Y-126041493D01*
X88239152Y-126070713D01*
X88267309Y-126100984D01*
X88270149Y-126101710D01*
X88284918Y-126116479D01*
X88297808Y-126138181D01*
X88334781Y-126156667D01*
X88371054Y-126176474D01*
X88373975Y-126176265D01*
X88444267Y-126211411D01*
X88474526Y-126230857D01*
X88505177Y-126230857D01*
X88535351Y-126236287D01*
X88548443Y-126230857D01*
X88681923Y-126230857D01*
X88717687Y-126234718D01*
X88745101Y-126221010D01*
X88774519Y-126212373D01*
X88783801Y-126201660D01*
X88854543Y-126166289D01*
X88879207Y-126160924D01*
X88908427Y-126131703D01*
X88938698Y-126103547D01*
X88939424Y-126100706D01*
X88954196Y-126085934D01*
X88975896Y-126073046D01*
X88994376Y-126036084D01*
X89014188Y-125999802D01*
X89013978Y-125996878D01*
X89049123Y-125926589D01*
X89068570Y-125896329D01*
X89068570Y-125865677D01*
X89074000Y-125835503D01*
X89068570Y-125822411D01*
X89068570Y-125526209D01*
X89220283Y-125526209D01*
X89225713Y-125539301D01*
X89225713Y-125844209D01*
X89221852Y-125879973D01*
X89235559Y-125907387D01*
X89244197Y-125936805D01*
X89254909Y-125946087D01*
X89290280Y-126016829D01*
X89295646Y-126041493D01*
X89324866Y-126070713D01*
X89353023Y-126100984D01*
X89355863Y-126101710D01*
X89370632Y-126116479D01*
X89383522Y-126138181D01*
X89420495Y-126156667D01*
X89456768Y-126176474D01*
X89459689Y-126176265D01*
X89529981Y-126211411D01*
X89560240Y-126230857D01*
X89590891Y-126230857D01*
X89621065Y-126236287D01*
X89634157Y-126230857D01*
X89824780Y-126230857D01*
X89860544Y-126234718D01*
X89883485Y-126223247D01*
X89969391Y-126235599D01*
X90049518Y-126199006D01*
X90097142Y-126124901D01*
X90097142Y-126042592D01*
X90103378Y-126018205D01*
X90097142Y-125999440D01*
X90097142Y-125469066D01*
X90363140Y-125469066D01*
X90368570Y-125482158D01*
X90368570Y-126502425D01*
X90387054Y-126565377D01*
X90453627Y-126623062D01*
X90540819Y-126635599D01*
X90620946Y-126599006D01*
X90668570Y-126524901D01*
X90668570Y-126116219D01*
X90880574Y-126116219D01*
X90923867Y-126192935D01*
X91001762Y-126234067D01*
X91089529Y-126226556D01*
X91159303Y-126172786D01*
X91318569Y-125726839D01*
X91470277Y-126151619D01*
X91508857Y-126204687D01*
X91590953Y-126236620D01*
X91677282Y-126219101D01*
X91740434Y-126157690D01*
X91760359Y-126071885D01*
X91500224Y-125343509D01*
X91905192Y-125343509D01*
X91911427Y-125362271D01*
X91911427Y-126021037D01*
X91909967Y-126062444D01*
X91911427Y-126064902D01*
X91911427Y-126102425D01*
X91929911Y-126165377D01*
X91996484Y-126223062D01*
X92083676Y-126235599D01*
X92116045Y-126220816D01*
X92131669Y-126230857D01*
X92162320Y-126230857D01*
X92192495Y-126236287D01*
X92205587Y-126230857D01*
X92396208Y-126230857D01*
X92431972Y-126234718D01*
X92459386Y-126221010D01*
X92488804Y-126212373D01*
X92498086Y-126201660D01*
X92568828Y-126166289D01*
X92593492Y-126160924D01*
X92622712Y-126131703D01*
X92652983Y-126103547D01*
X92653709Y-126100706D01*
X92668481Y-126085934D01*
X92690181Y-126073046D01*
X92708661Y-126036084D01*
X92728473Y-125999802D01*
X92728263Y-125996878D01*
X92748993Y-125955418D01*
X92991206Y-125955418D01*
X92997141Y-125982700D01*
X92997141Y-126502425D01*
X93015625Y-126565377D01*
X93082198Y-126623062D01*
X93169390Y-126635599D01*
X93249517Y-126599006D01*
X93297141Y-126524901D01*
X93297141Y-126503106D01*
X94992399Y-126503106D01*
X95006239Y-126533412D01*
X95015625Y-126565377D01*
X95024250Y-126572851D01*
X95028992Y-126583233D01*
X95057019Y-126601245D01*
X95082198Y-126623062D01*
X95093495Y-126624686D01*
X95103097Y-126630857D01*
X95136410Y-126630857D01*
X95169390Y-126635599D01*
X95179773Y-126630857D01*
X95539065Y-126630857D01*
X95574829Y-126634718D01*
X95602243Y-126621010D01*
X95631661Y-126612373D01*
X95640943Y-126601660D01*
X95711687Y-126566288D01*
X95736350Y-126560923D01*
X95765565Y-126531706D01*
X95795840Y-126503547D01*
X95796566Y-126500705D01*
X95811337Y-126485934D01*
X95833036Y-126473047D01*
X95851511Y-126436095D01*
X95871330Y-126399801D01*
X95871120Y-126396877D01*
X95906266Y-126326587D01*
X95925712Y-126296329D01*
X95925712Y-126265678D01*
X95931142Y-126235503D01*
X95925712Y-126222411D01*
X95925712Y-126146076D01*
X95929573Y-126110312D01*
X95915865Y-126082896D01*
X95907228Y-126053480D01*
X95896516Y-126044198D01*
X95861144Y-125973454D01*
X95855780Y-125948793D01*
X95845306Y-125938319D01*
X95845758Y-125937227D01*
X95868477Y-125914508D01*
X95890179Y-125901619D01*
X95908665Y-125864645D01*
X95928472Y-125828373D01*
X95928263Y-125825451D01*
X95963409Y-125755159D01*
X95982855Y-125724901D01*
X95982855Y-125694250D01*
X95988285Y-125664076D01*
X95982855Y-125650984D01*
X95982855Y-125526209D01*
X96134568Y-125526209D01*
X96139998Y-125539301D01*
X96139998Y-125844209D01*
X96136137Y-125879973D01*
X96149844Y-125907387D01*
X96158482Y-125936805D01*
X96169194Y-125946087D01*
X96204565Y-126016829D01*
X96209931Y-126041493D01*
X96239151Y-126070713D01*
X96267308Y-126100984D01*
X96270148Y-126101710D01*
X96284917Y-126116479D01*
X96297807Y-126138181D01*
X96334780Y-126156667D01*
X96371053Y-126176474D01*
X96373974Y-126176265D01*
X96444266Y-126211411D01*
X96474525Y-126230857D01*
X96505176Y-126230857D01*
X96535350Y-126236287D01*
X96548442Y-126230857D01*
X96681922Y-126230857D01*
X96717686Y-126234718D01*
X96745100Y-126221010D01*
X96774518Y-126212373D01*
X96783800Y-126201660D01*
X96854542Y-126166289D01*
X96879206Y-126160924D01*
X96908426Y-126131703D01*
X96938697Y-126103547D01*
X96938810Y-126103106D01*
X97106684Y-126103106D01*
X97143277Y-126183233D01*
X97217382Y-126230857D01*
X97282855Y-126230857D01*
X97282855Y-126502425D01*
X97301339Y-126565377D01*
X97367912Y-126623062D01*
X97455104Y-126635599D01*
X97535231Y-126599006D01*
X97582855Y-126524901D01*
X97582855Y-126503106D01*
X98878113Y-126503106D01*
X98891953Y-126533412D01*
X98901339Y-126565377D01*
X98909964Y-126572851D01*
X98914706Y-126583233D01*
X98942733Y-126601245D01*
X98967912Y-126623062D01*
X98979209Y-126624686D01*
X98988811Y-126630857D01*
X99022124Y-126630857D01*
X99055104Y-126635599D01*
X99065487Y-126630857D01*
X99481923Y-126630857D01*
X99517686Y-126634718D01*
X99545100Y-126621010D01*
X99574518Y-126612373D01*
X99583800Y-126601660D01*
X99654543Y-126566288D01*
X99679205Y-126560924D01*
X99708422Y-126531706D01*
X99738696Y-126503546D01*
X99739421Y-126500707D01*
X99754193Y-126485935D01*
X99775893Y-126473047D01*
X99794373Y-126436085D01*
X99814186Y-126399802D01*
X99813976Y-126396879D01*
X99849123Y-126326587D01*
X99868569Y-126296329D01*
X99868569Y-126265678D01*
X99873999Y-126235503D01*
X99868569Y-126222411D01*
X99868569Y-126088933D01*
X99872430Y-126053169D01*
X99858722Y-126025753D01*
X99850085Y-125996337D01*
X99839373Y-125987055D01*
X99825957Y-125960223D01*
X100019508Y-125960223D01*
X100025712Y-125985039D01*
X100025712Y-125988139D01*
X100030929Y-126005909D01*
X100080853Y-126205602D01*
X100078994Y-126222830D01*
X100091327Y-126247496D01*
X100092565Y-126252447D01*
X100100941Y-126266724D01*
X100147422Y-126359686D01*
X100152788Y-126384350D01*
X100182011Y-126413573D01*
X100210165Y-126443841D01*
X100213004Y-126444567D01*
X100292505Y-126524068D01*
X100315065Y-126552089D01*
X100344147Y-126561782D01*
X100371051Y-126576474D01*
X100385187Y-126575462D01*
X100510436Y-126617212D01*
X100531668Y-126630857D01*
X100572981Y-126630857D01*
X100614306Y-126632352D01*
X100616828Y-126630857D01*
X100671192Y-126630857D01*
X100695649Y-126637087D01*
X100734841Y-126624022D01*
X100774518Y-126612373D01*
X100776437Y-126610157D01*
X100901198Y-126568570D01*
X100936348Y-126560924D01*
X100958022Y-126539249D01*
X100983198Y-126521753D01*
X100988615Y-126508656D01*
X100994165Y-126503106D01*
X101278113Y-126503106D01*
X101291953Y-126533412D01*
X101301339Y-126565377D01*
X101309964Y-126572851D01*
X101314706Y-126583233D01*
X101342733Y-126601245D01*
X101367912Y-126623062D01*
X101379209Y-126624686D01*
X101388811Y-126630857D01*
X101422124Y-126630857D01*
X101455104Y-126635599D01*
X101465487Y-126630857D01*
X101824779Y-126630857D01*
X101860543Y-126634718D01*
X101887957Y-126621010D01*
X101917375Y-126612373D01*
X101926657Y-126601660D01*
X101997401Y-126566288D01*
X102022064Y-126560923D01*
X102051279Y-126531706D01*
X102081554Y-126503547D01*
X102082280Y-126500705D01*
X102097051Y-126485934D01*
X102118750Y-126473047D01*
X102137225Y-126436095D01*
X102157044Y-126399801D01*
X102156834Y-126396877D01*
X102191980Y-126326587D01*
X102211426Y-126296329D01*
X102211426Y-126265678D01*
X102216856Y-126235503D01*
X102211426Y-126222411D01*
X102211426Y-126146076D01*
X102215287Y-126110312D01*
X102201579Y-126082896D01*
X102192942Y-126053480D01*
X102182230Y-126044198D01*
X102146858Y-125973454D01*
X102141494Y-125948793D01*
X102131020Y-125938319D01*
X102131472Y-125937227D01*
X102154191Y-125914508D01*
X102175893Y-125901619D01*
X102194379Y-125864645D01*
X102214186Y-125828373D01*
X102213977Y-125825451D01*
X102249123Y-125755159D01*
X102268569Y-125724901D01*
X102268569Y-125694250D01*
X102273999Y-125664076D01*
X102268569Y-125650984D01*
X102268569Y-125517504D01*
X102272430Y-125481740D01*
X102258722Y-125454324D01*
X102250085Y-125424908D01*
X102239373Y-125415626D01*
X102203999Y-125344878D01*
X102198635Y-125320219D01*
X102169427Y-125291012D01*
X102141259Y-125260729D01*
X102138417Y-125260002D01*
X102123648Y-125245232D01*
X102110760Y-125223533D01*
X102073798Y-125205052D01*
X102037513Y-125185239D01*
X102034590Y-125185448D01*
X101964303Y-125150304D01*
X101934042Y-125130857D01*
X101903389Y-125130857D01*
X101873217Y-125125427D01*
X101860125Y-125130857D01*
X101443586Y-125130857D01*
X101410606Y-125126115D01*
X101380299Y-125139955D01*
X101348335Y-125149341D01*
X101340860Y-125157966D01*
X101330479Y-125162708D01*
X101312466Y-125190735D01*
X101290650Y-125215914D01*
X101289025Y-125227211D01*
X101282855Y-125236813D01*
X101282855Y-125270126D01*
X101278113Y-125303106D01*
X101282855Y-125313489D01*
X101282855Y-125898697D01*
X101278113Y-125931677D01*
X101282855Y-125942060D01*
X101282855Y-126470126D01*
X101278113Y-126503106D01*
X100994165Y-126503106D01*
X101039886Y-126457386D01*
X101071329Y-126399802D01*
X101065044Y-126311939D01*
X101012255Y-126241420D01*
X100929722Y-126210637D01*
X100843647Y-126229361D01*
X100780398Y-126292609D01*
X100665656Y-126330857D01*
X100600055Y-126330857D01*
X100485310Y-126292609D01*
X100413276Y-126220574D01*
X100374382Y-126142786D01*
X100325712Y-125948106D01*
X100325712Y-125813607D01*
X100374381Y-125618927D01*
X100413276Y-125541138D01*
X100485310Y-125469104D01*
X100600053Y-125430857D01*
X100665657Y-125430857D01*
X100780399Y-125469104D01*
X100827755Y-125516460D01*
X100885339Y-125547903D01*
X100973203Y-125541617D01*
X101043722Y-125488828D01*
X101074504Y-125406294D01*
X101055778Y-125320219D01*
X100973199Y-125237641D01*
X100950644Y-125209626D01*
X100921567Y-125199933D01*
X100894656Y-125185239D01*
X100880518Y-125186250D01*
X100755273Y-125144501D01*
X100734042Y-125130857D01*
X100692729Y-125130857D01*
X100651405Y-125129362D01*
X100648883Y-125130857D01*
X100594517Y-125130857D01*
X100570062Y-125124627D01*
X100530875Y-125137689D01*
X100491192Y-125149341D01*
X100489271Y-125151556D01*
X100364510Y-125193143D01*
X100329361Y-125200790D01*
X100307685Y-125222465D01*
X100282511Y-125239961D01*
X100277093Y-125253057D01*
X100197232Y-125332918D01*
X100175531Y-125345808D01*
X100157049Y-125382770D01*
X100137237Y-125419054D01*
X100137446Y-125421977D01*
X100110639Y-125475591D01*
X100098016Y-125487461D01*
X100091327Y-125514214D01*
X100089045Y-125518780D01*
X100086112Y-125535073D01*
X100036178Y-125734811D01*
X100025712Y-125751098D01*
X100025712Y-125776678D01*
X100024960Y-125779686D01*
X100025712Y-125798191D01*
X100025712Y-125941884D01*
X100019508Y-125960223D01*
X99825957Y-125960223D01*
X99804000Y-125916308D01*
X99798636Y-125891649D01*
X99769424Y-125862437D01*
X99741259Y-125832158D01*
X99738418Y-125831431D01*
X99723648Y-125816661D01*
X99710760Y-125794961D01*
X99673797Y-125776479D01*
X99637514Y-125756667D01*
X99634590Y-125756876D01*
X99564303Y-125721732D01*
X99534042Y-125702285D01*
X99503389Y-125702285D01*
X99473217Y-125696855D01*
X99460125Y-125702285D01*
X99182855Y-125702285D01*
X99182855Y-125259289D01*
X99164371Y-125196337D01*
X99097798Y-125138652D01*
X99010606Y-125126115D01*
X98930479Y-125162708D01*
X98882855Y-125236813D01*
X98882855Y-125841554D01*
X98878113Y-125874534D01*
X98882855Y-125884917D01*
X98882855Y-126470126D01*
X98878113Y-126503106D01*
X97582855Y-126503106D01*
X97582855Y-126230857D01*
X97740137Y-126230857D01*
X97803089Y-126212373D01*
X97860774Y-126145800D01*
X97873311Y-126058608D01*
X97836718Y-125978481D01*
X97762613Y-125930857D01*
X97582855Y-125930857D01*
X97582855Y-125487696D01*
X97601801Y-125449802D01*
X97639693Y-125430857D01*
X97740137Y-125430857D01*
X97803089Y-125412373D01*
X97860774Y-125345800D01*
X97873311Y-125258608D01*
X97836718Y-125178481D01*
X97762613Y-125130857D01*
X97612358Y-125130857D01*
X97576595Y-125126996D01*
X97549180Y-125140703D01*
X97519763Y-125149341D01*
X97510480Y-125160053D01*
X97457097Y-125186745D01*
X97451269Y-125186540D01*
X97418053Y-125206267D01*
X97403625Y-125213482D01*
X97399594Y-125217230D01*
X97375531Y-125231523D01*
X97367968Y-125246648D01*
X97355585Y-125258167D01*
X97348652Y-125285280D01*
X97302302Y-125377979D01*
X97282855Y-125408241D01*
X97282855Y-125438894D01*
X97277425Y-125469066D01*
X97282855Y-125482158D01*
X97282855Y-125930857D01*
X97239858Y-125930857D01*
X97176906Y-125949341D01*
X97119221Y-126015914D01*
X97106684Y-126103106D01*
X96938810Y-126103106D01*
X96939423Y-126100706D01*
X96954195Y-126085934D01*
X96975895Y-126073046D01*
X96994375Y-126036084D01*
X97014187Y-125999802D01*
X97013977Y-125996878D01*
X97049122Y-125926589D01*
X97068569Y-125896329D01*
X97068569Y-125865677D01*
X97073999Y-125835503D01*
X97068569Y-125822411D01*
X97068569Y-125517501D01*
X97072430Y-125481741D01*
X97058722Y-125454325D01*
X97050085Y-125424908D01*
X97039373Y-125415626D01*
X97004001Y-125344881D01*
X96998636Y-125320219D01*
X96969420Y-125291004D01*
X96941261Y-125260730D01*
X96938419Y-125260003D01*
X96923649Y-125245233D01*
X96910761Y-125223533D01*
X96873799Y-125205052D01*
X96837514Y-125185239D01*
X96834591Y-125185448D01*
X96764300Y-125150302D01*
X96734042Y-125130857D01*
X96703391Y-125130857D01*
X96673217Y-125125427D01*
X96660125Y-125130857D01*
X96526644Y-125130857D01*
X96490881Y-125126996D01*
X96463466Y-125140703D01*
X96434049Y-125149341D01*
X96424766Y-125160053D01*
X96354026Y-125195423D01*
X96329363Y-125200789D01*
X96300137Y-125230014D01*
X96269871Y-125258167D01*
X96269144Y-125261006D01*
X96254375Y-125275775D01*
X96232674Y-125288665D01*
X96214189Y-125325633D01*
X96194381Y-125361909D01*
X96194590Y-125364832D01*
X96159443Y-125435125D01*
X96139998Y-125465384D01*
X96139998Y-125496035D01*
X96134568Y-125526209D01*
X95982855Y-125526209D01*
X95982855Y-125517504D01*
X95986716Y-125481740D01*
X95973008Y-125454324D01*
X95964371Y-125424908D01*
X95953659Y-125415626D01*
X95918285Y-125344878D01*
X95912921Y-125320219D01*
X95883713Y-125291012D01*
X95855545Y-125260729D01*
X95852703Y-125260002D01*
X95837934Y-125245232D01*
X95825046Y-125223533D01*
X95788084Y-125205052D01*
X95751799Y-125185239D01*
X95748876Y-125185448D01*
X95678589Y-125150304D01*
X95648328Y-125130857D01*
X95617675Y-125130857D01*
X95587503Y-125125427D01*
X95574411Y-125130857D01*
X95157872Y-125130857D01*
X95124892Y-125126115D01*
X95094585Y-125139955D01*
X95062621Y-125149341D01*
X95055146Y-125157966D01*
X95044765Y-125162708D01*
X95026752Y-125190735D01*
X95004936Y-125215914D01*
X95003311Y-125227211D01*
X94997141Y-125236813D01*
X94997141Y-125270126D01*
X94992399Y-125303106D01*
X94997141Y-125313489D01*
X94997141Y-125898697D01*
X94992399Y-125931677D01*
X94997141Y-125942060D01*
X94997141Y-126470126D01*
X94992399Y-126503106D01*
X93297141Y-126503106D01*
X93297141Y-126230857D01*
X93305176Y-126230857D01*
X93335350Y-126236287D01*
X93348442Y-126230857D01*
X93481922Y-126230857D01*
X93517686Y-126234718D01*
X93545100Y-126221010D01*
X93574518Y-126212373D01*
X93583800Y-126201660D01*
X93637184Y-126174968D01*
X93643014Y-126175174D01*
X93676227Y-126155446D01*
X93690657Y-126148232D01*
X93694688Y-126144481D01*
X93718751Y-126130190D01*
X93726312Y-126115066D01*
X93738697Y-126103547D01*
X93745631Y-126076430D01*
X93791981Y-125983730D01*
X93811427Y-125953472D01*
X93811427Y-125922821D01*
X93816857Y-125892646D01*
X93811427Y-125879554D01*
X93811427Y-125259289D01*
X93792943Y-125196337D01*
X93726370Y-125138652D01*
X93639178Y-125126115D01*
X93559051Y-125162708D01*
X93511427Y-125236813D01*
X93511427Y-125874017D01*
X93492480Y-125911910D01*
X93454587Y-125930857D01*
X93353980Y-125930857D01*
X93297141Y-125902438D01*
X93297141Y-125259289D01*
X93278657Y-125196337D01*
X93212084Y-125138652D01*
X93124892Y-125126115D01*
X93044765Y-125162708D01*
X92997141Y-125236813D01*
X92997141Y-125939505D01*
X92991206Y-125955418D01*
X92748993Y-125955418D01*
X92763408Y-125926589D01*
X92782855Y-125896329D01*
X92782855Y-125865677D01*
X92788285Y-125835503D01*
X92782855Y-125822411D01*
X92782855Y-125517501D01*
X92786716Y-125481741D01*
X92773008Y-125454325D01*
X92764371Y-125424908D01*
X92753659Y-125415626D01*
X92718287Y-125344881D01*
X92712922Y-125320219D01*
X92683706Y-125291004D01*
X92655547Y-125260730D01*
X92652705Y-125260003D01*
X92637935Y-125245233D01*
X92625047Y-125223533D01*
X92588085Y-125205052D01*
X92551800Y-125185239D01*
X92548877Y-125185448D01*
X92478586Y-125150302D01*
X92448328Y-125130857D01*
X92417677Y-125130857D01*
X92387503Y-125125427D01*
X92374411Y-125130857D01*
X92211427Y-125130857D01*
X92211427Y-124859289D01*
X92192943Y-124796337D01*
X92126370Y-124738652D01*
X92039178Y-124726115D01*
X91959051Y-124762708D01*
X91911427Y-124836813D01*
X91911427Y-125319125D01*
X91905192Y-125343509D01*
X91500224Y-125343509D01*
X91473622Y-125269024D01*
X91474198Y-125266043D01*
X91470237Y-125256142D01*
X91470850Y-125245494D01*
X91455511Y-125218314D01*
X91452576Y-125210095D01*
X91450893Y-125207780D01*
X91348197Y-124951037D01*
X91341493Y-124920219D01*
X91316689Y-124895415D01*
X91295004Y-124867824D01*
X91285966Y-124864693D01*
X91266506Y-124845233D01*
X91253618Y-124823533D01*
X91216656Y-124805052D01*
X91180371Y-124785239D01*
X91177448Y-124785448D01*
X91080646Y-124737047D01*
X91016074Y-124725427D01*
X90934706Y-124759174D01*
X90884499Y-124831554D01*
X90881395Y-124919587D01*
X90926379Y-124995324D01*
X91058288Y-125061279D01*
X91076447Y-125079437D01*
X91158216Y-125283861D01*
X90884340Y-126050718D01*
X90880574Y-126116219D01*
X90668570Y-126116219D01*
X90668570Y-125487696D01*
X90687516Y-125449802D01*
X90776372Y-125405375D01*
X90824411Y-125360689D01*
X90846234Y-125275347D01*
X90818453Y-125191754D01*
X90749889Y-125136451D01*
X90662310Y-125126996D01*
X90542812Y-125186745D01*
X90536984Y-125186540D01*
X90503768Y-125206267D01*
X90489340Y-125213482D01*
X90485309Y-125217230D01*
X90461246Y-125231523D01*
X90453683Y-125246648D01*
X90441300Y-125258167D01*
X90434367Y-125285280D01*
X90388017Y-125377979D01*
X90368570Y-125408241D01*
X90368570Y-125438894D01*
X90363140Y-125469066D01*
X90097142Y-125469066D01*
X90097142Y-125340677D01*
X90098602Y-125299270D01*
X90097142Y-125296812D01*
X90097142Y-125117504D01*
X90101003Y-125081740D01*
X90087295Y-125054324D01*
X90078658Y-125024908D01*
X90067946Y-125015626D01*
X90032572Y-124944878D01*
X90027208Y-124920219D01*
X89998000Y-124891012D01*
X89969832Y-124860729D01*
X89966990Y-124860002D01*
X89952221Y-124845233D01*
X89939333Y-124823533D01*
X89902371Y-124805052D01*
X89866086Y-124785239D01*
X89863163Y-124785448D01*
X89792872Y-124750302D01*
X89762614Y-124730857D01*
X89731963Y-124730857D01*
X89701789Y-124725427D01*
X89688697Y-124730857D01*
X89555218Y-124730857D01*
X89519454Y-124726996D01*
X89492038Y-124740703D01*
X89462622Y-124749341D01*
X89453340Y-124760052D01*
X89346483Y-124813481D01*
X89298443Y-124858167D01*
X89276621Y-124943509D01*
X89304401Y-125027103D01*
X89372964Y-125082406D01*
X89460544Y-125091861D01*
X89582551Y-125030857D01*
X89683160Y-125030857D01*
X89744003Y-125061279D01*
X89766721Y-125083996D01*
X89790152Y-125130857D01*
X89612359Y-125130857D01*
X89576596Y-125126996D01*
X89549181Y-125140703D01*
X89519764Y-125149341D01*
X89510481Y-125160053D01*
X89439741Y-125195423D01*
X89415078Y-125200789D01*
X89385852Y-125230014D01*
X89355586Y-125258167D01*
X89354859Y-125261006D01*
X89340090Y-125275775D01*
X89318389Y-125288665D01*
X89299904Y-125325633D01*
X89280096Y-125361909D01*
X89280305Y-125364832D01*
X89245158Y-125435125D01*
X89225713Y-125465384D01*
X89225713Y-125496035D01*
X89220283Y-125526209D01*
X89068570Y-125526209D01*
X89068570Y-125517501D01*
X89072431Y-125481741D01*
X89058723Y-125454325D01*
X89050086Y-125424908D01*
X89039374Y-125415626D01*
X89004002Y-125344881D01*
X88998637Y-125320219D01*
X88969421Y-125291004D01*
X88941262Y-125260730D01*
X88938420Y-125260003D01*
X88923650Y-125245233D01*
X88910762Y-125223533D01*
X88873800Y-125205052D01*
X88837515Y-125185239D01*
X88834592Y-125185448D01*
X88764301Y-125150302D01*
X88734043Y-125130857D01*
X88703392Y-125130857D01*
X88673218Y-125125427D01*
X88660126Y-125130857D01*
X88526645Y-125130857D01*
X88490882Y-125126996D01*
X88463467Y-125140703D01*
X88434050Y-125149341D01*
X88424767Y-125160053D01*
X88354027Y-125195423D01*
X88329364Y-125200789D01*
X88300138Y-125230014D01*
X88269872Y-125258167D01*
X88269145Y-125261006D01*
X88254376Y-125275775D01*
X88232675Y-125288665D01*
X88214190Y-125325633D01*
X88194382Y-125361909D01*
X88194591Y-125364832D01*
X88159444Y-125435125D01*
X88139999Y-125465384D01*
X88139999Y-125496035D01*
X88134569Y-125526209D01*
X87868571Y-125526209D01*
X87868571Y-125487696D01*
X87887517Y-125449802D01*
X87976373Y-125405375D01*
X88024412Y-125360689D01*
X88046235Y-125275347D01*
X88018454Y-125191754D01*
X87949890Y-125136451D01*
X87862311Y-125126996D01*
X87742813Y-125186745D01*
X87736985Y-125186540D01*
X87703769Y-125206267D01*
X87689341Y-125213482D01*
X87685310Y-125217230D01*
X87661247Y-125231523D01*
X87653684Y-125246648D01*
X87641301Y-125258167D01*
X87634368Y-125285280D01*
X87588018Y-125377979D01*
X87568571Y-125408241D01*
X87568571Y-125438894D01*
X87563141Y-125469066D01*
X87351808Y-125469066D01*
X87344438Y-125454325D01*
X87335801Y-125424908D01*
X87325089Y-125415626D01*
X87289717Y-125344881D01*
X87284352Y-125320219D01*
X87255136Y-125291004D01*
X87226977Y-125260730D01*
X87224135Y-125260003D01*
X87209365Y-125245233D01*
X87196477Y-125223533D01*
X87159515Y-125205052D01*
X87123230Y-125185239D01*
X87120307Y-125185448D01*
X87050016Y-125150302D01*
X87019758Y-125130857D01*
X86989107Y-125130857D01*
X86958933Y-125125427D01*
X86945841Y-125130857D01*
X86812360Y-125130857D01*
X86776597Y-125126996D01*
X86749182Y-125140703D01*
X86719765Y-125149341D01*
X86710482Y-125160053D01*
X86639742Y-125195423D01*
X86615079Y-125200789D01*
X86585853Y-125230014D01*
X86555587Y-125258167D01*
X86554860Y-125261006D01*
X86540091Y-125275775D01*
X86518390Y-125288665D01*
X86499905Y-125325633D01*
X86480097Y-125361909D01*
X86480306Y-125364832D01*
X86445159Y-125435125D01*
X86425714Y-125465384D01*
X86425714Y-125496035D01*
X86420284Y-125526209D01*
X86211428Y-125526209D01*
X86211428Y-125259289D01*
X86192944Y-125196337D01*
X86126371Y-125138652D01*
X86039179Y-125126115D01*
X85959052Y-125162708D01*
X85911428Y-125236813D01*
X85911428Y-125759428D01*
X85525714Y-125759428D01*
X85525714Y-125259289D01*
X85507230Y-125196337D01*
X85440657Y-125138652D01*
X85353465Y-125126115D01*
X85273338Y-125162708D01*
X85225714Y-125236813D01*
X85225714Y-125898697D01*
X85220972Y-125931677D01*
X84468571Y-125931677D01*
X84468571Y-124575451D01*
X85052790Y-124575451D01*
X85097705Y-124651228D01*
X85176459Y-124690694D01*
X85264045Y-124681317D01*
X85332660Y-124626075D01*
X85604285Y-123811198D01*
X85868803Y-124604752D01*
X85906246Y-124658629D01*
X85987644Y-124692301D01*
X86074326Y-124676622D01*
X86138769Y-124616569D01*
X86160515Y-124531207D01*
X85769815Y-123359106D01*
X86192400Y-123359106D01*
X86228993Y-123439233D01*
X86303098Y-123486857D01*
X86539999Y-123486857D01*
X86539999Y-124122722D01*
X86530939Y-124118192D01*
X86494660Y-124098382D01*
X86491735Y-124098591D01*
X86394932Y-124050190D01*
X86330360Y-124038570D01*
X86248993Y-124072318D01*
X86198786Y-124144698D01*
X86195683Y-124232731D01*
X86240667Y-124308468D01*
X86372574Y-124374420D01*
X86459143Y-124460990D01*
X86552513Y-124601045D01*
X86558483Y-124621377D01*
X86576441Y-124636938D01*
X86577155Y-124638008D01*
X86592746Y-124651066D01*
X86625056Y-124679062D01*
X86626405Y-124679256D01*
X86627454Y-124680134D01*
X86669920Y-124685512D01*
X86712248Y-124691599D01*
X86713490Y-124691031D01*
X86714844Y-124691203D01*
X86753450Y-124672782D01*
X86792375Y-124655006D01*
X86793112Y-124653857D01*
X86794347Y-124653269D01*
X86816891Y-124616856D01*
X86839999Y-124580901D01*
X86839999Y-124579536D01*
X86840718Y-124578375D01*
X86839999Y-124535587D01*
X86839999Y-123486857D01*
X87054424Y-123486857D01*
X87117376Y-123468373D01*
X87175061Y-123401800D01*
X87187598Y-123314608D01*
X87151005Y-123234481D01*
X87076900Y-123186857D01*
X86700730Y-123186857D01*
X86667750Y-123182115D01*
X86657367Y-123186857D01*
X86325574Y-123186857D01*
X86262622Y-123205341D01*
X86204937Y-123271914D01*
X86192400Y-123359106D01*
X85769815Y-123359106D01*
X85755168Y-123315166D01*
X85755780Y-123298263D01*
X85741507Y-123274184D01*
X85739767Y-123268962D01*
X85730556Y-123255709D01*
X85710864Y-123222486D01*
X85705652Y-123219874D01*
X85702324Y-123215085D01*
X85666637Y-123200322D01*
X85632111Y-123183020D01*
X85626311Y-123183640D01*
X85620926Y-123181413D01*
X85582934Y-123188284D01*
X85544525Y-123192397D01*
X85539982Y-123196053D01*
X85534244Y-123197092D01*
X85505987Y-123223423D01*
X85475910Y-123247639D01*
X85474066Y-123253170D01*
X85469801Y-123257145D01*
X85460268Y-123294562D01*
X85055162Y-124509884D01*
X85052790Y-124575451D01*
X84468571Y-124575451D01*
X84468571Y-122568571D01*
X103478570Y-122568571D01*
X103478570Y-127705429D01*
G37*
D11*
%TO.P,J5,1,Pin_1*%
%TO.N,+12V*%
X157680000Y-121830000D03*
%TD*%
%TO.P,J4,1,Pin_1*%
%TO.N,/PWM Pen*%
X144780000Y-81280000D03*
D12*
%TO.P,J4,2,Pin_2*%
%TO.N,+5V*%
X144780000Y-83820000D03*
%TO.P,J4,3,Pin_3*%
%TO.N,GND*%
X144780000Y-86360000D03*
%TD*%
D11*
%TO.P,D1,1,BK*%
%TO.N,Net-(D1-BK)*%
X89535000Y-60960000D03*
D12*
%TO.P,D1,2,A*%
%TO.N,GND*%
X89535000Y-58420000D03*
%TO.P,D1,3,GK*%
%TO.N,Net-(D1-GK)*%
X89535000Y-55880000D03*
%TO.P,D1,4,RK*%
%TO.N,Net-(D1-RK)*%
X89535000Y-53340000D03*
%TD*%
D11*
%TO.P,J7,1,Pin_1*%
%TO.N,+5V*%
X106680000Y-121830000D03*
%TD*%
%TO.P,3V3 GND 5V,1,Pin_1*%
%TO.N,+3V3*%
X137160000Y-55880000D03*
D12*
%TO.P,3V3 GND 5V,2,Pin_2*%
X139700000Y-55880000D03*
%TO.P,3V3 GND 5V,3,Pin_3*%
X142240000Y-55880000D03*
%TO.P,3V3 GND 5V,4,Pin_4*%
X144780000Y-55880000D03*
%TO.P,3V3 GND 5V,5,Pin_5*%
X147320000Y-55880000D03*
%TD*%
D11*
%TO.P,J11,1,Pin_1*%
%TO.N,+5V*%
X137160000Y-63500000D03*
D12*
%TO.P,J11,2,Pin_2*%
X139700000Y-63500000D03*
%TO.P,J11,3,Pin_3*%
X142240000Y-63500000D03*
%TO.P,J11,4,Pin_4*%
X144780000Y-63500000D03*
%TO.P,J11,5,Pin_5*%
X147320000Y-63500000D03*
%TD*%
D13*
%TO.P,R1,1*%
%TO.N,/D1 Red*%
X102235000Y-50800000D03*
D14*
%TO.P,R1,2*%
%TO.N,Net-(D1-RK)*%
X94615000Y-50800000D03*
%TD*%
D11*
%TO.P,J10,1,Pin_1*%
%TO.N,+5V*%
X151765000Y-60325000D03*
D12*
%TO.P,J10,2,Pin_2*%
%TO.N,GND*%
X151765000Y-57785000D03*
%TD*%
D11*
%TO.P,J2,1,Pin_1*%
%TO.N,/PWM Wheel Right*%
X149860000Y-81280000D03*
D12*
%TO.P,J2,2,Pin_2*%
%TO.N,+5V*%
X149860000Y-83820000D03*
%TO.P,J2,3,Pin_3*%
%TO.N,GND*%
X149860000Y-86360000D03*
%TD*%
D13*
%TO.P,R2,1*%
%TO.N,/D1 Green*%
X102235000Y-55880000D03*
D14*
%TO.P,R2,2*%
%TO.N,Net-(D1-GK)*%
X94615000Y-55880000D03*
%TD*%
D13*
%TO.P,R6,1*%
%TO.N,/D2 Blue*%
X100330000Y-102870000D03*
D14*
%TO.P,R6,2*%
%TO.N,Net-(D2-BK)*%
X100330000Y-110490000D03*
%TD*%
D15*
%TO.P,BZ1,1,-*%
%TO.N,Net-(BZ1--)*%
X97145000Y-80645000D03*
D16*
%TO.P,BZ1,2,+*%
%TO.N,GND*%
X89545000Y-80645000D03*
%TD*%
D15*
%TO.P,U1,1,3V3*%
%TO.N,+3V3*%
X107315000Y-53700000D03*
D16*
%TO.P,U1,2,GND*%
%TO.N,GND*%
X107315000Y-56240000D03*
%TO.P,U1,3,D15*%
%TO.N,unconnected-(U1-D15-Pad3)*%
X107315000Y-58780000D03*
%TO.P,U1,4,D2*%
%TO.N,unconnected-(U1-D2-Pad4)*%
X107315000Y-61320000D03*
%TO.P,U1,5,D4*%
%TO.N,/D2 Green*%
X107315000Y-63860000D03*
%TO.P,U1,6,RX2*%
%TO.N,unconnected-(U1-RX2-Pad6)*%
X107315000Y-66400000D03*
%TO.P,U1,7,TX2*%
%TO.N,unconnected-(U1-TX2-Pad7)*%
X107315000Y-68940000D03*
%TO.P,U1,8,D5*%
%TO.N,unconnected-(U1-D5-Pad8)*%
X107315000Y-71480000D03*
%TO.P,U1,9,D18*%
%TO.N,/D1 Red*%
X107315000Y-74020000D03*
%TO.P,U1,10,D19*%
%TO.N,/D1 Blue*%
X107315000Y-76560000D03*
%TO.P,U1,11,D21*%
%TO.N,/D1 Green*%
X107315000Y-79100000D03*
%TO.P,U1,12,RX0*%
%TO.N,unconnected-(U1-RX0-Pad12)*%
X107315000Y-81640000D03*
%TO.P,U1,13,TX0*%
%TO.N,unconnected-(U1-TX0-Pad13)*%
X107315000Y-84180000D03*
%TO.P,U1,14,D22*%
%TO.N,/D2 Red*%
X107315000Y-86720000D03*
%TO.P,U1,15,D23*%
%TO.N,/Buzz+*%
X107315000Y-89260000D03*
%TO.P,U1,16,EN*%
%TO.N,unconnected-(U1-EN-Pad16)*%
X132715000Y-89260000D03*
%TO.P,U1,17,VP*%
%TO.N,unconnected-(U1-VP-Pad17)*%
X132715000Y-86720000D03*
%TO.P,U1,18,VN*%
%TO.N,unconnected-(U1-VN-Pad18)*%
X132715000Y-84180000D03*
%TO.P,U1,19,D34*%
%TO.N,unconnected-(U1-D34-Pad19)*%
X132715000Y-81640000D03*
%TO.P,U1,20,D35*%
%TO.N,unconnected-(U1-D35-Pad20)*%
X132715000Y-79100000D03*
%TO.P,U1,21,D32*%
%TO.N,/D2 Blue*%
X132715000Y-76560000D03*
%TO.P,U1,22,D33*%
%TO.N,/PWM Pen*%
X132715000Y-74020000D03*
%TO.P,U1,23,D25*%
%TO.N,/PWM Wheel Left*%
X132715000Y-71480000D03*
%TO.P,U1,24,D26*%
%TO.N,/PWM Wheel Right*%
X132715000Y-68940000D03*
%TO.P,U1,25,D27*%
%TO.N,/PWM Wheel Rear*%
X132715000Y-66400000D03*
%TO.P,U1,26,D14*%
%TO.N,unconnected-(U1-D14-Pad26)*%
X132715000Y-63860000D03*
%TO.P,U1,27,D12*%
%TO.N,unconnected-(U1-D12-Pad27)*%
X132715000Y-61320000D03*
%TO.P,U1,28,D13*%
%TO.N,unconnected-(U1-D13-Pad28)*%
X132715000Y-58780000D03*
%TO.P,U1,29,GND*%
%TO.N,GND*%
X132715000Y-56240000D03*
%TO.P,U1,30,VIN*%
%TO.N,+5V*%
X132715000Y-53700000D03*
%TD*%
D17*
%TO.P,J9,1,Pin_1*%
%TO.N,GNDPWR*%
X156765000Y-46355000D03*
D18*
%TO.P,J9,2,Pin_2*%
%TO.N,Net-(J9-Pin_2)*%
X151765000Y-46355000D03*
%TD*%
D13*
%TO.P,R5,1*%
%TO.N,/D2 Green*%
X95250000Y-102870000D03*
D14*
%TO.P,R5,2*%
%TO.N,Net-(D2-GK)*%
X95250000Y-110490000D03*
%TD*%
D13*
%TO.P,R4,1*%
%TO.N,/D2 Red*%
X90830000Y-102870000D03*
D14*
%TO.P,R4,2*%
%TO.N,Net-(D2-RK)*%
X90830000Y-110490000D03*
%TD*%
D11*
%TO.P,J8,1,Pin_1*%
%TO.N,GND*%
X106680000Y-100330000D03*
%TD*%
%TO.P,J6,1,Pin_1*%
%TO.N,GNDPWR*%
X157680000Y-100330000D03*
%TD*%
%TO.P,J1,1,Pin_1*%
%TO.N,/PWM Wheel Left*%
X147320000Y-81280000D03*
D12*
%TO.P,J1,2,Pin_2*%
%TO.N,+5V*%
X147320000Y-83820000D03*
%TO.P,J1,3,Pin_3*%
%TO.N,GND*%
X147320000Y-86360000D03*
%TD*%
D11*
%TO.P,J3,1,Pin_1*%
%TO.N,/PWM Wheel Rear*%
X152400000Y-81280000D03*
D12*
%TO.P,J3,2,Pin_2*%
%TO.N,+5V*%
X152400000Y-83820000D03*
%TO.P,J3,3,Pin_3*%
%TO.N,GND*%
X152400000Y-86360000D03*
%TD*%
D13*
%TO.P,R3,1*%
%TO.N,/D1 Blue*%
X102235000Y-60960000D03*
D14*
%TO.P,R3,2*%
%TO.N,Net-(D1-BK)*%
X94615000Y-60960000D03*
%TD*%
D13*
%TO.P,R7,1*%
%TO.N,/Buzz+*%
X102235000Y-89535000D03*
D14*
%TO.P,R7,2*%
%TO.N,Net-(BZ1--)*%
X102235000Y-81915000D03*
%TD*%
D11*
%TO.P,SW1,1,A*%
%TO.N,+12V*%
X154940000Y-60325000D03*
D12*
%TO.P,SW1,2,B*%
%TO.N,Net-(J9-Pin_2)*%
X154940000Y-57785000D03*
%TD*%
D11*
%TO.P,D2,1,BK*%
%TO.N,Net-(D2-BK)*%
X100330000Y-115595000D03*
D12*
%TO.P,D2,2,A*%
%TO.N,GND*%
X97790000Y-115595000D03*
%TO.P,D2,3,GK*%
%TO.N,Net-(D2-GK)*%
X95250000Y-115595000D03*
%TO.P,D2,4,RK*%
%TO.N,Net-(D2-RK)*%
X92710000Y-115595000D03*
%TD*%
D11*
%TO.P,J12,1,Pin_1*%
%TO.N,GND*%
X137160000Y-59690000D03*
D12*
%TO.P,J12,2,Pin_2*%
X139700000Y-59690000D03*
%TO.P,J12,3,Pin_3*%
X142240000Y-59690000D03*
%TO.P,J12,4,Pin_4*%
X144780000Y-59690000D03*
%TO.P,J12,5,Pin_5*%
X147320000Y-59690000D03*
%TD*%
D19*
%TO.N,/D2 Green*%
X99970000Y-63860000D02*
X95250000Y-68580000D01*
X95250000Y-68580000D02*
X95250000Y-102870000D01*
X107315000Y-63860000D02*
X99970000Y-63860000D01*
%TD*%
%TA.AperFunction,Conductor*%
%TO.N,+5V*%
G36*
X168847500Y-40147113D02*
G01*
X168892887Y-40192500D01*
X168909500Y-40254500D01*
X168909500Y-130005500D01*
X168892887Y-130067500D01*
X168847500Y-130112887D01*
X168785500Y-130129500D01*
X83034500Y-130129500D01*
X82972500Y-130112887D01*
X82927113Y-130067500D01*
X82910500Y-130005500D01*
X82910500Y-122518071D01*
X84418071Y-122518071D01*
X84418071Y-127755929D01*
X103529070Y-127755929D01*
X103529070Y-122518071D01*
X84418071Y-122518071D01*
X82910500Y-122518071D01*
X82910500Y-122080000D01*
X105330000Y-122080000D01*
X105330000Y-122727824D01*
X105336402Y-122787375D01*
X105386647Y-122922089D01*
X105472811Y-123037188D01*
X105587910Y-123123352D01*
X105722624Y-123173597D01*
X105782176Y-123180000D01*
X106430000Y-123180000D01*
X106430000Y-122080000D01*
X106930000Y-122080000D01*
X106930000Y-123180000D01*
X107577824Y-123180000D01*
X107637375Y-123173597D01*
X107772089Y-123123352D01*
X107887188Y-123037188D01*
X107973352Y-122922089D01*
X108023597Y-122787375D01*
X108029995Y-122727869D01*
X156329500Y-122727869D01*
X156335897Y-122787375D01*
X156335909Y-122787483D01*
X156386204Y-122922331D01*
X156472454Y-123037546D01*
X156587669Y-123123796D01*
X156722517Y-123174091D01*
X156782127Y-123180500D01*
X158577872Y-123180499D01*
X158637483Y-123174091D01*
X158772331Y-123123796D01*
X158887546Y-123037546D01*
X158973796Y-122922331D01*
X159024091Y-122787483D01*
X159030500Y-122727873D01*
X159030499Y-120932128D01*
X159024091Y-120872517D01*
X158973796Y-120737669D01*
X158887546Y-120622454D01*
X158772331Y-120536204D01*
X158637483Y-120485909D01*
X158577873Y-120479500D01*
X158577869Y-120479500D01*
X156782130Y-120479500D01*
X156722515Y-120485909D01*
X156587669Y-120536204D01*
X156472454Y-120622454D01*
X156386204Y-120737668D01*
X156335909Y-120872516D01*
X156329500Y-120932130D01*
X156329500Y-122727869D01*
X108029995Y-122727869D01*
X108030000Y-122727824D01*
X108030000Y-122080000D01*
X106930000Y-122080000D01*
X106430000Y-122080000D01*
X105330000Y-122080000D01*
X82910500Y-122080000D01*
X82910500Y-121580000D01*
X105330000Y-121580000D01*
X106430000Y-121580000D01*
X106430000Y-120480000D01*
X106930000Y-120480000D01*
X106930000Y-121580000D01*
X108030000Y-121580000D01*
X108030000Y-120932176D01*
X108023597Y-120872624D01*
X107973352Y-120737910D01*
X107887188Y-120622811D01*
X107772089Y-120536647D01*
X107637375Y-120486402D01*
X107577824Y-120480000D01*
X106930000Y-120480000D01*
X106430000Y-120480000D01*
X105782176Y-120480000D01*
X105722624Y-120486402D01*
X105587910Y-120536647D01*
X105472811Y-120622811D01*
X105386647Y-120737910D01*
X105336402Y-120872624D01*
X105330000Y-120932176D01*
X105330000Y-121580000D01*
X82910500Y-121580000D01*
X82910500Y-115594999D01*
X91354340Y-115594999D01*
X91374936Y-115830407D01*
X91419709Y-115997501D01*
X91436097Y-116058663D01*
X91535965Y-116272830D01*
X91671505Y-116466401D01*
X91838599Y-116633495D01*
X92032170Y-116769035D01*
X92246337Y-116868903D01*
X92474592Y-116930063D01*
X92710000Y-116950659D01*
X92945408Y-116930063D01*
X93173663Y-116868903D01*
X93387830Y-116769035D01*
X93581401Y-116633495D01*
X93748495Y-116466401D01*
X93878426Y-116280839D01*
X93922743Y-116241975D01*
X93980000Y-116227964D01*
X94037257Y-116241975D01*
X94081573Y-116280839D01*
X94211505Y-116466401D01*
X94378599Y-116633495D01*
X94572170Y-116769035D01*
X94786337Y-116868903D01*
X95014592Y-116930063D01*
X95250000Y-116950659D01*
X95485408Y-116930063D01*
X95713663Y-116868903D01*
X95927830Y-116769035D01*
X96121401Y-116633495D01*
X96288495Y-116466401D01*
X96418426Y-116280839D01*
X96462743Y-116241975D01*
X96520000Y-116227964D01*
X96577257Y-116241975D01*
X96621573Y-116280839D01*
X96751505Y-116466401D01*
X96918599Y-116633495D01*
X97112170Y-116769035D01*
X97326337Y-116868903D01*
X97554592Y-116930063D01*
X97790000Y-116950659D01*
X98025408Y-116930063D01*
X98253663Y-116868903D01*
X98467830Y-116769035D01*
X98661401Y-116633495D01*
X98783329Y-116511566D01*
X98836072Y-116480273D01*
X98897365Y-116478084D01*
X98952209Y-116505537D01*
X98987189Y-116555916D01*
X99036204Y-116687331D01*
X99122454Y-116802546D01*
X99237669Y-116888796D01*
X99372517Y-116939091D01*
X99432127Y-116945500D01*
X101227872Y-116945499D01*
X101287483Y-116939091D01*
X101422331Y-116888796D01*
X101537546Y-116802546D01*
X101623796Y-116687331D01*
X101674091Y-116552483D01*
X101680500Y-116492873D01*
X101680499Y-114697128D01*
X101674091Y-114637517D01*
X101623796Y-114502669D01*
X101537546Y-114387454D01*
X101422331Y-114301204D01*
X101287483Y-114250909D01*
X101227873Y-114244500D01*
X101227869Y-114244500D01*
X99432130Y-114244500D01*
X99372515Y-114250909D01*
X99237669Y-114301204D01*
X99122454Y-114387454D01*
X99036204Y-114502669D01*
X98987189Y-114634083D01*
X98952209Y-114684462D01*
X98897365Y-114711915D01*
X98836072Y-114709726D01*
X98783326Y-114678430D01*
X98661404Y-114556508D01*
X98661403Y-114556507D01*
X98661401Y-114556505D01*
X98467830Y-114420965D01*
X98253663Y-114321097D01*
X98192501Y-114304709D01*
X98025407Y-114259936D01*
X97790000Y-114239340D01*
X97554592Y-114259936D01*
X97326336Y-114321097D01*
X97112170Y-114420965D01*
X96918598Y-114556505D01*
X96751505Y-114723598D01*
X96621575Y-114909159D01*
X96577257Y-114948025D01*
X96520000Y-114962036D01*
X96462743Y-114948025D01*
X96418425Y-114909159D01*
X96288494Y-114723598D01*
X96121404Y-114556508D01*
X96121403Y-114556507D01*
X96121401Y-114556505D01*
X95927830Y-114420965D01*
X95713663Y-114321097D01*
X95652501Y-114304709D01*
X95485407Y-114259936D01*
X95250000Y-114239340D01*
X95014592Y-114259936D01*
X94786336Y-114321097D01*
X94572170Y-114420965D01*
X94378598Y-114556505D01*
X94211505Y-114723598D01*
X94081575Y-114909159D01*
X94037257Y-114948025D01*
X93980000Y-114962036D01*
X93922743Y-114948025D01*
X93878425Y-114909159D01*
X93748494Y-114723598D01*
X93581404Y-114556508D01*
X93581403Y-114556507D01*
X93581401Y-114556505D01*
X93387830Y-114420965D01*
X93173663Y-114321097D01*
X93112501Y-114304709D01*
X92945407Y-114259936D01*
X92710000Y-114239340D01*
X92474592Y-114259936D01*
X92246336Y-114321097D01*
X92032170Y-114420965D01*
X91838598Y-114556505D01*
X91671505Y-114723598D01*
X91535965Y-114917170D01*
X91436097Y-115131336D01*
X91374936Y-115359592D01*
X91354340Y-115594999D01*
X82910500Y-115594999D01*
X82910500Y-110489999D01*
X89524531Y-110489999D01*
X89544364Y-110716689D01*
X89603261Y-110936497D01*
X89699432Y-111142735D01*
X89829953Y-111329140D01*
X89990859Y-111490046D01*
X90177264Y-111620567D01*
X90177265Y-111620567D01*
X90177266Y-111620568D01*
X90383504Y-111716739D01*
X90603308Y-111775635D01*
X90830000Y-111795468D01*
X91056692Y-111775635D01*
X91276496Y-111716739D01*
X91482734Y-111620568D01*
X91669139Y-111490047D01*
X91830047Y-111329139D01*
X91960568Y-111142734D01*
X92056739Y-110936496D01*
X92115635Y-110716692D01*
X92135468Y-110490000D01*
X92135468Y-110489999D01*
X93944531Y-110489999D01*
X93964364Y-110716689D01*
X94023261Y-110936497D01*
X94119432Y-111142735D01*
X94249953Y-111329140D01*
X94410859Y-111490046D01*
X94597264Y-111620567D01*
X94597265Y-111620567D01*
X94597266Y-111620568D01*
X94803504Y-111716739D01*
X95023308Y-111775635D01*
X95250000Y-111795468D01*
X95476692Y-111775635D01*
X95696496Y-111716739D01*
X95902734Y-111620568D01*
X96089139Y-111490047D01*
X96250047Y-111329139D01*
X96380568Y-111142734D01*
X96476739Y-110936496D01*
X96535635Y-110716692D01*
X96555468Y-110490000D01*
X96555468Y-110489999D01*
X99024531Y-110489999D01*
X99044364Y-110716689D01*
X99103261Y-110936497D01*
X99199432Y-111142735D01*
X99329953Y-111329140D01*
X99490859Y-111490046D01*
X99677264Y-111620567D01*
X99677265Y-111620567D01*
X99677266Y-111620568D01*
X99883504Y-111716739D01*
X100103308Y-111775635D01*
X100330000Y-111795468D01*
X100556692Y-111775635D01*
X100776496Y-111716739D01*
X100982734Y-111620568D01*
X101169139Y-111490047D01*
X101330047Y-111329139D01*
X101460568Y-111142734D01*
X101556739Y-110936496D01*
X101615635Y-110716692D01*
X101635468Y-110490000D01*
X101615635Y-110263308D01*
X101556739Y-110043504D01*
X101460568Y-109837266D01*
X101330047Y-109650861D01*
X101330046Y-109650859D01*
X101169140Y-109489953D01*
X100982735Y-109359432D01*
X100776497Y-109263261D01*
X100556689Y-109204364D01*
X100330000Y-109184531D01*
X100103310Y-109204364D01*
X99883502Y-109263261D01*
X99677264Y-109359432D01*
X99490859Y-109489953D01*
X99329953Y-109650859D01*
X99199432Y-109837264D01*
X99103261Y-110043502D01*
X99044364Y-110263310D01*
X99024531Y-110489999D01*
X96555468Y-110489999D01*
X96535635Y-110263308D01*
X96476739Y-110043504D01*
X96380568Y-109837266D01*
X96250047Y-109650861D01*
X96250046Y-109650859D01*
X96089140Y-109489953D01*
X95902735Y-109359432D01*
X95696497Y-109263261D01*
X95476689Y-109204364D01*
X95250000Y-109184531D01*
X95023310Y-109204364D01*
X94803502Y-109263261D01*
X94597264Y-109359432D01*
X94410859Y-109489953D01*
X94249953Y-109650859D01*
X94119432Y-109837264D01*
X94023261Y-110043502D01*
X93964364Y-110263310D01*
X93944531Y-110489999D01*
X92135468Y-110489999D01*
X92115635Y-110263308D01*
X92056739Y-110043504D01*
X91960568Y-109837266D01*
X91830047Y-109650861D01*
X91830046Y-109650859D01*
X91669140Y-109489953D01*
X91482735Y-109359432D01*
X91276497Y-109263261D01*
X91056689Y-109204364D01*
X90830000Y-109184531D01*
X90603310Y-109204364D01*
X90383502Y-109263261D01*
X90177264Y-109359432D01*
X89990859Y-109489953D01*
X89829953Y-109650859D01*
X89699432Y-109837264D01*
X89603261Y-110043502D01*
X89544364Y-110263310D01*
X89524531Y-110489999D01*
X82910500Y-110489999D01*
X82910500Y-102870000D01*
X89524531Y-102870000D01*
X89544364Y-103096689D01*
X89603261Y-103316497D01*
X89699432Y-103522735D01*
X89829953Y-103709140D01*
X89990859Y-103870046D01*
X90177264Y-104000567D01*
X90177265Y-104000567D01*
X90177266Y-104000568D01*
X90383504Y-104096739D01*
X90603308Y-104155635D01*
X90830000Y-104175468D01*
X91056692Y-104155635D01*
X91276496Y-104096739D01*
X91482734Y-104000568D01*
X91669139Y-103870047D01*
X91830047Y-103709139D01*
X91960568Y-103522734D01*
X92056739Y-103316496D01*
X92115635Y-103096692D01*
X92135468Y-102870000D01*
X93944531Y-102870000D01*
X93964364Y-103096689D01*
X94023261Y-103316497D01*
X94119432Y-103522735D01*
X94249953Y-103709140D01*
X94410859Y-103870046D01*
X94597264Y-104000567D01*
X94597265Y-104000567D01*
X94597266Y-104000568D01*
X94803504Y-104096739D01*
X95023308Y-104155635D01*
X95250000Y-104175468D01*
X95476692Y-104155635D01*
X95696496Y-104096739D01*
X95902734Y-104000568D01*
X96089139Y-103870047D01*
X96250047Y-103709139D01*
X96380568Y-103522734D01*
X96476739Y-103316496D01*
X96535635Y-103096692D01*
X96555468Y-102870000D01*
X99024531Y-102870000D01*
X99044364Y-103096689D01*
X99103261Y-103316497D01*
X99199432Y-103522735D01*
X99329953Y-103709140D01*
X99490859Y-103870046D01*
X99677264Y-104000567D01*
X99677265Y-104000567D01*
X99677266Y-104000568D01*
X99883504Y-104096739D01*
X100103308Y-104155635D01*
X100330000Y-104175468D01*
X100556692Y-104155635D01*
X100776496Y-104096739D01*
X100982734Y-104000568D01*
X101169139Y-103870047D01*
X101330047Y-103709139D01*
X101460568Y-103522734D01*
X101556739Y-103316496D01*
X101615635Y-103096692D01*
X101635468Y-102870000D01*
X101615635Y-102643308D01*
X101556739Y-102423504D01*
X101460568Y-102217266D01*
X101330047Y-102030861D01*
X101330046Y-102030859D01*
X101169140Y-101869953D01*
X100982735Y-101739432D01*
X100776497Y-101643261D01*
X100556689Y-101584364D01*
X100330000Y-101564531D01*
X100103310Y-101584364D01*
X99883502Y-101643261D01*
X99677264Y-101739432D01*
X99490859Y-101869953D01*
X99329953Y-102030859D01*
X99199432Y-102217264D01*
X99103261Y-102423502D01*
X99044364Y-102643310D01*
X99024531Y-102870000D01*
X96555468Y-102870000D01*
X96535635Y-102643308D01*
X96476739Y-102423504D01*
X96380568Y-102217266D01*
X96250047Y-102030861D01*
X96250046Y-102030859D01*
X96089140Y-101869953D01*
X95928377Y-101757387D01*
X95889511Y-101713069D01*
X95875500Y-101655812D01*
X95875500Y-101227869D01*
X105329500Y-101227869D01*
X105335909Y-101287483D01*
X105386204Y-101422331D01*
X105472454Y-101537546D01*
X105587669Y-101623796D01*
X105722517Y-101674091D01*
X105782127Y-101680500D01*
X107577872Y-101680499D01*
X107637483Y-101674091D01*
X107772331Y-101623796D01*
X107887546Y-101537546D01*
X107973796Y-101422331D01*
X108024091Y-101287483D01*
X108030500Y-101227873D01*
X108030500Y-101227869D01*
X156329500Y-101227869D01*
X156335909Y-101287483D01*
X156386204Y-101422331D01*
X156472454Y-101537546D01*
X156587669Y-101623796D01*
X156722517Y-101674091D01*
X156782127Y-101680500D01*
X158577872Y-101680499D01*
X158637483Y-101674091D01*
X158772331Y-101623796D01*
X158887546Y-101537546D01*
X158973796Y-101422331D01*
X159024091Y-101287483D01*
X159030500Y-101227873D01*
X159030499Y-99432128D01*
X159024091Y-99372517D01*
X158973796Y-99237669D01*
X158887546Y-99122454D01*
X158772331Y-99036204D01*
X158637483Y-98985909D01*
X158577873Y-98979500D01*
X158577869Y-98979500D01*
X156782130Y-98979500D01*
X156722515Y-98985909D01*
X156587669Y-99036204D01*
X156472454Y-99122454D01*
X156386204Y-99237668D01*
X156335909Y-99372516D01*
X156329500Y-99432130D01*
X156329500Y-101227869D01*
X108030500Y-101227869D01*
X108030499Y-99432128D01*
X108024091Y-99372517D01*
X107973796Y-99237669D01*
X107887546Y-99122454D01*
X107772331Y-99036204D01*
X107637483Y-98985909D01*
X107577873Y-98979500D01*
X107577869Y-98979500D01*
X105782130Y-98979500D01*
X105722515Y-98985909D01*
X105587669Y-99036204D01*
X105472454Y-99122454D01*
X105386204Y-99237668D01*
X105335909Y-99372516D01*
X105329500Y-99432130D01*
X105329500Y-101227869D01*
X95875500Y-101227869D01*
X95875500Y-89535000D01*
X100929531Y-89535000D01*
X100949364Y-89761689D01*
X101008261Y-89981497D01*
X101104432Y-90187735D01*
X101234953Y-90374140D01*
X101395859Y-90535046D01*
X101582264Y-90665567D01*
X101582265Y-90665567D01*
X101582266Y-90665568D01*
X101788504Y-90761739D01*
X102008308Y-90820635D01*
X102235000Y-90840468D01*
X102461692Y-90820635D01*
X102681496Y-90761739D01*
X102887734Y-90665568D01*
X103074139Y-90535047D01*
X103235047Y-90374139D01*
X103365568Y-90187734D01*
X103461739Y-89981496D01*
X103520635Y-89761692D01*
X103540468Y-89535000D01*
X103520635Y-89308308D01*
X103461739Y-89088504D01*
X103365568Y-88882266D01*
X103287741Y-88771117D01*
X103235046Y-88695859D01*
X103074140Y-88534953D01*
X102887735Y-88404432D01*
X102681497Y-88308261D01*
X102461689Y-88249364D01*
X102234999Y-88229531D01*
X102008310Y-88249364D01*
X101788502Y-88308261D01*
X101582264Y-88404432D01*
X101395859Y-88534953D01*
X101234953Y-88695859D01*
X101104432Y-88882264D01*
X101008261Y-89088502D01*
X100949364Y-89308310D01*
X100929531Y-89535000D01*
X95875500Y-89535000D01*
X95875500Y-82257256D01*
X95889625Y-82199781D01*
X95928781Y-82155399D01*
X95984049Y-82134222D01*
X96021901Y-82138634D01*
X96022031Y-82137426D01*
X96037515Y-82139090D01*
X96037517Y-82139091D01*
X96097127Y-82145500D01*
X98192872Y-82145499D01*
X98252483Y-82139091D01*
X98387331Y-82088796D01*
X98502546Y-82002546D01*
X98568083Y-81915000D01*
X100929531Y-81915000D01*
X100949364Y-82141689D01*
X101008261Y-82361497D01*
X101104432Y-82567735D01*
X101234953Y-82754140D01*
X101395859Y-82915046D01*
X101582264Y-83045567D01*
X101582265Y-83045567D01*
X101582266Y-83045568D01*
X101788504Y-83141739D01*
X102008308Y-83200635D01*
X102159436Y-83213857D01*
X102234999Y-83220468D01*
X102234999Y-83220467D01*
X102235000Y-83220468D01*
X102461692Y-83200635D01*
X102681496Y-83141739D01*
X102887734Y-83045568D01*
X103074139Y-82915047D01*
X103235047Y-82754139D01*
X103365568Y-82567734D01*
X103461739Y-82361496D01*
X103520635Y-82141692D01*
X103540468Y-81915000D01*
X103520635Y-81688308D01*
X103461739Y-81468504D01*
X103365568Y-81262266D01*
X103287741Y-81151117D01*
X103235046Y-81075859D01*
X103074140Y-80914953D01*
X102887735Y-80784432D01*
X102681497Y-80688261D01*
X102461689Y-80629364D01*
X102234999Y-80609531D01*
X102008310Y-80629364D01*
X101788502Y-80688261D01*
X101582264Y-80784432D01*
X101395859Y-80914953D01*
X101234953Y-81075859D01*
X101104432Y-81262264D01*
X101008261Y-81468502D01*
X100949364Y-81688310D01*
X100929531Y-81915000D01*
X98568083Y-81915000D01*
X98588796Y-81887331D01*
X98639091Y-81752483D01*
X98645500Y-81692873D01*
X98645499Y-79597128D01*
X98639091Y-79537517D01*
X98588796Y-79402669D01*
X98502546Y-79287454D01*
X98387331Y-79201204D01*
X98252483Y-79150909D01*
X98192873Y-79144500D01*
X98192869Y-79144500D01*
X96097130Y-79144500D01*
X96022030Y-79152574D01*
X96021900Y-79151365D01*
X95984045Y-79155777D01*
X95928779Y-79134600D01*
X95889624Y-79090218D01*
X95875500Y-79032744D01*
X95875500Y-68890452D01*
X95884939Y-68842999D01*
X95911819Y-68802771D01*
X100192772Y-64521819D01*
X100233000Y-64494939D01*
X100280453Y-64485500D01*
X105869850Y-64485500D01*
X105916512Y-64494615D01*
X105956315Y-64520619D01*
X105983406Y-64559690D01*
X105990825Y-64576604D01*
X105990827Y-64576607D01*
X106126836Y-64784785D01*
X106295256Y-64967738D01*
X106378008Y-65032147D01*
X106413245Y-65075538D01*
X106425845Y-65129998D01*
X106413246Y-65184458D01*
X106378009Y-65227851D01*
X106295257Y-65292260D01*
X106126837Y-65475214D01*
X105990825Y-65683395D01*
X105890938Y-65911117D01*
X105829891Y-66152183D01*
X105809356Y-66400000D01*
X105829891Y-66647816D01*
X105829891Y-66647819D01*
X105829892Y-66647821D01*
X105890937Y-66888881D01*
X105935960Y-66991523D01*
X105990825Y-67116604D01*
X105990827Y-67116607D01*
X106126836Y-67324785D01*
X106295256Y-67507738D01*
X106378008Y-67572147D01*
X106413246Y-67615540D01*
X106425845Y-67670000D01*
X106413246Y-67724460D01*
X106378008Y-67767853D01*
X106295256Y-67832261D01*
X106126837Y-68015214D01*
X105990825Y-68223395D01*
X105911560Y-68404104D01*
X105890937Y-68451119D01*
X105829892Y-68692179D01*
X105829891Y-68692183D01*
X105809356Y-68940000D01*
X105829891Y-69187816D01*
X105829891Y-69187819D01*
X105829892Y-69187821D01*
X105890937Y-69428881D01*
X105935960Y-69531523D01*
X105990825Y-69656604D01*
X105990827Y-69656607D01*
X106126836Y-69864785D01*
X106295255Y-70047737D01*
X106295256Y-70047738D01*
X106378008Y-70112147D01*
X106413246Y-70155540D01*
X106425845Y-70210000D01*
X106413246Y-70264460D01*
X106378008Y-70307853D01*
X106295256Y-70372261D01*
X106126837Y-70555214D01*
X105990825Y-70763395D01*
X105890938Y-70991117D01*
X105829891Y-71232183D01*
X105809356Y-71479999D01*
X105829891Y-71727816D01*
X105829891Y-71727819D01*
X105829892Y-71727821D01*
X105890937Y-71968881D01*
X105935960Y-72071523D01*
X105990825Y-72196604D01*
X105990827Y-72196607D01*
X106126836Y-72404785D01*
X106295255Y-72587737D01*
X106295256Y-72587738D01*
X106378008Y-72652147D01*
X106413246Y-72695540D01*
X106425845Y-72750000D01*
X106413246Y-72804460D01*
X106378008Y-72847853D01*
X106295256Y-72912261D01*
X106126837Y-73095214D01*
X105990825Y-73303395D01*
X105890938Y-73531117D01*
X105829891Y-73772183D01*
X105809356Y-74020000D01*
X105829891Y-74267816D01*
X105829891Y-74267819D01*
X105829892Y-74267821D01*
X105890937Y-74508881D01*
X105935960Y-74611523D01*
X105990825Y-74736604D01*
X105990827Y-74736607D01*
X106126836Y-74944785D01*
X106295256Y-75127738D01*
X106378008Y-75192147D01*
X106413246Y-75235540D01*
X106425845Y-75290000D01*
X106413246Y-75344460D01*
X106378008Y-75387853D01*
X106295256Y-75452261D01*
X106126837Y-75635214D01*
X105990825Y-75843395D01*
X105890938Y-76071117D01*
X105829891Y-76312183D01*
X105809356Y-76560000D01*
X105829891Y-76807816D01*
X105829891Y-76807819D01*
X105829892Y-76807821D01*
X105890937Y-77048881D01*
X105935960Y-77151523D01*
X105990825Y-77276604D01*
X105990827Y-77276607D01*
X106126836Y-77484785D01*
X106295255Y-77667737D01*
X106295256Y-77667738D01*
X106378008Y-77732147D01*
X106413246Y-77775540D01*
X106425845Y-77830000D01*
X106413246Y-77884460D01*
X106378008Y-77927853D01*
X106295256Y-77992261D01*
X106126837Y-78175214D01*
X105990825Y-78383395D01*
X105890938Y-78611117D01*
X105829891Y-78852183D01*
X105809356Y-79099999D01*
X105829891Y-79347816D01*
X105829891Y-79347819D01*
X105829892Y-79347821D01*
X105890937Y-79588881D01*
X105935960Y-79691523D01*
X105990825Y-79816604D01*
X105990827Y-79816607D01*
X106126836Y-80024785D01*
X106276780Y-80187668D01*
X106295256Y-80207738D01*
X106378008Y-80272147D01*
X106413246Y-80315540D01*
X106425845Y-80370000D01*
X106413246Y-80424460D01*
X106378008Y-80467853D01*
X106295256Y-80532261D01*
X106126837Y-80715214D01*
X105990825Y-80923395D01*
X105890938Y-81151117D01*
X105829891Y-81392183D01*
X105809356Y-81640000D01*
X105829891Y-81887816D01*
X105829891Y-81887819D01*
X105829892Y-81887821D01*
X105890937Y-82128881D01*
X105912427Y-82177873D01*
X105990825Y-82356604D01*
X105990827Y-82356607D01*
X106126836Y-82564785D01*
X106263117Y-82712826D01*
X106295256Y-82747738D01*
X106378008Y-82812147D01*
X106413246Y-82855540D01*
X106425845Y-82910000D01*
X106413246Y-82964460D01*
X106378008Y-83007853D01*
X106295256Y-83072261D01*
X106126837Y-83255214D01*
X105990825Y-83463395D01*
X105890938Y-83691117D01*
X105829891Y-83932183D01*
X105809356Y-84180000D01*
X105829891Y-84427816D01*
X105829891Y-84427819D01*
X105829892Y-84427821D01*
X105890937Y-84668881D01*
X105900675Y-84691081D01*
X105990825Y-84896604D01*
X105990827Y-84896607D01*
X106126836Y-85104785D01*
X106295255Y-85287737D01*
X106295256Y-85287738D01*
X106378008Y-85352147D01*
X106413246Y-85395540D01*
X106425845Y-85450000D01*
X106413246Y-85504460D01*
X106378008Y-85547853D01*
X106295256Y-85612261D01*
X106126837Y-85795214D01*
X105990825Y-86003395D01*
X105890938Y-86231117D01*
X105829891Y-86472183D01*
X105809356Y-86720000D01*
X105829891Y-86967816D01*
X105829891Y-86967819D01*
X105829892Y-86967821D01*
X105890937Y-87208881D01*
X105900817Y-87231404D01*
X105990825Y-87436604D01*
X105990827Y-87436607D01*
X106126836Y-87644785D01*
X106295256Y-87827738D01*
X106378008Y-87892147D01*
X106413245Y-87935538D01*
X106425845Y-87989998D01*
X106413246Y-88044458D01*
X106378009Y-88087851D01*
X106295257Y-88152260D01*
X106126837Y-88335214D01*
X105990825Y-88543395D01*
X105890938Y-88771117D01*
X105829891Y-89012183D01*
X105809356Y-89259999D01*
X105829891Y-89507816D01*
X105829891Y-89507819D01*
X105829892Y-89507821D01*
X105890937Y-89748881D01*
X105935960Y-89851523D01*
X105990825Y-89976604D01*
X105990827Y-89976607D01*
X106126836Y-90184785D01*
X106295256Y-90367738D01*
X106360667Y-90418649D01*
X106491485Y-90520470D01*
X106491487Y-90520471D01*
X106491491Y-90520474D01*
X106710190Y-90638828D01*
X106945386Y-90719571D01*
X107190665Y-90760500D01*
X107221489Y-90760500D01*
X107279430Y-90774870D01*
X107323943Y-90814648D01*
X107344709Y-90870616D01*
X107336917Y-90929802D01*
X107302373Y-90978488D01*
X107249082Y-91005390D01*
X107240024Y-91007458D01*
X107217581Y-91012580D01*
X106973358Y-91108431D01*
X106746143Y-91239613D01*
X106541015Y-91403198D01*
X106362571Y-91595514D01*
X106262070Y-91742922D01*
X106214772Y-91812296D01*
X106100937Y-92048677D01*
X106023604Y-92299385D01*
X105984500Y-92558818D01*
X105984500Y-92821182D01*
X106023604Y-93080615D01*
X106100937Y-93331323D01*
X106214772Y-93567704D01*
X106350766Y-93767170D01*
X106362571Y-93784485D01*
X106541015Y-93976801D01*
X106541019Y-93976805D01*
X106746143Y-94140386D01*
X106973357Y-94271568D01*
X107217584Y-94367420D01*
X107473370Y-94425802D01*
X107529408Y-94430001D01*
X107669501Y-94440500D01*
X107669506Y-94440500D01*
X107800494Y-94440500D01*
X107800499Y-94440500D01*
X107923078Y-94431313D01*
X107996630Y-94425802D01*
X108252416Y-94367420D01*
X108496643Y-94271568D01*
X108723857Y-94140386D01*
X108928981Y-93976805D01*
X109028273Y-93869792D01*
X109107428Y-93784485D01*
X109107429Y-93784482D01*
X109107433Y-93784479D01*
X109255228Y-93567704D01*
X109369063Y-93331323D01*
X109446396Y-93080615D01*
X109485500Y-92821182D01*
X109485500Y-92558818D01*
X109446396Y-92299385D01*
X109369063Y-92048677D01*
X109255228Y-91812296D01*
X109107433Y-91595521D01*
X109107432Y-91595520D01*
X109107428Y-91595514D01*
X108928984Y-91403198D01*
X108928983Y-91403197D01*
X108928981Y-91403195D01*
X108723857Y-91239614D01*
X108723856Y-91239613D01*
X108496641Y-91108431D01*
X108252418Y-91012580D01*
X107996627Y-90954197D01*
X107800499Y-90939500D01*
X107800494Y-90939500D01*
X107787074Y-90939500D01*
X107720978Y-90920416D01*
X107675227Y-90869038D01*
X107663904Y-90801180D01*
X107690493Y-90737730D01*
X107746811Y-90698219D01*
X107796222Y-90681255D01*
X107919810Y-90638828D01*
X108138509Y-90520474D01*
X108334744Y-90367738D01*
X108503164Y-90184785D01*
X108639173Y-89976607D01*
X108739063Y-89748881D01*
X108800108Y-89507821D01*
X108820643Y-89260000D01*
X108800108Y-89012179D01*
X108739063Y-88771119D01*
X108639173Y-88543393D01*
X108503164Y-88335215D01*
X108378690Y-88200000D01*
X111105000Y-88200000D01*
X111105000Y-94690000D01*
X128795000Y-94690000D01*
X128795000Y-92821182D01*
X130494500Y-92821182D01*
X130533604Y-93080615D01*
X130610937Y-93331323D01*
X130724772Y-93567704D01*
X130860766Y-93767170D01*
X130872571Y-93784485D01*
X131051015Y-93976801D01*
X131051019Y-93976805D01*
X131256143Y-94140386D01*
X131483357Y-94271568D01*
X131727584Y-94367420D01*
X131983370Y-94425802D01*
X132039408Y-94430001D01*
X132179501Y-94440500D01*
X132179506Y-94440500D01*
X132310494Y-94440500D01*
X132310499Y-94440500D01*
X132433078Y-94431313D01*
X132506630Y-94425802D01*
X132762416Y-94367420D01*
X133006643Y-94271568D01*
X133233857Y-94140386D01*
X133438981Y-93976805D01*
X133538273Y-93869792D01*
X133617428Y-93784485D01*
X133617429Y-93784482D01*
X133617433Y-93784479D01*
X133765228Y-93567704D01*
X133879063Y-93331323D01*
X133956396Y-93080615D01*
X133995500Y-92821182D01*
X133995500Y-92558818D01*
X133956396Y-92299385D01*
X133879063Y-92048677D01*
X133765228Y-91812296D01*
X133617433Y-91595521D01*
X133617432Y-91595520D01*
X133617428Y-91595514D01*
X133438984Y-91403198D01*
X133438983Y-91403197D01*
X133438981Y-91403195D01*
X133233857Y-91239614D01*
X133233856Y-91239613D01*
X133006641Y-91108431D01*
X132762418Y-91012580D01*
X132742795Y-91008101D01*
X132730917Y-91005390D01*
X132677627Y-90978488D01*
X132643083Y-90929802D01*
X132635291Y-90870616D01*
X132656057Y-90814648D01*
X132700570Y-90774870D01*
X132758511Y-90760500D01*
X132839335Y-90760500D01*
X133084614Y-90719571D01*
X133319810Y-90638828D01*
X133538509Y-90520474D01*
X133734744Y-90367738D01*
X133903164Y-90184785D01*
X134039173Y-89976607D01*
X134139063Y-89748881D01*
X134200108Y-89507821D01*
X134220643Y-89260000D01*
X134200108Y-89012179D01*
X134139063Y-88771119D01*
X134039173Y-88543393D01*
X133903164Y-88335215D01*
X133734744Y-88152262D01*
X133718437Y-88139570D01*
X133651992Y-88087853D01*
X133616754Y-88044460D01*
X133604154Y-87990000D01*
X133616754Y-87935540D01*
X133651992Y-87892147D01*
X133676256Y-87873260D01*
X133734744Y-87827738D01*
X133903164Y-87644785D01*
X134039173Y-87436607D01*
X134139063Y-87208881D01*
X134200108Y-86967821D01*
X134220643Y-86720000D01*
X134200108Y-86472179D01*
X134171700Y-86360000D01*
X143424340Y-86360000D01*
X143444936Y-86595407D01*
X143478321Y-86720000D01*
X143506097Y-86823663D01*
X143605965Y-87037830D01*
X143741505Y-87231401D01*
X143908599Y-87398495D01*
X144102170Y-87534035D01*
X144316337Y-87633903D01*
X144544592Y-87695063D01*
X144780000Y-87715659D01*
X145015408Y-87695063D01*
X145243663Y-87633903D01*
X145457830Y-87534035D01*
X145651401Y-87398495D01*
X145818495Y-87231401D01*
X145948426Y-87045839D01*
X145992743Y-87006975D01*
X146050000Y-86992964D01*
X146107257Y-87006975D01*
X146151573Y-87045839D01*
X146281505Y-87231401D01*
X146448599Y-87398495D01*
X146642170Y-87534035D01*
X146856337Y-87633903D01*
X147084592Y-87695063D01*
X147320000Y-87715659D01*
X147555408Y-87695063D01*
X147783663Y-87633903D01*
X147997830Y-87534035D01*
X148191401Y-87398495D01*
X148358495Y-87231401D01*
X148488426Y-87045839D01*
X148532743Y-87006975D01*
X148590000Y-86992964D01*
X148647257Y-87006975D01*
X148691573Y-87045839D01*
X148821505Y-87231401D01*
X148988599Y-87398495D01*
X149182170Y-87534035D01*
X149396337Y-87633903D01*
X149624592Y-87695063D01*
X149860000Y-87715659D01*
X150095408Y-87695063D01*
X150323663Y-87633903D01*
X150537830Y-87534035D01*
X150731401Y-87398495D01*
X150898495Y-87231401D01*
X151028426Y-87045839D01*
X151072743Y-87006975D01*
X151130000Y-86992964D01*
X151187257Y-87006975D01*
X151231573Y-87045839D01*
X151361505Y-87231401D01*
X151528599Y-87398495D01*
X151722170Y-87534035D01*
X151936337Y-87633903D01*
X152164592Y-87695063D01*
X152400000Y-87715659D01*
X152635408Y-87695063D01*
X152863663Y-87633903D01*
X153077830Y-87534035D01*
X153271401Y-87398495D01*
X153438495Y-87231401D01*
X153574035Y-87037830D01*
X153673903Y-86823663D01*
X153735063Y-86595408D01*
X153755659Y-86360000D01*
X153735063Y-86124592D01*
X153673903Y-85896337D01*
X153574035Y-85682171D01*
X153438495Y-85488599D01*
X153271401Y-85321505D01*
X153085402Y-85191267D01*
X153046539Y-85146951D01*
X153032528Y-85089694D01*
X153046539Y-85032437D01*
X153085405Y-84988119D01*
X153271078Y-84858109D01*
X153438106Y-84691081D01*
X153573600Y-84497576D01*
X153673430Y-84283492D01*
X153730636Y-84070000D01*
X143449364Y-84070000D01*
X143506569Y-84283492D01*
X143606399Y-84497576D01*
X143741893Y-84691081D01*
X143908918Y-84858106D01*
X144094595Y-84988119D01*
X144133460Y-85032437D01*
X144147471Y-85089694D01*
X144133460Y-85146951D01*
X144094595Y-85191269D01*
X143908595Y-85321508D01*
X143741505Y-85488598D01*
X143605965Y-85682170D01*
X143506097Y-85896336D01*
X143444936Y-86124592D01*
X143424340Y-86360000D01*
X134171700Y-86360000D01*
X134139063Y-86231119D01*
X134039173Y-86003393D01*
X133903164Y-85795215D01*
X133734744Y-85612262D01*
X133718437Y-85599570D01*
X133651992Y-85547853D01*
X133616754Y-85504460D01*
X133604154Y-85450000D01*
X133616754Y-85395540D01*
X133651992Y-85352147D01*
X133691360Y-85321505D01*
X133734744Y-85287738D01*
X133903164Y-85104785D01*
X134039173Y-84896607D01*
X134139063Y-84668881D01*
X134200108Y-84427821D01*
X134220643Y-84180000D01*
X134200108Y-83932179D01*
X134139063Y-83691119D01*
X134039173Y-83463393D01*
X133903164Y-83255215D01*
X133734744Y-83072262D01*
X133700446Y-83045567D01*
X133651992Y-83007853D01*
X133616754Y-82964460D01*
X133604154Y-82910000D01*
X133616754Y-82855540D01*
X133651992Y-82812147D01*
X133676256Y-82793260D01*
X133734744Y-82747738D01*
X133903164Y-82564785D01*
X134039173Y-82356607D01*
X134117575Y-82177869D01*
X143429500Y-82177869D01*
X143431856Y-82199781D01*
X143435909Y-82237483D01*
X143486204Y-82372331D01*
X143572454Y-82487546D01*
X143687669Y-82573796D01*
X143819598Y-82623002D01*
X143869978Y-82657981D01*
X143897431Y-82712825D01*
X143895242Y-82774118D01*
X143863947Y-82826865D01*
X143741888Y-82948924D01*
X143606400Y-83142421D01*
X143506569Y-83356507D01*
X143449364Y-83569999D01*
X143449364Y-83570000D01*
X153730636Y-83570000D01*
X153730635Y-83569999D01*
X153673430Y-83356507D01*
X153573599Y-83142421D01*
X153438109Y-82948921D01*
X153316053Y-82826865D01*
X153284757Y-82774119D01*
X153282568Y-82712826D01*
X153310021Y-82657981D01*
X153360398Y-82623003D01*
X153492331Y-82573796D01*
X153607546Y-82487546D01*
X153693796Y-82372331D01*
X153744091Y-82237483D01*
X153750500Y-82177873D01*
X153750499Y-80382128D01*
X153744091Y-80322517D01*
X153693796Y-80187669D01*
X153607546Y-80072454D01*
X153492331Y-79986204D01*
X153357483Y-79935909D01*
X153297873Y-79929500D01*
X153297869Y-79929500D01*
X151502130Y-79929500D01*
X151442515Y-79935909D01*
X151307667Y-79986204D01*
X151204310Y-80063577D01*
X151156358Y-80085476D01*
X151103642Y-80085476D01*
X151055690Y-80063577D01*
X150952333Y-79986205D01*
X150952331Y-79986204D01*
X150817483Y-79935909D01*
X150757873Y-79929500D01*
X150757869Y-79929500D01*
X148962130Y-79929500D01*
X148902515Y-79935909D01*
X148767667Y-79986204D01*
X148664310Y-80063577D01*
X148616358Y-80085476D01*
X148563642Y-80085476D01*
X148515690Y-80063577D01*
X148412333Y-79986205D01*
X148412331Y-79986204D01*
X148277483Y-79935909D01*
X148217873Y-79929500D01*
X148217869Y-79929500D01*
X146422130Y-79929500D01*
X146362515Y-79935909D01*
X146227667Y-79986204D01*
X146124310Y-80063577D01*
X146076358Y-80085476D01*
X146023642Y-80085476D01*
X145975690Y-80063577D01*
X145872333Y-79986205D01*
X145872331Y-79986204D01*
X145737483Y-79935909D01*
X145677873Y-79929500D01*
X145677869Y-79929500D01*
X143882130Y-79929500D01*
X143822515Y-79935909D01*
X143687669Y-79986204D01*
X143572454Y-80072454D01*
X143486204Y-80187668D01*
X143435909Y-80322516D01*
X143429500Y-80382130D01*
X143429500Y-82177869D01*
X134117575Y-82177869D01*
X134139063Y-82128881D01*
X134200108Y-81887821D01*
X134220643Y-81640000D01*
X134200108Y-81392179D01*
X134139063Y-81151119D01*
X134039173Y-80923393D01*
X133903164Y-80715215D01*
X133734744Y-80532262D01*
X133718437Y-80519570D01*
X133651992Y-80467853D01*
X133616754Y-80424460D01*
X133604154Y-80370000D01*
X133616754Y-80315540D01*
X133651992Y-80272147D01*
X133676256Y-80253260D01*
X133734744Y-80207738D01*
X133903164Y-80024785D01*
X134039173Y-79816607D01*
X134139063Y-79588881D01*
X134200108Y-79347821D01*
X134220643Y-79100000D01*
X134219832Y-79090218D01*
X134200108Y-78852183D01*
X134200108Y-78852179D01*
X134139063Y-78611119D01*
X134039173Y-78383393D01*
X133903164Y-78175215D01*
X133734744Y-77992262D01*
X133718437Y-77979570D01*
X133651992Y-77927853D01*
X133616754Y-77884460D01*
X133604154Y-77830000D01*
X133616754Y-77775540D01*
X133651992Y-77732147D01*
X133676256Y-77713260D01*
X133734744Y-77667738D01*
X133903164Y-77484785D01*
X134039173Y-77276607D01*
X134139063Y-77048881D01*
X134200108Y-76807821D01*
X134220643Y-76560000D01*
X134200108Y-76312179D01*
X134139063Y-76071119D01*
X134039173Y-75843393D01*
X133903164Y-75635215D01*
X133734744Y-75452262D01*
X133718437Y-75439570D01*
X133651992Y-75387853D01*
X133616754Y-75344460D01*
X133604154Y-75290000D01*
X133616754Y-75235540D01*
X133651992Y-75192147D01*
X133676256Y-75173260D01*
X133734744Y-75127738D01*
X133903164Y-74944785D01*
X134039173Y-74736607D01*
X134139063Y-74508881D01*
X134200108Y-74267821D01*
X134220643Y-74020000D01*
X134200108Y-73772179D01*
X134139063Y-73531119D01*
X134039173Y-73303393D01*
X133903164Y-73095215D01*
X133734744Y-72912262D01*
X133718437Y-72899570D01*
X133651992Y-72847853D01*
X133616754Y-72804460D01*
X133604154Y-72750000D01*
X133616754Y-72695540D01*
X133651992Y-72652147D01*
X133676256Y-72633260D01*
X133734744Y-72587738D01*
X133903164Y-72404785D01*
X134039173Y-72196607D01*
X134139063Y-71968881D01*
X134200108Y-71727821D01*
X134220643Y-71480000D01*
X134200108Y-71232179D01*
X134139063Y-70991119D01*
X134039173Y-70763393D01*
X133903164Y-70555215D01*
X133734744Y-70372262D01*
X133718437Y-70359570D01*
X133651992Y-70307853D01*
X133616754Y-70264460D01*
X133604154Y-70210000D01*
X133616754Y-70155540D01*
X133651992Y-70112147D01*
X133676256Y-70093260D01*
X133734744Y-70047738D01*
X133903164Y-69864785D01*
X134039173Y-69656607D01*
X134139063Y-69428881D01*
X134200108Y-69187821D01*
X134220643Y-68940000D01*
X134200108Y-68692179D01*
X134139063Y-68451119D01*
X134039173Y-68223393D01*
X133903164Y-68015215D01*
X133734744Y-67832262D01*
X133718437Y-67819570D01*
X133651992Y-67767853D01*
X133616754Y-67724460D01*
X133604154Y-67670000D01*
X133616754Y-67615540D01*
X133651992Y-67572147D01*
X133676256Y-67553260D01*
X133734744Y-67507738D01*
X133903164Y-67324785D01*
X134039173Y-67116607D01*
X134139063Y-66888881D01*
X134200108Y-66647821D01*
X134220643Y-66400000D01*
X134200108Y-66152179D01*
X134139063Y-65911119D01*
X134039173Y-65683393D01*
X133903164Y-65475215D01*
X133734744Y-65292262D01*
X133718437Y-65279570D01*
X133651992Y-65227853D01*
X133616754Y-65184460D01*
X133604154Y-65130000D01*
X133616754Y-65075540D01*
X133651992Y-65032147D01*
X133676256Y-65013260D01*
X133734744Y-64967738D01*
X133903164Y-64784785D01*
X134039173Y-64576607D01*
X134139063Y-64348881D01*
X134200108Y-64107821D01*
X134220643Y-63860000D01*
X134211528Y-63750000D01*
X135810000Y-63750000D01*
X135810000Y-64397824D01*
X135816402Y-64457375D01*
X135866647Y-64592089D01*
X135952811Y-64707188D01*
X136067910Y-64793352D01*
X136202624Y-64843597D01*
X136262176Y-64850000D01*
X136910000Y-64850000D01*
X136910000Y-63750000D01*
X137410000Y-63750000D01*
X137410000Y-64850000D01*
X138057824Y-64850000D01*
X138117375Y-64843597D01*
X138252089Y-64793352D01*
X138367188Y-64707188D01*
X138453352Y-64592088D01*
X138502614Y-64460013D01*
X138537593Y-64409633D01*
X138592438Y-64382180D01*
X138653731Y-64384369D01*
X138706477Y-64415665D01*
X138828918Y-64538106D01*
X139022423Y-64673600D01*
X139236507Y-64773430D01*
X139449999Y-64830635D01*
X139450000Y-64830636D01*
X139450000Y-63750000D01*
X139950000Y-63750000D01*
X139950000Y-64830635D01*
X140163492Y-64773430D01*
X140377576Y-64673600D01*
X140571081Y-64538106D01*
X140738106Y-64371081D01*
X140868425Y-64184968D01*
X140912743Y-64146103D01*
X140970000Y-64132092D01*
X141027257Y-64146103D01*
X141071575Y-64184968D01*
X141201893Y-64371081D01*
X141368918Y-64538106D01*
X141562423Y-64673600D01*
X141776507Y-64773430D01*
X141989999Y-64830635D01*
X141990000Y-64830636D01*
X141990000Y-63750000D01*
X142490000Y-63750000D01*
X142490000Y-64830635D01*
X142703492Y-64773430D01*
X142917576Y-64673600D01*
X143111081Y-64538106D01*
X143278106Y-64371081D01*
X143408425Y-64184968D01*
X143452743Y-64146103D01*
X143510000Y-64132092D01*
X143567257Y-64146103D01*
X143611575Y-64184968D01*
X143741893Y-64371081D01*
X143908918Y-64538106D01*
X144102423Y-64673600D01*
X144316507Y-64773430D01*
X144529999Y-64830635D01*
X144530000Y-64830636D01*
X144530000Y-63750000D01*
X145030000Y-63750000D01*
X145030000Y-64830635D01*
X145243492Y-64773430D01*
X145457576Y-64673600D01*
X145651081Y-64538106D01*
X145818106Y-64371081D01*
X145948425Y-64184968D01*
X145992743Y-64146103D01*
X146050000Y-64132092D01*
X146107257Y-64146103D01*
X146151575Y-64184968D01*
X146281893Y-64371081D01*
X146448918Y-64538106D01*
X146642423Y-64673600D01*
X146856507Y-64773430D01*
X147069999Y-64830635D01*
X147070000Y-64830636D01*
X147070000Y-63750000D01*
X147570000Y-63750000D01*
X147570000Y-64830635D01*
X147783492Y-64773430D01*
X147997576Y-64673600D01*
X148191081Y-64538106D01*
X148358106Y-64371081D01*
X148493600Y-64177576D01*
X148593430Y-63963492D01*
X148650636Y-63750000D01*
X147570000Y-63750000D01*
X147070000Y-63750000D01*
X145030000Y-63750000D01*
X144530000Y-63750000D01*
X142490000Y-63750000D01*
X141990000Y-63750000D01*
X139950000Y-63750000D01*
X139450000Y-63750000D01*
X137410000Y-63750000D01*
X136910000Y-63750000D01*
X135810000Y-63750000D01*
X134211528Y-63750000D01*
X134200108Y-63612179D01*
X134139063Y-63371119D01*
X134085935Y-63250000D01*
X135810000Y-63250000D01*
X136910000Y-63250000D01*
X136910000Y-62150000D01*
X137410000Y-62150000D01*
X137410000Y-63250000D01*
X139450000Y-63250000D01*
X139950000Y-63250000D01*
X141990000Y-63250000D01*
X142490000Y-63250000D01*
X144530000Y-63250000D01*
X145030000Y-63250000D01*
X147070000Y-63250000D01*
X147070000Y-62169364D01*
X147570000Y-62169364D01*
X147570000Y-63250000D01*
X148650636Y-63250000D01*
X148650635Y-63249999D01*
X148593430Y-63036507D01*
X148493599Y-62822421D01*
X148358109Y-62628921D01*
X148191081Y-62461893D01*
X147997576Y-62326399D01*
X147783492Y-62226569D01*
X147570000Y-62169364D01*
X147070000Y-62169364D01*
X147069999Y-62169364D01*
X146856507Y-62226569D01*
X146642421Y-62326400D01*
X146448921Y-62461890D01*
X146281893Y-62628918D01*
X146151575Y-62815032D01*
X146107257Y-62853897D01*
X146050000Y-62867908D01*
X145992743Y-62853897D01*
X145948425Y-62815032D01*
X145818106Y-62628918D01*
X145651081Y-62461893D01*
X145457576Y-62326399D01*
X145243492Y-62226569D01*
X145030000Y-62169364D01*
X145030000Y-63250000D01*
X144530000Y-63250000D01*
X144530000Y-62169364D01*
X144529999Y-62169364D01*
X144316507Y-62226569D01*
X144102421Y-62326400D01*
X143908921Y-62461890D01*
X143741893Y-62628918D01*
X143611575Y-62815032D01*
X143567257Y-62853897D01*
X143510000Y-62867908D01*
X143452743Y-62853897D01*
X143408425Y-62815032D01*
X143278106Y-62628918D01*
X143111081Y-62461893D01*
X142917576Y-62326399D01*
X142703492Y-62226569D01*
X142490000Y-62169364D01*
X142490000Y-63250000D01*
X141990000Y-63250000D01*
X141990000Y-62169364D01*
X141989999Y-62169364D01*
X141776507Y-62226569D01*
X141562421Y-62326400D01*
X141368921Y-62461890D01*
X141201893Y-62628918D01*
X141071575Y-62815032D01*
X141027257Y-62853897D01*
X140970000Y-62867908D01*
X140912743Y-62853897D01*
X140868425Y-62815032D01*
X140738106Y-62628918D01*
X140571081Y-62461893D01*
X140377576Y-62326399D01*
X140163492Y-62226569D01*
X139950000Y-62169364D01*
X139950000Y-63250000D01*
X139450000Y-63250000D01*
X139450000Y-62169364D01*
X139449999Y-62169364D01*
X139236507Y-62226569D01*
X139022421Y-62326400D01*
X138828924Y-62461888D01*
X138706477Y-62584335D01*
X138653730Y-62615630D01*
X138592438Y-62617819D01*
X138537593Y-62590366D01*
X138502614Y-62539987D01*
X138453352Y-62407910D01*
X138367188Y-62292811D01*
X138252089Y-62206647D01*
X138117375Y-62156402D01*
X138057824Y-62150000D01*
X137410000Y-62150000D01*
X136910000Y-62150000D01*
X136262176Y-62150000D01*
X136202624Y-62156402D01*
X136067910Y-62206647D01*
X135952811Y-62292811D01*
X135866647Y-62407910D01*
X135816402Y-62542624D01*
X135810000Y-62602176D01*
X135810000Y-63250000D01*
X134085935Y-63250000D01*
X134049016Y-63165833D01*
X134039174Y-63143395D01*
X134039173Y-63143393D01*
X133903164Y-62935215D01*
X133734744Y-62752262D01*
X133718437Y-62739570D01*
X133651992Y-62687853D01*
X133616754Y-62644460D01*
X133604154Y-62590000D01*
X133616754Y-62535540D01*
X133651992Y-62492147D01*
X133676256Y-62473260D01*
X133734744Y-62427738D01*
X133903164Y-62244785D01*
X134039173Y-62036607D01*
X134139063Y-61808881D01*
X134200108Y-61567821D01*
X134220643Y-61320000D01*
X134200108Y-61072179D01*
X134139063Y-60831119D01*
X134039173Y-60603393D01*
X134029031Y-60587869D01*
X135809500Y-60587869D01*
X135815909Y-60647484D01*
X135841056Y-60714906D01*
X135866204Y-60782331D01*
X135952454Y-60897546D01*
X136067669Y-60983796D01*
X136202517Y-61034091D01*
X136262127Y-61040500D01*
X138057872Y-61040499D01*
X138117483Y-61034091D01*
X138252331Y-60983796D01*
X138367546Y-60897546D01*
X138453796Y-60782331D01*
X138502810Y-60650916D01*
X138537789Y-60600537D01*
X138592634Y-60573084D01*
X138653927Y-60575273D01*
X138706673Y-60606569D01*
X138828599Y-60728495D01*
X139022170Y-60864035D01*
X139236337Y-60963903D01*
X139464592Y-61025063D01*
X139700000Y-61045659D01*
X139935408Y-61025063D01*
X140163663Y-60963903D01*
X140377830Y-60864035D01*
X140571401Y-60728495D01*
X140738495Y-60561401D01*
X140868426Y-60375839D01*
X140912743Y-60336975D01*
X140970000Y-60322964D01*
X141027257Y-60336975D01*
X141071573Y-60375839D01*
X141201505Y-60561401D01*
X141368599Y-60728495D01*
X141562170Y-60864035D01*
X141776337Y-60963903D01*
X142004592Y-61025063D01*
X142240000Y-61045659D01*
X142475408Y-61025063D01*
X142703663Y-60963903D01*
X142917830Y-60864035D01*
X143111401Y-60728495D01*
X143278495Y-60561401D01*
X143408426Y-60375839D01*
X143452743Y-60336975D01*
X143510000Y-60322964D01*
X143567257Y-60336975D01*
X143611573Y-60375839D01*
X143741505Y-60561401D01*
X143908599Y-60728495D01*
X144102170Y-60864035D01*
X144316337Y-60963903D01*
X144544592Y-61025063D01*
X144780000Y-61045659D01*
X145015408Y-61025063D01*
X145243663Y-60963903D01*
X145457830Y-60864035D01*
X145651401Y-60728495D01*
X145818495Y-60561401D01*
X145948426Y-60375839D01*
X145992743Y-60336975D01*
X146050000Y-60322964D01*
X146107257Y-60336975D01*
X146151573Y-60375839D01*
X146281505Y-60561401D01*
X146448599Y-60728495D01*
X146642170Y-60864035D01*
X146856337Y-60963903D01*
X147084592Y-61025063D01*
X147320000Y-61045659D01*
X147555408Y-61025063D01*
X147783663Y-60963903D01*
X147997830Y-60864035D01*
X148191401Y-60728495D01*
X148344896Y-60575000D01*
X150415000Y-60575000D01*
X150415000Y-61222824D01*
X150421402Y-61282375D01*
X150471647Y-61417089D01*
X150557811Y-61532188D01*
X150672910Y-61618352D01*
X150807624Y-61668597D01*
X150867176Y-61675000D01*
X151515000Y-61675000D01*
X151515000Y-60575000D01*
X152015000Y-60575000D01*
X152015000Y-61675000D01*
X152662824Y-61675000D01*
X152722375Y-61668597D01*
X152857089Y-61618352D01*
X152972188Y-61532188D01*
X153058352Y-61417089D01*
X153108597Y-61282375D01*
X153115000Y-61222824D01*
X153115000Y-60575000D01*
X152015000Y-60575000D01*
X151515000Y-60575000D01*
X150415000Y-60575000D01*
X148344896Y-60575000D01*
X148358495Y-60561401D01*
X148494035Y-60367830D01*
X148593903Y-60153663D01*
X148655063Y-59925408D01*
X148675659Y-59690000D01*
X148655063Y-59454592D01*
X148593903Y-59226337D01*
X148494035Y-59012171D01*
X148358495Y-58818599D01*
X148191401Y-58651505D01*
X147997830Y-58515965D01*
X147783663Y-58416097D01*
X147722501Y-58399709D01*
X147555407Y-58354936D01*
X147320000Y-58334340D01*
X147084592Y-58354936D01*
X146856336Y-58416097D01*
X146642170Y-58515965D01*
X146448598Y-58651505D01*
X146281505Y-58818598D01*
X146151575Y-59004159D01*
X146107257Y-59043025D01*
X146050000Y-59057036D01*
X145992743Y-59043025D01*
X145948425Y-59004159D01*
X145827500Y-58831460D01*
X145818495Y-58818599D01*
X145651401Y-58651505D01*
X145457830Y-58515965D01*
X145243663Y-58416097D01*
X145182501Y-58399709D01*
X145015407Y-58354936D01*
X144780000Y-58334340D01*
X144544592Y-58354936D01*
X144316336Y-58416097D01*
X144102170Y-58515965D01*
X143908598Y-58651505D01*
X143741505Y-58818598D01*
X143611575Y-59004159D01*
X143567257Y-59043025D01*
X143510000Y-59057036D01*
X143452743Y-59043025D01*
X143408425Y-59004159D01*
X143287500Y-58831460D01*
X143278495Y-58818599D01*
X143111401Y-58651505D01*
X142917830Y-58515965D01*
X142703663Y-58416097D01*
X142642501Y-58399709D01*
X142475407Y-58354936D01*
X142240000Y-58334340D01*
X142004592Y-58354936D01*
X141776336Y-58416097D01*
X141562170Y-58515965D01*
X141368598Y-58651505D01*
X141201505Y-58818598D01*
X141071575Y-59004159D01*
X141027257Y-59043025D01*
X140970000Y-59057036D01*
X140912743Y-59043025D01*
X140868425Y-59004159D01*
X140747500Y-58831460D01*
X140738495Y-58818599D01*
X140571401Y-58651505D01*
X140377830Y-58515965D01*
X140163663Y-58416097D01*
X140102501Y-58399709D01*
X139935407Y-58354936D01*
X139700000Y-58334340D01*
X139464592Y-58354936D01*
X139236336Y-58416097D01*
X139022170Y-58515965D01*
X138828601Y-58651503D01*
X138706673Y-58773431D01*
X138653926Y-58804726D01*
X138592634Y-58806915D01*
X138537789Y-58779462D01*
X138502810Y-58729082D01*
X138495658Y-58709907D01*
X138453796Y-58597669D01*
X138367546Y-58482454D01*
X138252331Y-58396204D01*
X138117483Y-58345909D01*
X138057873Y-58339500D01*
X138057869Y-58339500D01*
X136262130Y-58339500D01*
X136202515Y-58345909D01*
X136067669Y-58396204D01*
X135952454Y-58482454D01*
X135866204Y-58597668D01*
X135815909Y-58732516D01*
X135809500Y-58792130D01*
X135809500Y-60587869D01*
X134029031Y-60587869D01*
X133903164Y-60395215D01*
X133734744Y-60212262D01*
X133670209Y-60162032D01*
X133651992Y-60147853D01*
X133616754Y-60104460D01*
X133604154Y-60050000D01*
X133616754Y-59995540D01*
X133651992Y-59952147D01*
X133676256Y-59933260D01*
X133734744Y-59887738D01*
X133903164Y-59704785D01*
X134039173Y-59496607D01*
X134139063Y-59268881D01*
X134200108Y-59027821D01*
X134220643Y-58780000D01*
X134200108Y-58532179D01*
X134139063Y-58291119D01*
X134039173Y-58063393D01*
X133903164Y-57855215D01*
X133838526Y-57784999D01*
X150409340Y-57784999D01*
X150429936Y-58020407D01*
X150441455Y-58063395D01*
X150491097Y-58248663D01*
X150590965Y-58462830D01*
X150726505Y-58656401D01*
X150726508Y-58656404D01*
X150848818Y-58778714D01*
X150880114Y-58831460D01*
X150882303Y-58892753D01*
X150854850Y-58947597D01*
X150804472Y-58982576D01*
X150672913Y-59031646D01*
X150557811Y-59117811D01*
X150471647Y-59232910D01*
X150421402Y-59367624D01*
X150415000Y-59427176D01*
X150415000Y-60075000D01*
X153115000Y-60075000D01*
X153115000Y-59427176D01*
X153108597Y-59367624D01*
X153058352Y-59232910D01*
X152972188Y-59117811D01*
X152857088Y-59031647D01*
X152725528Y-58982577D01*
X152675149Y-58947597D01*
X152647696Y-58892752D01*
X152649885Y-58831460D01*
X152681178Y-58778717D01*
X152803495Y-58656401D01*
X152939035Y-58462830D01*
X153038903Y-58248663D01*
X153100063Y-58020408D01*
X153120659Y-57785000D01*
X153120659Y-57784999D01*
X153584340Y-57784999D01*
X153604936Y-58020407D01*
X153616455Y-58063395D01*
X153666097Y-58248663D01*
X153765965Y-58462830D01*
X153901505Y-58656401D01*
X153901508Y-58656404D01*
X154023430Y-58778326D01*
X154054726Y-58831072D01*
X154056915Y-58892365D01*
X154029462Y-58947209D01*
X153979083Y-58982189D01*
X153847669Y-59031204D01*
X153732454Y-59117454D01*
X153646204Y-59232668D01*
X153595909Y-59367516D01*
X153589500Y-59427130D01*
X153589500Y-61222869D01*
X153595909Y-61282484D01*
X153609902Y-61320000D01*
X153646204Y-61417331D01*
X153732454Y-61532546D01*
X153847669Y-61618796D01*
X153982517Y-61669091D01*
X154042127Y-61675500D01*
X155837872Y-61675499D01*
X155897483Y-61669091D01*
X156032331Y-61618796D01*
X156147546Y-61532546D01*
X156233796Y-61417331D01*
X156284091Y-61282483D01*
X156290500Y-61222873D01*
X156290499Y-59427128D01*
X156284091Y-59367517D01*
X156233796Y-59232669D01*
X156147546Y-59117454D01*
X156032331Y-59031204D01*
X155959820Y-59004159D01*
X155900916Y-58982189D01*
X155850537Y-58947209D01*
X155823084Y-58892365D01*
X155825273Y-58831072D01*
X155856566Y-58778329D01*
X155978495Y-58656401D01*
X156114035Y-58462830D01*
X156213903Y-58248663D01*
X156275063Y-58020408D01*
X156295659Y-57785000D01*
X156285795Y-57672262D01*
X156275063Y-57549592D01*
X156238235Y-57412147D01*
X156213903Y-57321337D01*
X156114035Y-57107171D01*
X155978495Y-56913599D01*
X155811401Y-56746505D01*
X155617830Y-56610965D01*
X155403663Y-56511097D01*
X155316776Y-56487816D01*
X155175407Y-56449936D01*
X154940000Y-56429340D01*
X154704592Y-56449936D01*
X154476336Y-56511097D01*
X154262170Y-56610965D01*
X154068598Y-56746505D01*
X153901505Y-56913598D01*
X153765965Y-57107170D01*
X153666097Y-57321336D01*
X153604936Y-57549592D01*
X153584340Y-57784999D01*
X153120659Y-57784999D01*
X153110795Y-57672262D01*
X153100063Y-57549592D01*
X153063235Y-57412147D01*
X153038903Y-57321337D01*
X152939035Y-57107171D01*
X152803495Y-56913599D01*
X152636401Y-56746505D01*
X152442830Y-56610965D01*
X152228663Y-56511097D01*
X152141776Y-56487816D01*
X152000407Y-56449936D01*
X151765000Y-56429340D01*
X151529592Y-56449936D01*
X151301336Y-56511097D01*
X151087170Y-56610965D01*
X150893598Y-56746505D01*
X150726505Y-56913598D01*
X150590965Y-57107170D01*
X150491097Y-57321336D01*
X150429936Y-57549592D01*
X150409340Y-57784999D01*
X133838526Y-57784999D01*
X133734744Y-57672262D01*
X133718437Y-57659570D01*
X133651992Y-57607853D01*
X133616754Y-57564460D01*
X133604154Y-57510000D01*
X133616754Y-57455540D01*
X133651992Y-57412147D01*
X133691360Y-57381505D01*
X133734744Y-57347738D01*
X133903164Y-57164785D01*
X134039173Y-56956607D01*
X134117575Y-56777869D01*
X135809500Y-56777869D01*
X135815909Y-56837484D01*
X135831784Y-56880046D01*
X135866204Y-56972331D01*
X135952454Y-57087546D01*
X136067669Y-57173796D01*
X136202517Y-57224091D01*
X136262127Y-57230500D01*
X138057872Y-57230499D01*
X138117483Y-57224091D01*
X138252331Y-57173796D01*
X138367546Y-57087546D01*
X138453796Y-56972331D01*
X138502810Y-56840916D01*
X138537789Y-56790537D01*
X138592634Y-56763084D01*
X138653927Y-56765273D01*
X138706673Y-56796569D01*
X138828599Y-56918495D01*
X139022170Y-57054035D01*
X139236337Y-57153903D01*
X139464592Y-57215063D01*
X139700000Y-57235659D01*
X139935408Y-57215063D01*
X140163663Y-57153903D01*
X140377830Y-57054035D01*
X140571401Y-56918495D01*
X140738495Y-56751401D01*
X140868426Y-56565839D01*
X140912743Y-56526975D01*
X140970000Y-56512964D01*
X141027257Y-56526975D01*
X141071573Y-56565839D01*
X141201505Y-56751401D01*
X141368599Y-56918495D01*
X141562170Y-57054035D01*
X141776337Y-57153903D01*
X142004592Y-57215063D01*
X142240000Y-57235659D01*
X142475408Y-57215063D01*
X142703663Y-57153903D01*
X142917830Y-57054035D01*
X143111401Y-56918495D01*
X143278495Y-56751401D01*
X143408426Y-56565839D01*
X143452743Y-56526975D01*
X143510000Y-56512964D01*
X143567257Y-56526975D01*
X143611573Y-56565839D01*
X143741505Y-56751401D01*
X143908599Y-56918495D01*
X144102170Y-57054035D01*
X144316337Y-57153903D01*
X144544592Y-57215063D01*
X144780000Y-57235659D01*
X145015408Y-57215063D01*
X145243663Y-57153903D01*
X145457830Y-57054035D01*
X145651401Y-56918495D01*
X145818495Y-56751401D01*
X145948426Y-56565839D01*
X145992743Y-56526975D01*
X146050000Y-56512964D01*
X146107257Y-56526975D01*
X146151573Y-56565839D01*
X146281505Y-56751401D01*
X146448599Y-56918495D01*
X146642170Y-57054035D01*
X146856337Y-57153903D01*
X147084592Y-57215063D01*
X147320000Y-57235659D01*
X147555408Y-57215063D01*
X147783663Y-57153903D01*
X147997830Y-57054035D01*
X148191401Y-56918495D01*
X148358495Y-56751401D01*
X148494035Y-56557830D01*
X148593903Y-56343663D01*
X148655063Y-56115408D01*
X148675659Y-55880000D01*
X148655063Y-55644592D01*
X148593903Y-55416337D01*
X148494035Y-55202171D01*
X148358495Y-55008599D01*
X148191401Y-54841505D01*
X147997830Y-54705965D01*
X147783663Y-54606097D01*
X147722502Y-54589709D01*
X147555407Y-54544936D01*
X147320000Y-54524340D01*
X147084592Y-54544936D01*
X146856336Y-54606097D01*
X146642170Y-54705965D01*
X146448598Y-54841505D01*
X146281505Y-55008598D01*
X146151575Y-55194159D01*
X146107257Y-55233025D01*
X146050000Y-55247036D01*
X145992743Y-55233025D01*
X145948425Y-55194159D01*
X145841085Y-55040861D01*
X145818495Y-55008599D01*
X145651401Y-54841505D01*
X145457830Y-54705965D01*
X145243663Y-54606097D01*
X145182502Y-54589709D01*
X145015407Y-54544936D01*
X144780000Y-54524340D01*
X144544592Y-54544936D01*
X144316336Y-54606097D01*
X144102170Y-54705965D01*
X143908598Y-54841505D01*
X143741505Y-55008598D01*
X143611575Y-55194159D01*
X143567257Y-55233025D01*
X143510000Y-55247036D01*
X143452743Y-55233025D01*
X143408425Y-55194159D01*
X143301085Y-55040861D01*
X143278495Y-55008599D01*
X143111401Y-54841505D01*
X142917830Y-54705965D01*
X142703663Y-54606097D01*
X142642502Y-54589709D01*
X142475407Y-54544936D01*
X142240000Y-54524340D01*
X142004592Y-54544936D01*
X141776336Y-54606097D01*
X141562170Y-54705965D01*
X141368598Y-54841505D01*
X141201505Y-55008598D01*
X141071575Y-55194159D01*
X141027257Y-55233025D01*
X140970000Y-55247036D01*
X140912743Y-55233025D01*
X140868425Y-55194159D01*
X140761085Y-55040861D01*
X140738495Y-55008599D01*
X140571401Y-54841505D01*
X140377830Y-54705965D01*
X140163663Y-54606097D01*
X140102502Y-54589709D01*
X139935407Y-54544936D01*
X139700000Y-54524340D01*
X139464592Y-54544936D01*
X139236336Y-54606097D01*
X139022170Y-54705965D01*
X138828601Y-54841503D01*
X138706673Y-54963431D01*
X138653926Y-54994726D01*
X138592634Y-54996915D01*
X138537789Y-54969462D01*
X138502810Y-54919082D01*
X138495658Y-54899907D01*
X138453796Y-54787669D01*
X138367546Y-54672454D01*
X138252331Y-54586204D01*
X138117483Y-54535909D01*
X138057873Y-54529500D01*
X138057869Y-54529500D01*
X136262130Y-54529500D01*
X136202515Y-54535909D01*
X136067669Y-54586204D01*
X135952454Y-54672454D01*
X135866204Y-54787668D01*
X135815909Y-54922516D01*
X135809500Y-54982130D01*
X135809500Y-56777869D01*
X134117575Y-56777869D01*
X134139063Y-56728881D01*
X134200108Y-56487821D01*
X134220643Y-56240000D01*
X134200108Y-55992179D01*
X134139063Y-55751119D01*
X134039173Y-55523393D01*
X133903164Y-55315215D01*
X133734744Y-55132262D01*
X133631253Y-55051711D01*
X133594382Y-55004841D01*
X133583655Y-54946176D01*
X133585056Y-54923609D01*
X132715000Y-54053553D01*
X131844942Y-54923610D01*
X131846343Y-54946178D01*
X131835616Y-55004842D01*
X131798744Y-55051714D01*
X131695256Y-55132261D01*
X131589599Y-55247036D01*
X131526836Y-55315215D01*
X131521462Y-55323441D01*
X131390825Y-55523395D01*
X131290938Y-55751117D01*
X131229891Y-55992183D01*
X131209356Y-56240000D01*
X131229891Y-56487816D01*
X131229891Y-56487819D01*
X131229892Y-56487821D01*
X131290937Y-56728881D01*
X131312427Y-56777873D01*
X131390825Y-56956604D01*
X131390827Y-56956607D01*
X131526836Y-57164785D01*
X131606732Y-57251575D01*
X131695256Y-57347738D01*
X131778008Y-57412147D01*
X131813246Y-57455540D01*
X131825845Y-57510000D01*
X131813246Y-57564460D01*
X131778008Y-57607853D01*
X131695256Y-57672261D01*
X131526837Y-57855214D01*
X131390825Y-58063395D01*
X131337664Y-58184592D01*
X131290937Y-58291119D01*
X131247454Y-58462830D01*
X131229891Y-58532183D01*
X131209356Y-58780000D01*
X131229891Y-59027816D01*
X131229891Y-59027819D01*
X131229892Y-59027821D01*
X131290937Y-59268881D01*
X131300817Y-59291404D01*
X131390825Y-59496604D01*
X131390827Y-59496607D01*
X131526836Y-59704785D01*
X131641582Y-59829432D01*
X131695256Y-59887738D01*
X131778008Y-59952147D01*
X131813246Y-59995540D01*
X131825845Y-60050000D01*
X131813246Y-60104460D01*
X131778008Y-60147853D01*
X131695256Y-60212261D01*
X131526837Y-60395214D01*
X131390825Y-60603395D01*
X131335952Y-60728495D01*
X131290937Y-60831119D01*
X131239537Y-61034091D01*
X131229891Y-61072183D01*
X131209356Y-61319999D01*
X131229891Y-61567816D01*
X131229891Y-61567819D01*
X131229892Y-61567821D01*
X131290937Y-61808881D01*
X131312427Y-61857873D01*
X131390825Y-62036604D01*
X131390827Y-62036607D01*
X131526836Y-62244785D01*
X131601967Y-62326399D01*
X131695256Y-62427738D01*
X131778008Y-62492147D01*
X131813246Y-62535540D01*
X131825845Y-62590000D01*
X131813246Y-62644460D01*
X131778008Y-62687853D01*
X131695256Y-62752261D01*
X131526837Y-62935214D01*
X131390825Y-63143395D01*
X131318837Y-63307514D01*
X131290937Y-63371119D01*
X131274999Y-63434058D01*
X131229891Y-63612183D01*
X131209356Y-63860000D01*
X131229891Y-64107816D01*
X131229891Y-64107819D01*
X131229892Y-64107821D01*
X131290937Y-64348881D01*
X131320231Y-64415665D01*
X131390825Y-64576604D01*
X131390827Y-64576607D01*
X131526836Y-64784785D01*
X131695256Y-64967738D01*
X131778008Y-65032147D01*
X131813245Y-65075538D01*
X131825845Y-65129998D01*
X131813246Y-65184458D01*
X131778009Y-65227851D01*
X131695257Y-65292260D01*
X131526837Y-65475214D01*
X131390825Y-65683395D01*
X131290938Y-65911117D01*
X131229891Y-66152183D01*
X131209356Y-66400000D01*
X131229891Y-66647816D01*
X131229891Y-66647819D01*
X131229892Y-66647821D01*
X131290937Y-66888881D01*
X131335960Y-66991523D01*
X131390825Y-67116604D01*
X131390827Y-67116607D01*
X131526836Y-67324785D01*
X131695256Y-67507738D01*
X131778008Y-67572147D01*
X131813246Y-67615540D01*
X131825845Y-67670000D01*
X131813246Y-67724460D01*
X131778008Y-67767853D01*
X131695256Y-67832261D01*
X131526837Y-68015214D01*
X131390825Y-68223395D01*
X131311560Y-68404104D01*
X131290937Y-68451119D01*
X131229892Y-68692179D01*
X131229891Y-68692183D01*
X131209356Y-68939999D01*
X131229891Y-69187816D01*
X131229891Y-69187819D01*
X131229892Y-69187821D01*
X131290937Y-69428881D01*
X131335960Y-69531523D01*
X131390825Y-69656604D01*
X131390827Y-69656607D01*
X131526836Y-69864785D01*
X131695255Y-70047737D01*
X131695256Y-70047738D01*
X131778008Y-70112147D01*
X131813246Y-70155540D01*
X131825845Y-70210000D01*
X131813246Y-70264460D01*
X131778008Y-70307853D01*
X131695256Y-70372261D01*
X131526837Y-70555214D01*
X131390825Y-70763395D01*
X131290938Y-70991117D01*
X131229891Y-71232183D01*
X131209356Y-71479999D01*
X131229891Y-71727816D01*
X131229891Y-71727819D01*
X131229892Y-71727821D01*
X131290937Y-71968881D01*
X131335960Y-72071523D01*
X131390825Y-72196604D01*
X131390827Y-72196607D01*
X131526836Y-72404785D01*
X131695255Y-72587737D01*
X131695256Y-72587738D01*
X131778008Y-72652147D01*
X131813246Y-72695540D01*
X131825845Y-72750000D01*
X131813246Y-72804460D01*
X131778008Y-72847853D01*
X131695256Y-72912261D01*
X131526837Y-73095214D01*
X131390825Y-73303395D01*
X131290938Y-73531117D01*
X131229891Y-73772183D01*
X131209356Y-74020000D01*
X131229891Y-74267816D01*
X131229891Y-74267819D01*
X131229892Y-74267821D01*
X131290937Y-74508881D01*
X131335960Y-74611523D01*
X131390825Y-74736604D01*
X131390827Y-74736607D01*
X131526836Y-74944785D01*
X131695256Y-75127738D01*
X131778008Y-75192147D01*
X131813246Y-75235540D01*
X131825845Y-75290000D01*
X131813246Y-75344460D01*
X131778008Y-75387853D01*
X131695256Y-75452261D01*
X131526837Y-75635214D01*
X131390825Y-75843395D01*
X131290938Y-76071117D01*
X131229891Y-76312183D01*
X131209356Y-76559999D01*
X131229891Y-76807816D01*
X131229891Y-76807819D01*
X131229892Y-76807821D01*
X131290937Y-77048881D01*
X131335960Y-77151523D01*
X131390825Y-77276604D01*
X131390827Y-77276607D01*
X131526836Y-77484785D01*
X131695255Y-77667737D01*
X131695256Y-77667738D01*
X131778008Y-77732147D01*
X131813246Y-77775540D01*
X131825845Y-77830000D01*
X131813246Y-77884460D01*
X131778008Y-77927853D01*
X131695256Y-77992261D01*
X131526837Y-78175214D01*
X131390825Y-78383395D01*
X131290938Y-78611117D01*
X131229891Y-78852183D01*
X131209356Y-79099999D01*
X131229891Y-79347816D01*
X131229891Y-79347819D01*
X131229892Y-79347821D01*
X131290937Y-79588881D01*
X131335960Y-79691523D01*
X131390825Y-79816604D01*
X131390827Y-79816607D01*
X131526836Y-80024785D01*
X131676780Y-80187668D01*
X131695256Y-80207738D01*
X131778008Y-80272147D01*
X131813246Y-80315540D01*
X131825845Y-80370000D01*
X131813246Y-80424460D01*
X131778008Y-80467853D01*
X131695256Y-80532261D01*
X131526837Y-80715214D01*
X131390825Y-80923395D01*
X131290938Y-81151117D01*
X131229891Y-81392183D01*
X131209356Y-81640000D01*
X131229891Y-81887816D01*
X131229891Y-81887819D01*
X131229892Y-81887821D01*
X131290937Y-82128881D01*
X131312427Y-82177873D01*
X131390825Y-82356604D01*
X131390827Y-82356607D01*
X131526836Y-82564785D01*
X131663117Y-82712826D01*
X131695256Y-82747738D01*
X131778008Y-82812147D01*
X131813246Y-82855540D01*
X131825845Y-82910000D01*
X131813246Y-82964460D01*
X131778008Y-83007853D01*
X131695256Y-83072261D01*
X131526837Y-83255214D01*
X131390825Y-83463395D01*
X131290938Y-83691117D01*
X131229891Y-83932183D01*
X131209356Y-84179999D01*
X131229891Y-84427816D01*
X131229891Y-84427819D01*
X131229892Y-84427821D01*
X131290937Y-84668881D01*
X131300675Y-84691081D01*
X131390825Y-84896604D01*
X131390827Y-84896607D01*
X131526836Y-85104785D01*
X131695255Y-85287737D01*
X131695256Y-85287738D01*
X131778008Y-85352147D01*
X131813246Y-85395540D01*
X131825845Y-85450000D01*
X131813246Y-85504460D01*
X131778008Y-85547853D01*
X131695256Y-85612261D01*
X131526837Y-85795214D01*
X131390825Y-86003395D01*
X131290938Y-86231117D01*
X131229891Y-86472183D01*
X131209356Y-86720000D01*
X131229891Y-86967816D01*
X131229891Y-86967819D01*
X131229892Y-86967821D01*
X131290937Y-87208881D01*
X131300817Y-87231404D01*
X131390825Y-87436604D01*
X131390827Y-87436607D01*
X131526836Y-87644785D01*
X131695256Y-87827738D01*
X131778008Y-87892147D01*
X131813245Y-87935538D01*
X131825845Y-87989998D01*
X131813246Y-88044458D01*
X131778009Y-88087851D01*
X131695257Y-88152260D01*
X131526837Y-88335214D01*
X131390825Y-88543395D01*
X131290938Y-88771117D01*
X131229891Y-89012183D01*
X131209356Y-89260000D01*
X131229891Y-89507816D01*
X131229891Y-89507819D01*
X131229892Y-89507821D01*
X131290937Y-89748881D01*
X131335960Y-89851523D01*
X131390825Y-89976604D01*
X131390827Y-89976607D01*
X131526836Y-90184785D01*
X131695256Y-90367738D01*
X131760667Y-90418649D01*
X131891485Y-90520470D01*
X131891487Y-90520471D01*
X131891491Y-90520474D01*
X132110190Y-90638828D01*
X132188078Y-90665567D01*
X132283189Y-90698219D01*
X132339507Y-90737730D01*
X132366096Y-90801180D01*
X132354773Y-90869038D01*
X132309022Y-90920416D01*
X132242926Y-90939500D01*
X132179501Y-90939500D01*
X131983372Y-90954197D01*
X131727581Y-91012580D01*
X131483358Y-91108431D01*
X131256143Y-91239613D01*
X131051015Y-91403198D01*
X130872571Y-91595514D01*
X130772070Y-91742922D01*
X130724772Y-91812296D01*
X130610937Y-92048677D01*
X130533604Y-92299385D01*
X130494500Y-92558818D01*
X130494500Y-92821182D01*
X128795000Y-92821182D01*
X128795000Y-88200000D01*
X111105000Y-88200000D01*
X108378690Y-88200000D01*
X108334744Y-88152262D01*
X108318437Y-88139570D01*
X108251992Y-88087853D01*
X108216754Y-88044460D01*
X108204154Y-87990000D01*
X108216754Y-87935540D01*
X108251992Y-87892147D01*
X108276256Y-87873260D01*
X108334744Y-87827738D01*
X108503164Y-87644785D01*
X108639173Y-87436607D01*
X108739063Y-87208881D01*
X108800108Y-86967821D01*
X108820643Y-86720000D01*
X108800108Y-86472179D01*
X108739063Y-86231119D01*
X108639173Y-86003393D01*
X108503164Y-85795215D01*
X108334744Y-85612262D01*
X108318437Y-85599570D01*
X108251992Y-85547853D01*
X108216754Y-85504460D01*
X108204154Y-85450000D01*
X108216754Y-85395540D01*
X108251992Y-85352147D01*
X108291360Y-85321505D01*
X108334744Y-85287738D01*
X108503164Y-85104785D01*
X108639173Y-84896607D01*
X108739063Y-84668881D01*
X108800108Y-84427821D01*
X108820643Y-84180000D01*
X108800108Y-83932179D01*
X108739063Y-83691119D01*
X108639173Y-83463393D01*
X108503164Y-83255215D01*
X108334744Y-83072262D01*
X108300446Y-83045567D01*
X108251992Y-83007853D01*
X108216754Y-82964460D01*
X108204154Y-82910000D01*
X108216754Y-82855540D01*
X108251992Y-82812147D01*
X108276256Y-82793260D01*
X108334744Y-82747738D01*
X108503164Y-82564785D01*
X108639173Y-82356607D01*
X108739063Y-82128881D01*
X108800108Y-81887821D01*
X108820643Y-81640000D01*
X108800108Y-81392179D01*
X108739063Y-81151119D01*
X108639173Y-80923393D01*
X108503164Y-80715215D01*
X108334744Y-80532262D01*
X108318437Y-80519570D01*
X108251992Y-80467853D01*
X108216754Y-80424460D01*
X108204154Y-80370000D01*
X108216754Y-80315540D01*
X108251992Y-80272147D01*
X108276256Y-80253260D01*
X108334744Y-80207738D01*
X108503164Y-80024785D01*
X108639173Y-79816607D01*
X108739063Y-79588881D01*
X108800108Y-79347821D01*
X108820643Y-79100000D01*
X108819832Y-79090218D01*
X108800108Y-78852183D01*
X108800108Y-78852179D01*
X108739063Y-78611119D01*
X108639173Y-78383393D01*
X108503164Y-78175215D01*
X108334744Y-77992262D01*
X108318437Y-77979570D01*
X108251992Y-77927853D01*
X108216754Y-77884460D01*
X108204154Y-77830000D01*
X108216754Y-77775540D01*
X108251992Y-77732147D01*
X108276256Y-77713260D01*
X108334744Y-77667738D01*
X108503164Y-77484785D01*
X108639173Y-77276607D01*
X108739063Y-77048881D01*
X108800108Y-76807821D01*
X108820643Y-76560000D01*
X108800108Y-76312179D01*
X108739063Y-76071119D01*
X108639173Y-75843393D01*
X108503164Y-75635215D01*
X108334744Y-75452262D01*
X108318437Y-75439570D01*
X108251992Y-75387853D01*
X108216754Y-75344460D01*
X108204154Y-75290000D01*
X108216754Y-75235540D01*
X108251992Y-75192147D01*
X108276256Y-75173260D01*
X108334744Y-75127738D01*
X108503164Y-74944785D01*
X108639173Y-74736607D01*
X108739063Y-74508881D01*
X108800108Y-74267821D01*
X108820643Y-74020000D01*
X108800108Y-73772179D01*
X108739063Y-73531119D01*
X108639173Y-73303393D01*
X108503164Y-73095215D01*
X108334744Y-72912262D01*
X108318437Y-72899570D01*
X108251992Y-72847853D01*
X108216754Y-72804460D01*
X108204154Y-72750000D01*
X108216754Y-72695540D01*
X108251992Y-72652147D01*
X108276256Y-72633260D01*
X108334744Y-72587738D01*
X108503164Y-72404785D01*
X108639173Y-72196607D01*
X108739063Y-71968881D01*
X108800108Y-71727821D01*
X108820643Y-71480000D01*
X108800108Y-71232179D01*
X108739063Y-70991119D01*
X108639173Y-70763393D01*
X108503164Y-70555215D01*
X108334744Y-70372262D01*
X108318437Y-70359570D01*
X108251992Y-70307853D01*
X108216754Y-70264460D01*
X108204154Y-70210000D01*
X108216754Y-70155540D01*
X108251992Y-70112147D01*
X108276256Y-70093260D01*
X108334744Y-70047738D01*
X108503164Y-69864785D01*
X108639173Y-69656607D01*
X108739063Y-69428881D01*
X108800108Y-69187821D01*
X108820643Y-68940000D01*
X108800108Y-68692179D01*
X108739063Y-68451119D01*
X108639173Y-68223393D01*
X108503164Y-68015215D01*
X108334744Y-67832262D01*
X108318437Y-67819570D01*
X108251992Y-67767853D01*
X108216754Y-67724460D01*
X108204154Y-67670000D01*
X108216754Y-67615540D01*
X108251992Y-67572147D01*
X108276256Y-67553260D01*
X108334744Y-67507738D01*
X108503164Y-67324785D01*
X108639173Y-67116607D01*
X108739063Y-66888881D01*
X108800108Y-66647821D01*
X108820643Y-66400000D01*
X108800108Y-66152179D01*
X108739063Y-65911119D01*
X108639173Y-65683393D01*
X108503164Y-65475215D01*
X108334744Y-65292262D01*
X108318437Y-65279570D01*
X108251992Y-65227853D01*
X108216754Y-65184460D01*
X108204154Y-65130000D01*
X108216754Y-65075540D01*
X108251992Y-65032147D01*
X108276256Y-65013260D01*
X108334744Y-64967738D01*
X108503164Y-64784785D01*
X108639173Y-64576607D01*
X108739063Y-64348881D01*
X108800108Y-64107821D01*
X108820643Y-63860000D01*
X108800108Y-63612179D01*
X108739063Y-63371119D01*
X108649016Y-63165833D01*
X108639174Y-63143395D01*
X108639173Y-63143393D01*
X108503164Y-62935215D01*
X108334744Y-62752262D01*
X108318437Y-62739570D01*
X108251992Y-62687853D01*
X108216754Y-62644460D01*
X108204154Y-62590000D01*
X108216754Y-62535540D01*
X108251992Y-62492147D01*
X108276256Y-62473260D01*
X108334744Y-62427738D01*
X108503164Y-62244785D01*
X108639173Y-62036607D01*
X108739063Y-61808881D01*
X108800108Y-61567821D01*
X108820643Y-61320000D01*
X108800108Y-61072179D01*
X108739063Y-60831119D01*
X108639173Y-60603393D01*
X108503164Y-60395215D01*
X108334744Y-60212262D01*
X108270209Y-60162032D01*
X108251992Y-60147853D01*
X108216754Y-60104460D01*
X108204154Y-60050000D01*
X108216754Y-59995540D01*
X108251992Y-59952147D01*
X108276256Y-59933260D01*
X108334744Y-59887738D01*
X108503164Y-59704785D01*
X108639173Y-59496607D01*
X108739063Y-59268881D01*
X108800108Y-59027821D01*
X108820643Y-58780000D01*
X108800108Y-58532179D01*
X108739063Y-58291119D01*
X108639173Y-58063393D01*
X108503164Y-57855215D01*
X108334744Y-57672262D01*
X108318437Y-57659570D01*
X108251992Y-57607853D01*
X108216754Y-57564460D01*
X108204154Y-57510000D01*
X108216754Y-57455540D01*
X108251992Y-57412147D01*
X108291360Y-57381505D01*
X108334744Y-57347738D01*
X108503164Y-57164785D01*
X108639173Y-56956607D01*
X108739063Y-56728881D01*
X108800108Y-56487821D01*
X108820643Y-56240000D01*
X108800108Y-55992179D01*
X108739063Y-55751119D01*
X108639173Y-55523393D01*
X108508537Y-55323439D01*
X108489402Y-55271760D01*
X108494550Y-55216891D01*
X108522966Y-55169672D01*
X108544063Y-55155822D01*
X108543058Y-55154480D01*
X108557328Y-55143796D01*
X108557331Y-55143796D01*
X108672546Y-55057546D01*
X108758796Y-54942331D01*
X108809091Y-54807483D01*
X108815500Y-54747873D01*
X108815499Y-53700000D01*
X131209858Y-53700000D01*
X131230386Y-53947732D01*
X131291413Y-54188721D01*
X131391268Y-54416370D01*
X131491563Y-54569882D01*
X131491564Y-54569882D01*
X132361447Y-53700001D01*
X133068553Y-53700001D01*
X133938434Y-54569882D01*
X134038730Y-54416369D01*
X134138586Y-54188721D01*
X134199613Y-53947732D01*
X134220141Y-53700000D01*
X134199613Y-53452267D01*
X134138586Y-53211278D01*
X134038730Y-52983630D01*
X133938434Y-52830116D01*
X133068553Y-53700000D01*
X133068553Y-53700001D01*
X132361447Y-53700001D01*
X132361447Y-53699999D01*
X131491564Y-52830116D01*
X131391266Y-52983634D01*
X131291413Y-53211278D01*
X131230386Y-53452267D01*
X131209858Y-53700000D01*
X108815499Y-53700000D01*
X108815499Y-52652128D01*
X108809091Y-52592517D01*
X108765778Y-52476390D01*
X131844942Y-52476390D01*
X132715000Y-53346447D01*
X132715001Y-53346447D01*
X133585057Y-52476390D01*
X133585056Y-52476388D01*
X133538235Y-52439947D01*
X133319606Y-52321631D01*
X133084493Y-52240916D01*
X132839293Y-52200000D01*
X132590707Y-52200000D01*
X132345506Y-52240916D01*
X132110393Y-52321631D01*
X131891764Y-52439946D01*
X131844942Y-52476388D01*
X131844942Y-52476390D01*
X108765778Y-52476390D01*
X108758796Y-52457669D01*
X108672546Y-52342454D01*
X108557331Y-52256204D01*
X108422483Y-52205909D01*
X108362873Y-52199500D01*
X108362869Y-52199500D01*
X106267130Y-52199500D01*
X106207515Y-52205909D01*
X106072669Y-52256204D01*
X105957454Y-52342454D01*
X105871204Y-52457668D01*
X105820909Y-52592516D01*
X105814500Y-52652130D01*
X105814500Y-54747869D01*
X105820909Y-54807484D01*
X105833598Y-54841505D01*
X105871204Y-54942331D01*
X105957454Y-55057546D01*
X106072669Y-55143796D01*
X106072671Y-55143796D01*
X106086942Y-55154480D01*
X106085936Y-55155822D01*
X106107038Y-55169676D01*
X106135450Y-55216894D01*
X106140597Y-55271761D01*
X106121461Y-55323440D01*
X105990826Y-55523392D01*
X105890938Y-55751117D01*
X105829891Y-55992183D01*
X105809356Y-56240000D01*
X105829891Y-56487816D01*
X105829891Y-56487819D01*
X105829892Y-56487821D01*
X105890937Y-56728881D01*
X105912427Y-56777873D01*
X105990825Y-56956604D01*
X105990827Y-56956607D01*
X106126836Y-57164785D01*
X106206732Y-57251575D01*
X106295256Y-57347738D01*
X106378008Y-57412147D01*
X106413246Y-57455540D01*
X106425845Y-57510000D01*
X106413246Y-57564460D01*
X106378008Y-57607853D01*
X106295256Y-57672261D01*
X106126837Y-57855214D01*
X105990825Y-58063395D01*
X105937664Y-58184592D01*
X105890937Y-58291119D01*
X105847454Y-58462830D01*
X105829891Y-58532183D01*
X105809356Y-58780000D01*
X105829891Y-59027816D01*
X105829891Y-59027819D01*
X105829892Y-59027821D01*
X105890937Y-59268881D01*
X105900817Y-59291404D01*
X105990825Y-59496604D01*
X105990827Y-59496607D01*
X106126836Y-59704785D01*
X106241582Y-59829432D01*
X106295256Y-59887738D01*
X106378008Y-59952147D01*
X106413246Y-59995540D01*
X106425845Y-60050000D01*
X106413246Y-60104460D01*
X106378008Y-60147853D01*
X106295256Y-60212261D01*
X106126837Y-60395214D01*
X105990825Y-60603395D01*
X105935952Y-60728495D01*
X105890937Y-60831119D01*
X105839537Y-61034091D01*
X105829891Y-61072183D01*
X105809356Y-61319999D01*
X105829891Y-61567816D01*
X105829891Y-61567819D01*
X105829892Y-61567821D01*
X105890937Y-61808881D01*
X105912427Y-61857873D01*
X105990825Y-62036604D01*
X105990827Y-62036607D01*
X106126836Y-62244785D01*
X106201967Y-62326399D01*
X106295256Y-62427738D01*
X106378008Y-62492147D01*
X106413246Y-62535540D01*
X106425845Y-62590000D01*
X106413246Y-62644460D01*
X106378008Y-62687853D01*
X106295256Y-62752261D01*
X106126837Y-62935214D01*
X105990825Y-63143395D01*
X105983406Y-63160310D01*
X105956315Y-63199381D01*
X105916512Y-63225385D01*
X105869850Y-63234500D01*
X100052744Y-63234500D01*
X100032237Y-63232235D01*
X99962127Y-63234439D01*
X99958232Y-63234500D01*
X99930650Y-63234500D01*
X99926665Y-63235003D01*
X99915033Y-63235918D01*
X99871369Y-63237290D01*
X99852129Y-63242880D01*
X99833081Y-63246825D01*
X99813209Y-63249335D01*
X99772599Y-63265413D01*
X99761554Y-63269194D01*
X99719610Y-63281381D01*
X99702365Y-63291579D01*
X99684904Y-63300133D01*
X99666267Y-63307512D01*
X99630931Y-63333185D01*
X99621174Y-63339595D01*
X99583580Y-63361829D01*
X99569413Y-63375996D01*
X99554624Y-63388626D01*
X99538413Y-63400404D01*
X99510572Y-63434058D01*
X99502711Y-63442697D01*
X94866208Y-68079199D01*
X94850110Y-68092096D01*
X94802096Y-68143225D01*
X94799391Y-68146017D01*
X94779874Y-68165534D01*
X94777415Y-68168705D01*
X94769842Y-68177572D01*
X94739935Y-68209420D01*
X94730285Y-68226974D01*
X94719609Y-68243228D01*
X94707326Y-68259063D01*
X94689975Y-68299158D01*
X94684838Y-68309644D01*
X94663802Y-68347907D01*
X94658821Y-68367309D01*
X94652520Y-68385711D01*
X94644561Y-68404102D01*
X94637728Y-68447242D01*
X94635360Y-68458674D01*
X94624500Y-68500978D01*
X94624500Y-68521016D01*
X94622973Y-68540415D01*
X94619840Y-68560194D01*
X94623950Y-68603675D01*
X94624500Y-68615344D01*
X94624500Y-101655812D01*
X94610489Y-101713069D01*
X94571623Y-101757387D01*
X94410859Y-101869953D01*
X94249953Y-102030859D01*
X94119432Y-102217264D01*
X94023261Y-102423502D01*
X93964364Y-102643310D01*
X93944531Y-102870000D01*
X92135468Y-102870000D01*
X92115635Y-102643308D01*
X92056739Y-102423504D01*
X91960568Y-102217266D01*
X91830047Y-102030861D01*
X91830046Y-102030859D01*
X91669140Y-101869953D01*
X91482735Y-101739432D01*
X91276497Y-101643261D01*
X91056689Y-101584364D01*
X90830000Y-101564531D01*
X90603310Y-101584364D01*
X90383502Y-101643261D01*
X90177264Y-101739432D01*
X89990859Y-101869953D01*
X89829953Y-102030859D01*
X89699432Y-102217264D01*
X89603261Y-102423502D01*
X89544364Y-102643310D01*
X89524531Y-102870000D01*
X82910500Y-102870000D01*
X82910500Y-80644999D01*
X88039356Y-80644999D01*
X88059891Y-80892816D01*
X88059891Y-80892819D01*
X88059892Y-80892821D01*
X88120937Y-81133881D01*
X88165960Y-81236523D01*
X88220825Y-81361604D01*
X88220827Y-81361607D01*
X88356836Y-81569785D01*
X88525256Y-81752738D01*
X88525259Y-81752740D01*
X88721485Y-81905470D01*
X88721487Y-81905471D01*
X88721491Y-81905474D01*
X88940190Y-82023828D01*
X89175386Y-82104571D01*
X89420665Y-82145500D01*
X89669335Y-82145500D01*
X89914614Y-82104571D01*
X90149810Y-82023828D01*
X90368509Y-81905474D01*
X90564744Y-81752738D01*
X90733164Y-81569785D01*
X90869173Y-81361607D01*
X90969063Y-81133881D01*
X91030108Y-80892821D01*
X91050643Y-80645000D01*
X91049347Y-80629365D01*
X91035964Y-80467853D01*
X91030108Y-80397179D01*
X90969063Y-80156119D01*
X90869173Y-79928393D01*
X90733164Y-79720215D01*
X90564744Y-79537262D01*
X90542612Y-79520036D01*
X90368514Y-79384529D01*
X90368510Y-79384526D01*
X90368509Y-79384526D01*
X90149810Y-79266172D01*
X90149806Y-79266170D01*
X90149805Y-79266170D01*
X89914615Y-79185429D01*
X89669335Y-79144500D01*
X89420665Y-79144500D01*
X89175384Y-79185429D01*
X88940194Y-79266170D01*
X88721485Y-79384529D01*
X88525259Y-79537259D01*
X88525256Y-79537261D01*
X88525256Y-79537262D01*
X88470144Y-79597130D01*
X88356837Y-79720214D01*
X88220825Y-79928395D01*
X88157636Y-80072454D01*
X88120937Y-80156119D01*
X88107865Y-80207740D01*
X88059891Y-80397183D01*
X88039356Y-80644999D01*
X82910500Y-80644999D01*
X82910500Y-58419999D01*
X88179340Y-58419999D01*
X88199936Y-58655407D01*
X88236571Y-58792130D01*
X88261097Y-58883663D01*
X88360965Y-59097830D01*
X88496505Y-59291401D01*
X88496508Y-59291404D01*
X88618430Y-59413326D01*
X88649726Y-59466072D01*
X88651915Y-59527365D01*
X88624462Y-59582209D01*
X88574083Y-59617189D01*
X88442669Y-59666204D01*
X88327454Y-59752454D01*
X88241204Y-59867668D01*
X88190909Y-60002516D01*
X88184500Y-60062130D01*
X88184500Y-61857869D01*
X88190909Y-61917483D01*
X88241204Y-62052331D01*
X88327454Y-62167546D01*
X88442669Y-62253796D01*
X88577517Y-62304091D01*
X88637127Y-62310500D01*
X90432872Y-62310499D01*
X90492483Y-62304091D01*
X90627331Y-62253796D01*
X90742546Y-62167546D01*
X90828796Y-62052331D01*
X90879091Y-61917483D01*
X90885500Y-61857873D01*
X90885499Y-60959999D01*
X93309531Y-60959999D01*
X93329364Y-61186689D01*
X93388261Y-61406497D01*
X93484432Y-61612735D01*
X93614953Y-61799140D01*
X93775859Y-61960046D01*
X93962264Y-62090567D01*
X93962265Y-62090567D01*
X93962266Y-62090568D01*
X94168504Y-62186739D01*
X94388308Y-62245635D01*
X94615000Y-62265468D01*
X94841692Y-62245635D01*
X95061496Y-62186739D01*
X95267734Y-62090568D01*
X95454139Y-61960047D01*
X95615047Y-61799139D01*
X95745568Y-61612734D01*
X95841739Y-61406496D01*
X95900635Y-61186692D01*
X95920468Y-60960000D01*
X95920468Y-60959999D01*
X100929531Y-60959999D01*
X100949364Y-61186689D01*
X101008261Y-61406497D01*
X101104432Y-61612735D01*
X101234953Y-61799140D01*
X101395859Y-61960046D01*
X101582264Y-62090567D01*
X101582265Y-62090567D01*
X101582266Y-62090568D01*
X101788504Y-62186739D01*
X102008308Y-62245635D01*
X102235000Y-62265468D01*
X102461692Y-62245635D01*
X102681496Y-62186739D01*
X102887734Y-62090568D01*
X103074139Y-61960047D01*
X103235047Y-61799139D01*
X103365568Y-61612734D01*
X103461739Y-61406496D01*
X103520635Y-61186692D01*
X103540468Y-60960000D01*
X103520635Y-60733308D01*
X103461739Y-60513504D01*
X103365568Y-60307266D01*
X103299045Y-60212261D01*
X103235046Y-60120859D01*
X103074140Y-59959953D01*
X102887735Y-59829432D01*
X102681497Y-59733261D01*
X102461689Y-59674364D01*
X102235000Y-59654531D01*
X102008310Y-59674364D01*
X101788502Y-59733261D01*
X101582264Y-59829432D01*
X101395859Y-59959953D01*
X101234953Y-60120859D01*
X101104432Y-60307264D01*
X101008261Y-60513502D01*
X100949364Y-60733310D01*
X100929531Y-60959999D01*
X95920468Y-60959999D01*
X95900635Y-60733308D01*
X95841739Y-60513504D01*
X95745568Y-60307266D01*
X95679045Y-60212261D01*
X95615046Y-60120859D01*
X95454140Y-59959953D01*
X95267735Y-59829432D01*
X95061497Y-59733261D01*
X94841689Y-59674364D01*
X94615000Y-59654531D01*
X94388310Y-59674364D01*
X94168502Y-59733261D01*
X93962264Y-59829432D01*
X93775859Y-59959953D01*
X93614953Y-60120859D01*
X93484432Y-60307264D01*
X93388261Y-60513502D01*
X93329364Y-60733310D01*
X93309531Y-60959999D01*
X90885499Y-60959999D01*
X90885499Y-60062128D01*
X90879091Y-60002517D01*
X90828796Y-59867669D01*
X90742546Y-59752454D01*
X90627331Y-59666204D01*
X90565898Y-59643291D01*
X90495916Y-59617189D01*
X90445537Y-59582209D01*
X90418084Y-59527365D01*
X90420273Y-59466072D01*
X90451566Y-59413329D01*
X90573495Y-59291401D01*
X90709035Y-59097830D01*
X90808903Y-58883663D01*
X90870063Y-58655408D01*
X90890659Y-58420000D01*
X90870063Y-58184592D01*
X90808903Y-57956337D01*
X90709035Y-57742171D01*
X90573495Y-57548599D01*
X90406401Y-57381505D01*
X90220839Y-57251573D01*
X90181975Y-57207257D01*
X90167964Y-57150000D01*
X90181975Y-57092743D01*
X90220839Y-57048426D01*
X90406401Y-56918495D01*
X90573495Y-56751401D01*
X90709035Y-56557830D01*
X90808903Y-56343663D01*
X90870063Y-56115408D01*
X90890659Y-55880000D01*
X90890659Y-55879999D01*
X93309531Y-55879999D01*
X93329364Y-56106689D01*
X93388261Y-56326497D01*
X93484432Y-56532735D01*
X93614953Y-56719140D01*
X93775859Y-56880046D01*
X93962264Y-57010567D01*
X93962265Y-57010567D01*
X93962266Y-57010568D01*
X94168504Y-57106739D01*
X94388308Y-57165635D01*
X94615000Y-57185468D01*
X94841692Y-57165635D01*
X95061496Y-57106739D01*
X95267734Y-57010568D01*
X95454139Y-56880047D01*
X95615047Y-56719139D01*
X95745568Y-56532734D01*
X95841739Y-56326496D01*
X95900635Y-56106692D01*
X95920468Y-55880000D01*
X95920468Y-55879999D01*
X100929531Y-55879999D01*
X100949364Y-56106689D01*
X101008261Y-56326497D01*
X101104432Y-56532735D01*
X101234953Y-56719140D01*
X101395859Y-56880046D01*
X101582264Y-57010567D01*
X101582265Y-57010567D01*
X101582266Y-57010568D01*
X101788504Y-57106739D01*
X102008308Y-57165635D01*
X102235000Y-57185468D01*
X102461692Y-57165635D01*
X102681496Y-57106739D01*
X102887734Y-57010568D01*
X103074139Y-56880047D01*
X103235047Y-56719139D01*
X103365568Y-56532734D01*
X103461739Y-56326496D01*
X103520635Y-56106692D01*
X103540468Y-55880000D01*
X103520635Y-55653308D01*
X103461739Y-55433504D01*
X103365568Y-55227266D01*
X103358303Y-55216891D01*
X103235046Y-55040859D01*
X103074140Y-54879953D01*
X102887735Y-54749432D01*
X102681497Y-54653261D01*
X102461689Y-54594364D01*
X102235000Y-54574531D01*
X102008310Y-54594364D01*
X101788502Y-54653261D01*
X101582264Y-54749432D01*
X101395859Y-54879953D01*
X101234953Y-55040859D01*
X101104432Y-55227264D01*
X101008261Y-55433502D01*
X100949364Y-55653310D01*
X100929531Y-55879999D01*
X95920468Y-55879999D01*
X95900635Y-55653308D01*
X95841739Y-55433504D01*
X95745568Y-55227266D01*
X95738303Y-55216891D01*
X95615046Y-55040859D01*
X95454140Y-54879953D01*
X95267735Y-54749432D01*
X95061497Y-54653261D01*
X94841689Y-54594364D01*
X94615000Y-54574531D01*
X94388310Y-54594364D01*
X94168502Y-54653261D01*
X93962264Y-54749432D01*
X93775859Y-54879953D01*
X93614953Y-55040859D01*
X93484432Y-55227264D01*
X93388261Y-55433502D01*
X93329364Y-55653310D01*
X93309531Y-55879999D01*
X90890659Y-55879999D01*
X90870063Y-55644592D01*
X90808903Y-55416337D01*
X90709035Y-55202171D01*
X90573495Y-55008599D01*
X90406401Y-54841505D01*
X90220839Y-54711573D01*
X90181974Y-54667255D01*
X90167964Y-54609999D01*
X90181975Y-54552742D01*
X90220837Y-54508428D01*
X90406401Y-54378495D01*
X90573495Y-54211401D01*
X90709035Y-54017830D01*
X90808903Y-53803663D01*
X90870063Y-53575408D01*
X90890659Y-53340000D01*
X90870063Y-53104592D01*
X90808903Y-52876337D01*
X90709035Y-52662171D01*
X90573495Y-52468599D01*
X90406401Y-52301505D01*
X90212830Y-52165965D01*
X89998663Y-52066097D01*
X89937502Y-52049709D01*
X89770407Y-52004936D01*
X89535000Y-51984340D01*
X89299592Y-52004936D01*
X89071336Y-52066097D01*
X88857170Y-52165965D01*
X88663598Y-52301505D01*
X88496505Y-52468598D01*
X88360965Y-52662170D01*
X88261097Y-52876336D01*
X88199936Y-53104592D01*
X88179340Y-53339999D01*
X88199936Y-53575407D01*
X88233321Y-53700000D01*
X88261097Y-53803663D01*
X88360965Y-54017830D01*
X88496505Y-54211401D01*
X88663599Y-54378495D01*
X88849160Y-54508426D01*
X88888024Y-54552743D01*
X88902035Y-54610000D01*
X88888024Y-54667257D01*
X88849159Y-54711575D01*
X88663595Y-54841508D01*
X88496505Y-55008598D01*
X88360965Y-55202170D01*
X88261097Y-55416336D01*
X88199936Y-55644592D01*
X88179340Y-55880000D01*
X88199936Y-56115407D01*
X88233321Y-56240000D01*
X88261097Y-56343663D01*
X88360965Y-56557830D01*
X88496505Y-56751401D01*
X88663599Y-56918495D01*
X88849160Y-57048426D01*
X88888024Y-57092743D01*
X88902035Y-57150000D01*
X88888024Y-57207257D01*
X88849158Y-57251575D01*
X88711824Y-57347738D01*
X88663595Y-57381508D01*
X88496505Y-57548598D01*
X88360965Y-57742170D01*
X88261097Y-57956336D01*
X88199936Y-58184592D01*
X88179340Y-58419999D01*
X82910500Y-58419999D01*
X82910500Y-50799999D01*
X93309531Y-50799999D01*
X93329364Y-51026689D01*
X93388261Y-51246497D01*
X93484432Y-51452735D01*
X93614953Y-51639140D01*
X93775859Y-51800046D01*
X93962264Y-51930567D01*
X93962265Y-51930567D01*
X93962266Y-51930568D01*
X94168504Y-52026739D01*
X94388308Y-52085635D01*
X94615000Y-52105468D01*
X94841692Y-52085635D01*
X95061496Y-52026739D01*
X95267734Y-51930568D01*
X95454139Y-51800047D01*
X95615047Y-51639139D01*
X95745568Y-51452734D01*
X95841739Y-51246496D01*
X95900635Y-51026692D01*
X95920468Y-50800000D01*
X95920468Y-50799999D01*
X100929531Y-50799999D01*
X100949364Y-51026689D01*
X101008261Y-51246497D01*
X101104432Y-51452735D01*
X101234953Y-51639140D01*
X101395859Y-51800046D01*
X101582264Y-51930567D01*
X101582265Y-51930567D01*
X101582266Y-51930568D01*
X101788504Y-52026739D01*
X102008308Y-52085635D01*
X102235000Y-52105468D01*
X102461692Y-52085635D01*
X102681496Y-52026739D01*
X102887734Y-51930568D01*
X103074139Y-51800047D01*
X103235047Y-51639139D01*
X103365568Y-51452734D01*
X103461739Y-51246496D01*
X103520635Y-51026692D01*
X103540468Y-50800000D01*
X103520635Y-50573308D01*
X103461739Y-50353504D01*
X103365568Y-50147266D01*
X103235047Y-49960861D01*
X103235046Y-49960859D01*
X103074140Y-49799953D01*
X102887735Y-49669432D01*
X102681497Y-49573261D01*
X102461689Y-49514364D01*
X102235000Y-49494531D01*
X102008310Y-49514364D01*
X101788502Y-49573261D01*
X101582264Y-49669432D01*
X101395859Y-49799953D01*
X101234953Y-49960859D01*
X101104432Y-50147264D01*
X101008261Y-50353502D01*
X100949364Y-50573310D01*
X100929531Y-50799999D01*
X95920468Y-50799999D01*
X95900635Y-50573308D01*
X95841739Y-50353504D01*
X95745568Y-50147266D01*
X95615047Y-49960861D01*
X95615046Y-49960859D01*
X95454140Y-49799953D01*
X95267735Y-49669432D01*
X95061497Y-49573261D01*
X94841689Y-49514364D01*
X94615000Y-49494531D01*
X94388310Y-49514364D01*
X94168502Y-49573261D01*
X93962264Y-49669432D01*
X93775859Y-49799953D01*
X93614953Y-49960859D01*
X93484432Y-50147264D01*
X93388261Y-50353502D01*
X93329364Y-50573310D01*
X93309531Y-50799999D01*
X82910500Y-50799999D01*
X82910500Y-45871182D01*
X105984500Y-45871182D01*
X106023604Y-46130615D01*
X106100937Y-46381323D01*
X106214772Y-46617704D01*
X106350766Y-46817170D01*
X106362571Y-46834485D01*
X106541015Y-47026801D01*
X106541019Y-47026805D01*
X106746143Y-47190386D01*
X106973357Y-47321568D01*
X107141550Y-47387579D01*
X107190129Y-47406645D01*
X107217584Y-47417420D01*
X107473370Y-47475802D01*
X107529408Y-47480001D01*
X107669501Y-47490500D01*
X107669506Y-47490500D01*
X107800494Y-47490500D01*
X107800499Y-47490500D01*
X107923079Y-47481313D01*
X107996630Y-47475802D01*
X108252416Y-47417420D01*
X108496643Y-47321568D01*
X108723857Y-47190386D01*
X108928981Y-47026805D01*
X109028273Y-46919792D01*
X109107428Y-46834485D01*
X109107429Y-46834482D01*
X109107433Y-46834479D01*
X109255228Y-46617704D01*
X109369063Y-46381323D01*
X109446396Y-46130615D01*
X109485500Y-45871182D01*
X130494500Y-45871182D01*
X130533604Y-46130615D01*
X130610937Y-46381323D01*
X130724772Y-46617704D01*
X130860766Y-46817170D01*
X130872571Y-46834485D01*
X131051015Y-47026801D01*
X131051019Y-47026805D01*
X131256143Y-47190386D01*
X131483357Y-47321568D01*
X131651550Y-47387579D01*
X131700129Y-47406645D01*
X131727584Y-47417420D01*
X131983370Y-47475802D01*
X132039408Y-47480001D01*
X132179501Y-47490500D01*
X132179506Y-47490500D01*
X132310494Y-47490500D01*
X132310499Y-47490500D01*
X132433079Y-47481313D01*
X132506630Y-47475802D01*
X132762416Y-47417420D01*
X132789855Y-47406651D01*
X150274500Y-47406651D01*
X150289789Y-47591164D01*
X150289789Y-47591167D01*
X150289790Y-47591169D01*
X150350428Y-47830623D01*
X150449652Y-48056831D01*
X150584755Y-48263621D01*
X150752052Y-48445355D01*
X150946980Y-48597073D01*
X151164221Y-48714638D01*
X151281035Y-48754740D01*
X151397846Y-48794842D01*
X151397848Y-48794842D01*
X151397850Y-48794843D01*
X151641494Y-48835500D01*
X151888505Y-48835500D01*
X151888506Y-48835500D01*
X152132150Y-48794843D01*
X152365779Y-48714638D01*
X152583020Y-48597073D01*
X152777948Y-48445355D01*
X152835470Y-48382869D01*
X155274500Y-48382869D01*
X155280909Y-48442484D01*
X155281980Y-48445355D01*
X155331204Y-48577331D01*
X155417454Y-48692546D01*
X155532669Y-48778796D01*
X155667517Y-48829091D01*
X155727127Y-48835500D01*
X157802872Y-48835499D01*
X157862483Y-48829091D01*
X157997331Y-48778796D01*
X158112546Y-48692546D01*
X158198796Y-48577331D01*
X158249091Y-48442483D01*
X158255500Y-48382873D01*
X158255499Y-44327128D01*
X158249091Y-44267517D01*
X158198796Y-44132669D01*
X158112546Y-44017454D01*
X157997331Y-43931204D01*
X157862483Y-43880909D01*
X157802873Y-43874500D01*
X157802869Y-43874500D01*
X155727130Y-43874500D01*
X155667515Y-43880909D01*
X155532669Y-43931204D01*
X155417454Y-44017454D01*
X155331204Y-44132668D01*
X155280909Y-44267516D01*
X155274500Y-44327130D01*
X155274500Y-48382869D01*
X152835470Y-48382869D01*
X152945245Y-48263621D01*
X153080348Y-48056831D01*
X153179572Y-47830623D01*
X153240210Y-47591169D01*
X153249770Y-47475802D01*
X153255500Y-47406651D01*
X153255500Y-45303349D01*
X153240210Y-45118835D01*
X153240210Y-45118831D01*
X153179572Y-44879377D01*
X153080348Y-44653169D01*
X152945245Y-44446379D01*
X152777948Y-44264645D01*
X152583020Y-44112927D01*
X152365779Y-43995362D01*
X152365775Y-43995360D01*
X152365774Y-43995360D01*
X152132153Y-43915157D01*
X151926913Y-43880909D01*
X151888506Y-43874500D01*
X151641494Y-43874500D01*
X151603087Y-43880909D01*
X151397846Y-43915157D01*
X151164225Y-43995360D01*
X151164221Y-43995361D01*
X151164221Y-43995362D01*
X151147894Y-44004198D01*
X150946978Y-44112928D01*
X150752051Y-44264645D01*
X150597067Y-44433003D01*
X150584755Y-44446379D01*
X150454649Y-44645521D01*
X150449651Y-44653171D01*
X150350428Y-44879375D01*
X150289789Y-45118835D01*
X150274500Y-45303349D01*
X150274500Y-47406651D01*
X132789855Y-47406651D01*
X133006643Y-47321568D01*
X133233857Y-47190386D01*
X133438981Y-47026805D01*
X133538273Y-46919792D01*
X133617428Y-46834485D01*
X133617429Y-46834482D01*
X133617433Y-46834479D01*
X133765228Y-46617704D01*
X133879063Y-46381323D01*
X133956396Y-46130615D01*
X133995500Y-45871182D01*
X133995500Y-45608818D01*
X133956396Y-45349385D01*
X133879063Y-45098677D01*
X133765228Y-44862296D01*
X133617433Y-44645521D01*
X133617432Y-44645520D01*
X133617428Y-44645514D01*
X133438984Y-44453198D01*
X133438983Y-44453197D01*
X133438981Y-44453195D01*
X133233857Y-44289614D01*
X133233856Y-44289613D01*
X133006641Y-44158431D01*
X132762418Y-44062580D01*
X132506627Y-44004197D01*
X132310499Y-43989500D01*
X132310494Y-43989500D01*
X132179506Y-43989500D01*
X132179501Y-43989500D01*
X131983372Y-44004197D01*
X131727581Y-44062580D01*
X131483358Y-44158431D01*
X131256143Y-44289613D01*
X131051015Y-44453198D01*
X130872571Y-44645514D01*
X130867351Y-44653171D01*
X130724772Y-44862296D01*
X130610937Y-45098677D01*
X130533604Y-45349385D01*
X130494500Y-45608818D01*
X130494500Y-45871182D01*
X109485500Y-45871182D01*
X109485500Y-45608818D01*
X109446396Y-45349385D01*
X109369063Y-45098677D01*
X109255228Y-44862296D01*
X109107433Y-44645521D01*
X109107432Y-44645520D01*
X109107428Y-44645514D01*
X108928984Y-44453198D01*
X108928983Y-44453197D01*
X108928981Y-44453195D01*
X108723857Y-44289614D01*
X108723856Y-44289613D01*
X108496641Y-44158431D01*
X108252418Y-44062580D01*
X107996627Y-44004197D01*
X107800499Y-43989500D01*
X107800494Y-43989500D01*
X107669506Y-43989500D01*
X107669501Y-43989500D01*
X107473372Y-44004197D01*
X107217581Y-44062580D01*
X106973358Y-44158431D01*
X106746143Y-44289613D01*
X106541015Y-44453198D01*
X106362571Y-44645514D01*
X106357351Y-44653171D01*
X106214772Y-44862296D01*
X106100937Y-45098677D01*
X106023604Y-45349385D01*
X105984500Y-45608818D01*
X105984500Y-45871182D01*
X82910500Y-45871182D01*
X82910500Y-40254500D01*
X82927113Y-40192500D01*
X82972500Y-40147113D01*
X83034500Y-40130500D01*
X168785500Y-40130500D01*
X168847500Y-40147113D01*
G37*
%TD.AperFunction*%
%TD*%
M02*
